<svg xmlns="http://www.w3.org/2000/svg" xmlns:xlink="http://www.w3.org/1999/xlink" version="1.1" width="262" height="113" viewBox="0 0 262 113">
<defs>
<path id="font_1_1" d="M.69898989 .22743225C.71499636 .22743225 .7369995 .22743225 .7369995 .25042726 .7369995 .2734375 .71499636 .2734375 .69898989 .2734375H.12599182C.10998535 .2734375 .08799744 .2734375 .08799744 .25042726 .08799744 .22743225 .10998535 .22743225 .12599182 .22743225H.69898989Z"/>
<path id="font_2_3" d="M.25299073 .33370973C.33198548 .33370973 .38198854 .27557374 .38198854 .17037964 .38198854 .045440675 .31098939 .008514404 .2579956 .008514404 .20298767 .008514404 .12799073 .0284729 .09298706 .08137512 .1289978 .08137512 .1539917 .10437012 .1539917 .13737488 .1539917 .16937256 .1309967 .19238281 .09899902 .19238281 .07199097 .19238281 .04399109 .17536927 .04399109 .13537598 .04399109 .04045105 .1459961-.021484375 .2599945-.021484375 .3929901-.021484375 .48599244 .070388797 .48599244 .17037964 .48599244 .25352479 .41999818 .32969667 .31799317 .3517456 .39698792 .37982179 .45599366 .4479828 .45599366 .52804568 .45599366 .6080475 .3659973 .66503909 .2619934 .66503909 .15499878 .66503909 .07398987 .6070404 .07398987 .53105166 .07398987 .49404908 .09899902 .4780426 .125 .4780426 .1559906 .4780426 .17599488 .5000458 .17599488 .52905276 .17599488 .56604006 .14399719 .5800476 .12199402 .5810547 .1639862 .6360321 .24099732 .6390381 .25898744 .6390381 .2849884 .6390381 .36099244 .6310272 .36099244 .52804568 .36099244 .45799256 .33198548 .41589356 .31799317 .39985658 .28799439 .36878968 .2649994 .36679078 .20399475 .3627777 .18499756 .36177064 .1769867 .36076356 .1769867 .3477478 .1769867 .33370973 .18598938 .33370973 .20298767 .33370973H.25299073Z"/>
<path id="font_2_2" d="M.28199769 .20405579C.2979889 .21907044 .33999635 .2520752 .35598756 .26608277 .41799928 .32312013 .47698976 .3781433 .47698976 .46917726 .47698976 .588089 .3769989 .66503909 .2519989 .66503909 .13198853 .66503909 .052993776 .57411196 .052993776 .48516847 .052993776 .4361725 .09199524 .4291687 .10598755 .4291687 .1269989 .4291687 .1579895 .4441681 .1579895 .48217774 .1579895 .5341797 .10798645 .5341797 .09599304 .5341797 .125 .6070709 .19198609 .6320343 .24099732 .6320343 .33399964 .6320343 .38198854 .55314639 .38198854 .46917726 .38198854 .36514283 .30899049 .28910829 .19099427 .16804505L.06498718 .037994386C.052993776 .026992798 .052993776 .024993897 .052993776 0H.44799806L.47698976 .17904663H.44599916C.44299317 .1590271 .43499757 .10900879 .4229889 .08999634 .4169922 .08198547 .34098817 .08198547 .32499696 .08198547H.14698792L.28199769 .20405579Z"/>
<path id="font_2_1" d="M.31399537 .63708499C.31399537 .664032 .31199647 .66503909 .2849884 .66503909 .24398804 .6251831 .19099427 .6013489 .09599304 .6013489V.5683594C.12298584 .5683594 .1769867 .5683594 .23498535 .5953522V.08203125C.23498535 .04499817 .23199463 .032989503 .13699341 .032989503H.101989749V0C.14299011 .0029907227 .22898865 .0029907227 .27398683 .0029907227 .31900025 .0029907227 .4059906 .0029907227 .44699098 0V.032989503H.4119873C.31698609 .032989503 .31399537 .04499817 .31399537 .08203125V.63708499Z"/>
<clipPath id="clip_3">
<path transform="matrix(1,0,0,-1.00006,11.414001,101.46453)" d="M0 0H239.09671V89.66125H0Z"/>
</clipPath>
<path id="font_4_2" d="M.33399964 .30233766C.33999635 .32835389 .36299134 .42037965 .43299867 .42037965 .43798829 .42037965 .46199037 .42037965 .48298646 .40734864 .45498658 .402359 .43499757 .37734986 .43499757 .35334779 .43499757 .33735658 .44599916 .31835938 .47299195 .31835938 .49499513 .31835938 .5269928 .3363495 .5269928 .37635804 .5269928 .42837525 .46798707 .4423828 .43399049 .4423828 .37599183 .4423828 .34098817 .38935853 .32899476 .36634828 .3039856 .43237306 .25 .4423828 .22099304 .4423828 .116989139 .4423828 .05999756 .3133545 .05999756 .28834535 .05999756 .27833558 .069992069 .27833558 .07199097 .27833558 .07998657 .27833558 .08299255 .28033448 .084991458 .28933717 .11898804 .39535523 .18499756 .42037965 .21899414 .42037965 .23799134 .42037965 .272995 .4113617 .272995 .35334779 .272995 .32235719 .2559967 .25532533 .21899414 .11528015 .20298767 .053268434 .16799927 .011245728 .12399292 .011245728 .117996219 .011245728 .09498596 .011245728 .07398987 .024276734 .09899902 .029266358 .12098694 .05027771 .12098694 .07827759 .12098694 .105270389 .09899902 .11328125 .083999637 .11328125 .053985597 .11328125 .0289917 .08728027 .0289917 .055267335 .0289917 .009246826 .07899475-.0107421879 .12298584-.0107421879 .18899536-.0107421879 .22499085 .059280397 .22799683 .0652771 .23999024 .028274537 .27598573-.0107421879 .33599855-.0107421879 .43899537-.0107421879 .49598695 .118270877 .49598695 .14328003 .49598695 .1532898 .4869995 .1532898 .48399354 .1532898 .47499085 .1532898 .47299195 .14929199 .47099305 .14228821 .43798829 .03527832 .36999513 .011245728 .33799745 .011245728 .29899598 .011245728 .2829895 .043273927 .2829895 .07727051 .2829895 .09927368 .2889862 .121276859 .2999878 .16529846L.33399964 .30233766Z"/>
<path id="font_4_3" d="M.48599244 .38136292C.48999024 .39537049 .48999024 .39736939 .48999024 .40437318 .48999024 .42237855 .47599793 .43138124 .46099855 .43138124 .45098878 .43138124 .43499757 .42536927 .42599488 .41036988 .42399598 .405365 .41600038 .37435914 .4119873 .35635377 .40499879 .33035279 .397995 .30334474 .3919983 .27633668L.34700013 .09628296C.34298707 .08126831 .2999878 .011245728 .23399353 .011245728 .18299866 .011245728 .17199707 .055267335 .17199707 .0922699 .17199707 .1382904 .18899536 .20030213 .22299195 .28833009 .23899842 .3293457 .24299622 .3403473 .24299622 .36035157 .24299622 .405365 .21099854 .4423828 .16099549 .4423828 .06599426 .4423828 .0289917 .29733277 .0289917 .28833009 .0289917 .27833558 .038986207 .27833558 .040985109 .27833558 .050994874 .27833558 .051986696 .28033448 .056991579 .29634095 .083999637 .3903656 .12399292 .42037965 .1579895 .42037965 .1659851 .42037965 .18299866 .42037965 .18299866 .3883667 .18299866 .36335755 .17298889 .3373413 .1659851 .31834413 .12599182 .21231079 .10798645 .1552887 .10798645 .10827637 .10798645 .019256592 .17098999-.0107421879 .22999573-.0107421879 .2689972-.0107421879 .30299378 .0062561037 .33099366 .03425598 .31799317-.017745972 .30599977-.06674194 .2659912-.11973572 .23999024-.15385437 .20199585-.18309021 .1559906-.18309021 .14199829-.18309021 .09700012-.18005371 .07998657-.14074707 .09599304-.14074707 .10899353-.14074707 .12298584-.1287384 .1329956-.11973572 .14299011-.10673523 .14299011-.08773804 .14299011-.056747438 .115997318-.052734376 .10598755-.052734376 .08299255-.052734376 .049987794-.068740848 .049987794-.11773682 .049987794-.16796875 .09399414-.20507813 .1559906-.20507813 .25898744-.20507813 .3619995-.11373901 .3899994-.00074768069L.48599244 .38136292Z"/>
<path id="font_5_3" d="M.68699648 .32714845C.70199587 .32714845 .72099307 .32714845 .72099307 .34713746 .72099307 .36714173 .70199587 .36714173 .6879883 .36714173H.08898926C.07499695 .36714173 .055999757 .36714173 .055999757 .34713746 .055999757 .32714845 .07499695 .32714845 .08999634 .32714845H.68699648M.6879883 .13284302C.70199587 .13284302 .72099307 .13284302 .72099307 .15284729 .72099307 .17285156 .70199587 .17285156 .68699648 .17285156H.08999634C.07499695 .17285156 .055999757 .17285156 .055999757 .15284729 .055999757 .13284302 .07499695 .13284302 .08898926 .13284302H.6879883Z"/>
<path id="font_4_1" d="M.36698915 .3996582H.45298768C.47299195 .3996582 .48298646 .3996582 .48298646 .41966249 .48298646 .43066407 .47299195 .43066407 .45599366 .43066407H.37298585L.3939972 .5449524C.397995 .5660095 .4119873 .6370239 .41799928 .6490326 .4269867 .66804507 .44400025 .68307498 .46499635 .68307498 .46899415 .68307498 .49499513 .68307498 .5139923 .66503909 .46998597 .661026 .45999146 .6260376 .45999146 .6110382 .45999146 .58802798 .47799684 .57603457 .49699403 .57603457 .522995 .57603457 .5519867 .5980377 .5519867 .6360321 .5519867 .6820679 .5059967 .7050781 .46499635 .7050781 .43099977 .7050781 .36799623 .68707278 .33799745 .58802798 .33198548 .56700137 .32899476 .5569763 .30499269 .43066407H.23599243C.21699524 .43066407 .20599365 .43066407 .20599365 .4116516 .20599365 .3996582 .21499634 .3996582 .23399353 .3996582H.2999878L.22499085 .0048828127C.20698548-.09207153 .18998719-.18309021 .13798523-.18309021 .13398743-.18309021 .10899353-.18309021 .08999634-.16506958 .13598633-.1620636 .14498902-.12606812 .14498902-.111068729 .14498902-.08807373 .1269989-.07606506 .10798645-.07606506 .08198547-.07606506 .052993776-.09806824 .052993776-.13606262 .052993776-.18109131 .09700012-.20507813 .13798523-.20507813 .19299317-.20507813 .23298645-.14607239 .25099183-.108062747 .2829895-.04508972 .30599977 .07583618 .30699159 .082839969L.36698915 .3996582Z"/>
<path id="font_5_1" d="M.33099366-.2400055C.33099366-.23701477 .33099366-.23500061 .31399537-.21800232 .18899536-.0920105 .15699768 .09700012 .15699768 .25 .15699768 .42399598 .19499207 .59799197 .31799317 .72299197 .33099366 .73498538 .33099366 .7369995 .33099366 .73999026 .33099366 .746994 .32699586 .75 .32099916 .75 .31098939 .75 .22099304 .6819916 .1619873 .5549927 .11099243 .44499208 .09899902 .33399964 .09899902 .25 .09899902 .17199707 .10998535 .050994874 .16499329-.06201172 .22499085-.18501282 .31098939-.25 .32099916-.25 .32699586-.25 .33099366-.24700928 .33099366-.2400055Z"/>
<path id="font_5_2" d="M.2889862 .25C.2889862 .32798768 .27799989 .44898988 .22299195 .56199648 .16299439 .68499758 .07699585 .75 .066986087 .75 .06098938 .75 .056991579 .74598696 .056991579 .73999026 .056991579 .7369995 .056991579 .73498538 .07598877 .71699526 .17399597 .6179962 .23098755 .45899964 .23098755 .25 .23098755 .07899475 .19400025-.09700012 .069992069-.2230072 .056991579-.23500061 .056991579-.23701477 .056991579-.2400055 .056991579-.2460022 .06098938-.25 .066986087-.25 .07699585-.25 .16699219-.18200684 .22599793-.055007936 .2769928 .054992677 .2889862 .16600037 .2889862 .25Z"/>
</defs>
<path transform="matrix(1,0,0,-1.00006,11.414001,101.46453)" stroke-width=".09962" stroke-linecap="butt" stroke-miterlimit="10" stroke-linejoin="miter" fill="none" stroke="#e0e0e0" d="M44.83063 0V89.66125M74.71771 0V89.66125M104.60481 0V89.66125M134.4919 0V89.66125M164.37899 0V89.66125M194.26607 0V89.66125"/>
<path transform="matrix(1,0,0,-1.00006,11.414001,101.46453)" stroke-width=".19925" stroke-linecap="butt" stroke-miterlimit="10" stroke-linejoin="miter" fill="none" stroke="#c0c0c0" d="M29.88708 0V89.66125M59.77417 0V89.66125M89.66125 0V89.66125M149.43544 0V89.66125M179.32253 0V89.66125M209.20963 0V89.66125"/>
<path transform="matrix(1,0,0,-1.00006,11.414001,101.46453)" stroke-width=".09962" stroke-linecap="butt" stroke-miterlimit="10" stroke-linejoin="miter" fill="none" stroke="#e0e0e0" d="M0 0H239.09671M0 29.88708H239.09671M0 59.77417H239.09671M0 89.66125H239.09671"/>
<path transform="matrix(1,0,0,-1.00006,11.414001,101.46453)" stroke-width=".19925" stroke-linecap="butt" stroke-miterlimit="10" stroke-linejoin="miter" fill="none" stroke="#c0c0c0" d="M0 14.94354H239.09671M0 74.71771H239.09671"/>
<path transform="matrix(1,0,0,-1.00006,11.414001,101.46453)" stroke-width=".19925" stroke-linecap="butt" stroke-miterlimit="10" stroke-linejoin="miter" fill="none" stroke="#929292" d="M44.83063 43.41321V46.24805M74.71771 43.41321V46.24805M104.60481 43.41321V46.24805M134.4919 43.41321V46.24805M164.37899 43.41321V46.24805M194.26607 43.41321V46.24805"/>
<path transform="matrix(1,0,0,-1.00006,11.414001,101.46453)" stroke-width=".19925" stroke-linecap="butt" stroke-miterlimit="10" stroke-linejoin="miter" fill="none" stroke="#929292" d="M29.88708 42.70471V46.95653M59.77417 42.70471V46.95653M89.66125 42.70471V46.95653M149.43544 42.70471V46.95653M179.32253 42.70471V46.95653M209.20963 42.70471V46.95653"/>
<path transform="matrix(1,0,0,-1.00006,11.414001,101.46453)" stroke-width=".19925" stroke-linecap="butt" stroke-miterlimit="10" stroke-linejoin="miter" fill="none" stroke="#929292" d="M118.13094 0H120.96577M118.13094 29.88708H120.96577M118.13094 59.77417H120.96577M118.13094 89.66125H120.96577"/>
<path transform="matrix(1,0,0,-1.00006,11.414001,101.46453)" stroke-width=".19925" stroke-linecap="butt" stroke-miterlimit="10" stroke-linejoin="miter" fill="none" stroke="#929292" d="M117.42242 14.94354H121.67426M117.42242 74.71771H121.67426"/>
<path transform="matrix(1,0,0,-1.00006,11.414001,101.46453)" stroke-width=".3985" stroke-linecap="butt" stroke-miterlimit="10" stroke-linejoin="miter" fill="none" stroke="#000000" d="M-9.96277 44.83063H247.06696"/>
<path transform="matrix(1,0,0,-1.00006,258.48097,56.63121)" d="M1.99252 0-1.19551 1.59401 0 0-1.19551-1.59401"/>
<path transform="matrix(1,0,0,-1.00006,11.414001,101.46453)" stroke-width=".3985" stroke-linecap="butt" stroke-miterlimit="10" stroke-linejoin="miter" fill="none" stroke="#000000" d="M119.54836-9.96277V97.6315"/>
<path transform="matrix(0,-1.00006,-1,-0,130.96237,3.827179)" d="M1.99252 0-1.19551 1.59401 0 0-1.19551-1.59401"/>
<use data-text="&#x2212;" xlink:href="#font_1_1" transform="matrix(7.9701,0,0,-7.9705779,35.891,67.41349)"/>
<use data-text="3" xlink:href="#font_2_3" transform="matrix(7.9701,0,0,-7.9705779,42.476999,67.41349)"/>
<use data-text="&#x2212;" xlink:href="#font_1_1" transform="matrix(7.9701,0,0,-7.9705779,65.778,67.41349)"/>
<use data-text="2" xlink:href="#font_2_2" transform="matrix(7.9701,0,0,-7.9705779,72.364,67.41349)"/>
<use data-text="&#x2212;" xlink:href="#font_1_1" transform="matrix(7.9701,0,0,-7.9705779,95.665,67.41349)"/>
<use data-text="1" xlink:href="#font_2_1" transform="matrix(7.9701,0,0,-7.9705779,102.251,67.41349)"/>
<use data-text="1" xlink:href="#font_2_1" transform="matrix(7.9701,0,0,-7.9705779,158.732,67.41349)"/>
<use data-text="2" xlink:href="#font_2_2" transform="matrix(7.9701,0,0,-7.9705779,188.619,67.41349)"/>
<use data-text="3" xlink:href="#font_2_3" transform="matrix(7.9701,0,0,-7.9705779,218.50702,67.41349)"/>
<use data-text="&#x2212;" xlink:href="#font_1_1" transform="matrix(7.9701,0,0,-7.9705779,114.496,88.67377)"/>
<use data-text="1" xlink:href="#font_2_1" transform="matrix(7.9701,0,0,-7.9705779,121.082,88.67377)"/>
<use data-text="1" xlink:href="#font_2_1" transform="matrix(7.9701,0,0,-7.9705779,121.082,29.310204)"/>
<g clip-path="url(#clip_3)">
<path transform="matrix(1,0,0,-1.00006,11.414001,101.46453)" stroke-width="1.59404" stroke-linecap="butt" stroke-miterlimit="10" stroke-linejoin="miter" fill="none" stroke="#0000ff" d="M29.88708 44.83063H36.52827 43.1695 49.8107 56.4519 63.09311 69.73433 76.37553 83.01674 89.65794"/>
<path transform="matrix(1,0,0,-1.00006,11.414001,101.46453)" stroke-width="1.59404" stroke-linecap="butt" stroke-miterlimit="10" stroke-linejoin="miter" fill="none" stroke="#0000ff" d="M89.66125 74.71771 94.64223 65.58588 99.62323 58.1143 104.6042 52.303 109.58519 48.15195 114.56616 45.66115 119.54715 44.83063 124.52812 45.66035 129.50911 48.15034 134.4901 52.3006"/>
<path transform="matrix(1,0,0,-1.00006,11.414001,101.46453)" stroke-width="1.59404" stroke-linecap="butt" stroke-miterlimit="10" stroke-linejoin="miter" fill="none" stroke="#0000ff" d="M134.4919 52.3024 142.79363 48.15154 151.09535 44.00064 159.3971 39.8498 167.69882 35.69891 176.00057 31.54807 184.3023 27.39719 192.60402 23.24632 200.90576 19.09546 209.2075 14.94456"/>
<path transform="matrix(1,0,0,-1.00006,11.414001,101.46453)" d="M29.88708 44.83063"/>
<path transform="matrix(1,0,0,-1.00006,11.414001,101.46453)" stroke-width=".3985" stroke-linecap="butt" stroke-miterlimit="10" stroke-linejoin="miter" fill="none" stroke="#000000" d="M29.88708 44.83063"/>
<path transform="matrix(1,0,0,-1.00006,11.414001,101.46453)" d="M89.66125 44.83063"/>
<path transform="matrix(1,0,0,-1.00006,11.414001,101.46453)" stroke-width=".3985" stroke-linecap="butt" stroke-miterlimit="10" stroke-linejoin="miter" fill="none" stroke="#000000" d="M89.66125 44.83063"/>
<path transform="matrix(1,0,0,-1.00006,11.414001,101.46453)" d="M89.66125 74.71771" fill="#ffffff"/>
<path transform="matrix(1,0,0,-1.00006,11.414001,101.46453)" stroke-width=".3985" stroke-linecap="butt" stroke-miterlimit="10" stroke-linejoin="miter" fill="none" stroke="#000000" d="M89.66125 74.71771"/>
<path transform="matrix(1,0,0,-1.00006,11.414001,101.46453)" d="M134.4919 52.3024" fill="#ffffff"/>
<path transform="matrix(1,0,0,-1.00006,11.414001,101.46453)" stroke-width=".3985" stroke-linecap="butt" stroke-miterlimit="10" stroke-linejoin="miter" fill="none" stroke="#000000" d="M134.4919 52.3024"/>
<path transform="matrix(1,0,0,-1.00006,11.414001,101.46453)" d="M209.20963 14.94354" fill="#ffffff"/>
<path transform="matrix(1,0,0,-1.00006,11.414001,101.46453)" stroke-width=".3985" stroke-linecap="butt" stroke-miterlimit="10" stroke-linejoin="miter" fill="none" stroke="#000000" d="M209.20963 14.94354"/>
</g>
<path transform="matrix(1,0,0,-1.00006,11.414001,101.46453)" d="M31.87964 44.83063C31.87964 45.93109 30.98755 46.82318 29.88708 46.82318 28.7866 46.82318 27.89453 45.93109 27.89453 44.83063 27.89453 43.73015 28.7866 42.83807 29.88708 42.83807 30.98755 42.83807 31.87964 43.73015 31.87964 44.83063ZM29.88708 44.83063"/>
<path transform="matrix(1,0,0,-1.00006,11.414001,101.46453)" stroke-width=".3985" stroke-linecap="butt" stroke-miterlimit="10" stroke-linejoin="miter" fill="none" stroke="#000000" d="M31.87964 44.83063C31.87964 45.93109 30.98755 46.82318 29.88708 46.82318 28.7866 46.82318 27.89453 45.93109 27.89453 44.83063 27.89453 43.73015 28.7866 42.83807 29.88708 42.83807 30.98755 42.83807 31.87964 43.73015 31.87964 44.83063ZM29.88708 44.83063"/>
<path transform="matrix(1,0,0,-1.00006,11.414001,101.46453)" d=""/>
<path transform="matrix(1,0,0,-1.00006,11.414001,101.46453)" stroke-width=".3985" stroke-linecap="butt" stroke-miterlimit="10" stroke-linejoin="miter" fill="none" stroke="#000000" d=""/>
<path transform="matrix(1,0,0,-1.00006,11.414001,101.46453)" d="M91.65381 44.83063C91.65381 45.93109 90.76173 46.82318 89.66125 46.82318 88.56079 46.82318 87.6687 45.93109 87.6687 44.83063 87.6687 43.73015 88.56079 42.83807 89.66125 42.83807 90.76173 42.83807 91.65381 43.73015 91.65381 44.83063ZM89.66125 44.83063"/>
<path transform="matrix(1,0,0,-1.00006,11.414001,101.46453)" stroke-width=".3985" stroke-linecap="butt" stroke-miterlimit="10" stroke-linejoin="miter" fill="none" stroke="#000000" d="M91.65381 44.83063C91.65381 45.93109 90.76173 46.82318 89.66125 46.82318 88.56079 46.82318 87.6687 45.93109 87.6687 44.83063 87.6687 43.73015 88.56079 42.83807 89.66125 42.83807 90.76173 42.83807 91.65381 43.73015 91.65381 44.83063ZM89.66125 44.83063"/>
<path transform="matrix(1,0,0,-1.00006,11.414001,101.46453)" d=""/>
<path transform="matrix(1,0,0,-1.00006,11.414001,101.46453)" stroke-width=".3985" stroke-linecap="butt" stroke-miterlimit="10" stroke-linejoin="miter" fill="none" stroke="#000000" d=""/>
<path transform="matrix(1,0,0,-1.00006,11.414001,101.46453)" d="M91.65381 74.71771C91.65381 75.81819 90.76173 76.71027 89.66125 76.71027 88.56079 76.71027 87.6687 75.81819 87.6687 74.71771 87.6687 73.61725 88.56079 72.72516 89.66125 72.72516 90.76173 72.72516 91.65381 73.61725 91.65381 74.71771ZM89.66125 74.71771" fill="#ffffff"/>
<path transform="matrix(1,0,0,-1.00006,11.414001,101.46453)" stroke-width=".3985" stroke-linecap="butt" stroke-miterlimit="10" stroke-linejoin="miter" fill="none" stroke="#000000" d="M91.65381 74.71771C91.65381 75.81819 90.76173 76.71027 89.66125 76.71027 88.56079 76.71027 87.6687 75.81819 87.6687 74.71771 87.6687 73.61725 88.56079 72.72516 89.66125 72.72516 90.76173 72.72516 91.65381 73.61725 91.65381 74.71771ZM89.66125 74.71771"/>
<path transform="matrix(1,0,0,-1.00006,11.414001,101.46453)" d="" fill="#ffffff"/>
<path transform="matrix(1,0,0,-1.00006,11.414001,101.46453)" stroke-width=".3985" stroke-linecap="butt" stroke-miterlimit="10" stroke-linejoin="miter" fill="none" stroke="#000000" d=""/>
<path transform="matrix(1,0,0,-1.00006,11.414001,101.46453)" d="M136.48445 52.3024C136.48445 53.40288 135.59236 54.29495 134.4919 54.29495 133.39142 54.29495 132.49935 53.40288 132.49935 52.3024 132.49935 51.20193 133.39142 50.30984 134.4919 50.30984 135.59236 50.30984 136.48445 51.20193 136.48445 52.3024ZM134.4919 52.3024" fill="#ffffff"/>
<path transform="matrix(1,0,0,-1.00006,11.414001,101.46453)" stroke-width=".3985" stroke-linecap="butt" stroke-miterlimit="10" stroke-linejoin="miter" fill="none" stroke="#000000" d="M136.48445 52.3024C136.48445 53.40288 135.59236 54.29495 134.4919 54.29495 133.39142 54.29495 132.49935 53.40288 132.49935 52.3024 132.49935 51.20193 133.39142 50.30984 134.4919 50.30984 135.59236 50.30984 136.48445 51.20193 136.48445 52.3024ZM134.4919 52.3024"/>
<path transform="matrix(1,0,0,-1.00006,11.414001,101.46453)" d="" fill="#ffffff"/>
<path transform="matrix(1,0,0,-1.00006,11.414001,101.46453)" stroke-width=".3985" stroke-linecap="butt" stroke-miterlimit="10" stroke-linejoin="miter" fill="none" stroke="#000000" d=""/>
<path transform="matrix(1,0,0,-1.00006,11.414001,101.46453)" d="M211.20218 14.94354C211.20218 16.044 210.31009 16.9361 209.20963 16.9361 208.10915 16.9361 207.21707 16.044 207.21707 14.94354 207.21707 13.84306 208.10915 12.95099 209.20963 12.95099 210.31009 12.95099 211.20218 13.84306 211.20218 14.94354ZM209.20963 14.94354" fill="#ffffff"/>
<path transform="matrix(1,0,0,-1.00006,11.414001,101.46453)" stroke-width=".3985" stroke-linecap="butt" stroke-miterlimit="10" stroke-linejoin="miter" fill="none" stroke="#000000" d="M211.20218 14.94354C211.20218 16.044 210.31009 16.9361 209.20963 16.9361 208.10915 16.9361 207.21707 16.044 207.21707 14.94354 207.21707 13.84306 208.10915 12.95099 209.20963 12.95099 210.31009 12.95099 211.20218 13.84306 211.20218 14.94354ZM209.20963 14.94354"/>
<path transform="matrix(1,0,0,-1.00006,11.414001,101.46453)" d="" fill="#ffffff"/>
<path transform="matrix(1,0,0,-1.00006,11.414001,101.46453)" stroke-width=".3985" stroke-linecap="butt" stroke-miterlimit="10" stroke-linejoin="miter" fill="none" stroke="#000000" d=""/>
<use data-text="x" xlink:href="#font_4_2" transform="matrix(9.9626,0,0,-9.963197,241.297,53.111635)"/>
<use data-text="y" xlink:href="#font_4_3" transform="matrix(9.9626,0,0,-9.963197,134.482,19.607628)"/>
<path transform="matrix(1,0,0,-1.00006,11.414001,101.46453)" d="M167.63098 70.73174H234.11447V87.668399H167.63098Z" fill="#ffffff"/>
<path transform="matrix(1,0,0,-1.00006,11.414001,101.46453)" stroke-width=".3985" stroke-linecap="butt" stroke-miterlimit="10" stroke-linejoin="miter" fill="none" stroke="#000000" d="M167.63098 70.73174H234.11447V87.668399H167.63098Z"/>
<path transform="matrix(1,0,0,-1.00006,182.831,22.259789)" stroke-width="1.59404" stroke-linecap="butt" stroke-miterlimit="10" stroke-linejoin="miter" fill="none" stroke="#0000ff" d="M0 0H8.50412 17.00826"/>
<use data-text="y" xlink:href="#font_4_3" transform="matrix(9.9626,0,0,-9.963197,202.629,25.248967)"/>
<use data-text="=" xlink:href="#font_5_3" transform="matrix(9.9626,0,0,-9.963197,210.638,25.248967)"/>
<use data-text="f" xlink:href="#font_4_1" transform="matrix(9.9626,0,0,-9.963197,221.15399,25.248967)"/>
<use data-text="(" xlink:href="#font_5_1" transform="matrix(9.9626,0,0,-9.963197,227.104,25.248967)"/>
<use data-text="x" xlink:href="#font_4_2" transform="matrix(9.9626,0,0,-9.963197,230.978,25.248967)"/>
<use data-text=")" xlink:href="#font_5_2" transform="matrix(9.9626,0,0,-9.963197,236.672,25.248967)"/>
</svg>
