<svg xmlns="http://www.w3.org/2000/svg" xmlns:xlink="http://www.w3.org/1999/xlink" xmlns:inkscape="http://www.inkscape.org/namespaces/inkscape" version="1.1" width="199" height="165" viewBox="0 0 199 165">
<defs>
<path id="font_1_3" d="M.2939911 .64004519C.2939911 .66400149 .2939911 .6660156 .2709961 .6660156 .20899964 .60227969 .12098694 .60227969 .08898926 .60227969V.57128909C.10899353 .57128909 .16799927 .57128909 .21998596 .5972748V.07902527C.21998596 .042999269 .21699524 .0309906 .1269989 .0309906H.09498596V0C.12998963 .0029907227 .21699524 .0029907227 .25698854 .0029907227 .29699708 .0029907227 .38398744 .0029907227 .4189911 0V.0309906H.3869934C.29699708 .0309906 .2939911 .041992189 .2939911 .07902527V.64004519Z"/>
<path id="font_1_4" d="M.1269989 .07699585 .23298645 .18003845C.3889923 .31811524 .44898988 .3721466 .44898988 .47216798 .44898988 .5860901 .35899354 .6660156 .23699951 .6660156 .12399292 .6660156 .049987794 .57411196 .049987794 .48516847 .049987794 .4291687 .099990848 .4291687 .102996829 .4291687 .11999512 .4291687 .15499878 .44117738 .15499878 .48217774 .15499878 .5081787 .13699341 .5341797 .101989749 .5341797 .09399414 .5341797 .09199524 .5341797 .08898926 .5331726 .11199951 .59806826 .1659851 .63500979 .22399903 .63500979 .31498719 .63500979 .35798646 .5541382 .35798646 .47216798 .35798646 .39215089 .30799867 .31311036 .25299073 .25108338L.06098938 .036987306C.049987794 .025985718 .049987794 .023986817 .049987794 0H.42099L.44898988 .17404175H.42399598C.4189911 .14402771 .4119873 .1000061 .4019928 .084991458 .394989 .07699585 .32899476 .07699585 .30699159 .07699585H.1269989Z"/>
<path id="font_1_5" d="M.2899933 .35191346C.37199403 .37893678 .42999269 .4490509 .42999269 .52809146 .42999269 .6100464 .34199525 .6660156 .24598694 .6660156 .14498902 .6660156 .068984989 .60606387 .068984989 .53009036 .068984989 .49710084 .09098816 .47808839 .11999512 .47808839 .15098572 .47808839 .17098999 .50009158 .17098999 .5290985 .17098999 .57910159 .12399292 .57910159 .10899353 .57910159 .13999939 .62802127 .20599365 .64100649 .24198914 .64100649 .2829895 .64100649 .33799745 .6190338 .33799745 .5290985 .33799745 .51708987 .33599855 .45906068 .30999757 .4149933 .27999879 .36691285 .24598694 .36390687 .22099304 .36291505 .21299744 .36190797 .18899536 .35990907 .18199158 .35990907 .17399597 .35890199 .16699219 .35791017 .16699219 .3479004 .16699219 .33691407 .17399597 .33691407 .19099427 .33691407H.23498535C.31698609 .33691407 .35398866 .2686615 .35398866 .17037964 .35398866 .034469606 .2849884 .0055389406 .24099732 .0055389406 .19799805 .0055389406 .12298584 .022491456 .08799744 .08137512 .12298584 .07637024 .1539917 .09837341 .1539917 .1363678 .1539917 .17237854 .1269989 .19238281 .09799194 .19238281 .07398987 .19238281 .041992189 .17837525 .041992189 .1343689 .041992189 .043441774 .1349945-.022460938 .24398804-.022460938 .3659973-.022460938 .45700074 .06838989 .45700074 .17037964 .45700074 .252594 .3939972 .33088685 .2899933 .35191346Z"/>
<path id="font_1_6" d="M.2939911 .16503906V.07800293C.2939911 .041992189 .2919922 .0309906 .21798706 .0309906H.19699097V0C.23799134 .0029907227 .2899933 .0029907227 .33198548 .0029907227 .37399293 .0029907227 .4269867 .0029907227 .46798707 0V.0309906H.44699098C.37298585 .0309906 .37098695 .041992189 .37098695 .07800293V.16503906H.47099305V.19602967H.37098695V.65075686C.37098695 .67074587 .37098695 .6767578 .35499574 .6767578 .34599305 .6767578 .34298707 .6767578 .33499146 .66474917L.027999878 .19602967V.16503906H.2939911M.2999878 .19602967H.055999757L.2999878 .5688019V.19602967Z"/>
<path id="font_1_7" d="M.44898988 .20022583C.44898988 .3193512 .36698915 .41944886 .25898744 .41944886 .21099854 .41944886 .16799927 .40345765 .13198853 .36842347V.5637665C.1519928 .5577698 .18499756 .55078127 .21699524 .55078127 .33999635 .55078127 .4099884 .6417694 .4099884 .6547699 .4099884 .6607666 .40699769 .6657715 .3999939 .6657715 .39898683 .6657715 .39698792 .6657715 .3919983 .66278079 .37199403 .6537781 .32299806 .6337738 .2559967 .6337738 .21598816 .6337738 .16999817 .6407776 .12298584 .6617737 .114990238 .66477969 .11299133 .66477969 .11099243 .66477969 .100997928 .66477969 .100997928 .6567688 .100997928 .6407776V.34439088C.100997928 .32637025 .100997928 .31835938 .114990238 .31835938 .12199402 .31835938 .12399292 .32136537 .12799073 .32736207 .13899231 .3433838 .17599488 .39746095 .25698854 .39746095 .30899049 .39746095 .33399964 .35139466 .34199525 .33337403 .35798646 .29632569 .3600006 .25727845 .3600006 .20722962 .3600006 .17222595 .3600006 .11222839 .33599855 .07035828 .31199647 .031463624 .2749939 .0055389406 .22898865 .0055389406 .1559906 .0055389406 .09899902 .058380128 .08198547 .11723328 .084991458 .1162262 .08799744 .115234378 .09899902 .115234378 .13198853 .115234378 .14898682 .14022827 .14898682 .16423035 .14898682 .18823242 .13198853 .21322632 .09899902 .21322632 .084991458 .21322632 .049987794 .20622254 .049987794 .16023255 .049987794 .07434082 .11898804-.022460938 .23098755-.022460938 .34700013-.022460938 .44898988 .073349 .44898988 .20022583Z"/>
<path id="font_2_1" d="M.6589966 .23046875C.6759949 .23046875 .69400027 .23046875 .69400027 .25045777 .69400027 .27046205 .6759949 .27046205 .6589966 .27046205H.117996219C.100997928 .27046205 .08299255 .27046205 .08299255 .25045777 .08299255 .23046875 .100997928 .23046875 .117996219 .23046875H.6589966Z"/>
<path id="font_1_9" d="M.47599793 .609375C.4850006 .6213684 .4850006 .62338259 .4850006 .64437869H.24198914C.11999512 .64437869 .117996219 .65737918 .11399841 .67637637H.08898926L.055999757 .4702301H.08099365C.083999637 .48625184 .09298706 .5493469 .10598755 .56137087 .11299133 .5673828 .19099427 .5673828 .20399475 .5673828H.41099549C.3999939 .5513611 .32099916 .4421997 .29899598 .40914918 .20899964 .27394105 .17599488 .1347351 .17599488 .032577516 .17599488 .022567749 .17599488-.022460938 .22200012-.022460938 .2679901-.022460938 .2679901 .022567749 .2679901 .032577516V.08366394C.2679901 .13873291 .2709961 .19381714 .2789917 .24790955 .2829895 .27093507 .29699708 .35707093 .34098817 .41915895L.47599793 .609375Z"/>
<path id="font_1_8" d="M.13198853 .327713V.35173036C.13198853 .6047821 .2559967 .64100649 .30699159 .64100649 .33099366 .64100649 .37298585 .634964 .394989 .6007538 .37998963 .6007538 .33999635 .6007538 .33999635 .5557556 .33999635 .524765 .3639984 .5097656 .38598634 .5097656 .4019928 .5097656 .43199159 .51875308 .43199159 .5577545 .43199159 .6178589 .3880005 .6660156 .30499269 .6660156 .1769867 .6660156 .041992189 .5367584 .041992189 .31570436 .041992189 .048553468 .1579895-.022460938 .25099183-.022460938 .3619995-.022460938 .45700074 .07156372 .45700074 .2036438 .45700074 .33070375 .36799623 .4267578 .25698854 .4267578 .18899536 .4267578 .1519928 .37573243 .13198853 .327713M.25099183 .0055389406C.18798828 .0055389406 .1579895 .06556702 .1519928 .080566409 .13398743 .127594 .13398743 .2076416 .13398743 .22564698 .13398743 .30369569 .1659851 .40374757 .2559967 .40374757 .27198792 .40374757 .31799317 .40374757 .34899903 .34172059 .36698915 .30470277 .36698915 .2536621 .36698915 .20463562 .36698915 .15661621 .36698915 .10658264 .34999085 .0705719 .31999208 .010528564 .27398683 .0055389406 .25099183 .0055389406Z"/>
<clipPath id="clip_3">
<path transform="matrix(1.00002,0,0,-1.00003,1.4137268,163.32744)" d="M0 0H194.27216V161.40093H0Z"/>
</clipPath>
<path id="font_4_2" d="M.33399964 .30233766C.33999635 .32835389 .36299134 .42037965 .43299867 .42037965 .43798829 .42037965 .46199037 .42037965 .48298646 .40734864 .45498658 .402359 .43499757 .37734986 .43499757 .35334779 .43499757 .33735658 .44599916 .31835938 .47299195 .31835938 .49499513 .31835938 .5269928 .3363495 .5269928 .37635804 .5269928 .42837525 .46798707 .4423828 .43399049 .4423828 .37599183 .4423828 .34098817 .38935853 .32899476 .36634828 .3039856 .43237306 .25 .4423828 .22099304 .4423828 .116989139 .4423828 .05999756 .3133545 .05999756 .28834535 .05999756 .27833558 .069992069 .27833558 .07199097 .27833558 .07998657 .27833558 .08299255 .28033448 .084991458 .28933717 .11898804 .39535523 .18499756 .42037965 .21899414 .42037965 .23799134 .42037965 .272995 .4113617 .272995 .35334779 .272995 .32235719 .2559967 .25532533 .21899414 .11528015 .20298767 .053268434 .16799927 .011245728 .12399292 .011245728 .117996219 .011245728 .09498596 .011245728 .07398987 .024276734 .09899902 .029266358 .12098694 .05027771 .12098694 .07827759 .12098694 .105270389 .09899902 .11328125 .083999637 .11328125 .053985597 .11328125 .0289917 .08728027 .0289917 .055267335 .0289917 .009246826 .07899475-.0107421879 .12298584-.0107421879 .18899536-.0107421879 .22499085 .059280397 .22799683 .0652771 .23999024 .028274537 .27598573-.0107421879 .33599855-.0107421879 .43899537-.0107421879 .49598695 .118270877 .49598695 .14328003 .49598695 .1532898 .4869995 .1532898 .48399354 .1532898 .47499085 .1532898 .47299195 .14929199 .47099305 .14228821 .43798829 .03527832 .36999513 .011245728 .33799745 .011245728 .29899598 .011245728 .2829895 .043273927 .2829895 .07727051 .2829895 .09927368 .2889862 .121276859 .2999878 .16529846L.33399964 .30233766Z"/>
<path id="font_4_3" d="M.48599244 .38136292C.48999024 .39537049 .48999024 .39736939 .48999024 .40437318 .48999024 .42237855 .47599793 .43138124 .46099855 .43138124 .45098878 .43138124 .43499757 .42536927 .42599488 .41036988 .42399598 .405365 .41600038 .37435914 .4119873 .35635377 .40499879 .33035279 .397995 .30334474 .3919983 .27633668L.34700013 .09628296C.34298707 .08126831 .2999878 .011245728 .23399353 .011245728 .18299866 .011245728 .17199707 .055267335 .17199707 .0922699 .17199707 .1382904 .18899536 .20030213 .22299195 .28833009 .23899842 .3293457 .24299622 .3403473 .24299622 .36035157 .24299622 .405365 .21099854 .4423828 .16099549 .4423828 .06599426 .4423828 .0289917 .29733277 .0289917 .28833009 .0289917 .27833558 .038986207 .27833558 .040985109 .27833558 .050994874 .27833558 .051986696 .28033448 .056991579 .29634095 .083999637 .3903656 .12399292 .42037965 .1579895 .42037965 .1659851 .42037965 .18299866 .42037965 .18299866 .3883667 .18299866 .36335755 .17298889 .3373413 .1659851 .31834413 .12599182 .21231079 .10798645 .1552887 .10798645 .10827637 .10798645 .019256592 .17098999-.0107421879 .22999573-.0107421879 .2689972-.0107421879 .30299378 .0062561037 .33099366 .03425598 .31799317-.017745972 .30599977-.06674194 .2659912-.11973572 .23999024-.15385437 .20199585-.18309021 .1559906-.18309021 .14199829-.18309021 .09700012-.18005371 .07998657-.14074707 .09599304-.14074707 .10899353-.14074707 .12298584-.1287384 .1329956-.11973572 .14299011-.10673523 .14299011-.08773804 .14299011-.056747438 .115997318-.052734376 .10598755-.052734376 .08299255-.052734376 .049987794-.068740848 .049987794-.11773682 .049987794-.16796875 .09399414-.20507813 .1559906-.20507813 .25898744-.20507813 .3619995-.11373901 .3899994-.00074768069L.48599244 .38136292Z"/>
<path id="font_1_10" d="M.68699648 .32714845C.70199587 .32714845 .72099307 .32714845 .72099307 .34713746 .72099307 .36714173 .70199587 .36714173 .6879883 .36714173H.08898926C.07499695 .36714173 .055999757 .36714173 .055999757 .34713746 .055999757 .32714845 .07499695 .32714845 .08999634 .32714845H.68699648M.6879883 .13284302C.70199587 .13284302 .72099307 .13284302 .72099307 .15284729 .72099307 .17285156 .70199587 .17285156 .68699648 .17285156H.08999634C.07499695 .17285156 .055999757 .17285156 .055999757 .15284729 .055999757 .13284302 .07499695 .13284302 .08898926 .13284302H.6879883Z"/>
<path id="font_4_1" d="M.36698915 .3996582H.45298768C.47299195 .3996582 .48298646 .3996582 .48298646 .41966249 .48298646 .43066407 .47299195 .43066407 .45599366 .43066407H.37298585L.3939972 .5449524C.397995 .5660095 .4119873 .6370239 .41799928 .6490326 .4269867 .66804507 .44400025 .68307498 .46499635 .68307498 .46899415 .68307498 .49499513 .68307498 .5139923 .66503909 .46998597 .661026 .45999146 .6260376 .45999146 .6110382 .45999146 .58802798 .47799684 .57603457 .49699403 .57603457 .522995 .57603457 .5519867 .5980377 .5519867 .6360321 .5519867 .6820679 .5059967 .7050781 .46499635 .7050781 .43099977 .7050781 .36799623 .68707278 .33799745 .58802798 .33198548 .56700137 .32899476 .5569763 .30499269 .43066407H.23599243C.21699524 .43066407 .20599365 .43066407 .20599365 .4116516 .20599365 .3996582 .21499634 .3996582 .23399353 .3996582H.2999878L.22499085 .0048828127C.20698548-.09207153 .18998719-.18309021 .13798523-.18309021 .13398743-.18309021 .10899353-.18309021 .08999634-.16506958 .13598633-.1620636 .14498902-.12606812 .14498902-.111068729 .14498902-.08807373 .1269989-.07606506 .10798645-.07606506 .08198547-.07606506 .052993776-.09806824 .052993776-.13606262 .052993776-.18109131 .09700012-.20507813 .13798523-.20507813 .19299317-.20507813 .23298645-.14607239 .25099183-.108062747 .2829895-.04508972 .30599977 .07583618 .30699159 .082839969L.36698915 .3996582Z"/>
<path id="font_1_1" d="M.33099366-.2400055C.33099366-.23701477 .33099366-.23500061 .31399537-.21800232 .18899536-.0920105 .15699768 .09700012 .15699768 .25 .15699768 .42399598 .19499207 .59799197 .31799317 .72299197 .33099366 .73498538 .33099366 .7369995 .33099366 .73999026 .33099366 .746994 .32699586 .75 .32099916 .75 .31098939 .75 .22099304 .6819916 .1619873 .5549927 .11099243 .44499208 .09899902 .33399964 .09899902 .25 .09899902 .17199707 .10998535 .050994874 .16499329-.06201172 .22499085-.18501282 .31098939-.25 .32099916-.25 .32699586-.25 .33099366-.24700928 .33099366-.2400055Z"/>
<path id="font_1_2" d="M.2889862 .25C.2889862 .32798768 .27799989 .44898988 .22299195 .56199648 .16299439 .68499758 .07699585 .75 .066986087 .75 .06098938 .75 .056991579 .74598696 .056991579 .73999026 .056991579 .7369995 .056991579 .73498538 .07598877 .71699526 .17399597 .6179962 .23098755 .45899964 .23098755 .25 .23098755 .07899475 .19400025-.09700012 .069992069-.2230072 .056991579-.23500061 .056991579-.23701477 .056991579-.2400055 .056991579-.2460022 .06098938-.25 .066986087-.25 .07699585-.25 .16699219-.18200684 .22599793-.055007936 .2769928 .054992677 .2889862 .16600037 .2889862 .25Z"/>
</defs>
<path transform="matrix(1.00002,0,0,-1.00003,1.4137268,163.32744)" stroke-width=".3985" stroke-linecap="butt" stroke-miterlimit="10" stroke-linejoin="miter" fill="none" stroke="#bfbfbf" d="M64.75739 0V161.40093M97.13608 0V161.40093M129.51477 0V161.40093M161.89347 0V161.40093M194.27216 0V161.40093"/>
<path transform="matrix(1.00002,0,0,-1.00003,1.4137268,163.32744)" stroke-width=".3985" stroke-linecap="butt" stroke-miterlimit="10" stroke-linejoin="miter" fill="none" stroke="#bfbfbf" d="M0 6.20772H194.27216M0 18.62317H194.27216M0 31.03864H194.27216M0 43.45409H194.27216M0 55.86954H194.27216M0 68.285H194.27216M0 80.70045H194.27216M0 105.53137H194.27216M0 117.94682H194.27216M0 130.36228H194.27216M0 142.77774H194.27216M0 155.19319H194.27216"/>
<path transform="matrix(1.00002,0,0,-1.00003,1.4137268,163.32744)" stroke-width=".19925" stroke-linecap="butt" stroke-miterlimit="10" stroke-linejoin="miter" fill="none" stroke="#7f807f" d="M64.75739 90.99004V95.24178M97.13608 90.99004V95.24178M129.51477 90.99004V95.24178M161.89347 90.99004V95.24178M194.27216 90.99004V95.24178"/>
<path transform="matrix(1.00002,0,0,-1.00003,1.4137268,163.32744)" stroke-width=".19925" stroke-linecap="butt" stroke-miterlimit="10" stroke-linejoin="miter" fill="none" stroke="#7f807f" d="M30.25279 6.20772H34.50456M30.25279 18.62317H34.50456M30.25279 31.03864H34.50456M30.25279 43.45409H34.50456M30.25279 55.86954H34.50456M30.25279 68.285H34.50456M30.25279 80.70045H34.50456M30.25279 105.53137H34.50456M30.25279 117.94682H34.50456M30.25279 130.36228H34.50456M30.25279 142.77774H34.50456M30.25279 155.19319H34.50456"/>
<path transform="matrix(1.00002,0,0,-1.00003,1.4137268,163.32744)" stroke-width=".3985" stroke-linecap="butt" stroke-miterlimit="10" stroke-linejoin="miter" fill="none" stroke="#000000" d="M0 93.1159H192.27964"/>
<path transform="matrix(1.00002,0,0,-1.00003,193.6972,70.20874)" d="M1.99252 0-1.19551 1.59401 0 0-1.19551-1.59401"/>
<path transform="matrix(1.00002,0,0,-1.00003,1.4137268,163.32744)" stroke-width=".3985" stroke-linecap="butt" stroke-miterlimit="10" stroke-linejoin="miter" fill="none" stroke="#000000" d="M32.3787 0V159.40839"/>
<path transform="matrix(0,-1.00003,-1.00002,-0,33.793077,3.9142609)" d="M1.99252 0-1.19551 1.59401 0 0-1.19551-1.59401"/>
<use data-text="1" xlink:href="#font_1_3" transform="matrix(9.962799,0,0,-9.962899,63.681974,82.275)"/>
<use data-text="2" xlink:href="#font_1_4" transform="matrix(9.962799,0,0,-9.962899,96.060619,82.275)"/>
<use data-text="3" xlink:href="#font_1_5" transform="matrix(9.962799,0,0,-9.962899,128.44028,82.275)"/>
<use data-text="4" xlink:href="#font_1_6" transform="matrix(9.962799,0,0,-9.962899,160.81992,82.275)"/>
<use data-text="5" xlink:href="#font_1_7" transform="matrix(9.962799,0,0,-9.962899,193.19858,82.275)"/>
<use data-text="&#x2212;" xlink:href="#font_2_1" transform="matrix(9.962799,0,0,-9.962899,15.417007,159.91434)"/>
<use data-text="7" xlink:href="#font_1_9" transform="matrix(9.962799,0,0,-9.962899,23.165169,159.91434)"/>
<use data-text="&#x2212;" xlink:href="#font_2_1" transform="matrix(9.962799,0,0,-9.962899,15.417007,147.49897)"/>
<use data-text="6" xlink:href="#font_1_8" transform="matrix(9.962799,0,0,-9.962899,23.165169,147.49897)"/>
<use data-text="&#x2212;" xlink:href="#font_2_1" transform="matrix(9.962799,0,0,-9.962899,15.417007,135.0826)"/>
<use data-text="5" xlink:href="#font_1_7" transform="matrix(9.962799,0,0,-9.962899,23.165169,135.0826)"/>
<use data-text="&#x2212;" xlink:href="#font_2_1" transform="matrix(9.962799,0,0,-9.962899,15.417007,122.66722)"/>
<use data-text="4" xlink:href="#font_1_6" transform="matrix(9.962799,0,0,-9.962899,23.165169,122.66722)"/>
<use data-text="&#x2212;" xlink:href="#font_2_1" transform="matrix(9.962799,0,0,-9.962899,15.417007,110.25185)"/>
<use data-text="3" xlink:href="#font_1_5" transform="matrix(9.962799,0,0,-9.962899,23.165169,110.25185)"/>
<use data-text="&#x2212;" xlink:href="#font_2_1" transform="matrix(9.962799,0,0,-9.962899,15.417007,97.83547)"/>
<use data-text="2" xlink:href="#font_1_4" transform="matrix(9.962799,0,0,-9.962899,23.165169,97.83547)"/>
<use data-text="&#x2212;" xlink:href="#font_2_1" transform="matrix(9.962799,0,0,-9.962899,15.417007,85.4201)"/>
<use data-text="1" xlink:href="#font_1_3" transform="matrix(9.962799,0,0,-9.962899,23.165169,85.4201)"/>
<use data-text="1" xlink:href="#font_1_3" transform="matrix(9.962799,0,0,-9.962899,23.16616,61.003366)"/>
<use data-text="2" xlink:href="#font_1_4" transform="matrix(9.962799,0,0,-9.962899,23.16616,48.58699)"/>
<use data-text="3" xlink:href="#font_1_5" transform="matrix(9.962799,0,0,-9.962899,23.16616,36.171617)"/>
<use data-text="4" xlink:href="#font_1_6" transform="matrix(9.962799,0,0,-9.962899,23.16616,23.755249)"/>
<use data-text="5" xlink:href="#font_1_7" transform="matrix(9.962799,0,0,-9.962899,23.16616,11.339874)"/>
<g clip-path="url(#clip_3)">
<path transform="matrix(1.00002,0,0,-1.00003,1.4137268,163.32744)" stroke-width="1.59404" stroke-linecap="butt" stroke-miterlimit="10" stroke-linejoin="miter" fill="none" stroke="#0000ff" d="M64.75739 117.94682 68.35464 122.08485 71.95192 126.22296 75.5492 130.36101 79.14647 134.4991 82.74374 138.63715 86.34102 142.77524 89.9383 146.9133 93.53557 151.05138 97.13284 155.18944"/>
<path transform="matrix(1.00002,0,0,-1.00003,1.4137268,163.32744)" stroke-width="1.59404" stroke-linecap="butt" stroke-miterlimit="10" stroke-linejoin="miter" fill="none" stroke="#0000ff" d="M97.13608 155.19319 104.33093 143.54476 111.5258 130.67034 118.72066 116.56972 125.91553 101.24312 133.1104 84.69035 140.30527 66.91159 147.50014 47.9068 154.695 27.67575 161.88988 6.21861"/>
<path transform="matrix(1.00002,0,0,-1.00003,1.4137268,163.32744)" d="M64.75739 117.94682"/>
<path transform="matrix(1.00002,0,0,-1.00003,1.4137268,163.32744)" stroke-width=".3985" stroke-linecap="butt" stroke-miterlimit="10" stroke-linejoin="miter" fill="none" stroke="#000000" d="M64.75739 117.94682"/>
<path transform="matrix(1.00002,0,0,-1.00003,1.4137268,163.32744)" d="M161.89347 6.20772"/>
<path transform="matrix(1.00002,0,0,-1.00003,1.4137268,163.32744)" stroke-width=".3985" stroke-linecap="butt" stroke-miterlimit="10" stroke-linejoin="miter" fill="none" stroke="#000000" d="M161.89347 6.20772"/>
</g>
<path transform="matrix(1.00002,0,0,-1.00003,1.4137268,163.32744)" d="M66.74994 117.94682C66.74994 119.04729 65.85785 119.93938 64.75739 119.93938 63.6569 119.93938 62.76483 119.04729 62.76483 117.94682 62.76483 116.84634 63.6569 115.95427 64.75739 115.95427 65.85785 115.95427 66.74994 116.84634 66.74994 117.94682ZM64.75739 117.94682"/>
<path transform="matrix(1.00002,0,0,-1.00003,1.4137268,163.32744)" stroke-width=".3985" stroke-linecap="butt" stroke-miterlimit="10" stroke-linejoin="miter" fill="none" stroke="#000000" d="M66.74994 117.94682C66.74994 119.04729 65.85785 119.93938 64.75739 119.93938 63.6569 119.93938 62.76483 119.04729 62.76483 117.94682 62.76483 116.84634 63.6569 115.95427 64.75739 115.95427 65.85785 115.95427 66.74994 116.84634 66.74994 117.94682ZM64.75739 117.94682"/>
<path transform="matrix(1.00002,0,0,-1.00003,1.4137268,163.32744)" d=""/>
<path transform="matrix(1.00002,0,0,-1.00003,1.4137268,163.32744)" stroke-width=".3985" stroke-linecap="butt" stroke-miterlimit="10" stroke-linejoin="miter" fill="none" stroke="#000000" d=""/>
<path transform="matrix(1.00002,0,0,-1.00003,1.4137268,163.32744)" d="M163.88602 6.20772C163.88602 7.3082 162.99393 8.20027 161.89347 8.20027 160.79299 8.20027 159.90091 7.3082 159.90091 6.20772 159.90091 5.10725 160.79299 4.21516 161.89347 4.21516 162.99393 4.21516 163.88602 5.10725 163.88602 6.20772ZM161.89347 6.20772"/>
<path transform="matrix(1.00002,0,0,-1.00003,1.4137268,163.32744)" stroke-width=".3985" stroke-linecap="butt" stroke-miterlimit="10" stroke-linejoin="miter" fill="none" stroke="#000000" d="M163.88602 6.20772C163.88602 7.3082 162.99393 8.20027 161.89347 8.20027 160.79299 8.20027 159.90091 7.3082 159.90091 6.20772 159.90091 5.10725 160.79299 4.21516 161.89347 4.21516 162.99393 4.21516 163.88602 5.10725 163.88602 6.20772ZM161.89347 6.20772"/>
<path transform="matrix(1.00002,0,0,-1.00003,1.4137268,163.32744)" d=""/>
<path transform="matrix(1.00002,0,0,-1.00003,1.4137268,163.32744)" stroke-width=".3985" stroke-linecap="butt" stroke-miterlimit="10" stroke-linejoin="miter" fill="none" stroke="#000000" d=""/>
<use data-text="x" xlink:href="#font_4_2" transform="matrix(9.962799,0,0,-9.962899,186.47544,66.68853)"/>
<use data-text="y" xlink:href="#font_4_3" transform="matrix(9.962799,0,0,-9.962899,37.313444,9.730835)"/>
<path transform="matrix(1.00002,0,0,-1.00003,1.4137268,163.32744)" d="M123.70311 141.0363H190.18662V157.97295H123.70311Z" fill="#ffffff"/>
<path transform="matrix(1.00002,0,0,-1.00003,1.4137268,163.32744)" stroke-width=".3985" stroke-linecap="butt" stroke-miterlimit="10" stroke-linejoin="miter" fill="none" stroke="#000000" d="M123.70311 141.0363H190.18662V157.97295H123.70311Z"/>
<path transform="matrix(1.00002,0,0,-1.00003,128.90529,13.817947)" stroke-width="1.59404" stroke-linecap="butt" stroke-miterlimit="10" stroke-linejoin="miter" fill="none" stroke="#0000ff" d="M0 0H8.50412 17.00826"/>
<use data-text="y" xlink:href="#font_4_3" transform="matrix(9.962799,0,0,-9.962899,148.70269,16.807038)"/>
<use data-text="=" xlink:href="#font_1_10" transform="matrix(9.962799,0,0,-9.962899,156.71285,16.807038)"/>
<use data-text="f" xlink:href="#font_4_1" transform="matrix(9.962799,0,0,-9.962899,167.22907,16.807038)"/>
<use data-text="(" xlink:href="#font_1_1" transform="matrix(9.962799,0,0,-9.962899,173.17919,16.807038)"/>
<use data-text="x" xlink:href="#font_4_2" transform="matrix(9.962799,0,0,-9.962899,177.05326,16.807038)"/>
<use data-text=")" xlink:href="#font_1_2" transform="matrix(9.962799,0,0,-9.962899,182.74736,16.807038)"/>
</svg>
