<svg xmlns="http://www.w3.org/2000/svg" xmlns:xlink="http://www.w3.org/1999/xlink" version="1.1" width="95" height="69" viewBox="0 0 95 69">
<defs>
<clipPath id="clip_1">
<path transform="matrix(1,0,0,-1,-95.644,144.004)" d="M0 0H194.28128V161.39028H0Z"/>
</clipPath>
<path id="font_2_1" d="M.37399293 .077056888C.37399293 .04598999 .37399293 0 .47799684 0H.526001C.54599 0 .55799868 0 .55799868 .023986817 .55799868 .04699707 .54499819 .04699707 .5319977 .04699707 .47099305 .04798889 .47099305 .061019899 .47099305 .08406067V.2993164C.47099305 .38816834 .3999939 .453125 .25099183 .453125 .19400025 .453125 .07199097 .44911195 .07199097 .36120606 .07199097 .317276 .10699463 .29830934 .13398743 .29830934 .16499329 .29830934 .19699097 .3192749 .19699097 .36120606 .19699097 .39115907 .17799378 .40812684 .1749878 .41012574 .20298767 .41612245 .23498535 .41711427 .24699402 .41711427 .32199098 .41711427 .35699464 .3751831 .35699464 .2993164V.2653656C.28599549 .26237489 .03199768 .2533722 .03199768 .10821533 .03199768 .012130737 .1559906-.005859375 .22499085-.005859375 .30499269-.006011963 .35198976 .034988405 .37399293 .077056888M.35699464 .234375V.13917542C.35699464 .042999269 .2649994 .02999878 .23999024 .02999878 .18899536 .02999878 .14898682 .06503296 .14898682 .1091156 .14898682 .21733094 .30699159 .23135376 .35699464 .234375Z"/>
<path id="font_2_2" d="M.21398926 .40118409V.69433596L.036987306 .6863251V.639328C.09899902 .639328 .10598755 .639328 .10598755 .600296V0H.15299988L.20199585 .056015016C.20999146 .04814148 .25898744-.005859375 .34799195-.005859375 .49699403-.005859375 .59999087 .08413696 .59999087 .22315979 .59999087 .35617066 .5059967 .4501953 .36099244 .4501953 .28799439 .4501953 .23799134 .42118836 .21398926 .40118409M.21998596 .09902954V.3501587C.24699402 .3851776 .29499818 .41418458 .34999085 .41418458 .47200013 .41418458 .47200013 .29312135 .47200013 .22309876 .47200013 .17607117 .47200013 .12104797 .44599916 .08201599 .4169922 .041000368 .37098695 .02999878 .33898927 .02999878 .2689972 .02999878 .22999573 .08403015 .21998596 .09902954Z"/>
</defs>
<g clip-path="url(#clip_1)">
<path transform="matrix(1,0,0,-1,-95.644,144.004)" stroke-width="1.19553" stroke-linecap="butt" stroke-miterlimit="10" stroke-linejoin="miter" fill="none" stroke="#0000ff" d="M97.14064 80.69513 143.5746 132.12569"/>
<path transform="matrix(.6701,-.7422,-.7422,-.6701,47.930604,11.878311)" d="M3.18808 0-1.91284 2.55046 0 0-1.91284-2.55046" fill="#0000ff"/>
<use data-text="a" xlink:href="#font_2_1" transform="matrix(9.9626,0,0,-9.9626,52.14,6.345993)" fill="#0000ff"/>
<path transform="matrix(1,0,0,-1,-95.644,144.004)" stroke-width="1.19553" stroke-linecap="butt" stroke-miterlimit="10" stroke-linejoin="miter" fill="none" stroke="#0000ff" d="M97.14064 80.69513H174.90309"/>
<path transform="matrix(1,0,0,-1,79.259098,63.30887)" d="M3.18808 0-1.91284 2.55046 0 0-1.91284-2.55046" fill="#0000ff"/>
<use data-text="b" xlink:href="#font_2_2" transform="matrix(9.9626,0,0,-9.9626,87.36,66.768009)" fill="#0000ff"/>
</g>
</svg>
