<svg xmlns="http://www.w3.org/2000/svg" xmlns:xlink="http://www.w3.org/1999/xlink" version="1.1" width="238" height="239" viewBox="0 0 238 239">
<defs>
<path id="font_1_1" d="M.69898989 .22743225C.71499636 .22743225 .7369995 .22743225 .7369995 .25042726 .7369995 .2734375 .71499636 .2734375 .69898989 .2734375H.12599182C.10998535 .2734375 .08799744 .2734375 .08799744 .25042726 .08799744 .22743225 .10998535 .22743225 .12599182 .22743225H.69898989Z"/>
<path id="font_2_6" d="M.13798523 .33073426C.13798523 .41377259 .14498902 .4868164 .18099976 .54782107 .21099854 .5978241 .2619934 .6390381 .32499696 .6390381 .34498597 .6390381 .3909912 .63601687 .4139862 .60084536 .36898805 .5988312 .36499024 .5648346 .36499024 .553833 .36499024 .5238342 .3880005 .50683596 .4119873 .50683596 .42999269 .50683596 .45899964 .51782229 .45899964 .5558319 .45899964 .615921 .4139862 .66503909 .32398988 .66503909 .18499756 .66503909 .04399109 .53282168 .04399109 .31672669 .04399109 .045532228 .16999817-.021484375 .2669983-.021484375 .31498719-.021484375 .36698915-.0084991459 .4119873 .03453064 .45199586 .07354736 .48599244 .11558533 .48599244 .20263672 .48599244 .33372499 .3869934 .42578126 .27598573 .42578126 .20399475 .42578126 .16099549 .37976075 .13798523 .33073426M.2669983 .008514404C.21398926 .008514404 .18099976 .045532228 .1659851 .07354736 .14299011 .11859131 .14099121 .18663025 .14099121 .22465515 .14099121 .32373048 .19499207 .3977661 .27198792 .3977661 .32199098 .3977661 .35198976 .37176515 .37098695 .33673097 .3919983 .29971314 .3919983 .25468446 .3919983 .2036438 .3919983 .15260315 .3919983 .10858154 .37199403 .07255554 .34599305 .026519776 .31098939 .008514404 .2669983 .008514404Z"/>
<path id="font_2_5" d="M.13999939 .5618439C.15299988 .55784609 .19299317 .54785159 .23498535 .54785159 .3600006 .54785159 .43598939 .6358948 .43598939 .6510315 .43598939 .6620331 .42900086 .66503909 .42399598 .66503909 .42199708 .66503909 .41999818 .66503909 .41099549 .6600342 .37199403 .6450348 .32598878 .632843 .27198792 .632843 .21299744 .632843 .1639862 .6480255 .1329956 .6600342 .12298584 .66503909 .12098694 .66503909 .11999512 .66503909 .10699463 .66503909 .10699463 .6540375 .10699463 .6358948V.34292604C.10699463 .32492066 .10699463 .312912 .12298584 .312912 .1309967 .312912 .13398743 .3169098 .13899231 .32492066 .15098572 .33992005 .18899536 .39093019 .27398683 .39093019 .32998658 .39093019 .35699464 .34492494 .3659973 .32591249 .3829956 .28990174 .3849945 .24389649 .3849945 .20487976 .3849945 .1678772 .38398744 .11387634 .35598756 .069732669 .33699037 .039611818 .29699708 .008514404 .24398804 .008514404 .1789856 .008514404 .114990238 .0496521 .09199524 .11488342 .09498596 .11387634 .100997928 .11387634 .101989749 .11387634 .12998963 .11387634 .1519928 .13188172 .1519928 .16288758 .1519928 .19989014 .12298584 .21289063 .102996829 .21289063 .084991458 .21289063 .052993776 .20288086 .052993776 .15988159 .052993776 .069732669 .1309967-.021484375 .24598694-.021484375 .37098695-.021484375 .47698976 .07574463 .47698976 .19989014 .47698976 .31591798 .3929901 .4189453 .2749939 .4189453 .22499085 .4189453 .17799378 .40293885 .13999939 .368927V.5618439Z"/>
<path id="font_2_4" d="M.3939972 .6468048C.3939972 .6667938 .3939972 .6748047 .37298585 .6748047 .3600006 .6748047 .35899354 .6737976 .34899903 .65979006L.02999878 .197052V.1640625H.31199647V.08100891C.31199647 .04399109 .30899049 .032989503 .23199463 .032989503H.20899964V0C.2939911 .0029907227 .29599 .0029907227 .35299684 .0029907227 .4099884 .0029907227 .4119873 .0029907227 .49699403 0V.032989503H.47399903C.39698792 .032989503 .3939972 .04399109 .3939972 .08100891V.1640625H.5V.197052H.3939972V.6468048M.31900025 .5658417V.197052H.06498718L.31900025 .5658417Z"/>
<path id="font_2_3" d="M.25299073 .33370973C.33198548 .33370973 .38198854 .27557374 .38198854 .17037964 .38198854 .045440675 .31098939 .008514404 .2579956 .008514404 .20298767 .008514404 .12799073 .0284729 .09298706 .08137512 .1289978 .08137512 .1539917 .10437012 .1539917 .13737488 .1539917 .16937256 .1309967 .19238281 .09899902 .19238281 .07199097 .19238281 .04399109 .17536927 .04399109 .13537598 .04399109 .04045105 .1459961-.021484375 .2599945-.021484375 .3929901-.021484375 .48599244 .070388797 .48599244 .17037964 .48599244 .25352479 .41999818 .32969667 .31799317 .3517456 .39698792 .37982179 .45599366 .4479828 .45599366 .52804568 .45599366 .6080475 .3659973 .66503909 .2619934 .66503909 .15499878 .66503909 .07398987 .6070404 .07398987 .53105166 .07398987 .49404908 .09899902 .4780426 .125 .4780426 .1559906 .4780426 .17599488 .5000458 .17599488 .52905276 .17599488 .56604006 .14399719 .5800476 .12199402 .5810547 .1639862 .6360321 .24099732 .6390381 .25898744 .6390381 .2849884 .6390381 .36099244 .6310272 .36099244 .52804568 .36099244 .45799256 .33198548 .41589356 .31799317 .39985658 .28799439 .36878968 .2649994 .36679078 .20399475 .3627777 .18499756 .36177064 .1769867 .36076356 .1769867 .3477478 .1769867 .33370973 .18598938 .33370973 .20298767 .33370973H.25299073Z"/>
<path id="font_2_2" d="M.28199769 .20405579C.2979889 .21907044 .33999635 .2520752 .35598756 .26608277 .41799928 .32312013 .47698976 .3781433 .47698976 .46917726 .47698976 .588089 .3769989 .66503909 .2519989 .66503909 .13198853 .66503909 .052993776 .57411196 .052993776 .48516847 .052993776 .4361725 .09199524 .4291687 .10598755 .4291687 .1269989 .4291687 .1579895 .4441681 .1579895 .48217774 .1579895 .5341797 .10798645 .5341797 .09599304 .5341797 .125 .6070709 .19198609 .6320343 .24099732 .6320343 .33399964 .6320343 .38198854 .55314639 .38198854 .46917726 .38198854 .36514283 .30899049 .28910829 .19099427 .16804505L.06498718 .037994386C.052993776 .026992798 .052993776 .024993897 .052993776 0H.44799806L.47698976 .17904663H.44599916C.44299317 .1590271 .43499757 .10900879 .4229889 .08999634 .4169922 .08198547 .34098817 .08198547 .32499696 .08198547H.14698792L.28199769 .20405579Z"/>
<path id="font_2_1" d="M.31399537 .63708499C.31399537 .664032 .31199647 .66503909 .2849884 .66503909 .24398804 .6251831 .19099427 .6013489 .09599304 .6013489V.5683594C.12298584 .5683594 .1769867 .5683594 .23498535 .5953522V.08203125C.23498535 .04499817 .23199463 .032989503 .13699341 .032989503H.101989749V0C.14299011 .0029907227 .22898865 .0029907227 .27398683 .0029907227 .31900025 .0029907227 .4059906 .0029907227 .44699098 0V.032989503H.4119873C.31698609 .032989503 .31399537 .04499817 .31399537 .08203125V.63708499Z"/>
<clipPath id="clip_3">
<path transform="matrix(1.00002,0,0,-1.00002,11.626839,227.86132)" d="M0 0H206.23003V206.23003H0Z"/>
</clipPath>
<clipPath id="clip_4">
<path transform="matrix(1.00002,0,0,-1.00002,11.626839,227.86132)" d="M189.04419 120.30084 120.30084 154.67252 137.48668 240.6017Z"/>
</clipPath>
<path id="font_5_1" d="M.45498658 .5001831C.45498658 .56614688 .43699647 .7050781 .33499146 .7050781 .19599915 .7050781 .041992189 .42323304 .041992189 .19425965 .041992189 .100250247 .070999149-.0107421879 .1619873-.0107421879 .30299378-.0107421879 .45498658 .27627564 .45498658 .5001831M.147995 .36328126C.16499329 .42723084 .18499756 .5071869 .22499085 .57814028 .2519989 .6271057 .2889862 .68307498 .33399964 .68307498 .3829956 .68307498 .3889923 .6191101 .3889923 .56214907 .3889923 .5131836 .3809967 .46220399 .35699464 .36328126H.147995M.34799195 .3312683C.33699037 .28527833 .31599427 .2002716 .27799989 .12826538 .24299622 .060256959 .20498657 .011245728 .1619873 .011245728 .1289978 .011245728 .10798645 .040252687 .10798645 .133255 .10798645 .17526245 .11399841 .23326111 .13999939 .3312683H.34799195Z"/>
<path id="font_5_2" d="M.33399964 .30233766C.33999635 .32835389 .36299134 .42037965 .43299867 .42037965 .43798829 .42037965 .46199037 .42037965 .48298646 .40734864 .45498658 .402359 .43499757 .37734986 .43499757 .35334779 .43499757 .33735658 .44599916 .31835938 .47299195 .31835938 .49499513 .31835938 .5269928 .3363495 .5269928 .37635804 .5269928 .42837525 .46798707 .4423828 .43399049 .4423828 .37599183 .4423828 .34098817 .38935853 .32899476 .36634828 .3039856 .43237306 .25 .4423828 .22099304 .4423828 .116989139 .4423828 .05999756 .3133545 .05999756 .28834535 .05999756 .27833558 .069992069 .27833558 .07199097 .27833558 .07998657 .27833558 .08299255 .28033448 .084991458 .28933717 .11898804 .39535523 .18499756 .42037965 .21899414 .42037965 .23799134 .42037965 .272995 .4113617 .272995 .35334779 .272995 .32235719 .2559967 .25532533 .21899414 .11528015 .20298767 .053268434 .16799927 .011245728 .12399292 .011245728 .117996219 .011245728 .09498596 .011245728 .07398987 .024276734 .09899902 .029266358 .12098694 .05027771 .12098694 .07827759 .12098694 .105270389 .09899902 .11328125 .083999637 .11328125 .053985597 .11328125 .0289917 .08728027 .0289917 .055267335 .0289917 .009246826 .07899475-.0107421879 .12298584-.0107421879 .18899536-.0107421879 .22499085 .059280397 .22799683 .0652771 .23999024 .028274537 .27598573-.0107421879 .33599855-.0107421879 .43899537-.0107421879 .49598695 .118270877 .49598695 .14328003 .49598695 .1532898 .4869995 .1532898 .48399354 .1532898 .47499085 .1532898 .47299195 .14929199 .47099305 .14228821 .43798829 .03527832 .36999513 .011245728 .33799745 .011245728 .29899598 .011245728 .2829895 .043273927 .2829895 .07727051 .2829895 .09927368 .2889862 .121276859 .2999878 .16529846L.33399964 .30233766Z"/>
<path id="font_5_3" d="M.48599244 .38136292C.48999024 .39537049 .48999024 .39736939 .48999024 .40437318 .48999024 .42237855 .47599793 .43138124 .46099855 .43138124 .45098878 .43138124 .43499757 .42536927 .42599488 .41036988 .42399598 .405365 .41600038 .37435914 .4119873 .35635377 .40499879 .33035279 .397995 .30334474 .3919983 .27633668L.34700013 .09628296C.34298707 .08126831 .2999878 .011245728 .23399353 .011245728 .18299866 .011245728 .17199707 .055267335 .17199707 .0922699 .17199707 .1382904 .18899536 .20030213 .22299195 .28833009 .23899842 .3293457 .24299622 .3403473 .24299622 .36035157 .24299622 .405365 .21099854 .4423828 .16099549 .4423828 .06599426 .4423828 .0289917 .29733277 .0289917 .28833009 .0289917 .27833558 .038986207 .27833558 .040985109 .27833558 .050994874 .27833558 .051986696 .28033448 .056991579 .29634095 .083999637 .3903656 .12399292 .42037965 .1579895 .42037965 .1659851 .42037965 .18299866 .42037965 .18299866 .3883667 .18299866 .36335755 .17298889 .3373413 .1659851 .31834413 .12599182 .21231079 .10798645 .1552887 .10798645 .10827637 .10798645 .019256592 .17098999-.0107421879 .22999573-.0107421879 .2689972-.0107421879 .30299378 .0062561037 .33099366 .03425598 .31799317-.017745972 .30599977-.06674194 .2659912-.11973572 .23999024-.15385437 .20199585-.18309021 .1559906-.18309021 .14199829-.18309021 .09700012-.18005371 .07998657-.14074707 .09599304-.14074707 .10899353-.14074707 .12298584-.1287384 .1329956-.11973572 .14299011-.10673523 .14299011-.08773804 .14299011-.056747438 .115997318-.052734376 .10598755-.052734376 .08299255-.052734376 .049987794-.068740848 .049987794-.11773682 .049987794-.16796875 .09399414-.20507813 .1559906-.20507813 .25898744-.20507813 .3619995-.11373901 .3899994-.00074768069L.48599244 .38136292Z"/>
<path id="font_6_1" d="M.40899659 .23046875H.6879883C.70199587 .23046875 .72099307 .23046875 .72099307 .25045777 .72099307 .27046205 .70199587 .27046205 .6879883 .27046205H.40899659V.5500183C.40899659 .56399539 .40899659 .5830078 .3889923 .5830078 .36898805 .5830078 .36898805 .56399539 .36898805 .5500183V.27046205H.08898926C.07499695 .27046205 .055999757 .27046205 .055999757 .25045777 .055999757 .23046875 .07499695 .23046875 .08898926 .23046875H.36898805V-.05000305C.36898805-.06401062 .36898805-.08300781 .3889923-.08300781 .40899659-.08300781 .40899659-.06401062 .40899659-.05000305V.23046875Z"/>
<path id="font_6_2" d="M.1269989 .07699585 .23298645 .18003845C.3889923 .31811524 .44898988 .3721466 .44898988 .47216798 .44898988 .5860901 .35899354 .6660156 .23699951 .6660156 .12399292 .6660156 .049987794 .57411196 .049987794 .48516847 .049987794 .4291687 .099990848 .4291687 .102996829 .4291687 .11999512 .4291687 .15499878 .44117738 .15499878 .48217774 .15499878 .5081787 .13699341 .5341797 .101989749 .5341797 .09399414 .5341797 .09199524 .5341797 .08898926 .5331726 .11199951 .59806826 .1659851 .63500979 .22399903 .63500979 .31498719 .63500979 .35798646 .5541382 .35798646 .47216798 .35798646 .39215089 .30799867 .31311036 .25299073 .25108338L.06098938 .036987306C.049987794 .025985718 .049987794 .023986817 .049987794 0H.42099L.44898988 .17404175H.42399598C.4189911 .14402771 .4119873 .1000061 .4019928 .084991458 .394989 .07699585 .32899476 .07699585 .30699159 .07699585H.1269989Z"/>
<path id="font_6_5" d="M.68699648 .32714845C.70199587 .32714845 .72099307 .32714845 .72099307 .34713746 .72099307 .36714173 .70199587 .36714173 .6879883 .36714173H.08898926C.07499695 .36714173 .055999757 .36714173 .055999757 .34713746 .055999757 .32714845 .07499695 .32714845 .08999634 .32714845H.68699648M.6879883 .13284302C.70199587 .13284302 .72099307 .13284302 .72099307 .15284729 .72099307 .17285156 .70199587 .17285156 .68699648 .17285156H.08999634C.07499695 .17285156 .055999757 .17285156 .055999757 .15284729 .055999757 .13284302 .07499695 .13284302 .08898926 .13284302H.6879883Z"/>
<path id="font_6_4" d="M.47599793 .609375C.4850006 .6213684 .4850006 .62338259 .4850006 .64437869H.24198914C.11999512 .64437869 .117996219 .65737918 .11399841 .67637637H.08898926L.055999757 .4702301H.08099365C.083999637 .48625184 .09298706 .5493469 .10598755 .56137087 .11299133 .5673828 .19099427 .5673828 .20399475 .5673828H.41099549C.3999939 .5513611 .32099916 .4421997 .29899598 .40914918 .20899964 .27394105 .17599488 .1347351 .17599488 .032577516 .17599488 .022567749 .17599488-.022460938 .22200012-.022460938 .2679901-.022460938 .2679901 .022567749 .2679901 .032577516V.08366394C.2679901 .13873291 .2709961 .19381714 .2789917 .24790955 .2829895 .27093507 .29699708 .35707093 .34098817 .41915895L.47599793 .609375Z"/>
<path id="font_6_3" d="M.44898988 .20022583C.44898988 .3193512 .36698915 .41944886 .25898744 .41944886 .21099854 .41944886 .16799927 .40345765 .13198853 .36842347V.5637665C.1519928 .5577698 .18499756 .55078127 .21699524 .55078127 .33999635 .55078127 .4099884 .6417694 .4099884 .6547699 .4099884 .6607666 .40699769 .6657715 .3999939 .6657715 .39898683 .6657715 .39698792 .6657715 .3919983 .66278079 .37199403 .6537781 .32299806 .6337738 .2559967 .6337738 .21598816 .6337738 .16999817 .6407776 .12298584 .6617737 .114990238 .66477969 .11299133 .66477969 .11099243 .66477969 .100997928 .66477969 .100997928 .6567688 .100997928 .6407776V.34439088C.100997928 .32637025 .100997928 .31835938 .114990238 .31835938 .12199402 .31835938 .12399292 .32136537 .12799073 .32736207 .13899231 .3433838 .17599488 .39746095 .25698854 .39746095 .30899049 .39746095 .33399964 .35139466 .34199525 .33337403 .35798646 .29632569 .3600006 .25727845 .3600006 .20722962 .3600006 .17222595 .3600006 .11222839 .33599855 .07035828 .31199647 .031463624 .2749939 .0055389406 .22898865 .0055389406 .1559906 .0055389406 .09899902 .058380128 .08198547 .11723328 .084991458 .1162262 .08799744 .115234378 .09899902 .115234378 .13198853 .115234378 .14898682 .14022827 .14898682 .16423035 .14898682 .18823242 .13198853 .21322632 .09899902 .21322632 .084991458 .21322632 .049987794 .20622254 .049987794 .16023255 .049987794 .07434082 .11898804-.022460938 .23098755-.022460938 .34700013-.022460938 .44898988 .073349 .44898988 .20022583Z"/>
<path id="font_7_1" d="M.6589966 .23046875C.6759949 .23046875 .69400027 .23046875 .69400027 .25045777 .69400027 .27046205 .6759949 .27046205 .6589966 .27046205H.117996219C.100997928 .27046205 .08299255 .27046205 .08299255 .25045777 .08299255 .23046875 .100997928 .23046875 .117996219 .23046875H.6589966Z"/>
</defs>
<path transform="matrix(1.00002,0,0,-1.00002,11.626839,227.86132)" stroke-width=".09962" stroke-linecap="butt" stroke-miterlimit="10" stroke-linejoin="miter" fill="none" stroke="#e0e0e0" d="M8.59291 0V206.23003M25.77875 0V206.23003M42.96458 0V206.23003M60.15042 0V206.23003M77.33626 0V206.23003M94.5221 0V206.23003M111.70793 0V206.23003M128.89377 0V206.23003M146.0796 0V206.23003M163.26544 0V206.23003M180.45128 0V206.23003M197.63712 0V206.23003"/>
<path transform="matrix(1.00002,0,0,-1.00002,11.626839,227.86132)" stroke-width=".19925" stroke-linecap="butt" stroke-miterlimit="10" stroke-linejoin="miter" fill="none" stroke="#c0c0c0" d="M0 0V206.23003M17.18582 0V206.23003M34.37166 0V206.23003M51.5575 0V206.23003M68.74333 0V206.23003M85.92917 0V206.23003M120.30084 0V206.23003M137.48668 0V206.23003M154.67252 0V206.23003M171.85836 0V206.23003M189.04419 0V206.23003M206.23003 0V206.23003"/>
<path transform="matrix(1.00002,0,0,-1.00002,11.626839,227.86132)" stroke-width=".09962" stroke-linecap="butt" stroke-miterlimit="10" stroke-linejoin="miter" fill="none" stroke="#e0e0e0" d="M0 8.59291H206.23003M0 25.77875H206.23003M0 42.96458H206.23003M0 60.15042H206.23003M0 77.33626H206.23003M0 94.5221H206.23003M0 111.70793H206.23003M0 128.89377H206.23003M0 146.0796H206.23003M0 163.26544H206.23003M0 180.45128H206.23003M0 197.63712H206.23003"/>
<path transform="matrix(1.00002,0,0,-1.00002,11.626839,227.86132)" stroke-width=".19925" stroke-linecap="butt" stroke-miterlimit="10" stroke-linejoin="miter" fill="none" stroke="#c0c0c0" d="M0 0H206.23003M0 17.18582H206.23003M0 34.37166H206.23003M0 51.5575H206.23003M0 68.74333H206.23003M0 85.92917H206.23003M0 120.30084H206.23003M0 137.48668H206.23003M0 154.67252H206.23003M0 171.85836H206.23003M0 189.04419H206.23003M0 206.23003H206.23003"/>
<path transform="matrix(1.00002,0,0,-1.00002,11.626839,227.86132)" stroke-width=".19925" stroke-linecap="butt" stroke-miterlimit="10" stroke-linejoin="miter" fill="none" stroke="#929292" d="M8.59291 101.69754V104.53249M25.77875 101.69754V104.53249M42.96458 101.69754V104.53249M60.15042 101.69754V104.53249M77.33626 101.69754V104.53249M94.5221 101.69754V104.53249M111.70793 101.69754V104.53249M128.89377 101.69754V104.53249M146.0796 101.69754V104.53249M163.26544 101.69754V104.53249M180.45128 101.69754V104.53249M197.63712 101.69754V104.53249"/>
<path transform="matrix(1.00002,0,0,-1.00002,11.626839,227.86132)" stroke-width=".19925" stroke-linecap="butt" stroke-miterlimit="10" stroke-linejoin="miter" fill="none" stroke="#929292" d="M0 100.98901V105.241M17.18582 100.98901V105.241M34.37166 100.98901V105.241M51.5575 100.98901V105.241M68.74333 100.98901V105.241M85.92917 100.98901V105.241M120.30084 100.98901V105.241M137.48668 100.98901V105.241M154.67252 100.98901V105.241M171.85836 100.98901V105.241M189.04419 100.98901V105.241M206.23003 100.98901V105.241"/>
<path transform="matrix(1.00002,0,0,-1.00002,11.626839,227.86132)" stroke-width=".19925" stroke-linecap="butt" stroke-miterlimit="10" stroke-linejoin="miter" fill="none" stroke="#929292" d="M101.69754 8.59291H104.53249M101.69754 25.77875H104.53249M101.69754 42.96458H104.53249M101.69754 60.15042H104.53249M101.69754 77.33626H104.53249M101.69754 94.5221H104.53249M101.69754 111.70793H104.53249M101.69754 128.89377H104.53249M101.69754 146.0796H104.53249M101.69754 163.26544H104.53249M101.69754 180.45128H104.53249M101.69754 197.63712H104.53249"/>
<path transform="matrix(1.00002,0,0,-1.00002,11.626839,227.86132)" stroke-width=".19925" stroke-linecap="butt" stroke-miterlimit="10" stroke-linejoin="miter" fill="none" stroke="#929292" d="M100.98901 0H105.241M100.98901 17.18582H105.241M100.98901 34.37166H105.241M100.98901 51.5575H105.241M100.98901 68.74333H105.241M100.98901 85.92917H105.241M100.98901 120.30084H105.241M100.98901 137.48668H105.241M100.98901 154.67252H105.241M100.98901 171.85836H105.241M100.98901 189.04419H105.241M100.98901 206.23003H105.241"/>
<path transform="matrix(1.00002,0,0,-1.00002,11.626839,227.86132)" stroke-width=".3985" stroke-linecap="butt" stroke-miterlimit="10" stroke-linejoin="miter" fill="none" stroke="#000000" d="M-6.37622 103.115H212.60626"/>
<path transform="matrix(-1.00002,-0,0,1.00002,5.2504909,124.74425)" d="M3.58653 0C2.52383 .19925 .797 .797-.3985 1.49438V-1.49438C.797-.797 2.52383-.19925 3.58653 0"/>
<path transform="matrix(1.00002,0,0,-1.00002,224.23737,124.74425)" d="M3.58653 0C2.52383 .19925 .797 .797-.3985 1.49438V-1.49438C.797-.797 2.52383-.19925 3.58653 0"/>
<path transform="matrix(1.00002,0,0,-1.00002,11.626839,227.86132)" stroke-width=".3985" stroke-linecap="butt" stroke-miterlimit="10" stroke-linejoin="miter" fill="none" stroke="#000000" d="M103.115-6.37622V212.60626"/>
<path transform="matrix(0,1.00002,1.00002,0,114.743907,234.23766)" d="M3.58653 0C2.52383 .19925 .797 .797-.3985 1.49438V-1.49438C.797-.797 2.52383-.19925 3.58653 0"/>
<path transform="matrix(0,-1.00002,-1.00002,-0,114.743907,15.250793)" d="M3.58653 0C2.52383 .19925 .797 .797-.3985 1.49438V-1.49438C.797-.797 2.52383-.19925 3.58653 0"/>
<use data-text="&#x2212;" xlink:href="#font_1_1" transform="matrix(7.9702599,0,0,-7.9702599,6.216728,135.52646)"/>
<use data-text="6" xlink:href="#font_2_6" transform="matrix(7.9702599,0,0,-7.9702599,12.803864,135.52646)"/>
<use data-text="&#x2212;" xlink:href="#font_1_1" transform="matrix(7.9702599,0,0,-7.9702599,23.402077,135.52646)"/>
<use data-text="5" xlink:href="#font_2_5" transform="matrix(7.9702599,0,0,-7.9702599,29.989212,135.52646)"/>
<use data-text="&#x2212;" xlink:href="#font_1_1" transform="matrix(7.9702599,0,0,-7.9702599,40.588418,135.52646)"/>
<use data-text="4" xlink:href="#font_2_4" transform="matrix(7.9702599,0,0,-7.9702599,47.175554,135.52646)"/>
<use data-text="&#x2212;" xlink:href="#font_1_1" transform="matrix(7.9702599,0,0,-7.9702599,57.77476,135.52646)"/>
<use data-text="3" xlink:href="#font_2_3" transform="matrix(7.9702599,0,0,-7.9702599,64.36189,135.52646)"/>
<use data-text="&#x2212;" xlink:href="#font_1_1" transform="matrix(7.9702599,0,0,-7.9702599,74.961109,135.52646)"/>
<use data-text="2" xlink:href="#font_2_2" transform="matrix(7.9702599,0,0,-7.9702599,81.54824,135.52646)"/>
<use data-text="&#x2212;" xlink:href="#font_1_1" transform="matrix(7.9702599,0,0,-7.9702599,92.147449,135.52646)"/>
<use data-text="1" xlink:href="#font_2_1" transform="matrix(7.9702599,0,0,-7.9702599,98.73458,135.52646)"/>
<use data-text="1" xlink:href="#font_2_1" transform="matrix(7.9702599,0,0,-7.9702599,129.8132,135.52646)"/>
<use data-text="2" xlink:href="#font_2_2" transform="matrix(7.9702599,0,0,-7.9702599,146.99954,135.52646)"/>
<use data-text="3" xlink:href="#font_2_3" transform="matrix(7.9702599,0,0,-7.9702599,164.18488,135.52646)"/>
<use data-text="4" xlink:href="#font_2_4" transform="matrix(7.9702599,0,0,-7.9702599,181.37125,135.52646)"/>
<use data-text="5" xlink:href="#font_2_5" transform="matrix(7.9702599,0,0,-7.9702599,198.55759,135.52646)"/>
<use data-text="6" xlink:href="#font_2_6" transform="matrix(7.9702599,0,0,-7.9702599,215.74393,135.52646)"/>
<use data-text="&#x2212;" xlink:href="#font_1_1" transform="matrix(7.9702599,0,0,-7.9702599,98.27657,230.01436)"/>
<use data-text="6" xlink:href="#font_2_6" transform="matrix(7.9702599,0,0,-7.9702599,104.86371,230.01436)"/>
<use data-text="&#x2212;" xlink:href="#font_1_1" transform="matrix(7.9702599,0,0,-7.9702599,98.27657,212.82802)"/>
<use data-text="5" xlink:href="#font_2_5" transform="matrix(7.9702599,0,0,-7.9702599,104.86371,212.82802)"/>
<use data-text="&#x2212;" xlink:href="#font_1_1" transform="matrix(7.9702599,0,0,-7.9702599,98.27657,195.64167)"/>
<use data-text="4" xlink:href="#font_2_4" transform="matrix(7.9702599,0,0,-7.9702599,104.86371,195.64167)"/>
<use data-text="&#x2212;" xlink:href="#font_1_1" transform="matrix(7.9702599,0,0,-7.9702599,98.27657,178.45633)"/>
<use data-text="3" xlink:href="#font_2_3" transform="matrix(7.9702599,0,0,-7.9702599,104.86371,178.45633)"/>
<use data-text="&#x2212;" xlink:href="#font_1_1" transform="matrix(7.9702599,0,0,-7.9702599,98.27657,161.26999)"/>
<use data-text="2" xlink:href="#font_2_2" transform="matrix(7.9702599,0,0,-7.9702599,104.86371,161.26999)"/>
<use data-text="&#x2212;" xlink:href="#font_1_1" transform="matrix(7.9702599,0,0,-7.9702599,98.27657,144.08364)"/>
<use data-text="1" xlink:href="#font_2_1" transform="matrix(7.9702599,0,0,-7.9702599,104.86371,144.08364)"/>
<use data-text="1" xlink:href="#font_2_1" transform="matrix(7.9702599,0,0,-7.9702599,104.86371,110.12595)"/>
<use data-text="2" xlink:href="#font_2_2" transform="matrix(7.9702599,0,0,-7.9702599,104.86371,92.94061)"/>
<use data-text="3" xlink:href="#font_2_3" transform="matrix(7.9702599,0,0,-7.9702599,104.86371,75.75426)"/>
<use data-text="4" xlink:href="#font_2_4" transform="matrix(7.9702599,0,0,-7.9702599,104.86371,58.567934)"/>
<use data-text="5" xlink:href="#font_2_5" transform="matrix(7.9702599,0,0,-7.9702599,104.86371,41.381578)"/>
<use data-text="6" xlink:href="#font_2_6" transform="matrix(7.9702599,0,0,-7.9702599,104.86371,24.195237)"/>
<g clip-path="url(#clip_3)">
<path transform="matrix(1.00002,0,0,-1.00002,11.626839,227.86132)" stroke-width=".3985" stroke-linecap="butt" stroke-miterlimit="10" stroke-linejoin="miter" fill="none" stroke="#0000ff" d="M17.18582 206.22832 24.34648 202.64849 31.50713 199.06868 38.66777 195.48715 45.82843 191.90735 52.98907 188.32823 60.14972 184.74808 67.31036 181.16774 74.47104 177.58742 81.63168 174.00693 88.79233 170.4266 95.95297 166.84627 103.11363 163.26595 110.27428 159.68563 117.43492 156.10529 124.5956 152.52515 131.75624 148.94481 138.91689 145.36449 146.07753 141.784 153.23819 138.20368 160.39884 134.62335 167.55948 131.04303 174.72013 127.46269 181.8808 123.88237 189.04145 120.30222"/>
<path transform="matrix(1.00002,0,0,-1.00002,11.626839,227.86132)" stroke-width=".3985" stroke-linecap="butt" stroke-miterlimit="10" stroke-linejoin="miter" fill="none" stroke="#99d6c2" d="M17.18582-292.1592 24.34648-256.356 31.50713-220.55266 38.66777-184.74942 45.82843-148.94622 52.98907-113.143 60.14972-77.33965 67.31036-41.53644 74.47104-5.73323 81.63168 30.07008 88.79233 65.87329 95.95297 101.67656 103.11363 137.4798 110.27428 173.28305 117.43492 209.08632 124.5956 244.8895 131.75624 280.69285 138.91689 316.4961 146.07753 352.29927 153.23819 388.10264 160.39884 423.90586 167.55948 459.70906 174.72013 495.5124 181.8808 531.3156 189.04145 567.11886"/>
<g clip-path="url(#clip_4)">
<path transform="matrix(1.00002,0,0,-1.00002,11.626839,227.86132)" stroke-width=".3985" stroke-linecap="butt" stroke-dasharray="2.98883,2.98883" stroke-miterlimit="10" stroke-linejoin="miter" fill="none" stroke="#000000" d="M233.68814 154.67252C233.68814 217.29538 182.9237 268.0598 120.30084 268.0598 57.67798 268.0598 6.91356 217.29538 6.91356 154.67252 6.91356 92.04965 57.67798 41.28523 120.30084 41.28523 182.9237 41.28523 233.68814 92.04965 233.68814 154.67252ZM120.30084 154.67252"/>
<use data-text="&#x03b8;" xlink:href="#font_5_1" transform="matrix(9.962799,0,0,-9.962799,133.45728,69.17314)"/>
</g>
</g>
<use data-text="x" xlink:href="#font_5_2" transform="matrix(9.962799,0,0,-9.962799,231.34424,126.88929)"/>
<use data-text="y" xlink:href="#font_5_3" transform="matrix(9.962799,0,0,-9.962799,112.122859,6.2068789)"/>
<path transform="matrix(1.00002,0,0,-1.00002,11.626839,227.86132)" d="M126.11559 6.3859H199.84412V34.1708H126.11559Z" fill="#ffffff"/>
<path transform="matrix(1.00002,0,0,-1.00002,11.626839,227.86132)" stroke-width=".3985" stroke-linecap="butt" stroke-miterlimit="10" stroke-linejoin="miter" fill="none" stroke="#000000" d="M126.11559 6.3859H199.84412V34.1708H126.11559Z"/>
<path transform="matrix(1.00002,0,0,-1.00002,140.93343,201.63277)" stroke-width=".3985" stroke-linecap="butt" stroke-miterlimit="10" stroke-linejoin="miter" fill="none" stroke="#0000ff" d="M0 0H8.50412 17.00826"/>
<use data-text="x" xlink:href="#font_5_2" transform="matrix(9.962799,0,0,-9.962799,160.13382,204.09581)"/>
<use data-text="+" xlink:href="#font_6_1" transform="matrix(9.962799,0,0,-9.962799,168.04097,204.09581)"/>
<use data-text="2" xlink:href="#font_6_2" transform="matrix(9.962799,0,0,-9.962799,177.99382,204.09581)"/>
<use data-text="y" xlink:href="#font_5_3" transform="matrix(9.962799,0,0,-9.962799,182.98526,204.09581)"/>
<use data-text="=" xlink:href="#font_6_5" transform="matrix(9.962799,0,0,-9.962799,190.99542,204.09581)"/>
<use data-text="7" xlink:href="#font_6_4" transform="matrix(9.962799,0,0,-9.962799,201.49622,204.09581)"/>
<path transform="matrix(1.00002,0,0,-1.00002,140.93343,213.53302)" stroke-width=".3985" stroke-linecap="butt" stroke-miterlimit="10" stroke-linejoin="miter" fill="none" stroke="#99d6c2" d="M0 0H8.50412 17.00826"/>
<use data-text="5" xlink:href="#font_6_3" transform="matrix(9.962799,0,0,-9.962799,160.13382,215.99607)"/>
<use data-text="x" xlink:href="#font_5_2" transform="matrix(9.962799,0,0,-9.962799,165.11492,215.99607)"/>
<use data-text="&#x2212;" xlink:href="#font_7_1" transform="matrix(9.962799,0,0,-9.962799,173.02307,215.99607)"/>
<use data-text="y" xlink:href="#font_5_3" transform="matrix(9.962799,0,0,-9.962799,182.98528,215.99607)"/>
<use data-text="=" xlink:href="#font_6_5" transform="matrix(9.962799,0,0,-9.962799,190.99544,215.99607)"/>
<use data-text="2" xlink:href="#font_6_2" transform="matrix(9.962799,0,0,-9.962799,201.49623,215.99607)"/>
</svg>
