<svg xmlns="http://www.w3.org/2000/svg" xmlns:xlink="http://www.w3.org/1999/xlink" xmlns:inkscape="http://www.inkscape.org/namespaces/inkscape" version="1.1" width="213" height="115" viewBox="0 0 213 115">
<defs>
<path id="font_1_1" d="M.31098939 .36265565H.42999269C.4149933 .30274964 .3929901 .2118988 .3929901 .13302613 .3929901 .09309387 .397995 .06613159 .4039917 .044174196 .41999818-.0057678224 .43299867-.009765625 .44898988-.009765625 .47200013-.009765625 .49598695 .011230469 .49598695 .035186769 .49598695 .043182374 .49398805 .047164918 .48799134 .057159425 .46899415 .09408569 .45098878 .15100098 .45098878 .23286438 .45098878 .25183106 .45098878 .29177857 .46499635 .36265565H.58999636C.60798647 .36265565 .6159973 .36265565 .6269989 .37065126 .6409912 .380661 .6439972 .39665223 .6439972 .4016571 .6439972 .43066407 .6179962 .43066407 .6009979 .43066407H.22399903C.18299866 .43066407 .15499878 .42166139 .10998535 .37965394 .083999637 .35665895 .04499817 .30274964 .04499817 .2937622 .04499817 .28178407 .057998659 .28178407 .06199646 .28178407 .07299805 .28178407 .07398987 .28378297 .07998657 .2927704 .1309967 .36265565 .19299317 .36265565 .21499634 .36265565H.27598573C.24499512 .25283814 .19099427 .13502503 .16099549 .07511902 .15499878 .062149049 .14498902 .04118347 .14199829 .03718567 .14099121 .033187868 .13899231 .029190064 .13899231 .022201539 .13899231 .006225586 .15098572-.009765625 .17399597-.009765625 .21398926-.009765625 .22499085 .035186769 .24899292 .12504578L.31098939 .36265565Z"/>
<path id="font_2_1" d="M.5049896 .18203736H.47099305C.46798707 .16001892 .45799256 .100997928 .44499208 .09098816 .43699647 .084991458 .3600006 .084991458 .34599305 .084991458H.1619873C.2669983 .17803955 .3019867 .20603943 .3619995 .25306703 .43598939 .312088 .5049896 .374115 .5049896 .46914674 .5049896 .5900879 .39898683 .6640625 .2709961 .6640625 .14698792 .6640625 .06298828 .57710269 .06298828 .4851532 .06298828 .43414308 .10598755 .42915345 .115997318 .42915345 .13999939 .42915345 .16899109 .44615174 .16899109 .48214723 .16899109 .5001526 .1619873 .53515627 .10998535 .53515627 .14099121 .6060791 .20899964 .62805178 .2559967 .62805178 .35598756 .62805178 .4079895 .5501404 .4079895 .46914674 .4079895 .38212586 .34599305 .3130951 .31399537 .27708436L.07299805 .038986207C.06298828 .02999878 .06298828 .027999878 .06298828 0H.47499085L.5049896 .18203736Z"/>
<path id="font_3_2" d="M.2649994 .37265016H.37799073C.34498597 .22489929 .33599855 .18196106 .33599855 .11508179 .33599855 .100097659 .33599855 .073150638 .34399415 .03919983 .35398866-.0047454836 .36499024-.0107421879 .37998963-.0107421879 .3999939-.0107421879 .42099 .007247925 .42099 .02722168 .42099 .033218385 .42099 .035202028 .4149933 .049179079 .38598634 .12106323 .38598634 .18595886 .38598634 .21391297 .38598634 .26683045 .3929901 .32073976 .4039917 .37265016H.5179901C.5309906 .37265016 .5669861 .37265016 .5669861 .406662 .5669861 .43066407 .54599 .43066407 .5269928 .43066407H.19198609C.16999817 .43066407 .13198853 .43066407 .08799744 .38365174 .052993776 .34469605 .026992798 .29878236 .026992798 .29379273 .026992798 .29278565 .026992798 .28379823 .038986207 .28379823 .04699707 .28379823 .04899597 .28779603 .054992677 .29577638 .10398865 .37265016 .1619873 .37265016 .18199158 .37265016H.23899842C.20698548 .25186158 .15299988 .13105774 .11099243 .04020691 .102996829 .025222779 .102996829 .023223877 .102996829 .016235352 .102996829-.002746582 .11898804-.0107421879 .13198853-.0107421879 .1619873-.0107421879 .16999817 .017242432 .18199158 .05418396 .19599915 .100097659 .19599915 .10209656 .20899964 .15202332L.2649994 .37265016Z"/>
<path id="font_2_2" d="M.272995 .33428956C.35099793 .33428956 .40699769 .2803192 .40699769 .1733551 .40699769 .04940796 .33499146 .012466431 .2769928 .012466431 .23699951 .012466431 .14898682 .0234375 .10699463 .082351688 .1539917 .084350589 .16499329 .11735535 .16499329 .13835144 .16499329 .17034912 .14099121 .19335938 .10998535 .19335938 .08198547 .19335938 .053985597 .17634583 .053985597 .13534546 .053985597 .041412355 .1579895-.01953125 .2789917-.01953125 .41799928-.01953125 .5139923 .07336426 .5139923 .1733551 .5139923 .2513275 .44999696 .32929994 .33999635 .35229493 .44499208 .39024354 .48298646 .4650879 .48298646 .5260773 .48298646 .60505679 .3919983 .6640625 .2809906 .6640625 .16999817 .6640625 .084991458 .61006167 .084991458 .5300751 .084991458 .49606324 .10699463 .47706605 .13699341 .47706605 .16799927 .47706605 .18798828 .5000763 .18798828 .5280762 .18798828 .5570679 .16799927 .57806399 .13699341 .5800781 .17199707 .62405398 .24099732 .63505557 .27799989 .63505557 .32299806 .63505557 .38598634 .6130676 .38598634 .5260773 .38598634 .48406983 .37199403 .43814088 .34599305 .4072113 .31298829 .36927796 .2849884 .3672943 .23498535 .36428834 .20999146 .3623047 .20799256 .3623047 .20298767 .3612976 .20098877 .3612976 .19299317 .3592987 .19299317 .34829713 .19299317 .33428956 .20199585 .33428956 .21899414 .33428956H.272995Z"/>
<path id="font_4_3" d="M.1269989 .07699585 .23298645 .18003845C.3889923 .31811524 .44898988 .3721466 .44898988 .47216798 .44898988 .5860901 .35899354 .6660156 .23699951 .6660156 .12399292 .6660156 .049987794 .57411196 .049987794 .48516847 .049987794 .4291687 .099990848 .4291687 .102996829 .4291687 .11999512 .4291687 .15499878 .44117738 .15499878 .48217774 .15499878 .5081787 .13699341 .5341797 .101989749 .5341797 .09399414 .5341797 .09199524 .5341797 .08898926 .5331726 .11199951 .59806826 .1659851 .63500979 .22399903 .63500979 .31498719 .63500979 .35798646 .5541382 .35798646 .47216798 .35798646 .39215089 .30799867 .31311036 .25299073 .25108338L.06098938 .036987306C.049987794 .025985718 .049987794 .023986817 .049987794 0H.42099L.44898988 .17404175H.42399598C.4189911 .14402771 .4119873 .1000061 .4019928 .084991458 .394989 .07699585 .32899476 .07699585 .30699159 .07699585H.1269989Z"/>
<path id="font_5_1" d="M.6589966 .23046875C.6759949 .23046875 .69400027 .23046875 .69400027 .25045777 .69400027 .27046205 .6759949 .27046205 .6589966 .27046205H.117996219C.100997928 .27046205 .08299255 .27046205 .08299255 .25045777 .08299255 .23046875 .100997928 .23046875 .117996219 .23046875H.6589966Z"/>
<path id="font_4_2" d="M.2939911 .64004519C.2939911 .66400149 .2939911 .6660156 .2709961 .6660156 .20899964 .60227969 .12098694 .60227969 .08898926 .60227969V.57128909C.10899353 .57128909 .16799927 .57128909 .21998596 .5972748V.07902527C.21998596 .042999269 .21699524 .0309906 .1269989 .0309906H.09498596V0C.12998963 .0029907227 .21699524 .0029907227 .25698854 .0029907227 .29699708 .0029907227 .38398744 .0029907227 .4189911 0V.0309906H.3869934C.29699708 .0309906 .2939911 .041992189 .2939911 .07902527V.64004519Z"/>
<path id="font_4_1" d="M.45999146 .31976319C.45999146 .39982606 .45498658 .47988893 .41999818 .5539398 .37399293 .65000918 .2919922 .6660156 .25 .6660156 .18998719 .6660156 .116989139 .64001467 .07598877 .54693606 .04399109 .47789 .038986207 .39982606 .038986207 .31976319 .038986207 .24472046 .042999269 .15464783 .083999637 .07859802 .1269989-.0024719239 .19999695-.022460938 .24899292-.022460938 .30299378-.022460938 .3789978-.0014648438 .4229889 .09359741 .45498658 .16265869 .45999146 .2407074 .45999146 .31976319M.24899292-.00047302247C.20999146-.00047302247 .15098572 .024551392 .1329956 .12062073 .12199402 .18066406 .12199402 .2727356 .12199402 .3317871 .12199402 .39582826 .12199402 .46188355 .12998963 .5159149 .14898682 .63500979 .22399903 .64401248 .24899292 .64401248 .28199769 .64401248 .34799195 .6259918 .36698915 .52693179 .3769989 .47088624 .3769989 .39482118 .3769989 .3317871 .3769989 .25672914 .3769989 .18867493 .3659973 .12461853 .35099793 .029556275 .2939911-.00047302247 .24899292-.00047302247Z"/>
<path id="font_3_10" d="M.08799744 .059265138C.084991458 .044265748 .07899475 .021255494 .07899475 .01625061 .07899475-.0017547608 .09298706-.0107421879 .10798645-.0107421879 .11999512-.0107421879 .13798523-.002746582 .14498902 .01725769 .14698792 .021255494 .18099976 .15730286 .18499756 .17530823 .19299317 .20831299 .21099854 .27833558 .21699524 .30534364 .22099304 .31835938 .24899292 .36535646 .272995 .38734437 .2809906 .39434815 .30999757 .42037965 .35299684 .42037965 .3789978 .42037965 .3939972 .4083557 .394989 .4083557 .36499024 .40335084 .34298707 .37934876 .34298707 .35334779 .34298707 .33735658 .35398866 .31835938 .3809967 .31835938 .4079895 .31835938 .43598939 .34135438 .43598939 .37734986 .43598939 .41235353 .4039917 .4423828 .35299684 .4423828 .28799439 .4423828 .24398804 .39335633 .22499085 .36535646 .21699524 .4103546 .18099976 .4423828 .13398743 .4423828 .08799744 .4423828 .068984989 .40335084 .05999756 .38534547 .041992189 .35134889 .0289917 .29133607 .0289917 .28834535 .0289917 .27833558 .038986207 .27833558 .040985109 .27833558 .050994874 .27833558 .051986696 .27934266 .057998659 .30134584 .07499695 .37234498 .09498596 .42037965 .1309967 .42037965 .147995 .42037965 .1619873 .41235353 .1619873 .37435914 .1619873 .35334779 .15899658 .3423462 .1459961 .29034425L.08799744 .059265138Z"/>
<path id="font_3_1" d="M.45498658 .5001831C.45498658 .56614688 .43699647 .7050781 .33499146 .7050781 .19599915 .7050781 .041992189 .42323304 .041992189 .19425965 .041992189 .100250247 .070999149-.0107421879 .1619873-.0107421879 .30299378-.0107421879 .45498658 .27627564 .45498658 .5001831M.147995 .36328126C.16499329 .42723084 .18499756 .5071869 .22499085 .57814028 .2519989 .6271057 .2889862 .68307498 .33399964 .68307498 .3829956 .68307498 .3889923 .6191101 .3889923 .56214907 .3889923 .5131836 .3809967 .46220399 .35699464 .36328126H.147995M.34799195 .3312683C.33699037 .28527833 .31599427 .2002716 .27799989 .12826538 .24299622 .060256959 .20498657 .011245728 .1619873 .011245728 .1289978 .011245728 .10798645 .040252687 .10798645 .133255 .10798645 .17526245 .11399841 .23326111 .13999939 .3312683H.34799195Z"/>
<path id="font_3_3" d="M.1789856 .114868167C.13899231 .047973634 .099990848 .033981325 .055999757 .0309906 .04399109 .02999878 .034988405 .02999878 .034988405 .010986328 .034988405 .004989624 .039993287 0 .04798889 0 .07499695 0 .10598755 .0029907227 .13398743 .0029907227 .16699219 .0029907227 .20199585 0 .23399353 0 .23999024 0 .25299073 0 .25299073 .018997193 .25299073 .02999878 .24398804 .0309906 .23699951 .0309906 .21398926 .032989503 .18998719 .04096985 .18998719 .06593323 .18998719 .077926639 .19599915 .088897708 .20399475 .102890018L.27999879 .23068238H.5309906C.5329895 .2097168 .5469971 .07392883 .5469971 .063949588 .5469971 .033981325 .49499513 .0309906 .47499085 .0309906 .46099855 .0309906 .45098878 .0309906 .45098878 .010986328 .45098878 0 .46299745 0 .46499635 0 .5059967 0 .548996 .0029907227 .58999636 .0029907227 .61499026 .0029907227 .6779938 0 .7029877 0 .70899966 0 .72099307 0 .72099307 .019989014 .72099307 .0309906 .71099856 .0309906 .69799807 .0309906 .6359863 .0309906 .6359863 .037979127 .6329956 .06694031L.57199099 .691803C.56999209 .71180728 .56999209 .7158203 .5529938 .7158203 .5369873 .7158203 .5329895 .7088165 .5269928 .69880679L.1789856 .114868167M.29899598 .26168824 .49598695 .5917816 .5279999 .26168824H.29899598Z"/>
<path id="font_3_4" d="M.1599884 .07795715C.1499939 .038986207 .147995 .0309906 .068984989 .0309906 .051986696 .0309906 .041992189 .0309906 .041992189 .010986328 .041992189 0 .050994874 0 .068984989 0H.42599488C.58399966 0 .70199587 .11791992 .70199587 .21585083 .70199587 .28778077 .6439972 .3457489 .5469971 .35673524 .651001 .37573243 .7559967 .44970704 .7559967 .5446625 .7559967 .6186218 .6899872 .6826172 .56999209 .6826172H.23399353C.21499634 .6826172 .20498657 .6826172 .20498657 .6626129 .20498657 .6516113 .21398926 .6516113 .23298645 .6516113 .23498535 .6516113 .2539978 .6516113 .2709961 .6496124 .2889862 .6476135 .2979889 .64660647 .2979889 .6336212 .2979889 .6296234 .29699708 .62661746 .2939911 .614624L.1599884 .07795715M.31098939 .36573792 .37298585 .6136322C.38198854 .64860537 .38398744 .6516113 .4269867 .6516113H.55599978C.6439972 .6516113 .6649933 .5926361 .6649933 .5486603 .6649933 .46069337 .57899478 .36573792 .45700074 .36573792H.31098939M.2659912 .0309906C.2519989 .0309906 .25 .0309906 .24398804 .03199768 .23399353 .032989503 .23098755 .033996583 .23098755 .04197693 .23098755 .04498291 .23098755 .04698181 .23599243 .064971927L.30499269 .34375H.49398805C.58999636 .34375 .60899356 .2698059 .60899356 .22683716 .60899356 .12791443 .519989 .0309906 .4019928 .0309906H.2659912Z"/>
<path id="font_3_5" d="M.7599945 .69506838C.7599945 .69807437 .7579956 .7050781 .7489929 .7050781 .74598696 .7050781 .7449951 .70407107 .73399356 .69306948L.6639862 .61602786C.6549988 .6300354 .60899356 .7050781 .49798585 .7050781 .2749939 .7050781 .049987794 .48391725 .049987794 .25172425 .049987794 .08659363 .16799927-.022460938 .32099916-.022460938 .4079895-.022460938 .48399354 .017532349 .5369873 .063583377 .6299896 .14564514 .6469879 .2367096 .6469879 .23971558 .6469879 .24972534 .6369934 .24972534 .6349945 .24972534 .6289978 .24972534 .6239929 .24772644 .621994 .23971558 .61299136 .21069336 .58999636 .13963318 .5209961 .081588748 .45199586 .025543213 .3889923 .008529663 .33699037 .008529663 .24699402 .008529663 .14099121 .060577394 .14099121 .21670532 .14099121 .27374269 .1619873 .43588258 .2619934 .55296328 .32299806 .62402346 .4169922 .67407229 .5059967 .67407229 .60798647 .67407229 .6669922 .5970001 .6669922 .48091126 .6669922 .44088746 .6639862 .43988038 .6639862 .4298706 .6639862 .41986085 .6749878 .41986085 .67900088 .41986085 .69200137 .41986085 .69200137 .42185975 .69699099 .43988038L.7599945 .69506838Z"/>
<path id="font_3_6" d="M.15899658 .07795715C.14898682 .038986207 .14698792 .0309906 .067993167 .0309906 .050994874 .0309906 .039993287 .0309906 .039993287 .011993408 .039993287 0 .04899597 0 .067993167 0H.39898683C.6069946 0 .80400088 .21087647 .80400088 .42974855 .80400088 .5706482 .71899417 .6826172 .56900027 .6826172H.23298645C.21398926 .6826172 .20298767 .6826172 .20298767 .66360476 .20298767 .6516113 .21199036 .6516113 .23199463 .6516113 .24499512 .6516113 .2630005 .65060427 .2749939 .6496124 .29100038 .6476135 .29699708 .64460757 .29699708 .6336212 .29699708 .6296234 .29599 .62661746 .29299928 .614624L.15899658 .07795715M.375 .6136322C.38398744 .64860537 .38598634 .6516113 .42900086 .6516113H.5359955C.6339874 .6516113 .71699526 .5986328 .71699526 .46672059 .71699526 .41775514 .69699099 .25386048 .6119995 .1439209 .58299258 .10694885 .5039978 .0309906 .3809967 .0309906H.2679901C.2539978 .0309906 .2519989 .0309906 .24598694 .03199768 .23599243 .032989503 .23298645 .033996583 .23298645 .041992189 .23298645 .04498291 .23298645 .04698181 .23799134 .064971927L.375 .6136322Z"/>
<path id="font_3_7" d="M.70799258 .23292542C.70999148 .23791504 .71299746 .24491883 .71299746 .24691773 .71299746 .24790955 .71299746 .2579193 .70098879 .2579193 .69200137 .2579193 .6899872 .25190736 .6879883 .24591065 .6230011 .097961429 .58599856 .0309906 .4149933 .0309906H.2689972C.25498963 .0309906 .25299073 .0309906 .24699402 .03199768 .23699951 .032989503 .23399353 .033996583 .23399353 .041992189 .23399353 .04498291 .23399353 .04698181 .23899842 .06498718L.30699159 .33789063H.4059906C.4909973 .33789063 .4909973 .31689454 .4909973 .29190064 .4909973 .28489686 .4909973 .27290345 .48399354 .24291992 .48199464 .23791504 .48098756 .23492432 .48098756 .23191834 .48098756 .22692871 .4850006 .220932 .49398805 .220932 .5019989 .220932 .5049896 .22592163 .5089874 .24092102L.56599429 .47477723C.56599429 .48077394 .5609894 .48576356 .55400088 .48576356 .54499819 .48576356 .54299929 .47976686 .5399933 .4677887 .5189972 .39186097 .5009918 .36888124 .40899659 .36888124H.31498719L.375 .60964968C.38398744 .64460757 .3849945 .64860537 .42900086 .64860537H.56999209C.69200137 .64860537 .7220001 .61964419 .7220001 .5377197 .7220001 .51374819 .7220001 .51174929 .71798709 .48477174 .71798709 .47877503 .71699526 .4717865 .71699526 .46678163 .71699526 .461792 .7200012 .45480348 .72898867 .45480348 .73999026 .45480348 .7409973 .46080018 .7429962 .47976686L.7630005 .65260317C.7659912 .6796112 .7609863 .6796112 .73599246 .6796112H.23098755C.21099854 .6796112 .20098877 .6796112 .20098877 .65960696 .20098877 .64860537 .20999146 .64860537 .22898865 .64860537 .2659912 .64860537 .2939911 .64860537 .2939911 .6306305 .2939911 .6266327 .2939911 .6246338 .2889862 .6066437L.15699768 .07797241C.14698792 .038986207 .14498902 .0309906 .06599426 .0309906 .04899597 .0309906 .037994386 .0309906 .037994386 .011993408 .037994386 0 .04699707 0 .06599426 0H.58499148C.60798647 0 .60899356 .0009918213 .6159973 .016998291L.70799258 .23292542Z"/>
<path id="font_3_8" d="M.30299378 .3244629H.3999939C.47499085 .3244629 .48298646 .30848695 .48298646 .27954103 .48298646 .2725525 .48298646 .26057435 .47599793 .2306366 .47399903 .22564698 .47299195 .22164917 .47299195 .21965027 .47299195 .21166992 .47898866 .20767212 .4850006 .20767212 .49499513 .20767212 .49499513 .21066284 .5 .2286377L.5549927 .44551087C.55799868 .45651246 .55799868 .45851136 .55799868 .46151734 .55799868 .46351625 .55599978 .47251893 .54599 .47251893 .5359955 .47251893 .5349884 .46751405 .5309906 .45150758 .5099945 .37347413 .4869995 .35546876 .4019928 .35546876H.31098939L.375 .6095886C.38398744 .64460757 .3849945 .64860537 .42900086 .64860537H.5609894C.6839905 .64860537 .70700076 .6156006 .70700076 .53855898 .70700076 .5155487 .70700076 .51153567 .70399478 .4845276 .70199587 .4715271 .70199587 .46951295 .70199587 .46652223 .70199587 .46151734 .7049866 .45451356 .71398928 .45451356 .72499087 .45451356 .7259979 .46051026 .7279968 .4795227L.7480011 .65260317C.7509918 .6796112 .74598696 .6796112 .72099307 .6796112H.23098755C.21099854 .6796112 .20098877 .6796112 .20098877 .65960696 .20098877 .64860537 .20999146 .64860537 .22898865 .64860537 .2659912 .64860537 .2939911 .64860537 .2939911 .6306 .2939911 .6266022 .2939911 .6246033 .2889862 .60658267L.15699768 .07791138C.14698792 .038970949 .14498902 .0309906 .06599426 .0309906 .04899597 .0309906 .037994386 .0309906 .037994386 .011993408 .037994386 0 .049987794 0 .052993776 0 .08198547 0 .1559906 .0029907227 .18499756 .0029907227 .21798706 .0029907227 .30099488 0 .33399964 0 .34298707 0 .35499574 0 .35499574 .018997193 .35499574 .026992798 .34899903 .0289917 .34899903 .02999878 .34599305 .0309906 .34399415 .0309906 .32099916 .0309906 .29899598 .0309906 .2939911 .0309906 .2689972 .032989503 .23999024 .035980226 .23699951 .039978029 .23699951 .052947999 .23699951 .0549469 .23699951 .060943605 .24099732 .075912479L.30299378 .3244629Z"/>
<path id="font_3_9" d="M.7599945 .69506838C.7599945 .69807437 .7579956 .7050781 .7489929 .7050781 .74598696 .7050781 .7449951 .70407107 .73399356 .69306948L.6639862 .61598208C.6549988 .6300049 .60899356 .7050781 .49798585 .7050781 .2749939 .7050781 .049987794 .4837799 .049987794 .25144959 .049987794 .09249878 .16099549-.022460938 .32299806-.022460938 .36698915-.022460938 .4119873-.013473511 .44799806 .0015258789 .49798585 .021530152 .5169983 .042526246 .5349884 .06251526 .5439911 .037521364 .56999209 .0005340576 .5799866 .0005340576 .58499148 .0005340576 .58699038 .0035247803 .58699038 .0045318605 .58898928 .0065307619 .598999 .044525148 .60398867 .06550598L.6230011 .14248657C.6269989 .15948487 .6319885 .1764679 .6359863 .19346619 .6469879 .2384491 .647995 .240448 .7049866 .24145508 .70999148 .24145508 .72099307 .2424469 .72099307 .26145936 .72099307 .26844789 .71598818 .27246095 .70799258 .27246095 .68499758 .27246095 .6259918 .26945497 .6029968 .26945497 .57199099 .26945497 .49398805 .27246095 .46299745 .27246095 .45399476 .27246095 .44198609 .27246095 .44198609 .25245667 .44198609 .24145508 .44999696 .24145508 .47200013 .24145508 .47299195 .24145508 .5019989 .24145508 .5249939 .23945618 .5509949 .2364502 .55599978 .23345948 .55599978 .22045899 .55599978 .2114563 .54499819 .16647339 .5349884 .12948609 .5069885 .01953125 .3769989 .008529663 .34199525 .008529663 .24598694 .008529663 .14099121 .06550598 .14099121 .21846009 .14099121 .24945069 .15098572 .41467286 .2559967 .5448761 .30999757 .6129761 .40699769 .67407229 .5059967 .67407229 .60798647 .67407229 .6669922 .59695437 .6669922 .48077394 .6669922 .44070436 .6639862 .43971253 .6639862 .4296875 .6639862 .41967774 .6749878 .41967774 .67900088 .41967774 .69200137 .41967774 .69200137 .42167665 .69699099 .43971253L.7599945 .69506838Z"/>
</defs>
<path transform="matrix(1.00003,0,0,-1.00005,16.468079,60.756383)" d="M1.49442 0C1.49442 1.238 .82533 2.24162 0 2.24162-.82533 2.24162-1.49442 1.238-1.49442 0-1.49442-1.238-.82533-2.24162 0-2.24162 .82533-2.24162 1.49442-1.238 1.49442 0ZM0 0"/>
<path transform="matrix(1.00003,0,0,-1.00005,16.468079,60.756383)" d="M46.02115 0C46.02115 1.238 45.35208 2.24162 44.52673 2.24162 43.7014 2.24162 43.03232 1.238 43.03232 0 43.03232-1.238 43.7014-2.24162 44.52673-2.24162 45.35208-2.24162 46.02115-1.238 46.02115 0ZM44.52673 0"/>
<path transform="matrix(1.00003,0,0,-1.00005,16.468079,60.756383)" d="M90.54836 0C90.54836 1.238 89.87929 2.24162 89.05394 2.24162 88.22859 2.24162 87.55952 1.238 87.55952 0 87.55952-1.238 88.22859-2.24162 89.05394-2.24162 89.87929-2.24162 90.54836-1.238 90.54836 0ZM89.05394 0"/>
<path transform="matrix(1.00003,0,0,-1.00005,16.468079,60.756383)" d="M135.0751 0C135.0751 1.238 134.40604 2.24162 133.58069 2.24162 132.75534 2.24162 132.08628 1.238 132.08628 0 132.08628-1.238 132.75534-2.24162 133.58069-2.24162 134.40604-2.24162 135.0751-1.238 135.0751 0ZM133.58069 0"/>
<path transform="matrix(1.00003,0,0,-1.00005,16.468079,60.756383)" d="M179.60231 0C179.60231 1.238 178.93325 2.24162 178.1079 2.24162 177.28255 2.24162 176.61348 1.238 176.61348 0 176.61348-1.238 177.28255-2.24162 178.1079-2.24162 178.93325-2.24162 179.60231-1.238 179.60231 0ZM178.1079 0"/>
<use data-text="&#x03c0;" xlink:href="#font_1_1" transform="matrix(6.9740097,0,0,-6.9741489,65.712558,67.27871)"/>
<path transform="matrix(1.00003,0,0,-1.00005,-37.953557,23.440522)" stroke-width=".3985" stroke-linecap="butt" stroke-miterlimit="10" stroke-linejoin="miter" fill="none" stroke="#000000" d="M103.663-45.268H108.572"/>
<use data-text="2" xlink:href="#font_2_1" transform="matrix(6.9740097,0,0,-6.9741489,66.18057,74.63708)"/>
<use data-text="&#x03c0;" xlink:href="#font_3_2" transform="matrix(9.962899,0,0,-9.963098,109.04486,68.56577)"/>
<use data-text="3" xlink:href="#font_2_2" transform="matrix(6.9740097,0,0,-6.9741489,154.76923,68.77078)"/>
<use data-text="&#x03c0;" xlink:href="#font_1_1" transform="matrix(6.9740097,0,0,-6.9741489,158.74036,68.77078)"/>
<path transform="matrix(1.00003,0,0,-1.00005,51.10312,24.932595)" stroke-width=".3985" stroke-linecap="butt" stroke-miterlimit="10" stroke-linejoin="miter" fill="none" stroke="#000000" d="M103.663-45.268H112.543"/>
<use data-text="2" xlink:href="#font_2_1" transform="matrix(6.9740097,0,0,-6.9741489,157.2233,76.12915)"/>
<use data-text="2" xlink:href="#font_4_3" transform="matrix(9.962899,0,0,-9.963098,198.10155,70.69688)"/>
<use data-text="&#x03c0;" xlink:href="#font_3_2" transform="matrix(9.962899,0,0,-9.963098,203.0827,70.69688)"/>
<path transform="matrix(1.00003,0,0,-1.00005,16.468079,60.756383)" d="M1.49442-42.5202C1.49442-41.28218 .82533-40.27858 0-40.27858-.82533-40.27858-1.49442-41.28218-1.49442-42.5202-1.49442-43.75822-.82533-44.76183 0-44.76183 .82533-44.76183 1.49442-43.75822 1.49442-42.5202ZM0-42.5202"/>
<path transform="matrix(1.00003,0,0,-1.00005,16.468079,60.756383)" d="M1.49442 0C1.49442 1.238 .82533 2.24162 0 2.24162-.82533 2.24162-1.49442 1.238-1.49442 0-1.49442-1.238-.82533-2.24162 0-2.24162 .82533-2.24162 1.49442-1.238 1.49442 0ZM0 0"/>
<path transform="matrix(1.00003,0,0,-1.00005,16.468079,60.756383)" d="M1.49442 42.5202C1.49442 43.75822 .82533 44.76183 0 44.76183-.82533 44.76183-1.49442 43.75822-1.49442 42.5202-1.49442 41.28218-.82533 40.27858 0 40.27858 .82533 40.27858 1.49442 41.28218 1.49442 42.5202ZM0 42.5202"/>
<use data-text="&#x2212;" xlink:href="#font_5_1" transform="matrix(9.962899,0,0,-9.963098,.21759033,106.07364)"/>
<use data-text="1" xlink:href="#font_4_2" transform="matrix(9.962899,0,0,-9.963098,7.9668276,106.07364)"/>
<use data-text="0" xlink:href="#font_4_1" transform="matrix(9.962899,0,0,-9.963098,7.96682,63.96654)"/>
<use data-text="1" xlink:href="#font_4_2" transform="matrix(9.962899,0,0,-9.963098,7.96682,21.444416)"/>
<path transform="matrix(1.00003,0,0,-1.00005,16.468079,60.756383)" stroke-width=".3985" stroke-linecap="butt" stroke-miterlimit="10" stroke-linejoin="miter" fill="none" stroke="#000000" d="M0-51.02411V50.56583"/>
<path transform="matrix(0,-1.00005,-1.00003,-0,16.468079,10.188026)" stroke-width=".31879" stroke-linecap="round" stroke-linejoin="round" fill="none" stroke="#000000" d="M-1.19551 1.59401C-1.09587 .99626 0 .09961 .29886 0 0-.09961-1.09587-.99626-1.19551-1.59401"/>
<use data-text="r" xlink:href="#font_3_10" transform="matrix(9.962899,0,0,-9.963098,14.082008,6.2096598)"/>
<path transform="matrix(1.00003,0,0,-1.00005,16.468079,60.756383)" stroke-width=".3985" stroke-linecap="butt" stroke-miterlimit="10" stroke-linejoin="miter" fill="none" stroke="#000000" d="M1.4174 0H186.55513"/>
<path transform="matrix(1.00003,0,0,-1.00005,203.02881,60.756383)" stroke-width=".31879" stroke-linecap="round" stroke-linejoin="round" fill="none" stroke="#000000" d="M-1.19551 1.59401C-1.09587 .99626 0 .09961 .29886 0 0-.09961-1.09587-.99626-1.19551-1.59401"/>
<use data-text="&#x03b8;" xlink:href="#font_3_1" transform="matrix(9.962899,0,0,-9.963098,207.0068,57.236207)"/>
<path transform="matrix(1.00003,0,0,-1.00005,16.468079,60.756383)" stroke-width=".3985" stroke-linecap="butt" stroke-miterlimit="10" stroke-linejoin="miter" fill="none" stroke="#ff0000" d="M0 42.5202C0 42.5202 .21655 42.50964 .29973 42.49748 .3829 42.48534 .51631 42.45644 .59949 42.43259 .68265 42.40874 .81607 42.36111 .89923 42.32555 .9824 42.29001 1.11581 42.22357 1.19899 42.17633 1.28215 42.12909 1.41556 42.04387 1.49872 41.98492 1.5819 41.92598 1.7153 41.82219 1.79848 41.75136 1.88165 41.68053 2.01506 41.55687 2.09824 41.47432 2.1814 41.39177 2.31482 41.25047 2.39798 41.1564 2.48116 41.06235 2.61455 40.90163 2.69772 40.79633 2.78088 40.69102 2.9143 40.51376 2.99747 40.3973 3.08064 40.2808 3.21405 40.08475 3.29723 39.95677 3.3804 39.82877 3.51381 39.61395 3.59698 39.47469 3.68015 39.33543 3.81355 39.10309 3.89671 38.95303 3.97989 38.803 4.1133 38.5538 4.19647 38.39314 4.27963 38.23247 4.41306 37.96622 4.49622 37.79492 4.57939 37.62363 4.7128 37.34027 4.79597 37.15845 4.87915 36.97661 5.01254 36.67662 5.0957 36.48434 5.17888 36.29207 5.31229 35.97496 5.39546 35.7726 5.47864 35.57025 5.61205 35.23788 5.69522 35.02582 5.77838 34.81375 5.9118 34.4658 5.99496 34.244 6.07814 34.0222 6.21153 33.6584 6.29471 33.42715 6.37787 33.1959 6.51129 32.81775 6.59445 32.57722 6.67763 32.3367 6.81104 31.94308 6.89421 31.69356 6.97739 31.44402 7.1108 31.0369 7.19397 30.77872 7.27713 30.52055 7.41054 30.09932 7.4937 29.83276 7.57687 29.56622 7.71028 29.13235 7.79346 28.85762 7.87662 28.58289 8.01004 28.13535 8.0932 27.8526 8.17638 27.56987 8.30978 27.11012 8.39296 26.81972 8.47614 26.52933 8.60953 26.05745 8.6927 25.75957 8.77586 25.4617 8.90929 24.9776 8.99245 24.6728 9.07562 24.36798 9.20903 23.87407 9.2922 23.56271 9.37537 23.25133 9.50879 22.74643 9.59195 22.42857 9.67513 22.11072 9.80852 21.59581 9.8917 21.27176 9.97487 20.94771 10.10828 20.42271 10.19144 20.0929 10.27461 19.76306 10.40802 19.22975 10.4912 18.89453 10.57437 18.5593 10.70778 18.01707 10.79095 17.67671 10.87411 17.33636 11.00752 16.7865 11.09068 16.44139 11.17386 16.09625 11.30727 15.53876 11.39044 15.1892 11.4736 14.83966 11.60703 14.27565 11.69019 13.92207 11.77336 13.56848 11.90677 12.99805 11.98994 12.64069 12.07312 12.28331 12.20651 11.707 12.28969 11.34631 12.37285 10.98561 12.50627 10.4044 12.58943 10.04091 12.6726 9.6774 12.80602 9.09264 12.88919 8.72643 12.97235 8.36024 13.10577 7.77019 13.18893 7.40157 13.27211 7.03293 13.4055 6.44 13.48868 6.06956 13.57185 5.69914 13.70526 5.1035 13.78844 4.73172 13.8716 4.35994 14.00502 3.76294 14.08818 3.38998 14.17136 3.01706 14.30476 2.41757 14.38794 2.04373 14.4711 1.66988 14.6045 1.06961 14.68767 .6955 14.77084 .3214 14.90425-.27866 14.98743-.65268 15.0706-1.02669 15.20401-1.62648 15.28717-2.00024 15.37035-2.37401 15.50375-2.9735 15.58693-3.34653 15.6701-3.71957 15.8035-4.31693 15.88667-4.68889 15.96983-5.06085 16.10326-5.65695 16.18642-6.02737 16.26959-6.39783 16.403-6.99022 16.48618-7.35875 16.56934-7.7273 16.70276-8.31732 16.78592-8.68361 16.8691-9.0499 17.00249-9.635 17.08566-9.99875 17.16884-10.3625 17.30225-10.94456 17.38542-11.30545 17.46858-11.66632 17.602-12.24236 17.68517-12.59982 17.76834-12.95728 17.90175-13.52817 17.98492-13.88185 18.06808-14.23552 18.20149-14.79944 18.28465-15.14897 18.36783-15.49854 18.50124-16.05594 18.58441-16.40117 18.66759-16.74637 18.801-17.2966 18.88417-17.63715 18.96733-17.97769 19.10074-18.52011 19.18391-18.8556 19.26709-19.1911 19.40048-19.72516 19.48366-20.05525 19.56682-20.38535 19.70024-20.91054 19.7834-21.23477 19.86658-21.559 19.99998-22.07431 20.08316-22.39224 20.16634-22.7102 20.29974-23.2147 20.3829-23.52637 20.46608-23.838 20.59947-24.33333 20.68265-24.63841 20.76582-24.9435 20.89923-25.42722 20.9824-25.72517 21.06557-26.02315 21.19899-26.49522 21.28215-26.78596 21.36533-27.07674 21.49873-27.53781 21.58191-27.82082 21.66507-28.10384 21.79848-28.5509 21.88164-28.82582 21.96481-29.10072 22.09822-29.53546 22.1814-29.80229 22.26457-30.06909 22.39798-30.49036 22.48116-30.74889 22.56432-31.00739 22.69774-31.41583 22.7809-31.66565 22.86407-31.91545 22.99747-32.30862 23.08064-32.54933 23.1638-32.79004 23.29723-33.16905 23.38039-33.40056 23.46356-33.6321 23.59697-33.99597 23.68015-34.21805 23.76332-34.44014 23.89673-34.78865 23.9799-35.00117 24.06306-35.2137 24.19646-35.54718 24.27963-35.7499 24.36281-35.9526 24.49622-36.26973 24.57939-36.46227 24.66255-36.65482 24.79597-36.9556 24.87914-37.1377 24.96231-37.3198 25.09572-37.60315 25.1789-37.77481 25.26207-37.94647 25.39546-38.21384 25.47862-38.37497 25.5618-38.5361 25.6952-38.78578 25.77838-38.9362 25.86156-39.08661 25.99496-39.31952 26.07814-39.4591 26.1613-39.59871 26.29472-39.81422 26.37788-39.94249 26.46106-40.07076 26.59445-40.26685 26.67763-40.38368 26.76079-40.50052 26.89421-40.67896 26.97737-40.78462 27.06055-40.89029 27.19395-41.05104 27.27713-41.14537 27.3603-41.2397 27.49371-41.3817 27.57689-41.46458 27.66005-41.54747 27.79346-41.67174 27.87662-41.74292 27.9598-41.81412 28.0932-41.91838 28.17638-41.9778 28.25954-42.03719 28.39296-42.12352 28.47612-42.17113 28.5593-42.21875 28.6927-42.2851 28.77588-42.32103 28.85905-42.35693 28.99245-42.40582 29.07562-42.43002 29.15878-42.45421 29.29219-42.48312 29.37537-42.49553 29.45854-42.50793 29.67513-42.51955 29.67513-42.51955"/>
<use data-text="A" xlink:href="#font_3_3" transform="matrix(9.962899,0,0,-9.963098,19.988183,14.714081)"/>
<use data-text="B" xlink:href="#font_3_4" transform="matrix(9.962899,0,0,-9.963098,42.123849,113.607028)"/>
<path transform="matrix(1.00003,0,0,-1.00005,16.468079,60.756383)" stroke-width=".3985" stroke-linecap="butt" stroke-miterlimit="10" stroke-linejoin="miter" fill="none" stroke="#0000ff" d="M29.68378-42.51955C29.68378-42.51955 29.90036-42.50955 29.98352-42.49748 30.0667-42.48543 30.20009-42.45644 30.28326-42.43259 30.36642-42.40874 30.49985-42.36093 30.58301-42.32555 30.66618-42.29019 30.79959-42.22467 30.88277-42.17761 30.96594-42.13054 31.09935-42.04526 31.18253-41.98624 31.26569-41.92719 31.39908-41.82292 31.48225-41.752 31.56543-41.68108 31.69884-41.55742 31.78201-41.47496 31.86517-41.3925 31.9986-41.25166 32.08176-41.1577 32.16493-41.06374 32.29834-40.90291 32.38152-40.7976 32.46469-40.69229 32.59808-40.51508 32.68124-40.39859 32.76442-40.28212 32.89783-40.08597 32.981-39.95805 33.06418-39.83017 33.19759-39.61581 33.28076-39.47664 33.36392-39.33748 33.49734-39.10513 33.5805-38.955 33.66368-38.80487 33.79707-38.55511 33.88025-38.39444 33.96341-38.23378 34.09683-37.9681 34.18-37.79689 34.26317-37.62569 34.39658-37.34222 34.47975-37.16039 34.56293-36.97856 34.69633-36.67848 34.77951-36.4863 34.86267-36.29411 34.99608-35.97746 35.07924-35.7752 35.16241-35.57294 35.29582-35.2405 35.379-35.02843 35.46216-34.81636 35.59558-34.46841 35.67874-34.2466 35.76192-34.0248 35.89532-33.66092 35.9785-33.42975 36.06168-33.19861 36.19507-32.82098 36.27824-32.58046 36.3614-32.33994 36.49481-31.94577 36.57799-31.69614 36.66116-31.44652 36.79457-31.03941 36.87775-30.78133 36.9609-30.52324 37.09433-30.10255 37.17749-29.836 37.26067-29.56947 37.39406-29.13484 37.47723-28.8602 37.56041-28.58557 37.69382-28.13914 37.77698-27.8565 37.86015-27.57385 37.99356-27.11345 38.07674-26.82295 38.15991-26.53247 38.29332-26.0606 38.3765-25.7628 38.45966-25.46503 38.59306-24.9815 38.67622-24.6767 38.7594-24.3719 38.8928-23.87741 38.97598-23.56595 39.05914-23.25447 39.19257-22.7496 39.27573-22.43184 39.3589-22.11407 39.49231-21.59964 39.57549-21.27567 39.65866-20.95168 39.79205-20.42668 39.87523-20.09677 39.95839-19.76685 40.09181-19.23302 40.17497-18.89778 40.25815-18.56256 40.39156-18.02087 40.47473-17.6806 40.55789-17.34035 40.69131-16.7904 40.77448-16.44528 40.85765-16.10016 40.99104-15.54254 41.07422-15.19308 41.1574-14.84363 41.2908-14.28021 41.37398-13.92664 41.45714-13.57304 41.59055-13.00203 41.67372-12.64458 41.7569-12.28711 41.8903-11.7109 41.97348-11.35022 42.05664-10.98952 42.19005-10.4084 42.27321-10.0448 42.35638-9.68121 42.48979-9.09578 42.57297-8.72966 42.65614-8.36357 42.78955-7.77457 42.87271-7.40613 42.95589-7.03767 43.0893-6.44463 43.17247-6.07411 43.25565-5.70358 43.38904-5.1075 43.47221-4.73563 43.55537-4.36375 43.6888-3.76683 43.77196-3.39389 43.85513-3.02095 43.98854-2.42136 44.07172-2.0476 44.15488-1.67384 44.2883-1.07414 44.37146-.70004 44.45464-.32594 44.58803 .27467 44.6712 .64879 44.75438 1.02289 44.88779 1.6226 44.97096 1.99637 45.05412 2.37013 45.18755 2.96959 45.2707 3.34264 45.35388 3.71565 45.48729 4.31314 45.57047 4.68501 45.65363 5.05688 45.78703 5.6524 45.8702 6.02284 45.95337 6.39328 46.08678 6.98622 46.16995 7.35486 46.25313 7.7235 46.38654 8.31342 46.46971 8.67972 46.55287 9.04599 46.68628 9.6312 46.76945 9.99486 46.85263 10.35852 46.98604 10.94 47.06921 11.30089 47.15237 11.66176 47.28578 12.23836 47.36894 12.59592 47.45212 12.95346 47.58553 13.5242 47.6687 13.87798 47.75186 14.23174 47.88528 14.79617 47.96844 15.14572 48.05162 15.49527 48.18503 16.05215 48.2682 16.3973 48.35138 16.7424 48.48477 17.29271 48.56795 17.63326 48.65111 17.9738 48.78453 18.5162 48.86769 18.8517 48.95087 19.1872 49.08427 19.72128 49.16745 20.05138 49.25061 20.38147 49.38403 20.90666 49.4672 21.2309 49.55037 21.55513 49.68376 22.07031 49.76694 22.38835 49.85011 22.70638 49.98352 23.21147 50.0667 23.52312 50.14986 23.83476 50.28328 24.32945 50.36644 24.63454 50.44962 24.9396 50.58302 25.42389 50.6662 25.72194 50.74936 26.02 50.88277 26.49197 50.96593 26.78273 51.0491 27.0735 51.18251 27.53458 51.26569 27.81758 51.34886 28.10059 51.48227 28.54767 51.56544 28.82259 51.6486 29.09749 51.78201 29.53214 51.86519 29.79904 51.94836 30.06595 52.08176 30.4878 52.16493 30.74629 52.2481 31.00482 52.38152 31.4126 52.46468 31.66241 52.54785 31.91222 52.68126 32.30592 52.76443 32.54672 52.8476 32.78752 52.98102 33.16646 53.06418 33.39796 53.14735 33.62949 53.28075 33.99329 53.36392 34.21545 53.4471 34.43762 53.5805 34.7867 53.66368 34.99922 53.74684 35.21175 53.88026 35.54457 53.96342 35.7473 54.0466 35.95001 54.18001 36.26779 54.26318 36.46034 54.34634 36.6529 54.47975 36.95299 54.56291 37.1351 54.64609 37.3172 54.7795 37.60123 54.86267 37.77287 54.94585 37.94453 55.07925 38.21124 55.16243 38.37238 55.24559 38.5335 55.37901 38.78365 55.46217 38.93423 55.54535 39.08482 55.67874 39.31824 55.76192 39.45784 55.84508 39.59744 55.9785 39.81226 56.06166 39.94054 56.14484 40.06879 56.27824 40.26544 56.36142 40.38237 56.4446 40.49931 56.578 40.67758 56.66118 40.78334 56.74434 40.8891 56.87773 41.05031 56.9609 41.14473 57.04408 41.23917 57.17749 41.38095 57.26067 41.46391 57.34383 41.5469 57.47725 41.67165 57.56041 41.74292 57.64359 41.81421 57.777 41.91847 57.86017 41.9778 57.94333 42.0371 58.07674 42.12286 58.1599 42.17047 58.24307 42.2181 58.37648 42.2851 58.45966 42.32103 58.54283 42.35693 58.67624 42.40517 58.75941 42.42935 58.84258 42.45355 58.976 42.48303 59.05916 42.49553 59.14233 42.50803 59.3589 42.51955 59.3589 42.51955"/>
<use data-text="C" xlink:href="#font_3_5" transform="matrix(9.962899,0,0,-9.963098,71.920749,14.714081)"/>
<path transform="matrix(1.00003,0,0,-1.00005,16.468079,60.756383)" stroke-width=".3985" stroke-linecap="butt" stroke-miterlimit="10" stroke-linejoin="miter" fill="none" stroke="#00ff00" d="M59.368 42.51955C59.368 42.51955 59.58458 42.50955 59.66774 42.49748 59.75092 42.48543 59.88431 42.45634 59.96748 42.43259 60.05064 42.40883 60.18407 42.36166 60.26723 42.32619 60.3504 42.29074 60.48381 42.22403 60.56699 42.17697 60.65016 42.1299 60.78357 42.04572 60.86674 41.98686 60.9499 41.92801 61.0833 41.82356 61.16647 41.75266 61.24965 41.68173 61.38306 41.55817 61.46623 41.47563 61.5494 41.39308 61.68282 41.25166 61.76598 41.1577 61.84915 41.06374 61.98256 40.9035 62.06573 40.79826 62.1489 40.69302 62.2823 40.51563 62.36546 40.39923 62.44864 40.28285 62.58205 40.08727 62.66522 39.95937 62.7484 39.83145 62.8818 39.61655 62.96498 39.47728 63.04814 39.33803 63.18156 39.10568 63.26472 38.95564 63.3479 38.8056 63.4813 38.5564 63.56447 38.39572 63.64763 38.23505 63.78105 37.96873 63.86421 37.79752 63.94739 37.62631 64.0808 37.34343 64.16397 37.16168 64.24715 36.97995 64.38055 36.67976 64.46373 36.48758 64.54689 36.2954 64.6803 35.97885 64.76346 35.77649 64.84663 35.57414 64.98004 35.24113 65.06322 35.02905 65.14638 34.81699 65.2798 34.46953 65.36296 34.24791 65.44614 34.02628 65.57954 33.66284 65.66272 33.4317 65.7459 33.20053 65.87929 32.82228 65.96246 32.58176 66.04562 32.34123 66.17903 31.94763 66.2622 31.69809 66.34538 31.44856 66.47879 31.04135 66.56197 30.78326 66.64513 30.52519 66.77855 30.10452 66.86171 29.83797 66.94489 29.57143 67.07828 29.1369 67.16145 28.86217 67.24461 28.58743 67.37804 28.14055 67.4612 27.8578 67.54437 27.57507 67.67778 27.11465 67.76096 26.82426 67.84413 26.53386 67.97754 26.06252 68.06071 25.76474 68.14388 25.46695 68.27728 24.9828 68.36044 24.67801 68.44362 24.37318 68.57703 23.87917 68.6602 23.56787 68.74336 23.2566 68.87679 22.75217 68.95995 22.43442 69.04312 22.11665 69.17653 21.60175 69.2597 21.27759 69.34288 20.95346 69.47627 20.42798 69.55945 20.09807 69.64261 19.76816 69.77603 19.23486 69.85919 18.89973 69.94237 18.56459 70.07578 18.02292 70.15895 17.68257 70.24211 17.34221 70.37553 16.7917 70.4587 16.4466 70.54187 16.10146 70.67526 15.5444 70.75844 15.19504 70.84161 14.84569 70.97502 14.28206 71.0582 13.92856 71.14136 13.57507 71.27477 13.00455 71.35794 12.64717 71.44112 12.28981 71.57452 11.71352 71.6577 11.35281 71.74086 10.99211 71.87427 10.41101 71.95743 10.04741 72.0406 9.68382 72.17401 9.09846 72.25719 8.73227 72.34035 8.36609 72.47377 7.7765 72.55693 7.40805 72.6401 7.0396 72.77351 6.44714 72.85669 6.0767 72.93987 5.70627 73.07326 5.11018 73.15643 4.73822 73.2396 4.36626 73.37302 3.76886 73.45618 3.39583 73.53935 3.0228 73.67276 2.42332 73.75594 2.04958 73.8391 1.6758 73.97252 1.07599 74.05568 .70198 74.13885 .32796 74.27225-.27217 74.35542-.64618 74.4386-1.0202 74.572-1.61992 74.65518-1.99376 74.73834-2.36763 74.87177-2.96758 74.95493-3.34068 75.0381-3.71382 75.17151-4.31119 75.25468-4.68306 75.33784-5.05492 75.47125-5.65048 75.55441-6.0209 75.63759-6.39134 75.771-6.98427 75.85417-7.3529 75.93735-7.72153 76.07076-8.3115 76.15393-8.67776 76.23709-9.04407 76.3705-9.62924 76.45367-9.9929 76.53685-10.35657 76.67024-10.93817 76.75342-11.29895 76.83658-11.65974 76.97-12.23576 77.05316-12.5933 77.13634-12.95087 77.26974-13.52225 77.35292-13.876 77.43608-14.22977 77.5695-14.7936 77.65266-15.14314 77.73584-15.49269 77.86923-16.05002 77.95241-16.39532 78.03558-16.74063 78.16899-17.29141 78.25217-17.63194 78.33533-17.97249 78.46875-18.51436 78.55191-18.84976 78.63509-19.18518 78.7685-19.71931 78.85167-20.04941 78.93483-20.3795 79.06824-20.90471 79.1514-21.22893 79.23457-21.55318 79.36798-22.06839 79.45116-22.38641 79.53433-22.70445 79.66774-23.20944 79.75092-23.52118 79.83408-23.83293 79.9675-24.32808 80.05066-24.63324 80.13383-24.93839 80.26723-25.42258 80.3504-25.72064 80.43356-26.01869 80.56699-26.49077 80.65015-26.78143 80.73332-27.0721 80.86673-27.53271 80.9499-27.81564 81.03308-28.09856 81.16649-28.54572 81.24965-28.82063 81.33282-29.09555 81.46622-29.53008 81.5494-29.79709 81.63257-30.06407 81.76598-30.48639 81.84915-30.74501 81.93231-31.0036 82.06573-31.4113 82.1489-31.6611 82.23207-31.91092 82.36548-32.30464 82.44865-32.54544 82.53181-32.78624 82.66522-33.16505 82.74838-33.39667 82.83156-33.62828 82.96497-33.99274 83.04814-34.21481 83.13132-34.43689 83.26472-34.78484 83.3479-34.99727 83.43106-35.2097 83.56448-35.54327 83.64764-35.74599 83.73082-35.9487 83.86421-36.26585 83.94739-36.45839 84.03055-36.65094 84.16397-36.95161 84.24713-37.1338 84.3303-37.316 84.46371-37.59973 84.54689-37.77158 84.63007-37.94342 84.76347-38.21115 84.84665-38.37238 84.92981-38.53358 85.06322-38.78319 85.14638-38.9336 85.22955-39.084 85.36296-39.31693 85.44614-39.45653 85.5293-39.59613 85.66272-39.81152 85.74588-39.9399 85.82906-40.06824 85.96246-40.26479 86.04564-40.38173 86.12881-40.49866 86.2622-40.67693 86.34537-40.78268 86.42854-40.88844 86.56195-41.04955 86.64513-41.14407 86.7283-41.23859 86.86171-41.38095 86.94489-41.46391 87.02805-41.5469 87.16147-41.6711 87.24463-41.74228 87.3278-41.81348 87.4612-41.91783 87.54437-41.97716 87.62753-42.03645 87.76096-42.12222 87.84412-42.16985 87.92729-42.21745 88.0607-42.28436 88.14388-42.32036 88.22705-42.35637 88.36046-42.40508 88.44363-42.42935 88.5268-42.45364 88.6602-42.48303 88.74336-42.49553 88.82654-42.50803 89.04312-42.51955 89.04312-42.51955"/>
<use data-text="D" xlink:href="#font_3_6" transform="matrix(9.962899,0,0,-9.963098,101.26163,113.607028)"/>
<path transform="matrix(1.00003,0,0,-1.00005,16.468079,60.756383)" stroke-width=".3985" stroke-linecap="butt" stroke-miterlimit="10" stroke-linejoin="miter" fill="none" stroke="#fff200" d="M89.05394-42.51955C89.05394-42.51955 89.27051-42.50955 89.35368-42.49748 89.43684-42.48543 89.57027-42.45653 89.65343-42.43259 89.7366-42.40865 89.87001-42.36035 89.95319-42.3249 90.03636-42.28943 90.16977-42.22403 90.25293-42.17697 90.3361-42.1299 90.4695-42.0446 90.55267-41.98557 90.63585-41.92653 90.76926-41.82237 90.85243-41.75136 90.9356-41.68034 91.06902-41.55612 91.15218-41.47366 91.23535-41.3912 91.36876-41.25102 91.45193-41.15704 91.5351-41.06308 91.6685-40.90172 91.75166-40.79633 91.83484-40.69093 91.96825-40.51376 92.05142-40.3973 92.1346-40.2808 92.268-40.08475 92.35118-39.95677 92.43434-39.82877 92.56776-39.61395 92.65092-39.47469 92.7341-39.33543 92.8675-39.10309 92.95067-38.95303 93.03383-38.803 93.16725-38.55371 93.25041-38.39314 93.33359-38.23256 93.467-37.9668 93.55017-37.7956 93.63335-37.62439 93.76675-37.341 93.84993-37.15909 93.93309-36.97716 94.0665-36.67662 94.14966-36.48434 94.23283-36.29207 94.36624-35.9756 94.44942-35.77324 94.53258-35.57089 94.666-35.23788 94.74916-35.02582 94.83234-34.81375 94.96574-34.46628 95.04892-34.24467 95.1321-34.02304 95.26549-33.6597 95.34865-33.42845 95.43182-33.1972 95.56523-32.8185 95.6484-32.57788 95.73158-32.33727 95.86499-31.94363 95.94817-31.6942 96.03133-31.44475 96.16475-31.03821 96.24791-30.78003 96.33109-30.52185 96.46448-30.10007 96.54765-29.83344 96.63081-29.56679 96.76424-29.13298 96.8474-28.85826 96.93057-28.58353 97.06398-28.1361 97.14716-27.85327 97.23033-27.57043 97.36374-27.11012 97.44691-26.81972 97.53008-26.52933 97.66348-26.058 97.74664-25.76021 97.82982-25.46242 97.96323-24.97827 98.0464-24.67346 98.12956-24.36865 98.26299-23.87471 98.34615-23.56335 98.42932-23.25197 98.56273-22.74709 98.6459-22.42923 98.72908-22.11139 98.86247-21.59647 98.94565-21.27243 99.02881-20.94836 99.16222-20.42345 99.24539-20.09352 99.32857-19.76361 99.46198-19.22975 99.54515-18.89453 99.62831-18.5593 99.76173-18.01773 99.8449-17.67737 99.92807-17.337 100.06146-16.7865 100.14464-16.44139 100.22781-16.09625 100.36122-15.53922 100.44438-15.18983 100.52756-14.84048 100.66096-14.27686 100.74414-13.92337 100.82732-13.56987 100.96072-12.99944 101.0439-12.64197 101.12706-12.28452 101.26047-11.70776 101.34363-11.34697 101.4268-10.98619 101.56021-10.40508 101.64339-10.04156 101.72655-9.67807 101.85997-9.09326 101.94313-8.72707 102.0263-8.36089 102.15971-7.77075 102.24289-7.40222 102.32607-7.03368 102.45946-6.4413 102.54263-6.07088 102.6258-5.70042 102.75922-5.10434 102.84238-4.73238 102.92555-4.36043 103.05896-3.76294 103.14214-3.38998 103.2253-3.01706 103.35872-2.41803 103.44188-2.04437 103.52505-1.67068 103.65845-1.0709 103.74162-.69681 103.8248-.3227 103.9582 .27792 104.04138 .65204 104.12454 1.02614 104.25795 1.62593 104.34113 1.9996 104.4243 2.37328 104.55771 2.9722 104.64088 3.34523 104.72404 3.71826 104.85745 4.31628 104.94061 4.68825 105.02379 5.06021 105.1572 5.65558 105.24037 6.02611 105.32355 6.39664 105.45695 6.99013 105.54012 7.35875 105.62329 7.72739 105.7567 8.31679 105.83987 8.68297 105.92305 9.04916 106.05644 9.63443 106.13962 9.9981 106.22278 10.36176 106.3562 10.94327 106.43936 11.30415 106.52254 11.66504 106.65594 12.2416 106.73912 12.59915 106.82228 12.9567 106.9557 13.52753 107.03886 13.88121 107.12204 14.23488 107.25543 14.79868 107.33861 15.14832 107.42178 15.49796 107.55519 16.05594 107.63837 16.40117 107.72153 16.74637 107.85495 17.29604 107.93811 17.63649 108.02129 17.97694 108.1547 18.51956 108.23787 18.85497 108.32103 19.19038 108.45444 19.72394 108.5376 20.05394 108.62077 20.38394 108.75418 20.90924 108.83736 21.23347 108.92053 21.55771 109.05394 22.07292 109.13712 22.39096 109.22028 22.70898 109.35368 23.21407 109.43686 23.52573 109.52003 23.83736 109.65343 24.33208 109.7366 24.63715 109.81976 24.9422 109.95319 25.42639 110.03635 25.72452 110.11952 26.02264 110.25293 26.4953 110.3361 26.78596 110.41928 27.07664 110.55269 27.53659 110.63585 27.81952 110.71902 28.10243 110.85242 28.55026 110.9356 28.82518 111.01877 29.1001 111.15218 29.53407 111.23535 29.80098 111.31851 30.0679 111.45193 30.49026 111.5351 30.74889 111.61827 31.00748 111.75168 31.4153 111.83485 31.66501 111.91801 31.91472 112.05142 32.30797 112.13458 32.54868 112.21776 32.78938 112.35117 33.16829 112.43434 33.3999 112.51752 33.63152 112.65092 33.99597 112.7341 34.21805 112.81726 34.44014 112.95068 34.78807 113.03384 35.0005 113.11702 35.21294 113.25041 35.54645 113.33359 35.74925 113.41675 35.95206 113.55017 36.26973 113.63333 36.46227 113.7165 36.65482 113.84991 36.95494 113.93309 37.13704 114.01627 37.31915 114.14967 37.60315 114.23285 37.77481 114.31601 37.94647 114.4494 38.21318 114.53258 38.3743 114.61575 38.53543 114.74916 38.78578 114.83234 38.9362 114.9155 39.08661 115.04892 39.31897 115.13208 39.45848 115.21526 39.59798 115.34866 39.81348 115.43184 39.94182 115.51501 40.07019 115.6484 40.26675 115.73157 40.38368 115.81474 40.50061 115.94815 40.67896 116.03133 40.78462 116.1145 40.89029 116.24791 41.05104 116.33109 41.14537 116.41425 41.2397 116.54767 41.3817 116.63083 41.46458 116.714 41.54747 116.8474 41.67174 116.93057 41.74292 117.01373 41.81412 117.14716 41.91847 117.23032 41.9778 117.31349 42.0371 117.4469 42.12286 117.53008 42.17047 117.61325 42.2181 117.74666 42.2851 117.82983 42.32103 117.913 42.35693 118.0464 42.40517 118.12956 42.42935 118.21274 42.45355 118.34615 42.48303 118.42932 42.49553 118.51248 42.50803 118.72906 42.51955 118.72906 42.51955"/>
<use data-text="E" xlink:href="#font_3_7" transform="matrix(9.962899,0,0,-9.963098,131.24454,14.714081)"/>
<path transform="matrix(1.00003,0,0,-1.00005,16.468079,60.756383)" stroke-width=".3985" stroke-linecap="butt" stroke-miterlimit="10" stroke-linejoin="miter" fill="none" stroke="#bf0040" d="M118.73772 42.51955C118.73772 42.51955 118.9543 42.50955 119.03748 42.49748 119.12064 42.48543 119.25404 42.45644 119.3372 42.43259 119.42038 42.40874 119.55379 42.36102 119.63696 42.32555 119.72014 42.2901 119.85355 42.22403 119.93672 42.17697 120.01988 42.1299 120.1533 42.04517 120.23647 41.98624 120.31964 41.92728 120.45303 41.82292 120.53621 41.752 120.61937 41.68108 120.75279 41.55742 120.83595 41.47496 120.91913 41.3925 121.05254 41.25166 121.13571 41.1577 121.21889 41.06374 121.3523 40.90291 121.43547 40.7976 121.51863 40.69229 121.65202 40.51498 121.7352 40.39859 121.81837 40.28221 121.95178 40.08661 122.03496 39.9587 122.11812 39.8308 122.25154 39.6159 122.3347 39.47664 122.41788 39.33739 122.55128 39.10498 122.63446 38.955 122.71762 38.80504 122.85103 38.5563 122.93419 38.39572 123.01736 38.23514 123.15077 37.96881 123.23395 37.79752 123.31712 37.62622 123.45053 37.34297 123.5337 37.16104 123.61687 36.97913 123.75029 36.67856 123.83345 36.4863 123.91663 36.29402 124.05002 35.97746 124.1332 35.7752 124.21635 35.57294 124.34978 35.2405 124.43294 35.02843 124.51611 34.81636 124.64952 34.46823 124.7327 34.2466 124.81587 34.02498 124.94928 33.6622 125.03246 33.43106 125.11562 33.19989 125.24902 32.82108 125.33218 32.58046 125.41536 32.33984 125.54877 31.94623 125.63194 31.69681 125.7151 31.44736 125.84853 31.04071 125.93169 30.78262 126.01486 30.52455 126.14827 30.10321 126.23145 29.83667 126.31462 29.57011 126.44801 29.13614 126.53119 28.8615 126.61435 28.58685 126.74776 28.13988 126.83093 27.85715 126.91411 27.5744 127.04752 27.11418 127.13069 26.8236 127.21385 26.53302 127.34727 26.0606 127.43044 25.7628 127.51361 25.46503 127.647 24.98207 127.73018 24.67737 127.81334 24.37263 127.94676 23.87798 128.02993 23.5666 128.1131 23.25523 128.2465 22.7509 128.32968 22.43314 128.41286 22.11537 128.54627 21.60034 128.62944 21.2763 128.7126 20.95224 128.84601 20.42735 128.92917 20.09743 129.01235 19.76752 129.14575 19.23366 129.22893 18.89842 129.31209 18.5632 129.44551 18.02155 129.52867 17.68127 129.61185 17.341 129.74526 16.79106 129.82843 16.44595 129.9116 16.10081 130.045 15.5432 130.12818 15.19374 130.21134 14.84428 130.34476 14.28085 130.42792 13.92728 130.5111 13.57368 130.6445 13.00258 130.72768 12.64522 130.81084 12.28784 130.94426 11.7122 131.02742 11.3515 131.1106 10.99081 131.24399 10.40904 131.32717 10.04544 131.41034 9.68185 131.54375 9.09708 131.62693 8.73097 131.71009 8.36487 131.84349 7.7753 131.92667 7.40675 132.00984 7.03822 132.14325 6.4452 132.22643 6.07477 132.30959 5.70433 132.443 5.10878 132.52616 4.73691 132.60933 4.36504 132.74274 3.76756 132.82592 3.39453 132.90908 3.02148 133.0425 2.42203 133.12566 2.04826 133.20883 1.6745 133.34224 1.07469 133.42542 .70068 133.50859 .32666 133.642-.27347 133.72518-.64748 133.80834-1.02148 133.94174-1.62129 134.0249-1.99507 134.10808-2.36882 134.24149-2.96822 134.32466-3.34132 134.40782-3.71446 134.54125-4.3123 134.6244-4.68436 134.70758-5.05641 134.84099-5.6525 134.92417-6.02284 135.00734-6.39319 135.14073-6.9851 135.2239-7.35356 135.30707-7.722 135.44049-8.31204 135.52365-8.6784 135.60683-9.04478 135.74024-9.63046 135.82341-9.99422 135.90657-10.35797 136.04-10.93945 136.12316-11.30025 136.20633-11.66104 136.33972-12.23706 136.4229-12.59462 136.50608-12.95216 136.63948-13.52344 136.72266-13.8773 136.80582-14.23116 136.93923-14.79553 137.0224-15.14508 137.10558-15.49463 137.23899-16.0514 137.32216-16.39662 137.40532-16.74184 137.53873-17.29271 137.62189-17.63326 137.70507-17.9738 137.83847-18.51566 137.92165-18.85107 138.0048-19.18648 138.13823-19.72061 138.22139-20.0507 138.30457-20.3808 138.43798-20.90599 138.52115-21.23024 138.60433-21.55447 138.73772-22.06967 138.82089-22.38771 138.90406-22.70575 139.03748-23.21083 139.12064-23.52249 139.20381-23.83412 139.33722-24.32881 139.4204-24.63387 139.50356-24.93893 139.63698-25.42322 139.72014-25.72128 139.80332-26.01933 139.9367-26.4913 140.01988-26.78207 140.10306-27.07283 140.23647-27.5339 140.31964-27.81693 140.4028-28.09991 140.53623-28.54703 140.61939-28.82195 140.70256-29.09685 140.83597-29.53139 140.91915-29.79839 141.0023-30.06538 141.13571-30.4878 141.21887-30.74629 141.30205-31.00482 141.43546-31.41205 141.51863-31.66174 141.6018-31.91144 141.73522-32.30528 141.81838-32.54608 141.90155-32.78688 142.03496-33.16579 142.11814-33.39731 142.20131-33.62881 142.3347-33.99265 142.41788-34.21481 142.50104-34.43698 142.63446-34.78606 142.71762-34.99858 142.8008-35.2111 142.9342-35.54393 143.01738-35.74666 143.10054-35.94937 143.23397-36.26703 143.31713-36.45967 143.4003-36.65231 143.53369-36.9529 143.61687-37.1351 143.70005-37.31729 143.83345-37.60123 143.91663-37.77287 143.99979-37.94453 144.13321-38.21124 144.21637-38.37238 144.29955-38.5335 144.43296-38.78374 144.51613-38.93423 144.59929-39.08473 144.7327-39.31764 144.81586-39.45717 144.89904-39.59671 145.03244-39.81152 145.11562-39.9399 145.19879-40.06824 145.3322-40.26544 145.41538-40.38237 145.49854-40.49931 145.63196-40.67702 145.71512-40.78268 145.7983-40.88835 145.93169-41.04955 146.01486-41.14407 146.09803-41.23859 146.23145-41.38095 146.3146-41.46391 146.39778-41.5469 146.53119-41.6711 146.61437-41.74228 146.69754-41.81348 146.83095-41.91774 146.91411-41.97716 146.99729-42.03654 147.13068-42.12277 147.21385-42.17047 147.29703-42.21819 147.43044-42.2851 147.51361-42.32103 147.59677-42.35693 147.7302-42.40517 147.81336-42.42935 147.89653-42.45355 148.02994-42.48303 148.11312-42.49553 148.19628-42.50803 148.41284-42.51955 148.41284-42.51955"/>
<use data-text="F" xlink:href="#font_3_8" transform="matrix(9.962899,0,0,-9.963098,160.99942,113.607028)"/>
<path transform="matrix(1.00003,0,0,-1.00005,16.468079,60.756383)" stroke-width=".3985" stroke-linecap="butt" stroke-miterlimit="10" stroke-linejoin="miter" fill="none" stroke="#ff8000" d="M148.42194-42.51955C148.42194-42.51955 148.63852-42.50955 148.7217-42.49748 148.80486-42.48543 148.93827-42.45644 149.02143-42.43259 149.1046-42.40874 149.238-42.36093 149.32118-42.32555 149.40436-42.29019 149.53777-42.22458 149.62094-42.17761 149.7041-42.13063 149.83753-42.0458 149.92069-41.98686 150.00386-41.92792 150.13726-41.82356 150.22043-41.75266 150.30359-41.68173 150.43701-41.55807 150.52017-41.47563 150.60335-41.39317 150.73676-41.25221 150.81993-41.15834 150.9031-41.06445 151.03652-40.90411 151.11968-40.79889 151.20285-40.69368 151.33625-40.51628 151.41942-40.39989 151.5026-40.28351 151.636-40.08798 151.71918-39.96 151.80234-39.832 151.93576-39.61664 152.01892-39.47728 152.1021-39.33794 152.2355-39.10559 152.31868-38.95564 152.40184-38.8057 152.53525-38.55695 152.61841-38.39638 152.70159-38.2358 152.83499-37.96945 152.91817-37.79816 153.00135-37.62686 153.13475-37.34352 153.21793-37.16168 153.30109-36.97986 153.43451-36.67967 153.51767-36.48758 153.60085-36.29549 153.73424-35.9794 153.81742-35.77713 153.90058-35.57487 154.034-35.24188 154.11716-35.02972 154.20034-34.81757 154.33374-34.4696 154.41692-34.24791 154.50009-34.02618 154.6335-33.66275 154.71668-33.4317 154.79984-33.20062 154.93325-32.82295 155.0164-32.58243 155.09958-32.3419 155.23299-31.94763 155.31616-31.69809 155.39933-31.44856 155.53275-31.042 155.6159-30.78392 155.69908-30.52583 155.83249-30.10452 155.91567-29.83797 155.99884-29.57143 156.13224-29.13744 156.2154-28.86281 156.29857-28.58817 156.43198-28.14108 156.51515-27.85844 156.59833-27.5758 156.73174-27.11595 156.81491-26.82556 156.89807-26.53517 157.0315-26.06328 157.11466-25.7654 157.19783-25.46753 157.33123-24.98347 157.4144-24.67865 157.49756-24.37386 157.63098-23.87991 157.71414-23.56854 157.79732-23.25717 157.93073-22.75217 158.0139-22.43442 158.09708-22.11665 158.23049-21.60222 158.31366-21.27826 158.39682-20.9543 158.53023-20.42928 158.61339-20.09937 158.69657-19.76945 158.82997-19.23558 158.91315-18.90038 158.9963-18.56514 159.12973-18.02347 159.21289-17.68321 159.29607-17.34294 159.42948-16.79292 159.51265-16.44788 159.59583-16.10286 159.72922-15.5457 159.8124-15.19635 159.89556-14.84697 160.02898-14.28354 160.11214-13.92987 160.19532-13.5762 160.32872-13.00464 160.4119-12.64717 160.49506-12.28972 160.62848-11.71407 160.71164-11.35345 160.79482-10.99284 160.9282-10.41156 161.01139-10.04805 161.09456-9.68456 161.22797-9.09976 161.31113-8.73358 161.3943-8.36737 161.52771-7.77724 161.61089-7.40869 161.69406-7.04015 161.82747-6.44777 161.91065-6.07735 161.9938-5.70691 162.12722-5.11082 162.21038-4.73886 162.29355-4.3669 162.42696-3.76942 162.51013-3.3965 162.59329-3.02354 162.72672-2.42455 162.80988-2.05086 162.89305-1.6772 163.02646-1.0774 163.10964-.70328 163.19281-.32918 163.3262 .27144 163.40938 .64554 163.49254 1.01965 163.62596 1.61934 163.70912 1.9931 163.7923 2.36687 163.9257 2.96635 164.00888 3.3394 164.09204 3.71242 164.22547 4.3098 164.30863 4.68176 164.3918 5.05373 164.52519 5.64984 164.60837 6.02026 164.69155 6.3907 164.82495 6.983 164.90813 7.35162 164.99129 7.72023 165.12471 8.31073 165.20787 8.67711 165.29105 9.04349 165.42446 9.62856 165.50763 9.99225 165.59079 10.35593 165.7242 10.93744 165.80736 11.29831 165.89054 11.6592 166.02394 12.23576 166.10712 12.5933 166.19029 12.95087 166.3237 13.5217 166.40686 13.87537 166.49004 14.22905 166.62345 14.79294 166.70662 15.14249 166.7898 15.49202 166.92319 16.04947 167.00637 16.39468 167.08953 16.7399 167.22295 17.29012 167.3061 17.63066 167.38928 17.97119 167.52269 18.51363 167.60587 18.84912 167.68903 19.18463 167.82245 19.71867 167.90561 20.04877 167.98879 20.37886 168.12218 20.90407 168.20536 21.22829 168.28853 21.55254 168.42194 22.06775 168.50511 22.38577 168.58827 22.70381 168.7217 23.2088 168.80486 23.52052 168.88803 23.83224 169.02144 24.32742 169.10462 24.63258 169.18778 24.93773 169.32118 25.42192 169.40435 25.71997 169.48752 26.01804 169.62093 26.49011 169.7041 26.78078 169.78728 27.07144 169.92069 27.53198 170.00386 27.81497 170.08702 28.09799 170.22043 28.54562 170.3036 28.82063 170.38678 29.09564 170.52017 29.53017 170.60335 29.79709 170.68651 30.06398 170.81993 30.48582 170.90309 30.74434 170.98627 31.00287 171.11968 31.41055 171.20285 31.66045 171.28603 31.91034 171.41944 32.30464 171.5026 32.54544 171.58577 32.78624 171.71916 33.1645 171.80234 33.39603 171.88552 33.62755 172.01892 33.99197 172.1021 34.21416 172.18526 34.43633 172.31868 34.78474 172.40184 34.99727 172.48502 35.2098 172.61843 35.54327 172.7016 35.74599 172.78476 35.9487 172.91817 36.26585 173.00133 36.45839 173.0845 36.65094 173.21791 36.95161 173.30109 37.1338 173.38426 37.316 173.51767 37.59991 173.60085 37.77158 173.684 37.94324 173.81743 38.20984 173.90059 38.37106 173.98377 38.53227 174.11716 38.783 174.20034 38.9336 174.2835 39.08418 174.41692 39.31702 174.50008 39.45653 174.58325 39.59604 174.71666 39.81096 174.79984 39.93922 174.88301 40.06749 175.01642 40.26405 175.0996 40.38109 175.18276 40.49811 175.31615 40.67683 175.39933 40.78268 175.4825 40.88853 175.6159 41.04964 175.69908 41.14407 175.78224 41.2385 175.91567 41.38031 175.99883 41.46329 176.082 41.54626 176.21541 41.6711 176.29859 41.74228 176.38176 41.81348 176.51515 41.9171 176.59832 41.97649 176.68149 42.03589 176.8149 42.12268 176.89807 42.17047 176.98125 42.21828 177.11466 42.2851 177.19783 42.32103 177.28099 42.35693 177.41442 42.40517 177.49758 42.42935 177.58075 42.45355 177.71414 42.48303 177.79732 42.49553 177.88048 42.50803 178.09706 42.51955 178.09706 42.51955"/>
<use data-text="G" xlink:href="#font_3_9" transform="matrix(9.962899,0,0,-9.963098,190.6643,14.714081)"/>
</svg>
