<svg xmlns="http://www.w3.org/2000/svg" xmlns:xlink="http://www.w3.org/1999/xlink" version="1.1" width="179" height="241" viewBox="0 0 179 241">
<defs>
<clipPath id="clip_1">
<path transform="matrix(1.00005,0,0,-1.00003,11.863586,227.88745)" d="M0 0H147.29956V206.21939H0Z"/>
</clipPath>
<path id="font_2_1" d="M.3919983 .38137818C.3829956 .39839173 .35398866 .44140626 .29299928 .44140626 .17399597 .44140626 .042999269 .3023529 .042999269 .15428162 .042999269 .050247194 .10998535-.009765625 .18699646-.009765625 .25099183-.009765625 .30599977 .041229249 .32398988 .06124878 .34199525-.0077667238 .4099884-.009765625 .42199708-.009765625 .46798707-.009765625 .4909973 .02822876 .49899293 .04524231 .5189972 .08125305 .5329895 .13928223 .5329895 .14328003 .5329895 .14927674 .5289917 .15628052 .5169983 .15628052 .5049896 .15628052 .5029907 .15028382 .49699403 .12527466 .48298646 .070251468 .46398927 .018234253 .4249878 .018234253 .4019928 .018234253 .3929901 .037231447 .3929901 .06524658 .3929901 .08226013 .4019928 .11627197 .4079895 .14128113 .4139862 .16629029 .42900086 .22631836 .43299867 .24432373L.45298768 .32035829C.45799256 .3443756 .46899415 .38638307 .46899415 .39138795 .46899415 .4143982 .44999696 .4223938 .43699647 .4223938 .42199708 .4223938 .39698792 .4123993 .3919983 .38137818M.32398988 .10826111C.27398683 .039230348 .22200012 .018234253 .18998719 .018234253 .14399719 .018234253 .12098694 .0602417 .12098694 .11227417 .12098694 .1592865 .147995 .2663269 .16999817 .3103485 .19898987 .37138368 .24798584 .4133911 .2939911 .4133911 .35899354 .4133911 .37799073 .34036256 .37799073 .32835389 .37799073 .32435609 .35299684 .22631836 .34700013 .20030213 .33399964 .1532898 .33399964 .1512909 .32398988 .10826111Z"/>
<path id="font_2_2" d="M.24398804 .66430667C.24499512 .66630557 .24798584 .67930606 .24798584 .68029788 .24798584 .68530276 .24398804 .6943054 .23199463 .6943054 .22799683 .6943054 .19699097 .69129946 .17399597 .68930056L.117996219 .68530276C.09599304 .68330386 .085998538 .682312 .085998538 .66430667 .085998538 .6502991 .099990848 .6502991 .11199951 .6502991 .1599884 .6502991 .1599884 .64430239 .1599884 .63531497 .1599884 .62931826 .1499939 .5893402 .14399719 .5663452L.056991579 .2183075C.04899597 .18429566 .04899597 .16929627 .04899597 .15228272 .04899597 .049240114 .11199951-.009765625 .18899536-.009765625 .31199647-.009765625 .43998719 .13227844 .43998719 .27734376 .43998719 .37638856 .37599183 .44140626 .29599 .44140626 .23999024 .44140626 .19699097 .4053955 .1749878 .38638307L.24398804 .66430667M.18899536 .018234253C.15299988 .018234253 .116989139 .04623413 .116989139 .119277957 .116989139 .14628601 .12098694 .17129517 .1329956 .21931458 .13999939 .24832154 .14698792 .27633668 .15499878 .3053589 .1599884 .32336427 .1599884 .32536317 .17199707 .34036256 .20599365 .38238526 .25099183 .4133911 .29299928 .4133911 .34298707 .4133911 .3619995 .36437989 .3619995 .3193512 .3619995 .28234864 .33999635 .17529297 .30999757 .11627197 .28399659 .0622406 .23599243 .018234253 .18899536 .018234253Z"/>
<path id="font_2_3" d="M.22099304 .3976593H.31900025C.33799745 .3976593 .34999085 .3976593 .34999085 .4166565 .34999085 .43066407 .33699037 .43066407 .31999208 .43066407H.22898865L.2649994 .57250979C.2689972 .58750918 .2689972 .5924988 .2689972 .5934906 .2689972 .6144867 .25299073 .6244812 .23599243 .6244812 .20199585 .6244812 .19499207 .5974884 .18399048 .552536L.15299988 .43066407H.056991579C.037994386 .43066407 .024993897 .43066407 .024993897 .4116516 .024993897 .3976593 .037994386 .3976593 .054992677 .3976593H.14498902L.084991458 .15802002C.07899475 .13305664 .069992069 .09811401 .069992069 .084121707 .069992069 .024215699 .11898804-.009765625 .17199707-.009765625 .2789917-.009765625 .33999635 .13105774 .33999635 .14303589 .33999635 .15402222 .33099366 .15602112 .32499696 .15602112 .31399537 .15602112 .31298829 .15202332 .30599977 .13705445 .28599549 .08912659 .23599243 .018234253 .1749878 .018234253 .1539917 .018234253 .14199829 .032211305 .14199829 .06515503 .14199829 .084121707 .14498902 .09510803 .147995 .10809326L.22099304 .3976593Z"/>
<clipPath id="clip_3">
<path transform="matrix(1.00005,0,0,-1.00003,11.863586,227.88745)" d="M0 0H147.29956V206.21939H0Z"/>
</clipPath>
<path id="font_4_2" d="M.36698915 .3996582H.45298768C.47299195 .3996582 .48298646 .3996582 .48298646 .41966249 .48298646 .43066407 .47299195 .43066407 .45599366 .43066407H.37298585L.3939972 .5449524C.397995 .5660095 .4119873 .6370239 .41799928 .6490326 .4269867 .66804507 .44400025 .68307498 .46499635 .68307498 .46899415 .68307498 .49499513 .68307498 .5139923 .66503909 .46998597 .661026 .45999146 .6260376 .45999146 .6110382 .45999146 .58802798 .47799684 .57603457 .49699403 .57603457 .522995 .57603457 .5519867 .5980377 .5519867 .6360321 .5519867 .6820679 .5059967 .7050781 .46499635 .7050781 .43099977 .7050781 .36799623 .68707278 .33799745 .58802798 .33198548 .56700137 .32899476 .5569763 .30499269 .43066407H.23599243C.21699524 .43066407 .20599365 .43066407 .20599365 .4116516 .20599365 .3996582 .21499634 .3996582 .23399353 .3996582H.2999878L.22499085 .0048828127C.20698548-.09207153 .18998719-.18309021 .13798523-.18309021 .13398743-.18309021 .10899353-.18309021 .08999634-.16506958 .13598633-.1620636 .14498902-.12606812 .14498902-.111068729 .14498902-.08807373 .1269989-.07606506 .10798645-.07606506 .08198547-.07606506 .052993776-.09806824 .052993776-.13606262 .052993776-.18109131 .09700012-.20507813 .13798523-.20507813 .19299317-.20507813 .23298645-.14607239 .25099183-.108062747 .2829895-.04508972 .30599977 .07583618 .30699159 .082839969L.36698915 .3996582Z"/>
<path id="font_5_1" d="M.33099366-.2400055C.33099366-.23701477 .33099366-.23500061 .31399537-.21800232 .18899536-.0920105 .15699768 .09700012 .15699768 .25 .15699768 .42399598 .19499207 .59799197 .31799317 .72299197 .33099366 .73498538 .33099366 .7369995 .33099366 .73999026 .33099366 .746994 .32699586 .75 .32099916 .75 .31098939 .75 .22099304 .6819916 .1619873 .5549927 .11099243 .44499208 .09899902 .33399964 .09899902 .25 .09899902 .17199707 .10998535 .050994874 .16499329-.06201172 .22499085-.18501282 .31098939-.25 .32099916-.25 .32699586-.25 .33099366-.24700928 .33099366-.2400055Z"/>
<path id="font_4_4" d="M.33399964 .30233766C.33999635 .32835389 .36299134 .42037965 .43299867 .42037965 .43798829 .42037965 .46199037 .42037965 .48298646 .40734864 .45498658 .402359 .43499757 .37734986 .43499757 .35334779 .43499757 .33735658 .44599916 .31835938 .47299195 .31835938 .49499513 .31835938 .5269928 .3363495 .5269928 .37635804 .5269928 .42837525 .46798707 .4423828 .43399049 .4423828 .37599183 .4423828 .34098817 .38935853 .32899476 .36634828 .3039856 .43237306 .25 .4423828 .22099304 .4423828 .116989139 .4423828 .05999756 .3133545 .05999756 .28834535 .05999756 .27833558 .069992069 .27833558 .07199097 .27833558 .07998657 .27833558 .08299255 .28033448 .084991458 .28933717 .11898804 .39535523 .18499756 .42037965 .21899414 .42037965 .23799134 .42037965 .272995 .4113617 .272995 .35334779 .272995 .32235719 .2559967 .25532533 .21899414 .11528015 .20298767 .053268434 .16799927 .011245728 .12399292 .011245728 .117996219 .011245728 .09498596 .011245728 .07398987 .024276734 .09899902 .029266358 .12098694 .05027771 .12098694 .07827759 .12098694 .105270389 .09899902 .11328125 .083999637 .11328125 .053985597 .11328125 .0289917 .08728027 .0289917 .055267335 .0289917 .009246826 .07899475-.0107421879 .12298584-.0107421879 .18899536-.0107421879 .22499085 .059280397 .22799683 .0652771 .23999024 .028274537 .27598573-.0107421879 .33599855-.0107421879 .43899537-.0107421879 .49598695 .118270877 .49598695 .14328003 .49598695 .1532898 .4869995 .1532898 .48399354 .1532898 .47499085 .1532898 .47299195 .14929199 .47099305 .14228821 .43798829 .03527832 .36999513 .011245728 .33799745 .011245728 .29899598 .011245728 .2829895 .043273927 .2829895 .07727051 .2829895 .09927368 .2889862 .121276859 .2999878 .16529846L.33399964 .30233766Z"/>
<path id="font_5_2" d="M.2889862 .25C.2889862 .32798768 .27799989 .44898988 .22299195 .56199648 .16299439 .68499758 .07699585 .75 .066986087 .75 .06098938 .75 .056991579 .74598696 .056991579 .73999026 .056991579 .7369995 .056991579 .73498538 .07598877 .71699526 .17399597 .6179962 .23098755 .45899964 .23098755 .25 .23098755 .07899475 .19400025-.09700012 .069992069-.2230072 .056991579-.23500061 .056991579-.23701477 .056991579-.2400055 .056991579-.2460022 .06098938-.25 .066986087-.25 .07699585-.25 .16699219-.18200684 .22599793-.055007936 .2769928 .054992677 .2889862 .16600037 .2889862 .25Z"/>
<path id="font_4_1" d="M.1789856 .114868167C.13899231 .047973634 .099990848 .033981325 .055999757 .0309906 .04399109 .02999878 .034988405 .02999878 .034988405 .010986328 .034988405 .004989624 .039993287 0 .04798889 0 .07499695 0 .10598755 .0029907227 .13398743 .0029907227 .16699219 .0029907227 .20199585 0 .23399353 0 .23999024 0 .25299073 0 .25299073 .018997193 .25299073 .02999878 .24398804 .0309906 .23699951 .0309906 .21398926 .032989503 .18998719 .04096985 .18998719 .06593323 .18998719 .077926639 .19599915 .088897708 .20399475 .102890018L.27999879 .23068238H.5309906C.5329895 .2097168 .5469971 .07392883 .5469971 .063949588 .5469971 .033981325 .49499513 .0309906 .47499085 .0309906 .46099855 .0309906 .45098878 .0309906 .45098878 .010986328 .45098878 0 .46299745 0 .46499635 0 .5059967 0 .548996 .0029907227 .58999636 .0029907227 .61499026 .0029907227 .6779938 0 .7029877 0 .70899966 0 .72099307 0 .72099307 .019989014 .72099307 .0309906 .71099856 .0309906 .69799807 .0309906 .6359863 .0309906 .6359863 .037979127 .6329956 .06694031L.57199099 .691803C.56999209 .71180728 .56999209 .7158203 .5529938 .7158203 .5369873 .7158203 .5329895 .7088165 .5269928 .69880679L.1789856 .114868167M.29899598 .26168824 .49598695 .5917816 .5279999 .26168824H.29899598Z"/>
<path id="font_4_3" d="M.20599365 .3996582H.2999878C.31999208 .3996582 .32998658 .3996582 .32998658 .41966249 .32998658 .43066407 .31999208 .43066407 .3019867 .43066407H.21398926C.25 .5724945 .25498963 .59246829 .25498963 .59846499 .25498963 .61546328 .24299622 .62545779 .22599793 .62545779 .22299195 .62545779 .19499207 .62446597 .18598938 .58947756L.14698792 .43066407H.052993776C.032989503 .43066407 .022994996 .43066407 .022994996 .4116516 .022994996 .3996582 .0309906 .3996582 .050994874 .3996582H.13899231C.066986087 .11608887 .06298828 .099121097 .06298828 .08114624 .06298828 .02722168 .100997928-.0107421879 .15499878-.0107421879 .25698854-.0107421879 .31399537 .13505554 .31399537 .14305115 .31399537 .1530304 .30599977 .1530304 .3019867 .1530304 .29299928 .1530304 .2919922 .15003968 .2869873 .13905335 .24398804 .035217287 .19099427 .011245728 .15699768 .011245728 .13598633 .011245728 .12599182 .024230957 .12599182 .057174684 .12599182 .08114624 .12799073 .088134769 .13198853 .10510254L.20599365 .3996582Z"/>
<path id="font_4_5" d="M.48599244 .38136292C.48999024 .39537049 .48999024 .39736939 .48999024 .40437318 .48999024 .42237855 .47599793 .43138124 .46099855 .43138124 .45098878 .43138124 .43499757 .42536927 .42599488 .41036988 .42399598 .405365 .41600038 .37435914 .4119873 .35635377 .40499879 .33035279 .397995 .30334474 .3919983 .27633668L.34700013 .09628296C.34298707 .08126831 .2999878 .011245728 .23399353 .011245728 .18299866 .011245728 .17199707 .055267335 .17199707 .0922699 .17199707 .1382904 .18899536 .20030213 .22299195 .28833009 .23899842 .3293457 .24299622 .3403473 .24299622 .36035157 .24299622 .405365 .21099854 .4423828 .16099549 .4423828 .06599426 .4423828 .0289917 .29733277 .0289917 .28833009 .0289917 .27833558 .038986207 .27833558 .040985109 .27833558 .050994874 .27833558 .051986696 .28033448 .056991579 .29634095 .083999637 .3903656 .12399292 .42037965 .1579895 .42037965 .1659851 .42037965 .18299866 .42037965 .18299866 .3883667 .18299866 .36335755 .17298889 .3373413 .1659851 .31834413 .12599182 .21231079 .10798645 .1552887 .10798645 .10827637 .10798645 .019256592 .17098999-.0107421879 .22999573-.0107421879 .2689972-.0107421879 .30299378 .0062561037 .33099366 .03425598 .31799317-.017745972 .30599977-.06674194 .2659912-.11973572 .23999024-.15385437 .20199585-.18309021 .1559906-.18309021 .14199829-.18309021 .09700012-.18005371 .07998657-.14074707 .09599304-.14074707 .10899353-.14074707 .12298584-.1287384 .1329956-.11973572 .14299011-.10673523 .14299011-.08773804 .14299011-.056747438 .115997318-.052734376 .10598755-.052734376 .08299255-.052734376 .049987794-.068740848 .049987794-.11773682 .049987794-.16796875 .09399414-.20507813 .1559906-.20507813 .25898744-.20507813 .3619995-.11373901 .3899994-.00074768069L.48599244 .38136292Z"/>
</defs>
<path transform="matrix(1.00005,0,0,-1.00003,11.863586,227.88745)" stroke-width=".09962" stroke-linecap="butt" stroke-miterlimit="10" stroke-linejoin="miter" fill="none" stroke="#e0e0e0" d="M73.64978 0V206.21939"/>
<path transform="matrix(1.00005,0,0,-1.00003,11.863586,227.88745)" stroke-width=".19925" stroke-linecap="butt" stroke-miterlimit="10" stroke-linejoin="miter" fill="none" stroke="#c0c0c0" d="M29.4599 0V206.21939M117.83965 0V206.21939"/>
<path transform="matrix(1.00005,0,0,-1.00003,11.863586,227.88745)" stroke-width=".09962" stroke-linecap="butt" stroke-miterlimit="10" stroke-linejoin="miter" fill="none" stroke="#e0e0e0" d="M0 14.72995H147.29956M0 44.18987H147.29956M0 73.64978H147.29956M0 103.1097H147.29956M0 132.56961H147.29956M0 162.02953H147.29956M0 191.48943H147.29956"/>
<path transform="matrix(1.00005,0,0,-1.00003,11.863586,227.88745)" stroke-width=".19925" stroke-linecap="butt" stroke-miterlimit="10" stroke-linejoin="miter" fill="none" stroke="#c0c0c0" d="M0 29.4599H147.29956M0 58.91982H147.29956M0 88.37973H147.29956M0 117.83965H147.29956M0 147.29956H147.29956M0 176.75948H147.29956M0 206.21939H147.29956"/>
<path transform="matrix(1.00005,0,0,-1.00003,11.863586,227.88745)" stroke-width=".19925" stroke-linecap="butt" stroke-miterlimit="10" stroke-linejoin="miter" fill="none" stroke="#929292" d="M73.64978-1.41743V1.41743"/>
<path transform="matrix(1.00005,0,0,-1.00003,11.863586,227.88745)" stroke-width=".19925" stroke-linecap="butt" stroke-miterlimit="10" stroke-linejoin="miter" fill="none" stroke="#929292" d="M29.4599-2.12596V2.12596M117.83965-2.12596V2.12596"/>
<path transform="matrix(1.00005,0,0,-1.00003,11.863586,227.88745)" stroke-width=".19925" stroke-linecap="butt" stroke-miterlimit="10" stroke-linejoin="miter" fill="none" stroke="#929292" d="M-1.41743 14.72995H1.41743M-1.41743 44.18987H1.41743M-1.41743 73.64978H1.41743M-1.41743 103.1097H1.41743M-1.41743 132.56961H1.41743M-1.41743 162.02953H1.41743M-1.41743 191.48943H1.41743"/>
<path transform="matrix(1.00005,0,0,-1.00003,11.863586,227.88745)" stroke-width=".19925" stroke-linecap="butt" stroke-miterlimit="10" stroke-linejoin="miter" fill="none" stroke="#929292" d="M-2.12596 29.4599H2.12596M-2.12596 58.91982H2.12596M-2.12596 88.37973H2.12596M-2.12596 117.83965H2.12596M-2.12596 147.29956H2.12596M-2.12596 176.75948H2.12596M-2.12596 206.21939H2.12596"/>
<path transform="matrix(1.00005,0,0,-1.00003,11.863586,227.88745)" stroke-width=".19925" stroke-linecap="butt" stroke-miterlimit="10" stroke-linejoin="miter" fill="none" stroke="#929292" d="M91.32573-2.12596V2.12596"/>
<path transform="matrix(1.00005,0,0,-1.00003,11.863586,227.88745)" stroke-width=".3985" stroke-linecap="butt" stroke-miterlimit="10" stroke-linejoin="miter" fill="none" stroke="#000000" d="M-6.37622 0H153.67578"/>
<path transform="matrix(-1.00005,-0,0,1.00003,5.4870479,227.88745)" d="M3.58653 0C2.52383 .19925 .797 .797-.3985 1.49438V-1.49438C.797-.797 2.52383-.19925 3.58653 0"/>
<path transform="matrix(1.00005,0,0,-1.00003,165.54705,227.88745)" d="M3.58653 0C2.52383 .19925 .797 .797-.3985 1.49438V-1.49438C.797-.797 2.52383-.19925 3.58653 0"/>
<path transform="matrix(1.00005,0,0,-1.00003,11.863586,227.88745)" stroke-width=".3985" stroke-linecap="butt" stroke-miterlimit="10" stroke-linejoin="miter" fill="none" stroke="#000000" d="M0-6.37622V212.59561"/>
<path transform="matrix(0,1.00003,1.00005,0,11.863586,234.26387)" d="M3.58653 0C2.52383 .19925 .797 .797-.3985 1.49438V-1.49438C.797-.797 2.52383-.19925 3.58653 0"/>
<path transform="matrix(0,-1.00003,-1.00005,-0,11.863586,15.285446)" d="M3.58653 0C2.52383 .19925 .797 .797-.3985 1.49438V-1.49438C.797-.797 2.52383-.19925 3.58653 0"/>
<g clip-path="url(#clip_1)">
<path transform="matrix(1.00005,0,0,-1.00003,11.863586,227.88745)" d="M29.45985 33.12996C29.46017 33.14275 30.10492 33.95018 30.3526 34.26163 30.60031 34.57315 30.99757 35.07425 31.24529 35.38765 31.493 35.70103 31.89026 36.20514 32.13799 36.52042 32.3857 36.8357 32.78296 37.34282 33.03067 37.65996 33.27838 37.9771 33.67566 38.48724 33.92337 38.80626 34.1711 39.12529 34.56834 39.63843 34.81607 39.95932 35.06378 40.28021 35.46104 40.79636 35.70876 41.11914 35.95647 41.44193 36.35373 41.96109 36.60144 42.28574 36.84917 42.6104 37.24643 43.13255 37.49416 43.45908 37.74187 43.7856 38.13913 44.31078 38.38684 44.63919 38.63455 44.96759 39.03181 45.49579 39.27953 45.82607 39.52725 46.15634 39.92451 46.68755 40.17223 47.01971 40.41994 47.35187 40.81721 47.88608 41.06493 48.22011 41.31265 48.55414 41.7099 49.09134 41.95763 49.42726 42.20534 49.76318 42.6026 50.30342 42.85031 50.6412 43.09802 50.97899 43.49529 51.5222 43.743 51.86188 43.99072 52.20155 44.38799 52.74779 44.63571 53.08932 44.88342 53.43088 45.28069 53.98012 45.5284 54.32355 45.77611 54.66698 46.17337 55.21924 46.42108 55.56453 46.66881 55.90984 47.06606 56.4651 47.31378 56.81227 47.5615 57.15942 47.95877 57.71771 48.20648 58.06676 48.4542 58.41582 48.85146 58.97711 49.09918 59.32803 49.3469 59.67896 49.74416 60.24326 49.99187 60.59607 50.23958 60.94887 50.63684 61.51616 50.88455 61.87085 51.13228 62.22552 51.52954 62.79584 51.77727 63.1524 52.02498 63.50896 52.42224 64.08229 52.66995 64.44072 52.91766 64.79915 53.31493 65.37547 53.56264 65.73578 53.81036 66.09608 54.20761 66.67545 54.45534 67.03763 54.70305 67.39981 55.10033 67.98216 55.34804 68.34624 55.59575 68.71031 55.99301 69.29567 56.24072 69.66162 56.48845 70.02756 56.88571 70.6159 57.13342 70.98372 57.38113 71.35153 57.7784 71.94292 58.02611 72.3126 58.27383 72.68231 58.6711 73.2767 58.91882 73.64827 59.16653 74.01984 59.5638 74.61725 59.81151 74.99069 60.05922 75.36415 60.45648 75.96454 60.7042 76.33986 60.95192 76.71518 61.34917 77.31859 61.5969 77.6958 61.8446 78.073 62.24188 78.67943 62.4896 79.0585 62.7373 79.43758 63.13457 80.04701 63.38228 80.42796 63.63 80.8089 64.02725 81.42136 64.27498 81.8042 64.52269 82.18703 64.91995 82.80249 65.16766 83.1872 65.41537 83.5719 65.81265 84.19034 66.06038 84.57693 66.30809 84.96352 66.70535 85.58499 66.95306 85.97345 67.20078 86.3619 67.59804 86.98639 67.84575 87.37674 68.09348 87.76707 68.49074 88.39458 68.73846 88.78679 68.98618 89.179 69.38344 89.8095 69.63115 90.20358 69.87886 90.59766 70.27612 91.23119 70.52383 91.62715 70.77156 92.02312 71.16881 92.65962 71.41653 93.05748 71.66425 93.45532 72.06152 94.09488 72.30923 94.4946 72.55695 94.89432 72.95421 95.53682 73.20192 95.93842 73.44965 96.34001 73.84691 96.98557 74.09462 97.38904 74.34233 97.79251 74.7396 98.44109 74.9873 98.84644 75.23503 99.25179 75.63228 99.90334 75.88 100.31055 76.12772 100.71777 76.525 101.37236 76.7727 101.78146 77.02042 102.19057 77.41768 102.84816 77.66539 103.25914 77.91312 103.67012 78.31036 104.33072 78.55809 104.74358 78.8058 105.15642 79.20306 105.82002 79.45078 106.23474 79.69849 106.64948 80.09576 107.31612 80.34348 107.73271 80.5912 108.14932 80.98845 108.81895 81.23618 109.23744 81.48389 109.65591 81.88115 110.32854 82.12886 110.7489 82.37657 111.16927 82.77383 111.84491 83.02156 112.26715 83.26927 112.68939 83.66655 113.36804 83.91426 113.79216 84.16197 114.2163 84.55923 114.89796 84.80695 115.32394 85.05467 115.74994 85.45192 116.43459 85.69965 116.86246 85.94736 117.29031 86.34464 117.978 86.59235 118.40775 86.84006 118.8375 87.23732 119.5282 87.48503 119.95982 87.73276 120.39145 88.13 121.08514 88.37773 121.51865 88.62544 121.95215 89.0227 122.64883 89.27042 123.08421 89.51813 123.51958 89.9154 124.21931 90.16312 124.65657 90.41084 125.09383 90.8081 125.79654 91.05582 126.23567 91.134 126.37427 91.22708 126.53943 91.32567 126.71446L91.32678 0H29.4599Z" fill="#0000ff" fill-opacity=".05"/>
</g>
<use data-text="a" xlink:href="#font_2_1" transform="matrix(7.970498,0,0,-7.9703395,39.075948,236.96472)"/>
<use data-text="b" xlink:href="#font_2_2" transform="matrix(7.970498,0,0,-7.9703395,127.897388,239.06879)"/>
<use data-text="t" xlink:href="#font_2_3" transform="matrix(7.970498,0,0,-7.9703395,101.66507,238.43576)"/>
<g clip-path="url(#clip_3)">
<path transform="matrix(1.00005,0,0,-1.00003,11.863586,227.88745)" stroke-width=".99628" stroke-linecap="butt" stroke-miterlimit="10" stroke-linejoin="miter" fill="none" stroke="#000000" d="M29.4599 33.1424C29.4599 33.1424 30.10487 33.95012 30.3526 34.26163 30.60031 34.57315 30.99757 35.07425 31.24529 35.38765 31.493 35.70103 31.89026 36.20514 32.13799 36.52042 32.3857 36.8357 32.78296 37.34282 33.03067 37.65996 33.27838 37.9771 33.67566 38.48724 33.92337 38.80626 34.1711 39.12529 34.56834 39.63843 34.81607 39.95932 35.06378 40.28021 35.46104 40.79636 35.70876 41.11914 35.95647 41.44193 36.35373 41.96109 36.60144 42.28574 36.84917 42.6104 37.24643 43.13255 37.49416 43.45908 37.74187 43.7856 38.13913 44.31078 38.38684 44.63919 38.63455 44.96759 39.03181 45.49579 39.27953 45.82607 39.52725 46.15634 39.92451 46.68755 40.17223 47.01971 40.41994 47.35187 40.81721 47.88608 41.06493 48.22011 41.31265 48.55414 41.7099 49.09134 41.95763 49.42726 42.20534 49.76318 42.6026 50.30342 42.85031 50.6412 43.09802 50.97899 43.49529 51.5222 43.743 51.86188 43.99072 52.20155 44.38799 52.74779 44.63571 53.08932 44.88342 53.43088 45.28069 53.98012 45.5284 54.32355 45.77611 54.66698 46.17337 55.21924 46.42108 55.56453 46.66881 55.90984 47.06606 56.4651 47.31378 56.81227 47.5615 57.15942 47.95877 57.71771 48.20648 58.06676 48.4542 58.41582 48.85146 58.97711 49.09918 59.32803 49.3469 59.67896 49.74416 60.24326 49.99187 60.59607 50.23958 60.94887 50.63684 61.51616 50.88455 61.87085 51.13228 62.22552 51.52954 62.79584 51.77727 63.1524 52.02498 63.50896 52.42224 64.08229 52.66995 64.44072 52.91766 64.79915 53.31493 65.37547 53.56264 65.73578 53.81036 66.09608 54.20761 66.67545 54.45534 67.03763 54.70305 67.39981 55.10033 67.98216 55.34804 68.34624 55.59575 68.71031 55.99301 69.29567 56.24072 69.66162 56.48845 70.02756 56.88571 70.6159 57.13342 70.98372 57.38113 71.35153 57.7784 71.94292 58.02611 72.3126 58.27383 72.68231 58.6711 73.2767 58.91882 73.64827 59.16653 74.01984 59.5638 74.61725 59.81151 74.99069 60.05922 75.36415 60.45648 75.96454 60.7042 76.33986 60.95192 76.71518 61.34917 77.31859 61.5969 77.6958 61.8446 78.073 62.24188 78.67943 62.4896 79.0585 62.7373 79.43758 63.13457 80.04701 63.38228 80.42796 63.63 80.8089 64.02725 81.42136 64.27498 81.8042 64.52269 82.18703 64.91995 82.80249 65.16766 83.1872 65.41537 83.5719 65.81265 84.19034 66.06038 84.57693 66.30809 84.96352 66.70535 85.58499 66.95306 85.97345 67.20078 86.3619 67.59804 86.98639 67.84575 87.37674 68.09348 87.76707 68.49074 88.39458 68.73846 88.78679 68.98618 89.179 69.38344 89.8095 69.63115 90.20358 69.87886 90.59766 70.27612 91.23119 70.52383 91.62715 70.77156 92.02312 71.16881 92.65962 71.41653 93.05748 71.66425 93.45532 72.06152 94.09488 72.30923 94.4946 72.55695 94.89432 72.95421 95.53682 73.20192 95.93842 73.44965 96.34001 73.84691 96.98557 74.09462 97.38904 74.34233 97.79251 74.7396 98.44109 74.9873 98.84644 75.23503 99.25179 75.63228 99.90334 75.88 100.31055 76.12772 100.71777 76.525 101.37236 76.7727 101.78146 77.02042 102.19057 77.41768 102.84816 77.66539 103.25914 77.91312 103.67012 78.31036 104.33072 78.55809 104.74358 78.8058 105.15642 79.20306 105.82002 79.45078 106.23474 79.69849 106.64948 80.09576 107.31612 80.34348 107.73271 80.5912 108.14932 80.98845 108.81895 81.23618 109.23744 81.48389 109.65591 81.88115 110.32854 82.12886 110.7489 82.37657 111.16927 82.77383 111.84491 83.02156 112.26715 83.26927 112.68939 83.66655 113.36804 83.91426 113.79216 84.16197 114.2163 84.55923 114.89796 84.80695 115.32394 85.05467 115.74994 85.45192 116.43459 85.69965 116.86246 85.94736 117.29031 86.34464 117.978 86.59235 118.40775 86.84006 118.8375 87.23732 119.5282 87.48503 119.95982 87.73276 120.39145 88.13 121.08514 88.37773 121.51865 88.62544 121.95215 89.0227 122.64883 89.27042 123.08421 89.51813 123.51958 89.9154 124.21931 90.16312 124.65657 90.41084 125.09383 90.8081 125.79654 91.05582 126.23567 91.30353 126.67479 91.70079 127.38051 91.9485 127.8215 92.19623 128.26251 92.59348 128.97127 92.8412 129.41416 93.08891 129.85706 93.48618 130.56884 93.73389 131.0136 93.9816 131.45836 94.37888 132.1731 94.62659 132.61972 94.87431 133.06636 95.27156 133.78412 95.51929 134.23262 95.767 134.68112 96.16426 135.40192 96.41197 135.85231 96.65968 136.30269 97.05695 137.02652 97.30466 137.47878 97.55238 137.93105 97.94965 138.65782 98.19737 139.11196 98.44508 139.5661 98.84235 140.2959 99.09006 140.75194 99.33778 141.20796 99.73503 141.94081 99.98276 142.3987 100.23047 142.8566 100.62773 143.59244 100.87544 144.0522 101.12315 144.51198 101.52043 145.25077 101.76814 145.7124 102.01587 146.17404 102.41312 146.91594 102.66084 147.37947 102.90855 147.84299 103.30582 148.58786 103.55353 149.05326 103.80124 149.51865 104.19852 150.26651 104.44623 150.7338 104.69395 151.20108 105.0912 151.95194 105.33893 152.42108 105.58664 152.89023 105.9839 153.64412 106.23161 154.11516 106.47932 154.5862 106.87659 155.34307 107.1243 155.81597 107.37202 156.28888 107.7693 157.04875 108.01701 157.52355 108.26472 157.99834 108.66199 158.76126 108.9097 159.23792 109.15742 159.71459 109.55467 160.48053 109.8024 160.95908 110.05011 161.43762 110.44737 162.20652 110.69508 162.68694 110.9428 163.16735 111.34006 163.93929 111.58777 164.42159 111.8355 164.90389 112.23276 165.67887 112.48048 166.16303 112.7282 166.6472 113.12546 167.42513 113.37317 167.91117 113.62088 168.3972 114.01814 169.17818 114.26585 169.66609 114.51358 170.15402 114.91083 170.93799 115.15855 171.42778 115.40627 171.91757 115.80354 172.70458 116.05125 173.19626 116.29898 173.68793 116.69623 174.47798 116.94395 174.97153 117.19167 175.46508 117.83664 176.75344 117.83664 176.75344"/>
<use data-text="f" xlink:href="#font_4_2" transform="matrix(5.151519,-8.527345,-8.527514,-5.151417,78.7634,130.25005)"/>
<use data-text="(" xlink:href="#font_5_1" transform="matrix(5.151519,-8.527345,-8.527514,-5.151417,81.84006,125.157238)"/>
<use data-text="x" xlink:href="#font_4_4" transform="matrix(5.151519,-8.527345,-8.527514,-5.151417,83.84325,121.84134)"/>
<use data-text=")" xlink:href="#font_5_2" transform="matrix(5.151519,-8.527345,-8.527514,-5.151417,86.78754,116.967639)"/>
<use data-text="A" xlink:href="#font_4_1" transform="matrix(9.963098,0,0,-9.962899,76.1068,186.1872)"/>
<use data-text="(" xlink:href="#font_5_1" transform="matrix(9.963098,0,0,-9.962899,83.57917,186.1872)"/>
<use data-text="t" xlink:href="#font_4_3" transform="matrix(9.963098,0,0,-9.962899,87.45337,186.1872)"/>
<use data-text=")" xlink:href="#font_5_2" transform="matrix(9.963098,0,0,-9.962899,91.051548,186.1872)"/>
</g>
<use data-text="x" xlink:href="#font_4_4" transform="matrix(9.963098,0,0,-9.962899,172.68462,230.03252)"/>
<use data-text="y" xlink:href="#font_4_5" transform="matrix(9.963098,0,0,-9.962899,9.242455,6.207794)"/>
</svg>
