<svg xmlns="http://www.w3.org/2000/svg" xmlns:xlink="http://www.w3.org/1999/xlink" xmlns:inkscape="http://www.inkscape.org/namespaces/inkscape" version="1.1" width="212" height="208" viewBox="0 0 212 208">
<defs>
<path id="font_1_1" d="M.45999146 .31976319C.45999146 .39982606 .45498658 .47988893 .41999818 .5539398 .37399293 .65000918 .2919922 .6660156 .25 .6660156 .18998719 .6660156 .116989139 .64001467 .07598877 .54693606 .04399109 .47789 .038986207 .39982606 .038986207 .31976319 .038986207 .24472046 .042999269 .15464783 .083999637 .07859802 .1269989-.0024719239 .19999695-.022460938 .24899292-.022460938 .30299378-.022460938 .3789978-.0014648438 .4229889 .09359741 .45498658 .16265869 .45999146 .2407074 .45999146 .31976319M.24899292-.00047302247C.20999146-.00047302247 .15098572 .024551392 .1329956 .12062073 .12199402 .18066406 .12199402 .2727356 .12199402 .3317871 .12199402 .39582826 .12199402 .46188355 .12998963 .5159149 .14898682 .63500979 .22399903 .64401248 .24899292 .64401248 .28199769 .64401248 .34799195 .6259918 .36698915 .52693179 .3769989 .47088624 .3769989 .39482118 .3769989 .3317871 .3769989 .25672914 .3769989 .18867493 .3659973 .12461853 .35099793 .029556275 .2939911-.00047302247 .24899292-.00047302247Z"/>
<path id="font_2_1" d="M.5069885 .24998474C.5069885 .3710022 .4099884 .4650116 .2919922 .4650116 .17199707 .4650116 .07699585 .36799623 .07699585 .25097657 .07699585 .1299591 .17399597 .035949708 .2919922 .035949708 .4119873 .035949708 .5069885 .13296509 .5069885 .24998474M.2919922 .08496094C.19799805 .08496094 .12599182 .16096497 .12599182 .24998474 .12599182 .34300233 .19999695 .41601563 .2919922 .41601563 .38598634 .41601563 .45799256 .33999635 .45799256 .25097657 .45799256 .15795899 .38398744 .08496094 .2919922 .08496094Z"/>
<path id="font_1_4" d="M.2899933 .35191346C.37199403 .37893678 .42999269 .4490509 .42999269 .52809146 .42999269 .6100464 .34199525 .6660156 .24598694 .6660156 .14498902 .6660156 .068984989 .60606387 .068984989 .53009036 .068984989 .49710084 .09098816 .47808839 .11999512 .47808839 .15098572 .47808839 .17098999 .50009158 .17098999 .5290985 .17098999 .57910159 .12399292 .57910159 .10899353 .57910159 .13999939 .62802127 .20599365 .64100649 .24198914 .64100649 .2829895 .64100649 .33799745 .6190338 .33799745 .5290985 .33799745 .51708987 .33599855 .45906068 .30999757 .4149933 .27999879 .36691285 .24598694 .36390687 .22099304 .36291505 .21299744 .36190797 .18899536 .35990907 .18199158 .35990907 .17399597 .35890199 .16699219 .35791017 .16699219 .3479004 .16699219 .33691407 .17399597 .33691407 .19099427 .33691407H.23498535C.31698609 .33691407 .35398866 .2686615 .35398866 .17037964 .35398866 .034469606 .2849884 .0055389406 .24099732 .0055389406 .19799805 .0055389406 .12298584 .022491456 .08799744 .08137512 .12298584 .07637024 .1539917 .09837341 .1539917 .1363678 .1539917 .17237854 .1269989 .19238281 .09799194 .19238281 .07398987 .19238281 .041992189 .17837525 .041992189 .1343689 .041992189 .043441774 .1349945-.022460938 .24398804-.022460938 .3659973-.022460938 .45700074 .06838989 .45700074 .17037964 .45700074 .252594 .3939972 .33088685 .2899933 .35191346Z"/>
<path id="font_1_7" d="M.13198853 .327713V.35173036C.13198853 .6047821 .2559967 .64100649 .30699159 .64100649 .33099366 .64100649 .37298585 .634964 .394989 .6007538 .37998963 .6007538 .33999635 .6007538 .33999635 .5557556 .33999635 .524765 .3639984 .5097656 .38598634 .5097656 .4019928 .5097656 .43199159 .51875308 .43199159 .5577545 .43199159 .6178589 .3880005 .6660156 .30499269 .6660156 .1769867 .6660156 .041992189 .5367584 .041992189 .31570436 .041992189 .048553468 .1579895-.022460938 .25099183-.022460938 .3619995-.022460938 .45700074 .07156372 .45700074 .2036438 .45700074 .33070375 .36799623 .4267578 .25698854 .4267578 .18899536 .4267578 .1519928 .37573243 .13198853 .327713M.25099183 .0055389406C.18798828 .0055389406 .1579895 .06556702 .1519928 .080566409 .13398743 .127594 .13398743 .2076416 .13398743 .22564698 .13398743 .30369569 .1659851 .40374757 .2559967 .40374757 .27198792 .40374757 .31799317 .40374757 .34899903 .34172059 .36698915 .30470277 .36698915 .2536621 .36698915 .20463562 .36698915 .15661621 .36698915 .10658264 .34999085 .0705719 .31999208 .010528564 .27398683 .0055389406 .25099183 .0055389406Z"/>
<path id="font_1_10" d="M.36698915 .31781007V.28579713C.36698915 .05178833 .2630005 .0055389406 .20498657 .0055389406 .18798828 .0055389406 .13398743 .007537842 .10699463 .041778566 .15098572 .041778566 .15899658 .07078552 .15899658 .08778381 .15899658 .118774417 .1349945 .13378906 .11299133 .13378906 .09700012 .13378906 .066986087 .12478638 .066986087 .08578491 .066986087 .018615723 .12098694-.022460938 .20599365-.022460938 .33499146-.022460938 .45700074 .11378479 .45700074 .32881166 .45700074 .5979767 .34199525 .6660156 .25299073 .6660156 .19799805 .6660156 .14898682 .64801028 .10598755 .60298159 .06498718 .5579529 .041992189 .5159302 .041992189 .44088746 .041992189 .31581117 .12998963 .21777344 .24198914 .21777344 .30299378 .21777344 .34399415 .25978089 .36698915 .31781007M.24299622 .24076844C.22698975 .24076844 .18099976 .24076844 .1499939 .3038025 .13198853 .3408203 .13198853 .39085389 .13198853 .43988038 .13198853 .49391175 .13198853 .54093936 .15299988 .5779724 .17999268 .6279907 .21798706 .64100649 .25299073 .64100649 .29899598 .64100649 .33198548 .60697939 .34899903 .5619507 .36099244 .52993777 .36499024 .4669037 .36499024 .42086793 .36499024 .3378296 .33099366 .24076844 .24299622 .24076844Z"/>
<path id="font_1_2" d="M.2939911 .64004519C.2939911 .66400149 .2939911 .6660156 .2709961 .6660156 .20899964 .60227969 .12098694 .60227969 .08898926 .60227969V.57128909C.10899353 .57128909 .16799927 .57128909 .21998596 .5972748V.07902527C.21998596 .042999269 .21699524 .0309906 .1269989 .0309906H.09498596V0C.12998963 .0029907227 .21699524 .0029907227 .25698854 .0029907227 .29699708 .0029907227 .38398744 .0029907227 .4189911 0V.0309906H.3869934C.29699708 .0309906 .2939911 .041992189 .2939911 .07902527V.64004519Z"/>
<path id="font_1_3" d="M.1269989 .07699585 .23298645 .18003845C.3889923 .31811524 .44898988 .3721466 .44898988 .47216798 .44898988 .5860901 .35899354 .6660156 .23699951 .6660156 .12399292 .6660156 .049987794 .57411196 .049987794 .48516847 .049987794 .4291687 .099990848 .4291687 .102996829 .4291687 .11999512 .4291687 .15499878 .44117738 .15499878 .48217774 .15499878 .5081787 .13699341 .5341797 .101989749 .5341797 .09399414 .5341797 .09199524 .5341797 .08898926 .5331726 .11199951 .59806826 .1659851 .63500979 .22399903 .63500979 .31498719 .63500979 .35798646 .5541382 .35798646 .47216798 .35798646 .39215089 .30799867 .31311036 .25299073 .25108338L.06098938 .036987306C.049987794 .025985718 .049987794 .023986817 .049987794 0H.42099L.44898988 .17404175H.42399598C.4189911 .14402771 .4119873 .1000061 .4019928 .084991458 .394989 .07699585 .32899476 .07699585 .30699159 .07699585H.1269989Z"/>
<path id="font_1_6" d="M.44898988 .20022583C.44898988 .3193512 .36698915 .41944886 .25898744 .41944886 .21099854 .41944886 .16799927 .40345765 .13198853 .36842347V.5637665C.1519928 .5577698 .18499756 .55078127 .21699524 .55078127 .33999635 .55078127 .4099884 .6417694 .4099884 .6547699 .4099884 .6607666 .40699769 .6657715 .3999939 .6657715 .39898683 .6657715 .39698792 .6657715 .3919983 .66278079 .37199403 .6537781 .32299806 .6337738 .2559967 .6337738 .21598816 .6337738 .16999817 .6407776 .12298584 .6617737 .114990238 .66477969 .11299133 .66477969 .11099243 .66477969 .100997928 .66477969 .100997928 .6567688 .100997928 .6407776V.34439088C.100997928 .32637025 .100997928 .31835938 .114990238 .31835938 .12199402 .31835938 .12399292 .32136537 .12799073 .32736207 .13899231 .3433838 .17599488 .39746095 .25698854 .39746095 .30899049 .39746095 .33399964 .35139466 .34199525 .33337403 .35798646 .29632569 .3600006 .25727845 .3600006 .20722962 .3600006 .17222595 .3600006 .11222839 .33599855 .07035828 .31199647 .031463624 .2749939 .0055389406 .22898865 .0055389406 .1559906 .0055389406 .09899902 .058380128 .08198547 .11723328 .084991458 .1162262 .08799744 .115234378 .09899902 .115234378 .13198853 .115234378 .14898682 .14022827 .14898682 .16423035 .14898682 .18823242 .13198853 .21322632 .09899902 .21322632 .084991458 .21322632 .049987794 .20622254 .049987794 .16023255 .049987794 .07434082 .11898804-.022460938 .23098755-.022460938 .34700013-.022460938 .44898988 .073349 .44898988 .20022583Z"/>
<path id="font_1_9" d="M.16299439 .4569702C.116989139 .486969 .11299133 .52098086 .11299133 .5379791 .11299133 .598999 .17799378 .64100649 .24899292 .64100649 .32199098 .64100649 .38598634 .58898928 .38598634 .51698306 .38598634 .45996095 .34700013 .4119568 .2869873 .37695313L.16299439 .4569702M.30899049 .36193849C.3809967 .3989563 .42999269 .45095826 .42999269 .51698306 .42999269 .6090088 .34098817 .6660156 .25 .6660156 .1499939 .6660156 .068984989 .59199526 .068984989 .49897767 .068984989 .4809723 .070999149 .43595887 .11299133 .38894654 .12399292 .37695313 .16099549 .35194398 .18598938 .33494569 .12799073 .30592347 .041992189 .24984741 .041992189 .15072632 .041992189 .04458618 .14399719-.022460938 .24899292-.022460938 .3619995-.022460938 .45700074 .06060791 .45700074 .16773987 .45700074 .20379639 .44599916 .24885559 .4079895 .2909088 .3889923 .31193543 .37298585 .3219452 .30899049 .36193849M.20899964 .3199463 .33198548 .24183655C.3600006 .2228241 .40699769 .19277954 .40699769 .13169861 .40699769 .05760193 .33198548 .0055389406 .25 .0055389406 .1639862 .0055389406 .09199524 .067611698 .09199524 .15072632 .09199524 .20880127 .12399292 .27288819 .20899964 .3199463Z"/>
<path id="font_1_5" d="M.2939911 .16503906V.07800293C.2939911 .041992189 .2919922 .0309906 .21798706 .0309906H.19699097V0C.23799134 .0029907227 .2899933 .0029907227 .33198548 .0029907227 .37399293 .0029907227 .4269867 .0029907227 .46798707 0V.0309906H.44699098C.37298585 .0309906 .37098695 .041992189 .37098695 .07800293V.16503906H.47099305V.19602967H.37098695V.65075686C.37098695 .67074587 .37098695 .6767578 .35499574 .6767578 .34599305 .6767578 .34298707 .6767578 .33499146 .66474917L.027999878 .19602967V.16503906H.2939911M.2999878 .19602967H.055999757L.2999878 .5688019V.19602967Z"/>
<path id="font_1_8" d="M.47599793 .609375C.4850006 .6213684 .4850006 .62338259 .4850006 .64437869H.24198914C.11999512 .64437869 .117996219 .65737918 .11399841 .67637637H.08898926L.055999757 .4702301H.08099365C.083999637 .48625184 .09298706 .5493469 .10598755 .56137087 .11299133 .5673828 .19099427 .5673828 .20399475 .5673828H.41099549C.3999939 .5513611 .32099916 .4421997 .29899598 .40914918 .20899964 .27394105 .17599488 .1347351 .17599488 .032577516 .17599488 .022567749 .17599488-.022460938 .22200012-.022460938 .2679901-.022460938 .2679901 .022567749 .2679901 .032577516V.08366394C.2679901 .13873291 .2709961 .19381714 .2789917 .24790955 .2829895 .27093507 .29699708 .35707093 .34098817 .41915895L.47599793 .609375Z"/>
<path id="font_3_1" d="M.33299256-.25C.34098817-.25 .35299684-.25 .35299684-.23800659 .35299684-.23400879 .35198976-.23300171 .33898927-.22000122 .20199585-.09100342 .16799927 .09498596 .16799927 .25 .16799927 .5379944 .2869873 .6729889 .33799745 .71899417 .35198976 .7319946 .35299684 .73298647 .35299684 .73799136 .35299684 .7429962 .34899903 .75 .33898927 .75 .32299806 .75 .272995 .69898989 .2649994 .6899872 .1309967 .5499878 .102996829 .36999513 .102996829 .25 .102996829 .025985718 .19699097-.15400696 .33299256-.25Z"/>
<path id="font_3_4" d="M.25299073 .33370973C.33198548 .33370973 .38198854 .27557374 .38198854 .17037964 .38198854 .045440675 .31098939 .008514404 .2579956 .008514404 .20298767 .008514404 .12799073 .0284729 .09298706 .08137512 .1289978 .08137512 .1539917 .10437012 .1539917 .13737488 .1539917 .16937256 .1309967 .19238281 .09899902 .19238281 .07199097 .19238281 .04399109 .17536927 .04399109 .13537598 .04399109 .04045105 .1459961-.021484375 .2599945-.021484375 .3929901-.021484375 .48599244 .070388797 .48599244 .17037964 .48599244 .25352479 .41999818 .32969667 .31799317 .3517456 .39698792 .37982179 .45599366 .4479828 .45599366 .52804568 .45599366 .6080475 .3659973 .66503909 .2619934 .66503909 .15499878 .66503909 .07398987 .6070404 .07398987 .53105166 .07398987 .49404908 .09899902 .4780426 .125 .4780426 .1559906 .4780426 .17599488 .5000458 .17599488 .52905276 .17599488 .56604006 .14399719 .5800476 .12199402 .5810547 .1639862 .6360321 .24099732 .6390381 .25898744 .6390381 .2849884 .6390381 .36099244 .6310272 .36099244 .52804568 .36099244 .45799256 .33198548 .41589356 .31799317 .39985658 .28799439 .36878968 .2649994 .36679078 .20399475 .3627777 .18499756 .36177064 .1769867 .36076356 .1769867 .3477478 .1769867 .33370973 .18598938 .33370973 .20298767 .33370973H.25299073Z"/>
<path id="font_4_2" d="M.18699646 .01499939C.18699646-.050109865 .17298889-.10720825 .11099243-.16934204 .10699463-.17234802 .10499573-.17434693 .10499573-.17933655 .10499573-.18734741 .11299133-.19334412 .11999512-.19334412 .13198853-.19334412 .21499634-.114227298 .21499634 .0029907227 .21499634 .066986087 .19099427 .11099243 .14698792 .11099243 .11199951 .11099243 .09199524 .08299255 .09199524 .055999757 .09199524 .027999878 .11099243 0 .147995 0 .17199707 0 .18699646 .01399231 .18699646 .01499939Z"/>
<path id="font_4_1" d="M.28399659 .36465455H.39898683C.37799073 .2738037 .3600006 .19992066 .3600006 .1260376 .3600006 .11904907 .3600006 .0761261 .37098695 .04017639 .38398744-.0017700195 .3939972-.009765625 .4119873-.009765625 .43399049-.009765625 .45700074 .009231567 .45700074 .033187868 .45700074 .04017639 .45599366 .042175294 .45199586 .05116272 .43099977 .097091678 .41600038 .14500427 .41600038 .22688294 .41600038 .24984741 .41600038 .29177857 .43099977 .36465455H.5519867C.56799319 .36465455 .57899478 .36465455 .58898928 .37265016 .6009979 .38365174 .60398867 .39665223 .60398867 .40264894 .60398867 .43066407 .57899478 .43066407 .56199648 .43066407H.20098877C.17999268 .43066407 .14199829 .43066407 .09298706 .3826599 .056991579 .3466797 .0289917 .300766 .0289917 .29377748 .0289917 .28479005 .035995485 .28178407 .04399109 .28178407 .053985597 .28178407 .055999757 .28479005 .06199646 .2927704 .11099243 .36465455 .16999817 .36465455 .19299317 .36465455H.25099183C.22200012 .25883485 .16899109 .13801575 .13198853 .06513977 .125 .0501709 .114990238 .030197144 .114990238 .021209717 .114990238 .00022888184 .13198853-.009765625 .147995-.009765625 .18598938-.009765625 .19599915 .028198243 .21699524 .110061649L.28399659 .36465455Z"/>
<path id="font_3_2" d="M.30899049 .25C.30899049 .34500123 .29299928 .45899964 .23098755 .57699587 .18199158 .6689911 .09098816 .75 .07299805 .75 .06298828 .75 .05999756 .7429962 .05999756 .73799136 .05999756 .73399356 .05999756 .7319946 .07199097 .7200012 .21199036 .58699038 .24398804 .4039917 .24398804 .25 .24398804-.037002565 .125-.17300415 .07398987-.2190094 .06098938-.23200989 .05999756-.23300171 .05999756-.23800659 .05999756-.24301148 .06298828-.25 .07299805-.25 .08898926-.25 .13899231-.19900513 .14698792-.19000244 .2809906-.05000305 .30899049 .12998963 .30899049 .25Z"/>
<path id="font_5_1" d="M.69898989 .22743225C.71499636 .22743225 .7369995 .22743225 .7369995 .25042726 .7369995 .2734375 .71499636 .2734375 .69898989 .2734375H.12599182C.10998535 .2734375 .08799744 .2734375 .08799744 .25042726 .08799744 .22743225 .10998535 .22743225 .12599182 .22743225H.69898989Z"/>
<path id="font_3_3" d="M.28199769 .20405579C.2979889 .21907044 .33999635 .2520752 .35598756 .26608277 .41799928 .32312013 .47698976 .3781433 .47698976 .46917726 .47698976 .588089 .3769989 .66503909 .2519989 .66503909 .13198853 .66503909 .052993776 .57411196 .052993776 .48516847 .052993776 .4361725 .09199524 .4291687 .10598755 .4291687 .1269989 .4291687 .1579895 .4441681 .1579895 .48217774 .1579895 .5341797 .10798645 .5341797 .09599304 .5341797 .125 .6070709 .19198609 .6320343 .24099732 .6320343 .33399964 .6320343 .38198854 .55314639 .38198854 .46917726 .38198854 .36514283 .30899049 .28910829 .19099427 .16804505L.06498718 .037994386C.052993776 .026992798 .052993776 .024993897 .052993776 0H.44799806L.47698976 .17904663H.44599916C.44299317 .1590271 .43499757 .10900879 .4229889 .08999634 .4169922 .08198547 .34098817 .08198547 .32499696 .08198547H.14698792L.28199769 .20405579Z"/>
<path id="font_4_3" d="M.46499635 .70799258C.47099305 .7220001 .47099305 .723999 .47099305 .72698977 .47099305 .73999026 .46099855 .75 .44799806 .75 .43199159 .75 .42799378 .73799136 .42399598 .7279968L.06498718-.20800781C.05899048-.22200012 .05899048-.22401428 .05899048-.227005 .05899048-.2400055 .068984989-.25 .08198547-.25 .09799194-.25 .101989749-.23800659 .10598755-.22801209L.46499635 .70799258Z"/>
<path id="font_3_5" d="M.3939972 .6468048C.3939972 .6667938 .3939972 .6748047 .37298585 .6748047 .3600006 .6748047 .35899354 .6737976 .34899903 .65979006L.02999878 .197052V.1640625H.31199647V.08100891C.31199647 .04399109 .30899049 .032989503 .23199463 .032989503H.20899964V0C.2939911 .0029907227 .29599 .0029907227 .35299684 .0029907227 .4099884 .0029907227 .4119873 .0029907227 .49699403 0V.032989503H.47399903C.39698792 .032989503 .3939972 .04399109 .3939972 .08100891V.1640625H.5V.197052H.3939972V.6468048M.31900025 .5658417V.197052H.06498718L.31900025 .5658417Z"/>
<path id="font_3_6" d="M.13999939 .5618439C.15299988 .55784609 .19299317 .54785159 .23498535 .54785159 .3600006 .54785159 .43598939 .6358948 .43598939 .6510315 .43598939 .6620331 .42900086 .66503909 .42399598 .66503909 .42199708 .66503909 .41999818 .66503909 .41099549 .6600342 .37199403 .6450348 .32598878 .632843 .27198792 .632843 .21299744 .632843 .1639862 .6480255 .1329956 .6600342 .12298584 .66503909 .12098694 .66503909 .11999512 .66503909 .10699463 .66503909 .10699463 .6540375 .10699463 .6358948V.34292604C.10699463 .32492066 .10699463 .312912 .12298584 .312912 .1309967 .312912 .13398743 .3169098 .13899231 .32492066 .15098572 .33992005 .18899536 .39093019 .27398683 .39093019 .32998658 .39093019 .35699464 .34492494 .3659973 .32591249 .3829956 .28990174 .3849945 .24389649 .3849945 .20487976 .3849945 .1678772 .38398744 .11387634 .35598756 .069732669 .33699037 .039611818 .29699708 .008514404 .24398804 .008514404 .1789856 .008514404 .114990238 .0496521 .09199524 .11488342 .09498596 .11387634 .100997928 .11387634 .101989749 .11387634 .12998963 .11387634 .1519928 .13188172 .1519928 .16288758 .1519928 .19989014 .12298584 .21289063 .102996829 .21289063 .084991458 .21289063 .052993776 .20288086 .052993776 .15988159 .052993776 .069732669 .1309967-.021484375 .24598694-.021484375 .37098695-.021484375 .47698976 .07574463 .47698976 .19989014 .47698976 .31591798 .3929901 .4189453 .2749939 .4189453 .22499085 .4189453 .17799378 .40293885 .13999939 .368927V.5618439Z"/>
</defs>
<path transform="matrix(1,0,0,-1.00003,108.62601,104.00073)" stroke-width=".79701" stroke-linecap="butt" stroke-miterlimit="10" stroke-linejoin="miter" fill="none" stroke="#cccccc" d="M0 0H90.1438"/>
<path transform="matrix(1,0,0,-1.00003,108.62601,104.00073)" stroke-width=".79701" stroke-linecap="butt" stroke-miterlimit="10" stroke-linejoin="miter" fill="none" stroke="#cccccc" d="M0 0 78.06679 45.07176"/>
<path transform="matrix(1,0,0,-1.00003,108.62601,104.00073)" stroke-width=".79701" stroke-linecap="butt" stroke-miterlimit="10" stroke-linejoin="miter" fill="none" stroke="#cccccc" d="M0 0 45.07176 78.06679"/>
<path transform="matrix(1,0,0,-1.00003,108.62601,104.00073)" stroke-width=".79701" stroke-linecap="butt" stroke-miterlimit="10" stroke-linejoin="miter" fill="none" stroke="#cccccc" d="M0 0V90.1438"/>
<path transform="matrix(1,0,0,-1.00003,108.62601,104.00073)" stroke-width=".79701" stroke-linecap="butt" stroke-miterlimit="10" stroke-linejoin="miter" fill="none" stroke="#cccccc" d="M0 0-45.07176 78.06679"/>
<path transform="matrix(1,0,0,-1.00003,108.62601,104.00073)" stroke-width=".79701" stroke-linecap="butt" stroke-miterlimit="10" stroke-linejoin="miter" fill="none" stroke="#cccccc" d="M0 0-78.06679 45.07176"/>
<path transform="matrix(1,0,0,-1.00003,108.62601,104.00073)" stroke-width=".79701" stroke-linecap="butt" stroke-miterlimit="10" stroke-linejoin="miter" fill="none" stroke="#cccccc" d="M0 0H-90.1438"/>
<path transform="matrix(1,0,0,-1.00003,108.62601,104.00073)" stroke-width=".79701" stroke-linecap="butt" stroke-miterlimit="10" stroke-linejoin="miter" fill="none" stroke="#cccccc" d="M0 0-78.06679-45.07176"/>
<path transform="matrix(1,0,0,-1.00003,108.62601,104.00073)" stroke-width=".79701" stroke-linecap="butt" stroke-miterlimit="10" stroke-linejoin="miter" fill="none" stroke="#cccccc" d="M0 0-45.07176-78.06679"/>
<path transform="matrix(1,0,0,-1.00003,108.62601,104.00073)" stroke-width=".79701" stroke-linecap="butt" stroke-miterlimit="10" stroke-linejoin="miter" fill="none" stroke="#cccccc" d="M0 0V-90.1438"/>
<path transform="matrix(1,0,0,-1.00003,108.62601,104.00073)" stroke-width=".79701" stroke-linecap="butt" stroke-miterlimit="10" stroke-linejoin="miter" fill="none" stroke="#cccccc" d="M0 0 45.07176-78.06679"/>
<path transform="matrix(1,0,0,-1.00003,108.62601,104.00073)" stroke-width=".79701" stroke-linecap="butt" stroke-miterlimit="10" stroke-linejoin="miter" fill="none" stroke="#cccccc" d="M0 0 78.06679-45.07176"/>
<path transform="matrix(1,0,0,-1.00003,108.62601,104.00073)" stroke-width=".79701" stroke-linecap="butt" stroke-miterlimit="10" stroke-linejoin="miter" fill="none" stroke="#cccccc" d="M0 0H90.1438"/>
<path transform="matrix(1,0,0,-1.00003,108.62601,104.00073)" stroke-width=".3985" stroke-linecap="butt" stroke-miterlimit="10" stroke-linejoin="miter" fill="none" stroke="#000000" d="M98.64792 0"/>
<use data-text="0" xlink:href="#font_1_1" transform="matrix(9.9626,0,0,-9.962899,202.49301,107.43083)"/>
<use data-text="&#x25e6;" xlink:href="#font_2_1" transform="matrix(6.9738,0,0,-6.9740097,207.474,103.81473)"/>
<path transform="matrix(1,0,0,-1.00003,108.62601,104.00073)" stroke-width=".3985" stroke-linecap="butt" stroke-miterlimit="10" stroke-linejoin="miter" fill="none" stroke="#000000" d="M85.4316 49.32384"/>
<use data-text="3" xlink:href="#font_1_4" transform="matrix(9.9626,0,0,-9.962899,186.78601,58.105356)"/>
<use data-text="0" xlink:href="#font_1_1" transform="matrix(9.9626,0,0,-9.962899,191.7673,58.105356)"/>
<use data-text="&#x25e6;" xlink:href="#font_2_1" transform="matrix(6.9738,0,0,-6.9740097,196.74901,54.48925)"/>
<path transform="matrix(1,0,0,-1.00003,108.62601,104.00073)" stroke-width=".3985" stroke-linecap="butt" stroke-miterlimit="10" stroke-linejoin="miter" fill="none" stroke="#000000" d="M49.32384 85.4316"/>
<use data-text="6" xlink:href="#font_1_7" transform="matrix(9.9626,0,0,-9.962899,150.67801,21.997269)"/>
<use data-text="0" xlink:href="#font_1_1" transform="matrix(9.9626,0,0,-9.962899,155.6593,21.997269)"/>
<use data-text="&#x25e6;" xlink:href="#font_2_1" transform="matrix(6.9738,0,0,-6.9740097,160.641,18.381165)"/>
<path transform="matrix(1,0,0,-1.00003,108.62601,104.00073)" stroke-width=".3985" stroke-linecap="butt" stroke-miterlimit="10" stroke-linejoin="miter" fill="none" stroke="#000000" d="M0 98.64792"/>
<use data-text="9" xlink:href="#font_1_10" transform="matrix(9.9626,0,0,-9.962899,101.35501,8.779869)"/>
<use data-text="0" xlink:href="#font_1_1" transform="matrix(9.9626,0,0,-9.962899,106.3363,8.779869)"/>
<use data-text="&#x25e6;" xlink:href="#font_2_1" transform="matrix(6.9738,0,0,-6.9740097,111.31801,5.163765)"/>
<path transform="matrix(1,0,0,-1.00003,108.62601,104.00073)" stroke-width=".3985" stroke-linecap="butt" stroke-miterlimit="10" stroke-linejoin="miter" fill="none" stroke="#000000" d="M-49.32384 85.4316"/>
<use data-text="1" xlink:href="#font_1_2" transform="matrix(9.9626,0,0,-9.962899,49.54001,21.997269)"/>
<use data-text="2" xlink:href="#font_1_3" transform="matrix(9.9626,0,0,-9.962899,54.5213,21.997269)"/>
<use data-text="0" xlink:href="#font_1_1" transform="matrix(9.9626,0,0,-9.962899,59.502595,21.997269)"/>
<use data-text="&#x25e6;" xlink:href="#font_2_1" transform="matrix(6.9738,0,0,-6.9740097,64.48401,18.381165)"/>
<path transform="matrix(1,0,0,-1.00003,108.62601,104.00073)" stroke-width=".3985" stroke-linecap="butt" stroke-miterlimit="10" stroke-linejoin="miter" fill="none" stroke="#000000" d="M-85.4316 49.32384"/>
<use data-text="1" xlink:href="#font_1_2" transform="matrix(9.9626,0,0,-9.962899,13.432007,58.105356)"/>
<use data-text="5" xlink:href="#font_1_6" transform="matrix(9.9626,0,0,-9.962899,18.4133,58.105356)"/>
<use data-text="0" xlink:href="#font_1_1" transform="matrix(9.9626,0,0,-9.962899,23.394593,58.105356)"/>
<use data-text="&#x25e6;" xlink:href="#font_2_1" transform="matrix(6.9738,0,0,-6.9740097,28.376008,54.48925)"/>
<path transform="matrix(1,0,0,-1.00003,108.62601,104.00073)" stroke-width=".3985" stroke-linecap="butt" stroke-miterlimit="10" stroke-linejoin="miter" fill="none" stroke="#000000" d="M-98.64792 0"/>
<use data-text="1" xlink:href="#font_1_2" transform="matrix(9.9626,0,0,-9.962899,.21600342,107.43083)"/>
<use data-text="8" xlink:href="#font_1_9" transform="matrix(9.9626,0,0,-9.962899,5.197296,107.43083)"/>
<use data-text="0" xlink:href="#font_1_1" transform="matrix(9.9626,0,0,-9.962899,10.178589,107.43083)"/>
<use data-text="&#x25e6;" xlink:href="#font_2_1" transform="matrix(6.9738,0,0,-6.9740097,15.160004,103.81473)"/>
<path transform="matrix(1,0,0,-1.00003,108.62601,104.00073)" stroke-width=".3985" stroke-linecap="butt" stroke-miterlimit="10" stroke-linejoin="miter" fill="none" stroke="#000000" d="M-85.4316-49.32384"/>
<use data-text="2" xlink:href="#font_1_3" transform="matrix(9.9626,0,0,-9.962899,13.432007,156.75632)"/>
<use data-text="1" xlink:href="#font_1_2" transform="matrix(9.9626,0,0,-9.962899,18.4133,156.75632)"/>
<use data-text="0" xlink:href="#font_1_1" transform="matrix(9.9626,0,0,-9.962899,23.394593,156.75632)"/>
<use data-text="&#x25e6;" xlink:href="#font_2_1" transform="matrix(6.9738,0,0,-6.9740097,28.376008,153.14022)"/>
<path transform="matrix(1,0,0,-1.00003,108.62601,104.00073)" stroke-width=".3985" stroke-linecap="butt" stroke-miterlimit="10" stroke-linejoin="miter" fill="none" stroke="#000000" d="M-49.32384-85.4316"/>
<use data-text="2" xlink:href="#font_1_3" transform="matrix(9.9626,0,0,-9.962899,49.54001,192.8654)"/>
<use data-text="4" xlink:href="#font_1_5" transform="matrix(9.9626,0,0,-9.962899,54.5213,192.8654)"/>
<use data-text="0" xlink:href="#font_1_1" transform="matrix(9.9626,0,0,-9.962899,59.502595,192.8654)"/>
<use data-text="&#x25e6;" xlink:href="#font_2_1" transform="matrix(6.9738,0,0,-6.9740097,64.48401,189.2493)"/>
<path transform="matrix(1,0,0,-1.00003,108.62601,104.00073)" stroke-width=".3985" stroke-linecap="butt" stroke-miterlimit="10" stroke-linejoin="miter" fill="none" stroke="#000000" d="M0-98.64792"/>
<use data-text="2" xlink:href="#font_1_3" transform="matrix(9.9626,0,0,-9.962899,98.864009,206.0818)"/>
<use data-text="7" xlink:href="#font_1_8" transform="matrix(9.9626,0,0,-9.962899,103.8453,206.0818)"/>
<use data-text="0" xlink:href="#font_1_1" transform="matrix(9.9626,0,0,-9.962899,108.82659,206.0818)"/>
<use data-text="&#x25e6;" xlink:href="#font_2_1" transform="matrix(6.9738,0,0,-6.9740097,113.80801,202.4657)"/>
<path transform="matrix(1,0,0,-1.00003,108.62601,104.00073)" stroke-width=".3985" stroke-linecap="butt" stroke-miterlimit="10" stroke-linejoin="miter" fill="none" stroke="#000000" d="M49.32384-85.4316"/>
<use data-text="3" xlink:href="#font_1_4" transform="matrix(9.9626,0,0,-9.962899,148.188,192.8654)"/>
<use data-text="0" xlink:href="#font_1_1" transform="matrix(9.9626,0,0,-9.962899,153.1693,192.8654)"/>
<use data-text="0" xlink:href="#font_1_1" transform="matrix(9.9626,0,0,-9.962899,158.15059,192.8654)"/>
<use data-text="&#x25e6;" xlink:href="#font_2_1" transform="matrix(6.9738,0,0,-6.9740097,163.132,189.2493)"/>
<path transform="matrix(1,0,0,-1.00003,108.62601,104.00073)" stroke-width=".3985" stroke-linecap="butt" stroke-miterlimit="10" stroke-linejoin="miter" fill="none" stroke="#000000" d="M85.4316-49.32384"/>
<use data-text="3" xlink:href="#font_1_4" transform="matrix(9.9626,0,0,-9.962899,184.29502,156.75632)"/>
<use data-text="3" xlink:href="#font_1_4" transform="matrix(9.9626,0,0,-9.962899,189.2763,156.75632)"/>
<use data-text="0" xlink:href="#font_1_1" transform="matrix(9.9626,0,0,-9.962899,194.2576,156.75632)"/>
<use data-text="&#x25e6;" xlink:href="#font_2_1" transform="matrix(6.9738,0,0,-6.9740097,199.23902,153.14022)"/>
<path transform="matrix(1,0,0,-1.00003,108.62601,104.00073)" stroke-width=".79701" stroke-linecap="butt" stroke-miterlimit="10" stroke-linejoin="miter" fill="none" stroke="#cccccc" d="M0 0 63.74124 63.74124"/>
<path transform="matrix(1,0,0,-1.00003,108.62601,104.00073)" stroke-width=".79701" stroke-linecap="butt" stroke-miterlimit="10" stroke-linejoin="miter" fill="none" stroke="#cccccc" d="M0 0-63.74124 63.74124"/>
<path transform="matrix(1,0,0,-1.00003,108.62601,104.00073)" stroke-width=".79701" stroke-linecap="butt" stroke-miterlimit="10" stroke-linejoin="miter" fill="none" stroke="#cccccc" d="M0 0-63.74124-63.74124"/>
<path transform="matrix(1,0,0,-1.00003,108.62601,104.00073)" stroke-width=".79701" stroke-linecap="butt" stroke-miterlimit="10" stroke-linejoin="miter" fill="none" stroke="#cccccc" d="M0 0 63.74124-63.74124"/>
<path transform="matrix(1,0,0,-1.00003,108.62601,104.00073)" stroke-width=".3985" stroke-linecap="butt" stroke-miterlimit="10" stroke-linejoin="miter" fill="none" stroke="#000000" d="M69.75446 69.75446"/>
<use data-text="4" xlink:href="#font_1_5" transform="matrix(9.9626,0,0,-9.962899,171.10901,37.674745)"/>
<use data-text="5" xlink:href="#font_1_6" transform="matrix(9.9626,0,0,-9.962899,176.0903,37.674745)"/>
<use data-text="&#x25e6;" xlink:href="#font_2_1" transform="matrix(6.9738,0,0,-6.9740097,181.072,34.05864)"/>
<path transform="matrix(1,0,0,-1.00003,108.62601,104.00073)" stroke-width=".3985" stroke-linecap="butt" stroke-miterlimit="10" stroke-linejoin="miter" fill="none" stroke="#000000" d="M-69.75446 69.75446"/>
<use data-text="1" xlink:href="#font_1_2" transform="matrix(9.9626,0,0,-9.962899,29.109009,37.674745)"/>
<use data-text="3" xlink:href="#font_1_4" transform="matrix(9.9626,0,0,-9.962899,34.0903,37.674745)"/>
<use data-text="5" xlink:href="#font_1_6" transform="matrix(9.9626,0,0,-9.962899,39.071596,37.674745)"/>
<use data-text="&#x25e6;" xlink:href="#font_2_1" transform="matrix(6.9738,0,0,-6.9740097,44.05301,34.05864)"/>
<path transform="matrix(1,0,0,-1.00003,108.62601,104.00073)" stroke-width=".3985" stroke-linecap="butt" stroke-miterlimit="10" stroke-linejoin="miter" fill="none" stroke="#000000" d="M-69.75446-69.75446"/>
<use data-text="2" xlink:href="#font_1_3" transform="matrix(9.9626,0,0,-9.962899,29.109009,177.18793)"/>
<use data-text="2" xlink:href="#font_1_3" transform="matrix(9.9626,0,0,-9.962899,34.0903,177.18793)"/>
<use data-text="5" xlink:href="#font_1_6" transform="matrix(9.9626,0,0,-9.962899,39.071596,177.18793)"/>
<use data-text="&#x25e6;" xlink:href="#font_2_1" transform="matrix(6.9738,0,0,-6.9740097,44.05301,173.57183)"/>
<path transform="matrix(1,0,0,-1.00003,108.62601,104.00073)" stroke-width=".3985" stroke-linecap="butt" stroke-miterlimit="10" stroke-linejoin="miter" fill="none" stroke="#000000" d="M69.75446-69.75446"/>
<use data-text="3" xlink:href="#font_1_4" transform="matrix(9.9626,0,0,-9.962899,168.61801,177.18793)"/>
<use data-text="1" xlink:href="#font_1_2" transform="matrix(9.9626,0,0,-9.962899,173.5993,177.18793)"/>
<use data-text="5" xlink:href="#font_1_6" transform="matrix(9.9626,0,0,-9.962899,178.5806,177.18793)"/>
<use data-text="&#x25e6;" xlink:href="#font_2_1" transform="matrix(6.9738,0,0,-6.9740097,183.56201,173.57183)"/>
<path transform="matrix(1,0,0,-1.00003,108.62601,104.00073)" stroke-width=".79701" stroke-linecap="butt" stroke-miterlimit="10" stroke-linejoin="miter" fill="none" stroke="#cccccc" d="M17.00824 0C17.00824 9.39351 9.39351 17.00824 0 17.00824-9.39351 17.00824-17.00824 9.39351-17.00824 0-17.00824-9.39351-9.39351-17.00824 0-17.00824 9.39351-17.00824 17.00824-9.39351 17.00824 0ZM0 0"/>
<path transform="matrix(1,0,0,-1.00003,108.62601,104.00073)" stroke-width=".79701" stroke-linecap="butt" stroke-miterlimit="10" stroke-linejoin="miter" fill="none" stroke="#cccccc" d="M34.0165 0C34.0165 18.78702 18.78702 34.0165 0 34.0165-18.78702 34.0165-34.0165 18.78702-34.0165 0-34.0165-18.78702-18.78702-34.0165 0-34.0165 18.78702-34.0165 34.0165-18.78702 34.0165 0ZM0 0"/>
<path transform="matrix(1,0,0,-1.00003,108.62601,104.00073)" stroke-width=".79701" stroke-linecap="butt" stroke-miterlimit="10" stroke-linejoin="miter" fill="none" stroke="#cccccc" d="M51.02477 0C51.02477 28.18056 28.18056 51.02477 0 51.02477-28.18056 51.02477-51.02477 28.18056-51.02477 0-51.02477-28.18056-28.18056-51.02477 0-51.02477 28.18056-51.02477 51.02477-28.18056 51.02477 0ZM0 0"/>
<path transform="matrix(1,0,0,-1.00003,108.62601,104.00073)" stroke-width=".79701" stroke-linecap="butt" stroke-miterlimit="10" stroke-linejoin="miter" fill="none" stroke="#cccccc" d="M68.03302 0C68.03302 37.57407 37.57407 68.03302 0 68.03302-37.57407 68.03302-68.03302 37.57407-68.03302 0-68.03302-37.57407-37.57407-68.03302 0-68.03302 37.57407-68.03302 68.03302-37.57407 68.03302 0ZM0 0"/>
<path transform="matrix(1,0,0,-1.00003,108.62601,104.00073)" stroke-width=".79701" stroke-linecap="butt" stroke-miterlimit="10" stroke-linejoin="miter" fill="none" stroke="#cccccc" d="M85.04128 0C85.04128 46.9676 46.9676 85.04128 0 85.04128-46.9676 85.04128-85.04128 46.9676-85.04128 0-85.04128-46.9676-46.9676-85.04128 0-85.04128 46.9676-85.04128 85.04128-46.9676 85.04128 0ZM0 0"/>
<path transform="matrix(1,0,0,-1.00003,108.62601,104.00073)" stroke-width=".3985" stroke-linecap="butt" stroke-miterlimit="10" stroke-linejoin="miter" fill="none" stroke="#000000" d="M0 0"/>
<use data-text="0" xlink:href="#font_1_1" transform="matrix(9.9626,0,0,-9.962899,112.146,113.94103)"/>
<path transform="matrix(1,0,0,-1.00003,108.62601,104.00073)" stroke-width=".3985" stroke-linecap="butt" stroke-miterlimit="10" stroke-linejoin="miter" fill="none" stroke="#000000" d="M17.00824 0"/>
<use data-text="1" xlink:href="#font_1_2" transform="matrix(9.9626,0,0,-9.962899,129.154,113.94103)"/>
<path transform="matrix(1,0,0,-1.00003,108.62601,104.00073)" stroke-width=".3985" stroke-linecap="butt" stroke-miterlimit="10" stroke-linejoin="miter" fill="none" stroke="#000000" d="M34.0165 0"/>
<use data-text="2" xlink:href="#font_1_3" transform="matrix(9.9626,0,0,-9.962899,146.162,113.94103)"/>
<path transform="matrix(1,0,0,-1.00003,108.62601,104.00073)" stroke-width=".3985" stroke-linecap="butt" stroke-miterlimit="10" stroke-linejoin="miter" fill="none" stroke="#000000" d="M51.02477 0"/>
<use data-text="3" xlink:href="#font_1_4" transform="matrix(9.9626,0,0,-9.962899,163.171,113.94103)"/>
<path transform="matrix(1,0,0,-1.00003,108.62601,104.00073)" stroke-width=".3985" stroke-linecap="butt" stroke-miterlimit="10" stroke-linejoin="miter" fill="none" stroke="#000000" d="M68.03302 0"/>
<use data-text="4" xlink:href="#font_1_5" transform="matrix(9.9626,0,0,-9.962899,180.17902,113.94103)"/>
<path transform="matrix(1,0,0,-1.00003,108.62601,104.00073)" stroke-width=".3985" stroke-linecap="butt" stroke-miterlimit="10" stroke-linejoin="miter" fill="none" stroke="#000000" d="M85.04128 0"/>
<use data-text="5" xlink:href="#font_1_6" transform="matrix(9.9626,0,0,-9.962899,197.18701,113.94103)"/>
<path transform="matrix(1,0,0,-1.00003,108.62601,104.00073)" d="M1.19554 0C1.19554 .66028 .66028 1.19554 0 1.19554-.66028 1.19554-1.19554 .66028-1.19554 0-1.19554-.66028-.66028-1.19554 0-1.19554 .66028-1.19554 1.19554-.66028 1.19554 0ZM0 0"/>
<path transform="matrix(1,0,0,-1.00003,108.62601,104.00073)" d="M18.20378 0C18.20378 .66028 17.66852 1.19554 17.00824 1.19554 16.34796 1.19554 15.8127 .66028 15.8127 0 15.8127-.66028 16.34796-1.19554 17.00824-1.19554 17.66852-1.19554 18.20378-.66028 18.20378 0ZM17.00824 0"/>
<path transform="matrix(1,0,0,-1.00003,108.62601,104.00073)" d="M35.21205 0C35.21205 .66028 34.67679 1.19554 34.0165 1.19554 33.35622 1.19554 32.82095 .66028 32.82095 0 32.82095-.66028 33.35622-1.19554 34.0165-1.19554 34.67679-1.19554 35.21205-.66028 35.21205 0ZM34.0165 0"/>
<path transform="matrix(1,0,0,-1.00003,108.62601,104.00073)" d="M52.2203 0C52.2203 .66028 51.68504 1.19554 51.02477 1.19554 50.36449 1.19554 49.82922 .66028 49.82922 0 49.82922-.66028 50.36449-1.19554 51.02477-1.19554 51.68504-1.19554 52.2203-.66028 52.2203 0ZM51.02477 0"/>
<path transform="matrix(1,0,0,-1.00003,108.62601,104.00073)" d="M69.22858 0C69.22858 .66028 68.69331 1.19554 68.03302 1.19554 67.37274 1.19554 66.83748 .66028 66.83748 0 66.83748-.66028 67.37274-1.19554 68.03302-1.19554 68.69331-1.19554 69.22858-.66028 69.22858 0ZM68.03302 0"/>
<path transform="matrix(1,0,0,-1.00003,108.62601,104.00073)" d="M86.23682 0C86.23682 .66028 85.70155 1.19554 85.04128 1.19554 84.381 1.19554 83.84573 .66028 83.84573 0 83.84573-.66028 84.381-1.19554 85.04128-1.19554 85.70155-1.19554 86.23682-.66028 86.23682 0ZM85.04128 0"/>
<path transform="matrix(1,0,0,-1.00003,108.62601,104.00073)" stroke-width=".79701" stroke-linecap="butt" stroke-miterlimit="10" stroke-linejoin="miter" fill="none" stroke="#000000" d="M-89.43643 0H89.43643"/>
<path transform="matrix(-1,-0,0,1.00003,19.189576,104.00073)" stroke-width=".6376" stroke-linecap="round" stroke-linejoin="round" fill="none" stroke="#000000" d="M-1.55415 2.0722C-1.42464 1.29512 0 .1295 .38852 0 0-.1295-1.42464-1.29512-1.55415-2.0722"/>
<path transform="matrix(1,0,0,-1.00003,198.06244,104.00073)" stroke-width=".6376" stroke-linecap="round" stroke-linejoin="round" fill="none" stroke="#000000" d="M-1.55415 2.0722C-1.42464 1.29512 0 .1295 .38852 0 0-.1295-1.42464-1.29512-1.55415-2.0722"/>
<path transform="matrix(1,0,0,-1.00003,108.62601,104.00073)" d="M-49.23145 0C-49.23145 .99042-50.03433 1.7933-51.02477 1.7933-52.01518 1.7933-52.81808 .99042-52.81808 0-52.81808-.99042-52.01518-1.7933-51.02477-1.7933-50.03433-1.7933-49.23145-.99042-49.23145 0ZM-51.02477 0" fill="#0000ff"/>
<path transform="matrix(1,0,0,-1.00003,108.62601,104.00073)" d="M-77.59863 2.1918H-51.224035V16.803139H-77.59863Z" fill="#ffffff"/>
<use data-text="(" xlink:href="#font_3_1" transform="matrix(7.9701,0,0,-7.9703395,34.348009,96.49551)"/>
<use data-text="3" xlink:href="#font_3_4" transform="matrix(7.9701,0,0,-7.9703395,37.639665,96.49551)"/>
<use data-text="," xlink:href="#font_4_2" transform="matrix(7.9701,0,0,-7.9703395,41.875,96.49551)"/>
<use data-text="&#x03c0;" xlink:href="#font_4_1" transform="matrix(7.9701,0,0,-7.9703395,45.636888,96.49551)"/>
<use data-text=")" xlink:href="#font_3_2" transform="matrix(7.9701,0,0,-7.9703395,50.787996,96.49551)"/>
<path transform="matrix(1,0,0,-1.00003,108.62601,104.00073)" d="M-22.26001-24.05333C-22.26001-23.0629-23.0629-22.26001-24.05333-22.26001-25.04375-22.26001-25.84663-23.0629-25.84663-24.05333-25.84663-25.04375-25.04375-25.84663-24.05333-25.84663-23.0629-25.84663-22.26001-25.04375-22.26001-24.05333ZM-24.05333-24.05333" fill="#0000ff"/>
<path transform="matrix(1,0,0,-1.00003,108.62601,104.00073)" d="M-62.86813-40.85648H14.761494V-26.24514H-62.86813Z" fill="#ffffff"/>
<use data-text="(" xlink:href="#font_3_1" transform="matrix(7.9701,0,0,-7.9703395,49.078004,139.5448)"/>
<use data-text="&#x2212;" xlink:href="#font_5_1" transform="matrix(7.9701,0,0,-7.9703395,52.371004,139.5448)"/>
<use data-text="2" xlink:href="#font_3_3" transform="matrix(7.9701,0,0,-7.9703395,58.958009,139.5448)"/>
<use data-text="," xlink:href="#font_4_2" transform="matrix(7.9701,0,0,-7.9703395,63.192,139.5448)"/>
<use data-text="&#x03c0;" xlink:href="#font_4_1" transform="matrix(7.9701,0,0,-7.9703395,66.95389,139.5448)"/>
<use data-text="/" xlink:href="#font_4_3" transform="matrix(7.9701,0,0,-7.9703395,72.09459,139.5448)"/>
<use data-text="4" xlink:href="#font_3_5" transform="matrix(7.9701,0,0,-7.9703395,76.339008,139.5448)"/>
<use data-text=")" xlink:href="#font_3_2" transform="matrix(7.9701,0,0,-7.9703395,80.57112,139.5448)"/>
<use data-text="," xlink:href="#font_4_2" transform="matrix(7.9701,0,0,-7.9703395,83.866,139.5448)"/>
<use data-text="(" xlink:href="#font_3_1" transform="matrix(7.9701,0,0,-7.9703395,87.630008,139.5448)"/>
<use data-text="2" xlink:href="#font_3_3" transform="matrix(7.9701,0,0,-7.9703395,90.92166,139.5448)"/>
<use data-text="," xlink:href="#font_4_2" transform="matrix(7.9701,0,0,-7.9703395,95.157,139.5448)"/>
<use data-text="5" xlink:href="#font_3_6" transform="matrix(7.9701,0,0,-7.9703395,98.92099,139.5448)"/>
<use data-text="&#x03c0;" xlink:href="#font_4_1" transform="matrix(7.9701,0,0,-7.9703395,103.15498,139.5448)"/>
<use data-text="/" xlink:href="#font_4_3" transform="matrix(7.9701,0,0,-7.9703395,108.295688,139.5448)"/>
<use data-text="4" xlink:href="#font_3_5" transform="matrix(7.9701,0,0,-7.9703395,112.537998,139.5448)"/>
<use data-text=")" xlink:href="#font_3_2" transform="matrix(7.9701,0,0,-7.9703395,116.77011,139.5448)"/>
</svg>
