<svg xmlns="http://www.w3.org/2000/svg" xmlns:xlink="http://www.w3.org/1999/xlink" version="1.1" width="132" height="166" viewBox="0 0 132 166">
<defs>
<path id="font_1_1" d="M.31098939 .36265565H.42999269C.4149933 .30274964 .3929901 .2118988 .3929901 .13302613 .3929901 .09309387 .397995 .06613159 .4039917 .044174196 .41999818-.0057678224 .43299867-.009765625 .44898988-.009765625 .47200013-.009765625 .49598695 .011230469 .49598695 .035186769 .49598695 .043182374 .49398805 .047164918 .48799134 .057159425 .46899415 .09408569 .45098878 .15100098 .45098878 .23286438 .45098878 .25183106 .45098878 .29177857 .46499635 .36265565H.58999636C.60798647 .36265565 .6159973 .36265565 .6269989 .37065126 .6409912 .380661 .6439972 .39665223 .6439972 .4016571 .6439972 .43066407 .6179962 .43066407 .6009979 .43066407H.22399903C.18299866 .43066407 .15499878 .42166139 .10998535 .37965394 .083999637 .35665895 .04499817 .30274964 .04499817 .2937622 .04499817 .28178407 .057998659 .28178407 .06199646 .28178407 .07299805 .28178407 .07398987 .28378297 .07998657 .2927704 .1309967 .36265565 .19299317 .36265565 .21499634 .36265565H.27598573C.24499512 .25283814 .19099427 .13502503 .16099549 .07511902 .15499878 .062149049 .14498902 .04118347 .14199829 .03718567 .14099121 .033187868 .13899231 .029190064 .13899231 .022201539 .13899231 .006225586 .15098572-.009765625 .17399597-.009765625 .21398926-.009765625 .22499085 .035186769 .24899292 .12504578L.31098939 .36265565Z"/>
<path id="font_2_1" d="M.5049896 .18203736H.47099305C.46798707 .16001892 .45799256 .100997928 .44499208 .09098816 .43699647 .084991458 .3600006 .084991458 .34599305 .084991458H.1619873C.2669983 .17803955 .3019867 .20603943 .3619995 .25306703 .43598939 .312088 .5049896 .374115 .5049896 .46914674 .5049896 .5900879 .39898683 .6640625 .2709961 .6640625 .14698792 .6640625 .06298828 .57710269 .06298828 .4851532 .06298828 .43414308 .10598755 .42915345 .115997318 .42915345 .13999939 .42915345 .16899109 .44615174 .16899109 .48214723 .16899109 .5001526 .1619873 .53515627 .10998535 .53515627 .14099121 .6060791 .20899964 .62805178 .2559967 .62805178 .35598756 .62805178 .4079895 .5501404 .4079895 .46914674 .4079895 .38212586 .34599305 .3130951 .31399537 .27708436L.07299805 .038986207C.06298828 .02999878 .06298828 .027999878 .06298828 0H.47499085L.5049896 .18203736Z"/>
<path id="font_3_2" d="M.2649994 .37265016H.37799073C.34498597 .22489929 .33599855 .18196106 .33599855 .11508179 .33599855 .100097659 .33599855 .073150638 .34399415 .03919983 .35398866-.0047454836 .36499024-.0107421879 .37998963-.0107421879 .3999939-.0107421879 .42099 .007247925 .42099 .02722168 .42099 .033218385 .42099 .035202028 .4149933 .049179079 .38598634 .12106323 .38598634 .18595886 .38598634 .21391297 .38598634 .26683045 .3929901 .32073976 .4039917 .37265016H.5179901C.5309906 .37265016 .5669861 .37265016 .5669861 .406662 .5669861 .43066407 .54599 .43066407 .5269928 .43066407H.19198609C.16999817 .43066407 .13198853 .43066407 .08799744 .38365174 .052993776 .34469605 .026992798 .29878236 .026992798 .29379273 .026992798 .29278565 .026992798 .28379823 .038986207 .28379823 .04699707 .28379823 .04899597 .28779603 .054992677 .29577638 .10398865 .37265016 .1619873 .37265016 .18199158 .37265016H.23899842C.20698548 .25186158 .15299988 .13105774 .11099243 .04020691 .102996829 .025222779 .102996829 .023223877 .102996829 .016235352 .102996829-.002746582 .11898804-.0107421879 .13198853-.0107421879 .1619873-.0107421879 .16999817 .017242432 .18199158 .05418396 .19599915 .100097659 .19599915 .10209656 .20899964 .15202332L.2649994 .37265016Z"/>
<path id="font_2_2" d="M.272995 .33428956C.35099793 .33428956 .40699769 .2803192 .40699769 .1733551 .40699769 .04940796 .33499146 .012466431 .2769928 .012466431 .23699951 .012466431 .14898682 .0234375 .10699463 .082351688 .1539917 .084350589 .16499329 .11735535 .16499329 .13835144 .16499329 .17034912 .14099121 .19335938 .10998535 .19335938 .08198547 .19335938 .053985597 .17634583 .053985597 .13534546 .053985597 .041412355 .1579895-.01953125 .2789917-.01953125 .41799928-.01953125 .5139923 .07336426 .5139923 .1733551 .5139923 .2513275 .44999696 .32929994 .33999635 .35229493 .44499208 .39024354 .48298646 .4650879 .48298646 .5260773 .48298646 .60505679 .3919983 .6640625 .2809906 .6640625 .16999817 .6640625 .084991458 .61006167 .084991458 .5300751 .084991458 .49606324 .10699463 .47706605 .13699341 .47706605 .16799927 .47706605 .18798828 .5000763 .18798828 .5280762 .18798828 .5570679 .16799927 .57806399 .13699341 .5800781 .17199707 .62405398 .24099732 .63505557 .27799989 .63505557 .32299806 .63505557 .38598634 .6130676 .38598634 .5260773 .38598634 .48406983 .37199403 .43814088 .34599305 .4072113 .31298829 .36927796 .2849884 .3672943 .23498535 .36428834 .20999146 .3623047 .20799256 .3623047 .20298767 .3612976 .20098877 .3612976 .19299317 .3592987 .19299317 .34829713 .19299317 .33428956 .20199585 .33428956 .21899414 .33428956H.272995Z"/>
<path id="font_4_3" d="M.1269989 .07699585 .23298645 .18003845C.3889923 .31811524 .44898988 .3721466 .44898988 .47216798 .44898988 .5860901 .35899354 .6660156 .23699951 .6660156 .12399292 .6660156 .049987794 .57411196 .049987794 .48516847 .049987794 .4291687 .099990848 .4291687 .102996829 .4291687 .11999512 .4291687 .15499878 .44117738 .15499878 .48217774 .15499878 .5081787 .13699341 .5341797 .101989749 .5341797 .09399414 .5341797 .09199524 .5341797 .08898926 .5331726 .11199951 .59806826 .1659851 .63500979 .22399903 .63500979 .31498719 .63500979 .35798646 .5541382 .35798646 .47216798 .35798646 .39215089 .30799867 .31311036 .25299073 .25108338L.06098938 .036987306C.049987794 .025985718 .049987794 .023986817 .049987794 0H.42099L.44898988 .17404175H.42399598C.4189911 .14402771 .4119873 .1000061 .4019928 .084991458 .394989 .07699585 .32899476 .07699585 .30699159 .07699585H.1269989Z"/>
<path id="font_4_1" d="M.45999146 .31976319C.45999146 .39982606 .45498658 .47988893 .41999818 .5539398 .37399293 .65000918 .2919922 .6660156 .25 .6660156 .18998719 .6660156 .116989139 .64001467 .07598877 .54693606 .04399109 .47789 .038986207 .39982606 .038986207 .31976319 .038986207 .24472046 .042999269 .15464783 .083999637 .07859802 .1269989-.0024719239 .19999695-.022460938 .24899292-.022460938 .30299378-.022460938 .3789978-.0014648438 .4229889 .09359741 .45498658 .16265869 .45999146 .2407074 .45999146 .31976319M.24899292-.00047302247C.20999146-.00047302247 .15098572 .024551392 .1329956 .12062073 .12199402 .18066406 .12199402 .2727356 .12199402 .3317871 .12199402 .39582826 .12199402 .46188355 .12998963 .5159149 .14898682 .63500979 .22399903 .64401248 .24899292 .64401248 .28199769 .64401248 .34799195 .6259918 .36698915 .52693179 .3769989 .47088624 .3769989 .39482118 .3769989 .3317871 .3769989 .25672914 .3769989 .18867493 .3659973 .12461853 .35099793 .029556275 .2939911-.00047302247 .24899292-.00047302247Z"/>
<path id="font_4_2" d="M.2939911 .64004519C.2939911 .66400149 .2939911 .6660156 .2709961 .6660156 .20899964 .60227969 .12098694 .60227969 .08898926 .60227969V.57128909C.10899353 .57128909 .16799927 .57128909 .21998596 .5972748V.07902527C.21998596 .042999269 .21699524 .0309906 .1269989 .0309906H.09498596V0C.12998963 .0029907227 .21699524 .0029907227 .25698854 .0029907227 .29699708 .0029907227 .38398744 .0029907227 .4189911 0V.0309906H.3869934C.29699708 .0309906 .2939911 .041992189 .2939911 .07902527V.64004519Z"/>
<path id="font_4_4" d="M.2899933 .35191346C.37199403 .37893678 .42999269 .4490509 .42999269 .52809146 .42999269 .6100464 .34199525 .6660156 .24598694 .6660156 .14498902 .6660156 .068984989 .60606387 .068984989 .53009036 .068984989 .49710084 .09098816 .47808839 .11999512 .47808839 .15098572 .47808839 .17098999 .50009158 .17098999 .5290985 .17098999 .57910159 .12399292 .57910159 .10899353 .57910159 .13999939 .62802127 .20599365 .64100649 .24198914 .64100649 .2829895 .64100649 .33799745 .6190338 .33799745 .5290985 .33799745 .51708987 .33599855 .45906068 .30999757 .4149933 .27999879 .36691285 .24598694 .36390687 .22099304 .36291505 .21299744 .36190797 .18899536 .35990907 .18199158 .35990907 .17399597 .35890199 .16699219 .35791017 .16699219 .3479004 .16699219 .33691407 .17399597 .33691407 .19099427 .33691407H.23498535C.31698609 .33691407 .35398866 .2686615 .35398866 .17037964 .35398866 .034469606 .2849884 .0055389406 .24099732 .0055389406 .19799805 .0055389406 .12298584 .022491456 .08799744 .08137512 .12298584 .07637024 .1539917 .09837341 .1539917 .1363678 .1539917 .17237854 .1269989 .19238281 .09799194 .19238281 .07398987 .19238281 .041992189 .17837525 .041992189 .1343689 .041992189 .043441774 .1349945-.022460938 .24398804-.022460938 .3659973-.022460938 .45700074 .06838989 .45700074 .17037964 .45700074 .252594 .3939972 .33088685 .2899933 .35191346Z"/>
<path id="font_4_5" d="M.2939911 .16503906V.07800293C.2939911 .041992189 .2919922 .0309906 .21798706 .0309906H.19699097V0C.23799134 .0029907227 .2899933 .0029907227 .33198548 .0029907227 .37399293 .0029907227 .4269867 .0029907227 .46798707 0V.0309906H.44699098C.37298585 .0309906 .37098695 .041992189 .37098695 .07800293V.16503906H.47099305V.19602967H.37098695V.65075686C.37098695 .67074587 .37098695 .6767578 .35499574 .6767578 .34599305 .6767578 .34298707 .6767578 .33499146 .66474917L.027999878 .19602967V.16503906H.2939911M.2999878 .19602967H.055999757L.2999878 .5688019V.19602967Z"/>
<path id="font_4_6" d="M.44898988 .20022583C.44898988 .3193512 .36698915 .41944886 .25898744 .41944886 .21099854 .41944886 .16799927 .40345765 .13198853 .36842347V.5637665C.1519928 .5577698 .18499756 .55078127 .21699524 .55078127 .33999635 .55078127 .4099884 .6417694 .4099884 .6547699 .4099884 .6607666 .40699769 .6657715 .3999939 .6657715 .39898683 .6657715 .39698792 .6657715 .3919983 .66278079 .37199403 .6537781 .32299806 .6337738 .2559967 .6337738 .21598816 .6337738 .16999817 .6407776 .12298584 .6617737 .114990238 .66477969 .11299133 .66477969 .11099243 .66477969 .100997928 .66477969 .100997928 .6567688 .100997928 .6407776V.34439088C.100997928 .32637025 .100997928 .31835938 .114990238 .31835938 .12199402 .31835938 .12399292 .32136537 .12799073 .32736207 .13899231 .3433838 .17599488 .39746095 .25698854 .39746095 .30899049 .39746095 .33399964 .35139466 .34199525 .33337403 .35798646 .29632569 .3600006 .25727845 .3600006 .20722962 .3600006 .17222595 .3600006 .11222839 .33599855 .07035828 .31199647 .031463624 .2749939 .0055389406 .22898865 .0055389406 .1559906 .0055389406 .09899902 .058380128 .08198547 .11723328 .084991458 .1162262 .08799744 .115234378 .09899902 .115234378 .13198853 .115234378 .14898682 .14022827 .14898682 .16423035 .14898682 .18823242 .13198853 .21322632 .09899902 .21322632 .084991458 .21322632 .049987794 .20622254 .049987794 .16023255 .049987794 .07434082 .11898804-.022460938 .23098755-.022460938 .34700013-.022460938 .44898988 .073349 .44898988 .20022583Z"/>
<path id="font_4_7" d="M.13198853 .327713V.35173036C.13198853 .6047821 .2559967 .64100649 .30699159 .64100649 .33099366 .64100649 .37298585 .634964 .394989 .6007538 .37998963 .6007538 .33999635 .6007538 .33999635 .5557556 .33999635 .524765 .3639984 .5097656 .38598634 .5097656 .4019928 .5097656 .43199159 .51875308 .43199159 .5577545 .43199159 .6178589 .3880005 .6660156 .30499269 .6660156 .1769867 .6660156 .041992189 .5367584 .041992189 .31570436 .041992189 .048553468 .1579895-.022460938 .25099183-.022460938 .3619995-.022460938 .45700074 .07156372 .45700074 .2036438 .45700074 .33070375 .36799623 .4267578 .25698854 .4267578 .18899536 .4267578 .1519928 .37573243 .13198853 .327713M.25099183 .0055389406C.18798828 .0055389406 .1579895 .06556702 .1519928 .080566409 .13398743 .127594 .13398743 .2076416 .13398743 .22564698 .13398743 .30369569 .1659851 .40374757 .2559967 .40374757 .27198792 .40374757 .31799317 .40374757 .34899903 .34172059 .36698915 .30470277 .36698915 .2536621 .36698915 .20463562 .36698915 .15661621 .36698915 .10658264 .34999085 .0705719 .31999208 .010528564 .27398683 .0055389406 .25099183 .0055389406Z"/>
<path id="font_4_8" d="M.47599793 .609375C.4850006 .6213684 .4850006 .62338259 .4850006 .64437869H.24198914C.11999512 .64437869 .117996219 .65737918 .11399841 .67637637H.08898926L.055999757 .4702301H.08099365C.083999637 .48625184 .09298706 .5493469 .10598755 .56137087 .11299133 .5673828 .19099427 .5673828 .20399475 .5673828H.41099549C.3999939 .5513611 .32099916 .4421997 .29899598 .40914918 .20899964 .27394105 .17599488 .1347351 .17599488 .032577516 .17599488 .022567749 .17599488-.022460938 .22200012-.022460938 .2679901-.022460938 .2679901 .022567749 .2679901 .032577516V.08366394C.2679901 .13873291 .2709961 .19381714 .2789917 .24790955 .2829895 .27093507 .29699708 .35707093 .34098817 .41915895L.47599793 .609375Z"/>
<path id="font_4_9" d="M.16299439 .4569702C.116989139 .486969 .11299133 .52098086 .11299133 .5379791 .11299133 .598999 .17799378 .64100649 .24899292 .64100649 .32199098 .64100649 .38598634 .58898928 .38598634 .51698306 .38598634 .45996095 .34700013 .4119568 .2869873 .37695313L.16299439 .4569702M.30899049 .36193849C.3809967 .3989563 .42999269 .45095826 .42999269 .51698306 .42999269 .6090088 .34098817 .6660156 .25 .6660156 .1499939 .6660156 .068984989 .59199526 .068984989 .49897767 .068984989 .4809723 .070999149 .43595887 .11299133 .38894654 .12399292 .37695313 .16099549 .35194398 .18598938 .33494569 .12799073 .30592347 .041992189 .24984741 .041992189 .15072632 .041992189 .04458618 .14399719-.022460938 .24899292-.022460938 .3619995-.022460938 .45700074 .06060791 .45700074 .16773987 .45700074 .20379639 .44599916 .24885559 .4079895 .2909088 .3889923 .31193543 .37298585 .3219452 .30899049 .36193849M.20899964 .3199463 .33198548 .24183655C.3600006 .2228241 .40699769 .19277954 .40699769 .13169861 .40699769 .05760193 .33198548 .0055389406 .25 .0055389406 .1639862 .0055389406 .09199524 .067611698 .09199524 .15072632 .09199524 .20880127 .12399292 .27288819 .20899964 .3199463Z"/>
<path id="font_3_3" d="M.08799744 .059265138C.084991458 .044265748 .07899475 .021255494 .07899475 .01625061 .07899475-.0017547608 .09298706-.0107421879 .10798645-.0107421879 .11999512-.0107421879 .13798523-.002746582 .14498902 .01725769 .14698792 .021255494 .18099976 .15730286 .18499756 .17530823 .19299317 .20831299 .21099854 .27833558 .21699524 .30534364 .22099304 .31835938 .24899292 .36535646 .272995 .38734437 .2809906 .39434815 .30999757 .42037965 .35299684 .42037965 .3789978 .42037965 .3939972 .4083557 .394989 .4083557 .36499024 .40335084 .34298707 .37934876 .34298707 .35334779 .34298707 .33735658 .35398866 .31835938 .3809967 .31835938 .4079895 .31835938 .43598939 .34135438 .43598939 .37734986 .43598939 .41235353 .4039917 .4423828 .35299684 .4423828 .28799439 .4423828 .24398804 .39335633 .22499085 .36535646 .21699524 .4103546 .18099976 .4423828 .13398743 .4423828 .08799744 .4423828 .068984989 .40335084 .05999756 .38534547 .041992189 .35134889 .0289917 .29133607 .0289917 .28834535 .0289917 .27833558 .038986207 .27833558 .040985109 .27833558 .050994874 .27833558 .051986696 .27934266 .057998659 .30134584 .07499695 .37234498 .09498596 .42037965 .1309967 .42037965 .147995 .42037965 .1619873 .41235353 .1619873 .37435914 .1619873 .35334779 .15899658 .3423462 .1459961 .29034425L.08799744 .059265138Z"/>
<path id="font_3_1" d="M.45498658 .5001831C.45498658 .56614688 .43699647 .7050781 .33499146 .7050781 .19599915 .7050781 .041992189 .42323304 .041992189 .19425965 .041992189 .100250247 .070999149-.0107421879 .1619873-.0107421879 .30299378-.0107421879 .45498658 .27627564 .45498658 .5001831M.147995 .36328126C.16499329 .42723084 .18499756 .5071869 .22499085 .57814028 .2519989 .6271057 .2889862 .68307498 .33399964 .68307498 .3829956 .68307498 .3889923 .6191101 .3889923 .56214907 .3889923 .5131836 .3809967 .46220399 .35699464 .36328126H.147995M.34799195 .3312683C.33699037 .28527833 .31599427 .2002716 .27799989 .12826538 .24299622 .060256959 .20498657 .011245728 .1619873 .011245728 .1289978 .011245728 .10798645 .040252687 .10798645 .133255 .10798645 .17526245 .11399841 .23326111 .13999939 .3312683H.34799195Z"/>
</defs>
<path transform="matrix(1.00008,0,0,-1,9.719582,149.196)" d="M.89665 0C.89665 .4952 .4952 .89665 0 .89665-.4952 .89665-.89665 .4952-.89665 0-.89665-.4952-.4952-.89665 0-.89665 .4952-.89665 .89665-.4952 .89665 0ZM0 0"/>
<path transform="matrix(1.00008,0,0,-1,9.719582,149.196)" d="M27.61296 0C27.61296 .4952 27.2115 .89665 26.7163 .89665 26.2211 .89665 25.81964 .4952 25.81964 0 25.81964-.4952 26.2211-.89665 26.7163-.89665 27.2115-.89665 27.61296-.4952 27.61296 0ZM26.7163 0"/>
<path transform="matrix(1.00008,0,0,-1,9.719582,149.196)" d="M54.32956 0C54.32956 .4952 53.9281 .89665 53.43289 .89665 52.93768 .89665 52.53624 .4952 52.53624 0 52.53624-.4952 52.93768-.89665 53.43289-.89665 53.9281-.89665 54.32956-.4952 54.32956 0ZM53.43289 0"/>
<path transform="matrix(1.00008,0,0,-1,9.719582,149.196)" d="M81.04587 0C81.04587 .4952 80.64442 .89665 80.14922 .89665 79.654 .89665 79.25256 .4952 79.25256 0 79.25256-.4952 79.654-.89665 80.14922-.89665 80.64442-.89665 81.04587-.4952 81.04587 0ZM80.14922 0"/>
<path transform="matrix(1.00008,0,0,-1,9.719582,149.196)" d="M107.76247 0C107.76247 .4952 107.36102 .89665 106.86581 .89665 106.3706 .89665 105.96915 .4952 105.96915 0 105.96915-.4952 106.3706-.89665 106.86581-.89665 107.36102-.89665 107.76247-.4952 107.76247 0ZM106.86581 0"/>
<use data-text="&#x03c0;" xlink:href="#font_1_1" transform="matrix(6.974358,0,0,-6.9738,41.1541,155.71799)"/>
<path transform="matrix(1.00008,0,0,-1,-54.76758,23.445)" stroke-width=".3985" stroke-linecap="butt" stroke-miterlimit="10" stroke-linejoin="miter" fill="none" stroke="#000000" d="M95.914-133.705H100.823"/>
<use data-text="2" xlink:href="#font_2_1" transform="matrix(6.974358,0,0,-6.9738,41.62314,163.07599)"/>
<use data-text="&#x03c0;" xlink:href="#font_3_2" transform="matrix(9.963397,0,0,-9.9626,66.67714,157.005)"/>
<use data-text="3" xlink:href="#font_2_2" transform="matrix(6.974358,0,0,-6.9738,94.59137,157.20999)"/>
<use data-text="&#x03c0;" xlink:href="#font_1_1" transform="matrix(6.974358,0,0,-6.9738,98.56268,157.20999)"/>
<path transform="matrix(1.00008,0,0,-1,-1.330307,24.937)" stroke-width=".3985" stroke-linecap="butt" stroke-miterlimit="10" stroke-linejoin="miter" fill="none" stroke="#000000" d="M95.914-133.705H104.794"/>
<use data-text="2" xlink:href="#font_2_1" transform="matrix(6.974358,0,0,-6.9738,97.045558,164.568)"/>
<use data-text="2" xlink:href="#font_4_3" transform="matrix(9.963397,0,0,-9.9626,120.11441,159.136)"/>
<use data-text="&#x03c0;" xlink:href="#font_3_2" transform="matrix(9.963397,0,0,-9.9626,125.09681,159.136)"/>
<path transform="matrix(1.00008,0,0,-1,9.719582,149.196)" d="M.89665 0C.89665 .4952 .4952 .89665 0 .89665-.4952 .89665-.89665 .4952-.89665 0-.89665-.4952-.4952-.89665 0-.89665 .4952-.89665 .89665-.4952 .89665 0ZM0 0"/>
<path transform="matrix(1.00008,0,0,-1,9.719582,149.196)" d="M.89665 17.00824C.89665 17.50345 .4952 17.90489 0 17.90489-.4952 17.90489-.89665 17.50345-.89665 17.00824-.89665 16.51303-.4952 16.11159 0 16.11159 .4952 16.11159 .89665 16.51303 .89665 17.00824ZM0 17.00824"/>
<path transform="matrix(1.00008,0,0,-1,9.719582,149.196)" d="M.89665 34.0165C.89665 34.5117 .4952 34.91316 0 34.91316-.4952 34.91316-.89665 34.5117-.89665 34.0165-.89665 33.5213-.4952 33.11984 0 33.11984 .4952 33.11984 .89665 33.5213 .89665 34.0165ZM0 34.0165"/>
<path transform="matrix(1.00008,0,0,-1,9.719582,149.196)" d="M.89665 51.02477C.89665 51.51997 .4952 51.92142 0 51.92142-.4952 51.92142-.89665 51.51997-.89665 51.02477-.89665 50.52956-.4952 50.12811 0 50.12811 .4952 50.12811 .89665 50.52956 .89665 51.02477ZM0 51.02477"/>
<path transform="matrix(1.00008,0,0,-1,9.719582,149.196)" d="M.89665 68.03302C.89665 68.52823 .4952 68.92969 0 68.92969-.4952 68.92969-.89665 68.52823-.89665 68.03302-.89665 67.53783-.4952 67.13637 0 67.13637 .4952 67.13637 .89665 67.53783 .89665 68.03302ZM0 68.03302"/>
<path transform="matrix(1.00008,0,0,-1,9.719582,149.196)" d="M.89665 85.04128C.89665 85.53648 .4952 85.93793 0 85.93793-.4952 85.93793-.89665 85.53648-.89665 85.04128-.89665 84.54607-.4952 84.1446 0 84.1446 .4952 84.1446 .89665 84.54607 .89665 85.04128ZM0 85.04128"/>
<path transform="matrix(1.00008,0,0,-1,9.719582,149.196)" d="M.89665 102.04953C.89665 102.54474 .4952 102.9462 0 102.9462-.4952 102.9462-.89665 102.54474-.89665 102.04953-.89665 101.55434-.4952 101.15288 0 101.15288 .4952 101.15288 .89665 101.55434 .89665 102.04953ZM0 102.04953"/>
<path transform="matrix(1.00008,0,0,-1,9.719582,149.196)" d="M.89665 119.0578C.89665 119.55301 .4952 119.95445 0 119.95445-.4952 119.95445-.89665 119.55301-.89665 119.0578-.89665 118.56259-.4952 118.16113 0 118.16113 .4952 118.16113 .89665 118.56259 .89665 119.0578ZM0 119.0578"/>
<path transform="matrix(1.00008,0,0,-1,9.719582,149.196)" d="M.89665 136.06606C.89665 136.56127 .4952 136.96273 0 136.96273-.4952 136.96273-.89665 136.56127-.89665 136.06606-.89665 135.57086-.4952 135.1694 0 135.1694 .4952 135.1694 .89665 135.57086 .89665 136.06606ZM0 136.06606"/>
<use data-text="0" xlink:href="#font_4_1" transform="matrix(9.963397,0,0,-9.9626,1.2179031,152.406)"/>
<use data-text="1" xlink:href="#font_4_2" transform="matrix(9.963397,0,0,-9.9626,1.2179031,135.398)"/>
<use data-text="2" xlink:href="#font_4_3" transform="matrix(9.963397,0,0,-9.9626,1.2179031,118.39)"/>
<use data-text="3" xlink:href="#font_4_4" transform="matrix(9.963397,0,0,-9.9626,1.2179031,101.381)"/>
<use data-text="4" xlink:href="#font_4_5" transform="matrix(9.963397,0,0,-9.9626,1.2179031,84.373)"/>
<use data-text="5" xlink:href="#font_4_6" transform="matrix(9.963397,0,0,-9.9626,1.2179031,67.365)"/>
<use data-text="6" xlink:href="#font_4_7" transform="matrix(9.963397,0,0,-9.9626,1.2179031,50.357004)"/>
<use data-text="7" xlink:href="#font_4_8" transform="matrix(9.963397,0,0,-9.9626,1.2179031,33.348)"/>
<use data-text="8" xlink:href="#font_4_9" transform="matrix(9.963397,0,0,-9.9626,1.2179031,16.339997)"/>
<path transform="matrix(1.00008,0,0,-1,9.719582,149.196)" stroke-width=".3985" stroke-linecap="butt" stroke-miterlimit="10" stroke-linejoin="miter" fill="none" stroke="#000000" d="M0 3.40158V139.00937"/>
<path transform="matrix(0,-1,-1.00008,-0,9.719582,10.18663)" stroke-width=".31879" stroke-linecap="round" stroke-linejoin="round" fill="none" stroke="#000000" d="M-1.19551 1.59401C-1.09587 .99626 0 .09961 .29886 0 0-.09961-1.09587-.99626-1.19551-1.59401"/>
<use data-text="r" xlink:href="#font_3_3" transform="matrix(9.963397,0,0,-9.9626,7.3333895,6.2089998)"/>
<path transform="matrix(1.00008,0,0,-1,9.719582,149.196)" stroke-width=".3985" stroke-linecap="butt" stroke-miterlimit="10" stroke-linejoin="miter" fill="none" stroke="#000000" d="M.85043 0H111.75089"/>
<path transform="matrix(1.00008,0,0,-1,121.479419,149.196)" stroke-width=".31879" stroke-linecap="round" stroke-linejoin="round" fill="none" stroke="#000000" d="M-1.19551 1.59401C-1.09587 .99626 0 .09961 .29886 0 0-.09961-1.09587-.99626-1.19551-1.59401"/>
<use data-text="&#x03b8;" xlink:href="#font_3_1" transform="matrix(9.963397,0,0,-9.9626,125.45783,145.676)"/>
<path transform="matrix(1.00008,0,0,-1,9.719582,149.196)" stroke-width=".79701" stroke-linecap="butt" stroke-miterlimit="10" stroke-linejoin="miter" fill="none" stroke="#ff0000" d="M0 136.06606C0 136.06606 .77983 136.00225 1.07935 135.92592 1.37886 135.84957 1.85919 135.66724 2.1587 135.51586 2.45822 135.36449 2.93857 135.06142 3.23807 134.83487 3.53758 134.60829 4.01791 134.18352 4.31744 133.88292 4.61696 133.58232 5.09729 133.04183 5.39682 132.66834 5.69632 132.29486 6.17667 131.63648 6.47617 131.19112 6.7757 130.74578 7.25603 129.97303 7.55554 129.45854 7.85506 128.94406 8.33539 128.06478 8.63492 127.48302 8.93442 126.90128 9.41476 125.91307 9.71426 125.26564 10.0138 124.61821 10.49413 123.52655 10.79364 122.81676 11.09317 122.10696 11.57349 120.91931 11.87302 120.14987 12.17252 119.38046 12.65286 118.0974 12.95238 117.27121 13.25189 116.44505 13.73222 115.07465 14.03174 114.19533 14.33127 113.316 14.8116 111.86278 15.11111 110.93362 15.41061 110.00444 15.89096 108.47379 16.19048 107.49854 16.48999 106.52327 16.97032 104.92194 17.26984 103.90462 17.56937 102.88731 18.0497 101.22176 18.34921 100.16643 18.64873 99.11107 19.12907 97.38734 19.42857 96.29846 19.72809 95.20956 20.20842 93.43665 20.50795 92.31837 20.80746 91.20009 21.2878 89.38213 21.58731 88.23863 21.88683 87.09514 22.36717 85.24039 22.66667 84.07687 22.96619 82.91336 23.44652 81.03175 23.74605 79.85284 24.04555 78.67392 24.5259 76.76974 24.82541 75.58002 25.12492 74.39027 25.60526 72.47375 25.90477 71.27814 26.2043 70.08249 26.68463 68.15965 26.98415 66.96274 27.28365 65.76581 27.76399 63.84496 28.06349 62.65149 28.363 61.45804 28.84334 59.54614 29.14287 58.36102 29.44238 57.1759 29.92271 55.28186 30.22224 54.11 30.52174 52.93813 31.00209 51.06903 31.30159 49.91504 31.60112 48.76102 32.08145 46.9241 32.38097 45.79272 32.68048 44.66133 33.16081 42.86504 33.46034 41.76074 33.75984 40.65642 34.24019 38.90651 34.53969 37.8336 34.83922 36.76068 35.31955 35.06468 35.61906 34.02792 35.9186 32.99117 36.39891 31.3582 36.69844 30.36134 36.99794 29.36449 37.47829 27.7963 37.7778 26.84322 38.07732 25.89015 38.55765 24.39703 38.85716 23.49222 39.1567 22.5874 39.63702 21.17511 39.93654 20.32185 40.23604 19.4686 40.71638 18.14119 41.0159 17.34251 41.31541 16.54385 41.79575 15.30592 42.09526 14.56558 42.39479 13.82526 42.87512 12.68579 43.17464 12.00667 43.47415 11.32755 43.9545 10.2861 44.254 9.67094 44.55351 9.05579 45.03384 8.12155 45.33337 7.57294 45.63287 7.0243 46.11322 6.19745 46.41272 5.71681 46.71225 5.23618 47.19258 4.51855 47.4921 4.10878 47.79161 3.69902 48.27194 3.10072 48.57147 2.76341 48.87097 2.42607 49.35132 1.94171 49.65083 1.67755 49.95035 1.41339 50.43068 1.0488 50.7302 .85953 51.02972 .67027 51.51006 .42755 51.80957 .31349 52.10907 .19942 52.58942 .0758 52.88893 .03735 53.18845-.00107 53.66878-.00154 53.96829 .03632 54.26782 .07419 54.74814 .19702 55.04767 .31036 55.34717 .42372 55.82751 .66447 56.12701 .8533 56.42654 1.04213 56.90688 1.40761 57.20639 1.67133 57.5059 1.93506 57.98624 2.41759 58.28577 2.75406 58.58527 3.09053 59.06561 3.68727 59.36511 4.09633 59.66464 4.50539 60.14497 5.22221 60.44449 5.70227 60.74402 6.18233 61.22433 7.00813 61.52386 7.55634 61.82336 8.10452 62.30371 9.03856 62.60323 9.65329 62.90274 10.26804 63.38307 11.30826 63.68259 11.98695 63.98212 12.66563 64.46245 13.80507 64.76196 14.54482 65.06146 15.28458 65.54181 16.52068 65.84132 17.31863 66.14084 18.1166 66.62117 19.4431 66.92068 20.29591 67.2202 21.14873 67.70055 22.5607 68.00005 23.46524 68.29958 24.36977 68.7799 25.86253 69.07942 26.81519 69.37894 27.76784 69.85927 29.33481 70.1588 30.33124 70.4583 31.32767 70.93864 32.96016 71.23814 33.99677 71.53767 35.03339 72.018 36.72969 72.31752 37.80244 72.61703 38.87521 73.09737 40.62468 73.3969 41.72856 73.6964 42.83243 74.17674 44.62721 74.47626 45.75847 74.77577 46.88971 75.2561 48.7278 75.55562 49.8818 75.85515 51.03581 76.33548 52.90402 76.635 54.07574 76.9345 55.24747 77.41484 57.1418 77.71436 58.32677 78.01387 59.51173 78.4942 61.42288 78.79372 62.6162 79.09325 63.80952 79.57358 65.73051 79.8731 66.92743 80.1726 68.12436 80.65294 70.0472 80.95245 71.24283 81.25197 72.43845 81.7323 74.35486 82.03181 75.54472 82.33133 76.73457 82.81166 78.63937 83.11119 79.81859 83.41069 80.99779 83.89104 82.88 84.19054 84.04366 84.49007 85.2073 84.9704 87.06192 85.26991 88.20541 85.56944 89.34889 86.04976 91.16658 86.34929 92.28514 86.64879 93.40372 87.12914 95.17812 87.42865 96.2673 87.72816 97.35649 88.2085 99.0798 88.50801 100.13527 88.80753 101.19075 89.28787 102.85706 89.58737 103.87451 89.88689 104.89197 90.36722 106.49289 90.66675 107.46843 90.96626 108.44395 91.4466 109.97583 91.74611 110.90558 92.04562 111.83533 92.52597 113.28963 92.82547 114.16937 93.125 115.04913 93.60533 116.4197 93.90485 117.24629 94.20436 118.0729 94.6847 119.3569 94.98422 120.12704 95.28372 120.89719 95.76407 122.08667 96.06357 122.79704 96.3631 123.50742 96.84343 124.59924 97.14294 125.24696 97.44247 125.89467 97.92279 126.88304 98.22232 127.4654 98.52182 128.04772 99.00217 128.92894 99.30168 129.444 99.6012 129.95906 100.08153 130.73186 100.38104 131.17765 100.68057 131.62342 101.1609 132.28287 101.46042 132.65692 101.75992 133.03099 102.24026 133.57227 102.53978 133.87358 102.8393 134.17488 103.31963 134.60135 103.61914 134.82863 103.91867 135.05593 104.399 135.3599 104.69852 135.5117 104.99803 135.66352 105.47836 135.84603 105.77788 135.92279 106.0774 135.99958 106.85725 136.06502 106.85725 136.06502"/>
</svg>
