<svg xmlns="http://www.w3.org/2000/svg" xmlns:xlink="http://www.w3.org/1999/xlink" xmlns:inkscape="http://www.inkscape.org/namespaces/inkscape" version="1.1" width="210" height="239" viewBox="0 0 210 239">
<defs>
<path id="font_1_1" d="M.69898989 .22743225C.71499636 .22743225 .7369995 .22743225 .7369995 .25042726 .7369995 .2734375 .71499636 .2734375 .69898989 .2734375H.12599182C.10998535 .2734375 .08799744 .2734375 .08799744 .25042726 .08799744 .22743225 .10998535 .22743225 .12599182 .22743225H.69898989Z"/>
<path id="font_2_1" d="M.31399537 .63708499C.31399537 .664032 .31199647 .66503909 .2849884 .66503909 .24398804 .6251831 .19099427 .6013489 .09599304 .6013489V.5683594C.12298584 .5683594 .1769867 .5683594 .23498535 .5953522V.08203125C.23498535 .04499817 .23199463 .032989503 .13699341 .032989503H.101989749V0C.14299011 .0029907227 .22898865 .0029907227 .27398683 .0029907227 .31900025 .0029907227 .4059906 .0029907227 .44699098 0V.032989503H.4119873C.31698609 .032989503 .31399537 .04499817 .31399537 .08203125V.63708499Z"/>
<path id="font_2_2" d="M.28199769 .20405579C.2979889 .21907044 .33999635 .2520752 .35598756 .26608277 .41799928 .32312013 .47698976 .3781433 .47698976 .46917726 .47698976 .588089 .3769989 .66503909 .2519989 .66503909 .13198853 .66503909 .052993776 .57411196 .052993776 .48516847 .052993776 .4361725 .09199524 .4291687 .10598755 .4291687 .1269989 .4291687 .1579895 .4441681 .1579895 .48217774 .1579895 .5341797 .10798645 .5341797 .09599304 .5341797 .125 .6070709 .19198609 .6320343 .24099732 .6320343 .33399964 .6320343 .38198854 .55314639 .38198854 .46917726 .38198854 .36514283 .30899049 .28910829 .19099427 .16804505L.06498718 .037994386C.052993776 .026992798 .052993776 .024993897 .052993776 0H.44799806L.47698976 .17904663H.44599916C.44299317 .1590271 .43499757 .10900879 .4229889 .08999634 .4169922 .08198547 .34098817 .08198547 .32499696 .08198547H.14698792L.28199769 .20405579Z"/>
<path id="font_2_3" d="M.25299073 .33370973C.33198548 .33370973 .38198854 .27557374 .38198854 .17037964 .38198854 .045440675 .31098939 .008514404 .2579956 .008514404 .20298767 .008514404 .12799073 .0284729 .09298706 .08137512 .1289978 .08137512 .1539917 .10437012 .1539917 .13737488 .1539917 .16937256 .1309967 .19238281 .09899902 .19238281 .07199097 .19238281 .04399109 .17536927 .04399109 .13537598 .04399109 .04045105 .1459961-.021484375 .2599945-.021484375 .3929901-.021484375 .48599244 .070388797 .48599244 .17037964 .48599244 .25352479 .41999818 .32969667 .31799317 .3517456 .39698792 .37982179 .45599366 .4479828 .45599366 .52804568 .45599366 .6080475 .3659973 .66503909 .2619934 .66503909 .15499878 .66503909 .07398987 .6070404 .07398987 .53105166 .07398987 .49404908 .09899902 .4780426 .125 .4780426 .1559906 .4780426 .17599488 .5000458 .17599488 .52905276 .17599488 .56604006 .14399719 .5800476 .12199402 .5810547 .1639862 .6360321 .24099732 .6390381 .25898744 .6390381 .2849884 .6390381 .36099244 .6310272 .36099244 .52804568 .36099244 .45799256 .33198548 .41589356 .31799317 .39985658 .28799439 .36878968 .2649994 .36679078 .20399475 .3627777 .18499756 .36177064 .1769867 .36076356 .1769867 .3477478 .1769867 .33370973 .18598938 .33370973 .20298767 .33370973H.25299073Z"/>
<path id="font_2_4" d="M.3939972 .6468048C.3939972 .6667938 .3939972 .6748047 .37298585 .6748047 .3600006 .6748047 .35899354 .6737976 .34899903 .65979006L.02999878 .197052V.1640625H.31199647V.08100891C.31199647 .04399109 .30899049 .032989503 .23199463 .032989503H.20899964V0C.2939911 .0029907227 .29599 .0029907227 .35299684 .0029907227 .4099884 .0029907227 .4119873 .0029907227 .49699403 0V.032989503H.47399903C.39698792 .032989503 .3939972 .04399109 .3939972 .08100891V.1640625H.5V.197052H.3939972V.6468048M.31900025 .5658417V.197052H.06498718L.31900025 .5658417Z"/>
<path id="font_2_5" d="M.13999939 .5618439C.15299988 .55784609 .19299317 .54785159 .23498535 .54785159 .3600006 .54785159 .43598939 .6358948 .43598939 .6510315 .43598939 .6620331 .42900086 .66503909 .42399598 .66503909 .42199708 .66503909 .41999818 .66503909 .41099549 .6600342 .37199403 .6450348 .32598878 .632843 .27198792 .632843 .21299744 .632843 .1639862 .6480255 .1329956 .6600342 .12298584 .66503909 .12098694 .66503909 .11999512 .66503909 .10699463 .66503909 .10699463 .6540375 .10699463 .6358948V.34292604C.10699463 .32492066 .10699463 .312912 .12298584 .312912 .1309967 .312912 .13398743 .3169098 .13899231 .32492066 .15098572 .33992005 .18899536 .39093019 .27398683 .39093019 .32998658 .39093019 .35699464 .34492494 .3659973 .32591249 .3829956 .28990174 .3849945 .24389649 .3849945 .20487976 .3849945 .1678772 .38398744 .11387634 .35598756 .069732669 .33699037 .039611818 .29699708 .008514404 .24398804 .008514404 .1789856 .008514404 .114990238 .0496521 .09199524 .11488342 .09498596 .11387634 .100997928 .11387634 .101989749 .11387634 .12998963 .11387634 .1519928 .13188172 .1519928 .16288758 .1519928 .19989014 .12298584 .21289063 .102996829 .21289063 .084991458 .21289063 .052993776 .20288086 .052993776 .15988159 .052993776 .069732669 .1309967-.021484375 .24598694-.021484375 .37098695-.021484375 .47698976 .07574463 .47698976 .19989014 .47698976 .31591798 .3929901 .4189453 .2749939 .4189453 .22499085 .4189453 .17799378 .40293885 .13999939 .368927V.5618439Z"/>
<clipPath id="clip_3">
<path transform="matrix(1,0,0,-1,11.626999,354.833)" d="M0 126.90575H142.76897V333.1276H0Z"/>
</clipPath>
<path id="font_4_3" d="M.33399964 .30233766C.33999635 .32835389 .36299134 .42037965 .43299867 .42037965 .43798829 .42037965 .46199037 .42037965 .48298646 .40734864 .45498658 .402359 .43499757 .37734986 .43499757 .35334779 .43499757 .33735658 .44599916 .31835938 .47299195 .31835938 .49499513 .31835938 .5269928 .3363495 .5269928 .37635804 .5269928 .42837525 .46798707 .4423828 .43399049 .4423828 .37599183 .4423828 .34098817 .38935853 .32899476 .36634828 .3039856 .43237306 .25 .4423828 .22099304 .4423828 .116989139 .4423828 .05999756 .3133545 .05999756 .28834535 .05999756 .27833558 .069992069 .27833558 .07199097 .27833558 .07998657 .27833558 .08299255 .28033448 .084991458 .28933717 .11898804 .39535523 .18499756 .42037965 .21899414 .42037965 .23799134 .42037965 .272995 .4113617 .272995 .35334779 .272995 .32235719 .2559967 .25532533 .21899414 .11528015 .20298767 .053268434 .16799927 .011245728 .12399292 .011245728 .117996219 .011245728 .09498596 .011245728 .07398987 .024276734 .09899902 .029266358 .12098694 .05027771 .12098694 .07827759 .12098694 .105270389 .09899902 .11328125 .083999637 .11328125 .053985597 .11328125 .0289917 .08728027 .0289917 .055267335 .0289917 .009246826 .07899475-.0107421879 .12298584-.0107421879 .18899536-.0107421879 .22499085 .059280397 .22799683 .0652771 .23999024 .028274537 .27598573-.0107421879 .33599855-.0107421879 .43899537-.0107421879 .49598695 .118270877 .49598695 .14328003 .49598695 .1532898 .4869995 .1532898 .48399354 .1532898 .47499085 .1532898 .47299195 .14929199 .47099305 .14228821 .43798829 .03527832 .36999513 .011245728 .33799745 .011245728 .29899598 .011245728 .2829895 .043273927 .2829895 .07727051 .2829895 .09927368 .2889862 .121276859 .2999878 .16529846L.33399964 .30233766Z"/>
<path id="font_4_4" d="M.48599244 .38136292C.48999024 .39537049 .48999024 .39736939 .48999024 .40437318 .48999024 .42237855 .47599793 .43138124 .46099855 .43138124 .45098878 .43138124 .43499757 .42536927 .42599488 .41036988 .42399598 .405365 .41600038 .37435914 .4119873 .35635377 .40499879 .33035279 .397995 .30334474 .3919983 .27633668L.34700013 .09628296C.34298707 .08126831 .2999878 .011245728 .23399353 .011245728 .18299866 .011245728 .17199707 .055267335 .17199707 .0922699 .17199707 .1382904 .18899536 .20030213 .22299195 .28833009 .23899842 .3293457 .24299622 .3403473 .24299622 .36035157 .24299622 .405365 .21099854 .4423828 .16099549 .4423828 .06599426 .4423828 .0289917 .29733277 .0289917 .28833009 .0289917 .27833558 .038986207 .27833558 .040985109 .27833558 .050994874 .27833558 .051986696 .28033448 .056991579 .29634095 .083999637 .3903656 .12399292 .42037965 .1579895 .42037965 .1659851 .42037965 .18299866 .42037965 .18299866 .3883667 .18299866 .36335755 .17298889 .3373413 .1659851 .31834413 .12599182 .21231079 .10798645 .1552887 .10798645 .10827637 .10798645 .019256592 .17098999-.0107421879 .22999573-.0107421879 .2689972-.0107421879 .30299378 .0062561037 .33099366 .03425598 .31799317-.017745972 .30599977-.06674194 .2659912-.11973572 .23999024-.15385437 .20199585-.18309021 .1559906-.18309021 .14199829-.18309021 .09700012-.18005371 .07998657-.14074707 .09599304-.14074707 .10899353-.14074707 .12298584-.1287384 .1329956-.11973572 .14299011-.10673523 .14299011-.08773804 .14299011-.056747438 .115997318-.052734376 .10598755-.052734376 .08299255-.052734376 .049987794-.068740848 .049987794-.11773682 .049987794-.16796875 .09399414-.20507813 .1559906-.20507813 .25898744-.20507813 .3619995-.11373901 .3899994-.00074768069L.48599244 .38136292Z"/>
<path id="font_4_2" d="M.36698915 .3996582H.45298768C.47299195 .3996582 .48298646 .3996582 .48298646 .41966249 .48298646 .43066407 .47299195 .43066407 .45599366 .43066407H.37298585L.3939972 .5449524C.397995 .5660095 .4119873 .6370239 .41799928 .6490326 .4269867 .66804507 .44400025 .68307498 .46499635 .68307498 .46899415 .68307498 .49499513 .68307498 .5139923 .66503909 .46998597 .661026 .45999146 .6260376 .45999146 .6110382 .45999146 .58802798 .47799684 .57603457 .49699403 .57603457 .522995 .57603457 .5519867 .5980377 .5519867 .6360321 .5519867 .6820679 .5059967 .7050781 .46499635 .7050781 .43099977 .7050781 .36799623 .68707278 .33799745 .58802798 .33198548 .56700137 .32899476 .5569763 .30499269 .43066407H.23599243C.21699524 .43066407 .20599365 .43066407 .20599365 .4116516 .20599365 .3996582 .21499634 .3996582 .23399353 .3996582H.2999878L.22499085 .0048828127C.20698548-.09207153 .18998719-.18309021 .13798523-.18309021 .13398743-.18309021 .10899353-.18309021 .08999634-.16506958 .13598633-.1620636 .14498902-.12606812 .14498902-.111068729 .14498902-.08807373 .1269989-.07606506 .10798645-.07606506 .08198547-.07606506 .052993776-.09806824 .052993776-.13606262 .052993776-.18109131 .09700012-.20507813 .13798523-.20507813 .19299317-.20507813 .23298645-.14607239 .25099183-.108062747 .2829895-.04508972 .30599977 .07583618 .30699159 .082839969L.36698915 .3996582Z"/>
<path id="font_5_1" d="M.33099366-.2400055C.33099366-.23701477 .33099366-.23500061 .31399537-.21800232 .18899536-.0920105 .15699768 .09700012 .15699768 .25 .15699768 .42399598 .19499207 .59799197 .31799317 .72299197 .33099366 .73498538 .33099366 .7369995 .33099366 .73999026 .33099366 .746994 .32699586 .75 .32099916 .75 .31098939 .75 .22099304 .6819916 .1619873 .5549927 .11099243 .44499208 .09899902 .33399964 .09899902 .25 .09899902 .17199707 .10998535 .050994874 .16499329-.06201172 .22499085-.18501282 .31098939-.25 .32099916-.25 .32699586-.25 .33099366-.24700928 .33099366-.2400055Z"/>
<path id="font_5_2" d="M.2889862 .25C.2889862 .32798768 .27799989 .44898988 .22299195 .56199648 .16299439 .68499758 .07699585 .75 .066986087 .75 .06098938 .75 .056991579 .74598696 .056991579 .73999026 .056991579 .7369995 .056991579 .73498538 .07598877 .71699526 .17399597 .6179962 .23098755 .45899964 .23098755 .25 .23098755 .07899475 .19400025-.09700012 .069992069-.2230072 .056991579-.23500061 .056991579-.23701477 .056991579-.2400055 .056991579-.2460022 .06098938-.25 .066986087-.25 .07699585-.25 .16699219-.18200684 .22599793-.055007936 .2769928 .054992677 .2889862 .16600037 .2889862 .25Z"/>
<path id="font_5_3" d="M.68699648 .32714845C.70199587 .32714845 .72099307 .32714845 .72099307 .34713746 .72099307 .36714173 .70199587 .36714173 .6879883 .36714173H.08898926C.07499695 .36714173 .055999757 .36714173 .055999757 .34713746 .055999757 .32714845 .07499695 .32714845 .08999634 .32714845H.68699648M.6879883 .13284302C.70199587 .13284302 .72099307 .13284302 .72099307 .15284729 .72099307 .17285156 .70199587 .17285156 .68699648 .17285156H.08999634C.07499695 .17285156 .055999757 .17285156 .055999757 .15284729 .055999757 .13284302 .07499695 .13284302 .08898926 .13284302H.6879883Z"/>
<path id="font_4_1" d="M.18699646 .23144531C.21598816 .23144531 .2899933 .23344422 .33999635 .2544403 .4099884 .28442384 .4149933 .34339906 .4149933 .35740663 .4149933 .40138246 .3769989 .4423828 .30799867 .4423828 .19699097 .4423828 .04598999 .34539796 .04598999 .17037964 .04598999 .06829834 .10499573-.0107421879 .20298767-.0107421879 .34599305-.0107421879 .42999269 .095321658 .42999269 .10733032 .42999269 .113342288 .42399598 .12034607 .41799928 .12034607 .41299439 .12034607 .41099549 .11834717 .40499879 .1103363 .32598878 .011245728 .21699524 .011245728 .20498657 .011245728 .1269989 .011245728 .117996219 .095321658 .117996219 .12734986 .117996219 .13935852 .11898804 .17037964 .13398743 .23144531H.18699646M.13999939 .25343324C.1789856 .40538026 .28199769 .42037965 .30799867 .42037965 .35499574 .42037965 .38198854 .39138795 .38198854 .35740663 .38198854 .25343324 .22200012 .25343324 .18099976 .25343324H.13999939Z"/>
<path id="font_6_1" d="M.24899292 .10601807C.23899842 .072021488 .20599365 .018234253 .15499878 .018234253 .1519928 .018234253 .12199402 .018234253 .100997928 .03215027 .14199829 .04508972 .14498902 .08100891 .14498902 .087020877 .14498902 .10900879 .12799073 .12402344 .10499573 .12402344 .07699585 .12402344 .04798889 .10002136 .04798889 .0630188 .04798889 .01322937 .10398865-.009765625 .15299988-.009765625 .19898987-.009765625 .23999024 .019226075 .2649994 .061019899 .2889862 .008224487 .34399415-.009765625 .38398744-.009765625 .49899293-.009765625 .55999758 .11502075 .55999758 .14305115 .55999758 .15608216 .5469971 .15608216 .5439911 .15608216 .5299988 .15608216 .5289917 .15107727 .5249939 .13905335 .5039978 .07002258 .44400025 .018234253 .3880005 .018234253 .34799195 .018234253 .32699586 .04508972 .32699586 .08302307 .32699586 .10900879 .35099793 .20018006 .3789978 .31140138 .39898683 .38841249 .44400025 .4133911 .47698976 .4133911 .47898866 .4133911 .5099945 .4133911 .5309906 .39941407 .49899293 .39041139 .4869995 .3624115 .4869995 .34440614 .4869995 .32240296 .5039978 .30740357 .5269928 .30740357 .5499878 .30740357 .58299258 .32640077 .58299258 .3684082 .58299258 .4243927 .5189972 .44140626 .47898866 .44140626 .42900086 .44140626 .3889923 .4084015 .36698915 .3704071 .34899903 .4113922 .30299378 .44140626 .24699402 .44140626 .1349945 .44140626 .070999149 .31840516 .070999149 .2883606 .070999149 .27534486 .084991458 .27534486 .08799744 .27534486 .100997928 .27534486 .101989749 .27934266 .10699463 .29237367 .13198853 .3704071 .19499207 .4133911 .24398804 .4133911 .2769928 .4133911 .3039856 .395401 .3039856 .3474121 .3039856 .32740785 .2919922 .27734376 .2829895 .24327088L.24899292 .10601807Z"/>
<path id="font_7_1" d="M.74398806 .2263794C.7599945 .2263794 .7839966 .2263794 .7839966 .25038148 .7839966 .27539063 .7609863 .27539063 .74398806 .27539063H.147995C.13198853 .27539063 .10798645 .27539063 .10798645 .25138856 .10798645 .2263794 .1309967 .2263794 .147995 .2263794H.74398806Z"/>
<path id="font_8_1" d="M.33499146 .63612368C.33499146 .6630554 .33299256 .6640625 .30499269 .6640625 .24099732 .6014404 .1499939 .6004486 .10899353 .6004486V.5644531C.1329956 .5644531 .19898987 .5644531 .2539978 .592453V.08203125C.2539978 .04899597 .2539978 .035995485 .1539917 .035995485H.115997318V0C.13398743 .0009918213 .25698854 .0039978029 .2939911 .0039978029 .32499696 .0039978029 .45098878 .0009918213 .47299195 0V.035995485H.43499757C.33499146 .035995485 .33499146 .04899597 .33499146 .08203125V.63612368Z"/>
</defs>
<path transform="matrix(1,0,0,-1,11.626999,354.833)" stroke-width=".09962" stroke-linecap="butt" stroke-miterlimit="10" stroke-linejoin="miter" fill="none" stroke="#d9d9d9" d="M15.8632 126.90575V333.1276M47.58965 126.90575V333.1276M79.31609 126.90575V333.1276M111.04253 126.90575V333.1276M142.76897 126.90575V333.1276"/>
<path transform="matrix(1,0,0,-1,11.626999,354.833)" stroke-width=".19925" stroke-linecap="butt" stroke-miterlimit="10" stroke-linejoin="miter" fill="none" stroke="#b2b3b2" d="M0 126.90575V333.1276M63.45287 126.90575V333.1276M95.1793 126.90575V333.1276M126.90575 126.90575V333.1276"/>
<path transform="matrix(1,0,0,-1,11.626999,354.833)" stroke-width=".09962" stroke-linecap="butt" stroke-miterlimit="10" stroke-linejoin="miter" fill="none" stroke="#d9d9d9" d="M0 142.76897H142.76897M0 174.4954H142.76897M0 206.22183H142.76897M0 237.94828H142.76897M0 269.6747H142.76897M0 301.40116H142.76897M0 333.1276H142.76897"/>
<path transform="matrix(1,0,0,-1,11.626999,354.833)" stroke-width=".19925" stroke-linecap="butt" stroke-miterlimit="10" stroke-linejoin="miter" fill="none" stroke="#b2b3b2" d="M0 126.90575H142.76897M0 190.35861H142.76897M0 222.08506H142.76897M0 253.8115H142.76897M0 285.53794H142.76897M0 317.26438H142.76897"/>
<path transform="matrix(1,0,0,-1,11.626999,354.833)" stroke-width=".19925" stroke-linecap="butt" stroke-miterlimit="10" stroke-linejoin="miter" fill="none" stroke="#7f807f" d="M15.8632 157.2152V160.04917M47.58965 157.2152V160.04917M79.31609 157.2152V160.04917M111.04253 157.2152V160.04917M142.76897 157.2152V160.04917"/>
<path transform="matrix(1,0,0,-1,11.626999,354.833)" stroke-width=".19925" stroke-linecap="butt" stroke-miterlimit="10" stroke-linejoin="miter" fill="none" stroke="#7f807f" d="M0 156.50646V160.75789M63.45287 156.50646V160.75789M95.1793 156.50646V160.75789M126.90575 156.50646V160.75789"/>
<path transform="matrix(1,0,0,-1,11.626999,354.833)" stroke-width=".19925" stroke-linecap="butt" stroke-miterlimit="10" stroke-linejoin="miter" fill="none" stroke="#7f807f" d="M30.30943 142.76897H33.1434M30.30943 174.4954H33.1434M30.30943 206.22183H33.1434M30.30943 237.94828H33.1434M30.30943 269.6747H33.1434M30.30943 301.40116H33.1434M30.30943 333.1276H33.1434"/>
<path transform="matrix(1,0,0,-1,11.626999,354.833)" stroke-width=".19925" stroke-linecap="butt" stroke-miterlimit="10" stroke-linejoin="miter" fill="none" stroke="#7f807f" d="M29.60071 126.90575H33.85214M29.60071 190.35861H33.85214M29.60071 222.08506H33.85214M29.60071 253.8115H33.85214M29.60071 285.53794H33.85214M29.60071 317.26438H33.85214"/>
<path transform="matrix(1,0,0,-1,11.626999,354.833)" stroke-width=".3985" stroke-linecap="butt" stroke-miterlimit="10" stroke-linejoin="miter" fill="none" stroke="#000000" d="M-6.37622 158.63219H149.14519"/>
<path transform="matrix(-1,-0,0,1,5.2507789,196.20082)" d="M3.58653 0C2.52383 .19925 .797 .797-.3985 1.49438V-1.49438C.797-.797 2.52383-.19925 3.58653 0"/>
<path transform="matrix(1,0,0,-1,160.77219,196.20082)" d="M3.58653 0C2.52383 .19925 .797 .797-.3985 1.49438V-1.49438C.797-.797 2.52383-.19925 3.58653 0"/>
<path transform="matrix(1,0,0,-1,11.626999,354.833)" stroke-width=".3985" stroke-linecap="butt" stroke-miterlimit="10" stroke-linejoin="miter" fill="none" stroke="#000000" d="M31.72643 120.52951V339.5038"/>
<path transform="matrix(0,1,1,0,43.35343,234.3035)" d="M3.58653 0C2.52383 .19925 .797 .797-.3985 1.49438V-1.49438C.797-.797 2.52383-.19925 3.58653 0"/>
<path transform="matrix(0,-1,-1,-0,43.35343,15.329193)" d="M3.58653 0C2.52383 .19925 .797 .797-.3985 1.49438V-1.49438C.797-.797 2.52383-.19925 3.58653 0"/>
<use data-text="&#x2212;" xlink:href="#font_1_1" transform="matrix(7.9701,0,0,-7.9701,6.2169954,206.983)"/>
<use data-text="1" xlink:href="#font_2_1" transform="matrix(7.9701,0,0,-7.9701,12.803993,206.983)"/>
<use data-text="1" xlink:href="#font_2_1" transform="matrix(7.9701,0,0,-7.9701,72.963,206.983)"/>
<use data-text="2" xlink:href="#font_2_2" transform="matrix(7.9701,0,0,-7.9701,104.688999,206.983)"/>
<use data-text="3" xlink:href="#font_2_3" transform="matrix(7.9701,0,0,-7.9701,136.416,206.983)"/>
<use data-text="&#x2212;" xlink:href="#font_1_1" transform="matrix(7.9701,0,0,-7.9701,26.887001,230.08002)"/>
<use data-text="1" xlink:href="#font_2_1" transform="matrix(7.9701,0,0,-7.9701,33.474,230.08002)"/>
<use data-text="1" xlink:href="#font_2_1" transform="matrix(7.9701,0,0,-7.9701,33.474,167.04302)"/>
<use data-text="2" xlink:href="#font_2_2" transform="matrix(7.9701,0,0,-7.9701,33.474,135.31601)"/>
<use data-text="3" xlink:href="#font_2_3" transform="matrix(7.9701,0,0,-7.9701,33.474,103.59001)"/>
<use data-text="4" xlink:href="#font_2_4" transform="matrix(7.9701,0,0,-7.9701,33.474,71.86301)"/>
<use data-text="5" xlink:href="#font_2_5" transform="matrix(7.9701,0,0,-7.9701,33.474,40.136995)"/>
<g clip-path="url(#clip_3)">
<path transform="matrix(1,0,0,-1,11.626999,354.833)" stroke-width=".79701" stroke-linecap="butt" stroke-miterlimit="10" stroke-linejoin="miter" fill="none" stroke="#0000ff" d="M-126.90575 158.84615C-126.90575 158.84615-117.35493 158.91799-113.6867 158.95653-110.0185 158.99509-104.13597 159.06552-100.46768 159.12403-96.79938 159.18253-90.91647 159.2894-87.24817 159.37819-83.57988 159.46698-77.69736 159.62935-74.02914 159.764-70.36092 159.89867-64.47835 160.14456-60.81012 160.34882-57.1419 160.55307-51.25938 160.92621-47.5911 161.23619-43.92279 161.54618-38.03989 162.113-34.37158 162.58298-30.7033 163.05295-24.82079 163.91063-21.15256 164.62348-17.48433 165.33634-11.60175 166.63899-7.93352 167.72081-4.2653 168.80263 1.61717 170.77912 5.28546 172.42052 8.95375 174.06192 14.83669 177.06145 18.50497 179.55092 22.17328 182.0404 28.05577 186.58882 31.724 190.36296 35.39223 194.13712 41.27481 201.02754 44.94302 206.75241 48.61125 212.47728 54.49382 222.93848 58.16205 231.62389 61.83028 240.3093 67.71278 256.17546 71.38107 269.35084 75.04938 282.5262 80.9323 306.59703 84.6006 326.58293 88.26889 346.56886 94.1514 383.07948 97.81961 413.39543 101.48784 443.7114 107.37042 499.09358 111.03865 545.07937 114.70686 591.06509 120.58937 675.07308 124.25766 744.8286 127.92596 814.5842 133.80889 942.01919 137.47719 1047.8289 141.14548 1153.6384 147.02799 1346.9318 150.6962 1507.4308 154.36443 1667.9298 160.24701 1961.1249 163.91524 2204.5938 167.58345 2448.0628 173.46598 2892.8614 177.13426 3262.185 180.80257 3631.509 190.35378 4866.423 190.35378 4866.423"/>
<path transform="matrix(1,0,0,-1,11.626999,354.833)" stroke-width=".79701" stroke-linecap="butt" stroke-miterlimit="10" stroke-linejoin="miter" fill="none" stroke="#ff0000" d="M34.89926 85.57945C34.89926 85.57945 38.14653 107.65915 39.39372 113.57391 40.6409 119.48866 42.64098 124.79382 43.88817 128.20896 45.13535 131.62407 47.13542 135.75203 48.38261 138.18785 49.6298 140.62366 51.62982 143.86473 52.87706 145.7646 54.12431 147.66448 56.12474 150.32137 57.37198 151.88082 58.61923 153.44026 60.61925 155.68137 61.86644 157.00412 63.11362 158.32688 65.1137 160.26543 66.36089 161.41434 67.60806 162.56327 69.6081 164.26912 70.85533 165.28478 72.10258 166.30045 74.10303 167.82445 75.35027 168.73451 76.59752 169.64459 78.59753 171.0191 79.84473 171.84394 81.0919 172.66876 83.09198 173.92552 84.33917 174.67935 85.58635 175.4332 87.58644 176.58364 88.83362 177.27707 90.08081 177.9705 92.08083 179.03339 93.32806 179.67726 94.57532 180.32115 96.57576 181.31737 97.823 181.91773 99.07025 182.51808 101.07027 183.44297 102.31746 184.00423 103.56464 184.56548 105.56471 185.43524 106.8119 185.96292 108.0591 186.4906 110.05911 187.30959 111.30635 187.80736 112.5536 188.30513 114.55405 189.07953 115.80128 189.55063 117.04854 190.02175 119.04855 190.75576 120.29575 191.2029 121.54292 191.65003 123.543 192.34803 124.79019 192.77333 126.03737 193.19864 128.03746 193.8625 129.28464 194.26827 130.53183 194.67403 132.53185 195.31008 133.77909 195.69783 135.02634 196.08559 137.02678 196.69144 138.27404 197.063 139.52127 197.43457 142.76848 198.37592 142.76848 198.37592"/>
<path transform="matrix(1,0,0,-1,11.626999,354.833)" stroke-width=".79701" stroke-linecap="butt" stroke-dasharray="2.98883,2.98883" stroke-miterlimit="10" stroke-linejoin="miter" fill="none" stroke="#000000" d="M-126.90575 0-113.6867 13.21901-100.46768 26.43805-87.24817 39.65755-74.02914 52.87657-60.81012 66.0956-47.5911 79.31462-34.37158 92.53413-21.15256 105.75316-7.93352 118.9722 5.28546 132.19121 18.50497 145.41074 31.724 158.62975 44.94302 171.84879 58.16205 185.0678 71.38107 198.28684 84.6006 211.50635 97.81961 224.72537 111.03865 237.9444 124.25766 251.16342 137.47719 264.38294 150.6962 277.60194 163.91524 290.82099 177.13426 304.04 190.35378 317.25953"/>
</g>
<use data-text="x" xlink:href="#font_4_3" transform="matrix(9.9626,0,0,-9.9626,167.908,198.315)"/>
<use data-text="y" xlink:href="#font_4_4" transform="matrix(9.9626,0,0,-9.9626,40.739,6.2059938)"/>
<path transform="matrix(1,0,0,-1,11.626999,354.833)" d="M127.105 265.39054H197.20435V305.6853H127.105Z" fill="#ffffff"/>
<path transform="matrix(1,0,0,-1,11.626999,354.833)" stroke-width=".3985" stroke-linecap="butt" stroke-miterlimit="10" stroke-linejoin="miter" fill="none" stroke="#000000" d="M127.105 265.39054H197.20435V305.6853H127.105Z"/>
<path transform="matrix(1,0,0,-1,142.12,57.615999)" stroke-width=".79701" stroke-linecap="butt" stroke-miterlimit="10" stroke-linejoin="miter" fill="none" stroke="#0000ff" d="M0 0C0 0 6.14426 0 8.50412 0 10.86398 0 17.00826 0 17.00826 0"/>
<use data-text="f" xlink:href="#font_4_2" transform="matrix(9.9626,0,0,-9.9626,161.519,60.604997)"/>
<use data-text="(" xlink:href="#font_5_1" transform="matrix(9.9626,0,0,-9.9626,167.469,60.604997)"/>
<use data-text="x" xlink:href="#font_4_3" transform="matrix(9.9626,0,0,-9.9626,171.34299,60.604997)"/>
<use data-text=")" xlink:href="#font_5_2" transform="matrix(9.9626,0,0,-9.9626,177.03699,60.604997)"/>
<use data-text="=" xlink:href="#font_5_3" transform="matrix(9.9626,0,0,-9.9626,183.66214,60.604997)"/>
<use data-text="e" xlink:href="#font_4_1" transform="matrix(9.9626,0,0,-9.9626,194.195,60.604997)"/>
<use data-text="x" xlink:href="#font_6_1" transform="matrix(6.9738,0,0,-6.9738,198.83399,56.990007)"/>
<path transform="matrix(1,0,0,-1,142.12,70.88602)" stroke-width=".79701" stroke-linecap="butt" stroke-miterlimit="10" stroke-linejoin="miter" fill="none" stroke="#ff0000" d="M0 0C0 0 6.14426 0 8.50412 0 10.86398 0 17.00826 0 17.00826 0"/>
<use data-text="f" xlink:href="#font_4_2" transform="matrix(9.9626,0,0,-9.9626,161.519,74.194019)"/>
<use data-text="&#x2212;" xlink:href="#font_7_1" transform="matrix(6.9738,0,0,-6.9738,167.469,70.579029)"/>
<use data-text="1" xlink:href="#font_8_1" transform="matrix(6.9738,0,0,-6.9738,173.69599,70.579029)"/>
<use data-text="(" xlink:href="#font_5_1" transform="matrix(9.9626,0,0,-9.9626,178.16498,74.194019)"/>
<use data-text="x" xlink:href="#font_4_3" transform="matrix(9.9626,0,0,-9.9626,182.03998,74.194019)"/>
<use data-text=")" xlink:href="#font_5_2" transform="matrix(9.9626,0,0,-9.9626,187.73297,74.194019)"/>
<path transform="matrix(1,0,0,-1,142.12,82.565)" stroke-width=".79701" stroke-linecap="butt" stroke-dasharray="2.98883,2.98883" stroke-miterlimit="10" stroke-linejoin="miter" fill="none" stroke="#000000" d="M0 0H8.50412 17.00826"/>
<use data-text="y" xlink:href="#font_4_4" transform="matrix(9.9626,0,0,-9.9626,161.519,83.963)"/>
<use data-text="=" xlink:href="#font_5_3" transform="matrix(9.9626,0,0,-9.9626,169.528,83.963)"/>
<use data-text="x" xlink:href="#font_4_3" transform="matrix(9.9626,0,0,-9.9626,180.04502,83.963)"/>
</svg>
