<svg xmlns="http://www.w3.org/2000/svg" xmlns:xlink="http://www.w3.org/1999/xlink" xmlns:inkscape="http://www.inkscape.org/namespaces/inkscape" version="1.1" width="151" height="147" viewBox="0 0 151 147">
<defs>
<path id="font_1_1" d="M.45999146 .31976319C.45999146 .39982606 .45498658 .47988893 .41999818 .5539398 .37399293 .65000918 .2919922 .6660156 .25 .6660156 .18998719 .6660156 .116989139 .64001467 .07598877 .54693606 .04399109 .47789 .038986207 .39982606 .038986207 .31976319 .038986207 .24472046 .042999269 .15464783 .083999637 .07859802 .1269989-.0024719239 .19999695-.022460938 .24899292-.022460938 .30299378-.022460938 .3789978-.0014648438 .4229889 .09359741 .45498658 .16265869 .45999146 .2407074 .45999146 .31976319M.24899292-.00047302247C.20999146-.00047302247 .15098572 .024551392 .1329956 .12062073 .12199402 .18066406 .12199402 .2727356 .12199402 .3317871 .12199402 .39582826 .12199402 .46188355 .12998963 .5159149 .14898682 .63500979 .22399903 .64401248 .24899292 .64401248 .28199769 .64401248 .34799195 .6259918 .36698915 .52693179 .3769989 .47088624 .3769989 .39482118 .3769989 .3317871 .3769989 .25672914 .3769989 .18867493 .3659973 .12461853 .35099793 .029556275 .2939911-.00047302247 .24899292-.00047302247Z"/>
<path id="font_2_1" d="M.5069885 .24998474C.5069885 .3710022 .4099884 .4650116 .2919922 .4650116 .17199707 .4650116 .07699585 .36799623 .07699585 .25097657 .07699585 .1299591 .17399597 .035949708 .2919922 .035949708 .4119873 .035949708 .5069885 .13296509 .5069885 .24998474M.2919922 .08496094C.19799805 .08496094 .12599182 .16096497 .12599182 .24998474 .12599182 .34300233 .19999695 .41601563 .2919922 .41601563 .38598634 .41601563 .45799256 .33999635 .45799256 .25097657 .45799256 .15795899 .38398744 .08496094 .2919922 .08496094Z"/>
<path id="font_1_4" d="M.2899933 .35191346C.37199403 .37893678 .42999269 .4490509 .42999269 .52809146 .42999269 .6100464 .34199525 .6660156 .24598694 .6660156 .14498902 .6660156 .068984989 .60606387 .068984989 .53009036 .068984989 .49710084 .09098816 .47808839 .11999512 .47808839 .15098572 .47808839 .17098999 .50009158 .17098999 .5290985 .17098999 .57910159 .12399292 .57910159 .10899353 .57910159 .13999939 .62802127 .20599365 .64100649 .24198914 .64100649 .2829895 .64100649 .33799745 .6190338 .33799745 .5290985 .33799745 .51708987 .33599855 .45906068 .30999757 .4149933 .27999879 .36691285 .24598694 .36390687 .22099304 .36291505 .21299744 .36190797 .18899536 .35990907 .18199158 .35990907 .17399597 .35890199 .16699219 .35791017 .16699219 .3479004 .16699219 .33691407 .17399597 .33691407 .19099427 .33691407H.23498535C.31698609 .33691407 .35398866 .2686615 .35398866 .17037964 .35398866 .034469606 .2849884 .0055389406 .24099732 .0055389406 .19799805 .0055389406 .12298584 .022491456 .08799744 .08137512 .12298584 .07637024 .1539917 .09837341 .1539917 .1363678 .1539917 .17237854 .1269989 .19238281 .09799194 .19238281 .07398987 .19238281 .041992189 .17837525 .041992189 .1343689 .041992189 .043441774 .1349945-.022460938 .24398804-.022460938 .3659973-.022460938 .45700074 .06838989 .45700074 .17037964 .45700074 .252594 .3939972 .33088685 .2899933 .35191346Z"/>
<path id="font_1_7" d="M.13198853 .327713V.35173036C.13198853 .6047821 .2559967 .64100649 .30699159 .64100649 .33099366 .64100649 .37298585 .634964 .394989 .6007538 .37998963 .6007538 .33999635 .6007538 .33999635 .5557556 .33999635 .524765 .3639984 .5097656 .38598634 .5097656 .4019928 .5097656 .43199159 .51875308 .43199159 .5577545 .43199159 .6178589 .3880005 .6660156 .30499269 .6660156 .1769867 .6660156 .041992189 .5367584 .041992189 .31570436 .041992189 .048553468 .1579895-.022460938 .25099183-.022460938 .3619995-.022460938 .45700074 .07156372 .45700074 .2036438 .45700074 .33070375 .36799623 .4267578 .25698854 .4267578 .18899536 .4267578 .1519928 .37573243 .13198853 .327713M.25099183 .0055389406C.18798828 .0055389406 .1579895 .06556702 .1519928 .080566409 .13398743 .127594 .13398743 .2076416 .13398743 .22564698 .13398743 .30369569 .1659851 .40374757 .2559967 .40374757 .27198792 .40374757 .31799317 .40374757 .34899903 .34172059 .36698915 .30470277 .36698915 .2536621 .36698915 .20463562 .36698915 .15661621 .36698915 .10658264 .34999085 .0705719 .31999208 .010528564 .27398683 .0055389406 .25099183 .0055389406Z"/>
<path id="font_1_10" d="M.36698915 .31781007V.28579713C.36698915 .05178833 .2630005 .0055389406 .20498657 .0055389406 .18798828 .0055389406 .13398743 .007537842 .10699463 .041778566 .15098572 .041778566 .15899658 .07078552 .15899658 .08778381 .15899658 .118774417 .1349945 .13378906 .11299133 .13378906 .09700012 .13378906 .066986087 .12478638 .066986087 .08578491 .066986087 .018615723 .12098694-.022460938 .20599365-.022460938 .33499146-.022460938 .45700074 .11378479 .45700074 .32881166 .45700074 .5979767 .34199525 .6660156 .25299073 .6660156 .19799805 .6660156 .14898682 .64801028 .10598755 .60298159 .06498718 .5579529 .041992189 .5159302 .041992189 .44088746 .041992189 .31581117 .12998963 .21777344 .24198914 .21777344 .30299378 .21777344 .34399415 .25978089 .36698915 .31781007M.24299622 .24076844C.22698975 .24076844 .18099976 .24076844 .1499939 .3038025 .13198853 .3408203 .13198853 .39085389 .13198853 .43988038 .13198853 .49391175 .13198853 .54093936 .15299988 .5779724 .17999268 .6279907 .21798706 .64100649 .25299073 .64100649 .29899598 .64100649 .33198548 .60697939 .34899903 .5619507 .36099244 .52993777 .36499024 .4669037 .36499024 .42086793 .36499024 .3378296 .33099366 .24076844 .24299622 .24076844Z"/>
<path id="font_1_2" d="M.2939911 .64004519C.2939911 .66400149 .2939911 .6660156 .2709961 .6660156 .20899964 .60227969 .12098694 .60227969 .08898926 .60227969V.57128909C.10899353 .57128909 .16799927 .57128909 .21998596 .5972748V.07902527C.21998596 .042999269 .21699524 .0309906 .1269989 .0309906H.09498596V0C.12998963 .0029907227 .21699524 .0029907227 .25698854 .0029907227 .29699708 .0029907227 .38398744 .0029907227 .4189911 0V.0309906H.3869934C.29699708 .0309906 .2939911 .041992189 .2939911 .07902527V.64004519Z"/>
<path id="font_1_3" d="M.1269989 .07699585 .23298645 .18003845C.3889923 .31811524 .44898988 .3721466 .44898988 .47216798 .44898988 .5860901 .35899354 .6660156 .23699951 .6660156 .12399292 .6660156 .049987794 .57411196 .049987794 .48516847 .049987794 .4291687 .099990848 .4291687 .102996829 .4291687 .11999512 .4291687 .15499878 .44117738 .15499878 .48217774 .15499878 .5081787 .13699341 .5341797 .101989749 .5341797 .09399414 .5341797 .09199524 .5341797 .08898926 .5331726 .11199951 .59806826 .1659851 .63500979 .22399903 .63500979 .31498719 .63500979 .35798646 .5541382 .35798646 .47216798 .35798646 .39215089 .30799867 .31311036 .25299073 .25108338L.06098938 .036987306C.049987794 .025985718 .049987794 .023986817 .049987794 0H.42099L.44898988 .17404175H.42399598C.4189911 .14402771 .4119873 .1000061 .4019928 .084991458 .394989 .07699585 .32899476 .07699585 .30699159 .07699585H.1269989Z"/>
<path id="font_1_6" d="M.44898988 .20022583C.44898988 .3193512 .36698915 .41944886 .25898744 .41944886 .21099854 .41944886 .16799927 .40345765 .13198853 .36842347V.5637665C.1519928 .5577698 .18499756 .55078127 .21699524 .55078127 .33999635 .55078127 .4099884 .6417694 .4099884 .6547699 .4099884 .6607666 .40699769 .6657715 .3999939 .6657715 .39898683 .6657715 .39698792 .6657715 .3919983 .66278079 .37199403 .6537781 .32299806 .6337738 .2559967 .6337738 .21598816 .6337738 .16999817 .6407776 .12298584 .6617737 .114990238 .66477969 .11299133 .66477969 .11099243 .66477969 .100997928 .66477969 .100997928 .6567688 .100997928 .6407776V.34439088C.100997928 .32637025 .100997928 .31835938 .114990238 .31835938 .12199402 .31835938 .12399292 .32136537 .12799073 .32736207 .13899231 .3433838 .17599488 .39746095 .25698854 .39746095 .30899049 .39746095 .33399964 .35139466 .34199525 .33337403 .35798646 .29632569 .3600006 .25727845 .3600006 .20722962 .3600006 .17222595 .3600006 .11222839 .33599855 .07035828 .31199647 .031463624 .2749939 .0055389406 .22898865 .0055389406 .1559906 .0055389406 .09899902 .058380128 .08198547 .11723328 .084991458 .1162262 .08799744 .115234378 .09899902 .115234378 .13198853 .115234378 .14898682 .14022827 .14898682 .16423035 .14898682 .18823242 .13198853 .21322632 .09899902 .21322632 .084991458 .21322632 .049987794 .20622254 .049987794 .16023255 .049987794 .07434082 .11898804-.022460938 .23098755-.022460938 .34700013-.022460938 .44898988 .073349 .44898988 .20022583Z"/>
<path id="font_1_9" d="M.16299439 .4569702C.116989139 .486969 .11299133 .52098086 .11299133 .5379791 .11299133 .598999 .17799378 .64100649 .24899292 .64100649 .32199098 .64100649 .38598634 .58898928 .38598634 .51698306 .38598634 .45996095 .34700013 .4119568 .2869873 .37695313L.16299439 .4569702M.30899049 .36193849C.3809967 .3989563 .42999269 .45095826 .42999269 .51698306 .42999269 .6090088 .34098817 .6660156 .25 .6660156 .1499939 .6660156 .068984989 .59199526 .068984989 .49897767 .068984989 .4809723 .070999149 .43595887 .11299133 .38894654 .12399292 .37695313 .16099549 .35194398 .18598938 .33494569 .12799073 .30592347 .041992189 .24984741 .041992189 .15072632 .041992189 .04458618 .14399719-.022460938 .24899292-.022460938 .3619995-.022460938 .45700074 .06060791 .45700074 .16773987 .45700074 .20379639 .44599916 .24885559 .4079895 .2909088 .3889923 .31193543 .37298585 .3219452 .30899049 .36193849M.20899964 .3199463 .33198548 .24183655C.3600006 .2228241 .40699769 .19277954 .40699769 .13169861 .40699769 .05760193 .33198548 .0055389406 .25 .0055389406 .1639862 .0055389406 .09199524 .067611698 .09199524 .15072632 .09199524 .20880127 .12399292 .27288819 .20899964 .3199463Z"/>
<path id="font_1_5" d="M.2939911 .16503906V.07800293C.2939911 .041992189 .2919922 .0309906 .21798706 .0309906H.19699097V0C.23799134 .0029907227 .2899933 .0029907227 .33198548 .0029907227 .37399293 .0029907227 .4269867 .0029907227 .46798707 0V.0309906H.44699098C.37298585 .0309906 .37098695 .041992189 .37098695 .07800293V.16503906H.47099305V.19602967H.37098695V.65075686C.37098695 .67074587 .37098695 .6767578 .35499574 .6767578 .34599305 .6767578 .34298707 .6767578 .33499146 .66474917L.027999878 .19602967V.16503906H.2939911M.2999878 .19602967H.055999757L.2999878 .5688019V.19602967Z"/>
<path id="font_1_8" d="M.47599793 .609375C.4850006 .6213684 .4850006 .62338259 .4850006 .64437869H.24198914C.11999512 .64437869 .117996219 .65737918 .11399841 .67637637H.08898926L.055999757 .4702301H.08099365C.083999637 .48625184 .09298706 .5493469 .10598755 .56137087 .11299133 .5673828 .19099427 .5673828 .20399475 .5673828H.41099549C.3999939 .5513611 .32099916 .4421997 .29899598 .40914918 .20899964 .27394105 .17599488 .1347351 .17599488 .032577516 .17599488 .022567749 .17599488-.022460938 .22200012-.022460938 .2679901-.022460938 .2679901 .022567749 .2679901 .032577516V.08366394C.2679901 .13873291 .2709961 .19381714 .2789917 .24790955 .2829895 .27093507 .29699708 .35707093 .34098817 .41915895L.47599793 .609375Z"/>
</defs>
<path transform="matrix(1.00006,0,0,-1,78.01585,73.382)" d="M28.3468 0C28.3468 15.6557 15.6557 28.3468 0 28.3468-15.6557 28.3468-28.3468 15.6557-28.3468 0-28.3468-15.6557-15.6557-28.3468 0-28.3468 15.6557-28.3468 28.3468-15.6557 28.3468 0ZM0 0" fill="#ffffff"/>
<path transform="matrix(1.00006,0,0,-1,78.01585,73.382)" stroke-width=".79701" stroke-linecap="butt" stroke-miterlimit="10" stroke-linejoin="miter" fill="none" stroke="#cccccc" d="M0 0H60.94566"/>
<path transform="matrix(1.00006,0,0,-1,78.01585,73.382)" stroke-width=".79701" stroke-linecap="butt" stroke-miterlimit="10" stroke-linejoin="miter" fill="none" stroke="#cccccc" d="M0 0 52.78044 30.47272"/>
<path transform="matrix(1.00006,0,0,-1,78.01585,73.382)" stroke-width=".79701" stroke-linecap="butt" stroke-miterlimit="10" stroke-linejoin="miter" fill="none" stroke="#cccccc" d="M0 0 30.47272 52.78044"/>
<path transform="matrix(1.00006,0,0,-1,78.01585,73.382)" stroke-width=".79701" stroke-linecap="butt" stroke-miterlimit="10" stroke-linejoin="miter" fill="none" stroke="#cccccc" d="M0 0V60.94566"/>
<path transform="matrix(1.00006,0,0,-1,78.01585,73.382)" stroke-width=".79701" stroke-linecap="butt" stroke-miterlimit="10" stroke-linejoin="miter" fill="none" stroke="#cccccc" d="M0 0-30.47272 52.78044"/>
<path transform="matrix(1.00006,0,0,-1,78.01585,73.382)" stroke-width=".79701" stroke-linecap="butt" stroke-miterlimit="10" stroke-linejoin="miter" fill="none" stroke="#cccccc" d="M0 0-52.78044 30.47272"/>
<path transform="matrix(1.00006,0,0,-1,78.01585,73.382)" stroke-width=".79701" stroke-linecap="butt" stroke-miterlimit="10" stroke-linejoin="miter" fill="none" stroke="#cccccc" d="M0 0H-60.94566"/>
<path transform="matrix(1.00006,0,0,-1,78.01585,73.382)" stroke-width=".79701" stroke-linecap="butt" stroke-miterlimit="10" stroke-linejoin="miter" fill="none" stroke="#cccccc" d="M0 0-52.78044-30.47272"/>
<path transform="matrix(1.00006,0,0,-1,78.01585,73.382)" stroke-width=".79701" stroke-linecap="butt" stroke-miterlimit="10" stroke-linejoin="miter" fill="none" stroke="#cccccc" d="M0 0-30.47272-52.78044"/>
<path transform="matrix(1.00006,0,0,-1,78.01585,73.382)" stroke-width=".79701" stroke-linecap="butt" stroke-miterlimit="10" stroke-linejoin="miter" fill="none" stroke="#cccccc" d="M0 0V-60.94566"/>
<path transform="matrix(1.00006,0,0,-1,78.01585,73.382)" stroke-width=".79701" stroke-linecap="butt" stroke-miterlimit="10" stroke-linejoin="miter" fill="none" stroke="#cccccc" d="M0 0 30.47272-52.78044"/>
<path transform="matrix(1.00006,0,0,-1,78.01585,73.382)" stroke-width=".79701" stroke-linecap="butt" stroke-miterlimit="10" stroke-linejoin="miter" fill="none" stroke="#cccccc" d="M0 0 52.78044-30.47272"/>
<path transform="matrix(1.00006,0,0,-1,78.01585,73.382)" stroke-width=".79701" stroke-linecap="butt" stroke-miterlimit="10" stroke-linejoin="miter" fill="none" stroke="#cccccc" d="M0 0H60.94566"/>
<path transform="matrix(1.00006,0,0,-1,78.01585,73.382)" stroke-width=".3985" stroke-linecap="butt" stroke-miterlimit="10" stroke-linejoin="miter" fill="none" stroke="#000000" d="M68.03238 0"/>
<use data-text="0" xlink:href="#font_1_1" transform="matrix(9.963197,0,0,-9.9626,141.27164,76.812007)"/>
<use data-text="&#x25e6;" xlink:href="#font_2_1" transform="matrix(6.9742186,0,0,-6.9738,146.25293,73.19701)"/>
<path transform="matrix(1.00006,0,0,-1,78.01585,73.382)" stroke-width=".3985" stroke-linecap="butt" stroke-miterlimit="10" stroke-linejoin="miter" fill="none" stroke="#000000" d="M58.91772 34.01608"/>
<use data-text="3" xlink:href="#font_1_4" transform="matrix(9.963197,0,0,-9.9626,129.66495,42.796007)"/>
<use data-text="0" xlink:href="#font_1_1" transform="matrix(9.963197,0,0,-9.9626,134.64653,42.796007)"/>
<use data-text="&#x25e6;" xlink:href="#font_2_1" transform="matrix(6.9742186,0,0,-6.9738,139.62755,39.181)"/>
<path transform="matrix(1.00006,0,0,-1,78.01585,73.382)" stroke-width=".3985" stroke-linecap="butt" stroke-miterlimit="10" stroke-linejoin="miter" fill="none" stroke="#000000" d="M34.01608 58.91772"/>
<use data-text="6" xlink:href="#font_1_7" transform="matrix(9.963197,0,0,-9.9626,104.76245,17.894005)"/>
<use data-text="0" xlink:href="#font_1_1" transform="matrix(9.963197,0,0,-9.9626,109.74403,17.894005)"/>
<use data-text="&#x25e6;" xlink:href="#font_2_1" transform="matrix(6.9742186,0,0,-6.9738,114.72505,14.279003)"/>
<path transform="matrix(1.00006,0,0,-1,78.01585,73.382)" stroke-width=".3985" stroke-linecap="butt" stroke-miterlimit="10" stroke-linejoin="miter" fill="none" stroke="#000000" d="M0 68.03238"/>
<use data-text="9" xlink:href="#font_1_10" transform="matrix(9.963197,0,0,-9.9626,70.74441,8.780006)"/>
<use data-text="0" xlink:href="#font_1_1" transform="matrix(9.963197,0,0,-9.9626,75.72599,8.780006)"/>
<use data-text="&#x25e6;" xlink:href="#font_2_1" transform="matrix(6.9742186,0,0,-6.9738,80.70701,5.1650049)"/>
<path transform="matrix(1.00006,0,0,-1,78.01585,73.382)" stroke-width=".3985" stroke-linecap="butt" stroke-miterlimit="10" stroke-linejoin="miter" fill="none" stroke="#000000" d="M-34.01608 58.91772"/>
<use data-text="1" xlink:href="#font_1_2" transform="matrix(9.963197,0,0,-9.9626,34.23523,17.894005)"/>
<use data-text="2" xlink:href="#font_1_3" transform="matrix(9.963197,0,0,-9.9626,39.216814,17.894005)"/>
<use data-text="0" xlink:href="#font_1_1" transform="matrix(9.963197,0,0,-9.9626,44.19841,17.894005)"/>
<use data-text="&#x25e6;" xlink:href="#font_2_1" transform="matrix(6.9742186,0,0,-6.9738,49.180116,14.279003)"/>
<path transform="matrix(1.00006,0,0,-1,78.01585,73.382)" stroke-width=".3985" stroke-linecap="butt" stroke-miterlimit="10" stroke-linejoin="miter" fill="none" stroke="#000000" d="M-58.91772 34.01608"/>
<use data-text="1" xlink:href="#font_1_2" transform="matrix(9.963197,0,0,-9.9626,9.331726,42.796007)"/>
<use data-text="5" xlink:href="#font_1_6" transform="matrix(9.963197,0,0,-9.9626,14.313309,42.796007)"/>
<use data-text="0" xlink:href="#font_1_1" transform="matrix(9.963197,0,0,-9.9626,19.294907,42.796007)"/>
<use data-text="&#x25e6;" xlink:href="#font_2_1" transform="matrix(6.9742186,0,0,-6.9738,24.276612,39.181)"/>
<path transform="matrix(1.00006,0,0,-1,78.01585,73.382)" stroke-width=".3985" stroke-linecap="butt" stroke-miterlimit="10" stroke-linejoin="miter" fill="none" stroke="#000000" d="M-68.03238 0"/>
<use data-text="1" xlink:href="#font_1_2" transform="matrix(9.963197,0,0,-9.9626,.21618653,76.812007)"/>
<use data-text="8" xlink:href="#font_1_9" transform="matrix(9.963197,0,0,-9.9626,5.197769,76.812007)"/>
<use data-text="0" xlink:href="#font_1_1" transform="matrix(9.963197,0,0,-9.9626,10.179367,76.812007)"/>
<use data-text="&#x25e6;" xlink:href="#font_2_1" transform="matrix(6.9742186,0,0,-6.9738,15.161072,73.19701)"/>
<path transform="matrix(1.00006,0,0,-1,78.01585,73.382)" stroke-width=".3985" stroke-linecap="butt" stroke-miterlimit="10" stroke-linejoin="miter" fill="none" stroke="#000000" d="M-58.91772-34.01608"/>
<use data-text="2" xlink:href="#font_1_3" transform="matrix(9.963197,0,0,-9.9626,9.331726,110.828)"/>
<use data-text="1" xlink:href="#font_1_2" transform="matrix(9.963197,0,0,-9.9626,14.313309,110.828)"/>
<use data-text="0" xlink:href="#font_1_1" transform="matrix(9.963197,0,0,-9.9626,19.294907,110.828)"/>
<use data-text="&#x25e6;" xlink:href="#font_2_1" transform="matrix(6.9742186,0,0,-6.9738,24.276612,107.213)"/>
<path transform="matrix(1.00006,0,0,-1,78.01585,73.382)" stroke-width=".3985" stroke-linecap="butt" stroke-miterlimit="10" stroke-linejoin="miter" fill="none" stroke="#000000" d="M-34.01608-58.91772"/>
<use data-text="2" xlink:href="#font_1_3" transform="matrix(9.963197,0,0,-9.9626,34.23523,135.73001)"/>
<use data-text="4" xlink:href="#font_1_5" transform="matrix(9.963197,0,0,-9.9626,39.216814,135.73001)"/>
<use data-text="0" xlink:href="#font_1_1" transform="matrix(9.963197,0,0,-9.9626,44.19841,135.73001)"/>
<use data-text="&#x25e6;" xlink:href="#font_2_1" transform="matrix(6.9742186,0,0,-6.9738,49.180116,132.115)"/>
<path transform="matrix(1.00006,0,0,-1,78.01585,73.382)" stroke-width=".3985" stroke-linecap="butt" stroke-miterlimit="10" stroke-linejoin="miter" fill="none" stroke="#000000" d="M0-68.03238"/>
<use data-text="2" xlink:href="#font_1_3" transform="matrix(9.963197,0,0,-9.9626,68.25326,144.84401)"/>
<use data-text="7" xlink:href="#font_1_8" transform="matrix(9.963197,0,0,-9.9626,73.23484,144.84401)"/>
<use data-text="0" xlink:href="#font_1_1" transform="matrix(9.963197,0,0,-9.9626,78.21644,144.84401)"/>
<use data-text="&#x25e6;" xlink:href="#font_2_1" transform="matrix(6.9742186,0,0,-6.9738,83.19814,141.229)"/>
<path transform="matrix(1.00006,0,0,-1,78.01585,73.382)" stroke-width=".3985" stroke-linecap="butt" stroke-miterlimit="10" stroke-linejoin="miter" fill="none" stroke="#000000" d="M34.01608-58.91772"/>
<use data-text="3" xlink:href="#font_1_4" transform="matrix(9.963197,0,0,-9.9626,102.2713,135.73001)"/>
<use data-text="0" xlink:href="#font_1_1" transform="matrix(9.963197,0,0,-9.9626,107.252887,135.73001)"/>
<use data-text="0" xlink:href="#font_1_1" transform="matrix(9.963197,0,0,-9.9626,112.23448,135.73001)"/>
<use data-text="&#x25e6;" xlink:href="#font_2_1" transform="matrix(6.9742186,0,0,-6.9738,117.21619,132.115)"/>
<path transform="matrix(1.00006,0,0,-1,78.01585,73.382)" stroke-width=".3985" stroke-linecap="butt" stroke-miterlimit="10" stroke-linejoin="miter" fill="none" stroke="#000000" d="M58.91772-34.01608"/>
<use data-text="3" xlink:href="#font_1_4" transform="matrix(9.963197,0,0,-9.9626,127.17479,110.828)"/>
<use data-text="3" xlink:href="#font_1_4" transform="matrix(9.963197,0,0,-9.9626,132.15637,110.828)"/>
<use data-text="0" xlink:href="#font_1_1" transform="matrix(9.963197,0,0,-9.9626,137.13797,110.828)"/>
<use data-text="&#x25e6;" xlink:href="#font_2_1" transform="matrix(6.9742186,0,0,-6.9738,142.11968,107.213)"/>
<path transform="matrix(1.00006,0,0,-1,78.01585,73.382)" stroke-width=".79701" stroke-linecap="butt" stroke-miterlimit="10" stroke-linejoin="miter" fill="none" stroke="#cccccc" d="M0 0 43.09505 43.09505"/>
<path transform="matrix(1.00006,0,0,-1,78.01585,73.382)" stroke-width=".79701" stroke-linecap="butt" stroke-miterlimit="10" stroke-linejoin="miter" fill="none" stroke="#cccccc" d="M0 0-43.09505 43.09505"/>
<path transform="matrix(1.00006,0,0,-1,78.01585,73.382)" stroke-width=".79701" stroke-linecap="butt" stroke-miterlimit="10" stroke-linejoin="miter" fill="none" stroke="#cccccc" d="M0 0-43.09505-43.09505"/>
<path transform="matrix(1.00006,0,0,-1,78.01585,73.382)" stroke-width=".79701" stroke-linecap="butt" stroke-miterlimit="10" stroke-linejoin="miter" fill="none" stroke="#cccccc" d="M0 0 43.09505-43.09505"/>
<path transform="matrix(1.00006,0,0,-1,78.01585,73.382)" stroke-width=".3985" stroke-linecap="butt" stroke-miterlimit="10" stroke-linejoin="miter" fill="none" stroke="#000000" d="M48.106 48.106"/>
<use data-text="4" xlink:href="#font_1_5" transform="matrix(9.963197,0,0,-9.9626,118.853298,28.706006)"/>
<use data-text="5" xlink:href="#font_1_6" transform="matrix(9.963197,0,0,-9.9626,123.83488,28.706006)"/>
<use data-text="&#x25e6;" xlink:href="#font_2_1" transform="matrix(6.9742186,0,0,-6.9738,128.81589,25.091004)"/>
<path transform="matrix(1.00006,0,0,-1,78.01585,73.382)" stroke-width=".3985" stroke-linecap="butt" stroke-miterlimit="10" stroke-linejoin="miter" fill="none" stroke="#000000" d="M-48.106 48.106"/>
<use data-text="1" xlink:href="#font_1_2" transform="matrix(9.963197,0,0,-9.9626,20.144379,28.706006)"/>
<use data-text="3" xlink:href="#font_1_4" transform="matrix(9.963197,0,0,-9.9626,25.125962,28.706006)"/>
<use data-text="5" xlink:href="#font_1_6" transform="matrix(9.963197,0,0,-9.9626,30.10756,28.706006)"/>
<use data-text="&#x25e6;" xlink:href="#font_2_1" transform="matrix(6.9742186,0,0,-6.9738,35.089265,25.091004)"/>
<path transform="matrix(1.00006,0,0,-1,78.01585,73.382)" stroke-width=".3985" stroke-linecap="butt" stroke-miterlimit="10" stroke-linejoin="miter" fill="none" stroke="#000000" d="M-48.106-48.106"/>
<use data-text="2" xlink:href="#font_1_3" transform="matrix(9.963197,0,0,-9.9626,20.144379,124.918)"/>
<use data-text="2" xlink:href="#font_1_3" transform="matrix(9.963197,0,0,-9.9626,25.125962,124.918)"/>
<use data-text="5" xlink:href="#font_1_6" transform="matrix(9.963197,0,0,-9.9626,30.10756,124.918)"/>
<use data-text="&#x25e6;" xlink:href="#font_2_1" transform="matrix(6.9742186,0,0,-6.9738,35.089265,121.303)"/>
<path transform="matrix(1.00006,0,0,-1,78.01585,73.382)" stroke-width=".3985" stroke-linecap="butt" stroke-miterlimit="10" stroke-linejoin="miter" fill="none" stroke="#000000" d="M48.106-48.106"/>
<use data-text="3" xlink:href="#font_1_4" transform="matrix(9.963197,0,0,-9.9626,116.36215,124.918)"/>
<use data-text="1" xlink:href="#font_1_2" transform="matrix(9.963197,0,0,-9.9626,121.343738,124.918)"/>
<use data-text="5" xlink:href="#font_1_6" transform="matrix(9.963197,0,0,-9.9626,126.32533,124.918)"/>
<use data-text="&#x25e6;" xlink:href="#font_2_1" transform="matrix(6.9742186,0,0,-6.9738,131.30704,121.303)"/>
<path transform="matrix(1.00006,0,0,-1,78.01585,73.382)" stroke-width=".79701" stroke-linecap="butt" stroke-miterlimit="10" stroke-linejoin="miter" fill="none" stroke="#8c8c8c" d="M14.17339 0C14.17339 7.82784 7.82784 14.17339 0 14.17339-7.82784 14.17339-14.17339 7.82784-14.17339 0-14.17339-7.82784-7.82784-14.17339 0-14.17339 7.82784-14.17339 14.17339-7.82784 14.17339 0ZM0 0"/>
<path transform="matrix(1.00006,0,0,-1,78.01585,73.382)" stroke-width=".79701" stroke-linecap="butt" stroke-miterlimit="10" stroke-linejoin="miter" fill="none" stroke="#8c8c8c" d="M28.3468 0C28.3468 15.6557 15.6557 28.3468 0 28.3468-15.6557 28.3468-28.3468 15.6557-28.3468 0-28.3468-15.6557-15.6557-28.3468 0-28.3468 15.6557-28.3468 28.3468-15.6557 28.3468 0ZM0 0"/>
<path transform="matrix(1.00006,0,0,-1,78.01585,73.382)" stroke-width=".79701" stroke-linecap="butt" stroke-miterlimit="10" stroke-linejoin="miter" fill="none" stroke="#8c8c8c" d="M42.5202 0C42.5202 23.48355 23.48355 42.5202 0 42.5202-23.48355 42.5202-42.5202 23.48355-42.5202 0-42.5202-23.48355-23.48355-42.5202 0-42.5202 23.48355-42.5202 42.5202-23.48355 42.5202 0ZM0 0"/>
<path transform="matrix(1.00006,0,0,-1,78.01585,73.382)" stroke-width=".79701" stroke-linecap="butt" stroke-miterlimit="10" stroke-linejoin="miter" fill="none" stroke="#8c8c8c" d="M56.69362 0C56.69362 31.31142 31.31142 56.69362 0 56.69362-31.31142 56.69362-56.69362 31.31142-56.69362 0-56.69362-31.31142-31.31142-56.69362 0-56.69362 31.31142-56.69362 56.69362-31.31142 56.69362 0ZM0 0"/>
<path transform="matrix(1.00006,0,0,-1,78.01585,73.382)" stroke-width=".3985" stroke-linecap="butt" stroke-miterlimit="10" stroke-linejoin="miter" fill="none" stroke="#000000" d="M0 0"/>
<use data-text="0" xlink:href="#font_1_1" transform="matrix(9.963197,0,0,-9.9626,81.53606,83.32201)"/>
<path transform="matrix(1.00006,0,0,-1,78.01585,73.382)" stroke-width=".3985" stroke-linecap="butt" stroke-miterlimit="10" stroke-linejoin="miter" fill="none" stroke="#000000" d="M14.17339 0"/>
<use data-text="1" xlink:href="#font_1_2" transform="matrix(9.963197,0,0,-9.9626,95.70991,83.32201)"/>
<path transform="matrix(1.00006,0,0,-1,78.01585,73.382)" stroke-width=".3985" stroke-linecap="butt" stroke-miterlimit="10" stroke-linejoin="miter" fill="none" stroke="#000000" d="M28.3468 0"/>
<use data-text="2" xlink:href="#font_1_3" transform="matrix(9.963197,0,0,-9.9626,109.88476,83.32201)"/>
<path transform="matrix(1.00006,0,0,-1,78.01585,73.382)" stroke-width=".3985" stroke-linecap="butt" stroke-miterlimit="10" stroke-linejoin="miter" fill="none" stroke="#000000" d="M42.5202 0"/>
<use data-text="3" xlink:href="#font_1_4" transform="matrix(9.963197,0,0,-9.9626,124.05861,83.32201)"/>
<path transform="matrix(1.00006,0,0,-1,78.01585,73.382)" stroke-width=".3985" stroke-linecap="butt" stroke-miterlimit="10" stroke-linejoin="miter" fill="none" stroke="#000000" d="M56.69362 0"/>
<use data-text="4" xlink:href="#font_1_5" transform="matrix(9.963197,0,0,-9.9626,138.23246,83.32201)"/>
<path transform="matrix(1.00006,0,0,-1,78.01585,73.382)" d="M.99628 0C.99628 .55023 .55023 .99628 0 .99628-.55023 .99628-.99628 .55023-.99628 0-.99628-.55023-.55023-.99628 0-.99628 .55023-.99628 .99628-.55023 .99628 0ZM0 0"/>
<path transform="matrix(1.00006,0,0,-1,78.01585,73.382)" d="M15.16966 0C15.16966 .55023 14.72363 .99628 14.17339 .99628 13.62315 .99628 13.17711 .55023 13.17711 0 13.17711-.55023 13.62315-.99628 14.17339-.99628 14.72363-.99628 15.16966-.55023 15.16966 0ZM14.17339 0"/>
<path transform="matrix(1.00006,0,0,-1,78.01585,73.382)" d="M29.34308 0C29.34308 .55023 28.89703 .99628 28.3468 .99628 27.79657 .99628 27.35052 .55023 27.35052 0 27.35052-.55023 27.79657-.99628 28.3468-.99628 28.89703-.99628 29.34308-.55023 29.34308 0ZM28.3468 0"/>
<path transform="matrix(1.00006,0,0,-1,78.01585,73.382)" d="M43.51648 0C43.51648 .55023 43.07043 .99628 42.5202 .99628 41.96997 .99628 41.52393 .55023 41.52393 0 41.52393-.55023 41.96997-.99628 42.5202-.99628 43.07043-.99628 43.51648-.55023 43.51648 0ZM42.5202 0"/>
<path transform="matrix(1.00006,0,0,-1,78.01585,73.382)" d="M57.6899 0C57.6899 .55023 57.24385 .99628 56.69362 .99628 56.14337 .99628 55.69734 .55023 55.69734 0 55.69734-.55023 56.14337-.99628 56.69362-.99628 57.24385-.99628 57.6899-.55023 57.6899 0ZM56.69362 0"/>
<path transform="matrix(1.00006,0,0,-1,78.01585,73.382)" stroke-width=".79701" stroke-linecap="butt" stroke-miterlimit="10" stroke-linejoin="miter" fill="none" stroke="#000000" d="M-60.2383 0H60.2383"/>
<path transform="matrix(-1.00006,-0,0,1,17.773934,73.382)" stroke-width=".6376" stroke-linecap="round" stroke-linejoin="round" fill="none" stroke="#000000" d="M-1.55415 2.0722C-1.42464 1.29512 0 .1295 .38852 0 0-.1295-1.42464-1.29512-1.55415-2.0722"/>
<path transform="matrix(1.00006,0,0,-1,138.25775,73.382)" stroke-width=".6376" stroke-linecap="round" stroke-linejoin="round" fill="none" stroke="#000000" d="M-1.55415 2.0722C-1.42464 1.29512 0 .1295 .38852 0 0-.1295-1.42464-1.29512-1.55415-2.0722"/>
<path transform="matrix(1.00006,0,0,-1,78.01585,73.382)" stroke-width=".79701" stroke-linecap="butt" stroke-miterlimit="10" stroke-linejoin="miter" fill="none" stroke="#ff0000" d="M14.17339 0C14.17339 0 14.15657 .32288 14.13684 .44592 14.1171 .56898 14.07007 .76622 14.03108 .8869 13.99211 1.00758 13.91391 1.19908 13.85591 1.31577 13.7979 1.43246 13.68954 1.61674 13.61304 1.72797 13.53651 1.8392 13.39897 2.01326 13.30441 2.11748 13.20987 2.22168 13.04344 2.38333 12.93156 2.47906 12.81972 2.57483 12.62617 2.72162 12.49818 2.80759 12.37016 2.89355 12.1522 3.02367 12.00896 3.0987 11.8657 3.17369 11.62314 3.2854 11.4657 3.34825 11.30826 3.41112 11.0444 3.50218 10.8742 3.55177 10.70401 3.60136 10.4207 3.67032 10.23903 3.70575 10.05733 3.74118 9.75635 3.7866 9.5647 3.80719 9.37305 3.82777 9.05783 3.84904 8.85771 3.85413 8.65761 3.85918 8.32936 3.85477 8.12239 3.84373 7.91545 3.8327 7.5782 3.80194 7.3661 3.77452 7.15402 3.7471 6.80956 3.69008 6.59381 3.64607 6.37805 3.60204 6.02875 3.51793 5.81113 3.45726 5.59354 3.39659 5.24312 3.28595 5.02544 3.20877 4.80772 3.1316 4.45827 2.99443 4.24211 2.90102 4.02592 2.80762 3.68037 2.64468 3.46742 2.53552 3.25446 2.42636 2.91536 2.23863 2.70723 2.11424 2.49911 1.98982 2.16914 1.77783 1.96739 1.63887 1.76563 1.49991 1.44691 1.26527 1.25305 1.11269 1.05917 .9601 .75461 .7043 .57007 .53914 .38553 .374 .09698 .09903-.07698-.07762-.25096-.2543-.52162-.54721-.68382-.73422-.84604-.92122-1.09682-1.2295-1.24612-1.42542-1.39545-1.62132-1.62454-1.94281-1.75998-2.14624-1.89543-2.34969-2.1016-2.68225-2.22237-2.89171-2.34314-3.1012-2.52509-3.44212-2.63046-3.656-2.73584-3.8699-2.89246-4.21661-2.9819-4.43329-3.07135-4.64996-3.20204-4.99991-3.27516-5.2177-3.34828-5.43547-3.45236-5.78566-3.50894-6.00296-3.56554-6.22026-3.64311-6.5689-3.68304-6.7839-3.72299-6.99893-3.77342-7.3417-3.79681-7.55275-3.82018-7.76378-3.84444-8.09947-3.85152-8.30493-3.85858-8.51038-3.85675-8.83542-3.84784-9.03354-3.83893-9.23169-3.81158-9.54364-3.7873-9.73296-3.76299-9.92226-3.71167-10.219-3.67267-10.39798-3.63367-10.57697-3.55907-10.85577-3.50613-11.023-3.45322-11.19022-3.35703-11.44907-3.29115-11.60326-3.22531-11.75742-3.1092-11.99452-3.03143-12.1342-2.95366-12.27386-2.8191-12.48592-2.7306-12.60999-2.64207-12.73405-2.49136-12.92084-2.39343-13.02847-2.29549-13.1361-2.13077-13.29552-2.0247-13.38574-1.91862-13.47597-1.7416-13.60658-1.62894-13.67877-1.51625-13.75098-1.33041-13.85274-1.21262-13.90608-1.09479-13.95944-.90129-14.0292-.77986-14.06331-.65842-14.09743-.46072-14.13713-.33737-14.152-.214-14.16684-.01453-14.17516 .1092-14.17036 .23294-14.16556 .43184-14.14174 .5545-14.11737 .67717-14.09302 .87344-14.03838 .9933-13.99475 1.11319-13.95113 1.30302-13.86555 1.41849-13.80292 1.53395-13.7403 1.71587-13.62445 1.8255-13.54341 1.93517-13.46236 2.10649-13.31763 2.20874-13.21878 2.311-13.11993 2.46906-12.94687 2.56256-12.83101 2.65605-12.71515 2.7992-12.51561 2.88264-12.38377 2.96608-12.25192 3.09192-12.02763 3.164-11.88072 3.23607-11.73381 3.3424-11.48553 3.40211-11.3249 3.46184-11.16428 3.54814-10.89616 3.59438-10.72302 3.64061-10.5499 3.70354-10.26134 3.73538-10.07704 3.76721-9.89275 3.80695-9.58849 3.82384-9.39471 3.84073-9.20093 3.856-8.88231 3.85715-8.68037 3.85829-8.47842 3.8471-8.14764 3.83206-7.93922 3.817-7.73079 3.78006-7.39136 3.74857-7.17816 3.7171-6.96498 3.65329-6.61897 3.6052-6.40262 3.55708-6.18628 3.46655-5.83656 3.40189-5.61887 3.33723-5.40117 3.22026-5.05101 3.13913-4.8336 3.058-4.61617 2.91444-4.26735 2.81711-4.05179 2.71976-3.83623 2.55055-3.49188 2.43756-3.27992 2.32454-3.06795 2.13068-2.73077 2.00264-2.52405 1.8746-2.31734 1.65709-1.99 1.51474-1.79004 1.37238-1.59009 1.13242-1.27458 .97665-1.08284 .82089-.8911 .5601-.59013 .39207-.4081 .22404-.22604-.05513 .05804-.23442 .22922-.4137 .4004-.71075 .66653-.9001 .8257-1.08945 .98485-1.40115 1.23032-1.59908 1.37631-1.797 1.52234-2.1215 1.74612-2.32661 1.87807-2.5317 2.01-2.86656 2.21019-3.07729 2.32726-3.28798 2.4443-3.63051 2.6202-3.84525 2.72173-4.05997 2.82327-4.40776 2.97362-4.6249 3.05911-4.84203 3.14459-5.19232 3.26878-5.41016 3.33788-5.628 3.40698-5.97812 3.50467-6.195 3.55717-6.4119 3.60968-6.75923 3.68047-6.97337 3.71634-7.18748 3.75224-7.5285 3.79646-7.7383 3.81584-7.9481 3.83522-8.28168 3.85298-8.4855 3.85606-8.68935 3.85915-9.01128 3.85081-9.20741 3.8381-9.40356 3.8254-9.71223 3.79227-9.89926 3.76437-10.08629 3.73645-10.37921 3.67949-10.55542 3.63698-10.73166 3.59445-11.0054 3.51418-11.16942 3.45792-11.33344 3.40164-11.5869 3.3004-11.73755 3.23148-11.88821 3.16255-12.11928 3.04161-12.2553 2.96114-12.39133 2.88066-12.59761 2.74236-12.71791 2.65144-12.8382 2.56052-13.01889 2.40594-13.12233 2.30585-13.22574 2.20575-13.37766 2.03778-13.46338 1.92998-13.5491 1.82216-13.67267 1.64287-13.7402 1.5288-13.80775 1.4147-13.90144 1.22656-13.9502 1.10771-13.99896 .98885-14.06206 .79419-14.09163 .67215-14.12122 .55013-14.1534 .35173-14.16345 .22815-14.1735 .10455-14.17378-.095-14.1641-.21863-14.1544-.34225-14.1227-.54076-14.09358-.66284-14.06448-.78494-14.00261-.97969-13.95432-1.09862-13.906-1.21756-13.8126-1.40593-13.74539-1.52014-13.67819-1.63434-13.5552-1.81381-13.46988-1.92175-13.38452-2.02968-13.23344-2.19783-13.13033-2.29807-13.02719-2.39827-12.84648-2.5529-12.72656-2.64409-12.60661-2.73529-12.40152-2.87451-12.26588-2.9553-12.13028-3.03607-11.8994-3.15712-11.74901-3.22629-11.59862-3.29544-11.3457-3.39726-11.18196-3.45381-11.01822-3.51033-10.74486-3.59094-10.56883-3.63374-10.39282-3.67651-10.10011-3.73396-9.91333-3.76219-9.72653-3.79042-9.41853-3.82423-9.22256-3.83725-9.0266-3.85028-8.70456-3.85884-8.50087-3.85606-8.29718-3.85327-7.96417-3.83609-7.75452-3.81714-7.54488-3.79817-7.20392-3.75491-6.9898-3.71939-6.77567-3.68385-6.42809-3.61328-6.21123-3.56107-5.99437-3.50885-5.64464-3.41182-5.42682-3.34308-5.20901-3.27434-4.85852-3.15076-4.64134-3.0656-4.42415-2.98045-4.07622-2.83047-3.86147-2.7293-3.6467-2.62813-3.30429-2.45306-3.0935-2.33633-2.8827-2.21962-2.54742-2.01965-2.34218-1.88802-2.13693-1.75638-1.8123-1.53328-1.61421-1.38757-1.41615-1.24185-1.10408-.99669-.9146-.8378-.7251-.67892-.42801-.41336-.24849-.24242-.06895-.07147 .211 .21237 .37933 .39424 .54765 .57611 .80875 .87683 .96475 1.06836 1.12076 1.25989 1.36105 1.57487 1.5037 1.77469 1.64635 1.9745 1.86455 2.3019 1.9929 2.50848 2.12128 2.71509 2.3156 3.05188 2.42891 3.2637 2.5422 3.47551 2.71185 3.81963 2.80952 4.03513 2.9072 4.25063 3.05136 4.59955 3.13286 4.81694 3.21436 5.03435 3.33186 5.38428 3.39693 5.602 3.46198 5.81973 3.55327 6.16975 3.60172 6.38618 3.65019 6.60263 3.7144 6.9487 3.7462 7.16194 3.778 7.3752 3.81558 7.71468 3.83096 7.92322 3.84636 8.13176 3.85796 8.46292 3.85715 8.66501 3.85634 8.86711 3.84164 9.18576 3.82513 9.37978 3.80864 9.5738 3.76976 9.87894 3.73819 10.06342 3.70663 10.2479 3.64359 10.53606 3.59761 10.70941 3.55167 10.88275 3.46626 11.15181 3.40688 11.3128 3.3475 11.47377 3.24149 11.72249 3.16962 11.86969 3.09776 12.01689 2.97212 12.24167 2.8889 12.37381 2.8057 12.50597 2.6632 12.70593 2.5699 12.82214 2.47662 12.93835 2.31862 13.11223 2.21654 13.21143 2.11446 13.31064 1.94365 13.45569 1.83415 13.53712 1.72467 13.61856 1.5428 13.73537 1.42737 13.79837 1.31194 13.86139 1.12193 13.94734 1.00218 13.99129 .88242 14.03525 .6868 14.09041 .56422 14.11522 .44165 14.14001 .24246 14.16493 .11871 14.17015-.005 14.17537-.20421 14.16725-.32762 14.15283-.45105 14.13844-.64926 14.10002-.77077 14.06633-.89226 14.03264-1.08542 13.96303-1.20331 13.90997-1.3212 13.85693-1.50766 13.75575-1.6205 13.68398-1.7333 13.6122-1.91032 13.48245-2.01648 13.39265-2.12265 13.30284-2.28749 13.14395-2.38565 13.03668-2.4838 12.92941-2.63516 12.74326-2.72389 12.6195-2.81262 12.49576-2.94714 12.28413-3.02516 12.14479-3.10316 12.00543-3.22003 11.76898-3.2862 11.61514-3.35234 11.46129-3.4488 11.20294-3.50203 11.03598-3.55527 10.86903-3.63054 10.5906-3.66986 10.41183-3.70915 10.23305-3.7607 9.93654-3.78534 9.74744-3.80997 9.55835-3.83813 9.24689-3.84741 9.04889-3.85667 8.85092-3.85892 8.52583-3.85217 8.32051-3.84543 8.11517-3.82178 7.7799-3.79875 7.56897-3.77571 7.35802-3.72568 7.01506-3.68608 6.80013-3.64645 6.5852-3.5695 6.23705-3.51328 6.01984-3.45705 5.80261-3.35358 5.45241-3.28079 5.23456-3.208 5.01672-3.07776 4.66649-2.98862 4.44972-2.89946 4.23296-2.74329 3.88618-2.63824 3.67223-2.53323 3.4583-2.3521 3.1173-2.23166 2.90771-2.1112 2.69817-1.90532 2.36543-1.77014 2.1618-1.63496 1.95819-1.40639 1.63625-1.25739 1.44012-1.10837 1.244-.85806 .93546-.69615 .74828-.53424 .5611-.2641 .26791-.09038 .09103 .0833-.08582 .37144-.3612 .55579-.52661 .74014-.69199 1.04463-.94815 1.23834-1.10101 1.43207-1.25385 1.75041-1.48904 1.95203-1.62828 2.15364-1.7675 2.48344-1.97977 2.69145-2.10449 2.89944-2.22923 3.23836-2.41777 3.4512-2.52731 3.66403-2.63683 4.00935-2.80016 4.22545-2.89389 4.44156-2.98763 4.79108-3.1254 5.00877-3.20293 5.22647-3.28047 5.57684-3.3917 5.79448-3.45273 6.01212-3.51375 6.36159-3.59848 6.57738-3.64282 6.79315-3.68716 7.13747-3.74461 7.34967-3.77237 7.56189-3.80013 7.89977-3.8315 8.10683-3.84286 8.3139-3.85425 8.6419-3.85902 8.84215-3.85434 9.04237-3.84962 9.35811-3.82913 9.55-3.80891 9.74188-3.7887 10.04323-3.74373 10.22517-3.70856 10.40715-3.6734 10.69101-3.60478 10.86143-3.55545 11.03189-3.50612 11.29591-3.41559 11.45358-3.35301 11.61128-3.29047 11.85435-3.17928 11.99794-3.10452 12.14153-3.02979 12.36003-2.90004 12.48843-2.81429 12.61682-2.72853 12.81114-2.58197 12.92336-2.48643 13.03558-2.3909 13.20238-2.22975 13.29729-2.1257 13.3922-2.02164 13.53046-1.84752 13.60742-1.7364 13.68439-1.62529 13.79362-1.44145 13.85202-1.32484 13.91042-1.20825 13.98897-1.01662 14.02827-.89598 14.06758-.77536 14.11526-.5785 14.13533-.45544 14.15541-.3324 14.17296-.00906 14.17296-.00906"/>
</svg>
