<svg xmlns="http://www.w3.org/2000/svg" xmlns:xlink="http://www.w3.org/1999/xlink" version="1.1" width="174" height="170" viewBox="0 0 174 170">
<defs>
<path id="font_1_1" d="M.45999146 .31976319C.45999146 .39982606 .45498658 .47988893 .41999818 .5539398 .37399293 .65000918 .2919922 .6660156 .25 .6660156 .18998719 .6660156 .116989139 .64001467 .07598877 .54693606 .04399109 .47789 .038986207 .39982606 .038986207 .31976319 .038986207 .24472046 .042999269 .15464783 .083999637 .07859802 .1269989-.0024719239 .19999695-.022460938 .24899292-.022460938 .30299378-.022460938 .3789978-.0014648438 .4229889 .09359741 .45498658 .16265869 .45999146 .2407074 .45999146 .31976319M.24899292-.00047302247C.20999146-.00047302247 .15098572 .024551392 .1329956 .12062073 .12199402 .18066406 .12199402 .2727356 .12199402 .3317871 .12199402 .39582826 .12199402 .46188355 .12998963 .5159149 .14898682 .63500979 .22399903 .64401248 .24899292 .64401248 .28199769 .64401248 .34799195 .6259918 .36698915 .52693179 .3769989 .47088624 .3769989 .39482118 .3769989 .3317871 .3769989 .25672914 .3769989 .18867493 .3659973 .12461853 .35099793 .029556275 .2939911-.00047302247 .24899292-.00047302247Z"/>
<path id="font_2_1" d="M.5069885 .24998474C.5069885 .3710022 .4099884 .4650116 .2919922 .4650116 .17199707 .4650116 .07699585 .36799623 .07699585 .25097657 .07699585 .1299591 .17399597 .035949708 .2919922 .035949708 .4119873 .035949708 .5069885 .13296509 .5069885 .24998474M.2919922 .08496094C.19799805 .08496094 .12599182 .16096497 .12599182 .24998474 .12599182 .34300233 .19999695 .41601563 .2919922 .41601563 .38598634 .41601563 .45799256 .33999635 .45799256 .25097657 .45799256 .15795899 .38398744 .08496094 .2919922 .08496094Z"/>
<path id="font_1_4" d="M.2899933 .35191346C.37199403 .37893678 .42999269 .4490509 .42999269 .52809146 .42999269 .6100464 .34199525 .6660156 .24598694 .6660156 .14498902 .6660156 .068984989 .60606387 .068984989 .53009036 .068984989 .49710084 .09098816 .47808839 .11999512 .47808839 .15098572 .47808839 .17098999 .50009158 .17098999 .5290985 .17098999 .57910159 .12399292 .57910159 .10899353 .57910159 .13999939 .62802127 .20599365 .64100649 .24198914 .64100649 .2829895 .64100649 .33799745 .6190338 .33799745 .5290985 .33799745 .51708987 .33599855 .45906068 .30999757 .4149933 .27999879 .36691285 .24598694 .36390687 .22099304 .36291505 .21299744 .36190797 .18899536 .35990907 .18199158 .35990907 .17399597 .35890199 .16699219 .35791017 .16699219 .3479004 .16699219 .33691407 .17399597 .33691407 .19099427 .33691407H.23498535C.31698609 .33691407 .35398866 .2686615 .35398866 .17037964 .35398866 .034469606 .2849884 .0055389406 .24099732 .0055389406 .19799805 .0055389406 .12298584 .022491456 .08799744 .08137512 .12298584 .07637024 .1539917 .09837341 .1539917 .1363678 .1539917 .17237854 .1269989 .19238281 .09799194 .19238281 .07398987 .19238281 .041992189 .17837525 .041992189 .1343689 .041992189 .043441774 .1349945-.022460938 .24398804-.022460938 .3659973-.022460938 .45700074 .06838989 .45700074 .17037964 .45700074 .252594 .3939972 .33088685 .2899933 .35191346Z"/>
<path id="font_1_7" d="M.13198853 .327713V.35173036C.13198853 .6047821 .2559967 .64100649 .30699159 .64100649 .33099366 .64100649 .37298585 .634964 .394989 .6007538 .37998963 .6007538 .33999635 .6007538 .33999635 .5557556 .33999635 .524765 .3639984 .5097656 .38598634 .5097656 .4019928 .5097656 .43199159 .51875308 .43199159 .5577545 .43199159 .6178589 .3880005 .6660156 .30499269 .6660156 .1769867 .6660156 .041992189 .5367584 .041992189 .31570436 .041992189 .048553468 .1579895-.022460938 .25099183-.022460938 .3619995-.022460938 .45700074 .07156372 .45700074 .2036438 .45700074 .33070375 .36799623 .4267578 .25698854 .4267578 .18899536 .4267578 .1519928 .37573243 .13198853 .327713M.25099183 .0055389406C.18798828 .0055389406 .1579895 .06556702 .1519928 .080566409 .13398743 .127594 .13398743 .2076416 .13398743 .22564698 .13398743 .30369569 .1659851 .40374757 .2559967 .40374757 .27198792 .40374757 .31799317 .40374757 .34899903 .34172059 .36698915 .30470277 .36698915 .2536621 .36698915 .20463562 .36698915 .15661621 .36698915 .10658264 .34999085 .0705719 .31999208 .010528564 .27398683 .0055389406 .25099183 .0055389406Z"/>
<path id="font_1_10" d="M.36698915 .31781007V.28579713C.36698915 .05178833 .2630005 .0055389406 .20498657 .0055389406 .18798828 .0055389406 .13398743 .007537842 .10699463 .041778566 .15098572 .041778566 .15899658 .07078552 .15899658 .08778381 .15899658 .118774417 .1349945 .13378906 .11299133 .13378906 .09700012 .13378906 .066986087 .12478638 .066986087 .08578491 .066986087 .018615723 .12098694-.022460938 .20599365-.022460938 .33499146-.022460938 .45700074 .11378479 .45700074 .32881166 .45700074 .5979767 .34199525 .6660156 .25299073 .6660156 .19799805 .6660156 .14898682 .64801028 .10598755 .60298159 .06498718 .5579529 .041992189 .5159302 .041992189 .44088746 .041992189 .31581117 .12998963 .21777344 .24198914 .21777344 .30299378 .21777344 .34399415 .25978089 .36698915 .31781007M.24299622 .24076844C.22698975 .24076844 .18099976 .24076844 .1499939 .3038025 .13198853 .3408203 .13198853 .39085389 .13198853 .43988038 .13198853 .49391175 .13198853 .54093936 .15299988 .5779724 .17999268 .6279907 .21798706 .64100649 .25299073 .64100649 .29899598 .64100649 .33198548 .60697939 .34899903 .5619507 .36099244 .52993777 .36499024 .4669037 .36499024 .42086793 .36499024 .3378296 .33099366 .24076844 .24299622 .24076844Z"/>
<path id="font_1_2" d="M.2939911 .64004519C.2939911 .66400149 .2939911 .6660156 .2709961 .6660156 .20899964 .60227969 .12098694 .60227969 .08898926 .60227969V.57128909C.10899353 .57128909 .16799927 .57128909 .21998596 .5972748V.07902527C.21998596 .042999269 .21699524 .0309906 .1269989 .0309906H.09498596V0C.12998963 .0029907227 .21699524 .0029907227 .25698854 .0029907227 .29699708 .0029907227 .38398744 .0029907227 .4189911 0V.0309906H.3869934C.29699708 .0309906 .2939911 .041992189 .2939911 .07902527V.64004519Z"/>
<path id="font_1_3" d="M.1269989 .07699585 .23298645 .18003845C.3889923 .31811524 .44898988 .3721466 .44898988 .47216798 .44898988 .5860901 .35899354 .6660156 .23699951 .6660156 .12399292 .6660156 .049987794 .57411196 .049987794 .48516847 .049987794 .4291687 .099990848 .4291687 .102996829 .4291687 .11999512 .4291687 .15499878 .44117738 .15499878 .48217774 .15499878 .5081787 .13699341 .5341797 .101989749 .5341797 .09399414 .5341797 .09199524 .5341797 .08898926 .5331726 .11199951 .59806826 .1659851 .63500979 .22399903 .63500979 .31498719 .63500979 .35798646 .5541382 .35798646 .47216798 .35798646 .39215089 .30799867 .31311036 .25299073 .25108338L.06098938 .036987306C.049987794 .025985718 .049987794 .023986817 .049987794 0H.42099L.44898988 .17404175H.42399598C.4189911 .14402771 .4119873 .1000061 .4019928 .084991458 .394989 .07699585 .32899476 .07699585 .30699159 .07699585H.1269989Z"/>
<path id="font_1_6" d="M.44898988 .20022583C.44898988 .3193512 .36698915 .41944886 .25898744 .41944886 .21099854 .41944886 .16799927 .40345765 .13198853 .36842347V.5637665C.1519928 .5577698 .18499756 .55078127 .21699524 .55078127 .33999635 .55078127 .4099884 .6417694 .4099884 .6547699 .4099884 .6607666 .40699769 .6657715 .3999939 .6657715 .39898683 .6657715 .39698792 .6657715 .3919983 .66278079 .37199403 .6537781 .32299806 .6337738 .2559967 .6337738 .21598816 .6337738 .16999817 .6407776 .12298584 .6617737 .114990238 .66477969 .11299133 .66477969 .11099243 .66477969 .100997928 .66477969 .100997928 .6567688 .100997928 .6407776V.34439088C.100997928 .32637025 .100997928 .31835938 .114990238 .31835938 .12199402 .31835938 .12399292 .32136537 .12799073 .32736207 .13899231 .3433838 .17599488 .39746095 .25698854 .39746095 .30899049 .39746095 .33399964 .35139466 .34199525 .33337403 .35798646 .29632569 .3600006 .25727845 .3600006 .20722962 .3600006 .17222595 .3600006 .11222839 .33599855 .07035828 .31199647 .031463624 .2749939 .0055389406 .22898865 .0055389406 .1559906 .0055389406 .09899902 .058380128 .08198547 .11723328 .084991458 .1162262 .08799744 .115234378 .09899902 .115234378 .13198853 .115234378 .14898682 .14022827 .14898682 .16423035 .14898682 .18823242 .13198853 .21322632 .09899902 .21322632 .084991458 .21322632 .049987794 .20622254 .049987794 .16023255 .049987794 .07434082 .11898804-.022460938 .23098755-.022460938 .34700013-.022460938 .44898988 .073349 .44898988 .20022583Z"/>
<path id="font_1_9" d="M.16299439 .4569702C.116989139 .486969 .11299133 .52098086 .11299133 .5379791 .11299133 .598999 .17799378 .64100649 .24899292 .64100649 .32199098 .64100649 .38598634 .58898928 .38598634 .51698306 .38598634 .45996095 .34700013 .4119568 .2869873 .37695313L.16299439 .4569702M.30899049 .36193849C.3809967 .3989563 .42999269 .45095826 .42999269 .51698306 .42999269 .6090088 .34098817 .6660156 .25 .6660156 .1499939 .6660156 .068984989 .59199526 .068984989 .49897767 .068984989 .4809723 .070999149 .43595887 .11299133 .38894654 .12399292 .37695313 .16099549 .35194398 .18598938 .33494569 .12799073 .30592347 .041992189 .24984741 .041992189 .15072632 .041992189 .04458618 .14399719-.022460938 .24899292-.022460938 .3619995-.022460938 .45700074 .06060791 .45700074 .16773987 .45700074 .20379639 .44599916 .24885559 .4079895 .2909088 .3889923 .31193543 .37298585 .3219452 .30899049 .36193849M.20899964 .3199463 .33198548 .24183655C.3600006 .2228241 .40699769 .19277954 .40699769 .13169861 .40699769 .05760193 .33198548 .0055389406 .25 .0055389406 .1639862 .0055389406 .09199524 .067611698 .09199524 .15072632 .09199524 .20880127 .12399292 .27288819 .20899964 .3199463Z"/>
<path id="font_1_5" d="M.2939911 .16503906V.07800293C.2939911 .041992189 .2919922 .0309906 .21798706 .0309906H.19699097V0C.23799134 .0029907227 .2899933 .0029907227 .33198548 .0029907227 .37399293 .0029907227 .4269867 .0029907227 .46798707 0V.0309906H.44699098C.37298585 .0309906 .37098695 .041992189 .37098695 .07800293V.16503906H.47099305V.19602967H.37098695V.65075686C.37098695 .67074587 .37098695 .6767578 .35499574 .6767578 .34599305 .6767578 .34298707 .6767578 .33499146 .66474917L.027999878 .19602967V.16503906H.2939911M.2999878 .19602967H.055999757L.2999878 .5688019V.19602967Z"/>
<path id="font_1_8" d="M.47599793 .609375C.4850006 .6213684 .4850006 .62338259 .4850006 .64437869H.24198914C.11999512 .64437869 .117996219 .65737918 .11399841 .67637637H.08898926L.055999757 .4702301H.08099365C.083999637 .48625184 .09298706 .5493469 .10598755 .56137087 .11299133 .5673828 .19099427 .5673828 .20399475 .5673828H.41099549C.3999939 .5513611 .32099916 .4421997 .29899598 .40914918 .20899964 .27394105 .17599488 .1347351 .17599488 .032577516 .17599488 .022567749 .17599488-.022460938 .22200012-.022460938 .2679901-.022460938 .2679901 .022567749 .2679901 .032577516V.08366394C.2679901 .13873291 .2709961 .19381714 .2789917 .24790955 .2829895 .27093507 .29699708 .35707093 .34098817 .41915895L.47599793 .609375Z"/>
<path id="font_3_1" d="M.1789856 .114868167C.13899231 .047973634 .099990848 .033981325 .055999757 .0309906 .04399109 .02999878 .034988405 .02999878 .034988405 .010986328 .034988405 .004989624 .039993287 0 .04798889 0 .07499695 0 .10598755 .0029907227 .13398743 .0029907227 .16699219 .0029907227 .20199585 0 .23399353 0 .23999024 0 .25299073 0 .25299073 .018997193 .25299073 .02999878 .24398804 .0309906 .23699951 .0309906 .21398926 .032989503 .18998719 .04096985 .18998719 .06593323 .18998719 .077926639 .19599915 .088897708 .20399475 .102890018L.27999879 .23068238H.5309906C.5329895 .2097168 .5469971 .07392883 .5469971 .063949588 .5469971 .033981325 .49499513 .0309906 .47499085 .0309906 .46099855 .0309906 .45098878 .0309906 .45098878 .010986328 .45098878 0 .46299745 0 .46499635 0 .5059967 0 .548996 .0029907227 .58999636 .0029907227 .61499026 .0029907227 .6779938 0 .7029877 0 .70899966 0 .72099307 0 .72099307 .019989014 .72099307 .0309906 .71099856 .0309906 .69799807 .0309906 .6359863 .0309906 .6359863 .037979127 .6329956 .06694031L.57199099 .691803C.56999209 .71180728 .56999209 .7158203 .5529938 .7158203 .5369873 .7158203 .5329895 .7088165 .5269928 .69880679L.1789856 .114868167M.29899598 .26168824 .49598695 .5917816 .5279999 .26168824H.29899598Z"/>
<path id="font_3_2" d="M.1599884 .07795715C.1499939 .038986207 .147995 .0309906 .068984989 .0309906 .051986696 .0309906 .041992189 .0309906 .041992189 .010986328 .041992189 0 .050994874 0 .068984989 0H.42599488C.58399966 0 .70199587 .11791992 .70199587 .21585083 .70199587 .28778077 .6439972 .3457489 .5469971 .35673524 .651001 .37573243 .7559967 .44970704 .7559967 .5446625 .7559967 .6186218 .6899872 .6826172 .56999209 .6826172H.23399353C.21499634 .6826172 .20498657 .6826172 .20498657 .6626129 .20498657 .6516113 .21398926 .6516113 .23298645 .6516113 .23498535 .6516113 .2539978 .6516113 .2709961 .6496124 .2889862 .6476135 .2979889 .64660647 .2979889 .6336212 .2979889 .6296234 .29699708 .62661746 .2939911 .614624L.1599884 .07795715M.31098939 .36573792 .37298585 .6136322C.38198854 .64860537 .38398744 .6516113 .4269867 .6516113H.55599978C.6439972 .6516113 .6649933 .5926361 .6649933 .5486603 .6649933 .46069337 .57899478 .36573792 .45700074 .36573792H.31098939M.2659912 .0309906C.2519989 .0309906 .25 .0309906 .24398804 .03199768 .23399353 .032989503 .23098755 .033996583 .23098755 .04197693 .23098755 .04498291 .23098755 .04698181 .23599243 .064971927L.30499269 .34375H.49398805C.58999636 .34375 .60899356 .2698059 .60899356 .22683716 .60899356 .12791443 .519989 .0309906 .4019928 .0309906H.2659912Z"/>
<path id="font_3_3" d="M.7599945 .69506838C.7599945 .69807437 .7579956 .7050781 .7489929 .7050781 .74598696 .7050781 .7449951 .70407107 .73399356 .69306948L.6639862 .61602786C.6549988 .6300354 .60899356 .7050781 .49798585 .7050781 .2749939 .7050781 .049987794 .48391725 .049987794 .25172425 .049987794 .08659363 .16799927-.022460938 .32099916-.022460938 .4079895-.022460938 .48399354 .017532349 .5369873 .063583377 .6299896 .14564514 .6469879 .2367096 .6469879 .23971558 .6469879 .24972534 .6369934 .24972534 .6349945 .24972534 .6289978 .24972534 .6239929 .24772644 .621994 .23971558 .61299136 .21069336 .58999636 .13963318 .5209961 .081588748 .45199586 .025543213 .3889923 .008529663 .33699037 .008529663 .24699402 .008529663 .14099121 .060577394 .14099121 .21670532 .14099121 .27374269 .1619873 .43588258 .2619934 .55296328 .32299806 .62402346 .4169922 .67407229 .5059967 .67407229 .60798647 .67407229 .6669922 .5970001 .6669922 .48091126 .6669922 .44088746 .6639862 .43988038 .6639862 .4298706 .6639862 .41986085 .6749878 .41986085 .67900088 .41986085 .69200137 .41986085 .69200137 .42185975 .69699099 .43988038L.7599945 .69506838Z"/>
</defs>
<path transform="matrix(1.00003,0,0,-1.00006,89.352268,84.7263)" stroke-width=".79701" stroke-linecap="butt" stroke-miterlimit="10" stroke-linejoin="miter" fill="none" stroke="#d5d6d5" d="M0 0H65.19774"/>
<path transform="matrix(1.00003,0,0,-1.00006,89.352268,84.7263)" stroke-width=".79701" stroke-linecap="butt" stroke-miterlimit="10" stroke-linejoin="miter" fill="none" stroke="#d5d6d5" d="M0 0 56.46263 32.59865"/>
<path transform="matrix(1.00003,0,0,-1.00006,89.352268,84.7263)" stroke-width=".79701" stroke-linecap="butt" stroke-miterlimit="10" stroke-linejoin="miter" fill="none" stroke="#d5d6d5" d="M0 0 32.59865 56.46263"/>
<path transform="matrix(1.00003,0,0,-1.00006,89.352268,84.7263)" stroke-width=".79701" stroke-linecap="butt" stroke-miterlimit="10" stroke-linejoin="miter" fill="none" stroke="#d5d6d5" d="M0 0V65.19774"/>
<path transform="matrix(1.00003,0,0,-1.00006,89.352268,84.7263)" stroke-width=".79701" stroke-linecap="butt" stroke-miterlimit="10" stroke-linejoin="miter" fill="none" stroke="#d5d6d5" d="M0 0-32.59865 56.46263"/>
<path transform="matrix(1.00003,0,0,-1.00006,89.352268,84.7263)" stroke-width=".79701" stroke-linecap="butt" stroke-miterlimit="10" stroke-linejoin="miter" fill="none" stroke="#d5d6d5" d="M0 0-56.46263 32.59865"/>
<path transform="matrix(1.00003,0,0,-1.00006,89.352268,84.7263)" stroke-width=".79701" stroke-linecap="butt" stroke-miterlimit="10" stroke-linejoin="miter" fill="none" stroke="#d5d6d5" d="M0 0H-65.19774"/>
<path transform="matrix(1.00003,0,0,-1.00006,89.352268,84.7263)" stroke-width=".79701" stroke-linecap="butt" stroke-miterlimit="10" stroke-linejoin="miter" fill="none" stroke="#d5d6d5" d="M0 0-56.46263-32.59865"/>
<path transform="matrix(1.00003,0,0,-1.00006,89.352268,84.7263)" stroke-width=".79701" stroke-linecap="butt" stroke-miterlimit="10" stroke-linejoin="miter" fill="none" stroke="#d5d6d5" d="M0 0-32.59865-56.46263"/>
<path transform="matrix(1.00003,0,0,-1.00006,89.352268,84.7263)" stroke-width=".79701" stroke-linecap="butt" stroke-miterlimit="10" stroke-linejoin="miter" fill="none" stroke="#d5d6d5" d="M0 0V-65.19774"/>
<path transform="matrix(1.00003,0,0,-1.00006,89.352268,84.7263)" stroke-width=".79701" stroke-linecap="butt" stroke-miterlimit="10" stroke-linejoin="miter" fill="none" stroke="#d5d6d5" d="M0 0 32.59865-56.46263"/>
<path transform="matrix(1.00003,0,0,-1.00006,89.352268,84.7263)" stroke-width=".79701" stroke-linecap="butt" stroke-miterlimit="10" stroke-linejoin="miter" fill="none" stroke="#d5d6d5" d="M0 0 56.46263-32.59865"/>
<path transform="matrix(1.00003,0,0,-1.00006,89.352268,84.7263)" stroke-width=".79701" stroke-linecap="butt" stroke-miterlimit="10" stroke-linejoin="miter" fill="none" stroke="#d5d6d5" d="M0 0H65.19774"/>
<path transform="matrix(1.00003,0,0,-1.00006,89.352268,84.7263)" stroke-width=".3985" stroke-linecap="butt" stroke-miterlimit="10" stroke-linejoin="miter" fill="none" stroke="#000000" d="M79.37114 0"/>
<use data-text="0" xlink:href="#font_1_1" transform="matrix(9.962899,0,0,-9.963197,163.9445,88.15651)"/>
<use data-text="&#x25e6;" xlink:href="#font_2_1" transform="matrix(6.9740097,0,0,-6.9742186,168.92665,84.54129)"/>
<path transform="matrix(1.00003,0,0,-1.00006,89.352268,84.7263)" stroke-width=".3985" stroke-linecap="butt" stroke-miterlimit="10" stroke-linejoin="miter" fill="none" stroke="#000000" d="M68.7372 39.68535"/>
<use data-text="3" xlink:href="#font_1_4" transform="matrix(9.962899,0,0,-9.963197,150.82012,48.469129)"/>
<use data-text="0" xlink:href="#font_1_1" transform="matrix(9.962899,0,0,-9.963197,155.80156,48.469129)"/>
<use data-text="&#x25e6;" xlink:href="#font_2_1" transform="matrix(6.9740097,0,0,-6.9742186,160.78342,44.85391)"/>
<path transform="matrix(1.00003,0,0,-1.00006,89.352268,84.7263)" stroke-width=".3985" stroke-linecap="butt" stroke-miterlimit="10" stroke-linejoin="miter" fill="none" stroke="#000000" d="M39.68535 68.7372"/>
<use data-text="6" xlink:href="#font_1_7" transform="matrix(9.962899,0,0,-9.963197,121.76724,19.41539)"/>
<use data-text="0" xlink:href="#font_1_1" transform="matrix(9.962899,0,0,-9.963197,126.74869,19.41539)"/>
<use data-text="&#x25e6;" xlink:href="#font_2_1" transform="matrix(6.9740097,0,0,-6.9742186,131.73055,15.800171)"/>
<path transform="matrix(1.00003,0,0,-1.00006,89.352268,84.7263)" stroke-width=".3985" stroke-linecap="butt" stroke-miterlimit="10" stroke-linejoin="miter" fill="none" stroke="#000000" d="M0 79.37114"/>
<use data-text="9" xlink:href="#font_1_10" transform="matrix(9.962899,0,0,-9.963197,82.08105,8.780746)"/>
<use data-text="0" xlink:href="#font_1_1" transform="matrix(9.962899,0,0,-9.963197,87.06249,8.780746)"/>
<use data-text="&#x25e6;" xlink:href="#font_2_1" transform="matrix(6.9740097,0,0,-6.9742186,92.04435,5.1655275)"/>
<path transform="matrix(1.00003,0,0,-1.00006,89.352268,84.7263)" stroke-width=".3985" stroke-linecap="butt" stroke-miterlimit="10" stroke-linejoin="miter" fill="none" stroke="#000000" d="M-39.68535 68.7372"/>
<use data-text="1" xlink:href="#font_1_2" transform="matrix(9.962899,0,0,-9.963197,39.903779,19.41539)"/>
<use data-text="2" xlink:href="#font_1_3" transform="matrix(9.962899,0,0,-9.963197,44.885225,19.41539)"/>
<use data-text="0" xlink:href="#font_1_1" transform="matrix(9.962899,0,0,-9.963197,49.86667,19.41539)"/>
<use data-text="&#x25e6;" xlink:href="#font_2_1" transform="matrix(6.9740097,0,0,-6.9742186,54.848237,15.800171)"/>
<path transform="matrix(1.00003,0,0,-1.00006,89.352268,84.7263)" stroke-width=".3985" stroke-linecap="butt" stroke-miterlimit="10" stroke-linejoin="miter" fill="none" stroke="#000000" d="M-68.7372 39.68535"/>
<use data-text="1" xlink:href="#font_1_2" transform="matrix(9.962899,0,0,-9.963197,10.850906,48.469129)"/>
<use data-text="5" xlink:href="#font_1_6" transform="matrix(9.962899,0,0,-9.963197,15.832352,48.469129)"/>
<use data-text="0" xlink:href="#font_1_1" transform="matrix(9.962899,0,0,-9.963197,20.813797,48.469129)"/>
<use data-text="&#x25e6;" xlink:href="#font_2_1" transform="matrix(6.9740097,0,0,-6.9742186,25.795365,44.85391)"/>
<path transform="matrix(1.00003,0,0,-1.00006,89.352268,84.7263)" stroke-width=".3985" stroke-linecap="butt" stroke-miterlimit="10" stroke-linejoin="miter" fill="none" stroke="#000000" d="M-79.37114 0"/>
<use data-text="1" xlink:href="#font_1_2" transform="matrix(9.962899,0,0,-9.963197,.21658325,88.15651)"/>
<use data-text="8" xlink:href="#font_1_9" transform="matrix(9.962899,0,0,-9.963197,5.1980288,88.15651)"/>
<use data-text="0" xlink:href="#font_1_1" transform="matrix(9.962899,0,0,-9.963197,10.179474,88.15651)"/>
<use data-text="&#x25e6;" xlink:href="#font_2_1" transform="matrix(6.9740097,0,0,-6.9742186,15.161041,84.54129)"/>
<path transform="matrix(1.00003,0,0,-1.00006,89.352268,84.7263)" stroke-width=".3985" stroke-linecap="butt" stroke-miterlimit="10" stroke-linejoin="miter" fill="none" stroke="#000000" d="M-68.7372-39.68535"/>
<use data-text="2" xlink:href="#font_1_3" transform="matrix(9.962899,0,0,-9.963197,10.850906,127.84389)"/>
<use data-text="1" xlink:href="#font_1_2" transform="matrix(9.962899,0,0,-9.963197,15.832352,127.84389)"/>
<use data-text="0" xlink:href="#font_1_1" transform="matrix(9.962899,0,0,-9.963197,20.813797,127.84389)"/>
<use data-text="&#x25e6;" xlink:href="#font_2_1" transform="matrix(6.9740097,0,0,-6.9742186,25.795365,124.22867)"/>
<path transform="matrix(1.00003,0,0,-1.00006,89.352268,84.7263)" stroke-width=".3985" stroke-linecap="butt" stroke-miterlimit="10" stroke-linejoin="miter" fill="none" stroke="#000000" d="M-39.68535-68.7372"/>
<use data-text="2" xlink:href="#font_1_3" transform="matrix(9.962899,0,0,-9.963197,39.903779,156.89763)"/>
<use data-text="4" xlink:href="#font_1_5" transform="matrix(9.962899,0,0,-9.963197,44.885225,156.89763)"/>
<use data-text="0" xlink:href="#font_1_1" transform="matrix(9.962899,0,0,-9.963197,49.86667,156.89763)"/>
<use data-text="&#x25e6;" xlink:href="#font_2_1" transform="matrix(6.9740097,0,0,-6.9742186,54.848237,153.28241)"/>
<path transform="matrix(1.00003,0,0,-1.00006,89.352268,84.7263)" stroke-width=".3985" stroke-linecap="butt" stroke-miterlimit="10" stroke-linejoin="miter" fill="none" stroke="#000000" d="M0-79.37114"/>
<use data-text="2" xlink:href="#font_1_3" transform="matrix(9.962899,0,0,-9.963197,79.58997,167.53227)"/>
<use data-text="7" xlink:href="#font_1_8" transform="matrix(9.962899,0,0,-9.963197,84.57142,167.53227)"/>
<use data-text="0" xlink:href="#font_1_1" transform="matrix(9.962899,0,0,-9.963197,89.552867,167.53227)"/>
<use data-text="&#x25e6;" xlink:href="#font_2_1" transform="matrix(6.9740097,0,0,-6.9742186,94.53443,163.91706)"/>
<path transform="matrix(1.00003,0,0,-1.00006,89.352268,84.7263)" stroke-width=".3985" stroke-linecap="butt" stroke-miterlimit="10" stroke-linejoin="miter" fill="none" stroke="#000000" d="M39.68535-68.7372"/>
<use data-text="3" xlink:href="#font_1_4" transform="matrix(9.962899,0,0,-9.963197,119.27616,156.89763)"/>
<use data-text="0" xlink:href="#font_1_1" transform="matrix(9.962899,0,0,-9.963197,124.25761,156.89763)"/>
<use data-text="0" xlink:href="#font_1_1" transform="matrix(9.962899,0,0,-9.963197,129.23905,156.89763)"/>
<use data-text="&#x25e6;" xlink:href="#font_2_1" transform="matrix(6.9740097,0,0,-6.9742186,134.22061,153.28241)"/>
<path transform="matrix(1.00003,0,0,-1.00006,89.352268,84.7263)" stroke-width=".3985" stroke-linecap="butt" stroke-miterlimit="10" stroke-linejoin="miter" fill="none" stroke="#000000" d="M68.7372-39.68535"/>
<use data-text="3" xlink:href="#font_1_4" transform="matrix(9.962899,0,0,-9.963197,148.32904,127.84389)"/>
<use data-text="3" xlink:href="#font_1_4" transform="matrix(9.962899,0,0,-9.963197,153.31049,127.84389)"/>
<use data-text="0" xlink:href="#font_1_1" transform="matrix(9.962899,0,0,-9.963197,158.29193,127.84389)"/>
<use data-text="&#x25e6;" xlink:href="#font_2_1" transform="matrix(6.9740097,0,0,-6.9742186,163.2735,124.22867)"/>
<path transform="matrix(1.00003,0,0,-1.00006,89.352268,84.7263)" stroke-width=".79701" stroke-linecap="butt" stroke-miterlimit="10" stroke-linejoin="miter" fill="none" stroke="#d5d6d5" d="M0 0 46.10162 46.10162"/>
<path transform="matrix(1.00003,0,0,-1.00006,89.352268,84.7263)" stroke-width=".79701" stroke-linecap="butt" stroke-miterlimit="10" stroke-linejoin="miter" fill="none" stroke="#d5d6d5" d="M0 0-46.10162 46.10162"/>
<path transform="matrix(1.00003,0,0,-1.00006,89.352268,84.7263)" stroke-width=".79701" stroke-linecap="butt" stroke-miterlimit="10" stroke-linejoin="miter" fill="none" stroke="#d5d6d5" d="M0 0-46.10162-46.10162"/>
<path transform="matrix(1.00003,0,0,-1.00006,89.352268,84.7263)" stroke-width=".79701" stroke-linecap="butt" stroke-miterlimit="10" stroke-linejoin="miter" fill="none" stroke="#d5d6d5" d="M0 0 46.10162-46.10162"/>
<path transform="matrix(1.00003,0,0,-1.00006,89.352268,84.7263)" stroke-width=".3985" stroke-linecap="butt" stroke-miterlimit="10" stroke-linejoin="miter" fill="none" stroke="#000000" d="M56.12352 56.12352"/>
<use data-text="4" xlink:href="#font_1_5" transform="matrix(9.962899,0,0,-9.963197,138.20574,32.030145)"/>
<use data-text="5" xlink:href="#font_1_6" transform="matrix(9.962899,0,0,-9.963197,143.18718,32.030145)"/>
<use data-text="&#x25e6;" xlink:href="#font_2_1" transform="matrix(6.9740097,0,0,-6.9742186,148.16904,28.414925)"/>
<path transform="matrix(1.00003,0,0,-1.00006,89.352268,84.7263)" stroke-width=".3985" stroke-linecap="butt" stroke-miterlimit="10" stroke-linejoin="miter" fill="none" stroke="#000000" d="M-56.12352 56.12352"/>
<use data-text="1" xlink:href="#font_1_2" transform="matrix(9.962899,0,0,-9.963197,23.46428,32.030145)"/>
<use data-text="3" xlink:href="#font_1_4" transform="matrix(9.962899,0,0,-9.963197,28.445725,32.030145)"/>
<use data-text="5" xlink:href="#font_1_6" transform="matrix(9.962899,0,0,-9.963197,33.42717,32.030145)"/>
<use data-text="&#x25e6;" xlink:href="#font_2_1" transform="matrix(6.9740097,0,0,-6.9742186,38.408739,28.414925)"/>
<path transform="matrix(1.00003,0,0,-1.00006,89.352268,84.7263)" stroke-width=".3985" stroke-linecap="butt" stroke-miterlimit="10" stroke-linejoin="miter" fill="none" stroke="#000000" d="M-56.12352-56.12352"/>
<use data-text="2" xlink:href="#font_1_3" transform="matrix(9.962899,0,0,-9.963197,23.46428,144.28388)"/>
<use data-text="2" xlink:href="#font_1_3" transform="matrix(9.962899,0,0,-9.963197,28.445725,144.28388)"/>
<use data-text="5" xlink:href="#font_1_6" transform="matrix(9.962899,0,0,-9.963197,33.42717,144.28388)"/>
<use data-text="&#x25e6;" xlink:href="#font_2_1" transform="matrix(6.9740097,0,0,-6.9742186,38.408739,140.66866)"/>
<path transform="matrix(1.00003,0,0,-1.00006,89.352268,84.7263)" stroke-width=".3985" stroke-linecap="butt" stroke-miterlimit="10" stroke-linejoin="miter" fill="none" stroke="#000000" d="M56.12352-56.12352"/>
<use data-text="3" xlink:href="#font_1_4" transform="matrix(9.962899,0,0,-9.963197,135.71466,144.28388)"/>
<use data-text="1" xlink:href="#font_1_2" transform="matrix(9.962899,0,0,-9.963197,140.6961,144.28388)"/>
<use data-text="5" xlink:href="#font_1_6" transform="matrix(9.962899,0,0,-9.963197,145.67755,144.28388)"/>
<use data-text="&#x25e6;" xlink:href="#font_2_1" transform="matrix(6.9740097,0,0,-6.9742186,150.65912,140.66866)"/>
<path transform="matrix(1.00003,0,0,-1.00006,89.352268,84.7263)" stroke-width=".79701" stroke-linecap="butt" stroke-miterlimit="10" stroke-linejoin="miter" fill="none" stroke="#d5d6d5" d="M28.3468 0C28.3468 15.6557 15.6557 28.3468 0 28.3468-15.6557 28.3468-28.3468 15.6557-28.3468 0-28.3468-15.6557-15.6557-28.3468 0-28.3468 15.6557-28.3468 28.3468-15.6557 28.3468 0ZM0 0"/>
<path transform="matrix(1.00003,0,0,-1.00006,89.352268,84.7263)" stroke-width=".79701" stroke-linecap="butt" stroke-miterlimit="10" stroke-linejoin="miter" fill="none" stroke="#d5d6d5" d="M56.69362 0C56.69362 31.31142 31.31142 56.69362 0 56.69362-31.31142 56.69362-56.69362 31.31142-56.69362 0-56.69362-31.31142-31.31142-56.69362 0-56.69362 31.31142-56.69362 56.69362-31.31142 56.69362 0ZM0 0"/>
<path transform="matrix(1.00003,0,0,-1.00006,89.352268,84.7263)" stroke-width=".3985" stroke-linecap="butt" stroke-miterlimit="10" stroke-linejoin="miter" fill="none" stroke="#000000" d="M0 0"/>
<use data-text="0" xlink:href="#font_1_1" transform="matrix(9.962899,0,0,-9.963197,92.87237,94.6669)"/>
<path transform="matrix(1.00003,0,0,-1.00006,89.352268,84.7263)" stroke-width=".3985" stroke-linecap="butt" stroke-miterlimit="10" stroke-linejoin="miter" fill="none" stroke="#000000" d="M28.3468 0"/>
<use data-text="1" xlink:href="#font_1_2" transform="matrix(9.962899,0,0,-9.963197,121.22022,94.6669)"/>
<path transform="matrix(1.00003,0,0,-1.00006,89.352268,84.7263)" stroke-width=".3985" stroke-linecap="butt" stroke-miterlimit="10" stroke-linejoin="miter" fill="none" stroke="#000000" d="M56.69362 0"/>
<use data-text="2" xlink:href="#font_1_3" transform="matrix(9.962899,0,0,-9.963197,149.56708,94.6669)"/>
<path transform="matrix(1.00003,0,0,-1.00006,89.352268,84.7263)" d="M1.99255 0C1.99255 1.10046 1.10046 1.99255 0 1.99255-1.10046 1.99255-1.99255 1.10046-1.99255 0-1.99255-1.10046-1.10046-1.99255 0-1.99255 1.10046-1.99255 1.99255-1.10046 1.99255 0ZM0 0"/>
<path transform="matrix(1.00003,0,0,-1.00006,89.352268,84.7263)" d="M30.33936 0C30.33936 1.10046 29.44728 1.99255 28.3468 1.99255 27.24634 1.99255 26.35425 1.10046 26.35425 0 26.35425-1.10046 27.24634-1.99255 28.3468-1.99255 29.44728-1.99255 30.33936-1.10046 30.33936 0ZM28.3468 0"/>
<path transform="matrix(1.00003,0,0,-1.00006,89.352268,84.7263)" d="M58.68617 0C58.68617 1.10046 57.79408 1.99255 56.69362 1.99255 55.59314 1.99255 54.70107 1.10046 54.70107 0 54.70107-1.10046 55.59314-1.99255 56.69362-1.99255 57.79408-1.99255 58.68617-1.10046 58.68617 0ZM56.69362 0"/>
<path transform="matrix(1.00003,0,0,-1.00006,89.352268,84.7263)" stroke-width=".79701" stroke-linecap="butt" stroke-miterlimit="10" stroke-linejoin="miter" fill="none" stroke="#000000" d="M-64.49037 0H64.49037"/>
<path transform="matrix(-1.00003,-0,0,1.00006,24.859955,84.7263)" stroke-width=".6376" stroke-linecap="round" stroke-linejoin="round" fill="none" stroke="#000000" d="M-1.55415 2.0722C-1.42464 1.29512 0 .1295 .38852 0 0-.1295-1.42464-1.29512-1.55415-2.0722"/>
<path transform="matrix(1.00003,0,0,-1.00006,153.84458,84.7263)" stroke-width=".6376" stroke-linecap="round" stroke-linejoin="round" fill="none" stroke="#000000" d="M-1.55415 2.0722C-1.42464 1.29512 0 .1295 .38852 0 0-.1295-1.42464-1.29512-1.55415-2.0722"/>
<path transform="matrix(1.00003,0,0,-1.00006,89.352268,84.7263)" stroke-width=".3985" stroke-linecap="butt" stroke-miterlimit="10" stroke-linejoin="miter" fill="none" stroke="#ff0000" d="M28.3468 0C28.3468 0 28.34325 .10712 28.34074 .14835 28.33823 .18958 28.33293 .25592 28.32861 .29715 28.32431 .33838 28.31615 .40439 28.3096 .4455 28.30307 .4866 28.2903 .55244 28.28148 .59343 28.27266 .63441 28.2568 .70012 28.24602 .74092 28.23521 .78172 28.21646 .84688 28.20363 .88756 28.1908 .92824 28.16856 .99362 28.15344 1.03418 28.13834 1.07474 28.11191 1.1397 28.09464 1.17996 28.07736 1.22021 28.04808 1.2844 28.02888 1.32442 28.00969 1.36444 27.97775 1.42874 27.95622 1.46846 27.93468 1.50818 27.89748 1.57141 27.8736 1.61076 27.84972 1.65012 27.80986 1.7132 27.78406 1.7522 27.75826 1.79121 27.71545 1.85333 27.6876 1.8919 27.65977 1.9305 27.61342 1.99223 27.58336 2.03032 27.5533 2.06842 27.50296 2.12888 27.47092 2.16656 27.43886 2.20425 27.38641 2.2647 27.3524 2.30196 27.31837 2.33922 27.2619 2.39838 27.22566 2.43517 27.1894 2.47195 27.12935 2.53093 27.09114 2.56711 27.05292 2.60329 26.9901 2.66042 26.95013 2.69598 26.91017 2.73157 26.8452 2.78856 26.80307 2.8236 26.76094 2.85863 26.6909 2.91422 26.64648 2.9486 26.60208 2.98299 26.52919 3.03772 26.48299 3.07143 26.4368 3.10515 26.36174 3.15868 26.31343 3.19168 26.26512 3.22469 26.18507 3.27705 26.1348 3.30933 26.0845 3.3416 26.00305 3.39284 25.95097 3.4244 25.8989 3.45595 25.81337 3.50607 25.75935 3.53685 25.70534 3.56764 25.61754 3.61629 25.56168 3.64627 25.50581 3.67627 25.41438 3.72389 25.35666 3.75311 25.29893 3.78233 25.20499 3.82855 25.14558 3.85693 25.08618 3.88531 24.98982 3.93022 24.92844 3.9577 24.86705 3.98518 24.7664 4.02852 24.7031 4.05502 24.6398 4.08154 24.53711 4.12328 24.47212 4.14888 24.40714 4.1745 24.30144 4.215 24.23465 4.23972 24.16788 4.26443 24.0593 4.3034 23.9907 4.3271 23.92212 4.3508 23.81047 4.38783 23.74026 4.41057 23.67006 4.43332 23.5564 4.46925 23.48463 4.49103 23.41286 4.51279 23.29651 4.54688 23.22295 4.56758 23.14938 4.58829 23.02959 4.62064 22.95435 4.64026 22.87909 4.65988 22.75713 4.6905 22.68056 4.70903 22.60399 4.72757 22.48056 4.75652 22.40242 4.7739 22.32428 4.79129 22.19725 4.8182 22.11739 4.83446 22.0375 4.85072 21.9081 4.876 21.82672 4.89113 21.74535 4.90623 21.61385 4.92955 21.53085 4.94347 21.44788 4.95737 21.31296 4.97876 21.22852 4.99147 21.14409 5.00418 21.0079 5.02353 20.92227 5.03516 20.83664 5.04678 20.6983 5.06496 20.6113 5.07538 20.52428 5.08582 20.3835 5.1013 20.2951 5.11043 20.20671 5.11955 20.06383 5.13322 19.97417 5.14113 19.8845 5.14903 19.73979 5.1608 19.64888 5.16751 19.55798 5.17422 19.41121 5.18419 19.31886 5.18959 19.22652 5.19498 19.07677 5.20236 18.98322 5.20644 18.88966 5.21051 18.73917 5.21623 18.64453 5.21898 18.5499 5.22174 18.39706 5.22498 18.3011 5.22635 18.20515 5.2277 18.05 5.22884 17.95291 5.22894 17.8558 5.22905 17.69931 5.2284 17.60126 5.2272 17.5032 5.22603 17.3452 5.22285 17.24614 5.22029 17.14706 5.21773 16.98723 5.21255 16.88715 5.2086 16.78705 5.20465 16.62567 5.19708 16.52466 5.19174 16.42366 5.1864 16.26108 5.17677 16.15918 5.1701 16.05728 5.16345 15.89313 5.15178 15.7902 5.14374 15.68729 5.1357 15.52124 5.12161 15.41737 5.11214 15.31349 5.10268 15.14604 5.08624 15.0415 5.07538 14.93695 5.06453 14.76926 5.04617 14.66388 5.03387 14.5585 5.02158 14.38824 5.00052 14.28197 4.98671 14.17569 4.97292 14.00476 4.94954 13.89787 4.93437 13.79099 4.9192 13.61914 4.89384 13.5116 4.87729 13.40407 4.86073 13.23094 4.833 13.12276 4.81499 13.01456 4.797 12.84055 4.76695 12.73174 4.74753 12.62294 4.7281 12.44777 4.69566 12.33856 4.67487 12.22934 4.65405 12.05428 4.61975 11.94452 4.59744 11.83476 4.57512 11.65773 4.5377 11.54744 4.51395 11.43715 4.49019 11.26018 4.45122 11.14952 4.42613 11.03886 4.40106 10.86101 4.35973 10.74986 4.33315 10.63872 4.30658 10.46 4.26262 10.34845 4.23453 10.2369 4.20645 10.05762 4.16019 9.94577 4.13072 9.83391 4.10126 9.6543 4.05301 9.5422 4.02216 9.4301 3.99132 9.25012 3.94066 9.13779 3.90839 9.02544 3.87611 8.84502 3.82317 8.7325 3.78944 8.61996 3.75574 8.4394 3.70047 8.32677 3.66531 8.21414 3.63014 8.03343 3.57254 7.92062 3.53598 7.8078 3.49944 7.6266 3.4398 7.5136 3.40189 7.4006 3.36398 7.21909 3.30193 7.10616 3.26262 6.99323 3.22333 6.81244 3.15927 6.69957 3.11859 6.58669 3.07791 6.40549 3.01149 6.29254 2.96936 6.17961 2.92725 5.99834 2.85838 5.88553 2.81494 5.77272 2.7715 5.59201 2.70097 5.47939 2.6562 5.36674 2.61143 5.18622 2.5384 5.07365 2.49226 4.96107 2.44612 4.78035 2.37099 4.66794 2.32358 4.55554 2.27618 4.37555 2.1993 4.2635 2.15057 4.15147 2.10185 3.97218 2.02246 3.86038 1.97235 3.74858 1.92226 3.56918 1.8407 3.4577 1.78938 3.3462 1.73808 3.168 1.65517 3.05673 1.60254 2.94547 1.54991 2.76666 1.46394 2.65576 1.41005 2.54486 1.35616 2.36769 1.2692 2.2574 1.21411 2.14711 1.15904 1.9707 1.0694 1.86076 1.01299 1.75082 .95659 1.57451 .86508 1.465 .80754 1.35548 .75 1.1803 .65694 1.07138 .59819 .96246 .53944 .78824 .44403 .67993 .38408 .57162 .32414 .39825 .22704 .29065 .16608 .18306 .10512 .01134 .00668-.09558-.05534-.20251-.11739-.37376-.21788-.4801-.28114-.58644-.34439-.75629-.44681-.86203-.51125-.96777-.5757-1.13722-.6802-1.24223-.74568-1.34726-.81116-1.51485-.91666-1.61897-.98315-1.72308-1.04964-1.88934-1.15742-1.99268-1.22493-2.09602-1.29245-2.26132-1.40128-2.36382-1.46976-2.4663-1.53822-2.6298-1.64891-2.73148-1.71846-2.83313-1.78801-2.99577-1.90056-3.09653-1.97107-3.19728-2.04156-3.35796-2.15535-3.4577-2.22668-3.55743-2.29803-3.71663-2.4131-3.8154-2.48535-3.91417-2.5576-4.07184-2.67426-4.16965-2.74747-4.26746-2.82068-4.42358-2.939-4.52043-3.01305-4.6173-3.08708-4.77206-3.20645-4.86777-3.28122-4.96349-3.35599-5.11589-3.47643-5.21033-3.55199-5.30478-3.62753-5.45514-3.74945-5.54858-3.82579-5.64201-3.90211-5.7915-4.02513-5.88379-4.10217-5.97609-4.17921-6.12268-4.30333-6.21384-4.38116-6.30498-4.45898-6.45088-4.5847-6.54083-4.66318-6.63078-4.74167-6.77351-4.86777-6.8622-4.94693-6.95088-5.0261-7.09268-5.15395-7.18011-5.2337-7.26755-5.31345-7.4063-5.44147-7.49242-5.52176-7.57852-5.60205-7.7159-5.73154-7.80081-5.81242-7.88573-5.89331-8.02104-6.02345-8.10446-6.10483-8.18787-6.1862-8.32-6.3171-8.40204-6.39894-8.48407-6.48079-8.61496-6.61247-8.69572-6.69481-8.77649-6.77715-8.90489-6.90965-8.98422-6.9924-9.06357-7.07515-9.18977-7.20822-9.26755-7.29128-9.34532-7.37431-9.46841-7.50755-9.5448-7.59102-9.62119-7.6745-9.74309-7.80905-9.81816-7.89293-9.89323-7.97682-10.01239-8.11165-10.0859-8.19571-10.15942-8.27979-10.27608-8.41455-10.34802-8.49892-10.41998-8.58328-10.53401-8.7192-10.6045-8.80386-10.67502-8.88855-10.78731-9.02449-10.85626-9.10924-10.92522-9.19397-11.03424-9.32976-11.10152-9.41461-11.16878-9.49947-11.27542-9.63582-11.34113-9.72084-11.40683-9.80586-11.51097-9.94241-11.57513-10.02751-11.63928-10.1126-11.74104-10.24913-11.80351-10.33418-11.86597-10.41922-11.9645-10.55533-12.0254-10.64043-12.08632-10.72551-12.1832-10.86237-12.24254-10.94751-12.3019-11.03265-12.39558-11.16914-12.45319-11.25418-12.51077-11.33922-12.60179-11.47545-12.65778-11.56042-12.71378-11.6454-12.80232-11.78175-12.85675-11.86667-12.91116-11.95158-12.99739-12.0878-13.05008-12.17247-13.10277-12.25716-13.18562-12.3926-13.23651-12.47697-13.28738-12.56134-13.36768-12.69649-13.41689-12.78061-13.46608-12.86475-13.54362-12.99951-13.5912-13.08339-13.63878-13.16728-13.7141-13.30177-13.75989-13.3853-13.80566-13.46884-13.87724-13.60231-13.92122-13.68549-13.9652-13.76865-14.0345-13.90195-14.07693-13.9848-14.11935-14.06767-14.18628-14.20038-14.22702-14.28282-14.26776-14.36528-14.33179-14.49727-14.37062-14.57912-14.40944-14.66096-14.46974-14.79137-14.50688-14.8728-14.544-14.95424-14.60284-15.08505-14.63837-15.16606-14.6739-15.24707-14.72934-15.37643-14.76294-15.45673-14.79654-15.53702-14.84866-15.66512-14.88058-15.7448-14.9125-15.8245-14.96281-15.95212-14.99306-16.03114-15.02328-16.11018-15.07027-16.2362-15.09859-16.31445-15.1269-16.3927-15.17058-16.51758-15.19722-16.59517-15.22385-16.67276-15.26561-16.79672-15.29063-16.87372-15.31566-16.95071-15.35442-17.07397-15.37756-17.15012-15.40073-17.22627-15.43611-17.34724-15.4576-17.4226-15.47906-17.49799-15.51257-17.61877-15.53242-17.69337-15.55229-17.76797-15.58276-17.88675-15.60077-17.96027-15.61876-18.03378-15.64606-18.15076-15.66219-18.22324-15.67831-18.29573-15.7026-18.41112-15.71712-18.48277-15.73164-18.55441-15.75403-18.669-15.76686-18.7397-15.7797-18.8104-15.79858-18.92274-15.8097-18.9923-15.82079-19.06184-15.83748-19.17247-15.84688-19.241-15.8563-19.30952-15.86986-19.41869-15.8776-19.48625-15.88533-19.55383-15.89656-19.66167-15.90268-19.72804-15.90878-19.79442-15.9172-19.89941-15.9217-19.96465-15.92621-20.02988-15.93225-20.13405-15.93512-20.19821-15.93799-20.26236-15.94133-20.36426-15.94247-20.42703-15.94362-20.48979-15.94388-20.5892-15.94334-20.65065-15.94281-20.7121-15.94061-20.80963-15.93858-20.86993-15.93654-20.93024-15.93227-21.02637-15.92862-21.08534-15.92497-21.14433-15.91765-21.23764-15.91219-21.29512-15.90674-21.3526-15.89615-21.4435-15.88927-21.49973-15.88239-21.55595-15.87079-21.64557-15.86246-21.70042-15.85413-21.75526-15.83916-21.84177-15.82915-21.89505-15.81912-21.94833-15.80165-22.03261-15.7902-22.08452-15.77876-22.13641-15.75943-22.21863-15.74654-22.26921-15.73364-22.31978-15.71162-22.40004-15.69722-22.44913-15.68283-22.49821-15.65869-22.57573-15.64272-22.62302-15.62675-22.67029-15.5995-22.74419-15.58217-22.78998-15.56483-22.83577-15.53648-22.9087-15.51772-22.95305-15.49895-22.99739-15.46712-23.06715-15.44678-23.10963-15.42644-23.1521-15.39264-23.21835-15.3711-23.25928-15.34955-23.3002-15.31436-23.36519-15.29149-23.4046-15.26863-23.44403-15.23058-23.50584-15.20628-23.54346-15.18199-23.58109-15.14182-23.63988-15.11632-23.67581-15.09084-23.71175-15.04929-23.76822-15.02246-23.80255-14.99565-23.83688-14.95119-23.89076-14.92299-23.92322-14.89479-23.95567-14.84857-24.00583-14.81917-24.03656-14.78976-24.06728-14.74152-24.1157-14.71104-24.14468-14.68056-24.17366-14.63118-24.21848-14.59944-24.24547-14.5677-24.27248-14.51535-24.3142-14.48222-24.33934-14.4491-24.36447-14.39482-24.40324-14.36067-24.4267-14.32654-24.45015-14.23611-24.50845-14.23611-24.50845"/>
<path transform="matrix(1.00003,0,0,-1.00006,89.352268,84.7263)" d="M30.33936 0C30.33936 1.10046 29.44728 1.99255 28.3468 1.99255 27.24634 1.99255 26.35425 1.10046 26.35425 0 26.35425-1.10046 27.24634-1.99255 28.3468-1.99255 29.44728-1.99255 30.33936-1.10046 30.33936 0ZM28.3468 0"/>
<use data-text="A" xlink:href="#font_3_1" transform="matrix(9.962899,0,0,-9.963197,121.22022,81.20609)"/>
<path transform="matrix(1.00003,0,0,-1.00006,89.352268,84.7263)" d="M-12.18126-24.54825C-12.18126-23.44778-13.07335-22.5557-14.17381-22.5557-15.27429-22.5557-16.16637-23.44778-16.16637-24.54825-16.16637-25.64873-15.27429-26.5408-14.17381-26.5408-13.07335-26.5408-12.18126-25.64873-12.18126-24.54825ZM-14.17381-24.54825"/>
<use data-text="B" xlink:href="#font_3_2" transform="matrix(9.962899,0,0,-9.963197,71.14972,119.60439)"/>
<path transform="matrix(1.00003,0,0,-1.00006,89.352268,84.7263)" stroke-width=".3985" stroke-linecap="butt" stroke-miterlimit="10" stroke-linejoin="miter" fill="none" stroke="#0000ff" d="M-14.17339-24.5478C-14.17339-24.5478-14.07922-24.59935-14.04233-24.61787-14.00543-24.63641-13.94519-24.66467-13.90738-24.68147-13.86958-24.69827-13.80873-24.72404-13.76984-24.739-13.73096-24.75394-13.66711-24.77628-13.62709-24.78917-13.58707-24.80206-13.52214-24.82097-13.48134-24.832-13.44054-24.84303-13.37466-24.85953-13.33296-24.86876-13.29126-24.87799-13.22331-24.8914-13.18071-24.8986-13.13812-24.90579-13.06932-24.91544-13.02586-24.92065-12.98242-24.92587-12.91183-24.93288-12.86755-24.93623-12.82327-24.93959-12.75177-24.94365-12.70665-24.94489-12.66154-24.94614-12.58826-24.94621-12.5423-24.94531-12.49632-24.94441-12.42201-24.94127-12.37534-24.9384-12.32864-24.93552-12.25317-24.9294-12.20576-24.92455-12.15837-24.9197-12.0817-24.91025-12.03362-24.90335-11.98555-24.89647-11.90791-24.88362-11.85931-24.8748-11.81071-24.866-11.7326-24.85057-11.68327-24.83978-11.63394-24.829-11.5537-24.81003-11.50377-24.79695-11.45384-24.78389-11.37375-24.76053-11.3234-24.74548-11.27306-24.73044-11.19176-24.70512-11.14087-24.68839-11.08998-24.67165-11.00804-24.64377-10.9566-24.62482-10.90518-24.60585-10.8222-24.573-10.77019-24.5517-10.71815-24.53041-10.63397-24.49448-10.58159-24.47125-10.5292-24.44804-10.4452-24.40952-10.39258-24.38431-10.33995-24.35912-10.25536-24.31702-10.20226-24.2896-10.14915-24.26216-10.06325-24.21599-10.00978-24.18665-9.95631-24.1573-9.87045-24.10927-9.81686-24.07806-9.76328-24.04688-9.67747-23.99521-9.62354-23.96173-9.56958-23.92825-9.48225-23.87225-9.42801-23.83673-9.37378-23.8012-9.28674-23.74294-9.2325-23.70567-9.17827-23.66841-9.09143-23.60742-9.037-23.56812-8.98259-23.52882-8.89487-23.46387-8.8402-23.42235-8.78554-23.38083-8.69762-23.31224-8.64296-23.2688-8.58829-23.22534-8.50082-23.15456-8.44615-23.10919-8.39148-23.06383-8.30377-22.98938-8.24892-22.9418-8.19408-22.89421-8.10559-22.81563-8.05081-22.76619-7.99602-22.71675-7.90874-22.6367-7.854-22.58539-7.79927-22.53409-7.71107-22.4497-7.65634-22.39636-7.60162-22.34302-7.51402-22.256-7.45955-22.20085-7.40506-22.14572-7.31795-22.05594-7.2636-21.99887-7.20923-21.9418-7.12189-21.84863-7.06766-21.78952-7.01341-21.73041-6.92664-21.6339-6.87257-21.57281-6.81853-21.51173-6.73177-21.41208-6.67793-21.3492-6.6241-21.2863-6.53812-21.18433-6.48459-21.11952-6.43106-21.05472-6.34534-20.94872-6.29211-20.88205-6.2389-20.8154-6.15385-20.70726-6.10092-20.63898-6.04799-20.57068-5.96318-20.45999-5.91061-20.38983-5.85805-20.31967-5.77417-20.20546-5.72203-20.13333-5.66989-20.06119-5.58641-19.9436-5.53474-19.86992-5.48308-19.79623-5.40086-19.67747-5.34961-19.60217-5.29837-19.52686-5.21617-19.4043-5.16534-19.32707-5.11453-19.24985-5.03355-19.12448-4.98326-19.0455-4.93297-18.96652-4.85263-18.83846-4.80289-18.75786-4.75314-18.67728-4.67389-18.54694-4.62468-18.4646-4.57547-18.38226-4.49687-18.24841-4.44821-18.16441-4.39955-18.0804-4.32184-17.94463-4.2739-17.85905-4.22595-17.77348-4.14989-17.63477-4.10262-17.54762-4.05533-17.46048-3.97968-17.31963-3.93304-17.23099-3.88643-17.14236-3.81242-16.99889-3.76653-16.90875-3.72063-16.81862-3.6474-16.6729-3.60216-16.58133-3.55692-16.48975-3.48486-16.34183-3.4404-16.2487-3.39594-16.15558-3.32527-16.00473-3.28165-15.91003-3.238-15.81534-3.16876-15.66212-3.12593-15.56616-3.08308-15.47021-3.01488-15.3158-2.97281-15.2184-2.93076-15.121-2.86395-14.96304-2.82272-14.86415-2.7815-14.76526-2.71597-14.60573-2.67566-14.50558-2.63535-14.40543-2.57149-14.24359-2.53206-14.14224-2.49265-14.0409-2.42995-13.87764-2.3915-13.77502-2.35303-13.67241-2.29231-13.5066-2.2548-13.4026-2.2173-13.29861-2.15776-13.13051-2.12115-13.02542-2.08455-12.92035-2.02654-12.75139-1.99095-12.64523-1.95537-12.53908-1.89926-12.36765-1.86465-12.26028-1.83003-12.15292-1.77498-11.97984-1.74138-11.87141-1.70778-11.76299-1.65495-11.5883-1.62244-11.47867-1.58992-11.36903-1.53845-11.19182-1.50694-11.08118-1.47545-10.97052-1.4257-10.79257-1.39536-10.68109-1.36499-10.5696-1.3173-10.38998-1.28809-10.27751-1.25887-10.16505-1.2129-9.98392-1.18471-9.8705-1.15651-9.75708-1.11191-9.57434-1.0848-9.46002-1.05766-9.3457-1.01512-9.16168-.9892-9.04652-.96329-8.93137-.92271-8.74594-.89793-8.62999-.87315-8.51404-.83414-8.32758-.81056-8.21086-.78699-8.09413-.75032-7.90613-.72794-7.7887-.70557-7.67126-.67046-7.4826-.64922-7.36438-.62799-7.24615-.59486-7.05554-.57483-6.9366-.5548-6.81766-.52353-6.62646-.50476-6.5071-.48598-6.38773-.45702-6.19618-.43944-6.07628-.42186-5.95639-.3944-5.76344-.37802-5.64287-.36165-5.52231-.33641-5.32841-.32137-5.2073-.3063-5.08621-.28325-4.89148-.26947-4.77-.25568-4.64854-.23448-4.45374-.22188-4.33186-.20927-4.20998-.18996-4.01376-.17862-3.89153-.16728-3.76929-.15015-3.57336-.14012-3.45076-.13011-3.32816-.11508-3.13075-.10638-3.00786-.0977-2.88496-.08485-2.688-.07742-2.56493-.06998-2.44185-.05893-2.2441-.05276-2.12071-.04659-1.99733-.0377-1.79926-.03285-1.67563-.02802-1.552-.0213-1.35344-.01772-1.22969-.01413-1.10596-.00917-.90749-.00691-.78375-.00464-.66-.00224-.46141-.00128-.3378-.00032-.21417 .00027-.01634 0 .10725-.00027 .23088-.00183 .4294-.00345 .5532-.00505 .67702-.00879 .87572-.01167 .99959-.01454 1.12344-.02002 1.32228-.02422 1.44595-.02841 1.56964-.03642 1.76761-.04193 1.89104-.04745 2.01448-.05722 2.21243-.06401 2.33568-.07079 2.45894-.08273 2.6564-.09082 2.77948-.0989 2.90256-.11305 3.1001-.1224 3.22282-.13174 3.34555-.14767 3.5416-.1583 3.66402-.1689 3.78644-.18703 3.98308-.19896 4.1052-.21089 4.22731-.23117 4.42252-.24437 4.54424-.25755 4.66594-.27965 4.86105-.2941 4.98239-.30856 5.10374-.33289 5.29802-.3486 5.41881-.36432 5.53961-.39052 5.73288-.40744 5.85309-.42436 5.9733-.45247 6.16553-.47058 6.28519-.48871 6.40485-.51868 6.59639-.53807 6.71558-.55745 6.83476-.58966 7.0257-.61029 7.14421-.63092 7.26273-.66507 7.45209-.68684 7.56984-.70863 7.68758-.74432 7.87572-.76732 7.99286-.7903 8.11-.82835 8.29773-.85252 8.41415-.8767 8.53056-.9163 8.71634-.94162 8.83197-.96693 8.94762-1.00858 9.1329-1.03505 9.24765-1.06152 9.3624-1.10478 9.5451-1.13237 9.659-1.15996 9.77289-1.20528 9.9556-1.23401 10.0686-1.26274 10.1816-1.30974 10.36148-1.33955 10.47345-1.36938 10.58543-1.41803 10.76463-1.44899 10.87572-1.47993 10.9868-1.53076 11.16408-1.56274 11.27408-1.59473 11.38408-1.64653 11.55957-1.67953 11.66856-1.71254 11.77754-1.76656 11.95155-1.80064 12.05957-1.83472 12.16759-1.89018 12.34024-1.92522 12.44713-1.96025 12.55402-2.01712 12.72426-2.05325 12.82993-2.08937 12.9356-2.14851 13.10423-2.1856 13.20883-2.22267 13.31342-2.2825 13.48038-2.32054 13.58385-2.35858 13.6873-2.42082 13.85245-2.45982 13.95453-2.49884 14.05661-2.56192 14.21901-2.6017 14.31958-2.6415 14.42017-2.70592 14.58003-2.7466 14.67946-2.78728 14.7789-2.8534 14.93819-2.89496 15.0363-2.93654 15.13441-3.00392 15.29005-3.04634 15.38666-3.08878 15.48326-3.1575 15.63734-3.20078 15.73268-3.24403 15.82803-3.31418 15.97992-3.35822 16.07396-3.40225 16.168-3.47343 16.31801-3.51825 16.41048-3.56306 16.50296-3.63577 16.6496-3.68132 16.74051-3.72687 16.8314-3.80023 16.97617-3.84654 17.06577-3.89287 17.15536-3.96825 17.29831-4.01523 17.38628-4.06223 17.47426-4.13763 17.61371-4.18521 17.69987-4.2328 17.78603-4.30992 17.92267-4.35823 18.0074-4.40654 18.09215-4.48457 18.22743-4.53342 18.31061-4.58226 18.39378-4.66095 18.52553-4.71033 18.6069-4.7597 18.6883-4.83934 18.81732-4.88939 18.89713-4.93944 18.97694-5.02046 19.104-5.07106 19.18219-5.12164 19.26036-5.20296 19.3844-5.25403 19.46072-5.30508 19.53706-5.3876 19.65771-5.43915 19.73238-5.4907 19.80704-5.57361 19.92578-5.62558 19.99883-5.67754 20.07185-5.7614 20.18759-5.81374 20.25877-5.86606 20.32994-5.95012 20.44263-6.00275 20.51181-6.05537 20.581-6.13997 20.68997-6.19307 20.75749-6.24617 20.825-6.33214 20.93265-6.38554 20.99841-6.43895 21.06418-6.52444 21.16782-6.57802 21.23155-6.6316 21.29527-6.71791 21.39583-6.7718 21.45776-6.8257 21.5197-6.91226 21.61774-6.96643 21.67792-7.02061 21.73811-7.10802 21.83345-7.16237 21.8916-7.21674 21.94975-7.30385 22.04088-7.35832 22.09706-7.41281 22.15323-7.50041 22.24197-7.55513 22.29646-7.60986 22.35094-7.69806 22.43735-7.75279 22.48979-7.80751 22.54225-7.89493 22.6242-7.9496 22.67448-8.00426 22.72478-8.09212 22.80391-8.14684 22.85226-8.20157 22.90062-8.2894 22.97673-8.34407 23.02312-8.39874 23.0695-8.48615 23.14215-8.54088 23.18661-8.5956 23.23108-8.68382 23.3011-8.73854 23.34363-8.79327 23.38617-8.8808 23.45279-8.93535 23.49329-8.9899 23.53378-9.0773 23.59718-9.13173 23.63559-9.18616 23.67398-9.27342 23.73369-9.32767 23.77011-9.38191 23.80653-9.46869 23.86353-9.52274 23.89815-9.5768 23.93275-9.66356 23.98723-9.71739 24.01968-9.77121 24.05214-9.8572 24.10197-9.91072 24.13214-9.96425 24.16232-10.04993 24.20898-10.10321 24.23726-10.1565 24.26552-10.24194 24.30959-10.29482 24.33586-10.34769 24.36215-10.43184 24.40251-10.48428 24.4267-10.53673 24.45088-10.62071 24.48793-10.67287 24.5102-10.725 24.53244-10.80843 24.5669-10.86015 24.58717-10.91187 24.60745-10.99452 24.63838-11.0457 24.65639-11.0969 24.67438-11.17834 24.70097-11.2291 24.71693-11.27986 24.7329-11.36134 24.75722-11.41164 24.77144-11.46191 24.78564-11.54202 24.80739-11.59158 24.81944-11.64113 24.8315-11.71994 24.84866-11.7689 24.85837-11.81787 24.86809-11.89616 24.88167-11.94452 24.88953-11.99287 24.89738-12.06989 24.90916-12.11754 24.91504-12.16518 24.9209-12.24097 24.92813-12.28795 24.9319-12.33495 24.93567-12.40984 24.94043-12.45622 24.94229-12.5026 24.94414-12.57675 24.94548-12.6223 24.94531-12.66785 24.94514-12.73985 24.94327-12.7845 24.941-12.82915 24.93874-12.90019 24.93307-12.9441 24.92888-12.98804 24.92468-13.05798 24.91664-13.10114 24.91072-13.14427 24.90479-13.21288 24.8941-13.25511 24.88606-13.29736 24.87802-13.3644 24.86295-13.40562 24.85275-13.44685 24.84254-13.51189 24.82452-13.55226 24.81253-13.59264 24.80054-13.65732 24.78023-13.69673 24.76625-13.73615 24.75227-13.79816 24.72777-13.83644 24.71175-13.87471 24.69572-13.93532 24.66852-13.97269 24.65076-14.01007 24.63301-14.10591 24.58372-14.10591 24.58372"/>
<path transform="matrix(1.00003,0,0,-1.00006,89.352268,84.7263)" d="M-12.17911 24.54955C-12.17911 25.65002-13.07118 26.5421-14.17166 26.5421-15.27213 26.5421-16.16422 25.65002-16.16422 24.54955-16.16422 23.44908-15.27213 22.55699-14.17166 22.55699-13.07118 22.55699-12.17911 23.44908-12.17911 24.54955ZM-14.17166 24.54955"/>
<use data-text="C" xlink:href="#font_3_3" transform="matrix(9.962899,0,0,-9.963197,78.69994,56.65562)"/>
</svg>
