<svg xmlns="http://www.w3.org/2000/svg" xmlns:xlink="http://www.w3.org/1999/xlink" xmlns:inkscape="http://www.inkscape.org/namespaces/inkscape" version="1.1" width="244" height="216" viewBox="0 0 244 216">
<defs>
<path id="font_1_1" d="M.6589966 .23046875C.6759949 .23046875 .69400027 .23046875 .69400027 .25045777 .69400027 .27046205 .6759949 .27046205 .6589966 .27046205H.117996219C.100997928 .27046205 .08299255 .27046205 .08299255 .25045777 .08299255 .23046875 .100997928 .23046875 .117996219 .23046875H.6589966Z"/>
<path id="font_2_2" d="M.1269989 .07699585 .23298645 .18003845C.3889923 .31811524 .44898988 .3721466 .44898988 .47216798 .44898988 .5860901 .35899354 .6660156 .23699951 .6660156 .12399292 .6660156 .049987794 .57411196 .049987794 .48516847 .049987794 .4291687 .099990848 .4291687 .102996829 .4291687 .11999512 .4291687 .15499878 .44117738 .15499878 .48217774 .15499878 .5081787 .13699341 .5341797 .101989749 .5341797 .09399414 .5341797 .09199524 .5341797 .08898926 .5331726 .11199951 .59806826 .1659851 .63500979 .22399903 .63500979 .31498719 .63500979 .35798646 .5541382 .35798646 .47216798 .35798646 .39215089 .30799867 .31311036 .25299073 .25108338L.06098938 .036987306C.049987794 .025985718 .049987794 .023986817 .049987794 0H.42099L.44898988 .17404175H.42399598C.4189911 .14402771 .4119873 .1000061 .4019928 .084991458 .394989 .07699585 .32899476 .07699585 .30699159 .07699585H.1269989Z"/>
<path id="font_2_1" d="M.2939911 .64004519C.2939911 .66400149 .2939911 .6660156 .2709961 .6660156 .20899964 .60227969 .12098694 .60227969 .08898926 .60227969V.57128909C.10899353 .57128909 .16799927 .57128909 .21998596 .5972748V.07902527C.21998596 .042999269 .21699524 .0309906 .1269989 .0309906H.09498596V0C.12998963 .0029907227 .21699524 .0029907227 .25698854 .0029907227 .29699708 .0029907227 .38398744 .0029907227 .4189911 0V.0309906H.3869934C.29699708 .0309906 .2939911 .041992189 .2939911 .07902527V.64004519Z"/>
<clipPath id="clip_3">
<path transform="matrix(1.00005,0,0,-1.00002,70.70762,130.4273)" d="M-139.21668-106.31654V106.32567L0 212.64223 241.13681 151.25664V-61.38557L101.92014-167.70214Z"/>
</clipPath>
<path id="font_4_1" d="M.22399903 .4501953 .049987794 .44218446V.39518739C.10899353 .39518739 .115997318 .39518739 .115997318 .35617066V.04699707H.04699707V0C.07798767 .0009918213 .1269989 .0029907227 .16899109 .0029907227 .19898987 .0029907227 .25 .0009918213 .28599549 0V.04699707H.22399903V.4501953M.23399353 .6173096C.23399353 .66130068 .19799805 .6953125 .1559906 .6953125 .11299133 .6953125 .07798767 .66030886 .07798767 .6173096 .07798767 .5743103 .11299133 .53930667 .1559906 .53930667 .19799805 .53930667 .23399353 .5733032 .23399353 .6173096Z"/>
<path id="font_4_2" d="M.08299255 .44218446V.39518739C.099990848 .39518739 .12199402 .39518739 .13699341 .39318849 .15899658 .38919068 .15899658 .37617494 .15899658 .35516358V-.042114259C.15899658-.09214783 .14399719-.16419983 .083999637-.16419983 .067993167-.16419983 .05999756-.16220093 .04499817-.15820313 .06399536-.14419556 .068984989-.123168949 .068984989-.108169559 .068984989-.073135379 .042999269-.04612732 .0069885256-.04612732-.03100586-.04612732-.056015016-.073135379-.056015016-.10916138-.056015016-.16619873 .0039978029-.20019531 .085998538-.20019531 .17199707-.20019531 .2669983-.14819336 .2669983-.042114259V.4501953L.08299255 .44218446M.2669983 .6173096C.2669983 .66030886 .23199463 .6953125 .18899536 .6953125 .1459961 .6953125 .11099243 .66030886 .11099243 .6173096 .11099243 .5743103 .1459961 .53930667 .18899536 .53930667 .23199463 .53930667 .2669983 .5743103 .2669983 .6173096Z"/>
<path id="font_4_3" d="M.21398926 .23716736V.69433596L.036987306 .6863251V.639328C.09899902 .639328 .10598755 .639328 .10598755 .60032656V.04699707H.036987306V0C.07398987 .0009918213 .12098694 .0029907227 .15699768 .0029907227 .19400025 .0029907227 .24198914 .0009918213 .27799989 0V.04699707H.20899964V.17411804C.23799134 .1971283 .24598694 .20314026 .2659912 .21714783L.36698915 .091033939C.37599183 .07902527 .3919983 .059005739 .3919983 .055999757 .3919983 .04699707 .37399293 .04699707 .36099244 .04699707V0C.3909912 .0019989014 .47799684 .0029907227 .48298646 .0029907227 .5189972 .0029907227 .5529938 .0019989014 .58699038 0V.04699707H.56999209C.5269928 .04699707 .5239868 .050994874 .5109863 .0670166L.34199525 .2782135 .47200013 .37930299C.48599244 .39031983 .49499513 .3973236 .56199648 .3973236V.44433595C.5349884 .44132997 .5099945 .44132997 .48399354 .44132997 .45700074 .44132997 .3919983 .44332887 .36898805 .44433595V.3973236C.3919983 .3973236 .394989 .39431764 .40299989 .38632203L.21398926 .23716736Z"/>
<path id="font_5_1" d="M.33399964 .30233766C.33999635 .32835389 .36299134 .42037965 .43299867 .42037965 .43798829 .42037965 .46199037 .42037965 .48298646 .40734864 .45498658 .402359 .43499757 .37734986 .43499757 .35334779 .43499757 .33735658 .44599916 .31835938 .47299195 .31835938 .49499513 .31835938 .5269928 .3363495 .5269928 .37635804 .5269928 .42837525 .46798707 .4423828 .43399049 .4423828 .37599183 .4423828 .34098817 .38935853 .32899476 .36634828 .3039856 .43237306 .25 .4423828 .22099304 .4423828 .116989139 .4423828 .05999756 .3133545 .05999756 .28834535 .05999756 .27833558 .069992069 .27833558 .07199097 .27833558 .07998657 .27833558 .08299255 .28033448 .084991458 .28933717 .11898804 .39535523 .18499756 .42037965 .21899414 .42037965 .23799134 .42037965 .272995 .4113617 .272995 .35334779 .272995 .32235719 .2559967 .25532533 .21899414 .11528015 .20298767 .053268434 .16799927 .011245728 .12399292 .011245728 .117996219 .011245728 .09498596 .011245728 .07398987 .024276734 .09899902 .029266358 .12098694 .05027771 .12098694 .07827759 .12098694 .105270389 .09899902 .11328125 .083999637 .11328125 .053985597 .11328125 .0289917 .08728027 .0289917 .055267335 .0289917 .009246826 .07899475-.0107421879 .12298584-.0107421879 .18899536-.0107421879 .22499085 .059280397 .22799683 .0652771 .23999024 .028274537 .27598573-.0107421879 .33599855-.0107421879 .43899537-.0107421879 .49598695 .118270877 .49598695 .14328003 .49598695 .1532898 .4869995 .1532898 .48399354 .1532898 .47499085 .1532898 .47299195 .14929199 .47099305 .14228821 .43798829 .03527832 .36999513 .011245728 .33799745 .011245728 .29899598 .011245728 .2829895 .043273927 .2829895 .07727051 .2829895 .09927368 .2889862 .121276859 .2999878 .16529846L.33399964 .30233766Z"/>
<path id="font_5_2" d="M.48599244 .38136292C.48999024 .39537049 .48999024 .39736939 .48999024 .40437318 .48999024 .42237855 .47599793 .43138124 .46099855 .43138124 .45098878 .43138124 .43499757 .42536927 .42599488 .41036988 .42399598 .405365 .41600038 .37435914 .4119873 .35635377 .40499879 .33035279 .397995 .30334474 .3919983 .27633668L.34700013 .09628296C.34298707 .08126831 .2999878 .011245728 .23399353 .011245728 .18299866 .011245728 .17199707 .055267335 .17199707 .0922699 .17199707 .1382904 .18899536 .20030213 .22299195 .28833009 .23899842 .3293457 .24299622 .3403473 .24299622 .36035157 .24299622 .405365 .21099854 .4423828 .16099549 .4423828 .06599426 .4423828 .0289917 .29733277 .0289917 .28833009 .0289917 .27833558 .038986207 .27833558 .040985109 .27833558 .050994874 .27833558 .051986696 .28033448 .056991579 .29634095 .083999637 .3903656 .12399292 .42037965 .1579895 .42037965 .1659851 .42037965 .18299866 .42037965 .18299866 .3883667 .18299866 .36335755 .17298889 .3373413 .1659851 .31834413 .12599182 .21231079 .10798645 .1552887 .10798645 .10827637 .10798645 .019256592 .17098999-.0107421879 .22999573-.0107421879 .2689972-.0107421879 .30299378 .0062561037 .33099366 .03425598 .31799317-.017745972 .30599977-.06674194 .2659912-.11973572 .23999024-.15385437 .20199585-.18309021 .1559906-.18309021 .14199829-.18309021 .09700012-.18005371 .07998657-.14074707 .09599304-.14074707 .10899353-.14074707 .12298584-.1287384 .1329956-.11973572 .14299011-.10673523 .14299011-.08773804 .14299011-.056747438 .115997318-.052734376 .10598755-.052734376 .08299255-.052734376 .049987794-.068740848 .049987794-.11773682 .049987794-.16796875 .09399414-.20507813 .1559906-.20507813 .25898744-.20507813 .3619995-.11373901 .3899994-.00074768069L.48599244 .38136292Z"/>
<path id="font_5_3" d="M.1329956 .08345032C.18699646 .14138794 .21598816 .16636658 .2519989 .19732666 .2519989 .19833374 .31399537 .25128175 .34999085 .2872467 .44499208 .3803711 .46699525 .42837525 .46699525 .43237306 .46699525 .4423828 .45799256 .4423828 .45599366 .4423828 .44898988 .4423828 .44599916 .44036866 .44099427 .43138124 .41099549 .38337709 .3899994 .3671875 .3659973 .3671875 .34199525 .3671875 .32998658 .38237 .31498719 .3993683 .29599 .42237855 .2789917 .4423828 .24598694 .4423828 .17098999 .4423828 .125 .34918214 .125 .3282013 .125 .3231964 .12799073 .31721498 .13699341 .31721498 .1459961 .31721498 .147995 .3222046 .1499939 .3282013 .16899109 .37434388 .22698975 .37538148 .23498535 .37538148 .2559967 .37538148 .2749939 .36820985 .2979889 .36018373 .33799745 .34518434 .34899903 .34518434 .375 .34518434 .33898927 .30223084 .25498963 .2303009 .23599243 .21430969L.1459961 .13040161C.07798767 .06341553 .042999269 .0062561037 .042999269-.00074768069 .042999269-.0107421879 .052993776-.0107421879 .054992677-.0107421879 .06298828-.0107421879 .06498718-.008743286 .070999149 .002243042 .09399414 .037246705 .12399292 .064453128 .1559906 .064453128 .1789856 .064453128 .18899536 .055252077 .21398926 .026245118 .23098755 .0052490236 .24899292-.0107421879 .27799989-.0107421879 .3769989-.0107421879 .43499757 .1164093 .43499757 .14338684 .43499757 .14837647 .43099977 .15338135 .4229889 .15338135 .4139862 .15338135 .4119873 .14738465 .40899659 .14039612 .38598634 .07543945 .32199098 .056243898 .2889862 .056243898 .2689972 .056243898 .25099183 .06239319 .22999573 .06944275 .19599915 .08244324 .18099976 .08644104 .1599884 .08644104 .1579895 .08644104 .14199829 .08644104 .1329956 .08345032Z"/>
</defs>
<path transform="matrix(1.00005,0,0,-1.00002,70.70762,130.4273)" stroke-width=".19925" stroke-linecap="butt" stroke-miterlimit="10" stroke-linejoin="miter" fill="none" stroke="#7f807f" d="M95.30527 58.4334 99.42596 57.38438M72.1025 40.71397 76.22319 39.66496M25.69693 5.27513 29.81763 4.2261M2.49416-12.44429 6.61484-13.4933"/>
<path transform="matrix(1.00005,0,0,-1.00002,70.70762,130.4273)" stroke-width=".19925" stroke-linecap="butt" stroke-miterlimit="10" stroke-linejoin="miter" fill="none" stroke="#7f807f" d="M-27.72917 44.22227-31.10854 41.64154M12.46028 33.99135 9.08092 31.41061M92.83922 13.52948 89.45987 10.94875M133.02869 3.29855 129.64934 .71782"/>
<path transform="matrix(1.00005,0,0,-1.00002,70.70762,130.4273)" stroke-width=".3985" stroke-linecap="butt" stroke-miterlimit="10" stroke-linejoin="miter" fill="none" stroke="#000000" d="M120.5684 75.62831-17.06476-29.479"/>
<path transform="matrix(-.7947597,.6069022,.60692039,.7947359,53.64203,159.90689)" d="M1.99252 0-1.19551 1.59401 0 0-1.19551-1.59401"/>
<path transform="matrix(1.00005,0,0,-1.00002,70.70762,130.4273)" stroke-width=".3985" stroke-linecap="butt" stroke-miterlimit="10" stroke-linejoin="miter" fill="none" stroke="#000000" d="M-69.60834 53.16283 169.59761-7.73125"/>
<path transform="matrix(.9691084,.24667494,.24668232,-.96907946,240.31369,138.15869)" d="M1.99252 0-1.19551 1.59401 0 0-1.19551-1.59401"/>
<use data-text="&#x2212;" xlink:href="#font_1_1" transform="matrix(9.963098,0,0,-9.962799,166.82042,84.00938)"/>
<use data-text="2" xlink:href="#font_2_2" transform="matrix(9.963098,0,0,-9.962799,174.56981,84.00938)"/>
<use data-text="&#x2212;" xlink:href="#font_1_1" transform="matrix(9.963098,0,0,-9.962799,143.61626,101.72873)"/>
<use data-text="1" xlink:href="#font_2_1" transform="matrix(9.963098,0,0,-9.962799,151.36565,101.72873)"/>
<use data-text="1" xlink:href="#font_2_1" transform="matrix(9.963098,0,0,-9.962799,99.43706,135.4664)"/>
<use data-text="2" xlink:href="#font_2_2" transform="matrix(9.963098,0,0,-9.962799,76.232898,153.18576)"/>
<use data-text="&#x2212;" xlink:href="#font_1_1" transform="matrix(9.963098,0,0,-9.962799,32.367704,97.57965)"/>
<use data-text="2" xlink:href="#font_2_2" transform="matrix(9.963098,0,0,-9.962799,40.117094,97.57965)"/>
<use data-text="&#x2212;" xlink:href="#font_1_1" transform="matrix(9.963098,0,0,-9.962799,72.55871,107.81085)"/>
<use data-text="1" xlink:href="#font_2_1" transform="matrix(9.963098,0,0,-9.962799,80.3081,107.81085)"/>
<use data-text="1" xlink:href="#font_2_1" transform="matrix(9.963098,0,0,-9.962799,157.43195,127.444248)"/>
<use data-text="2" xlink:href="#font_2_2" transform="matrix(9.963098,0,0,-9.962799,197.62397,137.67545)"/>
<path transform="matrix(1.00005,0,0,-1.00002,70.70762,130.4273)" stroke-width=".19925" stroke-linecap="butt" stroke-miterlimit="10" stroke-linejoin="miter" fill="none" stroke="#7f807f" d="M-29.41885 40.80586V45.05792M10.7706 30.57492V34.827M91.14954 10.11307V14.36513M131.339-.11786V4.1342"/>
<path transform="matrix(1.00005,0,0,-1.00002,70.70762,130.4273)" stroke-width=".19925" stroke-linecap="butt" stroke-miterlimit="10" stroke-linejoin="miter" fill="none" stroke="#7f807f" d="M48.8997-47.88618 53.0204-48.9352M48.8997-12.4458 53.0204-13.49481M48.8997 58.43492 53.0204 57.38591M48.8997 93.87529 53.0204 92.82628"/>
<path transform="matrix(1.00005,0,0,-1.00002,70.70762,130.4273)" stroke-width=".3985" stroke-linecap="butt" stroke-miterlimit="10" stroke-linejoin="miter" fill="none" stroke="#000000" d="M50.96007-83.85106V126.79863"/>
<path transform="matrix(0,-1.00002,-1.00005,-0,121.670238,3.6261368)" d="M1.99252 0-1.19551 1.59401 0 0-1.19551-1.59401"/>
<use data-text="&#x2212;" xlink:href="#font_1_1" transform="matrix(9.963098,0,0,-9.962799,103.35925,183.12836)"/>
<use data-text="2" xlink:href="#font_2_2" transform="matrix(9.963098,0,0,-9.962799,111.10864,183.12836)"/>
<use data-text="&#x2212;" xlink:href="#font_1_1" transform="matrix(9.963098,0,0,-9.962799,103.35925,147.68665)"/>
<use data-text="1" xlink:href="#font_2_1" transform="matrix(9.963098,0,0,-9.962799,111.10864,147.68665)"/>
<use data-text="1" xlink:href="#font_2_1" transform="matrix(9.963098,0,0,-9.962799,111.108638,76.42822)"/>
<use data-text="2" xlink:href="#font_2_2" transform="matrix(9.963098,0,0,-9.962799,111.108638,40.987504)"/>
<path transform="matrix(1.00005,0,0,-1.00002,70.70762,130.4273)" stroke-width=".19925" stroke-linecap="butt" stroke-miterlimit="10" stroke-linejoin="miter" fill="none" stroke="#7f807f" d="M97.36563 55.78285V60.03491M74.16284 38.06342V42.31549M27.75728 2.62457V6.87663M4.5545-15.09485V-10.84277"/>
<path transform="matrix(1.00005,0,0,-1.00002,70.70762,130.4273)" stroke-width=".19925" stroke-linecap="butt" stroke-miterlimit="10" stroke-linejoin="miter" fill="none" stroke="#7f807f" d="M52.64975-47.12032 49.2704-49.70105M52.64975-11.67995 49.2704-14.26068M52.64975 59.20079 49.2704 56.62006M52.64975 94.64116 49.2704 92.06042"/>
<g clip-path="url(#clip_3)">
<path transform="matrix(1.00005,0,0,-1.00002,70.70762,130.4273)" stroke-width=".79701" stroke-linecap="butt" stroke-miterlimit="10" stroke-linejoin="miter" fill="none" stroke="#0000ff" d="M50.96007 22.47003 28.31944 5.1799"/>
<path transform="matrix(-.7947597,.6069022,.60692039,.7947359,99.02847,125.2473)" stroke-width=".6376" stroke-linecap="round" stroke-linejoin="round" fill="none" stroke="#0000ff" d="M-1.55415 2.0722C-1.42464 1.29512 0 .1295 .38852 0 0-.1295-1.42464-1.29512-1.55415-2.0722"/>
<use data-text="i" xlink:href="#font_4_1" transform="matrix(9.963098,0,0,-9.962799,91.56466,136.31443)" fill="#0000ff"/>
<path transform="matrix(1.00005,0,0,-1.00002,70.70762,130.4273)" stroke-width=".79701" stroke-linecap="butt" stroke-miterlimit="10" stroke-linejoin="miter" fill="none" stroke="#0000ff" d="M50.96007 22.47003 90.46407 12.41357"/>
<path transform="matrix(.9691084,.24667494,.24668232,-.96907946,161.17621,118.013469)" stroke-width=".6376" stroke-linecap="round" stroke-linejoin="round" fill="none" stroke="#0000ff" d="M-1.55415 2.0722C-1.42464 1.29512 0 .1295 .38852 0 0-.1295-1.42464-1.29512-1.55415-2.0722"/>
<use data-text="j" xlink:href="#font_4_2" transform="matrix(9.963098,0,0,-9.962799,165.58136,128.82628)" fill="#0000ff"/>
<path transform="matrix(1.00005,0,0,-1.00002,70.70762,130.4273)" stroke-width=".79701" stroke-linecap="butt" stroke-miterlimit="10" stroke-linejoin="miter" fill="none" stroke="#0000ff" d="M50.96007 22.47003V57.20305"/>
<path transform="matrix(0,-1.00002,-1.00005,-0,121.670238,73.223117)" stroke-width=".6376" stroke-linecap="round" stroke-linejoin="round" fill="none" stroke="#0000ff" d="M-1.55415 2.0722C-1.42464 1.29512 0 .1295 .38852 0 0-.1295-1.42464-1.29512-1.55415-2.0722"/>
<use data-text="k" xlink:href="#font_4_3" transform="matrix(9.963098,0,0,-9.962799,125.38935,75.97522)" fill="#0000ff"/>
</g>
<use data-text="x" xlink:href="#font_5_1" transform="matrix(9.963098,0,0,-9.962799,50.834627,151.49373)"/>
<use data-text="y" xlink:href="#font_5_2" transform="matrix(9.963098,0,0,-9.962799,234.8558,130.4163)"/>
<use data-text="z" xlink:href="#font_5_3" transform="matrix(9.963098,0,0,-9.962799,125.18934,8.206863)"/>
</svg>
