<svg xmlns="http://www.w3.org/2000/svg" xmlns:xlink="http://www.w3.org/1999/xlink" xmlns:inkscape="http://www.inkscape.org/namespaces/inkscape" version="1.1" width="212" height="208" viewBox="0 0 212 208">
<defs>
<path id="font_1_1" d="M.45999146 .31976319C.45999146 .39982606 .45498658 .47988893 .41999818 .5539398 .37399293 .65000918 .2919922 .6660156 .25 .6660156 .18998719 .6660156 .116989139 .64001467 .07598877 .54693606 .04399109 .47789 .038986207 .39982606 .038986207 .31976319 .038986207 .24472046 .042999269 .15464783 .083999637 .07859802 .1269989-.0024719239 .19999695-.022460938 .24899292-.022460938 .30299378-.022460938 .3789978-.0014648438 .4229889 .09359741 .45498658 .16265869 .45999146 .2407074 .45999146 .31976319M.24899292-.00047302247C.20999146-.00047302247 .15098572 .024551392 .1329956 .12062073 .12199402 .18066406 .12199402 .2727356 .12199402 .3317871 .12199402 .39582826 .12199402 .46188355 .12998963 .5159149 .14898682 .63500979 .22399903 .64401248 .24899292 .64401248 .28199769 .64401248 .34799195 .6259918 .36698915 .52693179 .3769989 .47088624 .3769989 .39482118 .3769989 .3317871 .3769989 .25672914 .3769989 .18867493 .3659973 .12461853 .35099793 .029556275 .2939911-.00047302247 .24899292-.00047302247Z"/>
<path id="font_2_1" d="M.5069885 .24998474C.5069885 .3710022 .4099884 .4650116 .2919922 .4650116 .17199707 .4650116 .07699585 .36799623 .07699585 .25097657 .07699585 .1299591 .17399597 .035949708 .2919922 .035949708 .4119873 .035949708 .5069885 .13296509 .5069885 .24998474M.2919922 .08496094C.19799805 .08496094 .12599182 .16096497 .12599182 .24998474 .12599182 .34300233 .19999695 .41601563 .2919922 .41601563 .38598634 .41601563 .45799256 .33999635 .45799256 .25097657 .45799256 .15795899 .38398744 .08496094 .2919922 .08496094Z"/>
<path id="font_1_4" d="M.2899933 .35191346C.37199403 .37893678 .42999269 .4490509 .42999269 .52809146 .42999269 .6100464 .34199525 .6660156 .24598694 .6660156 .14498902 .6660156 .068984989 .60606387 .068984989 .53009036 .068984989 .49710084 .09098816 .47808839 .11999512 .47808839 .15098572 .47808839 .17098999 .50009158 .17098999 .5290985 .17098999 .57910159 .12399292 .57910159 .10899353 .57910159 .13999939 .62802127 .20599365 .64100649 .24198914 .64100649 .2829895 .64100649 .33799745 .6190338 .33799745 .5290985 .33799745 .51708987 .33599855 .45906068 .30999757 .4149933 .27999879 .36691285 .24598694 .36390687 .22099304 .36291505 .21299744 .36190797 .18899536 .35990907 .18199158 .35990907 .17399597 .35890199 .16699219 .35791017 .16699219 .3479004 .16699219 .33691407 .17399597 .33691407 .19099427 .33691407H.23498535C.31698609 .33691407 .35398866 .2686615 .35398866 .17037964 .35398866 .034469606 .2849884 .0055389406 .24099732 .0055389406 .19799805 .0055389406 .12298584 .022491456 .08799744 .08137512 .12298584 .07637024 .1539917 .09837341 .1539917 .1363678 .1539917 .17237854 .1269989 .19238281 .09799194 .19238281 .07398987 .19238281 .041992189 .17837525 .041992189 .1343689 .041992189 .043441774 .1349945-.022460938 .24398804-.022460938 .3659973-.022460938 .45700074 .06838989 .45700074 .17037964 .45700074 .252594 .3939972 .33088685 .2899933 .35191346Z"/>
<path id="font_1_7" d="M.13198853 .327713V.35173036C.13198853 .6047821 .2559967 .64100649 .30699159 .64100649 .33099366 .64100649 .37298585 .634964 .394989 .6007538 .37998963 .6007538 .33999635 .6007538 .33999635 .5557556 .33999635 .524765 .3639984 .5097656 .38598634 .5097656 .4019928 .5097656 .43199159 .51875308 .43199159 .5577545 .43199159 .6178589 .3880005 .6660156 .30499269 .6660156 .1769867 .6660156 .041992189 .5367584 .041992189 .31570436 .041992189 .048553468 .1579895-.022460938 .25099183-.022460938 .3619995-.022460938 .45700074 .07156372 .45700074 .2036438 .45700074 .33070375 .36799623 .4267578 .25698854 .4267578 .18899536 .4267578 .1519928 .37573243 .13198853 .327713M.25099183 .0055389406C.18798828 .0055389406 .1579895 .06556702 .1519928 .080566409 .13398743 .127594 .13398743 .2076416 .13398743 .22564698 .13398743 .30369569 .1659851 .40374757 .2559967 .40374757 .27198792 .40374757 .31799317 .40374757 .34899903 .34172059 .36698915 .30470277 .36698915 .2536621 .36698915 .20463562 .36698915 .15661621 .36698915 .10658264 .34999085 .0705719 .31999208 .010528564 .27398683 .0055389406 .25099183 .0055389406Z"/>
<path id="font_1_10" d="M.36698915 .31781007V.28579713C.36698915 .05178833 .2630005 .0055389406 .20498657 .0055389406 .18798828 .0055389406 .13398743 .007537842 .10699463 .041778566 .15098572 .041778566 .15899658 .07078552 .15899658 .08778381 .15899658 .118774417 .1349945 .13378906 .11299133 .13378906 .09700012 .13378906 .066986087 .12478638 .066986087 .08578491 .066986087 .018615723 .12098694-.022460938 .20599365-.022460938 .33499146-.022460938 .45700074 .11378479 .45700074 .32881166 .45700074 .5979767 .34199525 .6660156 .25299073 .6660156 .19799805 .6660156 .14898682 .64801028 .10598755 .60298159 .06498718 .5579529 .041992189 .5159302 .041992189 .44088746 .041992189 .31581117 .12998963 .21777344 .24198914 .21777344 .30299378 .21777344 .34399415 .25978089 .36698915 .31781007M.24299622 .24076844C.22698975 .24076844 .18099976 .24076844 .1499939 .3038025 .13198853 .3408203 .13198853 .39085389 .13198853 .43988038 .13198853 .49391175 .13198853 .54093936 .15299988 .5779724 .17999268 .6279907 .21798706 .64100649 .25299073 .64100649 .29899598 .64100649 .33198548 .60697939 .34899903 .5619507 .36099244 .52993777 .36499024 .4669037 .36499024 .42086793 .36499024 .3378296 .33099366 .24076844 .24299622 .24076844Z"/>
<path id="font_1_2" d="M.2939911 .64004519C.2939911 .66400149 .2939911 .6660156 .2709961 .6660156 .20899964 .60227969 .12098694 .60227969 .08898926 .60227969V.57128909C.10899353 .57128909 .16799927 .57128909 .21998596 .5972748V.07902527C.21998596 .042999269 .21699524 .0309906 .1269989 .0309906H.09498596V0C.12998963 .0029907227 .21699524 .0029907227 .25698854 .0029907227 .29699708 .0029907227 .38398744 .0029907227 .4189911 0V.0309906H.3869934C.29699708 .0309906 .2939911 .041992189 .2939911 .07902527V.64004519Z"/>
<path id="font_1_3" d="M.1269989 .07699585 .23298645 .18003845C.3889923 .31811524 .44898988 .3721466 .44898988 .47216798 .44898988 .5860901 .35899354 .6660156 .23699951 .6660156 .12399292 .6660156 .049987794 .57411196 .049987794 .48516847 .049987794 .4291687 .099990848 .4291687 .102996829 .4291687 .11999512 .4291687 .15499878 .44117738 .15499878 .48217774 .15499878 .5081787 .13699341 .5341797 .101989749 .5341797 .09399414 .5341797 .09199524 .5341797 .08898926 .5331726 .11199951 .59806826 .1659851 .63500979 .22399903 .63500979 .31498719 .63500979 .35798646 .5541382 .35798646 .47216798 .35798646 .39215089 .30799867 .31311036 .25299073 .25108338L.06098938 .036987306C.049987794 .025985718 .049987794 .023986817 .049987794 0H.42099L.44898988 .17404175H.42399598C.4189911 .14402771 .4119873 .1000061 .4019928 .084991458 .394989 .07699585 .32899476 .07699585 .30699159 .07699585H.1269989Z"/>
<path id="font_1_6" d="M.44898988 .20022583C.44898988 .3193512 .36698915 .41944886 .25898744 .41944886 .21099854 .41944886 .16799927 .40345765 .13198853 .36842347V.5637665C.1519928 .5577698 .18499756 .55078127 .21699524 .55078127 .33999635 .55078127 .4099884 .6417694 .4099884 .6547699 .4099884 .6607666 .40699769 .6657715 .3999939 .6657715 .39898683 .6657715 .39698792 .6657715 .3919983 .66278079 .37199403 .6537781 .32299806 .6337738 .2559967 .6337738 .21598816 .6337738 .16999817 .6407776 .12298584 .6617737 .114990238 .66477969 .11299133 .66477969 .11099243 .66477969 .100997928 .66477969 .100997928 .6567688 .100997928 .6407776V.34439088C.100997928 .32637025 .100997928 .31835938 .114990238 .31835938 .12199402 .31835938 .12399292 .32136537 .12799073 .32736207 .13899231 .3433838 .17599488 .39746095 .25698854 .39746095 .30899049 .39746095 .33399964 .35139466 .34199525 .33337403 .35798646 .29632569 .3600006 .25727845 .3600006 .20722962 .3600006 .17222595 .3600006 .11222839 .33599855 .07035828 .31199647 .031463624 .2749939 .0055389406 .22898865 .0055389406 .1559906 .0055389406 .09899902 .058380128 .08198547 .11723328 .084991458 .1162262 .08799744 .115234378 .09899902 .115234378 .13198853 .115234378 .14898682 .14022827 .14898682 .16423035 .14898682 .18823242 .13198853 .21322632 .09899902 .21322632 .084991458 .21322632 .049987794 .20622254 .049987794 .16023255 .049987794 .07434082 .11898804-.022460938 .23098755-.022460938 .34700013-.022460938 .44898988 .073349 .44898988 .20022583Z"/>
<path id="font_1_9" d="M.16299439 .4569702C.116989139 .486969 .11299133 .52098086 .11299133 .5379791 .11299133 .598999 .17799378 .64100649 .24899292 .64100649 .32199098 .64100649 .38598634 .58898928 .38598634 .51698306 .38598634 .45996095 .34700013 .4119568 .2869873 .37695313L.16299439 .4569702M.30899049 .36193849C.3809967 .3989563 .42999269 .45095826 .42999269 .51698306 .42999269 .6090088 .34098817 .6660156 .25 .6660156 .1499939 .6660156 .068984989 .59199526 .068984989 .49897767 .068984989 .4809723 .070999149 .43595887 .11299133 .38894654 .12399292 .37695313 .16099549 .35194398 .18598938 .33494569 .12799073 .30592347 .041992189 .24984741 .041992189 .15072632 .041992189 .04458618 .14399719-.022460938 .24899292-.022460938 .3619995-.022460938 .45700074 .06060791 .45700074 .16773987 .45700074 .20379639 .44599916 .24885559 .4079895 .2909088 .3889923 .31193543 .37298585 .3219452 .30899049 .36193849M.20899964 .3199463 .33198548 .24183655C.3600006 .2228241 .40699769 .19277954 .40699769 .13169861 .40699769 .05760193 .33198548 .0055389406 .25 .0055389406 .1639862 .0055389406 .09199524 .067611698 .09199524 .15072632 .09199524 .20880127 .12399292 .27288819 .20899964 .3199463Z"/>
<path id="font_1_5" d="M.2939911 .16503906V.07800293C.2939911 .041992189 .2919922 .0309906 .21798706 .0309906H.19699097V0C.23799134 .0029907227 .2899933 .0029907227 .33198548 .0029907227 .37399293 .0029907227 .4269867 .0029907227 .46798707 0V.0309906H.44699098C.37298585 .0309906 .37098695 .041992189 .37098695 .07800293V.16503906H.47099305V.19602967H.37098695V.65075686C.37098695 .67074587 .37098695 .6767578 .35499574 .6767578 .34599305 .6767578 .34298707 .6767578 .33499146 .66474917L.027999878 .19602967V.16503906H.2939911M.2999878 .19602967H.055999757L.2999878 .5688019V.19602967Z"/>
<path id="font_1_8" d="M.47599793 .609375C.4850006 .6213684 .4850006 .62338259 .4850006 .64437869H.24198914C.11999512 .64437869 .117996219 .65737918 .11399841 .67637637H.08898926L.055999757 .4702301H.08099365C.083999637 .48625184 .09298706 .5493469 .10598755 .56137087 .11299133 .5673828 .19099427 .5673828 .20399475 .5673828H.41099549C.3999939 .5513611 .32099916 .4421997 .29899598 .40914918 .20899964 .27394105 .17599488 .1347351 .17599488 .032577516 .17599488 .022567749 .17599488-.022460938 .22200012-.022460938 .2679901-.022460938 .2679901 .022567749 .2679901 .032577516V.08366394C.2679901 .13873291 .2709961 .19381714 .2789917 .24790955 .2829895 .27093507 .29699708 .35707093 .34098817 .41915895L.47599793 .609375Z"/>
</defs>
<path transform="matrix(1,0,0,-1.00003,108.62601,104.00073)" stroke-width=".79701" stroke-linecap="butt" stroke-miterlimit="10" stroke-linejoin="miter" fill="none" stroke="#cccccc" d="M0 0H90.1438"/>
<path transform="matrix(1,0,0,-1.00003,108.62601,104.00073)" stroke-width=".79701" stroke-linecap="butt" stroke-miterlimit="10" stroke-linejoin="miter" fill="none" stroke="#cccccc" d="M0 0 78.06679 45.07176"/>
<path transform="matrix(1,0,0,-1.00003,108.62601,104.00073)" stroke-width=".79701" stroke-linecap="butt" stroke-miterlimit="10" stroke-linejoin="miter" fill="none" stroke="#cccccc" d="M0 0 45.07176 78.06679"/>
<path transform="matrix(1,0,0,-1.00003,108.62601,104.00073)" stroke-width=".79701" stroke-linecap="butt" stroke-miterlimit="10" stroke-linejoin="miter" fill="none" stroke="#cccccc" d="M0 0V90.1438"/>
<path transform="matrix(1,0,0,-1.00003,108.62601,104.00073)" stroke-width=".79701" stroke-linecap="butt" stroke-miterlimit="10" stroke-linejoin="miter" fill="none" stroke="#cccccc" d="M0 0-45.07176 78.06679"/>
<path transform="matrix(1,0,0,-1.00003,108.62601,104.00073)" stroke-width=".79701" stroke-linecap="butt" stroke-miterlimit="10" stroke-linejoin="miter" fill="none" stroke="#cccccc" d="M0 0-78.06679 45.07176"/>
<path transform="matrix(1,0,0,-1.00003,108.62601,104.00073)" stroke-width=".79701" stroke-linecap="butt" stroke-miterlimit="10" stroke-linejoin="miter" fill="none" stroke="#cccccc" d="M0 0H-90.1438"/>
<path transform="matrix(1,0,0,-1.00003,108.62601,104.00073)" stroke-width=".79701" stroke-linecap="butt" stroke-miterlimit="10" stroke-linejoin="miter" fill="none" stroke="#cccccc" d="M0 0-78.06679-45.07176"/>
<path transform="matrix(1,0,0,-1.00003,108.62601,104.00073)" stroke-width=".79701" stroke-linecap="butt" stroke-miterlimit="10" stroke-linejoin="miter" fill="none" stroke="#cccccc" d="M0 0-45.07176-78.06679"/>
<path transform="matrix(1,0,0,-1.00003,108.62601,104.00073)" stroke-width=".79701" stroke-linecap="butt" stroke-miterlimit="10" stroke-linejoin="miter" fill="none" stroke="#cccccc" d="M0 0V-90.1438"/>
<path transform="matrix(1,0,0,-1.00003,108.62601,104.00073)" stroke-width=".79701" stroke-linecap="butt" stroke-miterlimit="10" stroke-linejoin="miter" fill="none" stroke="#cccccc" d="M0 0 45.07176-78.06679"/>
<path transform="matrix(1,0,0,-1.00003,108.62601,104.00073)" stroke-width=".79701" stroke-linecap="butt" stroke-miterlimit="10" stroke-linejoin="miter" fill="none" stroke="#cccccc" d="M0 0 78.06679-45.07176"/>
<path transform="matrix(1,0,0,-1.00003,108.62601,104.00073)" stroke-width=".79701" stroke-linecap="butt" stroke-miterlimit="10" stroke-linejoin="miter" fill="none" stroke="#cccccc" d="M0 0H90.1438"/>
<path transform="matrix(1,0,0,-1.00003,108.62601,104.00073)" stroke-width=".3985" stroke-linecap="butt" stroke-miterlimit="10" stroke-linejoin="miter" fill="none" stroke="#000000" d="M98.64792 0"/>
<use data-text="0" xlink:href="#font_1_1" transform="matrix(9.9626,0,0,-9.962899,202.49301,107.43083)"/>
<use data-text="&#x25e6;" xlink:href="#font_2_1" transform="matrix(6.9738,0,0,-6.9740097,207.474,103.81473)"/>
<path transform="matrix(1,0,0,-1.00003,108.62601,104.00073)" stroke-width=".3985" stroke-linecap="butt" stroke-miterlimit="10" stroke-linejoin="miter" fill="none" stroke="#000000" d="M85.4316 49.32384"/>
<use data-text="3" xlink:href="#font_1_4" transform="matrix(9.9626,0,0,-9.962899,186.78601,58.105356)"/>
<use data-text="0" xlink:href="#font_1_1" transform="matrix(9.9626,0,0,-9.962899,191.7673,58.105356)"/>
<use data-text="&#x25e6;" xlink:href="#font_2_1" transform="matrix(6.9738,0,0,-6.9740097,196.74901,54.48925)"/>
<path transform="matrix(1,0,0,-1.00003,108.62601,104.00073)" stroke-width=".3985" stroke-linecap="butt" stroke-miterlimit="10" stroke-linejoin="miter" fill="none" stroke="#000000" d="M49.32384 85.4316"/>
<use data-text="6" xlink:href="#font_1_7" transform="matrix(9.9626,0,0,-9.962899,150.67801,21.997269)"/>
<use data-text="0" xlink:href="#font_1_1" transform="matrix(9.9626,0,0,-9.962899,155.6593,21.997269)"/>
<use data-text="&#x25e6;" xlink:href="#font_2_1" transform="matrix(6.9738,0,0,-6.9740097,160.641,18.381165)"/>
<path transform="matrix(1,0,0,-1.00003,108.62601,104.00073)" stroke-width=".3985" stroke-linecap="butt" stroke-miterlimit="10" stroke-linejoin="miter" fill="none" stroke="#000000" d="M0 98.64792"/>
<use data-text="9" xlink:href="#font_1_10" transform="matrix(9.9626,0,0,-9.962899,101.35501,8.779869)"/>
<use data-text="0" xlink:href="#font_1_1" transform="matrix(9.9626,0,0,-9.962899,106.3363,8.779869)"/>
<use data-text="&#x25e6;" xlink:href="#font_2_1" transform="matrix(6.9738,0,0,-6.9740097,111.31801,5.163765)"/>
<path transform="matrix(1,0,0,-1.00003,108.62601,104.00073)" stroke-width=".3985" stroke-linecap="butt" stroke-miterlimit="10" stroke-linejoin="miter" fill="none" stroke="#000000" d="M-49.32384 85.4316"/>
<use data-text="1" xlink:href="#font_1_2" transform="matrix(9.9626,0,0,-9.962899,49.54001,21.997269)"/>
<use data-text="2" xlink:href="#font_1_3" transform="matrix(9.9626,0,0,-9.962899,54.5213,21.997269)"/>
<use data-text="0" xlink:href="#font_1_1" transform="matrix(9.9626,0,0,-9.962899,59.502595,21.997269)"/>
<use data-text="&#x25e6;" xlink:href="#font_2_1" transform="matrix(6.9738,0,0,-6.9740097,64.48401,18.381165)"/>
<path transform="matrix(1,0,0,-1.00003,108.62601,104.00073)" stroke-width=".3985" stroke-linecap="butt" stroke-miterlimit="10" stroke-linejoin="miter" fill="none" stroke="#000000" d="M-85.4316 49.32384"/>
<use data-text="1" xlink:href="#font_1_2" transform="matrix(9.9626,0,0,-9.962899,13.432007,58.105356)"/>
<use data-text="5" xlink:href="#font_1_6" transform="matrix(9.9626,0,0,-9.962899,18.4133,58.105356)"/>
<use data-text="0" xlink:href="#font_1_1" transform="matrix(9.9626,0,0,-9.962899,23.394593,58.105356)"/>
<use data-text="&#x25e6;" xlink:href="#font_2_1" transform="matrix(6.9738,0,0,-6.9740097,28.376008,54.48925)"/>
<path transform="matrix(1,0,0,-1.00003,108.62601,104.00073)" stroke-width=".3985" stroke-linecap="butt" stroke-miterlimit="10" stroke-linejoin="miter" fill="none" stroke="#000000" d="M-98.64792 0"/>
<use data-text="1" xlink:href="#font_1_2" transform="matrix(9.9626,0,0,-9.962899,.21600342,107.43083)"/>
<use data-text="8" xlink:href="#font_1_9" transform="matrix(9.9626,0,0,-9.962899,5.197296,107.43083)"/>
<use data-text="0" xlink:href="#font_1_1" transform="matrix(9.9626,0,0,-9.962899,10.178589,107.43083)"/>
<use data-text="&#x25e6;" xlink:href="#font_2_1" transform="matrix(6.9738,0,0,-6.9740097,15.160004,103.81473)"/>
<path transform="matrix(1,0,0,-1.00003,108.62601,104.00073)" stroke-width=".3985" stroke-linecap="butt" stroke-miterlimit="10" stroke-linejoin="miter" fill="none" stroke="#000000" d="M-85.4316-49.32384"/>
<use data-text="2" xlink:href="#font_1_3" transform="matrix(9.9626,0,0,-9.962899,13.432007,156.75632)"/>
<use data-text="1" xlink:href="#font_1_2" transform="matrix(9.9626,0,0,-9.962899,18.4133,156.75632)"/>
<use data-text="0" xlink:href="#font_1_1" transform="matrix(9.9626,0,0,-9.962899,23.394593,156.75632)"/>
<use data-text="&#x25e6;" xlink:href="#font_2_1" transform="matrix(6.9738,0,0,-6.9740097,28.376008,153.14022)"/>
<path transform="matrix(1,0,0,-1.00003,108.62601,104.00073)" stroke-width=".3985" stroke-linecap="butt" stroke-miterlimit="10" stroke-linejoin="miter" fill="none" stroke="#000000" d="M-49.32384-85.4316"/>
<use data-text="2" xlink:href="#font_1_3" transform="matrix(9.9626,0,0,-9.962899,49.54001,192.8654)"/>
<use data-text="4" xlink:href="#font_1_5" transform="matrix(9.9626,0,0,-9.962899,54.5213,192.8654)"/>
<use data-text="0" xlink:href="#font_1_1" transform="matrix(9.9626,0,0,-9.962899,59.502595,192.8654)"/>
<use data-text="&#x25e6;" xlink:href="#font_2_1" transform="matrix(6.9738,0,0,-6.9740097,64.48401,189.2493)"/>
<path transform="matrix(1,0,0,-1.00003,108.62601,104.00073)" stroke-width=".3985" stroke-linecap="butt" stroke-miterlimit="10" stroke-linejoin="miter" fill="none" stroke="#000000" d="M0-98.64792"/>
<use data-text="2" xlink:href="#font_1_3" transform="matrix(9.9626,0,0,-9.962899,98.864009,206.0818)"/>
<use data-text="7" xlink:href="#font_1_8" transform="matrix(9.9626,0,0,-9.962899,103.8453,206.0818)"/>
<use data-text="0" xlink:href="#font_1_1" transform="matrix(9.9626,0,0,-9.962899,108.82659,206.0818)"/>
<use data-text="&#x25e6;" xlink:href="#font_2_1" transform="matrix(6.9738,0,0,-6.9740097,113.80801,202.4657)"/>
<path transform="matrix(1,0,0,-1.00003,108.62601,104.00073)" stroke-width=".3985" stroke-linecap="butt" stroke-miterlimit="10" stroke-linejoin="miter" fill="none" stroke="#000000" d="M49.32384-85.4316"/>
<use data-text="3" xlink:href="#font_1_4" transform="matrix(9.9626,0,0,-9.962899,148.188,192.8654)"/>
<use data-text="0" xlink:href="#font_1_1" transform="matrix(9.9626,0,0,-9.962899,153.1693,192.8654)"/>
<use data-text="0" xlink:href="#font_1_1" transform="matrix(9.9626,0,0,-9.962899,158.15059,192.8654)"/>
<use data-text="&#x25e6;" xlink:href="#font_2_1" transform="matrix(6.9738,0,0,-6.9740097,163.132,189.2493)"/>
<path transform="matrix(1,0,0,-1.00003,108.62601,104.00073)" stroke-width=".3985" stroke-linecap="butt" stroke-miterlimit="10" stroke-linejoin="miter" fill="none" stroke="#000000" d="M85.4316-49.32384"/>
<use data-text="3" xlink:href="#font_1_4" transform="matrix(9.9626,0,0,-9.962899,184.29502,156.75632)"/>
<use data-text="3" xlink:href="#font_1_4" transform="matrix(9.9626,0,0,-9.962899,189.2763,156.75632)"/>
<use data-text="0" xlink:href="#font_1_1" transform="matrix(9.9626,0,0,-9.962899,194.2576,156.75632)"/>
<use data-text="&#x25e6;" xlink:href="#font_2_1" transform="matrix(6.9738,0,0,-6.9740097,199.23902,153.14022)"/>
<path transform="matrix(1,0,0,-1.00003,108.62601,104.00073)" stroke-width=".79701" stroke-linecap="butt" stroke-miterlimit="10" stroke-linejoin="miter" fill="none" stroke="#cccccc" d="M0 0 63.74124 63.74124"/>
<path transform="matrix(1,0,0,-1.00003,108.62601,104.00073)" stroke-width=".79701" stroke-linecap="butt" stroke-miterlimit="10" stroke-linejoin="miter" fill="none" stroke="#cccccc" d="M0 0-63.74124 63.74124"/>
<path transform="matrix(1,0,0,-1.00003,108.62601,104.00073)" stroke-width=".79701" stroke-linecap="butt" stroke-miterlimit="10" stroke-linejoin="miter" fill="none" stroke="#cccccc" d="M0 0-63.74124-63.74124"/>
<path transform="matrix(1,0,0,-1.00003,108.62601,104.00073)" stroke-width=".79701" stroke-linecap="butt" stroke-miterlimit="10" stroke-linejoin="miter" fill="none" stroke="#cccccc" d="M0 0 63.74124-63.74124"/>
<path transform="matrix(1,0,0,-1.00003,108.62601,104.00073)" stroke-width=".3985" stroke-linecap="butt" stroke-miterlimit="10" stroke-linejoin="miter" fill="none" stroke="#000000" d="M69.75446 69.75446"/>
<use data-text="4" xlink:href="#font_1_5" transform="matrix(9.9626,0,0,-9.962899,171.10901,37.674745)"/>
<use data-text="5" xlink:href="#font_1_6" transform="matrix(9.9626,0,0,-9.962899,176.0903,37.674745)"/>
<use data-text="&#x25e6;" xlink:href="#font_2_1" transform="matrix(6.9738,0,0,-6.9740097,181.072,34.05864)"/>
<path transform="matrix(1,0,0,-1.00003,108.62601,104.00073)" stroke-width=".3985" stroke-linecap="butt" stroke-miterlimit="10" stroke-linejoin="miter" fill="none" stroke="#000000" d="M-69.75446 69.75446"/>
<use data-text="1" xlink:href="#font_1_2" transform="matrix(9.9626,0,0,-9.962899,29.109009,37.674745)"/>
<use data-text="3" xlink:href="#font_1_4" transform="matrix(9.9626,0,0,-9.962899,34.0903,37.674745)"/>
<use data-text="5" xlink:href="#font_1_6" transform="matrix(9.9626,0,0,-9.962899,39.071596,37.674745)"/>
<use data-text="&#x25e6;" xlink:href="#font_2_1" transform="matrix(6.9738,0,0,-6.9740097,44.05301,34.05864)"/>
<path transform="matrix(1,0,0,-1.00003,108.62601,104.00073)" stroke-width=".3985" stroke-linecap="butt" stroke-miterlimit="10" stroke-linejoin="miter" fill="none" stroke="#000000" d="M-69.75446-69.75446"/>
<use data-text="2" xlink:href="#font_1_3" transform="matrix(9.9626,0,0,-9.962899,29.109009,177.18793)"/>
<use data-text="2" xlink:href="#font_1_3" transform="matrix(9.9626,0,0,-9.962899,34.0903,177.18793)"/>
<use data-text="5" xlink:href="#font_1_6" transform="matrix(9.9626,0,0,-9.962899,39.071596,177.18793)"/>
<use data-text="&#x25e6;" xlink:href="#font_2_1" transform="matrix(6.9738,0,0,-6.9740097,44.05301,173.57183)"/>
<path transform="matrix(1,0,0,-1.00003,108.62601,104.00073)" stroke-width=".3985" stroke-linecap="butt" stroke-miterlimit="10" stroke-linejoin="miter" fill="none" stroke="#000000" d="M69.75446-69.75446"/>
<use data-text="3" xlink:href="#font_1_4" transform="matrix(9.9626,0,0,-9.962899,168.61801,177.18793)"/>
<use data-text="1" xlink:href="#font_1_2" transform="matrix(9.9626,0,0,-9.962899,173.5993,177.18793)"/>
<use data-text="5" xlink:href="#font_1_6" transform="matrix(9.9626,0,0,-9.962899,178.5806,177.18793)"/>
<use data-text="&#x25e6;" xlink:href="#font_2_1" transform="matrix(6.9738,0,0,-6.9740097,183.56201,173.57183)"/>
<path transform="matrix(1,0,0,-1.00003,108.62601,104.00073)" stroke-width=".79701" stroke-linecap="butt" stroke-miterlimit="10" stroke-linejoin="miter" fill="none" stroke="#cccccc" d="M17.00824 0C17.00824 9.39351 9.39351 17.00824 0 17.00824-9.39351 17.00824-17.00824 9.39351-17.00824 0-17.00824-9.39351-9.39351-17.00824 0-17.00824 9.39351-17.00824 17.00824-9.39351 17.00824 0ZM0 0"/>
<path transform="matrix(1,0,0,-1.00003,108.62601,104.00073)" stroke-width=".79701" stroke-linecap="butt" stroke-miterlimit="10" stroke-linejoin="miter" fill="none" stroke="#cccccc" d="M34.0165 0C34.0165 18.78702 18.78702 34.0165 0 34.0165-18.78702 34.0165-34.0165 18.78702-34.0165 0-34.0165-18.78702-18.78702-34.0165 0-34.0165 18.78702-34.0165 34.0165-18.78702 34.0165 0ZM0 0"/>
<path transform="matrix(1,0,0,-1.00003,108.62601,104.00073)" stroke-width=".79701" stroke-linecap="butt" stroke-miterlimit="10" stroke-linejoin="miter" fill="none" stroke="#cccccc" d="M51.02477 0C51.02477 28.18056 28.18056 51.02477 0 51.02477-28.18056 51.02477-51.02477 28.18056-51.02477 0-51.02477-28.18056-28.18056-51.02477 0-51.02477 28.18056-51.02477 51.02477-28.18056 51.02477 0ZM0 0"/>
<path transform="matrix(1,0,0,-1.00003,108.62601,104.00073)" stroke-width=".79701" stroke-linecap="butt" stroke-miterlimit="10" stroke-linejoin="miter" fill="none" stroke="#cccccc" d="M68.03302 0C68.03302 37.57407 37.57407 68.03302 0 68.03302-37.57407 68.03302-68.03302 37.57407-68.03302 0-68.03302-37.57407-37.57407-68.03302 0-68.03302 37.57407-68.03302 68.03302-37.57407 68.03302 0ZM0 0"/>
<path transform="matrix(1,0,0,-1.00003,108.62601,104.00073)" stroke-width=".79701" stroke-linecap="butt" stroke-miterlimit="10" stroke-linejoin="miter" fill="none" stroke="#cccccc" d="M85.04128 0C85.04128 46.9676 46.9676 85.04128 0 85.04128-46.9676 85.04128-85.04128 46.9676-85.04128 0-85.04128-46.9676-46.9676-85.04128 0-85.04128 46.9676-85.04128 85.04128-46.9676 85.04128 0ZM0 0"/>
<path transform="matrix(1,0,0,-1.00003,108.62601,104.00073)" stroke-width=".3985" stroke-linecap="butt" stroke-miterlimit="10" stroke-linejoin="miter" fill="none" stroke="#000000" d="M0 0"/>
<use data-text="0" xlink:href="#font_1_1" transform="matrix(9.9626,0,0,-9.962899,112.146,113.94103)"/>
<path transform="matrix(1,0,0,-1.00003,108.62601,104.00073)" stroke-width=".3985" stroke-linecap="butt" stroke-miterlimit="10" stroke-linejoin="miter" fill="none" stroke="#000000" d="M17.00824 0"/>
<use data-text="1" xlink:href="#font_1_2" transform="matrix(9.9626,0,0,-9.962899,129.154,113.94103)"/>
<path transform="matrix(1,0,0,-1.00003,108.62601,104.00073)" stroke-width=".3985" stroke-linecap="butt" stroke-miterlimit="10" stroke-linejoin="miter" fill="none" stroke="#000000" d="M34.0165 0"/>
<use data-text="2" xlink:href="#font_1_3" transform="matrix(9.9626,0,0,-9.962899,146.162,113.94103)"/>
<path transform="matrix(1,0,0,-1.00003,108.62601,104.00073)" stroke-width=".3985" stroke-linecap="butt" stroke-miterlimit="10" stroke-linejoin="miter" fill="none" stroke="#000000" d="M51.02477 0"/>
<use data-text="3" xlink:href="#font_1_4" transform="matrix(9.9626,0,0,-9.962899,163.171,113.94103)"/>
<path transform="matrix(1,0,0,-1.00003,108.62601,104.00073)" stroke-width=".3985" stroke-linecap="butt" stroke-miterlimit="10" stroke-linejoin="miter" fill="none" stroke="#000000" d="M68.03302 0"/>
<use data-text="4" xlink:href="#font_1_5" transform="matrix(9.9626,0,0,-9.962899,180.17902,113.94103)"/>
<path transform="matrix(1,0,0,-1.00003,108.62601,104.00073)" stroke-width=".3985" stroke-linecap="butt" stroke-miterlimit="10" stroke-linejoin="miter" fill="none" stroke="#000000" d="M85.04128 0"/>
<use data-text="5" xlink:href="#font_1_6" transform="matrix(9.9626,0,0,-9.962899,197.18701,113.94103)"/>
<path transform="matrix(1,0,0,-1.00003,108.62601,104.00073)" d="M1.19554 0C1.19554 .66028 .66028 1.19554 0 1.19554-.66028 1.19554-1.19554 .66028-1.19554 0-1.19554-.66028-.66028-1.19554 0-1.19554 .66028-1.19554 1.19554-.66028 1.19554 0ZM0 0"/>
<path transform="matrix(1,0,0,-1.00003,108.62601,104.00073)" d="M18.20378 0C18.20378 .66028 17.66852 1.19554 17.00824 1.19554 16.34796 1.19554 15.8127 .66028 15.8127 0 15.8127-.66028 16.34796-1.19554 17.00824-1.19554 17.66852-1.19554 18.20378-.66028 18.20378 0ZM17.00824 0"/>
<path transform="matrix(1,0,0,-1.00003,108.62601,104.00073)" d="M35.21205 0C35.21205 .66028 34.67679 1.19554 34.0165 1.19554 33.35622 1.19554 32.82095 .66028 32.82095 0 32.82095-.66028 33.35622-1.19554 34.0165-1.19554 34.67679-1.19554 35.21205-.66028 35.21205 0ZM34.0165 0"/>
<path transform="matrix(1,0,0,-1.00003,108.62601,104.00073)" d="M52.2203 0C52.2203 .66028 51.68504 1.19554 51.02477 1.19554 50.36449 1.19554 49.82922 .66028 49.82922 0 49.82922-.66028 50.36449-1.19554 51.02477-1.19554 51.68504-1.19554 52.2203-.66028 52.2203 0ZM51.02477 0"/>
<path transform="matrix(1,0,0,-1.00003,108.62601,104.00073)" d="M69.22858 0C69.22858 .66028 68.69331 1.19554 68.03302 1.19554 67.37274 1.19554 66.83748 .66028 66.83748 0 66.83748-.66028 67.37274-1.19554 68.03302-1.19554 68.69331-1.19554 69.22858-.66028 69.22858 0ZM68.03302 0"/>
<path transform="matrix(1,0,0,-1.00003,108.62601,104.00073)" d="M86.23682 0C86.23682 .66028 85.70155 1.19554 85.04128 1.19554 84.381 1.19554 83.84573 .66028 83.84573 0 83.84573-.66028 84.381-1.19554 85.04128-1.19554 85.70155-1.19554 86.23682-.66028 86.23682 0ZM85.04128 0"/>
<path transform="matrix(1,0,0,-1.00003,108.62601,104.00073)" stroke-width=".79701" stroke-linecap="butt" stroke-miterlimit="10" stroke-linejoin="miter" fill="none" stroke="#000000" d="M-89.43643 0H89.43643"/>
<path transform="matrix(-1,-0,0,1.00003,19.189576,104.00073)" stroke-width=".6376" stroke-linecap="round" stroke-linejoin="round" fill="none" stroke="#000000" d="M-1.55415 2.0722C-1.42464 1.29512 0 .1295 .38852 0 0-.1295-1.42464-1.29512-1.55415-2.0722"/>
<path transform="matrix(1,0,0,-1.00003,198.06244,104.00073)" stroke-width=".6376" stroke-linecap="round" stroke-linejoin="round" fill="none" stroke="#000000" d="M-1.55415 2.0722C-1.42464 1.29512 0 .1295 .38852 0 0-.1295-1.42464-1.29512-1.55415-2.0722"/>
</svg>
