<svg xmlns="http://www.w3.org/2000/svg" xmlns:xlink="http://www.w3.org/1999/xlink" version="1.1" width="95" height="78" viewBox="0 0 95 78">
<defs>
<clipPath id="clip_1">
<path transform="matrix(1.00002,0,0,-1.00006,-95.64627,144.01288)" d="M0 0H194.28128V161.39028H0Z"/>
</clipPath>
<path id="font_2_1" d="M.37399293 .077056888C.37399293 .04598999 .37399293 0 .47799684 0H.526001C.54599 0 .55799868 0 .55799868 .023986817 .55799868 .04699707 .54499819 .04699707 .5319977 .04699707 .47099305 .04798889 .47099305 .061019899 .47099305 .08406067V.2993164C.47099305 .38816834 .3999939 .453125 .25099183 .453125 .19400025 .453125 .07199097 .44911195 .07199097 .36120606 .07199097 .317276 .10699463 .29830934 .13398743 .29830934 .16499329 .29830934 .19699097 .3192749 .19699097 .36120606 .19699097 .39115907 .17799378 .40812684 .1749878 .41012574 .20298767 .41612245 .23498535 .41711427 .24699402 .41711427 .32199098 .41711427 .35699464 .3751831 .35699464 .2993164V.2653656C.28599549 .26237489 .03199768 .2533722 .03199768 .10821533 .03199768 .012130737 .1559906-.005859375 .22499085-.005859375 .30499269-.006011963 .35198976 .034988405 .37399293 .077056888M.35699464 .234375V.13917542C.35699464 .042999269 .2649994 .02999878 .23999024 .02999878 .18899536 .02999878 .14898682 .06503296 .14898682 .1091156 .14898682 .21733094 .30699159 .23135376 .35699464 .234375Z"/>
<path id="font_2_2" d="M.21398926 .40118409V.69433596L.036987306 .6863251V.639328C.09899902 .639328 .10598755 .639328 .10598755 .600296V0H.15299988L.20199585 .056015016C.20999146 .04814148 .25898744-.005859375 .34799195-.005859375 .49699403-.005859375 .59999087 .08413696 .59999087 .22315979 .59999087 .35617066 .5059967 .4501953 .36099244 .4501953 .28799439 .4501953 .23799134 .42118836 .21398926 .40118409M.21998596 .09902954V.3501587C.24699402 .3851776 .29499818 .41418458 .34999085 .41418458 .47200013 .41418458 .47200013 .29312135 .47200013 .22309876 .47200013 .17607117 .47200013 .12104797 .44599916 .08201599 .4169922 .041000368 .37098695 .02999878 .33898927 .02999878 .2689972 .02999878 .22999573 .08403015 .21998596 .09902954Z"/>
<path id="font_3_3" d="M.17199707 .37635804V.4423828L.027999878 .43138124V.40037538C.09899902 .40037538 .10598755 .3943634 .10598755 .35035707V-.11816406C.10598755-.16334534 .09498596-.16334534 .027999878-.16334534V-.19433594C.06199646-.19334412 .11399841-.19134522 .13999939-.19134522 .16699219-.19134522 .21798706-.19334412 .25299073-.19433594V-.16334534C.18598938-.16334534 .1749878-.16334534 .1749878-.11816406V.05026245 .059265138C.17999268 .043258668 .22200012-.0107421879 .2979889-.0107421879 .4169922-.0107421879 .5209961 .08728027 .5209961 .2163086 .5209961 .34335328 .42399598 .4423828 .31199647 .4423828 .23399353 .4423828 .19198609 .39837647 .17199707 .37635804M.1749878 .11428833V.33735658C.20399475 .3883667 .25299073 .41737367 .3039856 .41737367 .3769989 .41737367 .43798829 .3293457 .43798829 .2163086 .43798829 .09527588 .36799623 .011245728 .2939911 .011245728 .2539978 .011245728 .21598816 .03125 .18899536 .072265628 .1749878 .09327698 .1749878 .0942688 .1749878 .11428833Z"/>
<path id="font_3_4" d="M.16699219 .3323059V.4423828L.027999878 .43138124V.40037538C.09799194 .40037538 .10598755 .39337159 .10598755 .34431459V.076034549C.10598755 .0309906 .09498596 .0309906 .027999878 .0309906V0C.066986087 .0009918213 .11399841 .0029907227 .14199829 .0029907227 .18199158 .0029907227 .22898865 .0029907227 .2689972 0V.0309906H.24798584C.17399597 .0309906 .17199707 .042007448 .17199707 .07803345V.232193C.17199707 .33128358 .21398926 .42037965 .2899933 .42037965 .29699708 .42037965 .29899598 .42037965 .30099488 .41937257 .2979889 .41838075 .27799989 .4063568 .27799989 .38034059 .27799989 .35231019 .29899598 .33729554 .32099916 .33729554 .33898927 .33729554 .3639984 .3493042 .3639984 .3813324 .3639984 .41337586 .33299256 .4423828 .2899933 .4423828 .21699524 .4423828 .18099976 .37535096 .16699219 .3323059Z"/>
<path id="font_3_2" d="M.47099305 .21424866C.47099305 .34223939 .37098695 .4482422 .25 .4482422 .125 .4482422 .027999878 .3392334 .027999878 .21424866 .027999878 .085250858 .13198853-.0107421879 .24899292-.0107421879 .36999513-.0107421879 .47099305 .087249759 .47099305 .21424866M.25 .014251709C.20698548 .014251709 .16299439 .035247804 .13598633 .08125305 .11099243 .12524414 .11099243 .18624878 .11099243 .22224427 .11099243 .26124574 .11099243 .31523133 .1349945 .35923768 .1619873 .40522767 .20899964 .426239 .24899292 .426239 .29299928 .426239 .33599855 .40423585 .3619995 .36123658 .3880005 .3182373 .3880005 .26023866 .3880005 .22224427 .3880005 .18624878 .3880005 .13224793 .3659973 .08824158 .34399415 .04324341 .2999878 .014251709 .25 .014251709Z"/>
<path id="font_3_1" d="M.20999146 .4423828 .057998659 .43138124V.40037538C.1349945 .40037538 .14399719 .39337159 .14399719 .34432984V-.051971437C.14399719-.09700012 .1349945-.18309021 .070999149-.18309021 .06599426-.18309021 .042999269-.18309021 .016998291-.17001343 .03199768-.16600037 .051986696-.1519928 .051986696-.125 .051986696-.09899902 .033996583-.07899475 .005996704-.07899475-.022003174-.07899475-.040008546-.09899902-.040008546-.125-.040008546-.17704773 .015991211-.20507813 .07299805-.20507813 .147995-.20507813 .20999146-.14100647 .20999146-.049972536V.4423828M.20999146 .6159363C.20999146 .64494326 .18598938 .6689453 .15699768 .6689453 .12799073 .6689453 .10398865 .64494326 .10398865 .6159363 .10398865 .5869446 .12799073 .5629425 .15699768 .5629425 .18598938 .5629425 .20999146 .5869446 .20999146 .6159363Z"/>
<path id="font_4_1" d="M.24198914 .69433596 .054992677 .6863251V.6303253C.11399841 .6303253 .12199402 .6303253 .12199402 .59129336V.0001373291H.16699219C.18299866 .0001373291 .18399048 .0011291504 .18899536 .005126953 .19799805 .01612854 .21798706 .044128419 .22698975 .055130006 .2939911-.0018615723 .3600006-.005859375 .3929901-.005859375 .5649872-.005859375 .66999819 .09114075 .66999819 .22315979 .66999819 .34417726 .58099368 .4501953 .40699769 .4501953 .34298707 .4501953 .2869873 .43318177 .24198914 .40518189V.69433596M.24899292 .34117127C.2769928 .3751831 .32998658 .40419007 .3929901 .40419007 .5309906 .40419007 .5309906 .28616334 .5309906 .22515869 .5309906 .16314698 .5309906 .040130617 .3809967 .040130617 .32699586 .040130617 .28199769 .06513977 .24899292 .11213684V.34117127Z"/>
</defs>
<g clip-path="url(#clip_1)">
<path transform="matrix(1.00002,0,0,-1.00006,-95.64627,144.01288)" stroke-width="1.19553" stroke-linecap="butt" stroke-miterlimit="10" stroke-linejoin="miter" fill="none" stroke="#0000ff" d="M97.14064 80.69513 143.5746 132.12569"/>
<path transform="matrix(.6701134,-.74224457,-.74221488,-.67014017,47.9312,11.879272)" d="M3.18808 0-1.91284 2.55046 0 0-1.91284-2.55046" fill="#0000ff"/>
<use data-text="a" xlink:href="#font_2_1" transform="matrix(9.962799,0,0,-9.963197,52.140695,6.3466188)" fill="#0000ff"/>
<path transform="matrix(1.00002,0,0,-1.00006,-95.64627,144.01288)" stroke-width="1.19553" stroke-linecap="butt" stroke-miterlimit="10" stroke-linejoin="miter" fill="none" stroke="#0000ff" d="M97.14064 80.69513H174.90309"/>
<path transform="matrix(1.00002,0,0,-1.00006,79.26033,63.312913)" d="M3.18808 0-1.91284 2.55046 0 0-1.91284-2.55046" fill="#0000ff"/>
<use data-text="b" xlink:href="#font_2_2" transform="matrix(9.962799,0,0,-9.963197,87.3614,66.77225)" fill="#0000ff"/>
<path transform="matrix(1.00002,0,0,-1.00006,-95.64627,144.01288)" stroke-width=".3985" stroke-linecap="butt" stroke-dasharray="2.98883,2.98883" stroke-miterlimit="10" stroke-linejoin="miter" fill="none" stroke="#000000" d="M145.71096 80.69513V134.4919"/>
<path transform="matrix(1.00002,0,0,-1.00006,-95.64627,144.01288)" stroke-width="1.19553" stroke-linecap="butt" stroke-miterlimit="10" stroke-linejoin="miter" fill="none" stroke="#99d6c2" d="M97.14064 80.69513H142.52288"/>
<path transform="matrix(1.00002,0,0,-1.00006,46.879457,63.312913)" d="M3.18808 0-1.91284 2.55046 0 0-1.91284-2.55046" fill="#99d6c2"/>
<use data-text="p" xlink:href="#font_3_3" transform="matrix(9.962799,0,0,-9.963197,34.690347,73.88567)" fill="#99d6c2"/>
<use data-text="r" xlink:href="#font_3_4" transform="matrix(9.962799,0,0,-9.963197,40.219697,73.88567)" fill="#99d6c2"/>
<use data-text="o" xlink:href="#font_3_2" transform="matrix(9.962799,0,0,-9.963197,44.11515,73.88567)" fill="#99d6c2"/>
<use data-text="j" xlink:href="#font_3_1" transform="matrix(9.962799,0,0,-9.963197,49.64451,73.88567)" fill="#99d6c2"/>
<use data-text="b" xlink:href="#font_4_1" transform="matrix(6.97394,0,0,-6.9742186,52.706705,76.32081)" fill="#99d6c2"/>
<use data-text="a" xlink:href="#font_2_1" transform="matrix(9.962799,0,0,-9.963197,59.874849,73.88567)" fill="#99d6c2"/>
</g>
</svg>
