<svg xmlns="http://www.w3.org/2000/svg" xmlns:xlink="http://www.w3.org/1999/xlink" version="1.1" width="215" height="226" viewBox="0 0 215 226">
<defs>
<path id="font_1_1" d="M.45999146 .31976319C.45999146 .39982606 .45498658 .47988893 .41999818 .5539398 .37399293 .65000918 .2919922 .6660156 .25 .6660156 .18998719 .6660156 .116989139 .64001467 .07598877 .54693606 .04399109 .47789 .038986207 .39982606 .038986207 .31976319 .038986207 .24472046 .042999269 .15464783 .083999637 .07859802 .1269989-.0024719239 .19999695-.022460938 .24899292-.022460938 .30299378-.022460938 .3789978-.0014648438 .4229889 .09359741 .45498658 .16265869 .45999146 .2407074 .45999146 .31976319M.24899292-.00047302247C.20999146-.00047302247 .15098572 .024551392 .1329956 .12062073 .12199402 .18066406 .12199402 .2727356 .12199402 .3317871 .12199402 .39582826 .12199402 .46188355 .12998963 .5159149 .14898682 .63500979 .22399903 .64401248 .24899292 .64401248 .28199769 .64401248 .34799195 .6259918 .36698915 .52693179 .3769989 .47088624 .3769989 .39482118 .3769989 .3317871 .3769989 .25672914 .3769989 .18867493 .3659973 .12461853 .35099793 .029556275 .2939911-.00047302247 .24899292-.00047302247Z"/>
<path id="font_2_1" d="M.31098939 .36265565H.42999269C.4149933 .30274964 .3929901 .2118988 .3929901 .13302613 .3929901 .09309387 .397995 .06613159 .4039917 .044174196 .41999818-.0057678224 .43299867-.009765625 .44898988-.009765625 .47200013-.009765625 .49598695 .011230469 .49598695 .035186769 .49598695 .043182374 .49398805 .047164918 .48799134 .057159425 .46899415 .09408569 .45098878 .15100098 .45098878 .23286438 .45098878 .25183106 .45098878 .29177857 .46499635 .36265565H.58999636C.60798647 .36265565 .6159973 .36265565 .6269989 .37065126 .6409912 .380661 .6439972 .39665223 .6439972 .4016571 .6439972 .43066407 .6179962 .43066407 .6009979 .43066407H.22399903C.18299866 .43066407 .15499878 .42166139 .10998535 .37965394 .083999637 .35665895 .04499817 .30274964 .04499817 .2937622 .04499817 .28178407 .057998659 .28178407 .06199646 .28178407 .07299805 .28178407 .07398987 .28378297 .07998657 .2927704 .1309967 .36265565 .19299317 .36265565 .21499634 .36265565H.27598573C.24499512 .25283814 .19099427 .13502503 .16099549 .07511902 .15499878 .062149049 .14498902 .04118347 .14199829 .03718567 .14099121 .033187868 .13899231 .029190064 .13899231 .022201539 .13899231 .006225586 .15098572-.009765625 .17399597-.009765625 .21398926-.009765625 .22499085 .035186769 .24899292 .12504578L.31098939 .36265565Z"/>
<path id="font_3_6" d="M.1499939 .3274536C.1499939 .40945436 .15699768 .48303224 .19499207 .543869 .22898865 .5978699 .2829895 .63505557 .34700013 .63505557 .3769989 .63505557 .4169922 .62701418 .43699647 .5998688 .4119873 .5978699 .3909912 .5808716 .3909912 .5518799 .3909912 .5268707 .4079895 .5048828 .43798829 .5048828 .46798707 .5048828 .48599244 .5248718 .48599244 .5538788 .48599244 .6119385 .44400025 .6640625 .34498597 .6640625 .20098877 .6640625 .053985597 .5318756 .053985597 .3174591 .053985597 .05845642 .17599488-.01953125 .28599549-.01953125 .4079895-.01953125 .5139923 .07345581 .5139923 .20445252 .5139923 .33145143 .41299439 .42546083 .29599 .42546083 .21598816 .42546083 .17199707 .37245179 .1499939 .3274536M.28599549 .012466431C.23599243 .012466431 .19699097 .04145813 .17599488 .08546448 .16099549 .11546326 .15299988 .16545105 .15299988 .22544861 .15299988 .32244874 .21099854 .39746095 .29100038 .39746095 .33699037 .39746095 .36799623 .37945558 .3929901 .342453 .4169922 .30445863 .41799928 .26245118 .41799928 .20445252 .41799928 .14746094 .41799928 .10545349 .3909912 .066467288 .36698915 .031463624 .33499146 .012466431 .28599549 .012466431Z"/>
<path id="font_3_4" d="M.5289917 .1640625V.20005799H.41799928V.64582827C.41799928 .66682437 .41799928 .6738281 .3959961 .6738281 .38398744 .6738281 .37998963 .6738281 .36999513 .65982058L.038986207 .20005799V.1640625H.33299256V.08201599C.33299256 .04800415 .33299256 .035995485 .2519989 .035995485H.22499085V0C.2749939 .0019989014 .33898927 .0039978029 .375 .0039978029 .4119873 .0039978029 .47599793 .0019989014 .526001 0V.035995485H.49899293C.41799928 .035995485 .41799928 .04800415 .41799928 .08201599V.1640625H.5289917M.33999635 .5658722V.20005799H.07598877L.33999635 .5658722Z"/>
<path id="font_3_3" d="M.272995 .33428956C.35099793 .33428956 .40699769 .2803192 .40699769 .1733551 .40699769 .04940796 .33499146 .012466431 .2769928 .012466431 .23699951 .012466431 .14898682 .0234375 .10699463 .082351688 .1539917 .084350589 .16499329 .11735535 .16499329 .13835144 .16499329 .17034912 .14099121 .19335938 .10998535 .19335938 .08198547 .19335938 .053985597 .17634583 .053985597 .13534546 .053985597 .041412355 .1579895-.01953125 .2789917-.01953125 .41799928-.01953125 .5139923 .07336426 .5139923 .1733551 .5139923 .2513275 .44999696 .32929994 .33999635 .35229493 .44499208 .39024354 .48298646 .4650879 .48298646 .5260773 .48298646 .60505679 .3919983 .6640625 .2809906 .6640625 .16999817 .6640625 .084991458 .61006167 .084991458 .5300751 .084991458 .49606324 .10699463 .47706605 .13699341 .47706605 .16799927 .47706605 .18798828 .5000763 .18798828 .5280762 .18798828 .5570679 .16799927 .57806399 .13699341 .5800781 .17199707 .62405398 .24099732 .63505557 .27799989 .63505557 .32299806 .63505557 .38598634 .6130676 .38598634 .5260773 .38598634 .48406983 .37199403 .43814088 .34599305 .4072113 .31298829 .36927796 .2849884 .3672943 .23498535 .36428834 .20999146 .3623047 .20799256 .3623047 .20298767 .3612976 .20098877 .3612976 .19299317 .3592987 .19299317 .34829713 .19299317 .33428956 .20199585 .33428956 .21899414 .33428956H.272995Z"/>
<path id="font_3_2" d="M.5049896 .18203736H.47099305C.46798707 .16001892 .45799256 .100997928 .44499208 .09098816 .43699647 .084991458 .3600006 .084991458 .34599305 .084991458H.1619873C.2669983 .17803955 .3019867 .20603943 .3619995 .25306703 .43598939 .312088 .5049896 .374115 .5049896 .46914674 .5049896 .5900879 .39898683 .6640625 .2709961 .6640625 .14698792 .6640625 .06298828 .57710269 .06298828 .4851532 .06298828 .43414308 .10598755 .42915345 .115997318 .42915345 .13999939 .42915345 .16899109 .44615174 .16899109 .48214723 .16899109 .5001526 .1619873 .53515627 .10998535 .53515627 .14099121 .6060791 .20899964 .62805178 .2559967 .62805178 .35598756 .62805178 .4079895 .5501404 .4079895 .46914674 .4079895 .38212586 .34599305 .3130951 .31399537 .27708436L.07299805 .038986207C.06298828 .02999878 .06298828 .027999878 .06298828 0H.47499085L.5049896 .18203736Z"/>
<path id="font_3_5" d="M.15499878 .5588074C.20599365 .5458069 .23599243 .5458069 .2519989 .5458069 .38398744 .5458069 .46199037 .6358032 .46199037 .6508026 .46199037 .6618042 .45498658 .6648102 .44999696 .6648102 .44799806 .6648102 .44599916 .6648102 .44198609 .6618042 .41799928 .6528015 .36499024 .6328125 .29100038 .6328125 .2630005 .6328125 .20999146 .6348114 .14498902 .6598053 .1349945 .6648102 .1329956 .6648102 .13198853 .6648102 .11898804 .6648102 .11898804 .6538086 .11898804 .6378021V.34251405C.11898804 .32548524 .11898804 .3134613 .1349945 .3134613 .14399719 .3134613 .14498902 .3154602 .15499878 .32748414 .19799805 .38259889 .25898744 .390625 .2939911 .390625 .35398866 .390625 .3809967 .34251405 .38598634 .33450318 .4039917 .30143739 .4099884 .26335145 .4099884 .20524597 .4099884 .17524719 .4099884 .116256717 .37998963 .07234192 .35499574 .03640747 .31199647 .012466431 .2630005 .012466431 .19799805 .012466431 .1309967 .04838562 .10598755 .11425781 .14399719 .11125183 .16299439 .13624573 .16299439 .16325379 .16299439 .20625305 .12599182 .21424866 .11299133 .21424866 .11099243 .21424866 .06298828 .21424866 .06298828 .1602478 .06298828 .07034302 .14498902-.01953125 .2649994-.01953125 .3929901-.01953125 .5049896 .07533264 .5049896 .20124817 .5049896 .31445313 .4189911 .41862489 .29499818 .41862489 .25099183 .41862489 .19898987 .4076233 .15499878 .36956788V.5588074Z"/>
<path id="font_4_1" d="M.2649994 .37265016H.37799073C.34498597 .22489929 .33599855 .18196106 .33599855 .11508179 .33599855 .100097659 .33599855 .073150638 .34399415 .03919983 .35398866-.0047454836 .36499024-.0107421879 .37998963-.0107421879 .3999939-.0107421879 .42099 .007247925 .42099 .02722168 .42099 .033218385 .42099 .035202028 .4149933 .049179079 .38598634 .12106323 .38598634 .18595886 .38598634 .21391297 .38598634 .26683045 .3929901 .32073976 .4039917 .37265016H.5179901C.5309906 .37265016 .5669861 .37265016 .5669861 .406662 .5669861 .43066407 .54599 .43066407 .5269928 .43066407H.19198609C.16999817 .43066407 .13198853 .43066407 .08799744 .38365174 .052993776 .34469605 .026992798 .29878236 .026992798 .29379273 .026992798 .29278565 .026992798 .28379823 .038986207 .28379823 .04699707 .28379823 .04899597 .28779603 .054992677 .29577638 .10398865 .37265016 .1619873 .37265016 .18199158 .37265016H.23899842C.20698548 .25186158 .15299988 .13105774 .11099243 .04020691 .102996829 .025222779 .102996829 .023223877 .102996829 .016235352 .102996829-.002746582 .11898804-.0107421879 .13198853-.0107421879 .1619873-.0107421879 .16999817 .017242432 .18199158 .05418396 .19599915 .100097659 .19599915 .10209656 .20899964 .15202332L.2649994 .37265016Z"/>
<path id="font_3_7" d="M.5349884 .6045227C.54499819 .6165161 .54499819 .6185303 .54499819 .64453127H.2829895C.24299622 .64453127 .23199463 .6455078 .19599915 .6484375 .14399719 .65234377 .14199829 .6592407 .13899231 .676239H.10499573L.069992069 .46250917H.10398865C.10598755 .47750855 .115997318 .54351809 .13198853 .5535126 .13999939 .55952456 .22099304 .55952456 .23599243 .55952456H.45399476C.42199708 .5175171 .37098695 .45550538 .34999085 .4275055 .21899414 .25549317 .20698548 .096466068 .20698548 .037460329 .20698548 .02645874 .20698548-.01953125 .2539978-.01953125 .3019867-.01953125 .3019867 .025466919 .3019867 .038467409V.07847595C.3019867 .27249146 .34199525 .36149598 .3849945 .41551209L.5349884 .6045227Z"/>
<path id="font_3_1" d="M.33499146 .63612368C.33499146 .6630554 .33299256 .6640625 .30499269 .6640625 .24099732 .6014404 .1499939 .6004486 .10899353 .6004486V.5644531C.1329956 .5644531 .19898987 .5644531 .2539978 .592453V.08203125C.2539978 .04899597 .2539978 .035995485 .1539917 .035995485H.115997318V0C.13398743 .0009918213 .25698854 .0039978029 .2939911 .0039978029 .32499696 .0039978029 .45098878 .0009918213 .47299195 0V.035995485H.43499757C.33499146 .035995485 .33499146 .04899597 .33499146 .08203125V.63612368Z"/>
</defs>
<path transform="matrix(1.00003,0,0,-1.00005,107.9118,111.940998)" stroke-width=".3985" stroke-linecap="butt" stroke-miterlimit="10" stroke-linejoin="miter" fill="none" stroke="#b5b5b5" d="M0 0H97.13608M0 0 84.12254 48.56804M0 0 68.68565 68.68565M0 0 48.56804 84.12254M0 0V97.13608M0 0-48.56804 84.12254M0 0-68.68565 68.68565M0 0-84.12254 48.56804M0 0H-97.13608M0 0-84.12254-48.56804M0 0-68.68565-68.68565M0 0-48.56804-84.12254M0 0V-97.13608M0 0 48.56804-84.12254M0 0 68.68565-68.68565M0 0 84.12254-48.56804"/>
<path transform="matrix(1.00003,0,0,-1.00005,107.9118,111.940998)" stroke-width=".3985" stroke-linecap="butt" stroke-miterlimit="10" stroke-linejoin="miter" fill="none" stroke="#b5b5b5" d=""/>
<path transform="matrix(1.00003,0,0,-1.00005,107.9118,111.940998)" stroke-width=".19925" stroke-linecap="butt" stroke-miterlimit="10" stroke-linejoin="miter" fill="none" stroke="#929292" d="M97.13608 0H101.38791M84.12254 48.56804 87.80475 50.69395M68.68565 68.68565 71.69214 71.69214M48.56804 84.12254 50.69395 87.80475M0 97.13608V101.38791M-48.56804 84.12254-50.69395 87.80475M-68.68565 68.68565-71.69214 71.69214M-84.12254 48.56804-87.80475 50.69395M-97.13608 0H-101.38791M-84.12254-48.56804-87.80475-50.69395M-68.68565-68.68565-71.69214-71.69214M-48.56804-84.12254-50.69395-87.80475M0-97.13608V-101.38791M48.56804-84.12254 50.69395-87.80475M68.68565-68.68565 71.69214-71.69214M84.12254-48.56804 87.80475-50.69395"/>
<path transform="matrix(1.00003,0,0,-1.00005,107.9118,111.940998)" stroke-width=".19925" stroke-linecap="butt" stroke-miterlimit="10" stroke-linejoin="miter" fill="none" stroke="#929292" d=""/>
<path transform="matrix(1.00003,0,0,-1.00005,107.9118,111.940998)" stroke-width=".3985" stroke-linecap="butt" stroke-miterlimit="10" stroke-linejoin="miter" fill="none" stroke="#000000" d="M0 0V0"/>
<path transform="matrix(1.00003,0,0,-1.00005,107.9118,111.940998)" stroke-width=".3985" stroke-linecap="butt" stroke-miterlimit="10" stroke-linejoin="miter" fill="none" stroke="#000000" d="M97.13608 0C97.13608 53.64746 53.64746 97.13608 0 97.13608-53.64746 97.13608-97.13608 53.64746-97.13608 0-97.13608-53.64746-53.64746-97.13608 0-97.13608 53.64746-97.13608 97.13608-53.64746 97.13608 0"/>
<path transform="matrix(1.00003,0,0,-1.00005,107.9118,111.940998)" stroke-width=".3985" stroke-linecap="butt" stroke-miterlimit="10" stroke-linejoin="miter" fill="none" stroke="#000000" d="M0 0H97.13608"/>
<path transform="matrix(1.00003,0,0,-1.00005,107.9118,111.940998)" stroke-width=".3985" stroke-linecap="butt" stroke-miterlimit="10" stroke-linejoin="miter" fill="none" stroke="#000000" d="M0 0H97.13608"/>
<use data-text="0" xlink:href="#font_1_1" transform="matrix(9.962899,0,0,-9.963098,208.57082,115.15115)"/>
<use data-text="&#x03c0;" xlink:href="#font_2_1" transform="matrix(6.9740097,0,0,-6.9741489,198.7265,55.912199)"/>
<path transform="matrix(1.00003,0,0,-1.00005,-8.259697,-21.422665)" stroke-width=".3985" stroke-linecap="butt" stroke-miterlimit="10" stroke-linejoin="miter" fill="none" stroke="#000000" d="M206.98-78.763H211.889"/>
<use data-text="6" xlink:href="#font_3_6" transform="matrix(6.9740097,0,0,-6.9741489,199.19553,63.270566)"/>
<use data-text="&#x03c0;" xlink:href="#font_2_1" transform="matrix(6.9740097,0,0,-6.9741489,182.08002,33.13806)"/>
<path transform="matrix(1.00003,0,0,-1.00005,-24.906197,-44.1968)" stroke-width=".3985" stroke-linecap="butt" stroke-miterlimit="10" stroke-linejoin="miter" fill="none" stroke="#000000" d="M206.98-78.763H211.889"/>
<use data-text="4" xlink:href="#font_3_4" transform="matrix(6.9740097,0,0,-6.9741489,182.54904,40.49643)"/>
<use data-text="&#x03c0;" xlink:href="#font_2_1" transform="matrix(6.9740097,0,0,-6.9741489,159.58535,16.006203)"/>
<path transform="matrix(1.00003,0,0,-1.00005,-47.400869,-61.32866)" stroke-width=".3985" stroke-linecap="butt" stroke-miterlimit="10" stroke-linejoin="miter" fill="none" stroke="#000000" d="M206.98-78.763H211.889"/>
<use data-text="3" xlink:href="#font_3_3" transform="matrix(6.9740097,0,0,-6.9741489,160.05437,23.36457)"/>
<use data-text="&#x03c0;" xlink:href="#font_2_1" transform="matrix(6.9740097,0,0,-6.9741489,105.45671,3.9216004)"/>
<path transform="matrix(1.00003,0,0,-1.00005,-101.529499,-73.41326)" stroke-width=".3985" stroke-linecap="butt" stroke-miterlimit="10" stroke-linejoin="miter" fill="none" stroke="#000000" d="M206.98-78.763H211.889"/>
<use data-text="2" xlink:href="#font_3_2" transform="matrix(6.9740097,0,0,-6.9741489,105.925739,11.279968)"/>
<use data-text="2" xlink:href="#font_3_2" transform="matrix(6.9740097,0,0,-6.9741489,48.522005,15.333168)"/>
<use data-text="&#x03c0;" xlink:href="#font_2_1" transform="matrix(6.9740097,0,0,-6.9741489,52.494127,15.333168)"/>
<path transform="matrix(1.00003,0,0,-1.00005,-158.4642,-62.001695)" stroke-width=".3985" stroke-linecap="butt" stroke-miterlimit="10" stroke-linejoin="miter" fill="none" stroke="#000000" d="M206.98-78.763H215.861"/>
<use data-text="3" xlink:href="#font_3_3" transform="matrix(6.9740097,0,0,-6.9741489,50.97708,22.691536)"/>
<use data-text="3" xlink:href="#font_3_3" transform="matrix(6.9740097,0,0,-6.9741489,25.481308,32.51803)"/>
<use data-text="&#x03c0;" xlink:href="#font_2_1" transform="matrix(6.9740097,0,0,-6.9741489,29.45343,32.51803)"/>
<path transform="matrix(1.00003,0,0,-1.00005,-181.5049,-44.816835)" stroke-width=".3985" stroke-linecap="butt" stroke-miterlimit="10" stroke-linejoin="miter" fill="none" stroke="#000000" d="M206.98-78.763H215.861"/>
<use data-text="4" xlink:href="#font_3_4" transform="matrix(6.9740097,0,0,-6.9741489,27.936387,39.876398)"/>
<use data-text="5" xlink:href="#font_3_5" transform="matrix(6.9740097,0,0,-6.9741489,8.388794,55.612184)"/>
<use data-text="&#x03c0;" xlink:href="#font_2_1" transform="matrix(6.9740097,0,0,-6.9741489,12.360916,55.612184)"/>
<path transform="matrix(1.00003,0,0,-1.00005,-198.59741,-21.72268)" stroke-width=".3985" stroke-linecap="butt" stroke-miterlimit="10" stroke-linejoin="miter" fill="none" stroke="#000000" d="M206.98-78.763H215.861"/>
<use data-text="6" xlink:href="#font_3_6" transform="matrix(6.9740097,0,0,-6.9741489,10.843872,62.97055)"/>
<use data-text="&#x03c0;" xlink:href="#font_4_1" transform="matrix(9.962899,0,0,-9.963098,1.2165985,114.086109)"/>
<use data-text="7" xlink:href="#font_3_7" transform="matrix(6.9740097,0,0,-6.9741489,8.388794,165.40467)"/>
<use data-text="&#x03c0;" xlink:href="#font_2_1" transform="matrix(6.9740097,0,0,-6.9741489,12.360916,165.40467)"/>
<path transform="matrix(1.00003,0,0,-1.00005,-198.59741,88.0698)" stroke-width=".3985" stroke-linecap="butt" stroke-miterlimit="10" stroke-linejoin="miter" fill="none" stroke="#000000" d="M206.98-78.763H215.861"/>
<use data-text="6" xlink:href="#font_3_6" transform="matrix(6.9740097,0,0,-6.9741489,10.843872,172.76303)"/>
<use data-text="5" xlink:href="#font_3_5" transform="matrix(6.9740097,0,0,-6.9741489,25.481308,188.49881)"/>
<use data-text="&#x03c0;" xlink:href="#font_2_1" transform="matrix(6.9740097,0,0,-6.9741489,29.45343,188.49881)"/>
<path transform="matrix(1.00003,0,0,-1.00005,-181.5049,111.163959)" stroke-width=".3985" stroke-linecap="butt" stroke-miterlimit="10" stroke-linejoin="miter" fill="none" stroke="#000000" d="M206.98-78.763H215.861"/>
<use data-text="4" xlink:href="#font_3_4" transform="matrix(6.9740097,0,0,-6.9741489,27.936387,195.85718)"/>
<use data-text="4" xlink:href="#font_3_4" transform="matrix(6.9740097,0,0,-6.9741489,48.522005,205.6847)"/>
<use data-text="&#x03c0;" xlink:href="#font_2_1" transform="matrix(6.9740097,0,0,-6.9741489,52.494127,205.6847)"/>
<path transform="matrix(1.00003,0,0,-1.00005,-158.4642,128.34983)" stroke-width=".3985" stroke-linecap="butt" stroke-miterlimit="10" stroke-linejoin="miter" fill="none" stroke="#000000" d="M206.98-78.763H215.861"/>
<use data-text="3" xlink:href="#font_3_3" transform="matrix(6.9740097,0,0,-6.9741489,50.97708,213.04306)"/>
<use data-text="3" xlink:href="#font_3_3" transform="matrix(6.9740097,0,0,-6.9741489,103.47065,217.09626)"/>
<use data-text="&#x03c0;" xlink:href="#font_2_1" transform="matrix(6.9740097,0,0,-6.9741489,107.44277,217.09626)"/>
<path transform="matrix(1.00003,0,0,-1.00005,-103.51556,139.76139)" stroke-width=".3985" stroke-linecap="butt" stroke-miterlimit="10" stroke-linejoin="miter" fill="none" stroke="#000000" d="M206.98-78.763H215.861"/>
<use data-text="2" xlink:href="#font_3_2" transform="matrix(6.9740097,0,0,-6.9741489,105.92573,224.45462)"/>
<use data-text="5" xlink:href="#font_3_5" transform="matrix(6.9740097,0,0,-6.9741489,158.4193,205.6847)"/>
<use data-text="&#x03c0;" xlink:href="#font_2_1" transform="matrix(6.9740097,0,0,-6.9741489,162.39142,205.6847)"/>
<path transform="matrix(1.00003,0,0,-1.00005,-48.566907,128.34983)" stroke-width=".3985" stroke-linecap="butt" stroke-miterlimit="10" stroke-linejoin="miter" fill="none" stroke="#000000" d="M206.98-78.763H215.861"/>
<use data-text="3" xlink:href="#font_3_3" transform="matrix(6.9740097,0,0,-6.9741489,160.87438,213.04306)"/>
<use data-text="7" xlink:href="#font_3_7" transform="matrix(6.9740097,0,0,-6.9741489,181.45999,188.49881)"/>
<use data-text="&#x03c0;" xlink:href="#font_2_1" transform="matrix(6.9740097,0,0,-6.9741489,185.43212,188.49881)"/>
<path transform="matrix(1.00003,0,0,-1.00005,-25.526215,111.163959)" stroke-width=".3985" stroke-linecap="butt" stroke-miterlimit="10" stroke-linejoin="miter" fill="none" stroke="#000000" d="M206.98-78.763H215.861"/>
<use data-text="4" xlink:href="#font_3_4" transform="matrix(6.9740097,0,0,-6.9741489,183.91507,195.85718)"/>
<use data-text="1" xlink:href="#font_3_1" transform="matrix(6.9740097,0,0,-6.9741489,198.05649,166.26471)"/>
<use data-text="1" xlink:href="#font_3_1" transform="matrix(6.9740097,0,0,-6.9741489,202.0247,166.26471)"/>
<use data-text="&#x03c0;" xlink:href="#font_2_1" transform="matrix(6.9740097,0,0,-6.9741489,205.99973,166.26471)"/>
<path transform="matrix(1.00003,0,0,-1.00005,-8.929718,88.92985)" stroke-width=".3985" stroke-linecap="butt" stroke-miterlimit="10" stroke-linejoin="miter" fill="none" stroke="#000000" d="M206.98-78.763H219.832"/>
<use data-text="6" xlink:href="#font_3_6" transform="matrix(6.9740097,0,0,-6.9741489,202.49764,173.62308)"/>
</svg>
