<svg xmlns="http://www.w3.org/2000/svg" xmlns:xlink="http://www.w3.org/1999/xlink" version="1.1" width="314" height="310" viewBox="0 0 314 310">
<defs>
<path id="font_1_1" d="M.45999146 .31976319C.45999146 .39982606 .45498658 .47988893 .41999818 .5539398 .37399293 .65000918 .2919922 .6660156 .25 .6660156 .18998719 .6660156 .116989139 .64001467 .07598877 .54693606 .04399109 .47789 .038986207 .39982606 .038986207 .31976319 .038986207 .24472046 .042999269 .15464783 .083999637 .07859802 .1269989-.0024719239 .19999695-.022460938 .24899292-.022460938 .30299378-.022460938 .3789978-.0014648438 .4229889 .09359741 .45498658 .16265869 .45999146 .2407074 .45999146 .31976319M.24899292-.00047302247C.20999146-.00047302247 .15098572 .024551392 .1329956 .12062073 .12199402 .18066406 .12199402 .2727356 .12199402 .3317871 .12199402 .39582826 .12199402 .46188355 .12998963 .5159149 .14898682 .63500979 .22399903 .64401248 .24899292 .64401248 .28199769 .64401248 .34799195 .6259918 .36698915 .52693179 .3769989 .47088624 .3769989 .39482118 .3769989 .3317871 .3769989 .25672914 .3769989 .18867493 .3659973 .12461853 .35099793 .029556275 .2939911-.00047302247 .24899292-.00047302247Z"/>
<path id="font_2_1" d="M.5069885 .24998474C.5069885 .3710022 .4099884 .4650116 .2919922 .4650116 .17199707 .4650116 .07699585 .36799623 .07699585 .25097657 .07699585 .1299591 .17399597 .035949708 .2919922 .035949708 .4119873 .035949708 .5069885 .13296509 .5069885 .24998474M.2919922 .08496094C.19799805 .08496094 .12599182 .16096497 .12599182 .24998474 .12599182 .34300233 .19999695 .41601563 .2919922 .41601563 .38598634 .41601563 .45799256 .33999635 .45799256 .25097657 .45799256 .15795899 .38398744 .08496094 .2919922 .08496094Z"/>
<path id="font_1_4" d="M.2899933 .35191346C.37199403 .37893678 .42999269 .4490509 .42999269 .52809146 .42999269 .6100464 .34199525 .6660156 .24598694 .6660156 .14498902 .6660156 .068984989 .60606387 .068984989 .53009036 .068984989 .49710084 .09098816 .47808839 .11999512 .47808839 .15098572 .47808839 .17098999 .50009158 .17098999 .5290985 .17098999 .57910159 .12399292 .57910159 .10899353 .57910159 .13999939 .62802127 .20599365 .64100649 .24198914 .64100649 .2829895 .64100649 .33799745 .6190338 .33799745 .5290985 .33799745 .51708987 .33599855 .45906068 .30999757 .4149933 .27999879 .36691285 .24598694 .36390687 .22099304 .36291505 .21299744 .36190797 .18899536 .35990907 .18199158 .35990907 .17399597 .35890199 .16699219 .35791017 .16699219 .3479004 .16699219 .33691407 .17399597 .33691407 .19099427 .33691407H.23498535C.31698609 .33691407 .35398866 .2686615 .35398866 .17037964 .35398866 .034469606 .2849884 .0055389406 .24099732 .0055389406 .19799805 .0055389406 .12298584 .022491456 .08799744 .08137512 .12298584 .07637024 .1539917 .09837341 .1539917 .1363678 .1539917 .17237854 .1269989 .19238281 .09799194 .19238281 .07398987 .19238281 .041992189 .17837525 .041992189 .1343689 .041992189 .043441774 .1349945-.022460938 .24398804-.022460938 .3659973-.022460938 .45700074 .06838989 .45700074 .17037964 .45700074 .252594 .3939972 .33088685 .2899933 .35191346Z"/>
<path id="font_1_7" d="M.13198853 .327713V.35173036C.13198853 .6047821 .2559967 .64100649 .30699159 .64100649 .33099366 .64100649 .37298585 .634964 .394989 .6007538 .37998963 .6007538 .33999635 .6007538 .33999635 .5557556 .33999635 .524765 .3639984 .5097656 .38598634 .5097656 .4019928 .5097656 .43199159 .51875308 .43199159 .5577545 .43199159 .6178589 .3880005 .6660156 .30499269 .6660156 .1769867 .6660156 .041992189 .5367584 .041992189 .31570436 .041992189 .048553468 .1579895-.022460938 .25099183-.022460938 .3619995-.022460938 .45700074 .07156372 .45700074 .2036438 .45700074 .33070375 .36799623 .4267578 .25698854 .4267578 .18899536 .4267578 .1519928 .37573243 .13198853 .327713M.25099183 .0055389406C.18798828 .0055389406 .1579895 .06556702 .1519928 .080566409 .13398743 .127594 .13398743 .2076416 .13398743 .22564698 .13398743 .30369569 .1659851 .40374757 .2559967 .40374757 .27198792 .40374757 .31799317 .40374757 .34899903 .34172059 .36698915 .30470277 .36698915 .2536621 .36698915 .20463562 .36698915 .15661621 .36698915 .10658264 .34999085 .0705719 .31999208 .010528564 .27398683 .0055389406 .25099183 .0055389406Z"/>
<path id="font_1_10" d="M.36698915 .31781007V.28579713C.36698915 .05178833 .2630005 .0055389406 .20498657 .0055389406 .18798828 .0055389406 .13398743 .007537842 .10699463 .041778566 .15098572 .041778566 .15899658 .07078552 .15899658 .08778381 .15899658 .118774417 .1349945 .13378906 .11299133 .13378906 .09700012 .13378906 .066986087 .12478638 .066986087 .08578491 .066986087 .018615723 .12098694-.022460938 .20599365-.022460938 .33499146-.022460938 .45700074 .11378479 .45700074 .32881166 .45700074 .5979767 .34199525 .6660156 .25299073 .6660156 .19799805 .6660156 .14898682 .64801028 .10598755 .60298159 .06498718 .5579529 .041992189 .5159302 .041992189 .44088746 .041992189 .31581117 .12998963 .21777344 .24198914 .21777344 .30299378 .21777344 .34399415 .25978089 .36698915 .31781007M.24299622 .24076844C.22698975 .24076844 .18099976 .24076844 .1499939 .3038025 .13198853 .3408203 .13198853 .39085389 .13198853 .43988038 .13198853 .49391175 .13198853 .54093936 .15299988 .5779724 .17999268 .6279907 .21798706 .64100649 .25299073 .64100649 .29899598 .64100649 .33198548 .60697939 .34899903 .5619507 .36099244 .52993777 .36499024 .4669037 .36499024 .42086793 .36499024 .3378296 .33099366 .24076844 .24299622 .24076844Z"/>
<path id="font_1_2" d="M.2939911 .64004519C.2939911 .66400149 .2939911 .6660156 .2709961 .6660156 .20899964 .60227969 .12098694 .60227969 .08898926 .60227969V.57128909C.10899353 .57128909 .16799927 .57128909 .21998596 .5972748V.07902527C.21998596 .042999269 .21699524 .0309906 .1269989 .0309906H.09498596V0C.12998963 .0029907227 .21699524 .0029907227 .25698854 .0029907227 .29699708 .0029907227 .38398744 .0029907227 .4189911 0V.0309906H.3869934C.29699708 .0309906 .2939911 .041992189 .2939911 .07902527V.64004519Z"/>
<path id="font_1_3" d="M.1269989 .07699585 .23298645 .18003845C.3889923 .31811524 .44898988 .3721466 .44898988 .47216798 .44898988 .5860901 .35899354 .6660156 .23699951 .6660156 .12399292 .6660156 .049987794 .57411196 .049987794 .48516847 .049987794 .4291687 .099990848 .4291687 .102996829 .4291687 .11999512 .4291687 .15499878 .44117738 .15499878 .48217774 .15499878 .5081787 .13699341 .5341797 .101989749 .5341797 .09399414 .5341797 .09199524 .5341797 .08898926 .5331726 .11199951 .59806826 .1659851 .63500979 .22399903 .63500979 .31498719 .63500979 .35798646 .5541382 .35798646 .47216798 .35798646 .39215089 .30799867 .31311036 .25299073 .25108338L.06098938 .036987306C.049987794 .025985718 .049987794 .023986817 .049987794 0H.42099L.44898988 .17404175H.42399598C.4189911 .14402771 .4119873 .1000061 .4019928 .084991458 .394989 .07699585 .32899476 .07699585 .30699159 .07699585H.1269989Z"/>
<path id="font_1_6" d="M.44898988 .20022583C.44898988 .3193512 .36698915 .41944886 .25898744 .41944886 .21099854 .41944886 .16799927 .40345765 .13198853 .36842347V.5637665C.1519928 .5577698 .18499756 .55078127 .21699524 .55078127 .33999635 .55078127 .4099884 .6417694 .4099884 .6547699 .4099884 .6607666 .40699769 .6657715 .3999939 .6657715 .39898683 .6657715 .39698792 .6657715 .3919983 .66278079 .37199403 .6537781 .32299806 .6337738 .2559967 .6337738 .21598816 .6337738 .16999817 .6407776 .12298584 .6617737 .114990238 .66477969 .11299133 .66477969 .11099243 .66477969 .100997928 .66477969 .100997928 .6567688 .100997928 .6407776V.34439088C.100997928 .32637025 .100997928 .31835938 .114990238 .31835938 .12199402 .31835938 .12399292 .32136537 .12799073 .32736207 .13899231 .3433838 .17599488 .39746095 .25698854 .39746095 .30899049 .39746095 .33399964 .35139466 .34199525 .33337403 .35798646 .29632569 .3600006 .25727845 .3600006 .20722962 .3600006 .17222595 .3600006 .11222839 .33599855 .07035828 .31199647 .031463624 .2749939 .0055389406 .22898865 .0055389406 .1559906 .0055389406 .09899902 .058380128 .08198547 .11723328 .084991458 .1162262 .08799744 .115234378 .09899902 .115234378 .13198853 .115234378 .14898682 .14022827 .14898682 .16423035 .14898682 .18823242 .13198853 .21322632 .09899902 .21322632 .084991458 .21322632 .049987794 .20622254 .049987794 .16023255 .049987794 .07434082 .11898804-.022460938 .23098755-.022460938 .34700013-.022460938 .44898988 .073349 .44898988 .20022583Z"/>
<path id="font_1_9" d="M.16299439 .4569702C.116989139 .486969 .11299133 .52098086 .11299133 .5379791 .11299133 .598999 .17799378 .64100649 .24899292 .64100649 .32199098 .64100649 .38598634 .58898928 .38598634 .51698306 .38598634 .45996095 .34700013 .4119568 .2869873 .37695313L.16299439 .4569702M.30899049 .36193849C.3809967 .3989563 .42999269 .45095826 .42999269 .51698306 .42999269 .6090088 .34098817 .6660156 .25 .6660156 .1499939 .6660156 .068984989 .59199526 .068984989 .49897767 .068984989 .4809723 .070999149 .43595887 .11299133 .38894654 .12399292 .37695313 .16099549 .35194398 .18598938 .33494569 .12799073 .30592347 .041992189 .24984741 .041992189 .15072632 .041992189 .04458618 .14399719-.022460938 .24899292-.022460938 .3619995-.022460938 .45700074 .06060791 .45700074 .16773987 .45700074 .20379639 .44599916 .24885559 .4079895 .2909088 .3889923 .31193543 .37298585 .3219452 .30899049 .36193849M.20899964 .3199463 .33198548 .24183655C.3600006 .2228241 .40699769 .19277954 .40699769 .13169861 .40699769 .05760193 .33198548 .0055389406 .25 .0055389406 .1639862 .0055389406 .09199524 .067611698 .09199524 .15072632 .09199524 .20880127 .12399292 .27288819 .20899964 .3199463Z"/>
<path id="font_1_5" d="M.2939911 .16503906V.07800293C.2939911 .041992189 .2919922 .0309906 .21798706 .0309906H.19699097V0C.23799134 .0029907227 .2899933 .0029907227 .33198548 .0029907227 .37399293 .0029907227 .4269867 .0029907227 .46798707 0V.0309906H.44699098C.37298585 .0309906 .37098695 .041992189 .37098695 .07800293V.16503906H.47099305V.19602967H.37098695V.65075686C.37098695 .67074587 .37098695 .6767578 .35499574 .6767578 .34599305 .6767578 .34298707 .6767578 .33499146 .66474917L.027999878 .19602967V.16503906H.2939911M.2999878 .19602967H.055999757L.2999878 .5688019V.19602967Z"/>
<path id="font_1_8" d="M.47599793 .609375C.4850006 .6213684 .4850006 .62338259 .4850006 .64437869H.24198914C.11999512 .64437869 .117996219 .65737918 .11399841 .67637637H.08898926L.055999757 .4702301H.08099365C.083999637 .48625184 .09298706 .5493469 .10598755 .56137087 .11299133 .5673828 .19099427 .5673828 .20399475 .5673828H.41099549C.3999939 .5513611 .32099916 .4421997 .29899598 .40914918 .20899964 .27394105 .17599488 .1347351 .17599488 .032577516 .17599488 .022567749 .17599488-.022460938 .22200012-.022460938 .2679901-.022460938 .2679901 .022567749 .2679901 .032577516V.08366394C.2679901 .13873291 .2709961 .19381714 .2789917 .24790955 .2829895 .27093507 .29699708 .35707093 .34098817 .41915895L.47599793 .609375Z"/>
</defs>
<path transform="matrix(1.00003,0,0,-1.00005,159.65538,155.02809)" stroke-width=".79701" stroke-linecap="butt" stroke-miterlimit="10" stroke-linejoin="miter" fill="none" stroke="#d5d6d5" d="M0 0H141.1686"/>
<path transform="matrix(1.00003,0,0,-1.00005,159.65538,155.02809)" stroke-width=".79701" stroke-linecap="butt" stroke-miterlimit="10" stroke-linejoin="miter" fill="none" stroke="#d5d6d5" d="M0 0 122.25568 70.58415"/>
<path transform="matrix(1.00003,0,0,-1.00005,159.65538,155.02809)" stroke-width=".79701" stroke-linecap="butt" stroke-miterlimit="10" stroke-linejoin="miter" fill="none" stroke="#d5d6d5" d="M0 0 70.58415 122.25568"/>
<path transform="matrix(1.00003,0,0,-1.00005,159.65538,155.02809)" stroke-width=".79701" stroke-linecap="butt" stroke-miterlimit="10" stroke-linejoin="miter" fill="none" stroke="#d5d6d5" d="M0 0V141.1686"/>
<path transform="matrix(1.00003,0,0,-1.00005,159.65538,155.02809)" stroke-width=".79701" stroke-linecap="butt" stroke-miterlimit="10" stroke-linejoin="miter" fill="none" stroke="#d5d6d5" d="M0 0-70.58415 122.25568"/>
<path transform="matrix(1.00003,0,0,-1.00005,159.65538,155.02809)" stroke-width=".79701" stroke-linecap="butt" stroke-miterlimit="10" stroke-linejoin="miter" fill="none" stroke="#d5d6d5" d="M0 0-122.25568 70.58415"/>
<path transform="matrix(1.00003,0,0,-1.00005,159.65538,155.02809)" stroke-width=".79701" stroke-linecap="butt" stroke-miterlimit="10" stroke-linejoin="miter" fill="none" stroke="#d5d6d5" d="M0 0H-141.1686"/>
<path transform="matrix(1.00003,0,0,-1.00005,159.65538,155.02809)" stroke-width=".79701" stroke-linecap="butt" stroke-miterlimit="10" stroke-linejoin="miter" fill="none" stroke="#d5d6d5" d="M0 0-122.25568-70.58415"/>
<path transform="matrix(1.00003,0,0,-1.00005,159.65538,155.02809)" stroke-width=".79701" stroke-linecap="butt" stroke-miterlimit="10" stroke-linejoin="miter" fill="none" stroke="#d5d6d5" d="M0 0-70.58415-122.25568"/>
<path transform="matrix(1.00003,0,0,-1.00005,159.65538,155.02809)" stroke-width=".79701" stroke-linecap="butt" stroke-miterlimit="10" stroke-linejoin="miter" fill="none" stroke="#d5d6d5" d="M0 0V-141.1686"/>
<path transform="matrix(1.00003,0,0,-1.00005,159.65538,155.02809)" stroke-width=".79701" stroke-linecap="butt" stroke-miterlimit="10" stroke-linejoin="miter" fill="none" stroke="#d5d6d5" d="M0 0 70.58415-122.25568"/>
<path transform="matrix(1.00003,0,0,-1.00005,159.65538,155.02809)" stroke-width=".79701" stroke-linecap="butt" stroke-miterlimit="10" stroke-linejoin="miter" fill="none" stroke="#d5d6d5" d="M0 0 122.25568-70.58415"/>
<path transform="matrix(1.00003,0,0,-1.00005,159.65538,155.02809)" stroke-width=".79701" stroke-linecap="butt" stroke-miterlimit="10" stroke-linejoin="miter" fill="none" stroke="#d5d6d5" d="M0 0H141.1686"/>
<path transform="matrix(1.00003,0,0,-1.00005,159.65538,155.02809)" stroke-width=".3985" stroke-linecap="butt" stroke-miterlimit="10" stroke-linejoin="miter" fill="none" stroke="#000000" d="M149.67272 0"/>
<use data-text="0" xlink:href="#font_1_1" transform="matrix(9.962899,0,0,-9.963098,304.55174,158.45827)"/>
<use data-text="&#x25e6;" xlink:href="#font_2_1" transform="matrix(6.9740097,0,0,-6.9741489,309.53288,154.84209)"/>
<path transform="matrix(1.00003,0,0,-1.00005,159.65538,155.02809)" stroke-width=".3985" stroke-linecap="butt" stroke-miterlimit="10" stroke-linejoin="miter" fill="none" stroke="#000000" d="M129.62049 74.83621"/>
<use data-text="3" xlink:href="#font_1_4" transform="matrix(9.962899,0,0,-9.963098,282.00807,83.61853)"/>
<use data-text="0" xlink:href="#font_1_1" transform="matrix(9.962899,0,0,-9.963098,286.9895,83.61853)"/>
<use data-text="&#x25e6;" xlink:href="#font_2_1" transform="matrix(6.9740097,0,0,-6.9741489,291.97135,80.00235)"/>
<path transform="matrix(1.00003,0,0,-1.00005,159.65538,155.02809)" stroke-width=".3985" stroke-linecap="butt" stroke-miterlimit="10" stroke-linejoin="miter" fill="none" stroke="#000000" d="M74.83621 129.62049"/>
<use data-text="6" xlink:href="#font_1_7" transform="matrix(9.962899,0,0,-9.963098,227.22241,28.831788)"/>
<use data-text="0" xlink:href="#font_1_1" transform="matrix(9.962899,0,0,-9.963098,232.20384,28.831788)"/>
<use data-text="&#x25e6;" xlink:href="#font_2_1" transform="matrix(6.9740097,0,0,-6.9741489,237.1857,25.215607)"/>
<path transform="matrix(1.00003,0,0,-1.00005,159.65538,155.02809)" stroke-width=".3985" stroke-linecap="butt" stroke-miterlimit="10" stroke-linejoin="miter" fill="none" stroke="#000000" d="M0 149.67272"/>
<use data-text="9" xlink:href="#font_1_10" transform="matrix(9.962899,0,0,-9.963098,152.38416,8.777786)"/>
<use data-text="0" xlink:href="#font_1_1" transform="matrix(9.962899,0,0,-9.963098,157.3656,8.777786)"/>
<use data-text="&#x25e6;" xlink:href="#font_2_1" transform="matrix(6.9740097,0,0,-6.9741489,162.34745,5.161606)"/>
<path transform="matrix(1.00003,0,0,-1.00005,159.65538,155.02809)" stroke-width=".3985" stroke-linecap="butt" stroke-miterlimit="10" stroke-linejoin="miter" fill="none" stroke="#000000" d="M-74.83621 129.62049"/>
<use data-text="1" xlink:href="#font_1_2" transform="matrix(9.962899,0,0,-9.963098,75.05484,28.831788)"/>
<use data-text="2" xlink:href="#font_1_3" transform="matrix(9.962899,0,0,-9.963098,80.03627,28.831788)"/>
<use data-text="0" xlink:href="#font_1_1" transform="matrix(9.962899,0,0,-9.963098,85.017719,28.831788)"/>
<use data-text="&#x25e6;" xlink:href="#font_2_1" transform="matrix(6.9740097,0,0,-6.9741489,89.9993,25.215607)"/>
<path transform="matrix(1.00003,0,0,-1.00005,159.65538,155.02809)" stroke-width=".3985" stroke-linecap="butt" stroke-miterlimit="10" stroke-linejoin="miter" fill="none" stroke="#000000" d="M-129.62049 74.83621"/>
<use data-text="1" xlink:href="#font_1_2" transform="matrix(9.962899,0,0,-9.963098,20.268204,83.61853)"/>
<use data-text="5" xlink:href="#font_1_6" transform="matrix(9.962899,0,0,-9.963098,25.249634,83.61853)"/>
<use data-text="0" xlink:href="#font_1_1" transform="matrix(9.962899,0,0,-9.963098,30.23108,83.61853)"/>
<use data-text="&#x25e6;" xlink:href="#font_2_1" transform="matrix(6.9740097,0,0,-6.9741489,35.21266,80.00235)"/>
<path transform="matrix(1.00003,0,0,-1.00005,159.65538,155.02809)" stroke-width=".3985" stroke-linecap="butt" stroke-miterlimit="10" stroke-linejoin="miter" fill="none" stroke="#000000" d="M-149.67272 0"/>
<use data-text="1" xlink:href="#font_1_2" transform="matrix(9.962899,0,0,-9.963098,.21559143,158.45827)"/>
<use data-text="8" xlink:href="#font_1_9" transform="matrix(9.962899,0,0,-9.963098,5.1970217,158.45827)"/>
<use data-text="0" xlink:href="#font_1_1" transform="matrix(9.962899,0,0,-9.963098,10.178467,158.45827)"/>
<use data-text="&#x25e6;" xlink:href="#font_2_1" transform="matrix(6.9740097,0,0,-6.9741489,15.160049,154.84209)"/>
<path transform="matrix(1.00003,0,0,-1.00005,159.65538,155.02809)" stroke-width=".3985" stroke-linecap="butt" stroke-miterlimit="10" stroke-linejoin="miter" fill="none" stroke="#000000" d="M-129.62049-74.83621"/>
<use data-text="2" xlink:href="#font_1_3" transform="matrix(9.962899,0,0,-9.963098,20.268204,233.298)"/>
<use data-text="1" xlink:href="#font_1_2" transform="matrix(9.962899,0,0,-9.963098,25.249634,233.298)"/>
<use data-text="0" xlink:href="#font_1_1" transform="matrix(9.962899,0,0,-9.963098,30.23108,233.298)"/>
<use data-text="&#x25e6;" xlink:href="#font_2_1" transform="matrix(6.9740097,0,0,-6.9741489,35.21266,229.68183)"/>
<path transform="matrix(1.00003,0,0,-1.00005,159.65538,155.02809)" stroke-width=".3985" stroke-linecap="butt" stroke-miterlimit="10" stroke-linejoin="miter" fill="none" stroke="#000000" d="M-74.83621-129.62049"/>
<use data-text="2" xlink:href="#font_1_3" transform="matrix(9.962899,0,0,-9.963098,75.05484,288.08576)"/>
<use data-text="4" xlink:href="#font_1_5" transform="matrix(9.962899,0,0,-9.963098,80.03627,288.08576)"/>
<use data-text="0" xlink:href="#font_1_1" transform="matrix(9.962899,0,0,-9.963098,85.017719,288.08576)"/>
<use data-text="&#x25e6;" xlink:href="#font_2_1" transform="matrix(6.9740097,0,0,-6.9741489,89.9993,284.46955)"/>
<path transform="matrix(1.00003,0,0,-1.00005,159.65538,155.02809)" stroke-width=".3985" stroke-linecap="butt" stroke-miterlimit="10" stroke-linejoin="miter" fill="none" stroke="#000000" d="M0-149.67272"/>
<use data-text="2" xlink:href="#font_1_3" transform="matrix(9.962899,0,0,-9.963098,149.8931,308.13874)"/>
<use data-text="7" xlink:href="#font_1_8" transform="matrix(9.962899,0,0,-9.963098,154.87451,308.13874)"/>
<use data-text="0" xlink:href="#font_1_1" transform="matrix(9.962899,0,0,-9.963098,159.85596,308.13874)"/>
<use data-text="&#x25e6;" xlink:href="#font_2_1" transform="matrix(6.9740097,0,0,-6.9741489,164.83756,304.52256)"/>
<path transform="matrix(1.00003,0,0,-1.00005,159.65538,155.02809)" stroke-width=".3985" stroke-linecap="butt" stroke-miterlimit="10" stroke-linejoin="miter" fill="none" stroke="#000000" d="M74.83621-129.62049"/>
<use data-text="3" xlink:href="#font_1_4" transform="matrix(9.962899,0,0,-9.963098,224.73133,288.08576)"/>
<use data-text="0" xlink:href="#font_1_1" transform="matrix(9.962899,0,0,-9.963098,229.71277,288.08576)"/>
<use data-text="0" xlink:href="#font_1_1" transform="matrix(9.962899,0,0,-9.963098,234.69422,288.08576)"/>
<use data-text="&#x25e6;" xlink:href="#font_2_1" transform="matrix(6.9740097,0,0,-6.9741489,239.67578,284.46955)"/>
<path transform="matrix(1.00003,0,0,-1.00005,159.65538,155.02809)" stroke-width=".3985" stroke-linecap="butt" stroke-miterlimit="10" stroke-linejoin="miter" fill="none" stroke="#000000" d="M129.62049-74.83621"/>
<use data-text="3" xlink:href="#font_1_4" transform="matrix(9.962899,0,0,-9.963098,279.51698,233.298)"/>
<use data-text="3" xlink:href="#font_1_4" transform="matrix(9.962899,0,0,-9.963098,284.4984,233.298)"/>
<use data-text="0" xlink:href="#font_1_1" transform="matrix(9.962899,0,0,-9.963098,289.47987,233.298)"/>
<use data-text="&#x25e6;" xlink:href="#font_2_1" transform="matrix(6.9740097,0,0,-6.9741489,294.46144,229.68183)"/>
<path transform="matrix(1.00003,0,0,-1.00005,159.65538,155.02809)" stroke-width=".79701" stroke-linecap="butt" stroke-miterlimit="10" stroke-linejoin="miter" fill="none" stroke="#d5d6d5" d="M0 0 99.82124 99.82124"/>
<path transform="matrix(1.00003,0,0,-1.00005,159.65538,155.02809)" stroke-width=".79701" stroke-linecap="butt" stroke-miterlimit="10" stroke-linejoin="miter" fill="none" stroke="#d5d6d5" d="M0 0-99.82124 99.82124"/>
<path transform="matrix(1.00003,0,0,-1.00005,159.65538,155.02809)" stroke-width=".79701" stroke-linecap="butt" stroke-miterlimit="10" stroke-linejoin="miter" fill="none" stroke="#d5d6d5" d="M0 0-99.82124-99.82124"/>
<path transform="matrix(1.00003,0,0,-1.00005,159.65538,155.02809)" stroke-width=".79701" stroke-linecap="butt" stroke-miterlimit="10" stroke-linejoin="miter" fill="none" stroke="#d5d6d5" d="M0 0 99.82124-99.82124"/>
<path transform="matrix(1.00003,0,0,-1.00005,159.65538,155.02809)" stroke-width=".3985" stroke-linecap="butt" stroke-miterlimit="10" stroke-linejoin="miter" fill="none" stroke="#000000" d="M105.83444 105.83444"/>
<use data-text="4" xlink:href="#font_1_5" transform="matrix(9.962899,0,0,-9.963098,258.22135,52.61898)"/>
<use data-text="5" xlink:href="#font_1_6" transform="matrix(9.962899,0,0,-9.963098,263.20277,52.61898)"/>
<use data-text="&#x25e6;" xlink:href="#font_2_1" transform="matrix(6.9740097,0,0,-6.9741489,268.18464,49.0028)"/>
<path transform="matrix(1.00003,0,0,-1.00005,159.65538,155.02809)" stroke-width=".3985" stroke-linecap="butt" stroke-miterlimit="10" stroke-linejoin="miter" fill="none" stroke="#000000" d="M-105.83444 105.83444"/>
<use data-text="1" xlink:href="#font_1_2" transform="matrix(9.962899,0,0,-9.963098,44.0549,52.61898)"/>
<use data-text="3" xlink:href="#font_1_4" transform="matrix(9.962899,0,0,-9.963098,49.03633,52.61898)"/>
<use data-text="5" xlink:href="#font_1_6" transform="matrix(9.962899,0,0,-9.963098,54.017778,52.61898)"/>
<use data-text="&#x25e6;" xlink:href="#font_2_1" transform="matrix(6.9740097,0,0,-6.9741489,58.99936,49.0028)"/>
<path transform="matrix(1.00003,0,0,-1.00005,159.65538,155.02809)" stroke-width=".3985" stroke-linecap="butt" stroke-miterlimit="10" stroke-linejoin="miter" fill="none" stroke="#000000" d="M-105.83444-105.83444"/>
<use data-text="2" xlink:href="#font_1_3" transform="matrix(9.962899,0,0,-9.963098,44.0549,264.29856)"/>
<use data-text="2" xlink:href="#font_1_3" transform="matrix(9.962899,0,0,-9.963098,49.03633,264.29856)"/>
<use data-text="5" xlink:href="#font_1_6" transform="matrix(9.962899,0,0,-9.963098,54.017778,264.29856)"/>
<use data-text="&#x25e6;" xlink:href="#font_2_1" transform="matrix(6.9740097,0,0,-6.9741489,58.99936,260.68238)"/>
<path transform="matrix(1.00003,0,0,-1.00005,159.65538,155.02809)" stroke-width=".3985" stroke-linecap="butt" stroke-miterlimit="10" stroke-linejoin="miter" fill="none" stroke="#000000" d="M105.83444-105.83444"/>
<use data-text="3" xlink:href="#font_1_4" transform="matrix(9.962899,0,0,-9.963098,255.73026,264.29856)"/>
<use data-text="1" xlink:href="#font_1_2" transform="matrix(9.962899,0,0,-9.963098,260.7117,264.29856)"/>
<use data-text="5" xlink:href="#font_1_6" transform="matrix(9.962899,0,0,-9.963098,265.69316,264.29856)"/>
<use data-text="&#x25e6;" xlink:href="#font_2_1" transform="matrix(6.9740097,0,0,-6.9741489,270.6747,260.68238)"/>
<path transform="matrix(1.00003,0,0,-1.00005,159.65538,155.02809)" stroke-width=".79701" stroke-linecap="butt" stroke-miterlimit="10" stroke-linejoin="miter" fill="none" stroke="#9e9e9e" d="M17.00824 0C17.00824 9.39351 9.39351 17.00824 0 17.00824-9.39351 17.00824-17.00824 9.39351-17.00824 0-17.00824-9.39351-9.39351-17.00824 0-17.00824 9.39351-17.00824 17.00824-9.39351 17.00824 0ZM0 0"/>
<path transform="matrix(1.00003,0,0,-1.00005,159.65538,155.02809)" stroke-width=".79701" stroke-linecap="butt" stroke-miterlimit="10" stroke-linejoin="miter" fill="none" stroke="#9e9e9e" d="M34.0165 0C34.0165 18.78702 18.78702 34.0165 0 34.0165-18.78702 34.0165-34.0165 18.78702-34.0165 0-34.0165-18.78702-18.78702-34.0165 0-34.0165 18.78702-34.0165 34.0165-18.78702 34.0165 0ZM0 0"/>
<path transform="matrix(1.00003,0,0,-1.00005,159.65538,155.02809)" stroke-width=".79701" stroke-linecap="butt" stroke-miterlimit="10" stroke-linejoin="miter" fill="none" stroke="#9e9e9e" d="M51.02477 0C51.02477 28.18056 28.18056 51.02477 0 51.02477-28.18056 51.02477-51.02477 28.18056-51.02477 0-51.02477-28.18056-28.18056-51.02477 0-51.02477 28.18056-51.02477 51.02477-28.18056 51.02477 0ZM0 0"/>
<path transform="matrix(1.00003,0,0,-1.00005,159.65538,155.02809)" stroke-width=".79701" stroke-linecap="butt" stroke-miterlimit="10" stroke-linejoin="miter" fill="none" stroke="#9e9e9e" d="M68.03302 0C68.03302 37.57407 37.57407 68.03302 0 68.03302-37.57407 68.03302-68.03302 37.57407-68.03302 0-68.03302-37.57407-37.57407-68.03302 0-68.03302 37.57407-68.03302 68.03302-37.57407 68.03302 0ZM0 0"/>
<path transform="matrix(1.00003,0,0,-1.00005,159.65538,155.02809)" stroke-width=".79701" stroke-linecap="butt" stroke-miterlimit="10" stroke-linejoin="miter" fill="none" stroke="#9e9e9e" d="M85.04128 0C85.04128 46.9676 46.9676 85.04128 0 85.04128-46.9676 85.04128-85.04128 46.9676-85.04128 0-85.04128-46.9676-46.9676-85.04128 0-85.04128 46.9676-85.04128 85.04128-46.9676 85.04128 0ZM0 0"/>
<path transform="matrix(1.00003,0,0,-1.00005,159.65538,155.02809)" stroke-width=".79701" stroke-linecap="butt" stroke-miterlimit="10" stroke-linejoin="miter" fill="none" stroke="#9e9e9e" d="M102.04953 0C102.04953 56.36111 56.36111 102.04953 0 102.04953-56.36111 102.04953-102.04953 56.36111-102.04953 0-102.04953-56.36111-56.36111-102.04953 0-102.04953 56.36111-102.04953 102.04953-56.36111 102.04953 0ZM0 0"/>
<path transform="matrix(1.00003,0,0,-1.00005,159.65538,155.02809)" stroke-width=".79701" stroke-linecap="butt" stroke-miterlimit="10" stroke-linejoin="miter" fill="none" stroke="#9e9e9e" d="M119.0578 0C119.0578 65.75464 65.75464 119.0578 0 119.0578-65.75464 119.0578-119.0578 65.75464-119.0578 0-119.0578-65.75464-65.75464-119.0578 0-119.0578 65.75464-119.0578 119.0578-65.75464 119.0578 0ZM0 0"/>
<path transform="matrix(1.00003,0,0,-1.00005,159.65538,155.02809)" stroke-width=".79701" stroke-linecap="butt" stroke-miterlimit="10" stroke-linejoin="miter" fill="none" stroke="#9e9e9e" d="M136.06606 0C136.06606 75.14816 75.14816 136.06606 0 136.06606-75.14816 136.06606-136.06606 75.14816-136.06606 0-136.06606-75.14816-75.14816-136.06606 0-136.06606 75.14816-136.06606 136.06606-75.14816 136.06606 0ZM0 0"/>
<path transform="matrix(1.00003,0,0,-1.00005,159.65538,155.02809)" stroke-width=".3985" stroke-linecap="butt" stroke-miterlimit="10" stroke-linejoin="miter" fill="none" stroke="#000000" d="M0 0"/>
<use data-text="0" xlink:href="#font_1_1" transform="matrix(9.962899,0,0,-9.963098,163.17548,164.96858)"/>
<path transform="matrix(1.00003,0,0,-1.00005,159.65538,155.02809)" stroke-width=".3985" stroke-linecap="butt" stroke-miterlimit="10" stroke-linejoin="miter" fill="none" stroke="#000000" d="M17.00824 0"/>
<use data-text="1" xlink:href="#font_1_2" transform="matrix(9.962899,0,0,-9.963098,180.18399,164.96858)"/>
<path transform="matrix(1.00003,0,0,-1.00005,159.65538,155.02809)" stroke-width=".3985" stroke-linecap="butt" stroke-miterlimit="10" stroke-linejoin="miter" fill="none" stroke="#000000" d="M34.0165 0"/>
<use data-text="2" xlink:href="#font_1_3" transform="matrix(9.962899,0,0,-9.963098,197.1925,164.96858)"/>
<path transform="matrix(1.00003,0,0,-1.00005,159.65538,155.02809)" stroke-width=".3985" stroke-linecap="butt" stroke-miterlimit="10" stroke-linejoin="miter" fill="none" stroke="#000000" d="M51.02477 0"/>
<use data-text="3" xlink:href="#font_1_4" transform="matrix(9.962899,0,0,-9.963098,214.20203,164.96858)"/>
<path transform="matrix(1.00003,0,0,-1.00005,159.65538,155.02809)" stroke-width=".3985" stroke-linecap="butt" stroke-miterlimit="10" stroke-linejoin="miter" fill="none" stroke="#000000" d="M68.03302 0"/>
<use data-text="4" xlink:href="#font_1_5" transform="matrix(9.962899,0,0,-9.963098,231.21054,164.96858)"/>
<path transform="matrix(1.00003,0,0,-1.00005,159.65538,155.02809)" stroke-width=".3985" stroke-linecap="butt" stroke-miterlimit="10" stroke-linejoin="miter" fill="none" stroke="#000000" d="M85.04128 0"/>
<use data-text="5" xlink:href="#font_1_6" transform="matrix(9.962899,0,0,-9.963098,248.21904,164.96858)"/>
<path transform="matrix(1.00003,0,0,-1.00005,159.65538,155.02809)" stroke-width=".3985" stroke-linecap="butt" stroke-miterlimit="10" stroke-linejoin="miter" fill="none" stroke="#000000" d="M102.04953 0"/>
<use data-text="6" xlink:href="#font_1_7" transform="matrix(9.962899,0,0,-9.963098,265.22755,164.96858)"/>
<path transform="matrix(1.00003,0,0,-1.00005,159.65538,155.02809)" stroke-width=".3985" stroke-linecap="butt" stroke-miterlimit="10" stroke-linejoin="miter" fill="none" stroke="#000000" d="M119.0578 0"/>
<use data-text="7" xlink:href="#font_1_8" transform="matrix(9.962899,0,0,-9.963098,282.23707,164.96858)"/>
<path transform="matrix(1.00003,0,0,-1.00005,159.65538,155.02809)" stroke-width=".3985" stroke-linecap="butt" stroke-miterlimit="10" stroke-linejoin="miter" fill="none" stroke="#000000" d="M136.06606 0"/>
<use data-text="8" xlink:href="#font_1_9" transform="matrix(9.962899,0,0,-9.963098,299.24559,164.96858)"/>
<path transform="matrix(1.00003,0,0,-1.00005,159.65538,155.02809)" d="M1.19554 0C1.19554 .66028 .66028 1.19554 0 1.19554-.66028 1.19554-1.19554 .66028-1.19554 0-1.19554-.66028-.66028-1.19554 0-1.19554 .66028-1.19554 1.19554-.66028 1.19554 0ZM0 0"/>
<path transform="matrix(1.00003,0,0,-1.00005,159.65538,155.02809)" d="M18.20378 0C18.20378 .66028 17.66852 1.19554 17.00824 1.19554 16.34796 1.19554 15.8127 .66028 15.8127 0 15.8127-.66028 16.34796-1.19554 17.00824-1.19554 17.66852-1.19554 18.20378-.66028 18.20378 0ZM17.00824 0"/>
<path transform="matrix(1.00003,0,0,-1.00005,159.65538,155.02809)" d="M35.21205 0C35.21205 .66028 34.67679 1.19554 34.0165 1.19554 33.35622 1.19554 32.82095 .66028 32.82095 0 32.82095-.66028 33.35622-1.19554 34.0165-1.19554 34.67679-1.19554 35.21205-.66028 35.21205 0ZM34.0165 0"/>
<path transform="matrix(1.00003,0,0,-1.00005,159.65538,155.02809)" d="M52.2203 0C52.2203 .66028 51.68504 1.19554 51.02477 1.19554 50.36449 1.19554 49.82922 .66028 49.82922 0 49.82922-.66028 50.36449-1.19554 51.02477-1.19554 51.68504-1.19554 52.2203-.66028 52.2203 0ZM51.02477 0"/>
<path transform="matrix(1.00003,0,0,-1.00005,159.65538,155.02809)" d="M69.22858 0C69.22858 .66028 68.69331 1.19554 68.03302 1.19554 67.37274 1.19554 66.83748 .66028 66.83748 0 66.83748-.66028 67.37274-1.19554 68.03302-1.19554 68.69331-1.19554 69.22858-.66028 69.22858 0ZM68.03302 0"/>
<path transform="matrix(1.00003,0,0,-1.00005,159.65538,155.02809)" d="M86.23682 0C86.23682 .66028 85.70155 1.19554 85.04128 1.19554 84.381 1.19554 83.84573 .66028 83.84573 0 83.84573-.66028 84.381-1.19554 85.04128-1.19554 85.70155-1.19554 86.23682-.66028 86.23682 0ZM85.04128 0"/>
<path transform="matrix(1.00003,0,0,-1.00005,159.65538,155.02809)" d="M103.24509 0C103.24509 .66028 102.70982 1.19554 102.04953 1.19554 101.38925 1.19554 100.85399 .66028 100.85399 0 100.85399-.66028 101.38925-1.19554 102.04953-1.19554 102.70982-1.19554 103.24509-.66028 103.24509 0ZM102.04953 0"/>
<path transform="matrix(1.00003,0,0,-1.00005,159.65538,155.02809)" d="M120.25334 0C120.25334 .66028 119.71808 1.19554 119.0578 1.19554 118.39752 1.19554 117.86226 .66028 117.86226 0 117.86226-.66028 118.39752-1.19554 119.0578-1.19554 119.71808-1.19554 120.25334-.66028 120.25334 0ZM119.0578 0"/>
<path transform="matrix(1.00003,0,0,-1.00005,159.65538,155.02809)" d="M137.26161 0C137.26161 .66028 136.72635 1.19554 136.06606 1.19554 135.40578 1.19554 134.87052 .66028 134.87052 0 134.87052-.66028 135.40578-1.19554 136.06606-1.19554 136.72635-1.19554 137.26161-.66028 137.26161 0ZM136.06606 0"/>
<path transform="matrix(1.00003,0,0,-1.00005,159.65538,155.02809)" stroke-width=".79701" stroke-linecap="butt" stroke-miterlimit="10" stroke-linejoin="miter" fill="none" stroke="#000000" d="M-140.46123 0H140.46123"/>
<path transform="matrix(-1.00003,-0,0,1.00005,19.189927,155.02809)" stroke-width=".6376" stroke-linecap="round" stroke-linejoin="round" fill="none" stroke="#000000" d="M-1.55415 2.0722C-1.42464 1.29512 0 .1295 .38852 0 0-.1295-1.42464-1.29512-1.55415-2.0722"/>
<path transform="matrix(1.00003,0,0,-1.00005,300.12086,155.02809)" stroke-width=".6376" stroke-linecap="round" stroke-linejoin="round" fill="none" stroke="#000000" d="M-1.55415 2.0722C-1.42464 1.29512 0 .1295 .38852 0 0-.1295-1.42464-1.29512-1.55415-2.0722"/>
<path transform="matrix(1.00003,0,0,-1.00005,159.65538,155.02809)" stroke-width=".79701" stroke-linecap="butt" stroke-miterlimit="10" stroke-linejoin="miter" fill="none" stroke="#ff0000" d="M136.06606 0C136.06606 0 136.01493 3.10027 135.95705 4.2902 135.89919 5.48013 135.76247 7.3907 135.64899 8.57626 135.53554 9.76181 135.3077 11.65688 135.13928 12.83481 134.97089 14.01277 134.65819 15.89803 134.4352 17.06612 134.21219 18.23419 133.81047 20.09883 133.53205 21.25356 133.25363 22.40826 132.76189 24.25009 132.42855 25.38858 132.09522 26.52705 131.51505 28.33969 131.12961 29.45898 130.7442 30.57828 130.08692 32.3574 129.65059 33.45566 129.21427 34.55392 128.47219 36.3 127.98494 37.3745 127.49773 38.449 126.6753 40.1526 126.13896 41.1999 125.6026 42.24721 124.70374 43.90527 124.11931 44.92279 123.5349 45.94032 122.55733 47.54764 121.92685 48.53357 121.29639 49.51953 120.24893 51.07614 119.57529 52.02885 118.90164 52.98157 117.78642 54.48335 117.07164 55.40009 116.35687 56.31683 115.17819 57.7578 114.4237 58.63612 113.66922 59.51445 112.42697 60.89252 111.6338 61.73044 110.84064 62.56836 109.53592 63.87927 108.70714 64.67528 107.87837 65.47128 106.52135 66.71489 105.66057 67.46751 104.79979 68.22014 103.3944 69.39195 102.50317 70.09961 101.61198 70.8073 100.15659 71.90578 99.23732 72.56796 98.31805 73.23016 96.82224 74.25821 95.87776 74.87228 94.93329 75.48639 93.39813 76.42912 92.43022 76.99391 91.46233 77.5587 89.88911 78.42691 88.9017 78.94295 87.91432 79.45898 86.31715 80.2469 85.31378 80.71317 84.31041 81.17944 82.68762 81.8879 81.67004 82.30354 80.65244 82.7192 79.00996 83.34496 77.97958 83.70886 76.9492 84.07277 75.28336 84.61414 74.24371 84.9263 73.20409 85.23846 71.53133 85.69756 70.48657 85.9587 69.44182 86.21983 67.76173 86.59853 66.71384 86.80838 65.66595 87.01823 63.98242 87.31229 62.93411 87.47122 61.8858 87.63016 60.20407 87.84558 59.15828 87.95393 58.11249 88.06227 56.43776 88.19456 55.39671 88.25214 54.35568 88.3097 52.6889 88.36075 51.65515 88.36891 50.62138 88.37709 48.96918 88.3511 47.94601 88.31104 46.92284 88.27097 45.29106 88.16748 44.28075 88.08006 43.2704 87.99263 41.65945 87.8146 40.66425 87.6809 39.66904 87.5472 38.08582 87.29573 37.10797 87.11646 36.13013 86.93716 34.57458 86.61186 33.61656 86.38873 32.65857 86.16559 31.13922 85.7733 30.20328 85.50816 29.26736 85.24303 27.783 84.78323 26.87097 84.47784 25.95895 84.17247 24.51598 83.65082 23.63002 83.30713 22.74408 82.96342 21.3437 82.38167 20.48561 82.00069 19.62753 81.61967 18.27423 80.97755 17.44554 80.56108 16.61684 80.14462 15.31064 79.44829 14.5129 78.99901 13.71516 78.54973 12.46141 77.80266 11.69601 77.32298 10.9306 76.84332 9.72801 76.04984 8.99643 75.54185 8.26485 75.0339 7.11986 74.19685 6.42323 73.66187 5.72662 73.12688 4.63655 72.24538 3.97565 71.6861 3.31476 71.12682 2.28381 70.21136 1.6599 69.6309 1.036 69.05046 .06519 68.10219-.52112 67.50253-1.10744 66.9029-2.01724 65.9261-2.5659 65.30905-3.11458 64.69197-3.96515 63.6869-4.4755 63.05505-4.98584 62.4232-5.77261 61.39926-6.24416 60.75514-6.71573 60.11104-7.44142 59.06673-7.87424 58.41267-8.30707 57.75862-8.96959 56.70235-9.36365 56.04112-9.75774 55.3799-10.35883 54.31358-10.71448 53.647-11.07014 52.98041-11.6096 51.90622-11.92699 51.23679-12.24437 50.56735-12.72238 49.4922-13.00194 48.82216-13.28151 48.15211-13.69942 47.07622-13.94194 46.40755-14.18446 45.73888-14.54378 44.66747-14.74985 44.00279-14.95593 43.33809-15.25674 42.27548-15.4272 41.61696-15.59766 40.95844-15.84242 39.9075-15.97844 39.25658-16.11447 38.60567-16.30511 37.56679-16.4077 36.92552-16.51028 36.28424-16.64754 35.264-16.71783 34.63469-16.78812 34.00536-16.87488 33.00594-16.91429 32.3898-16.9537 31.77365-16.992 30.79535-17.00201 30.19395-17.01202 29.59254-17.0044 28.64005-16.98643 28.05519-16.96848 27.47035-16.91685 26.54533-16.87251 25.97874-16.82816 25.41216-16.73573 24.51901-16.66672 23.97157-16.59769 23.42413-16.46696 22.56038-16.375 22.03317-16.28305 21.50597-16.11703 20.67773-16.00388 20.17184-15.89072 19.66597-15.6918 18.87073-15.55931 18.3871-15.4268 17.90347-15.19872 17.14647-15.04883 16.68617-14.89893 16.22588-14.64433 15.50626-14.4789 15.0696-14.31348 14.63292-14.0354 13.95123-13.85657 13.53891-13.67772 13.12657-13.38034 12.48546-13.18983 12.09776-12.99933 11.71007-12.68373 11.10764-12.48341 10.7446-12.2831 10.38156-11.95409 9.81938-11.74611 9.48122-11.53813 9.14307-11.19797 8.62047-10.98439 8.30739-10.77084 7.99431-10.42409 7.5129-10.20686 7.22466-9.98962 6.93642-9.63803 6.49391-9.41867 6.22989-9.19931 5.96587-8.8454 5.56186-8.62582 5.32181-8.40625 5.08174-8.05383 4.7162-7.83609 4.49962-7.61836 4.28305-7.27037 3.95444-7.05647 3.76076-6.8426 3.56708-6.50325 3.27539-6.29451 3.10364-6.08577 2.93188-5.75415 2.67368-5.55202 2.52284-5.34985 2.372-5.03143 2.14735-4.83754 2.0165-4.64363 1.88564-4.33887 1.69176-4.15446 1.57971-3.97006 1.46765-3.68127 1.30307-3.5085 1.20885-3.33574 1.11462-3.06908 .97824-2.90926 .90054-2.74945 .82283-2.5032 .71161-2.35672 .6488-2.21025 .58597-1.98566 .49706-1.85352 .44766-1.72136 .39825-1.52101 .33017-1.40428 .29272-1.28754 .25528-1.11205 .20476-1.01213 .17776-.9122 .15077-.76659 .1163-.6841 .09808-.6016 .07986-.48233 .05766-.41756 .04643-.35278 .03522-.26408 .02304-.2172 .0171-.17032 .01117-.10838 .00598-.07965 .00362-.05092 .00124-.0199 .00049-.0101 0-.0003-.00049 .00041 .00049-.00906 0-.01857-.00049-.05032-.00131-.07861-.00362-.1069-.00592-.16656-.01076-.21304-.01659-.25954-.02242-.34914-.03458-.41367-.04565-.47818-.05675-.59619-.07849-.67812-.09653-.76004-.11455-.90445-.14885-1.00409-.17567-1.10371-.2025-1.27988-.25267-1.39622-.28987-1.51257-.32706-1.71095-.39467-1.8426-.44377-1.97426-.49289-2.19875-.58128-2.34505-.64388-2.49133-.70644-2.73729-.81737-2.89706-.89482-3.05682-.97227-3.32397-1.10823-3.49657-1.2021-3.66914-1.29597-3.95699-1.45982-4.14096-1.57141-4.32492-1.683-4.62883-1.87596-4.82248-2.00638-5.01613-2.1368-5.33476-2.36104-5.53668-2.5114-5.73863-2.66177-6.06934-2.91887-6.2779-3.09015-6.48645-3.26144-6.82588-3.55263-7.03987-3.74597-7.25386-3.9393-7.60255-4.26741-7.82025-4.48354-8.03796-4.69965-8.3895-5.06412-8.60896-5.30365-8.82841-5.54317-9.18263-5.9464-9.40207-6.20992-9.62149-6.4734-9.97331-6.91522-10.1905-7.20285-10.40771-7.49048-10.75385-7.9704-10.96751-8.28299-11.1812-8.59557-11.52231-9.11806-11.73055-9.4558-11.93878-9.79352-12.26794-10.35468-12.46837-10.71709-12.6688-11.07951-12.98427-11.68068-13.17505-12.06792-13.36581-12.45514-13.66418-13.09619-13.84332-13.50801-14.02246-13.91983-14.30055-14.60016-14.4662-15.0361-14.63182-15.47205-14.8869-16.19023-15.03716-16.6501-15.1874-17.10995-15.41628-17.86731-15.54918-18.3505-15.6821-18.83371-15.88145-19.62726-15.99506-20.13268-16.10866-20.63808-16.27556-21.46648-16.368-21.99321-16.46042-22.51993-16.59172-23.3819-16.66125-23.929-16.73079-24.47612-16.82423-25.37009-16.86914-25.93643-16.91403-26.50278-16.96634-27.42657-16.9849-28.01082-17.00342-28.59506-17.01215-29.54628-17.00278-30.14723-16.99344-30.74818-16.95618-31.72615-16.9174-32.34204-16.87863-32.95793-16.79292-33.95694-16.72328-34.58615-16.65364-35.21536-16.51738-36.23587-16.41548-36.877-16.31357-37.51811-16.1241-38.55634-15.98883-39.207-15.85355-39.85768-15.61017-40.9082-15.44044-41.5666-15.2707-42.22502-14.97078-43.2878-14.76541-43.95244-14.56007-44.61707-14.20201-45.6884-13.96036-46.35693-13.71872-47.02545-13.30257-48.1007-13.02376-48.77078-12.74493-49.44086-12.26741-50.51715-11.95087-51.18645-11.63432-51.85573-11.09697-52.9281-10.74226-53.59459-10.38753-54.26106-9.78755-55.32852-9.39429-55.98999-9.001-56.65147-8.33975-57.70772-7.90773-58.36206-7.47571-59.0164-6.75139-60.06154-6.28049-60.7061-5.80962-61.35065-5.02332-62.37584-4.5139-63.00757-4.0045-63.6393-3.15674-64.64189-2.609-65.25922-2.06123-65.87654-1.15154-66.85661-.56601-67.45688 .0195-68.05713 .98785-69.00426 1.61111-69.5855 2.23438-70.16675 3.26587-71.08638 3.92609-71.64613 4.5863-72.20589 5.67365-73.08481 6.36952-73.61983 7.06537-74.15483 8.21063-74.99347 8.94142-75.50215 9.67221-76.01085 10.87216-76.80586 11.6366-77.28613 12.401-77.76643 13.65369-78.51382 14.45087-78.9637 15.24806-79.41359 16.55412-80.1115 17.38222-80.52864 18.21031-80.9458 19.56168-81.58844 20.41919-81.9703 21.2767-82.35217 22.67711-82.93614 23.56256-83.28091 24.44801-83.6257 25.88936-84.14894 26.80092-84.45526 27.71246-84.76158 29.19698-85.22276 30.13245-85.4887 31.06792-85.75461 32.58556-86.14793 33.54312-86.37186 34.5007-86.5958 36.0563-86.92224 37.034-87.10269 38.0117-87.28313 39.59499-87.53761 40.58977-87.67235 41.58453-87.80708 43.19397-87.9859 44.20366-88.07382 45.21333-88.16176 46.84396-88.26491 47.86685-88.3061 48.88976-88.34729 50.54222-88.37743 51.57599-88.37073 52.60976-88.36403 54.27654-88.31458 55.31757-88.25783 56.35861-88.2011 58.03357-88.06937 59.07912-87.96172 60.12466-87.85405 61.80505-87.63962 62.85315-87.48184 63.90125-87.3241 65.58511-87.03351 66.63313-86.82474 67.68117-86.61595 69.36134-86.23708 70.40663-85.97713 71.45192-85.71716 73.12741-85.26215 74.1669-84.95122 75.2064-84.64029 76.86867-84.09917 77.8986-83.73613 78.92856-83.37308 80.57188-82.74936 81.5901-82.33469 82.60832-81.92001 84.23283-81.21263 85.23721-80.74742 86.2416-80.28223 87.84125-79.49632 88.82904-78.98187 89.81683-78.46742 91.38857-77.60368 92.35652-77.0396 93.32446-76.4755 94.86044-75.52943 95.80536-74.91615 96.75024-74.30286 98.24736-73.28027 99.16672-72.61934 100.08609-71.9584 101.5398-70.8594 102.43156-70.15256 103.3233-69.44571 104.7318-68.27629 105.59387-67.52487 106.45595-66.77344 107.81514-65.53171 108.64485-64.73679 109.47456-63.94185 110.78004-62.633 111.57387-61.79558 112.36766-60.95816 113.61101-59.57907 114.36609-58.70126 115.12119-57.82344 116.3003-56.38431 117.01611-55.46887 117.73192-54.55342 118.85043-53.05505 119.52519-52.10335 120.19997-51.15164 121.24815-49.59491 121.87936-48.6096 122.51054-47.62431 123.48886-46.01883 124.07442-45.00195 124.65999-43.98508 125.56267-42.3276 126.09975-41.28061 126.63686-40.23363 127.45747-38.5299 127.9455-37.456 128.43354-36.38206 129.17914-34.63817 129.61711-33.54053 130.05507-32.44289 130.71503-30.66388 131.10211-29.54488 131.4892-28.42589 132.07283-26.61351 132.407-25.47551 132.74117-24.33754 133.23123-22.49765 133.5105-21.3431 133.78978-20.18855 134.19519-18.32225 134.41988-17.15434 134.64458-15.98645 134.96027-14.10347 135.12995-12.92564 135.2996-11.7478 135.52845-9.85075 135.64276-8.66527 135.7571-7.47981 135.89565-5.57149 135.95394-4.38155 136.01222-3.19162 136.06295-.089 136.06295-.089"/>
</svg>
