<svg xmlns="http://www.w3.org/2000/svg" xmlns:xlink="http://www.w3.org/1999/xlink" version="1.1" width="270" height="176" viewBox="0 0 270 176">
<defs>
<clipPath id="clip_1">
<path transform="matrix(1.00009,0,0,-1.00006,11.096474,165.12712)" d="M0 0H239.10431V143.46259H0Z"/>
</clipPath>
<path id="font_2_1" d="M.69898989 .22743225C.71499636 .22743225 .7369995 .22743225 .7369995 .25042726 .7369995 .2734375 .71499636 .2734375 .69898989 .2734375H.12599182C.10998535 .2734375 .08799744 .2734375 .08799744 .25042726 .08799744 .22743225 .10998535 .22743225 .12599182 .22743225H.69898989Z"/>
<path id="font_3_2" d="M.28199769 .20405579C.2979889 .21907044 .33999635 .2520752 .35598756 .26608277 .41799928 .32312013 .47698976 .3781433 .47698976 .46917726 .47698976 .588089 .3769989 .66503909 .2519989 .66503909 .13198853 .66503909 .052993776 .57411196 .052993776 .48516847 .052993776 .4361725 .09199524 .4291687 .10598755 .4291687 .1269989 .4291687 .1579895 .4441681 .1579895 .48217774 .1579895 .5341797 .10798645 .5341797 .09599304 .5341797 .125 .6070709 .19198609 .6320343 .24099732 .6320343 .33399964 .6320343 .38198854 .55314639 .38198854 .46917726 .38198854 .36514283 .30899049 .28910829 .19099427 .16804505L.06498718 .037994386C.052993776 .026992798 .052993776 .024993897 .052993776 0H.44799806L.47698976 .17904663H.44599916C.44299317 .1590271 .43499757 .10900879 .4229889 .08999634 .4169922 .08198547 .34098817 .08198547 .32499696 .08198547H.14698792L.28199769 .20405579Z"/>
<path id="font_3_1" d="M.31399537 .63708499C.31399537 .664032 .31199647 .66503909 .2849884 .66503909 .24398804 .6251831 .19099427 .6013489 .09599304 .6013489V.5683594C.12298584 .5683594 .1769867 .5683594 .23498535 .5953522V.08203125C.23498535 .04499817 .23199463 .032989503 .13699341 .032989503H.101989749V0C.14299011 .0029907227 .22898865 .0029907227 .27398683 .0029907227 .31900025 .0029907227 .4059906 .0029907227 .44699098 0V.032989503H.4119873C.31698609 .032989503 .31399537 .04499817 .31399537 .08203125V.63708499Z"/>
<clipPath id="clip_4">
<path transform="matrix(1.00009,0,0,-1.00006,11.096474,165.12712)" d="M0 0H239.10431V143.46259H0Z"/>
</clipPath>
<path id="font_5_1" d="M.33399964 .30233766C.33999635 .32835389 .36299134 .42037965 .43299867 .42037965 .43798829 .42037965 .46199037 .42037965 .48298646 .40734864 .45498658 .402359 .43499757 .37734986 .43499757 .35334779 .43499757 .33735658 .44599916 .31835938 .47299195 .31835938 .49499513 .31835938 .5269928 .3363495 .5269928 .37635804 .5269928 .42837525 .46798707 .4423828 .43399049 .4423828 .37599183 .4423828 .34098817 .38935853 .32899476 .36634828 .3039856 .43237306 .25 .4423828 .22099304 .4423828 .116989139 .4423828 .05999756 .3133545 .05999756 .28834535 .05999756 .27833558 .069992069 .27833558 .07199097 .27833558 .07998657 .27833558 .08299255 .28033448 .084991458 .28933717 .11898804 .39535523 .18499756 .42037965 .21899414 .42037965 .23799134 .42037965 .272995 .4113617 .272995 .35334779 .272995 .32235719 .2559967 .25532533 .21899414 .11528015 .20298767 .053268434 .16799927 .011245728 .12399292 .011245728 .117996219 .011245728 .09498596 .011245728 .07398987 .024276734 .09899902 .029266358 .12098694 .05027771 .12098694 .07827759 .12098694 .105270389 .09899902 .11328125 .083999637 .11328125 .053985597 .11328125 .0289917 .08728027 .0289917 .055267335 .0289917 .009246826 .07899475-.0107421879 .12298584-.0107421879 .18899536-.0107421879 .22499085 .059280397 .22799683 .0652771 .23999024 .028274537 .27598573-.0107421879 .33599855-.0107421879 .43899537-.0107421879 .49598695 .118270877 .49598695 .14328003 .49598695 .1532898 .4869995 .1532898 .48399354 .1532898 .47499085 .1532898 .47299195 .14929199 .47099305 .14228821 .43798829 .03527832 .36999513 .011245728 .33799745 .011245728 .29899598 .011245728 .2829895 .043273927 .2829895 .07727051 .2829895 .09927368 .2889862 .121276859 .2999878 .16529846L.33399964 .30233766Z"/>
<path id="font_5_2" d="M.48599244 .38136292C.48999024 .39537049 .48999024 .39736939 .48999024 .40437318 .48999024 .42237855 .47599793 .43138124 .46099855 .43138124 .45098878 .43138124 .43499757 .42536927 .42599488 .41036988 .42399598 .405365 .41600038 .37435914 .4119873 .35635377 .40499879 .33035279 .397995 .30334474 .3919983 .27633668L.34700013 .09628296C.34298707 .08126831 .2999878 .011245728 .23399353 .011245728 .18299866 .011245728 .17199707 .055267335 .17199707 .0922699 .17199707 .1382904 .18899536 .20030213 .22299195 .28833009 .23899842 .3293457 .24299622 .3403473 .24299622 .36035157 .24299622 .405365 .21099854 .4423828 .16099549 .4423828 .06599426 .4423828 .0289917 .29733277 .0289917 .28833009 .0289917 .27833558 .038986207 .27833558 .040985109 .27833558 .050994874 .27833558 .051986696 .28033448 .056991579 .29634095 .083999637 .3903656 .12399292 .42037965 .1579895 .42037965 .1659851 .42037965 .18299866 .42037965 .18299866 .3883667 .18299866 .36335755 .17298889 .3373413 .1659851 .31834413 .12599182 .21231079 .10798645 .1552887 .10798645 .10827637 .10798645 .019256592 .17098999-.0107421879 .22999573-.0107421879 .2689972-.0107421879 .30299378 .0062561037 .33099366 .03425598 .31799317-.017745972 .30599977-.06674194 .2659912-.11973572 .23999024-.15385437 .20199585-.18309021 .1559906-.18309021 .14199829-.18309021 .09700012-.18005371 .07998657-.14074707 .09599304-.14074707 .10899353-.14074707 .12298584-.1287384 .1329956-.11973572 .14299011-.10673523 .14299011-.08773804 .14299011-.056747438 .115997318-.052734376 .10598755-.052734376 .08299255-.052734376 .049987794-.068740848 .049987794-.11773682 .049987794-.16796875 .09399414-.20507813 .1559906-.20507813 .25898744-.20507813 .3619995-.11373901 .3899994-.00074768069L.48599244 .38136292Z"/>
</defs>
<path transform="matrix(1.00009,0,0,-1.00006,11.096474,165.12712)" stroke-width=".09962" stroke-linecap="butt" stroke-miterlimit="10" stroke-linejoin="miter" fill="none" stroke="#e0e0e0" d="M47.82086 0V143.46259M95.64172 0V143.46259M143.46259 0V143.46259M191.28345 0V143.46259"/>
<path transform="matrix(1.00009,0,0,-1.00006,11.096474,165.12712)" stroke-width=".19925" stroke-linecap="butt" stroke-miterlimit="10" stroke-linejoin="miter" fill="none" stroke="#c0c0c0" d="M23.91043 0V143.46259M71.7313 0V143.46259M167.37302 0V143.46259M215.19388 0V143.46259"/>
<path transform="matrix(1.00009,0,0,-1.00006,11.096474,165.12712)" stroke-width=".09962" stroke-linecap="butt" stroke-miterlimit="10" stroke-linejoin="miter" fill="none" stroke="#e0e0e0" d="M0 47.82086H239.10431M0 95.64172H239.10431"/>
<path transform="matrix(1.00009,0,0,-1.00006,11.096474,165.12712)" stroke-width=".19925" stroke-linecap="butt" stroke-miterlimit="10" stroke-linejoin="miter" fill="none" stroke="#c0c0c0" d="M0 71.7313H239.10431M0 119.55215H239.10431"/>
<path transform="matrix(1.00009,0,0,-1.00006,11.096474,165.12712)" stroke-width=".19925" stroke-linecap="butt" stroke-miterlimit="10" stroke-linejoin="miter" fill="none" stroke="#929292" d="M47.82086 22.49303V25.32782M95.64172 22.49303V25.32782M143.46259 22.49303V25.32782M191.28345 22.49303V25.32782"/>
<path transform="matrix(1.00009,0,0,-1.00006,11.096474,165.12712)" stroke-width=".19925" stroke-linecap="butt" stroke-miterlimit="10" stroke-linejoin="miter" fill="none" stroke="#929292" d="M23.91043 21.78455V26.03629M71.7313 21.78455V26.03629M167.37302 21.78455V26.03629M215.19388 21.78455V26.03629"/>
<path transform="matrix(1.00009,0,0,-1.00006,11.096474,165.12712)" stroke-width=".19925" stroke-linecap="butt" stroke-miterlimit="10" stroke-linejoin="miter" fill="none" stroke="#929292" d="M118.13475 47.82086H120.96956M118.13475 95.64172H120.96956"/>
<path transform="matrix(1.00009,0,0,-1.00006,11.096474,165.12712)" stroke-width=".19925" stroke-linecap="butt" stroke-miterlimit="10" stroke-linejoin="miter" fill="none" stroke="#929292" d="M117.42627 71.7313H121.67801M117.42627 119.55215H121.67801"/>
<path transform="matrix(1.00009,0,0,-1.00006,11.096474,165.12712)" stroke-width=".3985" stroke-linecap="butt" stroke-miterlimit="10" stroke-linejoin="miter" fill="none" stroke="#000000" d="M-6.37622 23.91043H245.48053"/>
<path transform="matrix(-1.00009,-0,0,1.00006,4.7196795,141.21526)" d="M3.58653 0C2.52383 .19925 .797 .797-.3985 1.49438V-1.49438C.797-.797 2.52383-.19925 3.58653 0"/>
<path transform="matrix(1.00009,0,0,-1.00006,256.5991,141.21526)" d="M3.58653 0C2.52383 .19925 .797 .797-.3985 1.49438V-1.49438C.797-.797 2.52383-.19925 3.58653 0"/>
<path transform="matrix(1.00009,0,0,-1.00006,11.096474,165.12712)" stroke-width=".3985" stroke-linecap="butt" stroke-miterlimit="10" stroke-linejoin="miter" fill="none" stroke="#000000" d="M119.55215-6.37622V149.8388"/>
<path transform="matrix(0,1.00006,1.00009,0,130.65938,171.50373)" d="M3.58653 0C2.52383 .19925 .797 .797-.3985 1.49438V-1.49438C.797-.797 2.52383-.19925 3.58653 0"/>
<path transform="matrix(0,-1.00006,-1.00009,-0,130.65938,15.279327)" d="M3.58653 0C2.52383 .19925 .797 .797-.3985 1.49438V-1.49438C.797-.797 2.52383-.19925 3.58653 0"/>
<g clip-path="url(#clip_1)">
<path transform="matrix(1.00009,0,0,-1.00006,11.096474,165.12712)" d="M119.55238 119.53462C119.90146 119.5498 120.25006 119.54848 120.51788 119.54578 121.05405 119.54037 121.91386 119.523 122.45003 119.50676 122.98619 119.49052 123.84602 119.45576 124.38219 119.42867 124.91835 119.40157 125.77818 119.34937 126.31435 119.31137 126.8505 119.27336 127.71033 119.20366 128.24648 119.15471 128.78264 119.10576 129.64249 119.01848 130.17864 118.95854 130.7148 118.8986 131.57462 118.79367 132.11078 118.72264 132.64694 118.65161 133.50678 118.52876 134.04294 118.44658 134.57909 118.36438 135.43892 118.22365 135.97509 118.13019 136.51123 118.03673 137.37108 117.87773 137.90723 117.77287 138.44339 117.668 139.3032 117.49072 139.83937 117.37433 140.37554 117.25795 141.23537 117.06204 141.77153 116.93394 142.3077 116.80585 143.16753 116.59105 143.70369 116.4511 144.23984 116.31116 145.09967 116.07722 145.63584 115.92522 146.17198 115.77321 147.03183 115.51976 147.56798 115.35548 148.10414 115.1912 148.96396 114.9179 149.50012 114.74107 150.03629 114.56425 150.89612 114.27069 151.43228 114.0811 151.96845 113.8915 152.82826 113.57722 153.36443 113.37456 153.90058 113.17188 154.76042 112.83638 155.29659 112.62027 155.83274 112.40417 156.69257 112.04692 157.22872 111.81708 157.76488 111.58723 158.62471 111.20766 159.16088 110.96365 159.69704 110.71965 160.55686 110.31699 161.09302 110.05836 161.62918 109.79974 162.48902 109.37338 163.02518 109.0997 163.56133 108.82602 164.42118 108.37509 164.95732 108.0858 165.49349 107.79651 166.35332 107.32011 166.88947 107.0146 167.42563 106.7091 168.28546 106.20625 168.82163 105.88388 169.35779 105.56151 170.2176 105.03108 170.75377 104.69113 171.28993 104.3512 172.14977 103.79207 172.68593 103.43369 173.22208 103.07532 174.08191 102.4859 174.61806 102.10818 175.15422 101.73047 176.01407 101.10939 176.55022 100.71129 177.08638 100.3132 177.9462 99.65865 178.48236 99.239 179.01853 98.81934 179.87836 98.12926 180.41452 97.68672 180.95069 97.24417 181.8105 96.51636 182.34667 96.04938 182.88282 95.5824 183.74266 94.8142 184.27881 94.321 184.81497 93.8278 185.67482 93.0162 186.21097 92.4947 186.74713 91.97322 187.60695 91.11464 188.14311 90.56242 188.67928 90.0102 189.53911 89.10039 190.07527 88.51454 190.61144 87.92871 191.47126 86.96297 192.00742 86.34003 192.54357 85.71707 193.40341 84.68909 193.93956 84.02478 194.47573 83.36047 195.33556 82.26306 195.8717 81.5521 196.40787 80.84114 197.2677 79.66492 197.80387 78.90054 198.34003 78.13617 199.19985 76.86954 199.73601 76.043 200.27216 75.21645 201.132 73.84381 201.66817 72.94336 202.20432 72.0429 203.06417 70.54417 203.60031 69.55305 204.13648 68.56194 204.99629 66.90663 205.53246 65.79993 206.06862 64.69322 206.92845 62.83896 207.46462 61.57664 208.00078 60.31432 208.8606 58.19371 209.39676 56.70187 209.9329 55.21002 210.79276 52.71979 211.32892 50.82437 211.86507 48.92896 212.7249 46.72603 213.26105 43.04097 213.79721 39.35593 215.1932 24.26508 215.1932 24.26508L215.19097 23.91043H119.54922Z" fill="#0000ff" fill-opacity=".4"/>
</g>
<use data-text="&#x2212;" xlink:href="#font_2_1" transform="matrix(7.970817,0,0,-7.9705779,29.598137,151.99834)"/>
<use data-text="2" xlink:href="#font_3_2" transform="matrix(7.970817,0,0,-7.9705779,36.18473,151.99834)"/>
<use data-text="&#x2212;" xlink:href="#font_2_1" transform="matrix(7.970817,0,0,-7.9705779,77.42344,151.99834)"/>
<use data-text="1" xlink:href="#font_3_1" transform="matrix(7.970817,0,0,-7.9705779,84.01003,151.99834)"/>
<use data-text="1" xlink:href="#font_3_1" transform="matrix(7.970817,0,0,-7.9705779,176.36734,151.99834)"/>
<use data-text="2" xlink:href="#font_3_2" transform="matrix(7.970817,0,0,-7.9705779,224.19266,151.99834)"/>
<use data-text="1" xlink:href="#font_3_1" transform="matrix(7.970817,0,0,-7.9705779,120.77834,89.87161)"/>
<use data-text="2" xlink:href="#font_3_2" transform="matrix(7.970817,0,0,-7.9705779,120.77834,42.047746)"/>
<g clip-path="url(#clip_4)">
<path transform="matrix(1.00009,0,0,-1.00006,11.096474,165.12712)" stroke-width=".99628" stroke-linecap="butt" stroke-miterlimit="10" stroke-linejoin="miter" fill="none" stroke="#000000" d="M23.91043 23.91043C23.91043 23.91043 25.30641 39.30377 25.84256 43.0377 26.37872 46.77165 27.23856 48.92653 27.77472 50.82216 28.31088 52.71777 29.1707 55.20813 29.70686 56.70006 30.24303 58.19199 31.10286 60.31255 31.63902 61.57492 32.17517 62.8373 33.035 64.69165 33.57117 65.79843 34.10732 66.90521 34.96716 68.56064 35.50331 69.55182 36.03947 70.54301 36.89929 72.04176 37.43546 72.94225 37.97162 73.84274 38.83145 75.21542 39.36761 76.04199 39.90378 76.86855 40.7636 78.13524 41.29976 78.89963 41.8359 79.66402 42.69576 80.84023 43.2319 81.55121 43.76807 82.26219 44.62791 83.35965 45.16406 84.02397 45.70023 84.6883 46.56004 85.71626 47.0962 86.33922 47.63237 86.96217 48.4922 87.92809 49.02837 88.51392 49.56453 89.09976 50.42435 90.00938 50.96051 90.56161 51.49666 91.11385 52.3565 91.97247 52.89265 92.494 53.42882 93.01552 54.28865 93.82721 54.8248 94.32042 55.36096 94.81364 56.2208 95.58182 56.75696 96.04881 57.29312 96.51581 58.15294 97.24368 58.6891 97.68625 59.22527 98.12881 60.0851 98.81888 60.62126 99.23851 61.15741 99.65814 62.01724 100.31268 62.55339 100.71077 63.08955 101.10887 63.9494 101.73003 64.48555 102.10776 65.02171 102.4855 65.88155 103.07489 66.41771 103.43326 66.95387 103.79164 67.81369 104.35075 68.34985 104.69072 68.886 105.03067 69.74585 105.56111 70.28201 105.8835 70.81816 106.20589 71.678 106.70876 72.21414 107.01427 72.7503 107.3198 73.61015 107.79617 74.1463 108.08546 74.68246 108.37476 75.54228 108.82568 76.07845 109.09937 76.61461 109.37305 77.47444 109.79941 78.0106 110.05803 78.54675 110.31665 79.40659 110.7193 79.94275 110.96332 80.4789 111.20735 81.33875 111.58693 81.8749 111.81677 82.41106 112.04663 83.27089 112.40395 83.80705 112.62004 84.34322 112.83612 85.20303 113.17152 85.7392 113.37422 86.27536 113.5769 87.1352 113.89125 87.67136 114.08087 88.2075 114.27048 89.06734 114.56406 89.6035 114.74088 90.13965 114.9177 90.9995 115.19101 91.53564 115.3553 92.07181 115.51958 92.93163 115.77301 93.46779 115.92503 94.00395 116.07706 94.86378 116.311 95.39995 116.45096 95.93611 116.59093 96.79593 116.80571 97.33209 116.9338 97.86824 117.0619 98.72809 117.2578 99.26425 117.37419 99.8004 117.4906 100.66023 117.66791 101.19638 117.77278 101.73254 117.87764 102.59238 118.03658 103.12854 118.13005 103.6647 118.22353 104.52454 118.36435 105.0607 118.44653 105.59686 118.5287 106.45668 118.65143 106.99284 118.72246 107.52899 118.79349 108.38884 118.89848 108.92499 118.95845 109.46115 119.01842 110.32098 119.10576 110.85713 119.15471 111.3933 119.20366 112.25313 119.27328 112.78929 119.31128 113.32545 119.34926 114.18527 119.4015 114.72144 119.42862 115.2576 119.45573 116.11743 119.49051 116.6536 119.50676 117.18974 119.52301 118.04958 119.54037 118.58572 119.54578 119.12189 119.5512 119.98174 119.5512 120.51788 119.54578 121.05405 119.54037 121.91386 119.523 122.45003 119.50676 122.98619 119.49052 123.84602 119.45576 124.38219 119.42867 124.91835 119.40157 125.77818 119.34937 126.31435 119.31137 126.8505 119.27336 127.71033 119.20366 128.24648 119.15471 128.78264 119.10576 129.64249 119.01848 130.17864 118.95854 130.7148 118.8986 131.57462 118.79367 132.11078 118.72264 132.64694 118.65161 133.50678 118.52876 134.04294 118.44658 134.57909 118.36438 135.43892 118.22365 135.97509 118.13019 136.51123 118.03673 137.37108 117.87773 137.90723 117.77287 138.44339 117.668 139.3032 117.49072 139.83937 117.37433 140.37554 117.25795 141.23537 117.06204 141.77153 116.93394 142.3077 116.80585 143.16753 116.59105 143.70369 116.4511 144.23984 116.31116 145.09967 116.07722 145.63584 115.92522 146.17198 115.77321 147.03183 115.51976 147.56798 115.35548 148.10414 115.1912 148.96396 114.9179 149.50012 114.74107 150.03629 114.56425 150.89612 114.27069 151.43228 114.0811 151.96845 113.8915 152.82826 113.57722 153.36443 113.37456 153.90058 113.17188 154.76042 112.83638 155.29659 112.62027 155.83274 112.40417 156.69257 112.04692 157.22872 111.81708 157.76488 111.58723 158.62471 111.20766 159.16088 110.96365 159.69704 110.71965 160.55686 110.31699 161.09302 110.05836 161.62918 109.79974 162.48902 109.37338 163.02518 109.0997 163.56133 108.82602 164.42118 108.37509 164.95732 108.0858 165.49349 107.79651 166.35332 107.32011 166.88947 107.0146 167.42563 106.7091 168.28546 106.20625 168.82163 105.88388 169.35779 105.56151 170.2176 105.03108 170.75377 104.69113 171.28993 104.3512 172.14977 103.79207 172.68593 103.43369 173.22208 103.07532 174.08191 102.4859 174.61806 102.10818 175.15422 101.73047 176.01407 101.10939 176.55022 100.71129 177.08638 100.3132 177.9462 99.65865 178.48236 99.239 179.01853 98.81934 179.87836 98.12926 180.41452 97.68672 180.95069 97.24417 181.8105 96.51636 182.34667 96.04938 182.88282 95.5824 183.74266 94.8142 184.27881 94.321 184.81497 93.8278 185.67482 93.0162 186.21097 92.4947 186.74713 91.97322 187.60695 91.11464 188.14311 90.56242 188.67928 90.0102 189.53911 89.10039 190.07527 88.51454 190.61144 87.92871 191.47126 86.96297 192.00742 86.34003 192.54357 85.71707 193.40341 84.68909 193.93956 84.02478 194.47573 83.36047 195.33556 82.26306 195.8717 81.5521 196.40787 80.84114 197.2677 79.66492 197.80387 78.90054 198.34003 78.13617 199.19985 76.86954 199.73601 76.043 200.27216 75.21645 201.132 73.84381 201.66817 72.94336 202.20432 72.0429 203.06417 70.54417 203.60031 69.55305 204.13648 68.56194 204.99629 66.90663 205.53246 65.79993 206.06862 64.69322 206.92845 62.83896 207.46462 61.57664 208.00078 60.31432 208.8606 58.19371 209.39676 56.70187 209.9329 55.21002 210.79276 52.71979 211.32892 50.82437 211.86507 48.92896 212.7249 46.72603 213.26105 43.04097 213.79721 39.35593 215.1932 24.26508 215.1932 24.26508"/>
</g>
<use data-text="x" xlink:href="#font_5_1" transform="matrix(9.963496,0,0,-9.963197,263.7492,143.35582)"/>
<use data-text="y" xlink:href="#font_5_2" transform="matrix(9.963496,0,0,-9.963197,128.058,6.2095949)"/>
</svg>
