<svg xmlns="http://www.w3.org/2000/svg" xmlns:xlink="http://www.w3.org/1999/xlink" xmlns:inkscape="http://www.inkscape.org/namespaces/inkscape" version="1.1" width="120" height="239" viewBox="0 0 120 239">
<defs>
<clipPath id="clip_1">
<path transform="matrix(1.00002,0,0,-1.00005,11.627838,227.90373)" d="M0 0H88.38338V206.2279H0Z"/>
</clipPath>
<clipPath id="clip_2">
<path transform="matrix(1.00002,0,0,-1.00005,11.627838,227.90373)" d="M0 0H88.38338V206.2279H0Z"/>
</clipPath>
<path id="font_3_1" d="M.69898989 .22743225C.71499636 .22743225 .7369995 .22743225 .7369995 .25042726 .7369995 .2734375 .71499636 .2734375 .69898989 .2734375H.12599182C.10998535 .2734375 .08799744 .2734375 .08799744 .25042726 .08799744 .22743225 .10998535 .22743225 .12599182 .22743225H.69898989Z"/>
<path id="font_4_3" d="M.28199769 .20405579C.2979889 .21907044 .33999635 .2520752 .35598756 .26608277 .41799928 .32312013 .47698976 .3781433 .47698976 .46917726 .47698976 .588089 .3769989 .66503909 .2519989 .66503909 .13198853 .66503909 .052993776 .57411196 .052993776 .48516847 .052993776 .4361725 .09199524 .4291687 .10598755 .4291687 .1269989 .4291687 .1579895 .4441681 .1579895 .48217774 .1579895 .5341797 .10798645 .5341797 .09599304 .5341797 .125 .6070709 .19198609 .6320343 .24099732 .6320343 .33399964 .6320343 .38198854 .55314639 .38198854 .46917726 .38198854 .36514283 .30899049 .28910829 .19099427 .16804505L.06498718 .037994386C.052993776 .026992798 .052993776 .024993897 .052993776 0H.44799806L.47698976 .17904663H.44599916C.44299317 .1590271 .43499757 .10900879 .4229889 .08999634 .4169922 .08198547 .34098817 .08198547 .32499696 .08198547H.14698792L.28199769 .20405579Z"/>
<path id="font_4_2" d="M.31399537 .63708499C.31399537 .664032 .31199647 .66503909 .2849884 .66503909 .24398804 .6251831 .19099427 .6013489 .09599304 .6013489V.5683594C.12298584 .5683594 .1769867 .5683594 .23498535 .5953522V.08203125C.23498535 .04499817 .23199463 .032989503 .13699341 .032989503H.101989749V0C.14299011 .0029907227 .22898865 .0029907227 .27398683 .0029907227 .31900025 .0029907227 .4059906 .0029907227 .44699098 0V.032989503H.4119873C.31698609 .032989503 .31399537 .04499817 .31399537 .08203125V.63708499Z"/>
<path id="font_4_4" d="M.25299073 .33370973C.33198548 .33370973 .38198854 .27557374 .38198854 .17037964 .38198854 .045440675 .31098939 .008514404 .2579956 .008514404 .20298767 .008514404 .12799073 .0284729 .09298706 .08137512 .1289978 .08137512 .1539917 .10437012 .1539917 .13737488 .1539917 .16937256 .1309967 .19238281 .09899902 .19238281 .07199097 .19238281 .04399109 .17536927 .04399109 .13537598 .04399109 .04045105 .1459961-.021484375 .2599945-.021484375 .3929901-.021484375 .48599244 .070388797 .48599244 .17037964 .48599244 .25352479 .41999818 .32969667 .31799317 .3517456 .39698792 .37982179 .45599366 .4479828 .45599366 .52804568 .45599366 .6080475 .3659973 .66503909 .2619934 .66503909 .15499878 .66503909 .07398987 .6070404 .07398987 .53105166 .07398987 .49404908 .09899902 .4780426 .125 .4780426 .1559906 .4780426 .17599488 .5000458 .17599488 .52905276 .17599488 .56604006 .14399719 .5800476 .12199402 .5810547 .1639862 .6360321 .24099732 .6390381 .25898744 .6390381 .2849884 .6390381 .36099244 .6310272 .36099244 .52804568 .36099244 .45799256 .33198548 .41589356 .31799317 .39985658 .28799439 .36878968 .2649994 .36679078 .20399475 .3627777 .18499756 .36177064 .1769867 .36076356 .1769867 .3477478 .1769867 .33370973 .18598938 .33370973 .20298767 .33370973H.25299073Z"/>
<path id="font_4_5" d="M.3939972 .6468048C.3939972 .6667938 .3939972 .6748047 .37298585 .6748047 .3600006 .6748047 .35899354 .6737976 .34899903 .65979006L.02999878 .197052V.1640625H.31199647V.08100891C.31199647 .04399109 .30899049 .032989503 .23199463 .032989503H.20899964V0C.2939911 .0029907227 .29599 .0029907227 .35299684 .0029907227 .4099884 .0029907227 .4119873 .0029907227 .49699403 0V.032989503H.47399903C.39698792 .032989503 .3939972 .04399109 .3939972 .08100891V.1640625H.5V.197052H.3939972V.6468048M.31900025 .5658417V.197052H.06498718L.31900025 .5658417Z"/>
<path id="font_4_6" d="M.13999939 .5618439C.15299988 .55784609 .19299317 .54785159 .23498535 .54785159 .3600006 .54785159 .43598939 .6358948 .43598939 .6510315 .43598939 .6620331 .42900086 .66503909 .42399598 .66503909 .42199708 .66503909 .41999818 .66503909 .41099549 .6600342 .37199403 .6450348 .32598878 .632843 .27198792 .632843 .21299744 .632843 .1639862 .6480255 .1329956 .6600342 .12298584 .66503909 .12098694 .66503909 .11999512 .66503909 .10699463 .66503909 .10699463 .6540375 .10699463 .6358948V.34292604C.10699463 .32492066 .10699463 .312912 .12298584 .312912 .1309967 .312912 .13398743 .3169098 .13899231 .32492066 .15098572 .33992005 .18899536 .39093019 .27398683 .39093019 .32998658 .39093019 .35699464 .34492494 .3659973 .32591249 .3829956 .28990174 .3849945 .24389649 .3849945 .20487976 .3849945 .1678772 .38398744 .11387634 .35598756 .069732669 .33699037 .039611818 .29699708 .008514404 .24398804 .008514404 .1789856 .008514404 .114990238 .0496521 .09199524 .11488342 .09498596 .11387634 .100997928 .11387634 .101989749 .11387634 .12998963 .11387634 .1519928 .13188172 .1519928 .16288758 .1519928 .19989014 .12298584 .21289063 .102996829 .21289063 .084991458 .21289063 .052993776 .20288086 .052993776 .15988159 .052993776 .069732669 .1309967-.021484375 .24598694-.021484375 .37098695-.021484375 .47698976 .07574463 .47698976 .19989014 .47698976 .31591798 .3929901 .4189453 .2749939 .4189453 .22499085 .4189453 .17799378 .40293885 .13999939 .368927V.5618439Z"/>
<path id="font_4_7" d="M.13798523 .33073426C.13798523 .41377259 .14498902 .4868164 .18099976 .54782107 .21099854 .5978241 .2619934 .6390381 .32499696 .6390381 .34498597 .6390381 .3909912 .63601687 .4139862 .60084536 .36898805 .5988312 .36499024 .5648346 .36499024 .553833 .36499024 .5238342 .3880005 .50683596 .4119873 .50683596 .42999269 .50683596 .45899964 .51782229 .45899964 .5558319 .45899964 .615921 .4139862 .66503909 .32398988 .66503909 .18499756 .66503909 .04399109 .53282168 .04399109 .31672669 .04399109 .045532228 .16999817-.021484375 .2669983-.021484375 .31498719-.021484375 .36698915-.0084991459 .4119873 .03453064 .45199586 .07354736 .48599244 .11558533 .48599244 .20263672 .48599244 .33372499 .3869934 .42578126 .27598573 .42578126 .20399475 .42578126 .16099549 .37976075 .13798523 .33073426M.2669983 .008514404C.21398926 .008514404 .18099976 .045532228 .1659851 .07354736 .14299011 .11859131 .14099121 .18663025 .14099121 .22465515 .14099121 .32373048 .19499207 .3977661 .27198792 .3977661 .32199098 .3977661 .35198976 .37176515 .37098695 .33673097 .3919983 .29971314 .3919983 .25468446 .3919983 .2036438 .3919983 .15260315 .3919983 .10858154 .37199403 .07255554 .34599305 .026519776 .31098939 .008514404 .2669983 .008514404Z"/>
<path id="font_4_8" d="M.5059967 .608551C.5149994 .6195526 .5149994 .6215515 .5149994 .6435547H.26098634C.23599243 .6435547 .20498657 .64456179 .17999268 .64660647 .12799073 .65068057 .1269989 .6597748 .12399292 .67578127H.09298706L.05899048 .46453858H.08999634C.09199524 .47953797 .102996829 .54855349 .116989139 .5565491 .12799073 .56155398 .20298767 .56155398 .21798706 .56155398H.42999269L.32699586 .4235382C.21299744 .27153016 .18899536 .11351013 .18899536 .03451538 .18899536 .024505616 .18899536-.021484375 .23599243-.021484375 .2829895-.021484375 .2829895 .023513794 .2829895 .035507204V.08351135C.2829895 .2275238 .30699159 .34553529 .35598756 .41053773L.5059967 .608551Z"/>
<path id="font_4_9" d="M.33198548 .36080934C.3880005 .38783265 .45599366 .4378662 .45599366 .5159302 .45599366 .6110077 .35899354 .66503909 .2659912 .66503909 .1599884 .66503909 .07398987 .59199526 .07398987 .49790956 .07398987 .46089173 .08699036 .42686463 .11199951 .39782716 .1289978 .3768158 .1329956 .3748169 .19499207 .3357849 .070999149 .2807312 .04399109 .20767212 .04399109 .15162659 .04399109 .041534425 .15499878-.021484375 .2639923-.021484375 .3869934-.021484375 .48599244 .061553956 .48599244 .16764832 .48599244 .23069763 .45199586 .2727356 .43598939 .28974916 .4189911 .30575563 .41799928 .3067627 .33198548 .36080934M.1769867 .45487977C.147995 .4718933 .12399292 .5009155 .12399292 .5359497 .12399292 .598999 .19299317 .6390381 .2639923 .6390381 .34199525 .6390381 .4059906 .5859833 .4059906 .5159302 .4059906 .45788575 .36099244 .408844 .3019867 .37982179L.1769867 .45487977M.22599793 .31776429C.22999573 .31576539 .34399415 .24571228 .36099244 .23469544 .3769989 .22569275 .42900086 .19366455 .42900086 .13360596 .42900086 .056549074 .34799195 .008514404 .2659912 .008514404 .1769867 .008514404 .100997928 .06956482 .100997928 .15162659 .100997928 .22668457 .15699768 .28573609 .22599793 .31776429Z"/>
<path id="font_4_10" d="M.3919983 .29478456C.3919983 .050704957 .27598573 .008514404 .21798706 .008514404 .19699097 .008514404 .14498902 .011520386 .117996219 .04270935 .1619873 .046707155 .16499329 .079711917 .16499329 .08970642 .16499329 .1197052 .14199829 .13671875 .117996219 .13671875 .099990848 .13671875 .070999149 .12571717 .070999149 .08770752 .070999149 .019577027 .1269989-.021484375 .21899414-.021484375 .35598756-.021484375 .48599244 .114715579 .48599244 .3287964 .48599244 .58898928 .37098695 .66503909 .2679901 .66503909 .1499939 .66503909 .04399109 .5729828 .04399109 .44187928 .04399109 .31278993 .14099121 .21875 .2539978 .21875 .32499696 .21875 .36799623 .26374818 .3919983 .31478883V.29478456M.2579956 .24674988C.21199036 .24674988 .18299866 .26776124 .16099549 .30477906 .13798523 .34181214 .13798523 .3898468 .13798523 .44088746 .13798523 .4999237 .13798523 .54196169 .16499329 .58299258 .18998719 .61901858 .22200012 .6390381 .2689972 .6390381 .33599855 .6390381 .36499024 .5729828 .36799623 .5679779 .3889923 .51893618 .3899994 .44088746 .3899994 .42086793 .3899994 .34181214 .34700013 .24674988 .2579956 .24674988Z"/>
<path id="font_4_1" d="M.4889984 .31877137C.4889984 .42585755 .47799684 .49090577 .44499208 .55496218 .40098573 .6430359 .31999208 .66503909 .2649994 .66503909 .13899231 .66503909 .09298706 .5709839 .07899475 .5429535 .042999269 .4698944 .040985109 .3708191 .040985109 .31877137 .040985109 .25271607 .04399109 .15162659 .09199524 .07156372 .13798523-.0024871827 .21199036-.021484375 .2649994-.021484375 .31298829-.021484375 .39898683-.0064849855 .44898988 .09257507 .48599244 .16464234 .4889984 .2537079 .4889984 .31877137M.2649994 .006515503C.23098755 .006515503 .1619873 .022521973 .14099121 .12760926 .12998963 .18466187 .12998963 .2787323 .12998963 .33078004 .12998963 .3998413 .12998963 .4698944 .14099121 .5249481 .1619873 .6270294 .23999024 .6370239 .2649994 .6370239 .29899598 .6370239 .36799623 .62002566 .3880005 .5289459 .3999939 .4738922 .3999939 .39883424 .3999939 .33078004 .3999939 .27172853 .3999939 .18165589 .3880005 .12561035 .36698915 .020523072 .2979889 .006515503 .2649994 .006515503Z"/>
<clipPath id="clip_5">
<path transform="matrix(1.00002,0,0,-1.00005,11.627838,227.90373)" d="M0 0H88.38338V206.2279H0Z"/>
</clipPath>
<path id="font_6_2" d="M.33399964 .30233766C.33999635 .32835389 .36299134 .42037965 .43299867 .42037965 .43798829 .42037965 .46199037 .42037965 .48298646 .40734864 .45498658 .402359 .43499757 .37734986 .43499757 .35334779 .43499757 .33735658 .44599916 .31835938 .47299195 .31835938 .49499513 .31835938 .5269928 .3363495 .5269928 .37635804 .5269928 .42837525 .46798707 .4423828 .43399049 .4423828 .37599183 .4423828 .34098817 .38935853 .32899476 .36634828 .3039856 .43237306 .25 .4423828 .22099304 .4423828 .116989139 .4423828 .05999756 .3133545 .05999756 .28834535 .05999756 .27833558 .069992069 .27833558 .07199097 .27833558 .07998657 .27833558 .08299255 .28033448 .084991458 .28933717 .11898804 .39535523 .18499756 .42037965 .21899414 .42037965 .23799134 .42037965 .272995 .4113617 .272995 .35334779 .272995 .32235719 .2559967 .25532533 .21899414 .11528015 .20298767 .053268434 .16799927 .011245728 .12399292 .011245728 .117996219 .011245728 .09498596 .011245728 .07398987 .024276734 .09899902 .029266358 .12098694 .05027771 .12098694 .07827759 .12098694 .105270389 .09899902 .11328125 .083999637 .11328125 .053985597 .11328125 .0289917 .08728027 .0289917 .055267335 .0289917 .009246826 .07899475-.0107421879 .12298584-.0107421879 .18899536-.0107421879 .22499085 .059280397 .22799683 .0652771 .23999024 .028274537 .27598573-.0107421879 .33599855-.0107421879 .43899537-.0107421879 .49598695 .118270877 .49598695 .14328003 .49598695 .1532898 .4869995 .1532898 .48399354 .1532898 .47499085 .1532898 .47299195 .14929199 .47099305 .14228821 .43798829 .03527832 .36999513 .011245728 .33799745 .011245728 .29899598 .011245728 .2829895 .043273927 .2829895 .07727051 .2829895 .09927368 .2889862 .121276859 .2999878 .16529846L.33399964 .30233766Z"/>
<path id="font_6_3" d="M.48599244 .38136292C.48999024 .39537049 .48999024 .39736939 .48999024 .40437318 .48999024 .42237855 .47599793 .43138124 .46099855 .43138124 .45098878 .43138124 .43499757 .42536927 .42599488 .41036988 .42399598 .405365 .41600038 .37435914 .4119873 .35635377 .40499879 .33035279 .397995 .30334474 .3919983 .27633668L.34700013 .09628296C.34298707 .08126831 .2999878 .011245728 .23399353 .011245728 .18299866 .011245728 .17199707 .055267335 .17199707 .0922699 .17199707 .1382904 .18899536 .20030213 .22299195 .28833009 .23899842 .3293457 .24299622 .3403473 .24299622 .36035157 .24299622 .405365 .21099854 .4423828 .16099549 .4423828 .06599426 .4423828 .0289917 .29733277 .0289917 .28833009 .0289917 .27833558 .038986207 .27833558 .040985109 .27833558 .050994874 .27833558 .051986696 .28033448 .056991579 .29634095 .083999637 .3903656 .12399292 .42037965 .1579895 .42037965 .1659851 .42037965 .18299866 .42037965 .18299866 .3883667 .18299866 .36335755 .17298889 .3373413 .1659851 .31834413 .12599182 .21231079 .10798645 .1552887 .10798645 .10827637 .10798645 .019256592 .17098999-.0107421879 .22999573-.0107421879 .2689972-.0107421879 .30299378 .0062561037 .33099366 .03425598 .31799317-.017745972 .30599977-.06674194 .2659912-.11973572 .23999024-.15385437 .20199585-.18309021 .1559906-.18309021 .14199829-.18309021 .09700012-.18005371 .07998657-.14074707 .09599304-.14074707 .10899353-.14074707 .12298584-.1287384 .1329956-.11973572 .14299011-.10673523 .14299011-.08773804 .14299011-.056747438 .115997318-.052734376 .10598755-.052734376 .08299255-.052734376 .049987794-.068740848 .049987794-.11773682 .049987794-.16796875 .09399414-.20507813 .1559906-.20507813 .25898744-.20507813 .3619995-.11373901 .3899994-.00074768069L.48599244 .38136292Z"/>
<path id="font_6_1" d="M.30299378 .3244629H.3999939C.47499085 .3244629 .48298646 .30848695 .48298646 .27954103 .48298646 .2725525 .48298646 .26057435 .47599793 .2306366 .47399903 .22564698 .47299195 .22164917 .47299195 .21965027 .47299195 .21166992 .47898866 .20767212 .4850006 .20767212 .49499513 .20767212 .49499513 .21066284 .5 .2286377L.5549927 .44551087C.55799868 .45651246 .55799868 .45851136 .55799868 .46151734 .55799868 .46351625 .55599978 .47251893 .54599 .47251893 .5359955 .47251893 .5349884 .46751405 .5309906 .45150758 .5099945 .37347413 .4869995 .35546876 .4019928 .35546876H.31098939L.375 .6095886C.38398744 .64460757 .3849945 .64860537 .42900086 .64860537H.5609894C.6839905 .64860537 .70700076 .6156006 .70700076 .53855898 .70700076 .5155487 .70700076 .51153567 .70399478 .4845276 .70199587 .4715271 .70199587 .46951295 .70199587 .46652223 .70199587 .46151734 .7049866 .45451356 .71398928 .45451356 .72499087 .45451356 .7259979 .46051026 .7279968 .4795227L.7480011 .65260317C.7509918 .6796112 .74598696 .6796112 .72099307 .6796112H.23098755C.21099854 .6796112 .20098877 .6796112 .20098877 .65960696 .20098877 .64860537 .20999146 .64860537 .22898865 .64860537 .2659912 .64860537 .2939911 .64860537 .2939911 .6306 .2939911 .6266022 .2939911 .6246033 .2889862 .60658267L.15699768 .07791138C.14698792 .038970949 .14498902 .0309906 .06599426 .0309906 .04899597 .0309906 .037994386 .0309906 .037994386 .011993408 .037994386 0 .049987794 0 .052993776 0 .08198547 0 .1559906 .0029907227 .18499756 .0029907227 .21798706 .0029907227 .30099488 0 .33399964 0 .34298707 0 .35499574 0 .35499574 .018997193 .35499574 .026992798 .34899903 .0289917 .34899903 .02999878 .34599305 .0309906 .34399415 .0309906 .32099916 .0309906 .29899598 .0309906 .2939911 .0309906 .2689972 .032989503 .23999024 .035980226 .23699951 .039978029 .23699951 .052947999 .23699951 .0549469 .23699951 .060943605 .24099732 .075912479L.30299378 .3244629Z"/>
<path id="font_7_1" d="M.33099366-.2400055C.33099366-.23701477 .33099366-.23500061 .31399537-.21800232 .18899536-.0920105 .15699768 .09700012 .15699768 .25 .15699768 .42399598 .19499207 .59799197 .31799317 .72299197 .33099366 .73498538 .33099366 .7369995 .33099366 .73999026 .33099366 .746994 .32699586 .75 .32099916 .75 .31098939 .75 .22099304 .6819916 .1619873 .5549927 .11099243 .44499208 .09899902 .33399964 .09899902 .25 .09899902 .17199707 .10998535 .050994874 .16499329-.06201172 .22499085-.18501282 .31098939-.25 .32099916-.25 .32699586-.25 .33099366-.24700928 .33099366-.2400055Z"/>
<path id="font_7_2" d="M.2889862 .25C.2889862 .32798768 .27799989 .44898988 .22299195 .56199648 .16299439 .68499758 .07699585 .75 .066986087 .75 .06098938 .75 .056991579 .74598696 .056991579 .73999026 .056991579 .7369995 .056991579 .73498538 .07598877 .71699526 .17399597 .6179962 .23098755 .45899964 .23098755 .25 .23098755 .07899475 .19400025-.09700012 .069992069-.2230072 .056991579-.23500061 .056991579-.23701477 .056991579-.2400055 .056991579-.2460022 .06098938-.25 .066986087-.25 .07699585-.25 .16699219-.18200684 .22599793-.055007936 .2769928 .054992677 .2889862 .16600037 .2889862 .25Z"/>
</defs>
<path transform="matrix(1.00002,0,0,-1.00005,11.627838,227.90373)" stroke-width=".09962" stroke-linecap="butt" stroke-miterlimit="10" stroke-linejoin="miter" fill="none" stroke="#d9d9d9" d="M7.36528 0V206.2279M22.09584 0V206.2279M36.8264 0V206.2279M51.55698 0V206.2279M66.28754 0V206.2279M81.0181 0V206.2279"/>
<path transform="matrix(1.00002,0,0,-1.00005,11.627838,227.90373)" stroke-width=".19925" stroke-linecap="butt" stroke-miterlimit="10" stroke-linejoin="miter" fill="none" stroke="#b2b3b2" d="M0 0V206.2279M14.73056 0V206.2279M44.19168 0V206.2279M58.92226 0V206.2279M73.65282 0V206.2279M88.38338 0V206.2279"/>
<path transform="matrix(1.00002,0,0,-1.00005,11.627838,227.90373)" stroke-width=".09962" stroke-linecap="butt" stroke-miterlimit="10" stroke-linejoin="miter" fill="none" stroke="#d9d9d9" d="M0 7.36528H88.38338M0 22.09584H88.38338M0 36.8264H88.38338M0 51.55698H88.38338M0 66.28754H88.38338M0 81.0181H88.38338M0 95.74867H88.38338M0 110.47923H88.38338M0 125.2098H88.38338M0 139.94036H88.38338M0 154.67093H88.38338M0 169.40149H88.38338M0 184.13205H88.38338M0 198.86263H88.38338"/>
<path transform="matrix(1.00002,0,0,-1.00005,11.627838,227.90373)" stroke-width=".19925" stroke-linecap="butt" stroke-miterlimit="10" stroke-linejoin="miter" fill="none" stroke="#b2b3b2" d="M0 0H88.38338M0 14.73056H88.38338M0 29.46112H88.38338M0 44.19168H88.38338M0 73.65282H88.38338M0 88.38338H88.38338M0 103.11395H88.38338M0 117.84451H88.38338M0 132.57508H88.38338M0 147.30565H88.38338M0 162.03621H88.38338M0 176.76677H88.38338M0 191.49735H88.38338M0 206.2279H88.38338"/>
<path transform="matrix(1.00002,0,0,-1.00005,11.627838,227.90373)" stroke-width=".19925" stroke-linecap="butt" stroke-miterlimit="10" stroke-linejoin="miter" fill="none" stroke="#7f807f" d="M7.36528 57.5046V60.33992M22.09584 57.5046V60.33992M36.8264 57.5046V60.33992M51.55698 57.5046V60.33992M66.28754 57.5046V60.33992M81.0181 57.5046V60.33992"/>
<path transform="matrix(1.00002,0,0,-1.00005,11.627838,227.90373)" stroke-width=".19925" stroke-linecap="butt" stroke-miterlimit="10" stroke-linejoin="miter" fill="none" stroke="#7f807f" d="M0 56.79596V61.04852M14.73056 56.79596V61.04852M44.19168 56.79596V61.04852M58.92226 56.79596V61.04852M73.65282 56.79596V61.04852M88.38338 56.79596V61.04852"/>
<path transform="matrix(1.00002,0,0,-1.00005,11.627838,227.90373)" stroke-width=".19925" stroke-linecap="butt" stroke-miterlimit="10" stroke-linejoin="miter" fill="none" stroke="#7f807f" d="M28.04346 7.36528H30.87878M28.04346 22.09584H30.87878M28.04346 36.8264H30.87878M28.04346 51.55698H30.87878M28.04346 66.28754H30.87878M28.04346 81.0181H30.87878M28.04346 95.74867H30.87878M28.04346 110.47923H30.87878M28.04346 125.2098H30.87878M28.04346 139.94036H30.87878M28.04346 154.67093H30.87878M28.04346 169.40149H30.87878M28.04346 184.13205H30.87878M28.04346 198.86263H30.87878"/>
<path transform="matrix(1.00002,0,0,-1.00005,11.627838,227.90373)" stroke-width=".19925" stroke-linecap="butt" stroke-miterlimit="10" stroke-linejoin="miter" fill="none" stroke="#7f807f" d="M27.33484 0H31.58739M27.33484 14.73056H31.58739M27.33484 29.46112H31.58739M27.33484 44.19168H31.58739M27.33484 73.65282H31.58739M27.33484 88.38338H31.58739M27.33484 103.11395H31.58739M27.33484 117.84451H31.58739M27.33484 132.57508H31.58739M27.33484 147.30565H31.58739M27.33484 162.03621H31.58739M27.33484 176.76677H31.58739M27.33484 191.49735H31.58739M27.33484 206.2279H31.58739"/>
<path transform="matrix(1.00002,0,0,-1.00005,11.627838,227.90373)" stroke-width=".3985" stroke-linecap="butt" stroke-miterlimit="10" stroke-linejoin="miter" fill="none" stroke="#000000" d="M-6.37622 58.92226H94.75961"/>
<path transform="matrix(-1.00002,-0,0,1.00005,5.25149,168.97853)" d="M3.58653 0C2.52383 .19925 .797 .797-.3985 1.49438V-1.49438C.797-.797 2.52383-.19925 3.58653 0"/>
<path transform="matrix(1.00002,0,0,-1.00005,106.38935,168.97853)" d="M3.58653 0C2.52383 .19925 .797 .797-.3985 1.49438V-1.49438C.797-.797 2.52383-.19925 3.58653 0"/>
<path transform="matrix(1.00002,0,0,-1.00005,11.627838,227.90373)" stroke-width=".3985" stroke-linecap="butt" stroke-miterlimit="10" stroke-linejoin="miter" fill="none" stroke="#000000" d="M29.46112-6.37622V212.60413"/>
<path transform="matrix(0,1.00005,1.00002,0,41.089548,234.28028)" d="M3.58653 0C2.52383 .19925 .797 .797-.3985 1.49438V-1.49438C.797-.797 2.52383-.19925 3.58653 0"/>
<path transform="matrix(0,-1.00005,-1.00002,-0,41.089548,15.288986)" d="M3.58653 0C2.52383 .19925 .797 .797-.3985 1.49438V-1.49438C.797-.797 2.52383-.19925 3.58653 0"/>
<g clip-path="url(#clip_1)">
<path transform="matrix(1.00002,0,0,-1.00005,11.627838,227.90373)" d="M14.73051 14.74059C14.89165 15.21391 15.05284 15.6974 15.17667 16.06883 15.4244 16.81203 15.82166 18.00385 16.06938 18.74704 16.31711 19.49023 16.71442 20.6821 16.96214 21.4253 17.20988 22.16849 17.60715 23.36034 17.85489 24.10353 18.10262 24.84673 18.49991 26.03856 18.74763 26.78175 18.99536 27.52495 19.39264 28.7168 19.64037 29.45999 19.8881 30.20319 20.28539 31.39502 20.53313 32.13821 20.78085 32.88141 21.17813 34.07327 21.42586 34.81647 21.67358 35.55966 22.07088 36.7515 22.3186 37.49469 22.56635 38.23788 22.96361 39.42973 23.21135 40.17293 23.45908 40.91612 23.85637 42.10796 24.1041 42.85115 24.35182 43.59435 24.7491 44.7862 24.99683 45.52939 25.24457 46.27258 25.64186 47.46445 25.88959 48.20764 26.13731 48.95084 26.53459 50.14267 26.78232 50.88586 27.03006 51.62906 27.42734 52.8209 27.67508 53.5641 27.9228 54.3073 28.32008 55.49913 28.56781 56.24232 28.81554 56.98552 29.21283 58.17737 29.46056 58.92056 29.46072 58.9211 29.46089 58.92163 29.46106 58.92216L29.46112 58.92226H14.73056Z" fill="#ff0000" fill-opacity=".4"/>
</g>
<g clip-path="url(#clip_2)">
<path transform="matrix(1.00002,0,0,-1.00005,11.627838,227.90373)" d="M29.46106 58.93628C29.70883 59.66548 30.10573 60.85612 30.3533 61.59879 30.60103 62.34198 30.99832 63.53383 31.24605 64.27702 31.49377 65.02022 31.89105 66.21205 32.13878 66.95525 32.38652 67.69844 32.7838 68.89029 33.03154 69.63348 33.27927 70.37668 33.67654 71.56853 33.92427 72.31172 34.172 73.0549 34.56929 74.24678 34.81702 74.98997 35.06476 75.73317 35.46202 76.92502 35.70976 77.66821 35.95749 78.4114 36.35478 79.60324 36.60251 80.34644 36.85023 81.08963 37.24751 82.28148 37.49524 83.02467 37.74298 83.76787 38.14026 84.9597 38.388 85.7029 38.63573 86.44609 39.033 87.63794 39.28073 88.38113 39.52847 89.12433 39.92575 90.31616 40.1735 91.05936 40.42122 91.80255 40.8185 92.9944 41.06622 93.7376 41.31395 94.48079 41.71124 95.67262 41.95897 96.41582 42.20671 97.15901 42.60397 98.35086 42.85172 99.09406 43.09944 99.83725 43.49675 101.02908 43.74448 101.77228 43.9922 102.51547 44.38948 103.70729 44.63719 104.45049 44.88492 105.19368 45.28221 106.38551 45.52995 107.12872 45.77768 107.87193 46.17499 109.06383 46.42271 109.80702 46.67044 110.55022 47.06772 111.74207 47.31544 112.48526 47.56319 113.22845 47.96046 114.4203 48.2082 115.1635 48.45593 115.9067 48.85321 117.09853 49.10094 117.84172 49.34866 118.58492 49.74596 119.77676 49.99368 120.51996 50.24142 121.26315 50.63869 122.45499 50.88643 123.19818 51.13416 123.94138 51.53145 125.13322 51.77917 125.87642 52.0269 126.61961 52.42418 127.81145 52.67192 128.55464 52.91965 129.29784 53.31694 130.48969 53.56467 131.23288 53.8124 131.97608 54.20967 133.16791 54.4574 133.9111 54.70514 134.6543 55.10242 135.84615 55.35016 136.58934 55.59789 137.33254 55.99516 138.52437 56.24289 139.26757 56.49062 140.01076 56.88791 141.2026 57.13564 141.9458 57.38338 142.689 57.78064 143.88083 58.02838 144.62403 58.27611 145.36722 58.6734 146.55907 58.92113 147.30226 59.16885 148.04546 59.56613 149.2373 59.81386 149.98049 60.0616 150.72368 60.45888 151.91555 60.70662 152.65874 60.95435 153.40193 61.35162 154.59377 61.59935 155.33696 61.84708 156.08016 62.24437 157.272 62.4921 158.0152 62.73984 158.75839 63.1371 159.95023 63.38484 160.69342 63.63257 161.43662 64.02986 162.62847 64.27759 163.37166 64.52531 164.11486 64.92259 165.30669 65.17033 166.04988 65.41806 166.79308 65.81535 167.98493 66.06308 168.72812 66.3108 169.47132 66.70808 170.66315 66.95581 171.40634 67.20355 172.14954 67.60083 173.34139 67.84857 174.08458 68.0963 174.82778 68.49358 176.0196 68.7413 176.7628 68.98903 177.506 69.38632 178.69785 69.63405 179.44104 69.88179 180.18424 70.27905 181.37607 70.5268 182.11927 70.77452 182.86246 71.17181 184.0543 71.41954 184.7975 71.66727 185.5407 72.06454 186.73253 72.31227 187.47573 72.56001 188.21892 72.95729 189.41078 73.20503 190.15398 73.32918 190.52645 73.4909 191.01165 73.65254 191.49658L73.6519 58.92226H29.46112Z" fill="#0000ff" fill-opacity=".4"/>
</g>
<use data-text="&#x2212;" xlink:href="#font_3_1" transform="matrix(7.9702599,0,0,-7.970498,6.2177278,179.76132)"/>
<use data-text="2" xlink:href="#font_4_3" transform="matrix(7.9702599,0,0,-7.970498,12.803856,179.76132)"/>
<use data-text="&#x2212;" xlink:href="#font_3_1" transform="matrix(7.9702599,0,0,-7.970498,20.948029,179.76132)"/>
<use data-text="1" xlink:href="#font_4_2" transform="matrix(7.9702599,0,0,-7.970498,27.534157,179.76132)"/>
<use data-text="1" xlink:href="#font_4_2" transform="matrix(7.9702599,0,0,-7.970498,53.703683,179.76132)"/>
<use data-text="2" xlink:href="#font_4_3" transform="matrix(7.9702599,0,0,-7.970498,68.433979,179.76132)"/>
<use data-text="3" xlink:href="#font_4_4" transform="matrix(7.9702599,0,0,-7.970498,83.165279,179.76132)"/>
<use data-text="4" xlink:href="#font_4_5" transform="matrix(7.9702599,0,0,-7.970498,97.89556,179.76132)"/>
<use data-text="&#x2212;" xlink:href="#font_3_1" transform="matrix(7.9702599,0,0,-7.970498,24.6221,230.05684)"/>
<use data-text="4" xlink:href="#font_4_5" transform="matrix(7.9702599,0,0,-7.970498,31.20823,230.05684)"/>
<use data-text="&#x2212;" xlink:href="#font_3_1" transform="matrix(7.9702599,0,0,-7.970498,24.6221,215.3251)"/>
<use data-text="3" xlink:href="#font_4_4" transform="matrix(7.9702599,0,0,-7.970498,31.20823,215.3251)"/>
<use data-text="&#x2212;" xlink:href="#font_3_1" transform="matrix(7.9702599,0,0,-7.970498,24.6221,200.59436)"/>
<use data-text="2" xlink:href="#font_4_3" transform="matrix(7.9702599,0,0,-7.970498,31.20823,200.59436)"/>
<use data-text="&#x2212;" xlink:href="#font_3_1" transform="matrix(7.9702599,0,0,-7.970498,24.6221,185.86264)"/>
<use data-text="1" xlink:href="#font_4_2" transform="matrix(7.9702599,0,0,-7.970498,31.20823,185.86264)"/>
<use data-text="1" xlink:href="#font_4_2" transform="matrix(7.9702599,0,0,-7.970498,31.209229,156.81519)"/>
<use data-text="2" xlink:href="#font_4_3" transform="matrix(7.9702599,0,0,-7.970498,31.209229,142.08444)"/>
<use data-text="3" xlink:href="#font_4_4" transform="matrix(7.9702599,0,0,-7.970498,31.209229,127.352718)"/>
<use data-text="4" xlink:href="#font_4_5" transform="matrix(7.9702599,0,0,-7.970498,31.209229,112.62197)"/>
<use data-text="5" xlink:href="#font_4_6" transform="matrix(7.9702599,0,0,-7.970498,31.209229,97.89023)"/>
<use data-text="6" xlink:href="#font_4_7" transform="matrix(7.9702599,0,0,-7.970498,31.209229,83.1595)"/>
<use data-text="7" xlink:href="#font_4_8" transform="matrix(7.9702599,0,0,-7.970498,31.209229,68.427768)"/>
<use data-text="8" xlink:href="#font_4_9" transform="matrix(7.9702599,0,0,-7.970498,31.209229,53.69603)"/>
<use data-text="9" xlink:href="#font_4_10" transform="matrix(7.9702599,0,0,-7.970498,31.209229,38.9653)"/>
<use data-text="1" xlink:href="#font_4_2" transform="matrix(7.9702599,0,0,-7.970498,26.975144,24.233551)"/>
<use data-text="0" xlink:href="#font_4_1" transform="matrix(7.9702599,0,0,-7.970498,31.207352,24.233551)"/>
<g clip-path="url(#clip_5)">
<path transform="matrix(1.00002,0,0,-1.00005,11.627838,227.90373)" stroke-width=".99628" stroke-linecap="butt" stroke-miterlimit="10" stroke-linejoin="miter" fill="none" stroke="#000000" d="M0-29.46112C0-29.46112 .645-27.5261 .89273-26.7829 1.14046-26.0397 1.53775-24.84785 1.78548-24.10466 2.03322-23.36147 2.43048-22.16963 2.67822-21.42644 2.92595-20.68324 3.32324-19.4914 3.57097-18.7482 3.8187-18.005 4.21597-16.81317 4.4637-16.06998 4.71144-15.32678 5.10872-14.13493 5.35646-13.39174 5.60419-12.64854 6.00146-11.45671 6.24919-10.71352 6.49692-9.97032 6.89421-8.77847 7.14194-8.03528 7.38968-7.29208 7.78694-6.10023 8.03468-5.35704 8.28241-4.61386 8.6797-3.422 8.92743-2.6788 9.17516-1.93561 9.57243-.74377 9.82016-.00058 10.0679 .7426 10.46518 1.93445 10.71292 2.67764 10.96065 3.42084 11.35793 4.61267 11.60565 5.35587 11.85338 6.09906 12.25067 7.29091 12.4984 8.0341 12.74614 8.7773 13.14342 9.96913 13.39114 10.71233 13.63887 11.45552 14.03616 12.64737 14.28389 13.39056 14.53163 14.13376 14.92892 15.32564 15.17667 16.06883 15.4244 16.81203 15.82166 18.00385 16.06938 18.74704 16.31711 19.49023 16.71442 20.6821 16.96214 21.4253 17.20988 22.16849 17.60715 23.36034 17.85489 24.10353 18.10262 24.84673 18.49991 26.03856 18.74763 26.78175 18.99536 27.52495 19.39264 28.7168 19.64037 29.45999 19.8881 30.20319 20.28539 31.39502 20.53313 32.13821 20.78085 32.88141 21.17813 34.07327 21.42586 34.81647 21.67358 35.55966 22.07088 36.7515 22.3186 37.49469 22.56635 38.23788 22.96361 39.42973 23.21135 40.17293 23.45908 40.91612 23.85637 42.10796 24.1041 42.85115 24.35182 43.59435 24.7491 44.7862 24.99683 45.52939 25.24457 46.27258 25.64186 47.46445 25.88959 48.20764 26.13731 48.95084 26.53459 50.14267 26.78232 50.88586 27.03006 51.62906 27.42734 52.8209 27.67508 53.5641 27.9228 54.3073 28.32008 55.49913 28.56781 56.24232 28.81554 56.98552 29.21283 58.17737 29.46056 58.92056 29.7083 59.66376 30.10556 60.85559 30.3533 61.59879 30.60103 62.34198 30.99832 63.53383 31.24605 64.27702 31.49377 65.02022 31.89105 66.21205 32.13878 66.95525 32.38652 67.69844 32.7838 68.89029 33.03154 69.63348 33.27927 70.37668 33.67654 71.56853 33.92427 72.31172 34.172 73.0549 34.56929 74.24678 34.81702 74.98997 35.06476 75.73317 35.46202 76.92502 35.70976 77.66821 35.95749 78.4114 36.35478 79.60324 36.60251 80.34644 36.85023 81.08963 37.24751 82.28148 37.49524 83.02467 37.74298 83.76787 38.14026 84.9597 38.388 85.7029 38.63573 86.44609 39.033 87.63794 39.28073 88.38113 39.52847 89.12433 39.92575 90.31616 40.1735 91.05936 40.42122 91.80255 40.8185 92.9944 41.06622 93.7376 41.31395 94.48079 41.71124 95.67262 41.95897 96.41582 42.20671 97.15901 42.60397 98.35086 42.85172 99.09406 43.09944 99.83725 43.49675 101.02908 43.74448 101.77228 43.9922 102.51547 44.38948 103.70729 44.63719 104.45049 44.88492 105.19368 45.28221 106.38551 45.52995 107.12872 45.77768 107.87193 46.17499 109.06383 46.42271 109.80702 46.67044 110.55022 47.06772 111.74207 47.31544 112.48526 47.56319 113.22845 47.96046 114.4203 48.2082 115.1635 48.45593 115.9067 48.85321 117.09853 49.10094 117.84172 49.34866 118.58492 49.74596 119.77676 49.99368 120.51996 50.24142 121.26315 50.63869 122.45499 50.88643 123.19818 51.13416 123.94138 51.53145 125.13322 51.77917 125.87642 52.0269 126.61961 52.42418 127.81145 52.67192 128.55464 52.91965 129.29784 53.31694 130.48969 53.56467 131.23288 53.8124 131.97608 54.20967 133.16791 54.4574 133.9111 54.70514 134.6543 55.10242 135.84615 55.35016 136.58934 55.59789 137.33254 55.99516 138.52437 56.24289 139.26757 56.49062 140.01076 56.88791 141.2026 57.13564 141.9458 57.38338 142.689 57.78064 143.88083 58.02838 144.62403 58.27611 145.36722 58.6734 146.55907 58.92113 147.30226 59.16885 148.04546 59.56613 149.2373 59.81386 149.98049 60.0616 150.72368 60.45888 151.91555 60.70662 152.65874 60.95435 153.40193 61.35162 154.59377 61.59935 155.33696 61.84708 156.08016 62.24437 157.272 62.4921 158.0152 62.73984 158.75839 63.1371 159.95023 63.38484 160.69342 63.63257 161.43662 64.02986 162.62847 64.27759 163.37166 64.52531 164.11486 64.92259 165.30669 65.17033 166.04988 65.41806 166.79308 65.81535 167.98493 66.06308 168.72812 66.3108 169.47132 66.70808 170.66315 66.95581 171.40634 67.20355 172.14954 67.60083 173.34139 67.84857 174.08458 68.0963 174.82778 68.49358 176.0196 68.7413 176.7628 68.98903 177.506 69.38632 178.69785 69.63405 179.44104 69.88179 180.18424 70.27905 181.37607 70.5268 182.11927 70.77452 182.86246 71.17181 184.0543 71.41954 184.7975 71.66727 185.5407 72.06454 186.73253 72.31227 187.47573 72.56001 188.21892 72.95729 189.41078 73.20503 190.15398 73.45276 190.89717 73.85004 192.089 74.09776 192.8322 74.34549 193.5754 74.74278 194.76723 74.99051 195.51044 75.23825 196.25365 75.63554 197.44554 75.88329 198.18874 76.13101 198.93193 76.52829 200.12377 76.77602 200.86696 77.02374 201.61016 77.42104 202.802 77.66876 203.5452 77.9165 204.28839 78.31378 205.48023 78.56151 206.22342 78.80923 206.96662 79.20653 208.15847 79.45425 208.90166 79.702 209.64485 80.09926 210.83669 80.347 211.57988 80.59473 212.32308 80.99202 213.51493 81.23975 214.25812 81.48747 215.00131 81.88475 216.19315 82.13248 216.93634 82.38022 217.67954 82.7775 218.87139 83.02524 219.61458 83.27296 220.35778 83.67024 221.5496 83.91797 222.2928 84.1657 223.036 84.56299 224.22785 84.81071 224.97104 85.05846 225.71424 85.45572 226.90608 85.70346 227.64926 85.95119 228.39246 86.34848 229.58432 86.5962 230.32752 86.84393 231.07071 87.24121 232.26255 87.48894 233.00574 87.73668 233.74893 88.3817 235.68398 88.3817 235.68398"/>
</g>
<use data-text="x" xlink:href="#font_6_2" transform="matrix(9.962799,0,0,-9.963098,113.50887,171.1119)"/>
<use data-text="y" xlink:href="#font_6_3" transform="matrix(9.962799,0,0,-9.963098,38.472375,6.205658)"/>
<path transform="matrix(1.00002,0,0,-1.00005,11.627838,227.90373)" d="M36.33224 6.38583H85.532718V23.32248H36.33224Z" fill="#ffffff"/>
<path transform="matrix(1.00002,0,0,-1.00005,11.627838,227.90373)" stroke-width=".3985" stroke-linecap="butt" stroke-miterlimit="10" stroke-linejoin="miter" fill="none" stroke="#000000" d="M36.33224 6.38583H85.532718V23.32248H36.33224Z"/>
<path transform="matrix(1.00002,0,0,-1.00005,51.44763,213.049)" stroke-width=".99628" stroke-linecap="butt" stroke-miterlimit="10" stroke-linejoin="miter" fill="none" stroke="#000000" d="M0 0C0 0 6.14426 0 8.50412 0 10.86398 0 17.00826 0 17.00826 0"/>
<use data-text="F" xlink:href="#font_6_1" transform="matrix(9.962799,0,0,-9.963098,70.94702,216.03815)"/>
<use data-text="(" xlink:href="#font_7_1" transform="matrix(9.962799,0,0,-9.963098,78.73718,216.03815)"/>
<use data-text="x" xlink:href="#font_6_2" transform="matrix(9.962799,0,0,-9.963098,82.61125,216.03815)"/>
<use data-text=")" xlink:href="#font_7_2" transform="matrix(9.962799,0,0,-9.963098,88.305377,216.03815)"/>
</svg>
