<svg xmlns="http://www.w3.org/2000/svg" xmlns:xlink="http://www.w3.org/1999/xlink" xmlns:inkscape="http://www.inkscape.org/namespaces/inkscape" version="1.1" width="269" height="184" viewBox="0 0 269 184">
<defs>
<path id="font_1_1" d="M.69898989 .22743225C.71499636 .22743225 .7369995 .22743225 .7369995 .25042726 .7369995 .2734375 .71499636 .2734375 .69898989 .2734375H.12599182C.10998535 .2734375 .08799744 .2734375 .08799744 .25042726 .08799744 .22743225 .10998535 .22743225 .12599182 .22743225H.69898989Z"/>
<path id="font_2_4" d="M.3939972 .6468048C.3939972 .6667938 .3939972 .6748047 .37298585 .6748047 .3600006 .6748047 .35899354 .6737976 .34899903 .65979006L.02999878 .197052V.1640625H.31199647V.08100891C.31199647 .04399109 .30899049 .032989503 .23199463 .032989503H.20899964V0C.2939911 .0029907227 .29599 .0029907227 .35299684 .0029907227 .4099884 .0029907227 .4119873 .0029907227 .49699403 0V.032989503H.47399903C.39698792 .032989503 .3939972 .04399109 .3939972 .08100891V.1640625H.5V.197052H.3939972V.6468048M.31900025 .5658417V.197052H.06498718L.31900025 .5658417Z"/>
<path id="font_2_3" d="M.25299073 .33370973C.33198548 .33370973 .38198854 .27557374 .38198854 .17037964 .38198854 .045440675 .31098939 .008514404 .2579956 .008514404 .20298767 .008514404 .12799073 .0284729 .09298706 .08137512 .1289978 .08137512 .1539917 .10437012 .1539917 .13737488 .1539917 .16937256 .1309967 .19238281 .09899902 .19238281 .07199097 .19238281 .04399109 .17536927 .04399109 .13537598 .04399109 .04045105 .1459961-.021484375 .2599945-.021484375 .3929901-.021484375 .48599244 .070388797 .48599244 .17037964 .48599244 .25352479 .41999818 .32969667 .31799317 .3517456 .39698792 .37982179 .45599366 .4479828 .45599366 .52804568 .45599366 .6080475 .3659973 .66503909 .2619934 .66503909 .15499878 .66503909 .07398987 .6070404 .07398987 .53105166 .07398987 .49404908 .09899902 .4780426 .125 .4780426 .1559906 .4780426 .17599488 .5000458 .17599488 .52905276 .17599488 .56604006 .14399719 .5800476 .12199402 .5810547 .1639862 .6360321 .24099732 .6390381 .25898744 .6390381 .2849884 .6390381 .36099244 .6310272 .36099244 .52804568 .36099244 .45799256 .33198548 .41589356 .31799317 .39985658 .28799439 .36878968 .2649994 .36679078 .20399475 .3627777 .18499756 .36177064 .1769867 .36076356 .1769867 .3477478 .1769867 .33370973 .18598938 .33370973 .20298767 .33370973H.25299073Z"/>
<path id="font_2_2" d="M.28199769 .20405579C.2979889 .21907044 .33999635 .2520752 .35598756 .26608277 .41799928 .32312013 .47698976 .3781433 .47698976 .46917726 .47698976 .588089 .3769989 .66503909 .2519989 .66503909 .13198853 .66503909 .052993776 .57411196 .052993776 .48516847 .052993776 .4361725 .09199524 .4291687 .10598755 .4291687 .1269989 .4291687 .1579895 .4441681 .1579895 .48217774 .1579895 .5341797 .10798645 .5341797 .09599304 .5341797 .125 .6070709 .19198609 .6320343 .24099732 .6320343 .33399964 .6320343 .38198854 .55314639 .38198854 .46917726 .38198854 .36514283 .30899049 .28910829 .19099427 .16804505L.06498718 .037994386C.052993776 .026992798 .052993776 .024993897 .052993776 0H.44799806L.47698976 .17904663H.44599916C.44299317 .1590271 .43499757 .10900879 .4229889 .08999634 .4169922 .08198547 .34098817 .08198547 .32499696 .08198547H.14698792L.28199769 .20405579Z"/>
<path id="font_2_1" d="M.31399537 .63708499C.31399537 .664032 .31199647 .66503909 .2849884 .66503909 .24398804 .6251831 .19099427 .6013489 .09599304 .6013489V.5683594C.12298584 .5683594 .1769867 .5683594 .23498535 .5953522V.08203125C.23498535 .04499817 .23199463 .032989503 .13699341 .032989503H.101989749V0C.14299011 .0029907227 .22898865 .0029907227 .27398683 .0029907227 .31900025 .0029907227 .4059906 .0029907227 .44699098 0V.032989503H.4119873C.31698609 .032989503 .31399537 .04499817 .31399537 .08203125V.63708499Z"/>
<clipPath id="clip_3">
<path transform="matrix(1.00002,0,0,-1.00002,11.626839,141.20355)" d="M0 0H239.10279V119.55139H0Z"/>
</clipPath>
<path id="font_4_3" d="M.20599365 .3996582H.2999878C.31999208 .3996582 .32998658 .3996582 .32998658 .41966249 .32998658 .43066407 .31999208 .43066407 .3019867 .43066407H.21398926C.25 .5724945 .25498963 .59246829 .25498963 .59846499 .25498963 .61546328 .24299622 .62545779 .22599793 .62545779 .22299195 .62545779 .19499207 .62446597 .18598938 .58947756L.14698792 .43066407H.052993776C.032989503 .43066407 .022994996 .43066407 .022994996 .4116516 .022994996 .3996582 .0309906 .3996582 .050994874 .3996582H.13899231C.066986087 .11608887 .06298828 .099121097 .06298828 .08114624 .06298828 .02722168 .100997928-.0107421879 .15499878-.0107421879 .25698854-.0107421879 .31399537 .13505554 .31399537 .14305115 .31399537 .1530304 .30599977 .1530304 .3019867 .1530304 .29299928 .1530304 .2919922 .15003968 .2869873 .13905335 .24398804 .035217287 .19099427 .011245728 .15699768 .011245728 .13598633 .011245728 .12599182 .024230957 .12599182 .057174684 .12599182 .08114624 .12799073 .088134769 .13198853 .10510254L.20599365 .3996582Z"/>
<path id="font_4_4" d="M.48599244 .38136292C.48999024 .39537049 .48999024 .39736939 .48999024 .40437318 .48999024 .42237855 .47599793 .43138124 .46099855 .43138124 .45098878 .43138124 .43499757 .42536927 .42599488 .41036988 .42399598 .405365 .41600038 .37435914 .4119873 .35635377 .40499879 .33035279 .397995 .30334474 .3919983 .27633668L.34700013 .09628296C.34298707 .08126831 .2999878 .011245728 .23399353 .011245728 .18299866 .011245728 .17199707 .055267335 .17199707 .0922699 .17199707 .1382904 .18899536 .20030213 .22299195 .28833009 .23899842 .3293457 .24299622 .3403473 .24299622 .36035157 .24299622 .405365 .21099854 .4423828 .16099549 .4423828 .06599426 .4423828 .0289917 .29733277 .0289917 .28833009 .0289917 .27833558 .038986207 .27833558 .040985109 .27833558 .050994874 .27833558 .051986696 .28033448 .056991579 .29634095 .083999637 .3903656 .12399292 .42037965 .1579895 .42037965 .1659851 .42037965 .18299866 .42037965 .18299866 .3883667 .18299866 .36335755 .17298889 .3373413 .1659851 .31834413 .12599182 .21231079 .10798645 .1552887 .10798645 .10827637 .10798645 .019256592 .17098999-.0107421879 .22999573-.0107421879 .2689972-.0107421879 .30299378 .0062561037 .33099366 .03425598 .31799317-.017745972 .30599977-.06674194 .2659912-.11973572 .23999024-.15385437 .20199585-.18309021 .1559906-.18309021 .14199829-.18309021 .09700012-.18005371 .07998657-.14074707 .09599304-.14074707 .10899353-.14074707 .12298584-.1287384 .1329956-.11973572 .14299011-.10673523 .14299011-.08773804 .14299011-.056747438 .115997318-.052734376 .10598755-.052734376 .08299255-.052734376 .049987794-.068740848 .049987794-.11773682 .049987794-.16796875 .09399414-.20507813 .1559906-.20507813 .25898744-.20507813 .3619995-.11373901 .3899994-.00074768069L.48599244 .38136292Z"/>
<path id="font_4_2" d="M.47099305 .3773346C.47200013 .3833313 .47399903 .38833619 .47399903 .39535523 .47399903 .41236878 .46199037 .42237855 .44499208 .42237855 .43499757 .42237855 .4079895 .41537477 .4039917 .3793335 .38598634 .41636659 .35099793 .4423828 .31098939 .4423828 .19699097 .4423828 .07299805 .30226136 .07299805 .15812683 .07299805 .059020997 .13398743 0 .20599365 0 .2649994 0 .31199647 .04701233 .32199098 .058029176L.32299806 .057022096C.3019867-.031982423 .2899933-.07295227 .2899933-.07495117 .28599549-.08395386 .2519989-.18309021 .1459961-.18309021 .1269989-.18309021 .09399414-.18206787 .06599426-.17297364 .09599304-.16394043 .10699463-.13793946 .10699463-.12094116 .10699463-.10494995 .09599304-.0859375 .068984989-.0859375 .04699707-.0859375 .01499939-.10394287 .01499939-.14395142 .01499939-.18508911 .051986696-.20507813 .147995-.20507813 .272995-.20507813 .34498597-.12693787 .3600006-.06695557L.47099305 .3773346M.34098817 .12809754C.33499146 .10206604 .31199647 .077041629 .2899933 .058029176 .2689972 .040008546 .23799134 .021987915 .20899964 .021987915 .15899658 .021987915 .14399719 .074035648 .14399719 .11407471 .14399719 .16212464 .17298889 .28024293 .19999695 .33128358 .22698975 .38034059 .269989 .42037965 .31199647 .42037965 .37799073 .42037965 .3919983 .33929444 .3919983 .33428956 .3919983 .32928468 .3899994 .3232727 .3889923 .3192749L.34098817 .12809754Z"/>
<path id="font_5_1" d="M.33099366-.2400055C.33099366-.23701477 .33099366-.23500061 .31399537-.21800232 .18899536-.0920105 .15699768 .09700012 .15699768 .25 .15699768 .42399598 .19499207 .59799197 .31799317 .72299197 .33099366 .73498538 .33099366 .7369995 .33099366 .73999026 .33099366 .746994 .32699586 .75 .32099916 .75 .31098939 .75 .22099304 .6819916 .1619873 .5549927 .11099243 .44499208 .09899902 .33399964 .09899902 .25 .09899902 .17199707 .10998535 .050994874 .16499329-.06201172 .22499085-.18501282 .31098939-.25 .32099916-.25 .32699586-.25 .33099366-.24700928 .33099366-.2400055Z"/>
<path id="font_5_2" d="M.2889862 .25C.2889862 .32798768 .27799989 .44898988 .22299195 .56199648 .16299439 .68499758 .07699585 .75 .066986087 .75 .06098938 .75 .056991579 .74598696 .056991579 .73999026 .056991579 .7369995 .056991579 .73498538 .07598877 .71699526 .17399597 .6179962 .23098755 .45899964 .23098755 .25 .23098755 .07899475 .19400025-.09700012 .069992069-.2230072 .056991579-.23500061 .056991579-.23701477 .056991579-.2400055 .056991579-.2460022 .06098938-.25 .066986087-.25 .07699585-.25 .16699219-.18200684 .22599793-.055007936 .2769928 .054992677 .2889862 .16600037 .2889862 .25Z"/>
<path id="font_4_1" d="M.644989 .69506838C.644989 .69807437 .6429901 .7050781 .6339874 .7050781 .6289978 .7050781 .6279907 .70407107 .6159973 .6900635L.56799319 .6330414C.5419922 .68006899 .48999024 .7050781 .4249878 .7050781 .2979889 .7050781 .17799378 .58999636 .17799378 .4689026 .17799378 .38783265 .23098755 .34179688 .28199769 .32678224L.3889923 .2987671C.42599488 .2897644 .48098756 .27474977 .48098756 .19267273 .48098756 .1026001 .39898683 .008529663 .30099488 .008529663 .23699951 .008529663 .12599182 .030548096 .12599182 .15464783 .12599182 .17866516 .1309967 .2026825 .13198853 .20869446 .1329956 .21269226 .13398743 .21369934 .13398743 .21569824 .13398743 .22570801 .1269989 .22669983 .12199402 .22669983 .116989139 .22669983 .114990238 .22570801 .11199951 .22270203 .10798645 .21870423 .051986696-.009475708 .051986696-.012466431 .051986696-.018463135 .056991579-.022460938 .06298828-.022460938 .067993167-.022460938 .068984989-.021469117 .08099365-.007461548L.12998963 .049560548C.17298889-.008468628 .24099732-.022460938 .29899598-.022460938 .43499757-.022460938 .5529938 .11061096 .5529938 .2347107 .5529938 .30377198 .5189972 .33779908 .5039978 .35180665 .48098756 .37483216 .46598817 .37882997 .3769989 .40185548 .35499574 .40785218 .31900025 .41786195 .30999757 .41986085 .2829895 .42886354 .24899292 .457901 .24899292 .51094058 .24899292 .59199526 .32899476 .677063 .42399598 .677063 .5069885 .677063 .56799319 .6340332 .56799319 .52194216 .56799319 .48991395 .56399539 .47190858 .56399539 .4658966 .56399539 .4649048 .56399539 .45588685 .57598879 .45588685 .58599856 .45588685 .58699038 .45889283 .59098818 .47590638L.644989 .69506838Z"/>
<path id="font_6_1" d="M.5159912 .31925965C.5159912 .42918397 .5029907 .50813296 .45700074 .5780945 .42599488 .62405398 .3639984 .6640625 .28399659 .6640625 .051986696 .6640625 .051986696 .39120484 .051986696 .31925965 .051986696 .2472992 .051986696-.01953125 .28399659-.01953125 .5159912-.01953125 .5159912 .2472992 .5159912 .31925965M.28399659 .008468628C.23799134 .008468628 .1769867 .035446168 .15699768 .117385867 .14299011 .17634583 .14299011 .25830079 .14299011 .33224488 .14299011 .40519715 .14299011 .4811554 .1579895 .53611758 .1789856 .6150665 .24299622 .63604739 .28399659 .63604739 .33799745 .63604739 .3899994 .6030731 .4079895 .545105 .42399598 .4911499 .4249878 .41918946 .4249878 .33224488 .4249878 .25830079 .4249878 .18434143 .4119873 .12138367 .3919983 .030441285 .32398988 .008468628 .28399659 .008468628Z"/>
<path id="font_6_2" d="M.5049896 .18203736H.47099305C.46798707 .16001892 .45799256 .100997928 .44499208 .09098816 .43699647 .084991458 .3600006 .084991458 .34599305 .084991458H.1619873C.2669983 .17803955 .3019867 .20603943 .3619995 .25306703 .43598939 .312088 .5049896 .374115 .5049896 .46914674 .5049896 .5900879 .39898683 .6640625 .2709961 .6640625 .14698792 .6640625 .06298828 .57710269 .06298828 .4851532 .06298828 .43414308 .10598755 .42915345 .115997318 .42915345 .13999939 .42915345 .16899109 .44615174 .16899109 .48214723 .16899109 .5001526 .1619873 .53515627 .10998535 .53515627 .14099121 .6060791 .20899964 .62805178 .2559967 .62805178 .35598756 .62805178 .4079895 .5501404 .4079895 .46914674 .4079895 .38212586 .34599305 .3130951 .31399537 .27708436L.07299805 .038986207C.06298828 .02999878 .06298828 .027999878 .06298828 0H.47499085L.5049896 .18203736Z"/>
<path id="font_6_3" d="M.5289917 .1640625V.20005799H.41799928V.64582827C.41799928 .66682437 .41799928 .6738281 .3959961 .6738281 .38398744 .6738281 .37998963 .6738281 .36999513 .65982058L.038986207 .20005799V.1640625H.33299256V.08201599C.33299256 .04800415 .33299256 .035995485 .2519989 .035995485H.22499085V0C.2749939 .0019989014 .33898927 .0039978029 .375 .0039978029 .4119873 .0039978029 .47599793 .0019989014 .526001 0V.035995485H.49899293C.41799928 .035995485 .41799928 .04800415 .41799928 .08201599V.1640625H.5289917M.33999635 .5658722V.20005799H.07598877L.33999635 .5658722Z"/>
</defs>
<path transform="matrix(1.00002,0,0,-1.00002,11.626839,141.20355)" stroke-width=".09962" stroke-linecap="butt" stroke-miterlimit="10" stroke-linejoin="miter" fill="none" stroke="#d9d9d9" d="M19.92523 0V119.55139M59.7757 0V119.55139M99.62616 0V119.55139M139.47663 0V119.55139M179.32709 0V119.55139M219.17755 0V119.55139"/>
<path transform="matrix(1.00002,0,0,-1.00002,11.626839,141.20355)" stroke-width=".19925" stroke-linecap="butt" stroke-miterlimit="10" stroke-linejoin="miter" fill="none" stroke="#b2b3b2" d="M0 0V119.55139M39.85046 0V119.55139M79.70093 0V119.55139M119.55139 0V119.55139M199.25232 0V119.55139M239.10279 0V119.55139"/>
<path transform="matrix(1.00002,0,0,-1.00002,11.626839,141.20355)" stroke-width=".09962" stroke-linecap="butt" stroke-miterlimit="10" stroke-linejoin="miter" fill="none" stroke="#d9d9d9" d="M0 19.92523H239.10279M0 59.7757H239.10279M0 99.62616H239.10279"/>
<path transform="matrix(1.00002,0,0,-1.00002,11.626839,141.20355)" stroke-width=".19925" stroke-linecap="butt" stroke-miterlimit="10" stroke-linejoin="miter" fill="none" stroke="#b2b3b2" d="M0 0H239.10279M0 39.85046H239.10279M0 119.55139H239.10279"/>
<path transform="matrix(1.00002,0,0,-1.00002,11.626839,141.20355)" stroke-width=".19925" stroke-linecap="butt" stroke-miterlimit="10" stroke-linejoin="miter" fill="none" stroke="#7f807f" d="M19.92523 78.28346V81.1184M59.7757 78.28346V81.1184M99.62616 78.28346V81.1184M139.47663 78.28346V81.1184M179.32709 78.28346V81.1184M219.17755 78.28346V81.1184"/>
<path transform="matrix(1.00002,0,0,-1.00002,11.626839,141.20355)" stroke-width=".19925" stroke-linecap="butt" stroke-miterlimit="10" stroke-linejoin="miter" fill="none" stroke="#7f807f" d="M0 77.57492V81.8269M39.85046 77.57492V81.8269M79.70093 77.57492V81.8269M119.55139 77.57492V81.8269M199.25232 77.57492V81.8269M239.10279 77.57492V81.8269"/>
<path transform="matrix(1.00002,0,0,-1.00002,11.626839,141.20355)" stroke-width=".19925" stroke-linecap="butt" stroke-miterlimit="10" stroke-linejoin="miter" fill="none" stroke="#7f807f" d="M157.98439 19.92523H160.81932M157.98439 59.7757H160.81932M157.98439 99.62616H160.81932"/>
<path transform="matrix(1.00002,0,0,-1.00002,11.626839,141.20355)" stroke-width=".19925" stroke-linecap="butt" stroke-miterlimit="10" stroke-linejoin="miter" fill="none" stroke="#7f807f" d="M157.27587 0H161.52783M157.27587 39.85046H161.52783M157.27587 119.55139H161.52783"/>
<path transform="matrix(1.00002,0,0,-1.00002,11.626839,141.20355)" stroke-width=".3985" stroke-linecap="butt" stroke-miterlimit="10" stroke-linejoin="miter" fill="none" stroke="#000000" d="M-6.37622 79.70093H245.47902"/>
<path transform="matrix(-1.00002,-0,0,1.00002,5.2504909,61.50103)" d="M3.58653 0C2.52383 .19925 .797 .797-.3985 1.49438V-1.49438C.797-.797 2.52383-.19925 3.58653 0"/>
<path transform="matrix(1.00002,0,0,-1.00002,257.11079,61.50103)" d="M3.58653 0C2.52383 .19925 .797 .797-.3985 1.49438V-1.49438C.797-.797 2.52383-.19925 3.58653 0"/>
<path transform="matrix(1.00002,0,0,-1.00002,11.626839,141.20355)" stroke-width=".3985" stroke-linecap="butt" stroke-miterlimit="10" stroke-linejoin="miter" fill="none" stroke="#000000" d="M159.40186-6.37622V125.92761"/>
<path transform="matrix(0,1.00002,1.00002,0,171.03189,147.5799)" d="M3.58653 0C2.52383 .19925 .797 .797-.3985 1.49438V-1.49438C.797-.797 2.52383-.19925 3.58653 0"/>
<path transform="matrix(0,-1.00002,-1.00002,-0,171.03189,15.273415)" d="M3.58653 0C2.52383 .19925 .797 .797-.3985 1.49438V-1.49438C.797-.797 2.52383-.19925 3.58653 0"/>
<use data-text="&#x2212;" xlink:href="#font_1_1" transform="matrix(7.9702599,0,0,-7.9702599,6.216728,72.28317)"/>
<use data-text="4" xlink:href="#font_2_4" transform="matrix(7.9702599,0,0,-7.9702599,12.803864,72.28317)"/>
<use data-text="&#x2212;" xlink:href="#font_1_1" transform="matrix(7.9702599,0,0,-7.9702599,46.067529,72.28317)"/>
<use data-text="3" xlink:href="#font_2_3" transform="matrix(7.9702599,0,0,-7.9702599,52.654664,72.28317)"/>
<use data-text="&#x2212;" xlink:href="#font_1_1" transform="matrix(7.9702599,0,0,-7.9702599,85.91933,72.28317)"/>
<use data-text="2" xlink:href="#font_2_2" transform="matrix(7.9702599,0,0,-7.9702599,92.50646,72.28317)"/>
<use data-text="&#x2212;" xlink:href="#font_1_1" transform="matrix(7.9702599,0,0,-7.9702599,125.77013,72.28317)"/>
<use data-text="1" xlink:href="#font_2_1" transform="matrix(7.9702599,0,0,-7.9702599,132.35727,72.28317)"/>
<use data-text="1" xlink:href="#font_2_1" transform="matrix(7.9702599,0,0,-7.9702599,208.76578,72.28317)"/>
<use data-text="2" xlink:href="#font_2_2" transform="matrix(7.9702599,0,0,-7.9702599,248.61759,72.28317)"/>
<use data-text="&#x2212;" xlink:href="#font_1_1" transform="matrix(7.9702599,0,0,-7.9702599,154.5647,143.3566)"/>
<use data-text="2" xlink:href="#font_2_2" transform="matrix(7.9702599,0,0,-7.9702599,161.15184,143.3566)"/>
<use data-text="&#x2212;" xlink:href="#font_1_1" transform="matrix(7.9702599,0,0,-7.9702599,154.5647,103.5058)"/>
<use data-text="1" xlink:href="#font_2_1" transform="matrix(7.9702599,0,0,-7.9702599,161.15184,103.5058)"/>
<use data-text="1" xlink:href="#font_2_1" transform="matrix(7.9702599,0,0,-7.9702599,161.15183,24.218209)"/>
<g clip-path="url(#clip_3)">
<path transform="matrix(1.00002,0,0,-1.00002,11.626839,141.20355)" stroke-width=".99628" stroke-linecap="butt" stroke-miterlimit="10" stroke-linejoin="miter" fill="none" stroke="#e41a1c" d="M2.41512-252.4208C2.41512-252.4208 4.16008-118.47015 4.83026-88.06952 5.50043-57.6689 6.5752-44.70772 7.24538-33.31418 7.91556-21.92065 8.99034-12.02486 9.66052-5.95285 10.33069 .11916 11.40547 6.65771 12.07565 10.44878 12.74583 14.23985 13.8206 18.77443 14.49078 21.3706 15.16095 23.96677 16.23573 27.27031 16.90591 29.16017 17.5761 31.05003 18.65088 33.5544 19.32106 34.99149 19.99123 36.42857 21.066 38.38855 21.73618 39.5177 22.40636 40.64687 23.48114 42.21982 24.15132 43.12976 24.82149 44.03969 25.89627 45.32745 26.56645 46.07588 27.23663 46.82431 28.31142 47.8979 28.9816 48.5239 29.65176 49.1499 30.72653 50.05704 31.39671 50.58777 32.0669 51.1185 33.14168 51.89388 33.81186 52.34915 34.48203 52.80441 35.55681 53.4747 36.22699 53.86903 36.89717 54.26338 37.97194 54.84683 38.64212 55.19128 39.31229 55.53575 40.38707 56.04852 41.05725 56.35173 41.72743 56.65495 42.80222 57.10808 43.4724 57.37668 44.14256 57.64528 45.21735 58.0485 45.88753 58.28767 46.55771 58.52687 47.63248 58.88658 48.30266 59.10062 48.97282 59.31465 50.0476 59.63799 50.71779 59.83028 51.38797 60.02257 52.46275 60.31311 53.13293 60.48662 53.8031 60.66011 54.87788 60.9237 55.54807 61.08078 56.21825 61.23787 57.29301 61.4764 57.9632 61.61876 58.63336 61.76112 59.70815 61.97745 60.37833 62.10695 61.04851 62.23643 62.12329 62.43398 62.79347 62.55206 63.46364 62.67015 64.5384 62.85039 65.20859 62.95813 65.87877 63.06589 66.95355 63.23035 67.62373 63.32877 68.29391 63.42717 69.36868 63.57748 70.03886 63.6675 70.70905 63.7575 71.78381 63.8952 72.454 63.97752 73.12418 64.05983 74.19894 64.18561 74.86913 64.26085 75.5393 64.3361 76.61409 64.45105 77.28427 64.51988 77.95445 64.58871 79.02922 64.69408 79.6994 64.757 80.36958 64.81992 81.44435 64.916 82.11453 64.97339 82.78471 65.03078 83.85948 65.11838 84.52966 65.17062 85.19984 65.22289 86.27463 65.30247 86.94481 65.34998 87.61499 65.39746 88.68974 65.47006 89.35992 65.51297 90.0301 65.55586 91.10489 65.62056 91.77507 65.65921 92.44525 65.69785 93.52002 65.75679 94.1902 65.7915 94.86038 65.82623 95.93515 65.87862 96.60533 65.90945 97.27551 65.9403 98.35028 65.98676 99.02046 66.01389 99.69064 66.04102 100.76543 66.08151 101.43561 66.10513 102.10579 66.12874 103.18054 66.1638 103.85072 66.18404 104.5209 66.20427 105.59569 66.23392 106.26587 66.25099 106.93605 66.26807 108.01082 66.2933 108.681 66.30717 109.35118 66.32104 110.42596 66.34041 111.09615 66.35101 111.76633 66.36163 112.84108 66.37611 113.51126 66.38368 114.18144 66.39125 115.25623 66.40114 115.9264 66.40561 116.59659 66.41008 117.67136 66.41454 118.34154 66.41595 119.01172 66.41739 120.08649 66.41739 120.75667 66.41595 121.42685 66.41454 122.50162 66.41008 123.1718 66.40561 123.84198 66.40114 124.91676 66.39125 125.58694 66.38368 126.25713 66.37611 127.33188 66.36163 128.00206 66.35101 128.67224 66.34041 129.74703 66.32104 130.4172 66.30717 131.08739 66.2933 132.16216 66.26796 132.83234 66.25099 133.50252 66.23402 134.5773 66.205 135.24748 66.18483 135.91767 66.16466 136.99242 66.12926 137.6626 66.10553 138.33278 66.08182 139.40756 66.04108 140.07775 66.01389 140.74793 65.9867 141.8227 65.94026 142.49288 65.90945 143.16306 65.87866 144.23783 65.8265 144.908 65.7919 145.57819 65.75731 146.65296 65.6987 147.32314 65.66002 147.99332 65.62132 149.0681 65.55586 149.73828 65.51297 150.40847 65.47006 151.48322 65.39821 152.1534 65.35077 152.82358 65.30334 153.89836 65.2234 154.56855 65.17104 155.23873 65.11868 156.31349 65.03082 156.98368 64.97339 157.65386 64.91595 158.72864 64.81992 159.39882 64.757 160.069 64.69408 161.14376 64.58871 161.81394 64.51988 162.48412 64.45105 163.5589 64.3361 164.22908 64.26085 164.89926 64.18561 165.97403 64.05978 166.64421 63.97752 167.31439 63.89525 168.38916 63.75783 169.05934 63.66788 169.72953 63.57794 170.8043 63.4275 171.47447 63.32915 172.14466 63.2308 173.21944 63.06665 173.88962 62.95894 174.5598 62.85123 175.63457 62.67091 176.30474 62.55287 176.97492 62.43481 178.0497 62.23767 178.71988 62.10812 179.39006 61.97859 180.46483 61.76154 181.135 61.61917 181.80518 61.4768 182.87996 61.23889 183.55014 61.08199 184.22032 60.92506 185.2951 60.66171 185.96527 60.4882 186.63545 60.31471 187.71024 60.02376 188.38042 59.83147 189.0506 59.63918 190.12538 59.31624 190.79555 59.10222 191.46573 58.88818 192.5405 58.52798 193.21068 58.28886 193.88086 58.04973 194.95565 57.64711 195.62581 57.37868 196.29599 57.11024 197.37078 56.65721 198.04096 56.35413 198.71114 56.05103 199.7859 55.53853 200.45607 55.19408 201.12625 54.84961 202.20104 54.26572 202.87122 53.87144 203.5414 53.47716 204.61617 52.80743 205.28633 52.35234 205.95652 51.89723 207.0313 51.12192 207.70148 50.59135 208.37166 50.06079 209.44644 49.15402 210.11661 48.52829 210.78679 47.90257 211.86157 46.82973 212.53176 46.08148 213.20194 45.33322 214.27672 44.04497 214.94689 43.13531 215.61707 42.22566 216.69184 40.65388 217.36202 39.52527 218.0322 38.39667 219.10698 36.43741 219.77715 35.00104 220.44733 33.56468 221.52211 31.06172 222.19229 29.17291 222.86248 27.28409 223.93724 23.98218 224.6074 21.38773 225.27759 18.79329 226.35237 14.26192 227.02256 10.47388 227.69274 6.68585 228.76752 .15219 229.43769-5.91379 230.10787-11.9798 231.18264-21.8677 231.85282-33.24564 232.523-44.62358 233.59778-57.59308 234.26796-87.91808 234.93813-118.24307 236.68309-251.80712 236.68309-251.80712"/>
<path transform="matrix(1.00002,0,0,-1.00002,11.626839,141.20355)" stroke-width=".99628" stroke-linecap="butt" stroke-dasharray="2.98883,2.98883" stroke-miterlimit="10" stroke-linejoin="miter" fill="none" stroke="#377eb8" d="M0 64.757C0 64.757 1.74493 64.757 2.41512 64.757 3.0853 64.757 4.16008 64.757 4.83026 64.757 5.50043 64.757 6.5752 64.757 7.24538 64.757 7.91556 64.757 8.99034 64.757 9.66052 64.757 10.33069 64.757 11.40547 64.757 12.07565 64.757 12.74583 64.757 13.8206 64.757 14.49078 64.757 15.16095 64.757 16.23573 64.757 16.90591 64.757 17.5761 64.757 18.65088 64.757 19.32106 64.757 19.99123 64.757 21.066 64.757 21.73618 64.757 22.40636 64.757 23.48114 64.757 24.15132 64.757 24.82149 64.757 25.89627 64.757 26.56645 64.757 27.23663 64.757 28.31142 64.757 28.9816 64.757 29.65176 64.757 30.72653 64.757 31.39671 64.757 32.0669 64.757 33.14168 64.757 33.81186 64.757 34.48203 64.757 35.55681 64.757 36.22699 64.757 36.89717 64.757 37.97194 64.757 38.64212 64.757 39.31229 64.757 40.38707 64.757 41.05725 64.757 41.72743 64.757 42.80222 64.757 43.4724 64.757 44.14256 64.757 45.21735 64.757 45.88753 64.757 46.55771 64.757 47.63248 64.757 48.30266 64.757 48.97282 64.757 50.0476 64.757 50.71779 64.757 51.38797 64.757 52.46275 64.757 53.13293 64.757 53.8031 64.757 54.87788 64.757 55.54807 64.757 56.21825 64.757 57.29301 64.757 57.9632 64.757 58.63336 64.757 59.70815 64.757 60.37833 64.757 61.04851 64.757 62.12329 64.757 62.79347 64.757 63.46364 64.757 64.5384 64.757 65.20859 64.757 65.87877 64.757 66.95355 64.757 67.62373 64.757 68.29391 64.757 69.36868 64.757 70.03886 64.757 70.70905 64.757 71.78381 64.757 72.454 64.757 73.12418 64.757 74.19894 64.757 74.86913 64.757 75.5393 64.757 76.61409 64.757 77.28427 64.757 77.95445 64.757 79.02922 64.757 79.6994 64.757 80.36958 64.757 81.44435 64.757 82.11453 64.757 82.78471 64.757 83.85948 64.757 84.52966 64.757 85.19984 64.757 86.27463 64.757 86.94481 64.757 87.61499 64.757 88.68974 64.757 89.35992 64.757 90.0301 64.757 91.10489 64.757 91.77507 64.757 92.44525 64.757 93.52002 64.757 94.1902 64.757 94.86038 64.757 95.93515 64.757 96.60533 64.757 97.27551 64.757 98.35028 64.757 99.02046 64.757 99.69064 64.757 100.76543 64.757 101.43561 64.757 102.10579 64.757 103.18054 64.757 103.85072 64.757 104.5209 64.757 105.59569 64.757 106.26587 64.757 106.93605 64.757 108.01082 64.757 108.681 64.757 109.35118 64.757 110.42596 64.757 111.09615 64.757 111.76633 64.757 112.84108 64.757 113.51126 64.757 114.18144 64.757 115.25623 64.757 115.9264 64.757 116.59659 64.757 117.67136 64.757 118.34154 64.757 119.01172 64.757 120.08649 64.757 120.75667 64.757 121.42685 64.757 122.50162 64.757 123.1718 64.757 123.84198 64.757 124.91676 64.757 125.58694 64.757 126.25713 64.757 127.33188 64.757 128.00206 64.757 128.67224 64.757 129.74703 64.757 130.4172 64.757 131.08739 64.757 132.16216 64.757 132.83234 64.757 133.50252 64.757 134.5773 64.757 135.24748 64.757 135.91767 64.757 136.99242 64.757 137.6626 64.757 138.33278 64.757 139.40756 64.757 140.07775 64.757 140.74793 64.757 141.8227 64.757 142.49288 64.757 143.16306 64.757 144.23783 64.757 144.908 64.757 145.57819 64.757 146.65296 64.757 147.32314 64.757 147.99332 64.757 149.0681 64.757 149.73828 64.757 150.40847 64.757 151.48322 64.757 152.1534 64.757 152.82358 64.757 153.89836 64.757 154.56855 64.757 155.23873 64.757 156.31349 64.757 156.98368 64.757 157.65386 64.757 158.72864 64.757 159.39882 64.757 160.069 64.757 161.14376 64.757 161.81394 64.757 162.48412 64.757 163.5589 64.757 164.22908 64.757 164.89926 64.757 165.97403 64.757 166.64421 64.757 167.31439 64.757 168.38916 64.757 169.05934 64.757 169.72953 64.757 170.8043 64.757 171.47447 64.757 172.14466 64.757 173.21944 64.757 173.88962 64.757 174.5598 64.757 175.63457 64.757 176.30474 64.757 176.97492 64.757 178.0497 64.757 178.71988 64.757 179.39006 64.757 180.46483 64.757 181.135 64.757 181.80518 64.757 182.87996 64.757 183.55014 64.757 184.22032 64.757 185.2951 64.757 185.96527 64.757 186.63545 64.757 187.71024 64.757 188.38042 64.757 189.0506 64.757 190.12538 64.757 190.79555 64.757 191.46573 64.757 192.5405 64.757 193.21068 64.757 193.88086 64.757 194.95565 64.757 195.62581 64.757 196.29599 64.757 197.37078 64.757 198.04096 64.757 198.71114 64.757 199.7859 64.757 200.45607 64.757 201.12625 64.757 202.20104 64.757 202.87122 64.757 203.5414 64.757 204.61617 64.757 205.28633 64.757 205.95652 64.757 207.0313 64.757 207.70148 64.757 208.37166 64.757 209.44644 64.757 210.11661 64.757 210.78679 64.757 211.86157 64.757 212.53176 64.757 213.20194 64.757 214.27672 64.757 214.94689 64.757 215.61707 64.757 216.69184 64.757 217.36202 64.757 218.0322 64.757 219.10698 64.757 219.77715 64.757 220.44733 64.757 221.52211 64.757 222.19229 64.757 222.86248 64.757 223.93724 64.757 224.6074 64.757 225.27759 64.757 226.35237 64.757 227.02256 64.757 227.69274 64.757 228.76752 64.757 229.43769 64.757 230.10787 64.757 231.18264 64.757 231.85282 64.757 232.523 64.757 233.59778 64.757 234.26796 64.757 234.93813 64.757 236.01291 64.757 236.68309 64.757 237.35327 64.757 239.09824 64.757 239.09824 64.757"/>
<path transform="matrix(1.00002,0,0,-1.00002,11.626839,141.20355)" stroke-width=".99628" stroke-linecap="butt" stroke-dasharray=".99628,1.99255" stroke-miterlimit="10" stroke-linejoin="miter" fill="none" stroke="#4daf4a" d="M0 34.86928C0 34.86928 1.74493 35.68265 2.41512 35.99109 3.0853 36.29951 4.16008 36.78955 4.83026 37.09227 5.50043 37.39499 6.5752 37.87592 7.24538 38.17291 7.91556 38.46992 8.99034 38.94165 9.66052 39.23296 10.33069 39.52426 11.40547 39.98683 12.07565 40.27242 12.74583 40.558 13.8206 41.01144 14.49078 41.29132 15.16095 41.57118 16.23573 42.01543 16.90591 42.2896 17.5761 42.56377 18.65088 42.99889 19.32106 43.26733 19.99123 43.53578 21.066 43.96173 21.73618 44.22446 22.40636 44.4872 23.48114 44.90399 24.15132 45.16101 24.82149 45.41803 25.89627 45.82564 26.56645 46.07697 27.23663 46.32828 28.31142 46.72679 28.9816 46.97238 29.65176 47.21799 30.72653 47.60727 31.39671 47.84715 32.0669 48.08704 33.14168 48.4672 33.81186 48.70139 34.48203 48.93558 35.55681 49.30655 36.22699 49.53502 36.89717 49.76349 37.97194 50.1253 38.64212 50.34807 39.31229 50.57082 40.38707 50.92352 41.05725 51.14056 41.72743 51.35759 42.80222 51.70108 43.4724 51.91243 44.14256 52.12376 45.21735 52.45811 45.88753 52.66374 46.55771 52.86935 47.63248 53.19456 48.30266 53.39447 48.97282 53.59438 50.0476 53.9104 50.71779 54.1046 51.38797 54.29878 52.46275 54.60567 53.13293 54.79416 53.8031 54.98265 54.87788 55.28035 55.54807 55.46312 56.21825 55.64589 57.29301 55.93445 57.9632 56.11151 58.63336 56.28857 59.70815 56.56795 60.37833 56.7393 61.04851 56.91066 62.12329 57.1809 62.79347 57.34654 63.46364 57.51218 64.5384 57.77324 65.20859 57.93317 65.87877 58.0931 66.95355 58.34502 67.62373 58.49922 68.29391 58.65344 69.36868 58.8962 70.03886 59.04471 70.70905 59.1932 71.78381 59.4268 72.454 59.5696 73.12418 59.71239 74.19894 59.93681 74.86913 60.0739 75.5393 60.21097 76.61409 60.42625 77.28427 60.55762 77.95445 60.68898 79.02922 60.8951 79.6994 61.02075 80.36958 61.14641 81.44435 61.34337 82.11453 61.4633 82.78471 61.58325 83.85948 61.77106 84.52966 61.88528 85.19984 61.99951 86.27463 62.17815 86.94481 62.28668 87.61499 62.3952 88.68974 62.56468 89.35992 62.66748 90.0301 62.7703 91.10489 62.93062 91.77507 63.02771 92.44525 63.1248 93.52002 63.27597 94.1902 63.36736 94.86038 63.45874 95.93515 63.60074 96.60533 63.68642 97.27551 63.7721 98.35028 63.90492 99.02046 63.9849 99.69064 64.06485 100.76543 64.18854 101.43561 64.26279 102.10579 64.33704 103.18054 64.45155 103.85072 64.5201 104.5209 64.58864 105.59569 64.69398 106.26587 64.75682 106.93605 64.81964 108.01082 64.91585 108.681 64.97296 109.35118 65.03008 110.42596 65.11713 111.09615 65.16852 111.76633 65.21991 112.84108 65.29779 113.51126 65.34349 114.18144 65.38919 115.25623 65.4579 115.9264 65.49788 116.59659 65.53786 117.67136 65.59744 118.34154 65.63171 119.01172 65.66597 120.08649 65.71638 120.75667 65.74493 121.42685 65.77348 122.50162 65.81473 123.1718 65.83757 123.84198 65.86043 124.91676 65.89252 125.58694 65.90964 126.25713 65.92677 127.33188 65.9497 128.00206 65.96112 128.67224 65.97253 129.74703 65.9863 130.4172 65.992 131.08739 65.99773 132.16216 66.00233 132.83234 66.00233 133.50252 66.00233 134.5773 65.99776 135.24748 65.99205 135.91767 65.98636 136.99242 65.97261 137.6626 65.9612 138.33278 65.94978 139.40756 65.92688 140.07775 65.90976 140.74793 65.89265 141.8227 65.86057 142.49288 65.83774 143.16306 65.81491 144.23783 65.7737 144.908 65.74515 145.57819 65.7166 146.65296 65.6662 147.32314 65.63194 147.99332 65.5977 149.0681 65.53815 149.73828 65.49818 150.40847 65.45822 151.48322 65.38953 152.1534 65.34384 152.82358 65.29816 153.89836 65.22029 154.56855 65.1689 155.23873 65.1175 156.31349 65.03049 156.98368 64.97339 157.65386 64.91629 158.72864 64.82008 159.39882 64.75728 160.069 64.69446 161.14376 64.58913 161.81394 64.5206 162.48412 64.45206 163.5589 64.33757 164.22908 64.26334 164.89926 64.18909 165.97403 64.06541 166.64421 63.98547 167.31439 63.90552 168.38916 63.7727 169.05934 63.68704 169.72953 63.60138 170.8043 63.45941 171.47447 63.36803 172.14466 63.27664 173.21944 63.1255 173.88962 63.02843 174.5598 62.93135 175.63457 62.77104 176.30474 62.66824 176.97492 62.56544 178.0497 62.39598 178.71988 62.28748 179.39006 62.17896 180.46483 62.00037 181.135 61.88614 181.80518 61.77191 182.87996 61.58412 183.55014 61.46419 184.22032 61.34427 185.2951 61.14732 185.96527 61.02168 186.63545 60.89603 187.71024 60.68994 188.38042 60.55858 189.0506 60.42722 190.12538 60.21196 190.79555 60.07489 191.46573 59.93784 192.5405 59.71341 193.21068 59.57063 193.88086 59.42786 194.95565 59.19427 195.62581 59.04578 196.29599 58.8973 197.37078 58.65456 198.04096 58.50035 198.71114 58.34615 199.7859 58.09427 200.45607 57.93436 201.12625 57.77444 202.20104 57.51338 202.87122 57.34775 203.5414 57.18213 204.61617 56.9119 205.28633 56.74055 205.95652 56.56921 207.0313 56.28984 207.70148 56.11281 208.37166 55.93576 209.44644 55.64722 210.11661 55.46446 210.78679 55.2817 211.86157 54.984 212.53176 54.79552 213.20194 54.60706 214.27672 54.30022 214.94689 54.10602 215.61707 53.91183 216.69184 53.59581 217.36202 53.39592 218.0322 53.19603 219.10698 52.87085 219.77715 52.66524 220.44733 52.45964 221.52211 52.12529 222.19229 51.91397 222.86248 51.70265 223.93724 51.35918 224.6074 51.14214 225.27759 50.9251 226.35237 50.57245 227.02256 50.3497 227.69274 50.12697 228.76752 49.76515 229.43769 49.5367 230.10787 49.30824 231.18264 48.93727 231.85282 48.70311 232.523 48.46893 233.59778 48.0888 234.26796 47.84894 234.93813 47.60905 236.01291 47.21976 236.68309 46.97417 237.35327 46.72858 239.09824 46.07883 239.09824 46.07883"/>
<path transform="matrix(1.00002,0,0,-1.00002,11.626839,141.20355)" stroke-width=".99628" stroke-linecap="butt" stroke-dasharray="2.98883,1.99255,.3985,1.99255" stroke-miterlimit="10" stroke-linejoin="miter" fill="none" stroke="#984ea3" d="M0-54.7921C0-54.7921 1.74493-49.31271 2.41512-47.2771 3.0853-45.24147 4.16008-42.05853 4.83026-40.12074 5.50043-38.18297 6.5752-35.15408 7.24538-33.31087 7.91556-31.46767 8.99034-28.58798 9.66052-26.83615 10.33069-25.08432 11.40547-22.34845 12.07565-20.6848 12.74583-19.02113 13.8206-16.42413 14.49078-14.84561 15.16095-13.26707 16.23573-10.80424 16.90591-9.30785 17.5761-7.81143 18.65088-5.47775 19.32106-4.06049 19.99123-2.64322 21.066-.4342 21.73618 .9068 22.40636 2.24783 23.48114 4.3371 24.15132 5.6048 24.82149 6.87248 25.89627 8.84634 26.56645 10.0435 27.23663 11.24066 28.31142 13.10378 28.9816 14.2331 29.65176 15.3624 30.72653 17.11864 31.39671 18.18277 32.0669 19.24692 33.14168 20.9011 33.81186 21.90274 34.48203 22.9044 35.55681 24.46036 36.22699 25.40205 36.89717 26.34377 37.97194 27.80563 38.64212 28.6899 39.31229 29.57416 40.38707 30.94601 41.05725 31.77528 41.72743 32.60455 42.80222 33.89006 43.4724 34.66673 44.14256 35.4434 45.21735 36.64665 45.88753 37.37308 46.55771 38.0995 47.63248 39.22395 48.30266 39.9024 48.97282 40.58086 50.0476 41.6302 50.71779 42.2629 51.38797 42.89558 52.46275 43.87332 53.13293 44.46242 53.8031 45.05151 54.87788 45.96109 55.54807 46.5087 56.21825 47.0563 57.29301 47.90105 57.9632 48.40923 58.63336 48.91739 59.70815 49.70055 60.37833 50.17126 61.04851 50.64198 62.12329 51.36668 62.79347 51.8019 63.46364 52.23709 64.5384 52.90639 65.20859 53.30795 65.87877 53.7095 66.95355 54.32637 67.62373 54.69612 68.29391 55.06586 69.36868 55.63313 70.03886 55.97281 70.70905 56.31248 71.78381 56.833 72.454 57.1443 73.12418 57.45561 74.19894 57.93199 74.86913 58.2166 75.5393 58.50119 76.61409 58.93604 77.28427 59.19551 77.95445 59.45497 79.02922 59.8508 79.6994 60.08667 80.36958 60.32253 81.44435 60.68175 82.11453 60.89546 82.78471 61.10919 83.85948 61.43413 84.52966 61.62714 85.19984 61.82016 86.27463 62.11298 86.94481 62.28664 87.61499 62.46028 88.68974 62.72314 89.35992 62.87874 90.0301 63.03433 91.10489 63.26927 91.77507 63.40804 92.44525 63.5468 93.52002 63.75578 94.1902 63.8789 94.86038 64.00203 95.93515 64.18686 96.60533 64.29547 97.27551 64.40407 98.35028 64.56654 99.02046 64.66171 99.69064 64.75688 100.76543 64.89865 101.43561 64.98137 102.10579 65.06409 103.18054 65.18672 103.85072 65.25797 104.5209 65.32921 105.59569 65.43419 106.26587 65.49483 106.93605 65.55547 108.01082 65.6442 108.681 65.69508 109.35118 65.74597 110.42596 65.81972 111.09615 65.86163 111.76633 65.90355 112.84108 65.96353 113.51126 65.9972 114.18144 66.03085 115.25623 66.07819 115.9264 66.10425 116.59659 66.1303 117.67136 66.166 118.34154 66.18507 119.01172 66.20415 120.08649 66.22914 120.75667 66.24178 121.42685 66.25441 122.50162 66.26953 123.1718 66.27623 123.84198 66.28291 124.91676 66.2889 125.58694 66.29005 126.25713 66.29123 127.33188 66.2887 128.00206 66.28474 128.67224 66.28079 129.74703 66.2703 130.4172 66.26152 131.08739 66.25275 132.16216 66.2348 132.83234 66.22147 133.50252 66.20813 134.5773 66.18306 135.24748 66.16537 135.91767 66.14767 136.99242 66.11578 137.6626 66.09386 138.33278 66.07195 139.40756 66.03342 140.07775 66.00739 140.74793 65.98134 141.8227 65.93626 142.49288 65.90611 143.16306 65.87598 144.23783 65.82434 144.908 65.79007 145.57819 65.75578 146.65296 65.69753 147.32314 65.65904 147.99332 65.62054 149.0681 65.55547 149.73828 65.51262 150.40847 65.46976 151.48322 65.39757 152.1534 65.35014 152.82358 65.30273 153.89836 65.22308 154.56855 65.17084 155.23873 65.1186 156.31349 65.031 156.98368 64.97363 157.65386 64.91626 158.72864 64.82016 159.39882 64.75728 160.069 64.69438 161.14376 64.58916 161.81394 64.52032 162.48412 64.45149 163.5589 64.33638 164.22908 64.26111 164.89926 64.18585 165.97403 64.06001 166.64421 63.97777 167.31439 63.89551 168.38916 63.75806 169.05934 63.66821 169.72953 63.57837 170.8043 63.42825 171.47447 63.33015 172.14466 63.23206 173.21944 63.06819 173.88962 62.96112 174.5598 62.85403 175.63457 62.6752 176.30474 62.55836 176.97492 62.44154 178.0497 62.24644 178.71988 62.11902 179.39006 61.9916 180.46483 61.77884 181.135 61.63994 181.80518 61.50104 182.87996 61.26917 183.55014 61.11783 184.22032 60.96649 185.2951 60.71391 185.96527 60.54912 186.63545 60.38434 187.71024 60.1094 188.38042 59.9301 189.0506 59.7508 190.12538 59.45172 190.79555 59.25679 191.46573 59.06186 192.5405 58.73682 193.21068 58.52505 193.88086 58.3133 194.95565 57.96033 195.62581 57.73051 196.29599 57.50069 197.37078 57.11778 198.04096 56.8686 198.71114 56.61943 199.7859 56.20444 200.45607 55.93454 201.12625 55.66466 202.20104 55.21536 202.87122 54.92332 203.5414 54.6313 204.61617 54.14539 205.28633 53.82976 205.95652 53.51413 207.0313 52.98921 207.70148 52.64845 208.37166 52.30771 209.44644 51.74126 210.11661 51.3738 210.78679 51.00633 211.86157 50.3958 212.53176 49.99997 213.20194 49.60414 214.27672 48.94681 214.94689 48.52092 215.61707 48.09503 216.69184 47.38814 217.36202 46.93044 218.0322 46.47273 219.10698 45.7134 219.77715 45.22205 220.44733 44.7307 221.52211 43.91597 222.19229 43.38911 222.86248 42.86226 223.93724 41.9891 224.6074 41.4248 225.27759 40.8605 226.35237 39.92572 227.02256 39.32199 227.69274 38.71826 228.76752 37.71866 229.43769 37.07344 230.10787 36.42822 231.18264 35.36046 231.85282 34.67166 232.523 33.98286 233.59778 32.8435 234.26796 32.10895 234.93813 31.37439 236.01291 30.15994 236.68309 29.37743 237.35327 28.5949 239.09824 26.46896 239.09824 26.46896"/>
</g>
<use data-text="t" xlink:href="#font_4_3" transform="matrix(9.962799,0,0,-9.962799,264.2519,64.55302)"/>
<use data-text="y" xlink:href="#font_4_4" transform="matrix(9.962799,0,0,-9.962799,168.43399,6.207855)"/>
<path transform="matrix(1.00002,0,0,-1.00002,11.626839,141.20355)" d="M48.48752-41.0458H190.61525V-24.10915H48.48752Z" fill="#ffffff"/>
<path transform="matrix(1.00002,0,0,-1.00002,11.626839,141.20355)" stroke-width=".3985" stroke-linecap="butt" stroke-miterlimit="10" stroke-linejoin="miter" fill="none" stroke="#000000" d="M48.48752-41.0458H190.61525V-24.10915H48.48752Z"/>
<path transform="matrix(1.00002,0,0,-1.00002,63.602888,173.7812)" stroke-width=".99628" stroke-linecap="butt" stroke-miterlimit="10" stroke-linejoin="miter" fill="none" stroke="#e41a1c" d="M0 0C0 0 6.14426 0 8.50412 0 10.86398 0 17.00826 0 17.00826 0"/>
<use data-text="g" xlink:href="#font_4_2" transform="matrix(9.962799,0,0,-9.962799,83.10127,176.77027)"/>
<use data-text="(" xlink:href="#font_5_1" transform="matrix(9.962799,0,0,-9.962799,88.21138,176.77027)"/>
<use data-text="t" xlink:href="#font_4_3" transform="matrix(9.962799,0,0,-9.962799,92.08545,176.77027)"/>
<use data-text=")" xlink:href="#font_5_2" transform="matrix(9.962799,0,0,-9.962799,95.68353,176.77027)"/>
<path transform="matrix(1.00002,0,0,-1.00002,102.04866,173.7812)" stroke-width=".99628" stroke-linecap="butt" stroke-dasharray="2.98883,2.98883" stroke-miterlimit="10" stroke-linejoin="miter" fill="none" stroke="#377eb8" d="M0 0C0 0 6.14426 0 8.50412 0 10.86398 0 17.00826 0 17.00826 0"/>
<use data-text="S" xlink:href="#font_4_1" transform="matrix(9.962799,0,0,-9.962799,121.54706,176.43827)"/>
<use data-text="0" xlink:href="#font_6_1" transform="matrix(6.97394,0,0,-6.97394,127.65718,177.93329)"/>
<path transform="matrix(1.00002,0,0,-1.00002,134.61632,173.7812)" stroke-width=".99628" stroke-linecap="butt" stroke-dasharray=".99628,1.99255" stroke-miterlimit="10" stroke-linejoin="miter" fill="none" stroke="#4daf4a" d="M0 0C0 0 6.14426 0 8.50412 0 10.86398 0 17.00826 0 17.00826 0"/>
<use data-text="S" xlink:href="#font_4_1" transform="matrix(9.962799,0,0,-9.962799,154.11569,176.43827)"/>
<use data-text="2" xlink:href="#font_6_2" transform="matrix(6.97394,0,0,-6.97394,160.22481,177.93329)"/>
<path transform="matrix(1.00002,0,0,-1.00002,167.18495,173.7812)" stroke-width=".99628" stroke-linecap="butt" stroke-dasharray="2.98883,1.99255,.3985,1.99255" stroke-miterlimit="10" stroke-linejoin="miter" fill="none" stroke="#984ea3" d="M0 0C0 0 6.14426 0 8.50412 0 10.86398 0 17.00826 0 17.00826 0"/>
<use data-text="S" xlink:href="#font_4_1" transform="matrix(9.962799,0,0,-9.962799,186.68436,176.43827)"/>
<use data-text="4" xlink:href="#font_6_3" transform="matrix(6.97394,0,0,-6.97394,192.79347,177.93329)"/>
</svg>
