<svg xmlns="http://www.w3.org/2000/svg" xmlns:xlink="http://www.w3.org/1999/xlink" version="1.1" width="390" height="299" viewBox="0 0 390 299">
<defs>
<path id="font_1_1" d="M.69898989 .22743225C.71499636 .22743225 .7369995 .22743225 .7369995 .25042726 .7369995 .2734375 .71499636 .2734375 .69898989 .2734375H.12599182C.10998535 .2734375 .08799744 .2734375 .08799744 .25042726 .08799744 .22743225 .10998535 .22743225 .12599182 .22743225H.69898989Z"/>
<path id="font_2_2" d="M.28199769 .20405579C.2979889 .21907044 .33999635 .2520752 .35598756 .26608277 .41799928 .32312013 .47698976 .3781433 .47698976 .46917726 .47698976 .588089 .3769989 .66503909 .2519989 .66503909 .13198853 .66503909 .052993776 .57411196 .052993776 .48516847 .052993776 .4361725 .09199524 .4291687 .10598755 .4291687 .1269989 .4291687 .1579895 .4441681 .1579895 .48217774 .1579895 .5341797 .10798645 .5341797 .09599304 .5341797 .125 .6070709 .19198609 .6320343 .24099732 .6320343 .33399964 .6320343 .38198854 .55314639 .38198854 .46917726 .38198854 .36514283 .30899049 .28910829 .19099427 .16804505L.06498718 .037994386C.052993776 .026992798 .052993776 .024993897 .052993776 0H.44799806L.47698976 .17904663H.44599916C.44299317 .1590271 .43499757 .10900879 .4229889 .08999634 .4169922 .08198547 .34098817 .08198547 .32499696 .08198547H.14698792L.28199769 .20405579Z"/>
<path id="font_2_1" d="M.31399537 .63708499C.31399537 .664032 .31199647 .66503909 .2849884 .66503909 .24398804 .6251831 .19099427 .6013489 .09599304 .6013489V.5683594C.12298584 .5683594 .1769867 .5683594 .23498535 .5953522V.08203125C.23498535 .04499817 .23199463 .032989503 .13699341 .032989503H.101989749V0C.14299011 .0029907227 .22898865 .0029907227 .27398683 .0029907227 .31900025 .0029907227 .4059906 .0029907227 .44699098 0V.032989503H.4119873C.31698609 .032989503 .31399537 .04499817 .31399537 .08203125V.63708499Z"/>
<path id="font_2_3" d="M.25299073 .33370973C.33198548 .33370973 .38198854 .27557374 .38198854 .17037964 .38198854 .045440675 .31098939 .008514404 .2579956 .008514404 .20298767 .008514404 .12799073 .0284729 .09298706 .08137512 .1289978 .08137512 .1539917 .10437012 .1539917 .13737488 .1539917 .16937256 .1309967 .19238281 .09899902 .19238281 .07199097 .19238281 .04399109 .17536927 .04399109 .13537598 .04399109 .04045105 .1459961-.021484375 .2599945-.021484375 .3929901-.021484375 .48599244 .070388797 .48599244 .17037964 .48599244 .25352479 .41999818 .32969667 .31799317 .3517456 .39698792 .37982179 .45599366 .4479828 .45599366 .52804568 .45599366 .6080475 .3659973 .66503909 .2619934 .66503909 .15499878 .66503909 .07398987 .6070404 .07398987 .53105166 .07398987 .49404908 .09899902 .4780426 .125 .4780426 .1559906 .4780426 .17599488 .5000458 .17599488 .52905276 .17599488 .56604006 .14399719 .5800476 .12199402 .5810547 .1639862 .6360321 .24099732 .6390381 .25898744 .6390381 .2849884 .6390381 .36099244 .6310272 .36099244 .52804568 .36099244 .45799256 .33198548 .41589356 .31799317 .39985658 .28799439 .36878968 .2649994 .36679078 .20399475 .3627777 .18499756 .36177064 .1769867 .36076356 .1769867 .3477478 .1769867 .33370973 .18598938 .33370973 .20298767 .33370973H.25299073Z"/>
<path id="font_2_4" d="M.3939972 .6468048C.3939972 .6667938 .3939972 .6748047 .37298585 .6748047 .3600006 .6748047 .35899354 .6737976 .34899903 .65979006L.02999878 .197052V.1640625H.31199647V.08100891C.31199647 .04399109 .30899049 .032989503 .23199463 .032989503H.20899964V0C.2939911 .0029907227 .29599 .0029907227 .35299684 .0029907227 .4099884 .0029907227 .4119873 .0029907227 .49699403 0V.032989503H.47399903C.39698792 .032989503 .3939972 .04399109 .3939972 .08100891V.1640625H.5V.197052H.3939972V.6468048M.31900025 .5658417V.197052H.06498718L.31900025 .5658417Z"/>
<path id="font_2_5" d="M.13999939 .5618439C.15299988 .55784609 .19299317 .54785159 .23498535 .54785159 .3600006 .54785159 .43598939 .6358948 .43598939 .6510315 .43598939 .6620331 .42900086 .66503909 .42399598 .66503909 .42199708 .66503909 .41999818 .66503909 .41099549 .6600342 .37199403 .6450348 .32598878 .632843 .27198792 .632843 .21299744 .632843 .1639862 .6480255 .1329956 .6600342 .12298584 .66503909 .12098694 .66503909 .11999512 .66503909 .10699463 .66503909 .10699463 .6540375 .10699463 .6358948V.34292604C.10699463 .32492066 .10699463 .312912 .12298584 .312912 .1309967 .312912 .13398743 .3169098 .13899231 .32492066 .15098572 .33992005 .18899536 .39093019 .27398683 .39093019 .32998658 .39093019 .35699464 .34492494 .3659973 .32591249 .3829956 .28990174 .3849945 .24389649 .3849945 .20487976 .3849945 .1678772 .38398744 .11387634 .35598756 .069732669 .33699037 .039611818 .29699708 .008514404 .24398804 .008514404 .1789856 .008514404 .114990238 .0496521 .09199524 .11488342 .09498596 .11387634 .100997928 .11387634 .101989749 .11387634 .12998963 .11387634 .1519928 .13188172 .1519928 .16288758 .1519928 .19989014 .12298584 .21289063 .102996829 .21289063 .084991458 .21289063 .052993776 .20288086 .052993776 .15988159 .052993776 .069732669 .1309967-.021484375 .24598694-.021484375 .37098695-.021484375 .47698976 .07574463 .47698976 .19989014 .47698976 .31591798 .3929901 .4189453 .2749939 .4189453 .22499085 .4189453 .17799378 .40293885 .13999939 .368927V.5618439Z"/>
<path id="font_2_6" d="M.13798523 .33073426C.13798523 .41377259 .14498902 .4868164 .18099976 .54782107 .21099854 .5978241 .2619934 .6390381 .32499696 .6390381 .34498597 .6390381 .3909912 .63601687 .4139862 .60084536 .36898805 .5988312 .36499024 .5648346 .36499024 .553833 .36499024 .5238342 .3880005 .50683596 .4119873 .50683596 .42999269 .50683596 .45899964 .51782229 .45899964 .5558319 .45899964 .615921 .4139862 .66503909 .32398988 .66503909 .18499756 .66503909 .04399109 .53282168 .04399109 .31672669 .04399109 .045532228 .16999817-.021484375 .2669983-.021484375 .31498719-.021484375 .36698915-.0084991459 .4119873 .03453064 .45199586 .07354736 .48599244 .11558533 .48599244 .20263672 .48599244 .33372499 .3869934 .42578126 .27598573 .42578126 .20399475 .42578126 .16099549 .37976075 .13798523 .33073426M.2669983 .008514404C.21398926 .008514404 .18099976 .045532228 .1659851 .07354736 .14299011 .11859131 .14099121 .18663025 .14099121 .22465515 .14099121 .32373048 .19499207 .3977661 .27198792 .3977661 .32199098 .3977661 .35198976 .37176515 .37098695 .33673097 .3919983 .29971314 .3919983 .25468446 .3919983 .2036438 .3919983 .15260315 .3919983 .10858154 .37199403 .07255554 .34599305 .026519776 .31098939 .008514404 .2669983 .008514404Z"/>
<path id="font_2_7" d="M.5059967 .608551C.5149994 .6195526 .5149994 .6215515 .5149994 .6435547H.26098634C.23599243 .6435547 .20498657 .64456179 .17999268 .64660647 .12799073 .65068057 .1269989 .6597748 .12399292 .67578127H.09298706L.05899048 .46453858H.08999634C.09199524 .47953797 .102996829 .54855349 .116989139 .5565491 .12799073 .56155398 .20298767 .56155398 .21798706 .56155398H.42999269L.32699586 .4235382C.21299744 .27153016 .18899536 .11351013 .18899536 .03451538 .18899536 .024505616 .18899536-.021484375 .23599243-.021484375 .2829895-.021484375 .2829895 .023513794 .2829895 .035507204V.08351135C.2829895 .2275238 .30699159 .34553529 .35598756 .41053773L.5059967 .608551Z"/>
<path id="font_2_8" d="M.33198548 .36080934C.3880005 .38783265 .45599366 .4378662 .45599366 .5159302 .45599366 .6110077 .35899354 .66503909 .2659912 .66503909 .1599884 .66503909 .07398987 .59199526 .07398987 .49790956 .07398987 .46089173 .08699036 .42686463 .11199951 .39782716 .1289978 .3768158 .1329956 .3748169 .19499207 .3357849 .070999149 .2807312 .04399109 .20767212 .04399109 .15162659 .04399109 .041534425 .15499878-.021484375 .2639923-.021484375 .3869934-.021484375 .48599244 .061553956 .48599244 .16764832 .48599244 .23069763 .45199586 .2727356 .43598939 .28974916 .4189911 .30575563 .41799928 .3067627 .33198548 .36080934M.1769867 .45487977C.147995 .4718933 .12399292 .5009155 .12399292 .5359497 .12399292 .598999 .19299317 .6390381 .2639923 .6390381 .34199525 .6390381 .4059906 .5859833 .4059906 .5159302 .4059906 .45788575 .36099244 .408844 .3019867 .37982179L.1769867 .45487977M.22599793 .31776429C.22999573 .31576539 .34399415 .24571228 .36099244 .23469544 .3769989 .22569275 .42900086 .19366455 .42900086 .13360596 .42900086 .056549074 .34799195 .008514404 .2659912 .008514404 .1769867 .008514404 .100997928 .06956482 .100997928 .15162659 .100997928 .22668457 .15699768 .28573609 .22599793 .31776429Z"/>
<path id="font_3_2" d="M.20599365 .3996582H.2999878C.31999208 .3996582 .32998658 .3996582 .32998658 .41966249 .32998658 .43066407 .31999208 .43066407 .3019867 .43066407H.21398926C.25 .5724945 .25498963 .59246829 .25498963 .59846499 .25498963 .61546328 .24299622 .62545779 .22599793 .62545779 .22299195 .62545779 .19499207 .62446597 .18598938 .58947756L.14698792 .43066407H.052993776C.032989503 .43066407 .022994996 .43066407 .022994996 .4116516 .022994996 .3996582 .0309906 .3996582 .050994874 .3996582H.13899231C.066986087 .11608887 .06298828 .099121097 .06298828 .08114624 .06298828 .02722168 .100997928-.0107421879 .15499878-.0107421879 .25698854-.0107421879 .31399537 .13505554 .31399537 .14305115 .31399537 .1530304 .30599977 .1530304 .3019867 .1530304 .29299928 .1530304 .2919922 .15003968 .2869873 .13905335 .24398804 .035217287 .19099427 .011245728 .15699768 .011245728 .13598633 .011245728 .12599182 .024230957 .12599182 .057174684 .12599182 .08114624 .12799073 .088134769 .13198853 .10510254L.20599365 .3996582Z"/>
<path id="font_4_5" d="M.68699648 .32714845C.70199587 .32714845 .72099307 .32714845 .72099307 .34713746 .72099307 .36714173 .70199587 .36714173 .6879883 .36714173H.08898926C.07499695 .36714173 .055999757 .36714173 .055999757 .34713746 .055999757 .32714845 .07499695 .32714845 .08999634 .32714845H.68699648M.6879883 .13284302C.70199587 .13284302 .72099307 .13284302 .72099307 .15284729 .72099307 .17285156 .70199587 .17285156 .68699648 .17285156H.08999634C.07499695 .17285156 .055999757 .17285156 .055999757 .15284729 .055999757 .13284302 .07499695 .13284302 .08898926 .13284302H.6879883Z"/>
<path id="font_5_1" d="M.6589966 .23046875C.6759949 .23046875 .69400027 .23046875 .69400027 .25045777 .69400027 .27046205 .6759949 .27046205 .6589966 .27046205H.117996219C.100997928 .27046205 .08299255 .27046205 .08299255 .25045777 .08299255 .23046875 .100997928 .23046875 .117996219 .23046875H.6589966Z"/>
<path id="font_4_4" d="M.1269989 .07699585 .23298645 .18003845C.3889923 .31811524 .44898988 .3721466 .44898988 .47216798 .44898988 .5860901 .35899354 .6660156 .23699951 .6660156 .12399292 .6660156 .049987794 .57411196 .049987794 .48516847 .049987794 .4291687 .099990848 .4291687 .102996829 .4291687 .11999512 .4291687 .15499878 .44117738 .15499878 .48217774 .15499878 .5081787 .13699341 .5341797 .101989749 .5341797 .09399414 .5341797 .09199524 .5341797 .08898926 .5331726 .11199951 .59806826 .1659851 .63500979 .22399903 .63500979 .31498719 .63500979 .35798646 .5541382 .35798646 .47216798 .35798646 .39215089 .30799867 .31311036 .25299073 .25108338L.06098938 .036987306C.049987794 .025985718 .049987794 .023986817 .049987794 0H.42099L.44898988 .17404175H.42399598C.4189911 .14402771 .4119873 .1000061 .4019928 .084991458 .394989 .07699585 .32899476 .07699585 .30699159 .07699585H.1269989Z"/>
<path id="font_4_3" d="M.2939911 .64004519C.2939911 .66400149 .2939911 .6660156 .2709961 .6660156 .20899964 .60227969 .12098694 .60227969 .08898926 .60227969V.57128909C.10899353 .57128909 .16799927 .57128909 .21998596 .5972748V.07902527C.21998596 .042999269 .21699524 .0309906 .1269989 .0309906H.09498596V0C.12998963 .0029907227 .21699524 .0029907227 .25698854 .0029907227 .29699708 .0029907227 .38398744 .0029907227 .4189911 0V.0309906H.3869934C.29699708 .0309906 .2939911 .041992189 .2939911 .07902527V.64004519Z"/>
<path id="font_4_2" d="M.45999146 .31976319C.45999146 .39982606 .45498658 .47988893 .41999818 .5539398 .37399293 .65000918 .2919922 .6660156 .25 .6660156 .18998719 .6660156 .116989139 .64001467 .07598877 .54693606 .04399109 .47789 .038986207 .39982606 .038986207 .31976319 .038986207 .24472046 .042999269 .15464783 .083999637 .07859802 .1269989-.0024719239 .19999695-.022460938 .24899292-.022460938 .30299378-.022460938 .3789978-.0014648438 .4229889 .09359741 .45498658 .16265869 .45999146 .2407074 .45999146 .31976319M.24899292-.00047302247C.20999146-.00047302247 .15098572 .024551392 .1329956 .12062073 .12199402 .18066406 .12199402 .2727356 .12199402 .3317871 .12199402 .39582826 .12199402 .46188355 .12998963 .5159149 .14898682 .63500979 .22399903 .64401248 .24899292 .64401248 .28199769 .64401248 .34799195 .6259918 .36698915 .52693179 .3769989 .47088624 .3769989 .39482118 .3769989 .3317871 .3769989 .25672914 .3769989 .18867493 .3659973 .12461853 .35099793 .029556275 .2939911-.00047302247 .24899292-.00047302247Z"/>
<path id="font_3_3" d="M.33399964 .30233766C.33999635 .32835389 .36299134 .42037965 .43299867 .42037965 .43798829 .42037965 .46199037 .42037965 .48298646 .40734864 .45498658 .402359 .43499757 .37734986 .43499757 .35334779 .43499757 .33735658 .44599916 .31835938 .47299195 .31835938 .49499513 .31835938 .5269928 .3363495 .5269928 .37635804 .5269928 .42837525 .46798707 .4423828 .43399049 .4423828 .37599183 .4423828 .34098817 .38935853 .32899476 .36634828 .3039856 .43237306 .25 .4423828 .22099304 .4423828 .116989139 .4423828 .05999756 .3133545 .05999756 .28834535 .05999756 .27833558 .069992069 .27833558 .07199097 .27833558 .07998657 .27833558 .08299255 .28033448 .084991458 .28933717 .11898804 .39535523 .18499756 .42037965 .21899414 .42037965 .23799134 .42037965 .272995 .4113617 .272995 .35334779 .272995 .32235719 .2559967 .25532533 .21899414 .11528015 .20298767 .053268434 .16799927 .011245728 .12399292 .011245728 .117996219 .011245728 .09498596 .011245728 .07398987 .024276734 .09899902 .029266358 .12098694 .05027771 .12098694 .07827759 .12098694 .105270389 .09899902 .11328125 .083999637 .11328125 .053985597 .11328125 .0289917 .08728027 .0289917 .055267335 .0289917 .009246826 .07899475-.0107421879 .12298584-.0107421879 .18899536-.0107421879 .22499085 .059280397 .22799683 .0652771 .23999024 .028274537 .27598573-.0107421879 .33599855-.0107421879 .43899537-.0107421879 .49598695 .118270877 .49598695 .14328003 .49598695 .1532898 .4869995 .1532898 .48399354 .1532898 .47499085 .1532898 .47299195 .14929199 .47099305 .14228821 .43798829 .03527832 .36999513 .011245728 .33799745 .011245728 .29899598 .011245728 .2829895 .043273927 .2829895 .07727051 .2829895 .09927368 .2889862 .121276859 .2999878 .16529846L.33399964 .30233766Z"/>
<path id="font_3_4" d="M.48599244 .38136292C.48999024 .39537049 .48999024 .39736939 .48999024 .40437318 .48999024 .42237855 .47599793 .43138124 .46099855 .43138124 .45098878 .43138124 .43499757 .42536927 .42599488 .41036988 .42399598 .405365 .41600038 .37435914 .4119873 .35635377 .40499879 .33035279 .397995 .30334474 .3919983 .27633668L.34700013 .09628296C.34298707 .08126831 .2999878 .011245728 .23399353 .011245728 .18299866 .011245728 .17199707 .055267335 .17199707 .0922699 .17199707 .1382904 .18899536 .20030213 .22299195 .28833009 .23899842 .3293457 .24299622 .3403473 .24299622 .36035157 .24299622 .405365 .21099854 .4423828 .16099549 .4423828 .06599426 .4423828 .0289917 .29733277 .0289917 .28833009 .0289917 .27833558 .038986207 .27833558 .040985109 .27833558 .050994874 .27833558 .051986696 .28033448 .056991579 .29634095 .083999637 .3903656 .12399292 .42037965 .1579895 .42037965 .1659851 .42037965 .18299866 .42037965 .18299866 .3883667 .18299866 .36335755 .17298889 .3373413 .1659851 .31834413 .12599182 .21231079 .10798645 .1552887 .10798645 .10827637 .10798645 .019256592 .17098999-.0107421879 .22999573-.0107421879 .2689972-.0107421879 .30299378 .0062561037 .33099366 .03425598 .31799317-.017745972 .30599977-.06674194 .2659912-.11973572 .23999024-.15385437 .20199585-.18309021 .1559906-.18309021 .14199829-.18309021 .09700012-.18005371 .07998657-.14074707 .09599304-.14074707 .10899353-.14074707 .12298584-.1287384 .1329956-.11973572 .14299011-.10673523 .14299011-.08773804 .14299011-.056747438 .115997318-.052734376 .10598755-.052734376 .08299255-.052734376 .049987794-.068740848 .049987794-.11773682 .049987794-.16796875 .09399414-.20507813 .1559906-.20507813 .25898744-.20507813 .3619995-.11373901 .3899994-.00074768069L.48599244 .38136292Z"/>
<path id="font_6_1" d="M.5049896 .18203736H.47099305C.46798707 .16001892 .45799256 .100997928 .44499208 .09098816 .43699647 .084991458 .3600006 .084991458 .34599305 .084991458H.1619873C.2669983 .17803955 .3019867 .20603943 .3619995 .25306703 .43598939 .312088 .5049896 .374115 .5049896 .46914674 .5049896 .5900879 .39898683 .6640625 .2709961 .6640625 .14698792 .6640625 .06298828 .57710269 .06298828 .4851532 .06298828 .43414308 .10598755 .42915345 .115997318 .42915345 .13999939 .42915345 .16899109 .44615174 .16899109 .48214723 .16899109 .5001526 .1619873 .53515627 .10998535 .53515627 .14099121 .6060791 .20899964 .62805178 .2559967 .62805178 .35598756 .62805178 .4079895 .5501404 .4079895 .46914674 .4079895 .38212586 .34599305 .3130951 .31399537 .27708436L.07299805 .038986207C.06298828 .02999878 .06298828 .027999878 .06298828 0H.47499085L.5049896 .18203736Z"/>
<path id="font_3_1" d="M.20298767 .0009918213C.20298767 .066986087 .17799378 .10598755 .13899231 .10598755 .10598755 .10598755 .085998538 .08099365 .085998538 .052993776 .085998538 .025985718 .10598755 0 .13899231 0 .15098572 0 .1639862 .0039978029 .17399597 .0129852299 .1769867 .01499939 .17799378 .015991211 .1789856 .015991211 .17999268 .015991211 .18099976 .01499939 .18099976 .0009918213 .18099976-.07316589 .1459961-.13328552 .11299133-.16635132 .101989749-.17736817 .101989749-.17936707 .101989749-.18237305 .101989749-.18936157 .10699463-.19335938 .11199951-.19335938 .12298584-.19335938 .20298767-.116256717 .20298767 .0009918213Z"/>
<path id="font_4_1" d="M.40899659 .23046875H.6879883C.70199587 .23046875 .72099307 .23046875 .72099307 .25045777 .72099307 .27046205 .70199587 .27046205 .6879883 .27046205H.40899659V.5500183C.40899659 .56399539 .40899659 .5830078 .3889923 .5830078 .36898805 .5830078 .36898805 .56399539 .36898805 .5500183V.27046205H.08898926C.07499695 .27046205 .055999757 .27046205 .055999757 .25045777 .055999757 .23046875 .07499695 .23046875 .08898926 .23046875H.36898805V-.05000305C.36898805-.06401062 .36898805-.08300781 .3889923-.08300781 .40899659-.08300781 .40899659-.06401062 .40899659-.05000305V.23046875Z"/>
</defs>
<path transform="matrix(1.00005,0,0,-1.00003,11.627579,236.83074)" stroke-width=".09962" stroke-linecap="butt" stroke-miterlimit="10" stroke-linejoin="miter" fill="none" stroke="#e0e0e0" d="M17.933 0V215.19615M53.79903 0V215.19615M89.66505 0V215.19615M125.53108 0V215.19615M161.39711 0V215.19615M197.26314 0V215.19615M233.12917 0V215.19615M268.9952 0V215.19615M304.8612 0V215.19615M340.72727 0V215.19615"/>
<path transform="matrix(1.00005,0,0,-1.00003,11.627579,236.83074)" stroke-width=".19925" stroke-linecap="butt" stroke-miterlimit="10" stroke-linejoin="miter" fill="none" stroke="#c0c0c0" d="M0 0V215.19615M35.86601 0V215.19615M107.59807 0V215.19615M143.4641 0V215.19615M179.33013 0V215.19615M215.19615 0V215.19615M251.06218 0V215.19615M286.9282 0V215.19615M322.79426 0V215.19615M358.66026 0V215.19615"/>
<path transform="matrix(1.00005,0,0,-1.00003,11.627579,236.83074)" stroke-width=".09962" stroke-linecap="butt" stroke-miterlimit="10" stroke-linejoin="miter" fill="none" stroke="#e0e0e0" d="M0 17.933H358.66026M0 53.79903H358.66026M0 89.66505H358.66026M0 125.53108H358.66026M0 161.39711H358.66026M0 197.26314H358.66026"/>
<path transform="matrix(1.00005,0,0,-1.00003,11.627579,236.83074)" stroke-width=".19925" stroke-linecap="butt" stroke-miterlimit="10" stroke-linejoin="miter" fill="none" stroke="#c0c0c0" d="M0 0H358.66026M0 35.86601H358.66026M0 107.59807H358.66026M0 143.4641H358.66026M0 179.33013H358.66026M0 215.19615H358.66026"/>
<path transform="matrix(1.00005,0,0,-1.00003,11.627579,236.83074)" stroke-width=".19925" stroke-linecap="butt" stroke-miterlimit="10" stroke-linejoin="miter" fill="none" stroke="#929292" d="M17.933 70.31458V73.14952M53.79903 70.31458V73.14952M89.66505 70.31458V73.14952M125.53108 70.31458V73.14952M161.39711 70.31458V73.14952M197.26314 70.31458V73.14952M233.12917 70.31458V73.14952M268.9952 70.31458V73.14952M304.8612 70.31458V73.14952M340.72727 70.31458V73.14952"/>
<path transform="matrix(1.00005,0,0,-1.00003,11.627579,236.83074)" stroke-width=".19925" stroke-linecap="butt" stroke-miterlimit="10" stroke-linejoin="miter" fill="none" stroke="#929292" d="M0 69.60603V73.85805M35.86601 69.60603V73.85805M107.59807 69.60603V73.85805M143.4641 69.60603V73.85805M179.33013 69.60603V73.85805M215.19615 69.60603V73.85805M251.06218 69.60603V73.85805M286.9282 69.60603V73.85805M322.79426 69.60603V73.85805M358.66026 69.60603V73.85805"/>
<path transform="matrix(1.00005,0,0,-1.00003,11.627579,236.83074)" stroke-width=".19925" stroke-linecap="butt" stroke-miterlimit="10" stroke-linejoin="miter" fill="none" stroke="#929292" d="M70.31458 17.933H73.14952M70.31458 53.79903H73.14952M70.31458 89.66505H73.14952M70.31458 125.53108H73.14952M70.31458 161.39711H73.14952M70.31458 197.26314H73.14952"/>
<path transform="matrix(1.00005,0,0,-1.00003,11.627579,236.83074)" stroke-width=".19925" stroke-linecap="butt" stroke-miterlimit="10" stroke-linejoin="miter" fill="none" stroke="#929292" d="M69.60603 0H73.85805M69.60603 35.86601H73.85805M69.60603 107.59807H73.85805M69.60603 143.4641H73.85805M69.60603 179.33013H73.85805M69.60603 215.19615H73.85805"/>
<path transform="matrix(1.00005,0,0,-1.00003,11.627579,236.83074)" stroke-width=".3985" stroke-linecap="butt" stroke-miterlimit="10" stroke-linejoin="miter" fill="none" stroke="#000000" d="M-6.37622 71.73204H365.0365"/>
<path transform="matrix(-1.00005,-0,0,1.00003,5.25104,165.09654)" d="M3.58653 0C2.52383 .19925 .797 .797-.3985 1.49438V-1.49438C.797-.797 2.52383-.19925 3.58653 0"/>
<path transform="matrix(1.00005,0,0,-1.00003,376.6823,165.09654)" d="M3.58653 0C2.52383 .19925 .797 .797-.3985 1.49438V-1.49438C.797-.797 2.52383-.19925 3.58653 0"/>
<path transform="matrix(1.00005,0,0,-1.00003,11.627579,236.83074)" stroke-width=".3985" stroke-linecap="butt" stroke-miterlimit="10" stroke-linejoin="miter" fill="none" stroke="#000000" d="M71.73204-6.37622V221.57239"/>
<path transform="matrix(0,1.00003,1.00005,0,83.363208,243.20716)" d="M3.58653 0C2.52383 .19925 .797 .797-.3985 1.49438V-1.49438C.797-.797 2.52383-.19925 3.58653 0"/>
<path transform="matrix(0,-1.00003,-1.00005,-0,83.363208,15.251694)" d="M3.58653 0C2.52383 .19925 .797 .797-.3985 1.49438V-1.49438C.797-.797 2.52383-.19925 3.58653 0"/>
<use data-text="&#x2212;" xlink:href="#font_1_1" transform="matrix(7.970498,0,0,-7.9703395,6.217308,175.8789)"/>
<use data-text="2" xlink:href="#font_2_2" transform="matrix(7.970498,0,0,-7.9703395,12.804634,175.8779)"/>
<use data-text="&#x2212;" xlink:href="#font_1_1" transform="matrix(7.970498,0,0,-7.9703395,42.0851,175.8789)"/>
<use data-text="1" xlink:href="#font_2_1" transform="matrix(7.970498,0,0,-7.9703395,48.672426,175.8779)"/>
<use data-text="1" xlink:href="#font_2_1" transform="matrix(7.970498,0,0,-7.9703395,117.11385,175.8789)"/>
<use data-text="2" xlink:href="#font_2_2" transform="matrix(7.970498,0,0,-7.9703395,152.98165,175.8789)"/>
<use data-text="3" xlink:href="#font_2_3" transform="matrix(7.970498,0,0,-7.9703395,188.84943,175.8789)"/>
<use data-text="4" xlink:href="#font_2_4" transform="matrix(7.970498,0,0,-7.9703395,224.71723,175.8789)"/>
<use data-text="5" xlink:href="#font_2_5" transform="matrix(7.970498,0,0,-7.9703395,260.58503,175.8789)"/>
<use data-text="6" xlink:href="#font_2_6" transform="matrix(7.970498,0,0,-7.9703395,296.4528,175.8789)"/>
<use data-text="7" xlink:href="#font_2_7" transform="matrix(7.970498,0,0,-7.9703395,332.3206,175.8789)"/>
<use data-text="8" xlink:href="#font_2_8" transform="matrix(7.970498,0,0,-7.9703395,368.1884,175.8789)"/>
<use data-text="&#x2212;" xlink:href="#font_1_1" transform="matrix(7.970498,0,0,-7.9703395,66.89534,238.9838)"/>
<use data-text="2" xlink:href="#font_2_2" transform="matrix(7.970498,0,0,-7.9703395,73.482669,238.98279)"/>
<use data-text="&#x2212;" xlink:href="#font_1_1" transform="matrix(7.970498,0,0,-7.9703395,66.89534,203.11673)"/>
<use data-text="1" xlink:href="#font_2_1" transform="matrix(7.970498,0,0,-7.9703395,73.482669,203.11573)"/>
<use data-text="1" xlink:href="#font_2_1" transform="matrix(7.970498,0,0,-7.9703395,73.482669,131.79758)"/>
<use data-text="2" xlink:href="#font_2_2" transform="matrix(7.970498,0,0,-7.9703395,73.482669,95.93051)"/>
<use data-text="3" xlink:href="#font_2_3" transform="matrix(7.970498,0,0,-7.9703395,73.482669,60.06343)"/>
<use data-text="4" xlink:href="#font_2_4" transform="matrix(7.970498,0,0,-7.9703395,73.482669,24.196335)"/>
<path transform="matrix(1.00005,0,0,-1.00003,11.627579,236.83074)" stroke-width=".99628" stroke-linecap="butt" stroke-miterlimit="10" stroke-linejoin="miter" fill="none" stroke="#e41a1c" d="M322.79426 35.86601C322.79426 35.86601 314.4704 36.91301 311.31837 37.31514 308.16636 37.71725 303.16365 38.36214 300.07664 38.76427 296.98963 39.16638 292.09126 39.81126 289.06925 40.2134 286.04725 40.61551 281.253 41.26039 278.29597 41.66252 275.33894 42.06464 270.64894 42.70952 267.75685 43.11165 264.86473 43.51376 260.2787 44.15866 257.45158 44.56078 254.62447 44.9629 250.14296 45.60779 247.38089 46.0099 244.61882 46.41203 240.24153 47.05692 237.54445 47.45903 234.84738 47.86116 230.57431 48.50604 227.94223 48.90816 225.31014 49.31029 221.14124 49.95517 218.57413 50.35728 216.00702 50.75941 211.94239 51.4043 209.44026 51.80641 206.93814 52.20854 202.97765 52.85342 200.54053 53.25555 198.10341 53.65767 194.24726 54.30254 191.87514 54.70467 189.50302 55.10678 185.751 55.75166 183.44387 56.1538 181.13672 56.55591 177.48902 57.20079 175.24681 57.60292 173.00463 58.00504 169.46079 58.64992 167.28357 59.05205 165.10636 59.45416 161.66716 60.09906 159.555 60.50117 157.44281 60.9033 154.10762 61.54819 152.06043 61.9503 150.01323 62.35243 146.78238 62.99731 144.8002 63.39943 142.81804 63.80156 139.6914 64.44644 137.77422 64.84856 135.85703 65.25069 132.83458 65.89557 130.98235 66.29768 129.13013 66.69981 126.21185 67.3447 124.4246 67.74683 122.63737 68.14894 119.82343 68.79382 118.1012 69.19595 116.37897 69.59807 113.66919 70.24295 112.01192 70.64508 110.35466 71.0472 107.74901 71.69208 106.15674 72.09421 104.56447 72.49632 102.06314 73.14119 100.53587 73.54332 99.0086 73.94543 96.61147 74.59032 95.14919 74.99245 93.6869 75.39456 91.39401 76.03946 89.99672 76.44157 88.59943 76.8437 86.41074 77.48859 85.07845 77.8907 83.74614 78.29283 81.6617 78.93771 80.39438 79.33983 79.12706 79.74196 77.14682 80.38684 75.9445 80.78896 74.74217 81.19109 72.86618 81.83597 71.72884 82.23808 70.5915 82.64021 68.8197 83.2851 67.74736 83.68723 66.67503 84.08934 65.00745 84.73422 64.0001 85.13635 62.99277 85.53847 61.4294 86.18335 60.48705 86.58548 59.54468 86.9876 58.08556 87.63248 57.20819 88.0346 56.33081 88.43672 54.97589 89.0816 54.16351 89.48373 53.35114 89.88585 52.10045 90.53073 51.35307 90.93286 50.60568 91.33498 49.4592 91.97986 48.7768 92.38197 48.0944 92.7841 47.05215 93.42899 46.43474 93.8311 45.81732 94.23323 44.8793 94.87811 44.32687 95.28023 43.77446 95.68236 42.94067 96.32724 42.45323 96.72935 41.9658 97.13148 41.2362 97.77637 40.81378 98.17848 40.39134 98.58061 39.76598 99.2255 39.40854 99.62762 39.05109 100.02974 38.52994 100.67462 38.23749 101.07675 37.94502 101.47887 37.52809 102.12375 37.30063 102.52588 37.07317 102.928 36.76047 103.57288 36.59799 103.975 36.43552 104.37712 36.22704 105.022 36.12955 105.42413 36.03206 105.82625 35.9278 106.47113 35.8953 106.87326 35.8628 107.27538 35.8628 107.92026 35.89526 108.32237 35.92773 108.7245 36.03197 109.36938 36.12943 109.7715 36.22688 110.17363 36.43533 110.81851 36.5978 111.22063 36.76025 111.62276 37.0729 112.26764 37.30035 112.66975 37.5278 113.07188 37.94467 113.71677 38.23712 114.11888 38.52956 114.52101 39.05067 115.1659 39.4081 115.56802 39.76552 115.97014 40.39084 116.61502 40.81326 117.01715 41.23567 117.41927 41.96523 118.06415 42.45262 118.46628 42.94003 118.8684 43.77382 119.51328 44.3262 119.9154 44.8786 120.31752 45.81659 120.9624 46.43398 121.36453 47.05136 121.76665 48.09358 122.41151 48.77596 122.81364 49.45833 123.21576 50.60475 123.86066 51.35213 124.26277 52.0995 124.6649 53.35014 125.30978 54.1625 125.7119 54.97487 126.11403 56.32974 126.75891 57.20709 127.16103 58.08444 127.56316 59.54353 128.20804 60.48587 128.61016 61.4282 129.01229 62.99153 129.65717 63.99886 130.05928 65.0062 130.46141 66.67372 131.1063 67.74605 131.50843 68.81836 131.91054 70.59012 132.55542 71.72743 132.95755 72.86473 133.35967 74.74072 134.00455 75.94301 134.40668 77.14531 134.80879 79.12553 135.45368 80.3928 135.8558 81.6601 136.25792 83.74452 136.9028 85.0768 137.30493 86.40907 137.70705 88.59772 138.35193 89.995 138.75406 91.39226 139.15619 93.68512 139.80106 95.14738 140.20317 96.60965 140.6053 99.00673 141.25019 100.53398 141.6523 102.06122 142.05443 104.56256 142.69931 106.15479 143.10143 107.74701 143.50356 110.3524 144.14846 112.00963 144.55057 113.66685 144.9527 116.37675 145.59758 118.09901 145.9997 119.82126 146.40183 122.63521 147.04669 124.42242 147.44882 126.20964 147.85094 129.12787 148.49582 130.98006 148.89795 132.83225 149.30007 135.85463 149.94495 137.77182 150.34708 139.689 150.74919 142.81563 151.39408 144.7978 151.7962 146.77997 152.19832 150.01087 152.8432 152.05803 153.24533 154.10518 153.64745 157.44022 154.29233 159.55236 154.69446 161.6645 155.09659 165.10379 155.74147 167.28093 156.14359 169.45809 156.54572 173.00162 157.1906 175.24375 157.59272 177.48587 157.99485 181.13353 158.63973 183.44069 159.04184 185.74785 159.44397 189.50003 160.08885 191.87218 160.49097 194.24433 160.8931 198.10047 161.53798 200.53757 161.9401 202.97469 162.34223 206.93512 162.9871 209.43721 163.38924 211.9393 163.79135 216.00389 164.43624 218.57096 164.83837 221.13802 165.24048 225.30687 165.88535 227.93895 166.28748 230.57102 166.68959 234.8441 167.33448 237.54117 167.7366 240.23822 168.13872 244.61545 168.7836 247.3775 169.18573 250.13954 169.58785 254.62105 170.23273 257.44807 170.63486 260.27513 171.03699 264.86085 171.68187 267.75288 172.08399 270.6449 172.48612 275.33485 173.131 278.29194 173.53311 281.24903 173.93524 286.04347 174.58013 289.06553 174.98224 292.0876 175.38437 296.98594 176.02925 300.0729 176.43137 303.1599 176.8335 308.16246 177.47838 311.31446 177.8805 314.46644 178.28263 322.79029 179.32964 322.79029 179.32964"/>
<path transform="matrix(1.00005,0,0,-1.00003,11.627579,236.83074)" stroke-width=".79701" stroke-linecap="butt" stroke-miterlimit="10" stroke-linejoin="miter" fill="none" stroke="#ff0000" d="M322.79426 35.86601 324.95866 35.59557"/>
<path transform="matrix(-.9923096,-.12400372,-.12400619,.9922898,336.60249,201.2341)" d="M2.59026 0-1.55415 2.0722 0 0-1.55415-2.0722" fill="#ff0000"/>
<path transform="matrix(1.00005,0,0,-1.00003,11.627579,236.83074)" stroke-width=".79701" stroke-linecap="butt" stroke-miterlimit="10" stroke-linejoin="miter" fill="none" stroke="#ff0000" d="M107.59807 71.73204 108.67628 71.46255"/>
<path transform="matrix(-.97018846,-.24251729,-.24252212,.9701691,120.3093,165.36606)" d="M2.59026 0-1.55415 2.0722 0 0-1.55415-2.0722" fill="#ff0000"/>
<path transform="matrix(1.00005,0,0,-1.00003,11.627579,236.83074)" stroke-width=".79701" stroke-linecap="butt" stroke-miterlimit="10" stroke-linejoin="miter" fill="none" stroke="#ff0000" d="M35.86601 107.59807V105.26141"/>
<path transform="matrix(0,-1.00003,-1.00005,-0,47.49538,131.56616)" d="M2.59026 0-1.55415 2.0722 0 0-1.55415-2.0722" fill="#ff0000"/>
<path transform="matrix(1.00005,0,0,-1.00003,11.627579,236.83074)" stroke-width=".79701" stroke-linecap="butt" stroke-miterlimit="10" stroke-linejoin="miter" fill="none" stroke="#ff0000" d="M107.59807 143.4641 105.72678 142.99639"/>
<path transform="matrix(.97018846,-.2425073,-.24251212,-.9701691,117.35962,93.83006)" d="M2.59026 0-1.55415 2.0722 0 0-1.55415-2.0722" fill="#ff0000"/>
<path transform="matrix(1.00005,0,0,-1.00003,11.627579,236.83074)" stroke-width=".79701" stroke-linecap="butt" stroke-miterlimit="10" stroke-linejoin="miter" fill="none" stroke="#ff0000" d="M322.79426 179.33013 320.60078 179.05609"/>
<path transform="matrix(.9923096,-.123983729,-.12398619,-.9922898,332.2444,57.76927)" d="M2.59026 0-1.55415 2.0722 0 0-1.55415-2.0722" fill="#ff0000"/>
<path transform="matrix(1.00005,0,0,-1.00003,11.627579,236.83074)" stroke-width=".79701" stroke-linecap="butt" stroke-miterlimit="10" stroke-linejoin="miter" fill="none" stroke="#ff0000" d=""/>
<use data-text="t" xlink:href="#font_3_2" transform="matrix(9.963098,0,0,-9.962899,319.63096,210.90396)"/>
<use data-text="=" xlink:href="#font_4_5" transform="matrix(9.963098,0,0,-9.962899,325.99629,210.90296)"/>
<use data-text="&#x2212;" xlink:href="#font_5_1" transform="matrix(9.963098,0,0,-9.962899,336.51283,210.90396)"/>
<use data-text="2" xlink:href="#font_4_4" transform="matrix(9.963098,0,0,-9.962899,344.26219,210.90296)"/>
<use data-text="t" xlink:href="#font_3_2" transform="matrix(9.963098,0,0,-9.962899,120.26,160.74645)"/>
<use data-text="=" xlink:href="#font_4_5" transform="matrix(9.963098,0,0,-9.962899,126.62532,160.74544)"/>
<use data-text="&#x2212;" xlink:href="#font_5_1" transform="matrix(9.963098,0,0,-9.962899,137.14185,160.74645)"/>
<use data-text="1" xlink:href="#font_4_3" transform="matrix(9.963098,0,0,-9.962899,144.89124,160.74544)"/>
<use data-text="t" xlink:href="#font_3_2" transform="matrix(9.963098,0,0,-9.962899,22.112099,132.4396)"/>
<use data-text="=" xlink:href="#font_4_5" transform="matrix(9.963098,0,0,-9.962899,28.477417,132.4386)"/>
<use data-text="0" xlink:href="#font_4_2" transform="matrix(9.963098,0,0,-9.962899,38.978525,132.4386)"/>
<use data-text="t" xlink:href="#font_3_2" transform="matrix(9.963098,0,0,-9.962899,119.76198,87.35124)"/>
<use data-text="=" xlink:href="#font_4_5" transform="matrix(9.963098,0,0,-9.962899,126.1273,87.350238)"/>
<use data-text="1" xlink:href="#font_4_3" transform="matrix(9.963098,0,0,-9.962899,136.6284,87.350238)"/>
<use data-text="t" xlink:href="#font_3_2" transform="matrix(9.963098,0,0,-9.962899,323.50614,53.975236)"/>
<use data-text="=" xlink:href="#font_4_5" transform="matrix(9.963098,0,0,-9.962899,329.87147,53.974229)"/>
<use data-text="2" xlink:href="#font_4_4" transform="matrix(9.963098,0,0,-9.962899,340.37257,53.974229)"/>
<use data-text="x" xlink:href="#font_3_3" transform="matrix(9.963098,0,0,-9.962899,383.78916,167.24164)"/>
<use data-text="y" xlink:href="#font_3_4" transform="matrix(9.963098,0,0,-9.962899,80.74203,6.2078096)"/>
<path transform="matrix(1.00005,0,0,-1.00003,11.627579,236.83074)" d="M118.89987-60.81209H239.76039V-43.23783H118.89987Z" fill="#ffffff"/>
<path transform="matrix(1.00005,0,0,-1.00003,11.627579,236.83074)" stroke-width=".3985" stroke-linecap="butt" stroke-miterlimit="10" stroke-linejoin="miter" fill="none" stroke="#000000" d="M118.89987-60.81209H239.76039V-43.23783H118.89987Z"/>
<path transform="matrix(1.00005,0,0,-1.00003,134.0217,288.8573)" stroke-width=".99628" stroke-linecap="butt" stroke-miterlimit="10" stroke-linejoin="miter" fill="none" stroke="#e41a1c" d="M0 0C0 0 6.14426 0 8.50412 0 10.86398 0 17.00826 0 17.00826 0"/>
<use data-text="x" xlink:href="#font_3_3" transform="matrix(9.963098,0,0,-9.962899,153.52066,292.1654)"/>
<use data-text="=" xlink:href="#font_4_5" transform="matrix(9.963098,0,0,-9.962899,161.98308,292.1644)"/>
<use data-text="2" xlink:href="#font_4_4" transform="matrix(9.963098,0,0,-9.962899,172.48419,292.1644)"/>
<use data-text="t" xlink:href="#font_3_2" transform="matrix(9.963098,0,0,-9.962899,177.48084,292.1654)"/>
<use data-text="2" xlink:href="#font_6_1" transform="matrix(6.9741489,0,0,-6.9740097,181.07904,288.5493)"/>
<use data-text="&#x2212;" xlink:href="#font_5_1" transform="matrix(9.963098,0,0,-9.962899,187.76236,292.1654)"/>
<use data-text="1" xlink:href="#font_4_3" transform="matrix(9.963098,0,0,-9.962899,197.72586,292.1644)"/>
<use data-text="," xlink:href="#font_3_1" transform="matrix(9.963098,0,0,-9.962899,202.70713,292.1654)"/>
<use data-text="y" xlink:href="#font_3_4" transform="matrix(9.963098,0,0,-9.962899,207.12076,292.1654)"/>
<use data-text="=" xlink:href="#font_4_5" transform="matrix(9.963098,0,0,-9.962899,215.14475,292.1644)"/>
<use data-text="t" xlink:href="#font_3_2" transform="matrix(9.963098,0,0,-9.962899,225.66126,292.1654)"/>
<use data-text="+" xlink:href="#font_4_1" transform="matrix(9.963098,0,0,-9.962899,231.47354,292.1644)"/>
<use data-text="1" xlink:href="#font_4_3" transform="matrix(9.963098,0,0,-9.962899,241.4267,292.1644)"/>
</svg>
