<svg xmlns="http://www.w3.org/2000/svg" xmlns:xlink="http://www.w3.org/1999/xlink" version="1.1" width="159" height="189" viewBox="0 0 159 189">
<defs>
<path id="font_1_1" d="M.33399964 .30233766C.33999635 .32835389 .36299134 .42037965 .43299867 .42037965 .43798829 .42037965 .46199037 .42037965 .48298646 .40734864 .45498658 .402359 .43499757 .37734986 .43499757 .35334779 .43499757 .33735658 .44599916 .31835938 .47299195 .31835938 .49499513 .31835938 .5269928 .3363495 .5269928 .37635804 .5269928 .42837525 .46798707 .4423828 .43399049 .4423828 .37599183 .4423828 .34098817 .38935853 .32899476 .36634828 .3039856 .43237306 .25 .4423828 .22099304 .4423828 .116989139 .4423828 .05999756 .3133545 .05999756 .28834535 .05999756 .27833558 .069992069 .27833558 .07199097 .27833558 .07998657 .27833558 .08299255 .28033448 .084991458 .28933717 .11898804 .39535523 .18499756 .42037965 .21899414 .42037965 .23799134 .42037965 .272995 .4113617 .272995 .35334779 .272995 .32235719 .2559967 .25532533 .21899414 .11528015 .20298767 .053268434 .16799927 .011245728 .12399292 .011245728 .117996219 .011245728 .09498596 .011245728 .07398987 .024276734 .09899902 .029266358 .12098694 .05027771 .12098694 .07827759 .12098694 .105270389 .09899902 .11328125 .083999637 .11328125 .053985597 .11328125 .0289917 .08728027 .0289917 .055267335 .0289917 .009246826 .07899475-.0107421879 .12298584-.0107421879 .18899536-.0107421879 .22499085 .059280397 .22799683 .0652771 .23999024 .028274537 .27598573-.0107421879 .33599855-.0107421879 .43899537-.0107421879 .49598695 .118270877 .49598695 .14328003 .49598695 .1532898 .4869995 .1532898 .48399354 .1532898 .47499085 .1532898 .47299195 .14929199 .47099305 .14228821 .43798829 .03527832 .36999513 .011245728 .33799745 .011245728 .29899598 .011245728 .2829895 .043273927 .2829895 .07727051 .2829895 .09927368 .2889862 .121276859 .2999878 .16529846L.33399964 .30233766Z"/>
<path id="font_1_2" d="M.48599244 .38136292C.48999024 .39537049 .48999024 .39736939 .48999024 .40437318 .48999024 .42237855 .47599793 .43138124 .46099855 .43138124 .45098878 .43138124 .43499757 .42536927 .42599488 .41036988 .42399598 .405365 .41600038 .37435914 .4119873 .35635377 .40499879 .33035279 .397995 .30334474 .3919983 .27633668L.34700013 .09628296C.34298707 .08126831 .2999878 .011245728 .23399353 .011245728 .18299866 .011245728 .17199707 .055267335 .17199707 .0922699 .17199707 .1382904 .18899536 .20030213 .22299195 .28833009 .23899842 .3293457 .24299622 .3403473 .24299622 .36035157 .24299622 .405365 .21099854 .4423828 .16099549 .4423828 .06599426 .4423828 .0289917 .29733277 .0289917 .28833009 .0289917 .27833558 .038986207 .27833558 .040985109 .27833558 .050994874 .27833558 .051986696 .28033448 .056991579 .29634095 .083999637 .3903656 .12399292 .42037965 .1579895 .42037965 .1659851 .42037965 .18299866 .42037965 .18299866 .3883667 .18299866 .36335755 .17298889 .3373413 .1659851 .31834413 .12599182 .21231079 .10798645 .1552887 .10798645 .10827637 .10798645 .019256592 .17098999-.0107421879 .22999573-.0107421879 .2689972-.0107421879 .30299378 .0062561037 .33099366 .03425598 .31799317-.017745972 .30599977-.06674194 .2659912-.11973572 .23999024-.15385437 .20199585-.18309021 .1559906-.18309021 .14199829-.18309021 .09700012-.18005371 .07998657-.14074707 .09599304-.14074707 .10899353-.14074707 .12298584-.1287384 .1329956-.11973572 .14299011-.10673523 .14299011-.08773804 .14299011-.056747438 .115997318-.052734376 .10598755-.052734376 .08299255-.052734376 .049987794-.068740848 .049987794-.11773682 .049987794-.16796875 .09399414-.20507813 .1559906-.20507813 .25898744-.20507813 .3619995-.11373901 .3899994-.00074768069L.48599244 .38136292Z"/>
<path id="font_2_1" d="M.3880005 .6046295C.39698792 .63861086 .39898683 .6496124 .4909973 .6496124 .5189972 .6496124 .5289917 .6496124 .5289917 .6686096 .5289917 .6706085 .5269928 .6826172 .5119934 .6826172 .4909973 .6826172 .46099855 .680603 .43998719 .6796112H.36799623C.2639923 .6796112 .23999024 .6826172 .23298645 .6826172 .22898865 .6826172 .21299744 .6826172 .21299744 .66360476 .21299744 .6496124 .22599793 .6496124 .24198914 .6496124 .2749939 .6496124 .3039856 .6496124 .3039856 .6336212 .3039856 .6296234 .30299378 .62861636 .2999878 .6156311L.1659851 .07896423C.15699768 .040985109 .15499878 .032989503 .08099365 .032989503 .06199646 .032989503 .049987794 .032989503 .049987794 .01399231 .049987794 0 .06298828 0 .07998657 0H.5629883C.58799746 0 .58898928 .0009918213 .5970001 .019989014 .6069946 .04798889 .6799927 .23587036 .6799927 .24586487 .6799927 .2548523 .6719971 .25985719 .6649933 .25985719 .6539917 .25985719 .6519928 .2528534 .644989 .23786927 .60899356 .14492798 .56599429 .032989503 .3869934 .032989503H.2599945C.25099183 .034988405 .24798584 .034988405 .24798584 .041992189 .24798584 .049987794 .25 .0579834 .2519989 .0639801L.3880005 .6046295Z"/>
<path id="font_3_1" d="M.35899354 .6349335C.35899354 .66503909 .35499574 .66503909 .32499696 .66503909 .25898744 .60058596 .15699768 .60058596 .12098694 .60058596V.5615845C.14698792 .5615845 .21299744 .5615845 .272995 .58958438V.08496094C.272995 .051986696 .272995 .038986207 .16999817 .038986207H.1269989V0C.18199158 .0039978029 .2599945 .0039978029 .31599427 .0039978029 .37199403 .0039978029 .44999696 .0039978029 .5049896 0V.038986207H.46199037C.35899354 .038986207 .35899354 .051986696 .35899354 .08496094V.6349335Z"/>
<path id="font_4_1" d="M.47200013 .6938629C.46099855 .7138672 .44898988 .7138672 .44198609 .7138672 .43499757 .7138672 .4229889 .7138672 .4119873 .6938629L.057998659 .024993897C.050994874 .01399231 .050994874 .011993408 .050994874 .009994507 .050994874 0 .05899048 0 .07499695 0H.8089905C.82598879 0 .83299258 0 .83299258 .009994507 .83299258 .011993408 .83299258 .01399231 .82598879 .024993897L.47200013 .6938629M.40899659 .61587527 .69400027 .07899475H.12399292L.40899659 .61587527Z"/>
<path id="font_2_2" d="M.5009918 .39942933C.45700074 .38842774 .45498658 .34942628 .45498658 .34542848 .45498658 .3234253 .47200013 .3084259 .49398805 .3084259 .5159912 .3084259 .5499878 .3254242 .5499878 .36842347 .5499878 .42539979 .4869995 .44140626 .44999696 .44140626 .40299989 .44140626 .36499024 .4084015 .34199525 .36943055 .31999208 .4223938 .2679901 .44140626 .22698975 .44140626 .117996219 .44140626 .056991579 .31643678 .056991579 .28840638 .056991579 .27938844 .06399536 .27539063 .07199097 .27539063 .083999637 .27539063 .085998538 .2803955 .08898926 .29240418 .11199951 .36543275 .17199707 .4133911 .22399903 .4133911 .2630005 .4133911 .28199769 .385437 .28199769 .34942628 .28199769 .32943727 .269989 .2834015 .2619934 .25135804 .25498963 .22232056 .23298645 .13320923 .22799683 .11419678 .21398926 .060195924 .17799378 .018234253 .1329956 .018234253 .1289978 .018234253 .102996829 .018234253 .08198547 .032196046 .12799073 .04319763 .12799073 .08518982 .12799073 .0861969 .12799073 .109191898 .10998535 .12319946 .08799744 .12319946 .06098938 .12319946 .03199768 .10018921 .03199768 .062194826 .03199768 .016220093 .08099365-.009765625 .13198853-.009765625 .18499756-.009765625 .22200012 .030197144 .23999024 .062194826 .2619934 .01322937 .30799867-.009765625 .35598756-.009765625 .46499635-.009765625 .5249939 .1151886 .5249939 .143219 .5249939 .15322876 .5169983 .15623474 .5099945 .15623474 .49798585 .15623474 .49598695 .14923096 .49299623 .13922119 .47299195 .07218933 .41600038 .018234253 .35798646 .018234253 .32499696 .018234253 .30099488 .04019165 .30099488 .0821991 .30099488 .10218811 .30699159 .12519837 .32099916 .18127442 .32798768 .21130371 .34999085 .29942323 .35499574 .31843568 .36898805 .37042237 .4039917 .4133911 .44898988 .4133911 .45399476 .4133911 .47999574 .4133911 .5009918 .39942933Z"/>
<path id="font_2_3" d="M.5179901 .37738038C.5219879 .39138795 .5219879 .39338685 .5219879 .40039063 .5219879 .42539979 .5019989 .43139649 .48999024 .43139649 .4850006 .43139649 .46199037 .43040467 .44898988 .40438844 .44699098 .3993988 .43798829 .3633728 .43299867 .34236146L.37298585 .102264408C.37199403 .09925842 .32899476 .018234253 .2559967 .018234253 .20698548 .018234253 .18998719 .054244996 .18998719 .09925842 .18998719 .1572876 .22399903 .24632263 .24699402 .3043518 .25698854 .32936097 .2599945 .33836366 .2599945 .35636903 .2599945 .4113922 .21598816 .44140626 .16999817 .44140626 .070999149 .44140626 .02999878 .300354 .02999878 .28834535 .02999878 .27934266 .036987306 .27534486 .04499817 .27534486 .057998659 .27534486 .05899048 .28134156 .06199646 .29135133 .08799744 .37838746 .1309967 .4133911 .16699219 .4133911 .18199158 .4133911 .19099427 .4033966 .19099427 .38038636 .19099427 .359375 .18299866 .33636476 .17599488 .31835938 .1349945 .21231079 .117996219 .1612854 .117996219 .11427307 .117996219 .016220093 .19198609-.009765625 .25099183-.009765625 .2979889-.009765625 .33198548 .011230469 .35598756 .034240724 .34199525-.021774292 .33198548-.060791017 .2939911-.108795169 .26098634-.14985657 .22099304-.17610169 .17599488-.17610169 .15899658-.17610169 .12098694-.17308045 .100997928-.14279175 .1539917-.13879395 .1579895-.09379578 .1579895-.08778381 .1579895-.06378174 .13999939-.05078125 .11898804-.05078125 .09700012-.05078125 .06199646-.0677948 .06199646-.11679077 .06199646-.1639862 .10499573-.20410156 .17599488-.20410156 .27799989-.20410156 .3929901-.121795658 .4229889-.00077819827L.5179901 .37738038Z"/>
<path id="font_3_2" d="M.5379944 .18702698H.5009918C.49899293 .17301941 .4889984 .10699463 .47399903 .09599304 .46699525 .08999634 .38598634 .08999634 .37199403 .08999634H.18499756L.31298829 .19403076C.34700013 .22103882 .43598939 .28504945 .46699525 .31506349 .49699403 .3450775 .5379944 .39608766 .5379944 .46710206 .5379944 .5920563 .4249878 .66503909 .29100038 .66503909 .1619873 .66503909 .07199097 .58006289 .07199097 .48609925 .07199097 .43510438 .114990238 .42910768 .12599182 .42910768 .15098572 .42910768 .17999268 .44709779 .17999268 .48310853 .17999268 .50509646 .16699219 .5371094 .12298584 .5371094 .1459961 .5880585 .20698548 .6260376 .27598573 .6260376 .3809967 .6260376 .43699647 .5480957 .43699647 .46710206 .43699647 .39608766 .3899994 .32305909 .31999208 .25904847L.08299255 .041992189C.07299805 .03199768 .07199097 .0309906 .07199097 0H.5069885L.5379944 .18702698Z"/>
<path id="font_3_3" d="M.2939911 .33203126C.3789978 .33203126 .43598939 .274765 .43598939 .17237854 .43598939 .062408449 .36999513 .014511108 .29699708 .014511108 .269989 .014511108 .16699219 .020492554 .12199402 .07836914 .16099549 .0823822 .1769867 .10836792 .1769867 .13537598 .1769867 .16937256 .15299988 .19238281 .11999512 .19238281 .09298706 .19238281 .06298828 .17536927 .06298828 .13337708 .06298828 .034469606 .17298889-.021484375 .2999878-.021484375 .44799806-.021484375 .5469971 .07337952 .5469971 .17237854 .5469971 .24562073 .4909973 .3229828 .37199403 .35302735 .45098878 .37902833 .5149994 .44306947 .5149994 .5251007 .5149994 .60505679 .42099 .66503909 .30099488 .66503909 .18399048 .66503909 .09498596 .61105349 .09498596 .5290985 .09498596 .48609925 .12799073 .47409059 .147995 .47409059 .17399597 .47409059 .20098877 .49209596 .20098877 .5270996 .20098877 .5580902 .1789856 .5760956 .1519928 .5800934 .19898987 .6320343 .2899933 .6320343 .29899598 .6320343 .34999085 .6320343 .4139862 .60806277 .4139862 .5251007 .4139862 .47009278 .3829956 .37402345 .2829895 .36802674 .2649994 .36701966 .23799134 .36502076 .22898865 .36502076 .21899414 .36402894 .20799256 .36302186 .20799256 .34802247 .20799256 .33203126 .21899414 .33203126 .23599243 .33203126H.2939911Z"/>
</defs>
<path transform="matrix(1.00009,0,0,-1.00003,3.8389893,184.58615)" stroke-width=".3985" stroke-linecap="butt" stroke-miterlimit="10" stroke-linejoin="miter" fill="none" stroke="#d5d6d5" d="M0 0H141.73404M0 28.3468H141.73404M0 56.69362H141.73404M0 85.04042H141.73404M0 113.38724H141.73404M0 141.73404H141.73404M0 170.07089H141.73404M0 0V170.08086M28.3468 0V170.08086M56.69362 0V170.08086M85.04042 0V170.08086M113.38724 0V170.08086M141.72409 0V170.08086M141.73404 170.08086"/>
<path transform="matrix(1.00009,0,0,-1.00003,3.8389893,184.58615)" stroke-width=".3985" stroke-linecap="butt" stroke-miterlimit="10" stroke-linejoin="miter" fill="none" stroke="#000000" d="M-2.83484 0H144.11061"/>
<path transform="matrix(1.00009,0,0,-1.00003,147.96257,184.58615)" stroke-width=".31879" stroke-linecap="round" stroke-linejoin="round" fill="none" stroke="#000000" d="M-1.19551 1.59401C-1.09587 .99626 0 .09961 .29886 0 0-.09961-1.09587-.99626-1.19551-1.59401"/>
<use data-text="x" xlink:href="#font_1_1" transform="matrix(9.963496,0,0,-9.962899,151.94132,186.73122)"/>
<path transform="matrix(1.00009,0,0,-1.00003,3.8389893,184.58615)" stroke-width=".3985" stroke-linecap="butt" stroke-miterlimit="10" stroke-linejoin="miter" fill="none" stroke="#000000" d="M0-2.83484V172.45743"/>
<path transform="matrix(0,-1.00003,-1.00009,-0,3.8389893,12.123535)" stroke-width=".31879" stroke-linecap="round" stroke-linejoin="round" fill="none" stroke="#000000" d="M-1.19551 1.59401C-1.09587 .99626 0 .09961 .29886 0 0-.09961-1.09587-.99626-1.19551-1.59401"/>
<use data-text="y" xlink:href="#font_1_2" transform="matrix(9.963496,0,0,-9.962899,1.2177506,6.207794)"/>
<path transform="matrix(1.00009,0,0,-1.00003,3.8389893,184.58615)" stroke-width=".3985" stroke-linecap="butt" stroke-miterlimit="10" stroke-linejoin="miter" fill="none" stroke="#000000" d="M28.3468 7.08669 33.07097 9.64558 37.79515 12.59808 42.51933 15.94443 47.24352 19.68425 51.9677 23.8178 56.69188 28.34506 61.41606 33.26582 66.14023 38.58043 70.86441 44.28864 75.5886 50.39044 80.31277 56.88586 85.03696 63.77512 89.76114 71.05788 94.48532 78.73434 99.20949 86.80452 103.93367 95.2682 108.65785 104.12572 113.38203 113.37685 118.10622 123.02158 122.8304 133.05992 127.55458 143.4921 132.27877 154.31775 137.00293 165.53714 141.72711 177.15024"/>
<path transform="matrix(1.00009,0,0,-1.00003,3.8389893,184.58615)" stroke-width=".3985" stroke-linecap="butt" stroke-miterlimit="10" stroke-linejoin="miter" fill="none" stroke="#ff0000" d="M28.3468 7.08669 56.69362 28.3468 85.04042 63.7803 113.38724 113.38724 141.73404 177.16754"/>
<path transform="matrix(1.00009,0,0,-1.00003,3.8389893,184.58615)" stroke-width=".3985" stroke-linecap="butt" stroke-miterlimit="10" stroke-linejoin="miter" fill="none" stroke="#0000ff" d="M28.3468 7.08669H56.69362V28.3468"/>
<path transform="matrix(1.00009,0,0,-1.00003,3.8389893,184.58615)" stroke-width=".3985" stroke-linecap="butt" stroke-miterlimit="10" stroke-linejoin="miter" fill="none" stroke="#ffffff" d="M34.01608 0H49.03984"/>
<path transform="matrix(1.00009,0,0,-1.00003,3.8389893,184.58615)" stroke-width=".3985" stroke-linecap="butt" stroke-miterlimit="10" stroke-linejoin="miter" fill="none" stroke="#000000" d="M28.3468 7.08669C28.16745 8.07294 28.64566 9.1788 29.84116 10.07544L39.22466 17.11319C40.42015 18.00984 40.89836 19.11569 40.719 20.10196 41.61562 19.65363 42.81113 19.80309 44.00662 20.69974L53.39015 27.7375C54.58565 28.63416 55.78114 28.78362 56.67775 28.3353"/>
<use data-text="L" xlink:href="#font_2_1" transform="matrix(7.970817,0,0,-7.9703395,36.425924,162.24149)"/>
<use data-text="1" xlink:href="#font_3_1" transform="matrix(5.978138,0,0,-5.97778,42.185445,163.34851)"/>
<path transform="matrix(1.00009,0,0,-1.00003,3.8389893,184.58615)" stroke-width=".3985" stroke-linecap="butt" stroke-miterlimit="10" stroke-linejoin="miter" fill="none" stroke="#000000" d="M56.69362 7.08669C56.2453 6.19002 55.1992 5.59227 53.70479 5.59227H45.50905C44.01463 5.59227 42.96852 4.9945 42.52022 4.09785 42.07191 4.9945 41.0258 5.59227 39.53139 5.59227H31.33563C29.84122 5.59227 28.7951 6.19002 28.3468 7.08669"/>
<use data-text="&#x2206;" xlink:href="#font_4_1" transform="matrix(7.970817,0,0,-7.9703395,38.3751,185.46918)"/>
<use data-text="x" xlink:href="#font_2_2" transform="matrix(7.970817,0,0,-7.9703395,45.43273,185.46918)"/>
<use data-text="1" xlink:href="#font_3_1" transform="matrix(5.978138,0,0,-5.97778,50.200159,186.5762)"/>
<path transform="matrix(1.00009,0,0,-1.00003,3.8389893,184.58615)" stroke-width=".3985" stroke-linecap="butt" stroke-miterlimit="10" stroke-linejoin="miter" fill="none" stroke="#000000" d="M56.69362 28.3468C57.59027 27.8985 58.18803 26.85239 58.18803 25.35797V20.70557C58.18803 19.21115 58.78578 18.16505 59.68245 17.71674 58.78578 17.26843 58.18803 16.22232 58.18803 14.7279V10.07552C58.18803 8.5811 57.59027 7.53499 56.69362 7.08669"/>
<use data-text="&#x2206;" xlink:href="#font_4_1" transform="matrix(7.970817,0,0,-7.9703395,64.05741,168.81768)"/>
<use data-text="y" xlink:href="#font_2_3" transform="matrix(7.970817,0,0,-7.9703395,71.11504,168.81768)"/>
<use data-text="1" xlink:href="#font_3_1" transform="matrix(5.978138,0,0,-5.97778,75.30142,169.9247)"/>
<path transform="matrix(1.00009,0,0,-1.00003,3.8389893,184.58615)" stroke-width=".3985" stroke-linecap="butt" stroke-miterlimit="10" stroke-linejoin="miter" fill="none" stroke="#000000" d="M56.69362 28.3468C56.27351 29.25694 56.46025 30.44719 57.39375 31.61406L67.82718 44.65572C68.76068 45.82259 68.94742 47.01282 68.52731 47.92297 69.50749 47.71289 70.6277 48.15633 71.5612 49.32321L81.99464 62.36487C82.92815 63.53174 84.04837 63.97516 85.02853 63.7651"/>
<use data-text="L" xlink:href="#font_2_1" transform="matrix(7.970817,0,0,-7.9703395,64.775478,133.89463)"/>
<use data-text="2" xlink:href="#font_3_2" transform="matrix(5.978138,0,0,-5.97778,70.534999,135.00165)"/>
<path transform="matrix(1.00009,0,0,-1.00003,3.8389893,184.58615)" stroke-width=".3985" stroke-linecap="butt" stroke-miterlimit="10" stroke-linejoin="miter" fill="none" stroke="#000000" d="M85.04042 63.7803C84.48436 64.61435 84.48436 65.81914 85.22577 67.11658L96.41637 86.70023C97.15776 87.99767 97.15778 89.20245 96.60172 90.0365 97.60258 89.98088 98.64053 90.59254 99.38194 91.89L110.57256 111.47366C111.31395 112.77112 112.35191 113.38278 113.35278 113.32716"/>
<use data-text="L" xlink:href="#font_2_1" transform="matrix(7.970817,0,0,-7.9703395,93.12402,91.37235)"/>
<use data-text="3" xlink:href="#font_3_3" transform="matrix(5.978138,0,0,-5.97778,98.883548,92.47938)"/>
</svg>
