<svg xmlns="http://www.w3.org/2000/svg" xmlns:xlink="http://www.w3.org/1999/xlink" xmlns:inkscape="http://www.inkscape.org/namespaces/inkscape" version="1.1" width="197" height="165" viewBox="0 0 197 165">
<defs>
<clipPath id="clip_1">
<path transform="matrix(1,0,0,-1.00002,1.0960007,163.18994)" d="M0 0H194.26456V161.39028H0Z"/>
</clipPath>
<clipPath id="clip_2">
<path transform="matrix(1,0,0,-1.00002,1.0960007,163.18994)" d="M0 0H194.26456V161.39028H0Z"/>
</clipPath>
<path id="font_3_1" d="M.37298585 .37835694C.35499574 .41537477 .32598878 .4423828 .2809906 .4423828 .1639862 .4423828 .039993287 .29533387 .039993287 .14929199 .039993287 .055267335 .09498596-.0107421879 .17298889-.0107421879 .19299317-.0107421879 .24299622-.0067443849 .30299378 .06427002 .31098939 .022247315 .34599305-.0107421879 .3939972-.0107421879 .42900086-.0107421879 .45199586 .012252808 .46798707 .044265748 .4850006 .08027649 .49798585 .14129639 .49798585 .14329529 .49798585 .1532898 .4889984 .1532898 .48599244 .1532898 .47599793 .1532898 .47499085 .14929199 .47200013 .13528443 .45498658 .07026672 .43699647 .011245728 .3959961 .011245728 .36898805 .011245728 .3659973 .037261964 .3659973 .057266237 .3659973 .07926941 .36799623 .08728027 .3789978 .13128662 .3899994 .17329407 .3919983 .18330384 .40098573 .22131348L.43699647 .36135865C.44400025 .38935853 .44400025 .39135743 .44400025 .39537049 .44400025 .41236878 .43199159 .42237855 .4149933 .42237855 .3909912 .42237855 .37599183 .4003601 .37298585 .37835694M.30799867 .119277957C.30299378 .10127258 .30299378 .09927368 .28799439 .08227539 .24398804 .027252198 .20298767 .011245728 .1749878 .011245728 .125 .011245728 .11099243 .06626892 .11099243 .105285648 .11099243 .1552887 .14299011 .27833558 .1659851 .32434083 .19699097 .38336183 .24198914 .42037965 .28199769 .42037965 .34700013 .42037965 .36099244 .3383484 .36099244 .33235169 .36099244 .32633973 .35899354 .32034303 .35798646 .31533814L.30799867 .119277957Z"/>
<path id="font_3_2" d="M.23899842 .68333438C.23899842 .6843262 .23899842 .69433596 .22599793 .69433596 .20298767 .69433596 .12998963 .6863251 .10398865 .6843262 .09599304 .68333438 .084991458 .6823273 .084991458 .6643219 .084991458 .6523285 .09399414 .6523285 .10899353 .6523285 .15699768 .6523285 .15899658 .6453247 .15899658 .6353302 .15899658 .6283264 .1499939 .5943451 .14498902 .573349L.06298828 .24731446C.050994874 .1973114 .04699707 .18130493 .04699707 .14628601 .04699707 .05126953 .099990848-.0107421879 .17399597-.0107421879 .2919922-.0107421879 .4149933 .1382904 .4149933 .28233338 .4149933 .37335206 .3619995 .4423828 .28199769 .4423828 .23599243 .4423828 .19499207 .41337586 .16499329 .38235475L.23899842 .68333438M.14498902 .30534364C.15098572 .3273468 .15098572 .3293457 .1599884 .3403473 .20899964 .405365 .2539978 .42037965 .27999879 .42037965 .31599427 .42037965 .34298707 .3903656 .34298707 .32633973 .34298707 .26733399 .30999757 .15229798 .2919922 .11428833 .25898744 .04725647 .21299744 .011245728 .17399597 .011245728 .13999939 .011245728 .10699463 .038253786 .10699463 .11227417 .10699463 .13128662 .10699463 .15029907 .12298584 .21331787L.14498902 .30534364Z"/>
<path id="font_3_3" d="M.36698915 .3996582H.45298768C.47299195 .3996582 .48298646 .3996582 .48298646 .41966249 .48298646 .43066407 .47299195 .43066407 .45599366 .43066407H.37298585L.3939972 .5449524C.397995 .5660095 .4119873 .6370239 .41799928 .6490326 .4269867 .66804507 .44400025 .68307498 .46499635 .68307498 .46899415 .68307498 .49499513 .68307498 .5139923 .66503909 .46998597 .661026 .45999146 .6260376 .45999146 .6110382 .45999146 .58802798 .47799684 .57603457 .49699403 .57603457 .522995 .57603457 .5519867 .5980377 .5519867 .6360321 .5519867 .6820679 .5059967 .7050781 .46499635 .7050781 .43099977 .7050781 .36799623 .68707278 .33799745 .58802798 .33198548 .56700137 .32899476 .5569763 .30499269 .43066407H.23599243C.21699524 .43066407 .20599365 .43066407 .20599365 .4116516 .20599365 .3996582 .21499634 .3996582 .23399353 .3996582H.2999878L.22499085 .0048828127C.20698548-.09207153 .18998719-.18309021 .13798523-.18309021 .13398743-.18309021 .10899353-.18309021 .08999634-.16506958 .13598633-.1620636 .14498902-.12606812 .14498902-.111068729 .14498902-.08807373 .1269989-.07606506 .10798645-.07606506 .08198547-.07606506 .052993776-.09806824 .052993776-.13606262 .052993776-.18109131 .09700012-.20507813 .13798523-.20507813 .19299317-.20507813 .23298645-.14607239 .25099183-.108062747 .2829895-.04508972 .30599977 .07583618 .30699159 .082839969L.36698915 .3996582Z"/>
<path id="font_4_1" d="M.33099366-.2400055C.33099366-.23701477 .33099366-.23500061 .31399537-.21800232 .18899536-.0920105 .15699768 .09700012 .15699768 .25 .15699768 .42399598 .19499207 .59799197 .31799317 .72299197 .33099366 .73498538 .33099366 .7369995 .33099366 .73999026 .33099366 .746994 .32699586 .75 .32099916 .75 .31098939 .75 .22099304 .6819916 .1619873 .5549927 .11099243 .44499208 .09899902 .33399964 .09899902 .25 .09899902 .17199707 .10998535 .050994874 .16499329-.06201172 .22499085-.18501282 .31098939-.25 .32099916-.25 .32699586-.25 .33099366-.24700928 .33099366-.2400055Z"/>
<path id="font_3_5" d="M.33399964 .30233766C.33999635 .32835389 .36299134 .42037965 .43299867 .42037965 .43798829 .42037965 .46199037 .42037965 .48298646 .40734864 .45498658 .402359 .43499757 .37734986 .43499757 .35334779 .43499757 .33735658 .44599916 .31835938 .47299195 .31835938 .49499513 .31835938 .5269928 .3363495 .5269928 .37635804 .5269928 .42837525 .46798707 .4423828 .43399049 .4423828 .37599183 .4423828 .34098817 .38935853 .32899476 .36634828 .3039856 .43237306 .25 .4423828 .22099304 .4423828 .116989139 .4423828 .05999756 .3133545 .05999756 .28834535 .05999756 .27833558 .069992069 .27833558 .07199097 .27833558 .07998657 .27833558 .08299255 .28033448 .084991458 .28933717 .11898804 .39535523 .18499756 .42037965 .21899414 .42037965 .23799134 .42037965 .272995 .4113617 .272995 .35334779 .272995 .32235719 .2559967 .25532533 .21899414 .11528015 .20298767 .053268434 .16799927 .011245728 .12399292 .011245728 .117996219 .011245728 .09498596 .011245728 .07398987 .024276734 .09899902 .029266358 .12098694 .05027771 .12098694 .07827759 .12098694 .105270389 .09899902 .11328125 .083999637 .11328125 .053985597 .11328125 .0289917 .08728027 .0289917 .055267335 .0289917 .009246826 .07899475-.0107421879 .12298584-.0107421879 .18899536-.0107421879 .22499085 .059280397 .22799683 .0652771 .23999024 .028274537 .27598573-.0107421879 .33599855-.0107421879 .43899537-.0107421879 .49598695 .118270877 .49598695 .14328003 .49598695 .1532898 .4869995 .1532898 .48399354 .1532898 .47499085 .1532898 .47299195 .14929199 .47099305 .14228821 .43798829 .03527832 .36999513 .011245728 .33799745 .011245728 .29899598 .011245728 .2829895 .043273927 .2829895 .07727051 .2829895 .09927368 .2889862 .121276859 .2999878 .16529846L.33399964 .30233766Z"/>
<path id="font_4_2" d="M.2889862 .25C.2889862 .32798768 .27799989 .44898988 .22299195 .56199648 .16299439 .68499758 .07699585 .75 .066986087 .75 .06098938 .75 .056991579 .74598696 .056991579 .73999026 .056991579 .7369995 .056991579 .73498538 .07598877 .71699526 .17399597 .6179962 .23098755 .45899964 .23098755 .25 .23098755 .07899475 .19400025-.09700012 .069992069-.2230072 .056991579-.23500061 .056991579-.23701477 .056991579-.2400055 .056991579-.2460022 .06098938-.25 .066986087-.25 .07699585-.25 .16699219-.18200684 .22599793-.055007936 .2769928 .054992677 .2889862 .16600037 .2889862 .25Z"/>
<path id="font_3_4" d="M.47099305 .3773346C.47200013 .3833313 .47399903 .38833619 .47399903 .39535523 .47399903 .41236878 .46199037 .42237855 .44499208 .42237855 .43499757 .42237855 .4079895 .41537477 .4039917 .3793335 .38598634 .41636659 .35099793 .4423828 .31098939 .4423828 .19699097 .4423828 .07299805 .30226136 .07299805 .15812683 .07299805 .059020997 .13398743 0 .20599365 0 .2649994 0 .31199647 .04701233 .32199098 .058029176L.32299806 .057022096C.3019867-.031982423 .2899933-.07295227 .2899933-.07495117 .28599549-.08395386 .2519989-.18309021 .1459961-.18309021 .1269989-.18309021 .09399414-.18206787 .06599426-.17297364 .09599304-.16394043 .10699463-.13793946 .10699463-.12094116 .10699463-.10494995 .09599304-.0859375 .068984989-.0859375 .04699707-.0859375 .01499939-.10394287 .01499939-.14395142 .01499939-.18508911 .051986696-.20507813 .147995-.20507813 .272995-.20507813 .34498597-.12693787 .3600006-.06695557L.47099305 .3773346M.34098817 .12809754C.33499146 .10206604 .31199647 .077041629 .2899933 .058029176 .2689972 .040008546 .23799134 .021987915 .20899964 .021987915 .15899658 .021987915 .14399719 .074035648 .14399719 .11407471 .14399719 .16212464 .17298889 .28024293 .19999695 .33128358 .22698975 .38034059 .269989 .42037965 .31199647 .42037965 .37799073 .42037965 .3919983 .33929444 .3919983 .33428956 .3919983 .32928468 .3899994 .3232727 .3889923 .3192749L.34098817 .12809754Z"/>
</defs>
<g clip-path="url(#clip_1)">
<path transform="matrix(1,0,0,-1.00002,1.0960007,163.18994)" d="M28.56828 102.70633 29.28612 103.90442 30.09006 105.21849 30.89398 106.50505 31.69792 107.76425 32.50186 108.99619 33.3058 110.20119 34.10974 111.37933 34.91367 112.53082 35.7176 113.65578 36.52155 114.75446 37.32547 115.82703 38.12941 116.87357 38.93333 117.89436 39.73727 118.88956 40.54121 119.85934 41.34515 120.80376 42.1491 121.7232 42.95302 122.61765 43.75696 123.48738 44.56088 124.33261 45.36482 125.15347 46.16876 125.95012 46.97269 126.72266 47.77663 127.4714 48.58057 128.19649 49.3845 128.89797 50.18845 129.57625 50.99237 130.23133 51.79631 130.86339 52.60023 131.4727 53.40417 132.05944 54.20811 132.62366 55.01204 133.16555 55.816 133.68541 56.61992 134.18337 57.42386 134.65953 58.2278 135.11408 59.03172 135.54737 59.83566 135.95941 60.63959 136.35033 61.44353 136.72045 62.24747 137.06981 63.05139 137.39864 63.85535 137.70722 64.65927 137.99565 65.46321 138.26396 66.26714 138.51248 67.07108 138.74146 67.875 138.95088 68.67894 139.1411 69.48288 139.31218 70.2868 139.46428 71.09076 139.59761 71.89468 139.71234 72.69862 139.80875 73.50256 139.88686 74.30649 139.94696 75.11043 139.98918 75.91435 140.01364 76.71829 140.02054 77.52223 140.0102 78.32616 139.98264 79.13011 139.938 79.93404 139.87662 80.73798 139.79851 81.54192 139.70392 82.34584 139.5931 83.14978 139.46613 83.9537 139.32321 84.75764 139.16446 85.56158 138.99018 86.36552 138.80043 87.16946 138.5954 87.97339 138.37538 88.77733 138.14044 89.58125 137.89072 90.3852 137.62654 91.18913 137.34792 91.99306 137.0551 92.797 136.74832 93.60094 136.4277 94.40488 136.09334 95.20882 135.7455 96.01274 135.38439 96.81668 135.01009 97.6206 134.62287 98.42455 134.22286 99.22849 133.81024 100.03241 133.38512 100.83635 132.94776 101.64029 132.49834 102.44423 132.03696 103.24817 131.5639 104.05214 131.07923 104.856 130.58325 105.65999 130.07595 106.46385 129.55774 107.26784 129.0286 108.07181 128.48874 108.87569 127.93845 109.67967 127.37775 110.48354 126.80698 111.2875 126.22615 112.09149 125.63553 112.89536 125.03537 113.69934 124.42561 114.50319 123.80675 115.30717 123.17863 116.11116 122.54163 116.91504 121.89592 117.71902 121.24156 118.52287 120.57892 119.32686 119.90791 120.13084 119.22888 120.93471 118.54211 121.7387 117.8475 122.54254 117.14546 123.34653 116.436 124.15053 115.71936 124.95439 114.99582 125.75838 114.26537 126.56223 113.52838 127.36621 112.78482 128.1702 112.03497 128.97406 111.27911 129.77805 110.51717 130.5819 109.74957 131.3859 108.9763 132.18988 108.19763 132.99375 107.4138 133.79773 106.62482 134.60158 105.83105 135.40557 105.03242 136.20955 104.22931 137.01342 103.42194 137.8174 102.61024 138.62126 101.79468 139.42525 100.97514 140.22924 100.15196 141.0331 99.32542 141.83707 98.49544 142.64093 97.66246 143.44492 96.8264 144.2489 95.98755 145.05275 95.14622 145.85674 94.30234 146.66062 93.45634 147.4646 92.60812 148.26859 91.75801 149.07244 90.90631 149.87642 90.05289 150.68029 89.19827 151.48427 88.3423 152.28826 87.4853 153.0921 86.62761 153.8961 85.7691 154.269 85.37067 154.26866 74.65384 153.8961 74.16168 153.0921 73.10495 152.28826 72.05376 151.48427 71.0079 150.68029 69.96767 149.87642 68.93329 149.07244 67.90459 148.26859 66.88194 147.4646 65.86519 146.66062 64.85457 145.85674 63.85034 145.05275 62.8523 144.2489 61.86086 143.44492 60.87582 142.64093 59.89746 141.83707 58.926 141.0331 57.96126 140.22924 57.00365 139.42525 56.05298 138.62126 55.10948 137.8174 54.17345 137.01342 53.24464 136.20955 52.3235 135.40557 51.4098 134.60158 50.50386 133.79773 49.60583 132.99375 48.71559 132.18988 47.83354 131.3859 46.95953 130.5819 46.09367 129.77805 45.23636 128.97406 44.38736 128.1702 43.54701 127.36621 42.71523 126.56223 41.89223 125.75838 41.0782 124.95439 40.27301 124.15053 39.47704 123.34653 38.6902 122.54254 37.91255 121.7387 37.14444 120.93471 36.38582 120.13084 35.63683 119.32686 34.89748 118.52287 34.16791 117.71902 33.44846 116.91504 32.73882 116.11116 32.03947 115.30717 31.35031 114.50319 30.67146 113.69934 30.00316 112.89536 29.34534 112.09149 28.6983 111.2875 28.06183 110.48354 27.43634 109.67967 26.82188 108.87569 26.21843 108.07181 25.62624 107.26784 25.0453 106.46385 24.47572 105.65999 23.91772 104.856 23.37132 104.05214 22.83672 103.24817 22.3138 102.44423 21.80287 101.64029 21.304 100.83635 20.81714 100.03241 20.34264 99.22849 19.8805 98.42455 19.4308 97.6206 18.99364 96.81668 18.5692 96.01274 18.15752 95.20882 17.75865 94.40488 17.37274 93.60094 17.00002 92.797 16.6404 91.99306 16.29417 91.18913 15.96132 90.3852 15.64198 89.58125 15.3362 88.77733 15.04422 87.97339 14.76604 87.16946 14.50179 86.36552 14.25151 85.56158 14.01544 84.75764 13.79361 83.9537 13.58609 83.14978 13.39308 82.34584 13.21465 81.54192 13.0508 80.73798 12.90181 79.93404 12.76767 79.13011 12.64847 78.32616 12.54443 77.52223 12.45558 76.71829 12.382 75.91435 12.32379 75.11043 12.28117 74.30649 12.25414 73.50256 12.2428 72.69862 12.24733 71.89468 12.26779 71.09076 12.30428 70.2868 12.35687 69.48288 12.42578 68.67894 12.51103 67.875 12.61267 67.07108 12.73094 66.26714 12.86589 65.46321 13.01755 64.65927 13.18616 63.85535 13.37175 63.05139 13.57443 62.24747 13.79424 61.44353 14.03142 60.63959 14.28603 59.83566 14.55807 59.03172 14.84781 58.2278 15.15526 57.42386 15.4805 56.61992 15.82368 55.816 16.18492 55.01204 16.5643 54.20811 16.9619 53.40417 17.37788 52.60023 17.81236 51.79631 18.26541 50.99237 18.73708 50.18845 19.22755 49.3845 19.73692 48.58057 20.26523 47.77663 20.81267 46.97269 21.37933 46.16876 21.96523 45.36482 22.5706 44.56088 23.19547 43.75696 23.83997 42.95302 24.50415 42.1491 25.18819 41.34515 25.89218 40.54121 26.61618 39.73727 27.36037 38.93333 28.12479 38.12941 28.90959 37.32547 29.7148 36.52155 30.54063 35.7176 31.38712 34.91367 32.25436 34.10974 33.14252 33.3058 34.0517 32.50186 34.98193 31.69792 35.93335 30.89398 36.90611 30.09006 37.90031 29.28612 38.91595 28.56859 39.84178Z" fill="#42c8f4" fill-opacity=".4"/>
</g>
<g clip-path="url(#clip_2)">
<path transform="matrix(1,0,0,-1.00002,1.0960007,163.18994)" stroke-width=".79701" stroke-linecap="butt" stroke-miterlimit="10" stroke-linejoin="miter" fill="none" stroke="#b30000" d="M22.85464 92.37912 23.65857 93.91988 24.46251 95.43169 25.26643 96.91467 26.07039 98.36913 26.87431 99.79514 27.67825 101.19287 28.4822 102.56262 29.28612 103.90442 30.09006 105.21849 30.89398 106.50505 31.69792 107.76425 32.50186 108.99619 33.3058 110.20119 34.10974 111.37933 34.91367 112.53082 35.7176 113.65578 36.52155 114.75446 37.32547 115.82703 38.12941 116.87357 38.93333 117.89436 39.73727 118.88956 40.54121 119.85934 41.34515 120.80376 42.1491 121.7232 42.95302 122.61765 43.75696 123.48738 44.56088 124.33261 45.36482 125.15347 46.16876 125.95012 46.97269 126.72266 47.77663 127.4714 48.58057 128.19649 49.3845 128.89797 50.18845 129.57625 50.99237 130.23133 51.79631 130.86339 52.60023 131.4727 53.40417 132.05944 54.20811 132.62366 55.01204 133.16555 55.816 133.68541 56.61992 134.18337 57.42386 134.65953 58.2278 135.11408 59.03172 135.54737 59.83566 135.95941 60.63959 136.35033 61.44353 136.72045 62.24747 137.06981 63.05139 137.39864 63.85535 137.70722 64.65927 137.99565 65.46321 138.26396 66.26714 138.51248 67.07108 138.74146 67.875 138.95088 68.67894 139.1411 69.48288 139.31218 70.2868 139.46428 71.09076 139.59761 71.89468 139.71234 72.69862 139.80875 73.50256 139.88686 74.30649 139.94696 75.11043 139.98918 75.91435 140.01364 76.71829 140.02054 77.52223 140.0102 78.32616 139.98264 79.13011 139.938 79.93404 139.87662 80.73798 139.79851 81.54192 139.70392 82.34584 139.5931 83.14978 139.46613 83.9537 139.32321 84.75764 139.16446 85.56158 138.99018 86.36552 138.80043 87.16946 138.5954 87.97339 138.37538 88.77733 138.14044 89.58125 137.89072 90.3852 137.62654 91.18913 137.34792 91.99306 137.0551 92.797 136.74832 93.60094 136.4277 94.40488 136.09334 95.20882 135.7455 96.01274 135.38439 96.81668 135.01009 97.6206 134.62287 98.42455 134.22286 99.22849 133.81024 100.03241 133.38512 100.83635 132.94776 101.64029 132.49834 102.44423 132.03696 103.24817 131.5639 104.05214 131.07923 104.856 130.58325 105.65999 130.07595 106.46385 129.55774 107.26784 129.0286 108.07181 128.48874 108.87569 127.93845 109.67967 127.37775 110.48354 126.80698 111.2875 126.22615 112.09149 125.63553 112.89536 125.03537 113.69934 124.42561 114.50319 123.80675 115.30717 123.17863 116.11116 122.54163 116.91504 121.89592 117.71902 121.24156 118.52287 120.57892 119.32686 119.90791 120.13084 119.22888 120.93471 118.54211 121.7387 117.8475 122.54254 117.14546 123.34653 116.436 124.15053 115.71936 124.95439 114.99582 125.75838 114.26537 126.56223 113.52838 127.36621 112.78482 128.1702 112.03497 128.97406 111.27911 129.77805 110.51717 130.5819 109.74957 131.3859 108.9763 132.18988 108.19763 132.99375 107.4138 133.79773 106.62482 134.60158 105.83105 135.40557 105.03242 136.20955 104.22931 137.01342 103.42194 137.8174 102.61024 138.62126 101.79468 139.42525 100.97514 140.22924 100.15196 141.0331 99.32542 141.83707 98.49544 142.64093 97.66246 143.44492 96.8264 144.2489 95.98755 145.05275 95.14622 145.85674 94.30234 146.66062 93.45634 147.4646 92.60812 148.26859 91.75801 149.07244 90.90631 149.87642 90.05289 150.68029 89.19827 151.48427 88.3423 152.28826 87.4853 153.0921 86.62761 153.8961 85.7691 154.69997 84.91022 155.50395 84.05086 156.30794 83.19139 157.11179 82.33206 157.91577 81.47284 158.71964 80.61409 159.52362 79.75578 160.3276 78.89821 161.13146 78.04167 161.93546 77.1861 162.73932 76.3319 163.5433 75.479 164.34729 74.62772 165.15114 73.77834 165.95513 72.9308 166.75899 72.08554 167.56298 71.24245 168.36696 70.40186 169.17082 69.56404 169.97481 68.72894 170.77867 67.897 171.58266 67.06812 172.38663 66.24258 173.19049 65.42072 173.99448 64.60246 174.79834 63.78821 175.60233 62.9779 176.40631 62.17186 177.21018 61.37033 178.01416 60.57329 178.81803 59.78113 179.62201 58.99382 180.42598 58.21161 181.22985 57.43483 182.03383 56.66339 182.83769 55.89772"/>
<path transform="matrix(1,0,0,-1.00002,1.0960007,163.18994)" stroke-width=".79701" stroke-linecap="butt" stroke-miterlimit="10" stroke-linejoin="miter" fill="none" stroke="#00aeef" d="M22.85464 47.82867 23.65857 46.63705 24.46251 45.46779 25.26643 44.32082 26.07039 43.19597 26.87431 42.09315 27.67825 41.01228 28.4822 39.95323 29.28612 38.91595 30.09006 37.90031 30.89398 36.90611 31.69792 35.93335 32.50186 34.98193 33.3058 34.0517 34.10974 33.14252 34.91367 32.25436 35.7176 31.38712 36.52155 30.54063 37.32547 29.7148 38.12941 28.90959 38.93333 28.12479 39.73727 27.36037 40.54121 26.61618 41.34515 25.89218 42.1491 25.18819 42.95302 24.50415 43.75696 23.83997 44.56088 23.19547 45.36482 22.5706 46.16876 21.96523 46.97269 21.37933 47.77663 20.81267 48.58057 20.26523 49.3845 19.73692 50.18845 19.22755 50.99237 18.73708 51.79631 18.26541 52.60023 17.81236 53.40417 17.37788 54.20811 16.9619 55.01204 16.5643 55.816 16.18492 56.61992 15.82368 57.42386 15.4805 58.2278 15.15526 59.03172 14.84781 59.83566 14.55807 60.63959 14.28603 61.44353 14.03142 62.24747 13.79424 63.05139 13.57443 63.85535 13.37175 64.65927 13.18616 65.46321 13.01755 66.26714 12.86589 67.07108 12.73094 67.875 12.61267 68.67894 12.51103 69.48288 12.42578 70.2868 12.35687 71.09076 12.30428 71.89468 12.26779 72.69862 12.24733 73.50256 12.2428 74.30649 12.25414 75.11043 12.28117 75.91435 12.32379 76.71829 12.382 77.52223 12.45558 78.32616 12.54443 79.13011 12.64847 79.93404 12.76767 80.73798 12.90181 81.54192 13.0508 82.34584 13.21465 83.14978 13.39308 83.9537 13.58609 84.75764 13.79361 85.56158 14.01544 86.36552 14.25151 87.16946 14.50179 87.97339 14.76604 88.77733 15.04422 89.58125 15.3362 90.3852 15.64198 91.18913 15.96132 91.99306 16.29417 92.797 16.6404 93.60094 17.00002 94.40488 17.37274 95.20882 17.75865 96.01274 18.15752 96.81668 18.5692 97.6206 18.99364 98.42455 19.4308 99.22849 19.8805 100.03241 20.34264 100.83635 20.81714 101.64029 21.304 102.44423 21.80287 103.24817 22.3138 104.05214 22.83672 104.856 23.37132 105.65999 23.91772 106.46385 24.47572 107.26784 25.0453 108.07181 25.62624 108.87569 26.21843 109.67967 26.82188 110.48354 27.43634 111.2875 28.06183 112.09149 28.6983 112.89536 29.34534 113.69934 30.00316 114.50319 30.67146 115.30717 31.35031 116.11116 32.03947 116.91504 32.73882 117.71902 33.44846 118.52287 34.16791 119.32686 34.89748 120.13084 35.63683 120.93471 36.38582 121.7387 37.14444 122.54254 37.91255 123.34653 38.6902 124.15053 39.47704 124.95439 40.27301 125.75838 41.0782 126.56223 41.89223 127.36621 42.71523 128.1702 43.54701 128.97406 44.38736 129.77805 45.23636 130.5819 46.09367 131.3859 46.95953 132.18988 47.83354 132.99375 48.71559 133.79773 49.60583 134.60158 50.50386 135.40557 51.4098 136.20955 52.3235 137.01342 53.24464 137.8174 54.17345 138.62126 55.10948 139.42525 56.05298 140.22924 57.00365 141.0331 57.96126 141.83707 58.926 142.64093 59.89746 143.44492 60.87582 144.2489 61.86086 145.05275 62.8523 145.85674 63.85034 146.66062 64.85457 147.4646 65.86519 148.26859 66.88194 149.07244 67.90459 149.87642 68.93329 150.68029 69.96767 151.48427 71.0079 152.28826 72.05376 153.0921 73.10495 153.8961 74.16168 154.69997 75.22356 155.50395 76.2908 156.30794 77.3631 157.11179 78.44022 157.91577 79.52238 158.71964 80.60912 159.52362 81.70068 160.3276 82.79681 161.13146 83.89722 161.93546 85.00212 162.73932 86.11113 163.5433 87.22443 164.34729 88.34172 165.15114 89.4628 165.95513 90.58784 166.75899 91.71646 167.56298 92.84882 168.36696 93.9847 169.17082 95.12376 169.97481 96.2663 170.77867 97.41187 171.58266 98.5607 172.38663 99.71243 173.19049 100.86693 173.99448 102.02437 174.79834 103.18425 175.60233 104.34691 176.40631 105.51196 177.21018 106.6792 178.01416 107.8488 178.81803 109.02042 179.62201 110.19423 180.42598 111.36993 181.22985 112.54723 182.03383 113.72658 182.83769 114.90723"/>
</g>
<use data-text="a" xlink:href="#font_3_1" transform="matrix(9.9626,0,0,-9.962799,27.030999,105.87779)"/>
<use data-text="b" xlink:href="#font_3_2" transform="matrix(9.9626,0,0,-9.962799,153.22699,108.50685)"/>
<path transform="matrix(1,0,0,-1.00002,1.0960007,163.18994)" d="M143.0183 128.07434H190.17917V157.96253H143.0183Z" fill="#ffffff"/>
<path transform="matrix(1,0,0,-1.00002,1.0960007,163.18994)" stroke-width=".3985" stroke-linecap="butt" stroke-miterlimit="10" stroke-linejoin="miter" fill="none" stroke="#000000" d="M143.0183 128.07434H190.17917V157.96253H143.0183Z"/>
<path transform="matrix(1,0,0,-1.00002,147.501,13.692947)" stroke-width=".79701" stroke-linecap="butt" stroke-miterlimit="10" stroke-linejoin="miter" fill="none" stroke="#b30000" d="M0 0H8.50412 17.00826"/>
<use data-text="f" xlink:href="#font_3_3" transform="matrix(9.9626,0,0,-9.962799,166.901,16.682007)"/>
<use data-text="(" xlink:href="#font_4_1" transform="matrix(9.9626,0,0,-9.962799,172.851,16.682007)"/>
<use data-text="x" xlink:href="#font_3_5" transform="matrix(9.9626,0,0,-9.962799,176.725,16.682007)"/>
<use data-text=")" xlink:href="#font_4_2" transform="matrix(9.9626,0,0,-9.962799,182.41899,16.682007)"/>
<path transform="matrix(1,0,0,-1.00002,147.501,26.64421)" stroke-width=".79701" stroke-linecap="butt" stroke-miterlimit="10" stroke-linejoin="miter" fill="none" stroke="#00aeef" d="M0 0H8.50412 17.00826"/>
<use data-text="g" xlink:href="#font_3_4" transform="matrix(9.9626,0,0,-9.962799,167.321,29.63327)"/>
<use data-text="(" xlink:href="#font_4_1" transform="matrix(9.9626,0,0,-9.962799,172.43,29.63327)"/>
<use data-text="x" xlink:href="#font_3_5" transform="matrix(9.9626,0,0,-9.962799,176.304,29.63327)"/>
<use data-text=")" xlink:href="#font_4_2" transform="matrix(9.9626,0,0,-9.962799,181.998,29.63327)"/>
<path transform="matrix(1,0,0,-1.00002,1.0960007,163.18994)" stroke-width=".19925" stroke-linecap="butt" stroke-miterlimit="10" stroke-linejoin="miter" fill="none" stroke="#7f807f" d="M28.56831 65.12009V69.3718M154.2689 65.12009V69.3718"/>
<path transform="matrix(1,0,0,-1.00002,1.0960007,163.18994)" stroke-width=".19925" stroke-linecap="butt" stroke-miterlimit="10" stroke-linejoin="miter" fill="none" stroke="#7f807f" d=""/>
<path transform="matrix(1,0,0,-1.00002,1.0960007,163.18994)" stroke-width=".3985" stroke-linecap="butt" stroke-miterlimit="10" stroke-linejoin="miter" fill="none" stroke="#000000" d="M0 67.24594H192.27204"/>
<path transform="matrix(1,0,0,-1.00002,193.36804,95.94265)" d="M1.99252 0-1.19551 1.59401 0 0-1.19551-1.59401"/>
<path transform="matrix(1,0,0,-1.00002,1.0960007,163.18994)" stroke-width=".3985" stroke-linecap="butt" stroke-miterlimit="10" stroke-linejoin="miter" fill="none" stroke="#000000" d="M11.42732 0V159.39775"/>
<path transform="matrix(0,-1.00002,-1,-0,12.52332,3.7890015)" d="M1.99252 0-1.19551 1.59401 0 0-1.19551-1.59401"/>
</svg>
