<svg xmlns="http://www.w3.org/2000/svg" xmlns:xlink="http://www.w3.org/1999/xlink" xmlns:inkscape="http://www.inkscape.org/namespaces/inkscape" version="1.1" width="276" height="184" viewBox="0 0 276 184">
<defs>
<path id="font_1_2" d="M.31399537 .63708499C.31399537 .664032 .31199647 .66503909 .2849884 .66503909 .24398804 .6251831 .19099427 .6013489 .09599304 .6013489V.5683594C.12298584 .5683594 .1769867 .5683594 .23498535 .5953522V.08203125C.23498535 .04499817 .23199463 .032989503 .13699341 .032989503H.101989749V0C.14299011 .0029907227 .22898865 .0029907227 .27398683 .0029907227 .31900025 .0029907227 .4059906 .0029907227 .44699098 0V.032989503H.4119873C.31698609 .032989503 .31399537 .04499817 .31399537 .08203125V.63708499Z"/>
<path id="font_1_3" d="M.28199769 .20405579C.2979889 .21907044 .33999635 .2520752 .35598756 .26608277 .41799928 .32312013 .47698976 .3781433 .47698976 .46917726 .47698976 .588089 .3769989 .66503909 .2519989 .66503909 .13198853 .66503909 .052993776 .57411196 .052993776 .48516847 .052993776 .4361725 .09199524 .4291687 .10598755 .4291687 .1269989 .4291687 .1579895 .4441681 .1579895 .48217774 .1579895 .5341797 .10798645 .5341797 .09599304 .5341797 .125 .6070709 .19198609 .6320343 .24099732 .6320343 .33399964 .6320343 .38198854 .55314639 .38198854 .46917726 .38198854 .36514283 .30899049 .28910829 .19099427 .16804505L.06498718 .037994386C.052993776 .026992798 .052993776 .024993897 .052993776 0H.44799806L.47698976 .17904663H.44599916C.44299317 .1590271 .43499757 .10900879 .4229889 .08999634 .4169922 .08198547 .34098817 .08198547 .32499696 .08198547H.14698792L.28199769 .20405579Z"/>
<path id="font_1_4" d="M.25299073 .33370973C.33198548 .33370973 .38198854 .27557374 .38198854 .17037964 .38198854 .045440675 .31098939 .008514404 .2579956 .008514404 .20298767 .008514404 .12799073 .0284729 .09298706 .08137512 .1289978 .08137512 .1539917 .10437012 .1539917 .13737488 .1539917 .16937256 .1309967 .19238281 .09899902 .19238281 .07199097 .19238281 .04399109 .17536927 .04399109 .13537598 .04399109 .04045105 .1459961-.021484375 .2599945-.021484375 .3929901-.021484375 .48599244 .070388797 .48599244 .17037964 .48599244 .25352479 .41999818 .32969667 .31799317 .3517456 .39698792 .37982179 .45599366 .4479828 .45599366 .52804568 .45599366 .6080475 .3659973 .66503909 .2619934 .66503909 .15499878 .66503909 .07398987 .6070404 .07398987 .53105166 .07398987 .49404908 .09899902 .4780426 .125 .4780426 .1559906 .4780426 .17599488 .5000458 .17599488 .52905276 .17599488 .56604006 .14399719 .5800476 .12199402 .5810547 .1639862 .6360321 .24099732 .6390381 .25898744 .6390381 .2849884 .6390381 .36099244 .6310272 .36099244 .52804568 .36099244 .45799256 .33198548 .41589356 .31799317 .39985658 .28799439 .36878968 .2649994 .36679078 .20399475 .3627777 .18499756 .36177064 .1769867 .36076356 .1769867 .3477478 .1769867 .33370973 .18598938 .33370973 .20298767 .33370973H.25299073Z"/>
<path id="font_1_5" d="M.3939972 .6468048C.3939972 .6667938 .3939972 .6748047 .37298585 .6748047 .3600006 .6748047 .35899354 .6737976 .34899903 .65979006L.02999878 .197052V.1640625H.31199647V.08100891C.31199647 .04399109 .30899049 .032989503 .23199463 .032989503H.20899964V0C.2939911 .0029907227 .29599 .0029907227 .35299684 .0029907227 .4099884 .0029907227 .4119873 .0029907227 .49699403 0V.032989503H.47399903C.39698792 .032989503 .3939972 .04399109 .3939972 .08100891V.1640625H.5V.197052H.3939972V.6468048M.31900025 .5658417V.197052H.06498718L.31900025 .5658417Z"/>
<path id="font_1_6" d="M.13999939 .5618439C.15299988 .55784609 .19299317 .54785159 .23498535 .54785159 .3600006 .54785159 .43598939 .6358948 .43598939 .6510315 .43598939 .6620331 .42900086 .66503909 .42399598 .66503909 .42199708 .66503909 .41999818 .66503909 .41099549 .6600342 .37199403 .6450348 .32598878 .632843 .27198792 .632843 .21299744 .632843 .1639862 .6480255 .1329956 .6600342 .12298584 .66503909 .12098694 .66503909 .11999512 .66503909 .10699463 .66503909 .10699463 .6540375 .10699463 .6358948V.34292604C.10699463 .32492066 .10699463 .312912 .12298584 .312912 .1309967 .312912 .13398743 .3169098 .13899231 .32492066 .15098572 .33992005 .18899536 .39093019 .27398683 .39093019 .32998658 .39093019 .35699464 .34492494 .3659973 .32591249 .3829956 .28990174 .3849945 .24389649 .3849945 .20487976 .3849945 .1678772 .38398744 .11387634 .35598756 .069732669 .33699037 .039611818 .29699708 .008514404 .24398804 .008514404 .1789856 .008514404 .114990238 .0496521 .09199524 .11488342 .09498596 .11387634 .100997928 .11387634 .101989749 .11387634 .12998963 .11387634 .1519928 .13188172 .1519928 .16288758 .1519928 .19989014 .12298584 .21289063 .102996829 .21289063 .084991458 .21289063 .052993776 .20288086 .052993776 .15988159 .052993776 .069732669 .1309967-.021484375 .24598694-.021484375 .37098695-.021484375 .47698976 .07574463 .47698976 .19989014 .47698976 .31591798 .3929901 .4189453 .2749939 .4189453 .22499085 .4189453 .17799378 .40293885 .13999939 .368927V.5618439Z"/>
<path id="font_1_7" d="M.13798523 .33073426C.13798523 .41377259 .14498902 .4868164 .18099976 .54782107 .21099854 .5978241 .2619934 .6390381 .32499696 .6390381 .34498597 .6390381 .3909912 .63601687 .4139862 .60084536 .36898805 .5988312 .36499024 .5648346 .36499024 .553833 .36499024 .5238342 .3880005 .50683596 .4119873 .50683596 .42999269 .50683596 .45899964 .51782229 .45899964 .5558319 .45899964 .615921 .4139862 .66503909 .32398988 .66503909 .18499756 .66503909 .04399109 .53282168 .04399109 .31672669 .04399109 .045532228 .16999817-.021484375 .2669983-.021484375 .31498719-.021484375 .36698915-.0084991459 .4119873 .03453064 .45199586 .07354736 .48599244 .11558533 .48599244 .20263672 .48599244 .33372499 .3869934 .42578126 .27598573 .42578126 .20399475 .42578126 .16099549 .37976075 .13798523 .33073426M.2669983 .008514404C.21398926 .008514404 .18099976 .045532228 .1659851 .07354736 .14299011 .11859131 .14099121 .18663025 .14099121 .22465515 .14099121 .32373048 .19499207 .3977661 .27198792 .3977661 .32199098 .3977661 .35198976 .37176515 .37098695 .33673097 .3919983 .29971314 .3919983 .25468446 .3919983 .2036438 .3919983 .15260315 .3919983 .10858154 .37199403 .07255554 .34599305 .026519776 .31098939 .008514404 .2669983 .008514404Z"/>
<path id="font_1_8" d="M.5059967 .608551C.5149994 .6195526 .5149994 .6215515 .5149994 .6435547H.26098634C.23599243 .6435547 .20498657 .64456179 .17999268 .64660647 .12799073 .65068057 .1269989 .6597748 .12399292 .67578127H.09298706L.05899048 .46453858H.08999634C.09199524 .47953797 .102996829 .54855349 .116989139 .5565491 .12799073 .56155398 .20298767 .56155398 .21798706 .56155398H.42999269L.32699586 .4235382C.21299744 .27153016 .18899536 .11351013 .18899536 .03451538 .18899536 .024505616 .18899536-.021484375 .23599243-.021484375 .2829895-.021484375 .2829895 .023513794 .2829895 .035507204V.08351135C.2829895 .2275238 .30699159 .34553529 .35598756 .41053773L.5059967 .608551Z"/>
<path id="font_1_9" d="M.33198548 .36080934C.3880005 .38783265 .45599366 .4378662 .45599366 .5159302 .45599366 .6110077 .35899354 .66503909 .2659912 .66503909 .1599884 .66503909 .07398987 .59199526 .07398987 .49790956 .07398987 .46089173 .08699036 .42686463 .11199951 .39782716 .1289978 .3768158 .1329956 .3748169 .19499207 .3357849 .070999149 .2807312 .04399109 .20767212 .04399109 .15162659 .04399109 .041534425 .15499878-.021484375 .2639923-.021484375 .3869934-.021484375 .48599244 .061553956 .48599244 .16764832 .48599244 .23069763 .45199586 .2727356 .43598939 .28974916 .4189911 .30575563 .41799928 .3067627 .33198548 .36080934M.1769867 .45487977C.147995 .4718933 .12399292 .5009155 .12399292 .5359497 .12399292 .598999 .19299317 .6390381 .2639923 .6390381 .34199525 .6390381 .4059906 .5859833 .4059906 .5159302 .4059906 .45788575 .36099244 .408844 .3019867 .37982179L.1769867 .45487977M.22599793 .31776429C.22999573 .31576539 .34399415 .24571228 .36099244 .23469544 .3769989 .22569275 .42900086 .19366455 .42900086 .13360596 .42900086 .056549074 .34799195 .008514404 .2659912 .008514404 .1769867 .008514404 .100997928 .06956482 .100997928 .15162659 .100997928 .22668457 .15699768 .28573609 .22599793 .31776429Z"/>
<path id="font_1_10" d="M.3919983 .29478456C.3919983 .050704957 .27598573 .008514404 .21798706 .008514404 .19699097 .008514404 .14498902 .011520386 .117996219 .04270935 .1619873 .046707155 .16499329 .079711917 .16499329 .08970642 .16499329 .1197052 .14199829 .13671875 .117996219 .13671875 .099990848 .13671875 .070999149 .12571717 .070999149 .08770752 .070999149 .019577027 .1269989-.021484375 .21899414-.021484375 .35598756-.021484375 .48599244 .114715579 .48599244 .3287964 .48599244 .58898928 .37098695 .66503909 .2679901 .66503909 .1499939 .66503909 .04399109 .5729828 .04399109 .44187928 .04399109 .31278993 .14099121 .21875 .2539978 .21875 .32499696 .21875 .36799623 .26374818 .3919983 .31478883V.29478456M.2579956 .24674988C.21199036 .24674988 .18299866 .26776124 .16099549 .30477906 .13798523 .34181214 .13798523 .3898468 .13798523 .44088746 .13798523 .4999237 .13798523 .54196169 .16499329 .58299258 .18998719 .61901858 .22200012 .6390381 .2689972 .6390381 .33599855 .6390381 .36499024 .5729828 .36799623 .5679779 .3889923 .51893618 .3899994 .44088746 .3899994 .42086793 .3899994 .34181214 .34700013 .24674988 .2579956 .24674988Z"/>
<path id="font_1_1" d="M.4889984 .31877137C.4889984 .42585755 .47799684 .49090577 .44499208 .55496218 .40098573 .6430359 .31999208 .66503909 .2649994 .66503909 .13899231 .66503909 .09298706 .5709839 .07899475 .5429535 .042999269 .4698944 .040985109 .3708191 .040985109 .31877137 .040985109 .25271607 .04399109 .15162659 .09199524 .07156372 .13798523-.0024871827 .21199036-.021484375 .2649994-.021484375 .31298829-.021484375 .39898683-.0064849855 .44898988 .09257507 .48599244 .16464234 .4889984 .2537079 .4889984 .31877137M.2649994 .006515503C.23098755 .006515503 .1619873 .022521973 .14099121 .12760926 .12998963 .18466187 .12998963 .2787323 .12998963 .33078004 .12998963 .3998413 .12998963 .4698944 .14099121 .5249481 .1619873 .6270294 .23999024 .6370239 .2649994 .6370239 .29899598 .6370239 .36799623 .62002566 .3880005 .5289459 .3999939 .4738922 .3999939 .39883424 .3999939 .33078004 .3999939 .27172853 .3999939 .18165589 .3880005 .12561035 .36698915 .020523072 .2979889 .006515503 .2649994 .006515503Z"/>
<path id="font_2_1" d="M.69898989 .22743225C.71499636 .22743225 .7369995 .22743225 .7369995 .25042726 .7369995 .2734375 .71499636 .2734375 .69898989 .2734375H.12599182C.10998535 .2734375 .08799744 .2734375 .08799744 .25042726 .08799744 .22743225 .10998535 .22743225 .12599182 .22743225H.69898989Z"/>
<clipPath id="clip_3">
<path transform="matrix(1,0,0,-1.00005,16.683999,141.21141)" d="M0 0H239.10584V119.55292H0Z"/>
</clipPath>
<path id="font_4_2" d="M.33399964 .30233766C.33999635 .32835389 .36299134 .42037965 .43299867 .42037965 .43798829 .42037965 .46199037 .42037965 .48298646 .40734864 .45498658 .402359 .43499757 .37734986 .43499757 .35334779 .43499757 .33735658 .44599916 .31835938 .47299195 .31835938 .49499513 .31835938 .5269928 .3363495 .5269928 .37635804 .5269928 .42837525 .46798707 .4423828 .43399049 .4423828 .37599183 .4423828 .34098817 .38935853 .32899476 .36634828 .3039856 .43237306 .25 .4423828 .22099304 .4423828 .116989139 .4423828 .05999756 .3133545 .05999756 .28834535 .05999756 .27833558 .069992069 .27833558 .07199097 .27833558 .07998657 .27833558 .08299255 .28033448 .084991458 .28933717 .11898804 .39535523 .18499756 .42037965 .21899414 .42037965 .23799134 .42037965 .272995 .4113617 .272995 .35334779 .272995 .32235719 .2559967 .25532533 .21899414 .11528015 .20298767 .053268434 .16799927 .011245728 .12399292 .011245728 .117996219 .011245728 .09498596 .011245728 .07398987 .024276734 .09899902 .029266358 .12098694 .05027771 .12098694 .07827759 .12098694 .105270389 .09899902 .11328125 .083999637 .11328125 .053985597 .11328125 .0289917 .08728027 .0289917 .055267335 .0289917 .009246826 .07899475-.0107421879 .12298584-.0107421879 .18899536-.0107421879 .22499085 .059280397 .22799683 .0652771 .23999024 .028274537 .27598573-.0107421879 .33599855-.0107421879 .43899537-.0107421879 .49598695 .118270877 .49598695 .14328003 .49598695 .1532898 .4869995 .1532898 .48399354 .1532898 .47499085 .1532898 .47299195 .14929199 .47099305 .14228821 .43798829 .03527832 .36999513 .011245728 .33799745 .011245728 .29899598 .011245728 .2829895 .043273927 .2829895 .07727051 .2829895 .09927368 .2889862 .121276859 .2999878 .16529846L.33399964 .30233766Z"/>
<path id="font_4_3" d="M.48599244 .38136292C.48999024 .39537049 .48999024 .39736939 .48999024 .40437318 .48999024 .42237855 .47599793 .43138124 .46099855 .43138124 .45098878 .43138124 .43499757 .42536927 .42599488 .41036988 .42399598 .405365 .41600038 .37435914 .4119873 .35635377 .40499879 .33035279 .397995 .30334474 .3919983 .27633668L.34700013 .09628296C.34298707 .08126831 .2999878 .011245728 .23399353 .011245728 .18299866 .011245728 .17199707 .055267335 .17199707 .0922699 .17199707 .1382904 .18899536 .20030213 .22299195 .28833009 .23899842 .3293457 .24299622 .3403473 .24299622 .36035157 .24299622 .405365 .21099854 .4423828 .16099549 .4423828 .06599426 .4423828 .0289917 .29733277 .0289917 .28833009 .0289917 .27833558 .038986207 .27833558 .040985109 .27833558 .050994874 .27833558 .051986696 .28033448 .056991579 .29634095 .083999637 .3903656 .12399292 .42037965 .1579895 .42037965 .1659851 .42037965 .18299866 .42037965 .18299866 .3883667 .18299866 .36335755 .17298889 .3373413 .1659851 .31834413 .12599182 .21231079 .10798645 .1552887 .10798645 .10827637 .10798645 .019256592 .17098999-.0107421879 .22999573-.0107421879 .2689972-.0107421879 .30299378 .0062561037 .33099366 .03425598 .31799317-.017745972 .30599977-.06674194 .2659912-.11973572 .23999024-.15385437 .20199585-.18309021 .1559906-.18309021 .14199829-.18309021 .09700012-.18005371 .07998657-.14074707 .09599304-.14074707 .10899353-.14074707 .12298584-.1287384 .1329956-.11973572 .14299011-.10673523 .14299011-.08773804 .14299011-.056747438 .115997318-.052734376 .10598755-.052734376 .08299255-.052734376 .049987794-.068740848 .049987794-.11773682 .049987794-.16796875 .09399414-.20507813 .1559906-.20507813 .25898744-.20507813 .3619995-.11373901 .3899994-.00074768069L.48599244 .38136292Z"/>
<path id="font_5_1" d="M.3889923-.8549652 .21299744-.4659729C.20599365-.44996644 .20098877-.44996644 .19799805-.44996644 .19699097-.44996644 .19198609-.44996644 .18099976-.45796205L.085998538-.52996829C.07299805-.53996279 .07299805-.54296877 .07299805-.54597476 .07299805-.55096438 .07598877-.55696108 .08299255-.55696108 .08898926-.55696108 .10598755-.54296877 .116989139-.53497317 .12298584-.52996829 .13798523-.5189667 .14898682-.51097109L.34599305-.9439697C.35299684-.95996096 .35798646-.95996096 .36698915-.95996096 .38198854-.95996096 .3849945-.95396426 .3919983-.9399719L.84599307 .000030517579C.8529968 .014038086 .8529968 .018035889 .8529968 .02003479 .8529968 .030029297 .8450012 .040039064 .83299258 .040039064 .82499697 .040039064 .81799319 .03503418 .80999758 .01902771L.3889923-.8549652Z"/>
<path id="font_4_1" d="M.4269867 .6066284C.43399049 .63461306 .43798829 .64060977 .44999696 .6436157 .45899964 .6456146 .49198915 .6456146 .5130005 .6456146 .6139984 .6456146 .6589966 .6416168 .6589966 .56365969 .6589966 .54867556 .6549988 .50968936 .651001 .4837036 .6499939 .4797058 .647995 .4677124 .647995 .46472169 .647995 .45872499 .651001 .45173646 .6599884 .45173646 .67099 .45173646 .6729889 .45973207 .6749878 .4747162L.70199587 .64860537C.7029877 .65260317 .70399478 .6626129 .70399478 .66560366 .70399478 .6766052 .69400027 .6766052 .6769867 .6766052H.12199402C.09799194 .6766052 .09700012 .6756134 .08999634 .6566162L.02999878 .4807129C.0289917 .478714 .023986817 .46472169 .023986817 .46272279 .023986817 .45672608 .0289917 .45173646 .035995485 .45173646 .04598999 .45173646 .04699707 .45672608 .052993776 .4727173 .10699463 .6276245 .1329956 .6456146 .2809906 .6456146H.31999208C.34799195 .6456146 .34799195 .6416168 .34799195 .6336212 .34799195 .6276245 .34498597 .6156311 .34399415 .6126251L.20999146 .07896423C.20098877 .041992189 .19799805 .0309906 .09098816 .0309906 .054992677 .0309906 .04899597 .0309906 .04899597 .011993408 .04899597 0 .05999756 0 .06599426 0 .09298706 0 .12098694 .0019989014 .147995 .0019989014 .17599488 .0019989014 .20498657 .0029907227 .23298645 .0029907227 .26098634 .0029907227 .2889862 .0019989014 .31599427 .0019989014 .34498597 .0019989014 .375 0 .40299989 0 .41299439 0 .4249878 0 .4249878 .019989014 .4249878 .0309906 .4169922 .0309906 .3909912 .0309906 .3659973 .0309906 .35299684 .0309906 .32699586 .032989503 .2979889 .035995485 .2899933 .038986207 .2899933 .054977418 .2899933 .05596924 .2899933 .06097412 .2939911 .07595825L.4269867 .6066284Z"/>
<path id="font_6_1" d="M.5049896 .18203736H.47099305C.46798707 .16001892 .45799256 .100997928 .44499208 .09098816 .43699647 .084991458 .3600006 .084991458 .34599305 .084991458H.1619873C.2669983 .17803955 .3019867 .20603943 .3619995 .25306703 .43598939 .312088 .5049896 .374115 .5049896 .46914674 .5049896 .5900879 .39898683 .6640625 .2709961 .6640625 .14698792 .6640625 .06298828 .57710269 .06298828 .4851532 .06298828 .43414308 .10598755 .42915345 .115997318 .42915345 .13999939 .42915345 .16899109 .44615174 .16899109 .48214723 .16899109 .5001526 .1619873 .53515627 .10998535 .53515627 .14099121 .6060791 .20899964 .62805178 .2559967 .62805178 .35598756 .62805178 .4079895 .5501404 .4079895 .46914674 .4079895 .38212586 .34599305 .3130951 .31399537 .27708436L.07299805 .038986207C.06298828 .02999878 .06298828 .027999878 .06298828 0H.47499085L.5049896 .18203736Z"/>
<path id="font_7_1" d="M.33099366-.2400055C.33099366-.23701477 .33099366-.23500061 .31399537-.21800232 .18899536-.0920105 .15699768 .09700012 .15699768 .25 .15699768 .42399598 .19499207 .59799197 .31799317 .72299197 .33099366 .73498538 .33099366 .7369995 .33099366 .73999026 .33099366 .746994 .32699586 .75 .32099916 .75 .31098939 .75 .22099304 .6819916 .1619873 .5549927 .11099243 .44499208 .09899902 .33399964 .09899902 .25 .09899902 .17199707 .10998535 .050994874 .16499329-.06201172 .22499085-.18501282 .31098939-.25 .32099916-.25 .32699586-.25 .33099366-.24700928 .33099366-.2400055Z"/>
<path id="font_7_2" d="M.2889862 .25C.2889862 .32798768 .27799989 .44898988 .22299195 .56199648 .16299439 .68499758 .07699585 .75 .066986087 .75 .06098938 .75 .056991579 .74598696 .056991579 .73999026 .056991579 .7369995 .056991579 .73498538 .07598877 .71699526 .17399597 .6179962 .23098755 .45899964 .23098755 .25 .23098755 .07899475 .19400025-.09700012 .069992069-.2230072 .056991579-.23500061 .056991579-.23701477 .056991579-.2400055 .056991579-.2460022 .06098938-.25 .066986087-.25 .07699585-.25 .16699219-.18200684 .22599793-.055007936 .2769928 .054992677 .2889862 .16600037 .2889862 .25Z"/>
</defs>
<path transform="matrix(1,0,0,-1.00005,16.683999,141.21141)" stroke-width=".09962" stroke-linecap="butt" stroke-miterlimit="10" stroke-linejoin="miter" fill="none" stroke="#d9d9d9" d="M11.95529 0V119.55292M35.86588 0V119.55292M59.77646 0V119.55292M83.68704 0V119.55292M107.59763 0V119.55292M131.50821 0V119.55292M155.4188 0V119.55292M179.32938 0V119.55292M203.23996 0V119.55292M227.15055 0V119.55292"/>
<path transform="matrix(1,0,0,-1.00005,16.683999,141.21141)" stroke-width=".19925" stroke-linecap="butt" stroke-miterlimit="10" stroke-linejoin="miter" fill="none" stroke="#b2b3b2" d="M23.91058 0V119.55292M47.82117 0V119.55292M71.73175 0V119.55292M95.64233 0V119.55292M119.55292 0V119.55292M143.4635 0V119.55292M167.37409 0V119.55292M191.28467 0V119.55292M215.19525 0V119.55292M239.10584 0V119.55292"/>
<path transform="matrix(1,0,0,-1.00005,16.683999,141.21141)" stroke-width=".09962" stroke-linecap="butt" stroke-miterlimit="10" stroke-linejoin="miter" fill="none" stroke="#d9d9d9" d="M0 11.95529H239.10584M0 35.86588H239.10584M0 59.77646H239.10584M0 83.68704H239.10584M0 107.59763H239.10584"/>
<path transform="matrix(1,0,0,-1.00005,16.683999,141.21141)" stroke-width=".19925" stroke-linecap="butt" stroke-miterlimit="10" stroke-linejoin="miter" fill="none" stroke="#b2b3b2" d="M0 0H239.10584M0 47.82117H239.10584M0 71.73175H239.10584M0 95.64233H239.10584M0 119.55292H239.10584"/>
<path transform="matrix(1,0,0,-1.00005,16.683999,141.21141)" stroke-width=".19925" stroke-linecap="butt" stroke-miterlimit="10" stroke-linejoin="miter" fill="none" stroke="#7f807f" d="M11.95529 22.4931V25.32803M35.86588 22.4931V25.32803M59.77646 22.4931V25.32803M83.68704 22.4931V25.32803M107.59763 22.4931V25.32803M131.50821 22.4931V25.32803M155.4188 22.4931V25.32803M179.32938 22.4931V25.32803M203.23996 22.4931V25.32803M227.15055 22.4931V25.32803"/>
<path transform="matrix(1,0,0,-1.00005,16.683999,141.21141)" stroke-width=".19925" stroke-linecap="butt" stroke-miterlimit="10" stroke-linejoin="miter" fill="none" stroke="#7f807f" d="M23.91058 21.78456V26.03658M47.82117 21.78456V26.03658M71.73175 21.78456V26.03658M95.64233 21.78456V26.03658M119.55292 21.78456V26.03658M143.4635 21.78456V26.03658M167.37409 21.78456V26.03658M191.28467 21.78456V26.03658M215.19525 21.78456V26.03658M239.10584 21.78456V26.03658"/>
<path transform="matrix(1,0,0,-1.00005,16.683999,141.21141)" stroke-width=".19925" stroke-linecap="butt" stroke-miterlimit="10" stroke-linejoin="miter" fill="none" stroke="#7f807f" d="M-1.41745 11.95529H1.41745M-1.41745 35.86588H1.41745M-1.41745 59.77646H1.41745M-1.41745 83.68704H1.41745M-1.41745 107.59763H1.41745"/>
<path transform="matrix(1,0,0,-1.00005,16.683999,141.21141)" stroke-width=".19925" stroke-linecap="butt" stroke-miterlimit="10" stroke-linejoin="miter" fill="none" stroke="#7f807f" d="M-2.12599 0H2.12599M-2.12599 47.82117H2.12599M-2.12599 71.73175H2.12599M-2.12599 95.64233H2.12599M-2.12599 119.55292H2.12599"/>
<path transform="matrix(1,0,0,-1.00005,16.683999,141.21141)" stroke-width=".3985" stroke-linecap="butt" stroke-miterlimit="10" stroke-linejoin="miter" fill="none" stroke="#000000" d="M-6.37622 23.91058H245.48206"/>
<path transform="matrix(-1,-0,0,1.00005,10.307777,117.29964)" d="M3.58653 0C2.52383 .19925 .797 .797-.3985 1.49438V-1.49438C.797-.797 2.52383-.19925 3.58653 0"/>
<path transform="matrix(1,0,0,-1.00005,262.16606,117.29964)" d="M3.58653 0C2.52383 .19925 .797 .797-.3985 1.49438V-1.49438C.797-.797 2.52383-.19925 3.58653 0"/>
<path transform="matrix(1,0,0,-1.00005,16.683999,141.21141)" stroke-width=".3985" stroke-linecap="butt" stroke-miterlimit="10" stroke-linejoin="miter" fill="none" stroke="#000000" d="M0-6.37622V125.92914"/>
<path transform="matrix(0,1.00005,1,0,16.683999,147.58795)" d="M3.58653 0C2.52383 .19925 .797 .797-.3985 1.49438V-1.49438C.797-.797 2.52383-.19925 3.58653 0"/>
<path transform="matrix(0,-1.00005,-1,-0,16.683999,15.275986)" d="M3.58653 0C2.52383 .19925 .797 .797-.3985 1.49438V-1.49438C.797-.797 2.52383-.19925 3.58653 0"/>
<use data-text="1" xlink:href="#font_1_2" transform="matrix(7.9701,0,0,-7.970498,38.476999,128.08277)"/>
<use data-text="2" xlink:href="#font_1_3" transform="matrix(7.9701,0,0,-7.970498,62.387998,128.08277)"/>
<use data-text="3" xlink:href="#font_1_4" transform="matrix(7.9701,0,0,-7.970498,86.298999,128.08277)"/>
<use data-text="4" xlink:href="#font_1_5" transform="matrix(7.9701,0,0,-7.970498,110.209,128.08277)"/>
<use data-text="5" xlink:href="#font_1_6" transform="matrix(7.9701,0,0,-7.970498,134.12,128.08277)"/>
<use data-text="6" xlink:href="#font_1_7" transform="matrix(7.9701,0,0,-7.970498,158.03,128.08277)"/>
<use data-text="7" xlink:href="#font_1_8" transform="matrix(7.9701,0,0,-7.970498,181.94101,128.08277)"/>
<use data-text="8" xlink:href="#font_1_9" transform="matrix(7.9701,0,0,-7.970498,205.85199,128.08277)"/>
<use data-text="9" xlink:href="#font_1_10" transform="matrix(7.9701,0,0,-7.970498,229.762,128.08277)"/>
<use data-text="1" xlink:href="#font_1_2" transform="matrix(7.9701,0,0,-7.970498,251.556,128.08277)"/>
<use data-text="0" xlink:href="#font_1_1" transform="matrix(7.9701,0,0,-7.970498,255.78812,128.08277)"/>
<use data-text="&#x2212;" xlink:href="#font_2_1" transform="matrix(7.9701,0,0,-7.970498,.21700287,143.36452)"/>
<use data-text="1" xlink:href="#font_1_2" transform="matrix(7.9701,0,0,-7.970498,6.803009,143.36452)"/>
<use data-text="1" xlink:href="#font_1_2" transform="matrix(7.9701,0,0,-7.970498,6.804001,95.95615)"/>
<use data-text="2" xlink:href="#font_1_3" transform="matrix(7.9701,0,0,-7.970498,6.804001,72.04395)"/>
<use data-text="3" xlink:href="#font_1_4" transform="matrix(7.9701,0,0,-7.970498,6.804001,48.132768)"/>
<use data-text="4" xlink:href="#font_1_5" transform="matrix(7.9701,0,0,-7.970498,6.804001,24.220566)"/>
<g clip-path="url(#clip_3)">
<path transform="matrix(1,0,0,-1.00005,16.683999,141.21141)" stroke-width=".99628" stroke-linecap="butt" stroke-miterlimit="10" stroke-linejoin="miter" fill="none" stroke="#e41a1c" d="M0 23.91058C0 23.91058 1.7448 30.01845 2.41493 31.50948 3.08507 33.00052 4.1598 33.88524 4.82994 34.65706 5.50006 35.42888 6.57475 36.45467 7.24489 37.07227 7.91502 37.68987 8.98975 38.57697 9.65988 39.10835 10.33002 39.63976 11.4047 40.42833 12.07483 40.90224 12.74496 41.37614 13.81966 42.09209 14.48979 42.52402 15.15993 42.95595 16.23465 43.61583 16.90479 44.01537 17.57492 44.41489 18.64961 45.03003 19.31975 45.40353 19.98988 45.77702 21.0646 46.35536 21.73473 46.70728 22.40486 47.0592 23.47955 47.6063 24.14969 47.94005 24.81982 48.27382 25.89452 48.79468 26.56465 49.11288 27.23477 49.43109 28.3095 49.92892 28.97963 50.23355 29.64977 50.53816 30.72446 51.01576 31.39459 51.30838 32.06471 51.60101 33.13945 52.06067 33.80959 52.34262 34.47972 52.62457 35.55441 53.06818 36.22455 53.34056 36.89468 53.61293 37.96936 54.04202 38.6395 54.30571 39.30963 54.56941 40.38435 54.98537 41.05449 55.24118 41.72462 55.49701 42.7993 55.90092 43.46944 56.1495 44.13957 56.39809 45.21431 56.79095 45.88445 57.0329 46.55458 57.27486 47.62927 57.65758 48.2994 57.8934 48.96953 58.12921 50.04422 58.50246 50.71436 58.73257 51.38449 58.9627 52.45921 59.32724 53.12933 59.55206 53.79947 59.7769 54.87416 60.1332 55.5443 60.35307 56.21443 60.57295 57.28915 60.92163 57.95929 61.13687 58.62941 61.35213 59.7041 61.69362 60.37424 61.90451 61.04437 62.11542 62.11906 62.45015 62.7892 62.65694 63.45934 62.86372 64.53406 63.1921 65.2042 63.39502 65.87433 63.59796 66.94902 63.9203 67.61916 64.11958 68.28929 64.31886 69.364 64.63551 70.03413 64.83133 70.70427 65.02713 71.77896 65.33836 72.4491 65.53087 73.11923 65.72337 74.19392 66.02946 74.86404 66.21884 75.53418 66.4082 76.60892 66.70943 77.27905 66.89581 77.94919 67.0822 79.02388 67.37877 79.694 67.56232 80.36414 67.74586 81.43886 68.0379 82.109 68.21873 82.77913 68.39957 83.85382 68.68738 84.52396 68.8656 85.19408 69.04384 86.26877 69.32759 86.9389 69.50333 87.60904 69.67906 88.68376 69.95888 89.3539 70.1322 90.02403 70.30554 91.09871 70.58163 91.76884 70.75267 92.43898 70.9237 93.51372 71.19617 94.18385 71.36499 94.85399 71.53383 95.92867 71.80284 96.5988 71.96954 97.26894 72.13625 98.34363 72.40192 99.01376 72.56657 99.6839 72.73123 100.75862 72.99365 101.42874 73.15636 102.09888 73.31905 103.17357 73.57837 103.8437 73.73917 104.51384 73.89996 105.58858 74.1563 106.2587 74.31525 106.92883 74.4742 108.00352 74.72765 108.67366 74.88481 109.3438 75.04199 110.41849 75.2926 111.08862 75.44806 111.75874 75.60352 112.83347 75.85149 113.5036 76.00526 114.17374 76.15904 115.24843 76.40436 115.91856 76.55653 116.5887 76.70871 117.6634 76.95148 118.33354 77.1021 119.00368 77.25272 120.07837 77.49304 120.7485 77.64214 121.41864 77.79124 122.49332 78.02916 123.16345 78.17679 123.83359 78.32442 124.90833 78.56 125.57846 78.7062 126.2486 78.85243 127.32329 79.08577 127.99341 79.2306 128.66355 79.37544 129.73827 79.60657 130.4084 79.75005 131.07854 79.89352 132.15323 80.12253 132.82335 80.2647 133.49349 80.40686 134.56818 80.63382 135.23831 80.77472 135.90845 80.9156 136.98317 81.14052 137.6533 81.28017 138.32343 81.41982 139.39812 81.64276 140.06826 81.7812 140.73839 81.91965 141.81313 82.14073 142.48326 82.278 143.1534 82.41525 144.22808 82.63443 144.89821 82.77054 145.56835 82.90665 146.64304 83.12402 147.31317 83.25902 147.9833 83.39401 149.05802 83.60962 149.72815 83.74352 150.39829 83.87741 151.47298 84.09125 152.14311 84.22408 152.81325 84.3569 153.88799 84.56912 154.5581 84.7009 155.22824 84.83269 156.30294 85.04318 156.97307 85.17395 157.6432 85.30472 158.7179 85.51366 159.38802 85.64343 160.05815 85.77322 161.13288 85.98055 161.80301 86.10934 162.47315 86.23816 163.54784 86.44394 164.21797 86.5718 164.88809 86.69965 165.96282 86.90396 166.63295 87.03088 167.30309 87.1578 168.37778 87.36061 169.04792 87.48662 169.71805 87.61263 170.79273 87.81403 171.46286 87.93913 172.133 88.06425 173.20774 88.2642 173.87787 88.38844 174.548 88.5127 175.62268 88.71129 176.29282 88.83469 176.96295 88.95808 178.03768 89.15526 178.70781 89.27782 179.37795 89.40038 180.45264 89.59627 181.12276 89.718 181.7929 89.83975 182.86759 90.03435 183.53772 90.15527 184.20786 90.27621 185.2826 90.46953 185.95272 90.58968 186.62285 90.70982 187.69754 90.9019 188.36768 91.02127 189.03781 91.14066 190.11254 91.33147 190.78267 91.45009 191.45279 91.56871 192.52748 91.75836 193.19762 91.87624 193.86775 91.99411 194.94245 92.18253 195.61258 92.29967 196.28272 92.41682 197.35742 92.60413 198.02756 92.72055 198.6977 92.83699 199.77239 93.02313 200.44252 93.13885 201.11266 93.25456 202.18738 93.43959 202.85752 93.55463 203.52765 93.66966 204.60234 93.85362 205.27248 93.96797 205.94261 94.08232 207.0173 94.26518 207.68743 94.37886 208.35756 94.49254 209.43228 94.67435 210.10242 94.78737 210.77256 94.90039 211.84725 95.08118 212.51737 95.19356 213.1875 95.30595 214.26224 95.48566 214.93238 95.59741 215.60251 95.70915 216.6772 95.8879 217.34734 95.99902 218.01746 96.11015 219.09215 96.2879 219.76229 96.39842 220.43242 96.50894 221.50714 96.68568 222.17728 96.7956 222.84741 96.9055 223.92209 97.08131 224.59223 97.19064 225.26236 97.29999 226.33708 97.47485 227.00722 97.58359 227.67736 97.69232 228.75203 97.86626 229.42217 97.97441 230.0923 98.08258 231.16699 98.2556 231.83713 98.36319 232.50727 98.4708 233.582 98.64293 234.25212 98.74997 234.92226 98.85703 235.99695 99.02829 236.66709 99.13478 237.33722 99.24127 239.08206 99.51756 239.08206 99.51756"/>
<path transform="matrix(1,0,0,-1.00005,16.683999,141.21141)" stroke-width=".99628" stroke-linecap="butt" stroke-dasharray="2.98883,2.98883" stroke-miterlimit="10" stroke-linejoin="miter" fill="none" stroke="#377eb8" d="M0 50.81023C0 50.81023 1.7448 51.24591 2.41493 51.41281 3.08507 51.57971 4.1598 51.84691 4.82994 52.01317 5.50006 52.17943 6.57475 52.44559 7.24489 52.61122 7.91502 52.77687 8.98975 53.04204 9.65988 53.20705 10.33002 53.37207 11.4047 53.63618 12.07483 53.80058 12.74496 53.96498 13.81966 54.22812 14.48979 54.39189 15.15993 54.55566 16.23465 54.81781 16.90479 54.98094 17.57492 55.14407 18.64961 55.40521 19.31975 55.56772 19.98988 55.73024 21.0646 55.99036 21.73473 56.15224 22.40486 56.31413 23.47955 56.57327 24.14969 56.73454 24.81982 56.8958 25.89452 57.15392 26.56465 57.31453 27.23477 57.47516 28.3095 57.73227 28.97963 57.89227 29.64977 58.05228 30.72446 58.3084 31.39459 58.46777 32.06471 58.62715 33.13945 58.88223 33.80959 59.04099 34.47972 59.19974 35.55441 59.45384 36.22455 59.61197 36.89468 59.7701 37.96936 60.0232 38.6395 60.1807 39.30963 60.33818 40.38435 60.59029 41.05449 60.74716 41.72462 60.90402 42.7993 61.1551 43.46944 61.31136 44.13957 61.46759 45.21431 61.71768 45.88445 61.87329 46.55458 62.0289 47.62927 62.27798 48.2994 62.43297 48.96953 62.58795 50.04422 62.83601 50.71436 62.99037 51.38449 63.14474 52.45921 63.39183 53.12933 63.54556 53.79947 63.69931 54.87416 63.94534 55.5443 64.09845 56.21443 64.25157 57.28915 64.49663 57.95929 64.64911 58.62941 64.8016 59.7041 65.04567 60.37424 65.19753 61.04437 65.34938 62.11906 65.59239 62.7892 65.74362 63.45934 65.89485 64.53406 66.13689 65.2042 66.28749 65.87433 66.4381 66.94902 66.67912 67.61916 66.8291 68.28929 66.9791 69.364 67.21915 70.03413 67.3685 70.70427 67.51787 71.77896 67.75687 72.4491 67.9056 73.11923 68.0543 74.19392 68.29233 74.86404 68.44043 75.53418 68.58852 76.60892 68.82555 77.27905 68.97302 77.94919 69.1205 79.02388 69.35649 79.694 69.50333 80.36414 69.65016 81.43886 69.8852 82.109 70.0314 82.77913 70.17761 83.85382 70.41159 84.52396 70.55717 85.19408 70.70277 86.26877 70.93576 86.9389 71.08073 87.60904 71.2257 88.68376 71.4577 89.3539 71.60204 90.02403 71.74638 91.09871 71.97736 91.76884 72.12106 92.43898 72.26477 93.51372 72.49475 94.18385 72.63783 94.85399 72.78091 95.92867 73.00989 96.5988 73.15234 97.26894 73.2948 98.34363 73.52278 99.01376 73.66461 99.6839 73.80644 100.75862 74.0334 101.42874 74.17459 102.09888 74.3158 103.17357 74.54178 103.8437 74.68236 104.51384 74.82292 105.58858 75.04787 106.2587 75.18782 106.92883 75.32777 108.00352 75.55173 108.67366 75.69106 109.3438 75.83038 110.41849 76.05331 111.08862 76.19202 111.75874 76.33072 112.83347 76.55267 113.5036 76.69073 114.17374 76.8288 115.24843 77.04973 115.91856 77.18716 116.5887 77.32462 117.6634 77.54454 118.33354 77.68135 119.00368 77.81818 120.07837 78.0371 120.7485 78.17328 121.41864 78.30946 122.49332 78.52737 123.16345 78.66295 123.83359 78.79852 124.90833 79.01546 125.57846 79.15039 126.2486 79.28532 127.32329 79.5012 127.99341 79.63551 128.66355 79.76982 129.73827 79.98474 130.4084 80.11844 131.07854 80.25212 132.15323 80.466 132.82335 80.59908 133.49349 80.73213 134.56818 80.94504 135.23831 81.07747 135.90845 81.20988 136.98317 81.42178 137.6533 81.55359 138.32343 81.6854 139.39812 81.89627 140.06826 82.02745 140.73839 82.15863 141.81313 82.3685 142.48326 82.49905 143.1534 82.6296 144.22808 82.83847 144.89821 82.9684 145.56835 83.09831 146.64304 83.30618 147.31317 83.43547 147.9833 83.56476 149.05802 83.77165 149.72815 83.90031 150.39829 84.02899 151.47298 84.23482 152.14311 84.36287 152.81325 84.49092 153.88799 84.69577 154.5581 84.8232 155.22824 84.95062 156.30294 85.15448 156.97307 85.28127 157.6432 85.40805 158.7179 85.61086 159.38802 85.73701 160.05815 85.86319 161.13288 86.06506 161.80301 86.1906 162.47315 86.31615 163.54784 86.51694 164.21797 86.64185 164.88809 86.76674 165.96282 86.9666 166.63295 87.0909 167.30309 87.21518 168.37778 87.414 169.04792 87.53764 169.71805 87.6613 170.79273 87.85912 171.46286 87.98215 172.133 88.10516 173.20774 88.302 173.87787 88.42441 174.548 88.54681 175.62268 88.74261 176.29282 88.8644 176.96295 88.98616 178.03768 89.18098 178.70781 89.30212 179.37795 89.42328 180.45264 89.61708 181.12276 89.73761 181.7929 89.85812 182.86759 90.05089 183.53772 90.17079 184.20786 90.29068 185.2826 90.48247 185.95272 90.60175 186.62285 90.72102 187.69754 90.91179 188.36768 91.03044 189.03781 91.1491 190.11254 91.3389 190.78267 91.45691 191.45279 91.57492 192.52748 91.76369 193.19762 91.88109 193.86775 91.99847 194.94245 92.18622 195.61258 92.30298 196.28272 92.41975 197.35742 92.60654 198.02756 92.72267 198.6977 92.83879 199.77239 93.02455 200.44252 93.14005 201.11266 93.25555 202.18738 93.44034 202.85752 93.55522 203.52765 93.6701 204.60234 93.85384 205.27248 93.96808 205.94261 94.08232 207.0173 94.26508 207.68743 94.37871 208.35756 94.49234 209.43228 94.67409 210.10242 94.78708 210.77256 94.90007 211.84725 95.08083 212.51737 95.1932 213.1875 95.30557 214.26224 95.48534 214.93238 95.59709 215.60251 95.70883 216.6772 95.88756 217.34734 95.99866 218.01746 96.10977 219.09215 96.28749 219.76229 96.39798 220.43242 96.50848 221.50714 96.68523 222.17728 96.79509 222.84741 96.90495 223.92209 97.08064 224.59223 97.1899 225.26236 97.29913 226.33708 97.47385 227.00722 97.58246 227.67736 97.69109 228.75203 97.86479 229.42217 97.97278 230.0923 98.08075 231.16699 98.25343 231.83713 98.3608 232.50727 98.46814 233.582 98.63985 234.25212 98.74658 234.92226 98.85332 235.99695 99.02399 236.66709 99.1301 237.33722 99.2362 239.08206 99.51141 239.08206 99.51141"/>
</g>
<use data-text="x" xlink:href="#font_4_2" transform="matrix(9.9626,0,0,-9.963098,269.314,119.44032)"/>
<use data-text="y" xlink:href="#font_4_3" transform="matrix(9.9626,0,0,-9.963098,14.062996,6.208664)"/>
<path transform="matrix(1,0,0,-1.00005,16.683999,141.21141)" d="M75.70915-41.54695H163.39665V-24.10947H75.70915Z" fill="#ffffff"/>
<path transform="matrix(1,0,0,-1.00005,16.683999,141.21141)" stroke-width=".3985" stroke-linecap="butt" stroke-miterlimit="10" stroke-linejoin="miter" fill="none" stroke="#000000" d="M75.70915-41.54695H163.39665V-24.10947H75.70915Z"/>
<path transform="matrix(1,0,0,-1.00005,95.88,174.04105)" stroke-width=".99628" stroke-linecap="butt" stroke-miterlimit="10" stroke-linejoin="miter" fill="none" stroke="#e41a1c" d="M0 0C0 0 6.14426 0 8.50412 0 10.86398 0 17.00826 0 17.00826 0"/>
<use data-text="&#x221a;" xlink:href="#font_5_1" transform="matrix(9.9626,0,0,-9.963098,115.379,170.10385)"/>
<path transform="matrix(1,0,0,-1.00005,-24.897006,90.80888)" stroke-width=".3985" stroke-linecap="butt" stroke-miterlimit="10" stroke-linejoin="miter" fill="none" stroke="#000000" d="M148.578-79.092H154.272"/>
<use data-text="x" xlink:href="#font_4_2" transform="matrix(9.9626,0,0,-9.963098,123.681,177.28022)"/>
<path transform="matrix(1,0,0,-1.00005,131.86499,174.04105)" stroke-width=".99628" stroke-linecap="butt" stroke-dasharray="2.98883,2.98883" stroke-miterlimit="10" stroke-linejoin="miter" fill="none" stroke="#377eb8" d="M0 0C0 0 6.14426 0 8.50412 0 10.86398 0 17.00826 0 17.00826 0"/>
<use data-text="T" xlink:href="#font_4_1" transform="matrix(9.9626,0,0,-9.963098,151.364,177.0302)"/>
<use data-text="2" xlink:href="#font_6_1" transform="matrix(6.9738,0,0,-6.9741489,157.186,178.52527)"/>
<use data-text="(" xlink:href="#font_7_1" transform="matrix(9.9626,0,0,-9.963098,161.655,177.0302)"/>
<use data-text="x" xlink:href="#font_4_2" transform="matrix(9.9626,0,0,-9.963098,165.53,177.0302)"/>
<use data-text=")" xlink:href="#font_7_2" transform="matrix(9.9626,0,0,-9.963098,171.224,177.0302)"/>
</svg>
