<svg xmlns="http://www.w3.org/2000/svg" xmlns:xlink="http://www.w3.org/1999/xlink" version="1.1" width="238" height="299" viewBox="0 0 238 299">
<defs>
<clipPath id="clip_1">
<path transform="matrix(1.00005,0,0,-1.00002,11.096153,227.90431)" d="M0 0H206.22547V206.22547H0Z"/>
</clipPath>
<clipPath id="clip_2">
<path transform="matrix(1.00005,0,0,-1.00002,11.096153,227.90431)" d="M0 0H206.22547V206.22547H0Z"/>
</clipPath>
<path id="font_3_1" d="M.69898989 .22743225C.71499636 .22743225 .7369995 .22743225 .7369995 .25042726 .7369995 .2734375 .71499636 .2734375 .69898989 .2734375H.12599182C.10998535 .2734375 .08799744 .2734375 .08799744 .25042726 .08799744 .22743225 .10998535 .22743225 .12599182 .22743225H.69898989Z"/>
<path id="font_4_1" d="M.31399537 .63708499C.31399537 .664032 .31199647 .66503909 .2849884 .66503909 .24398804 .6251831 .19099427 .6013489 .09599304 .6013489V.5683594C.12298584 .5683594 .1769867 .5683594 .23498535 .5953522V.08203125C.23498535 .04499817 .23199463 .032989503 .13699341 .032989503H.101989749V0C.14299011 .0029907227 .22898865 .0029907227 .27398683 .0029907227 .31900025 .0029907227 .4059906 .0029907227 .44699098 0V.032989503H.4119873C.31698609 .032989503 .31399537 .04499817 .31399537 .08203125V.63708499Z"/>
<path id="font_4_2" d="M.28199769 .20405579C.2979889 .21907044 .33999635 .2520752 .35598756 .26608277 .41799928 .32312013 .47698976 .3781433 .47698976 .46917726 .47698976 .588089 .3769989 .66503909 .2519989 .66503909 .13198853 .66503909 .052993776 .57411196 .052993776 .48516847 .052993776 .4361725 .09199524 .4291687 .10598755 .4291687 .1269989 .4291687 .1579895 .4441681 .1579895 .48217774 .1579895 .5341797 .10798645 .5341797 .09599304 .5341797 .125 .6070709 .19198609 .6320343 .24099732 .6320343 .33399964 .6320343 .38198854 .55314639 .38198854 .46917726 .38198854 .36514283 .30899049 .28910829 .19099427 .16804505L.06498718 .037994386C.052993776 .026992798 .052993776 .024993897 .052993776 0H.44799806L.47698976 .17904663H.44599916C.44299317 .1590271 .43499757 .10900879 .4229889 .08999634 .4169922 .08198547 .34098817 .08198547 .32499696 .08198547H.14698792L.28199769 .20405579Z"/>
<clipPath id="clip_5">
<path transform="matrix(1.00005,0,0,-1.00002,11.096153,227.90431)" d="M0 0H206.22547V206.22547H0Z"/>
</clipPath>
<path id="font_6_1" d="M.15899658 .07795715C.14898682 .038986207 .14698792 .0309906 .067993167 .0309906 .050994874 .0309906 .039993287 .0309906 .039993287 .011993408 .039993287 0 .04899597 0 .067993167 0H.39898683C.6069946 0 .80400088 .21087647 .80400088 .42974855 .80400088 .5706482 .71899417 .6826172 .56900027 .6826172H.23298645C.21398926 .6826172 .20298767 .6826172 .20298767 .66360476 .20298767 .6516113 .21199036 .6516113 .23199463 .6516113 .24499512 .6516113 .2630005 .65060427 .2749939 .6496124 .29100038 .6476135 .29699708 .64460757 .29699708 .6336212 .29699708 .6296234 .29599 .62661746 .29299928 .614624L.15899658 .07795715M.375 .6136322C.38398744 .64860537 .38598634 .6516113 .42900086 .6516113H.5359955C.6339874 .6516113 .71699526 .5986328 .71699526 .46672059 .71699526 .41775514 .69699099 .25386048 .6119995 .1439209 .58299258 .10694885 .5039978 .0309906 .3809967 .0309906H.2679901C.2539978 .0309906 .2519989 .0309906 .24598694 .03199768 .23599243 .032989503 .23298645 .033996583 .23298645 .041992189 .23298645 .04498291 .23298645 .04698181 .23799134 .064971927L.375 .6136322Z"/>
<path id="font_6_2" d="M.33399964 .30233766C.33999635 .32835389 .36299134 .42037965 .43299867 .42037965 .43798829 .42037965 .46199037 .42037965 .48298646 .40734864 .45498658 .402359 .43499757 .37734986 .43499757 .35334779 .43499757 .33735658 .44599916 .31835938 .47299195 .31835938 .49499513 .31835938 .5269928 .3363495 .5269928 .37635804 .5269928 .42837525 .46798707 .4423828 .43399049 .4423828 .37599183 .4423828 .34098817 .38935853 .32899476 .36634828 .3039856 .43237306 .25 .4423828 .22099304 .4423828 .116989139 .4423828 .05999756 .3133545 .05999756 .28834535 .05999756 .27833558 .069992069 .27833558 .07199097 .27833558 .07998657 .27833558 .08299255 .28033448 .084991458 .28933717 .11898804 .39535523 .18499756 .42037965 .21899414 .42037965 .23799134 .42037965 .272995 .4113617 .272995 .35334779 .272995 .32235719 .2559967 .25532533 .21899414 .11528015 .20298767 .053268434 .16799927 .011245728 .12399292 .011245728 .117996219 .011245728 .09498596 .011245728 .07398987 .024276734 .09899902 .029266358 .12098694 .05027771 .12098694 .07827759 .12098694 .105270389 .09899902 .11328125 .083999637 .11328125 .053985597 .11328125 .0289917 .08728027 .0289917 .055267335 .0289917 .009246826 .07899475-.0107421879 .12298584-.0107421879 .18899536-.0107421879 .22499085 .059280397 .22799683 .0652771 .23999024 .028274537 .27598573-.0107421879 .33599855-.0107421879 .43899537-.0107421879 .49598695 .118270877 .49598695 .14328003 .49598695 .1532898 .4869995 .1532898 .48399354 .1532898 .47499085 .1532898 .47299195 .14929199 .47099305 .14228821 .43798829 .03527832 .36999513 .011245728 .33799745 .011245728 .29899598 .011245728 .2829895 .043273927 .2829895 .07727051 .2829895 .09927368 .2889862 .121276859 .2999878 .16529846L.33399964 .30233766Z"/>
<path id="font_6_3" d="M.48599244 .38136292C.48999024 .39537049 .48999024 .39736939 .48999024 .40437318 .48999024 .42237855 .47599793 .43138124 .46099855 .43138124 .45098878 .43138124 .43499757 .42536927 .42599488 .41036988 .42399598 .405365 .41600038 .37435914 .4119873 .35635377 .40499879 .33035279 .397995 .30334474 .3919983 .27633668L.34700013 .09628296C.34298707 .08126831 .2999878 .011245728 .23399353 .011245728 .18299866 .011245728 .17199707 .055267335 .17199707 .0922699 .17199707 .1382904 .18899536 .20030213 .22299195 .28833009 .23899842 .3293457 .24299622 .3403473 .24299622 .36035157 .24299622 .405365 .21099854 .4423828 .16099549 .4423828 .06599426 .4423828 .0289917 .29733277 .0289917 .28833009 .0289917 .27833558 .038986207 .27833558 .040985109 .27833558 .050994874 .27833558 .051986696 .28033448 .056991579 .29634095 .083999637 .3903656 .12399292 .42037965 .1579895 .42037965 .1659851 .42037965 .18299866 .42037965 .18299866 .3883667 .18299866 .36335755 .17298889 .3373413 .1659851 .31834413 .12599182 .21231079 .10798645 .1552887 .10798645 .10827637 .10798645 .019256592 .17098999-.0107421879 .22999573-.0107421879 .2689972-.0107421879 .30299378 .0062561037 .33099366 .03425598 .31799317-.017745972 .30599977-.06674194 .2659912-.11973572 .23999024-.15385437 .20199585-.18309021 .1559906-.18309021 .14199829-.18309021 .09700012-.18005371 .07998657-.14074707 .09599304-.14074707 .10899353-.14074707 .12298584-.1287384 .1329956-.11973572 .14299011-.10673523 .14299011-.08773804 .14299011-.056747438 .115997318-.052734376 .10598755-.052734376 .08299255-.052734376 .049987794-.068740848 .049987794-.11773682 .049987794-.16796875 .09399414-.20507813 .1559906-.20507813 .25898744-.20507813 .3619995-.11373901 .3899994-.00074768069L.48599244 .38136292Z"/>
<path id="font_7_1" d="M.6589966 .23046875C.6759949 .23046875 .69400027 .23046875 .69400027 .25045777 .69400027 .27046205 .6759949 .27046205 .6589966 .27046205H.117996219C.100997928 .27046205 .08299255 .27046205 .08299255 .25045777 .08299255 .23046875 .100997928 .23046875 .117996219 .23046875H.6589966Z"/>
<path id="font_8_4" d="M.68699648 .32714845C.70199587 .32714845 .72099307 .32714845 .72099307 .34713746 .72099307 .36714173 .70199587 .36714173 .6879883 .36714173H.08898926C.07499695 .36714173 .055999757 .36714173 .055999757 .34713746 .055999757 .32714845 .07499695 .32714845 .08999634 .32714845H.68699648M.6879883 .13284302C.70199587 .13284302 .72099307 .13284302 .72099307 .15284729 .72099307 .17285156 .70199587 .17285156 .68699648 .17285156H.08999634C.07499695 .17285156 .055999757 .17285156 .055999757 .15284729 .055999757 .13284302 .07499695 .13284302 .08898926 .13284302H.6879883Z"/>
<path id="font_8_2" d="M.45999146 .31976319C.45999146 .39982606 .45498658 .47988893 .41999818 .5539398 .37399293 .65000918 .2919922 .6660156 .25 .6660156 .18998719 .6660156 .116989139 .64001467 .07598877 .54693606 .04399109 .47789 .038986207 .39982606 .038986207 .31976319 .038986207 .24472046 .042999269 .15464783 .083999637 .07859802 .1269989-.0024719239 .19999695-.022460938 .24899292-.022460938 .30299378-.022460938 .3789978-.0014648438 .4229889 .09359741 .45498658 .16265869 .45999146 .2407074 .45999146 .31976319M.24899292-.00047302247C.20999146-.00047302247 .15098572 .024551392 .1329956 .12062073 .12199402 .18066406 .12199402 .2727356 .12199402 .3317871 .12199402 .39582826 .12199402 .46188355 .12998963 .5159149 .14898682 .63500979 .22399903 .64401248 .24899292 .64401248 .28199769 .64401248 .34799195 .6259918 .36698915 .52693179 .3769989 .47088624 .3769989 .39482118 .3769989 .3317871 .3769989 .25672914 .3769989 .18867493 .3659973 .12461853 .35099793 .029556275 .2939911-.00047302247 .24899292-.00047302247Z"/>
<path id="font_8_3" d="M.1269989 .07699585 .23298645 .18003845C.3889923 .31811524 .44898988 .3721466 .44898988 .47216798 .44898988 .5860901 .35899354 .6660156 .23699951 .6660156 .12399292 .6660156 .049987794 .57411196 .049987794 .48516847 .049987794 .4291687 .099990848 .4291687 .102996829 .4291687 .11999512 .4291687 .15499878 .44117738 .15499878 .48217774 .15499878 .5081787 .13699341 .5341797 .101989749 .5341797 .09399414 .5341797 .09199524 .5341797 .08898926 .5331726 .11199951 .59806826 .1659851 .63500979 .22399903 .63500979 .31498719 .63500979 .35798646 .5541382 .35798646 .47216798 .35798646 .39215089 .30799867 .31311036 .25299073 .25108338L.06098938 .036987306C.049987794 .025985718 .049987794 .023986817 .049987794 0H.42099L.44898988 .17404175H.42399598C.4189911 .14402771 .4119873 .1000061 .4019928 .084991458 .394989 .07699585 .32899476 .07699585 .30699159 .07699585H.1269989Z"/>
<path id="font_8_1" d="M.40899659 .23046875H.6879883C.70199587 .23046875 .72099307 .23046875 .72099307 .25045777 .72099307 .27046205 .70199587 .27046205 .6879883 .27046205H.40899659V.5500183C.40899659 .56399539 .40899659 .5830078 .3889923 .5830078 .36898805 .5830078 .36898805 .56399539 .36898805 .5500183V.27046205H.08898926C.07499695 .27046205 .055999757 .27046205 .055999757 .25045777 .055999757 .23046875 .07499695 .23046875 .08898926 .23046875H.36898805V-.05000305C.36898805-.06401062 .36898805-.08300781 .3889923-.08300781 .40899659-.08300781 .40899659-.06401062 .40899659-.05000305V.23046875Z"/>
</defs>
<path transform="matrix(1.00005,0,0,-1.00002,11.096153,227.90431)" stroke-width=".09962" stroke-linecap="butt" stroke-miterlimit="10" stroke-linejoin="miter" fill="none" stroke="#e0e0e0" d="M34.37091 0V206.22547M103.11273 0V206.22547M171.85456 0V206.22547"/>
<path transform="matrix(1.00005,0,0,-1.00002,11.096153,227.90431)" stroke-width=".19925" stroke-linecap="butt" stroke-miterlimit="10" stroke-linejoin="miter" fill="none" stroke="#c0c0c0" d="M34.37091 0V206.22547M171.85456 0V206.22547"/>
<path transform="matrix(1.00005,0,0,-1.00002,11.096153,227.90431)" stroke-width=".09962" stroke-linecap="butt" stroke-miterlimit="10" stroke-linejoin="miter" fill="none" stroke="#e0e0e0" d="M0 34.37091H206.22547M0 103.11273H206.22547M0 171.85456H206.22547"/>
<path transform="matrix(1.00005,0,0,-1.00002,11.096153,227.90431)" stroke-width=".19925" stroke-linecap="butt" stroke-miterlimit="10" stroke-linejoin="miter" fill="none" stroke="#c0c0c0" d="M0 103.11273H206.22547M0 171.85456H206.22547"/>
<path transform="matrix(1.00005,0,0,-1.00002,11.096153,227.90431)" stroke-width=".19925" stroke-linecap="butt" stroke-miterlimit="10" stroke-linejoin="miter" fill="none" stroke="#929292" d="M34.37091 32.9535V35.78833M103.11273 32.9535V35.78833M171.85456 32.9535V35.78833"/>
<path transform="matrix(1.00005,0,0,-1.00002,11.096153,227.90431)" stroke-width=".19925" stroke-linecap="butt" stroke-miterlimit="10" stroke-linejoin="miter" fill="none" stroke="#929292" d="M34.37091 32.245V36.4968M171.85456 32.245V36.4968"/>
<path transform="matrix(1.00005,0,0,-1.00002,11.096153,227.90431)" stroke-width=".19925" stroke-linecap="butt" stroke-miterlimit="10" stroke-linejoin="miter" fill="none" stroke="#929292" d="M101.69533 34.37091H104.53015M101.69533 103.11273H104.53015M101.69533 171.85456H104.53015"/>
<path transform="matrix(1.00005,0,0,-1.00002,11.096153,227.90431)" stroke-width=".19925" stroke-linecap="butt" stroke-miterlimit="10" stroke-linejoin="miter" fill="none" stroke="#929292" d="M100.98683 103.11273H105.23862M100.98683 171.85456H105.23862"/>
<path transform="matrix(1.00005,0,0,-1.00002,11.096153,227.90431)" stroke-width=".3985" stroke-linecap="butt" stroke-miterlimit="10" stroke-linejoin="miter" fill="none" stroke="#000000" d="M-6.37622 34.37091H212.6017"/>
<path transform="matrix(-1.00005,-0,0,1.00002,4.7196147,193.53272)" d="M3.58653 0C2.52383 .19925 .797 .797-.3985 1.49438V-1.49438C.797-.797 2.52383-.19925 3.58653 0"/>
<path transform="matrix(1.00005,0,0,-1.00002,223.70847,193.53272)" d="M3.58653 0C2.52383 .19925 .797 .797-.3985 1.49438V-1.49438C.797-.797 2.52383-.19925 3.58653 0"/>
<path transform="matrix(1.00005,0,0,-1.00002,11.096153,227.90431)" stroke-width=".3985" stroke-linecap="butt" stroke-miterlimit="10" stroke-linejoin="miter" fill="none" stroke="#000000" d="M103.11273-6.37622V212.6017"/>
<path transform="matrix(0,1.00002,1.00005,0,114.214038,234.28066)" d="M3.58653 0C2.52383 .19925 .797 .797-.3985 1.49438V-1.49438C.797-.797 2.52383-.19925 3.58653 0"/>
<path transform="matrix(0,-1.00002,-1.00005,-0,114.214038,15.298355)" d="M3.58653 0C2.52383 .19925 .797 .797-.3985 1.49438V-1.49438C.797-.797 2.52383-.19925 3.58653 0"/>
<g clip-path="url(#clip_1)">
<path transform="matrix(1.00005,0,0,-1.00002,11.096153,227.90431)" d="M34.37093 103.09743C35.37497 102.1086 36.34244 101.14116 37.12032 100.3633 39.04694 98.43668 42.13661 95.34702 44.06323 93.4204 45.98985 91.49377 49.07953 88.40408 51.00615 86.47746 52.93279 84.55084 56.02245 81.46118 57.94907 79.53456 59.87569 77.60793 62.96538 74.51825 64.892 72.59163 66.81862 70.66501 69.90828 67.57533 71.8349 65.64871 73.76152 63.72209 76.85121 60.63242 78.77783 58.7058 80.70445 56.77917 83.79411 53.6895 85.72073 51.76288 87.64737 49.83626 90.73705 46.74658 92.66367 44.81996 94.59029 42.89333 97.67996 39.80367 99.60658 37.87704 100.5787 36.90489 101.84692 35.63664 103.11244 34.3711V171.85427C101.84692 170.58875 100.5787 169.32051 99.60658 168.3484 97.67996 166.42179 94.59029 163.33213 92.66367 161.40549 90.73705 159.47887 87.64737 156.38919 85.72073 154.46257 83.79411 152.53595 80.70445 149.44629 78.77783 147.51967 76.85121 145.59305 73.76152 142.50337 71.8349 140.57675 69.90828 138.65012 66.81862 135.56046 64.892 133.63384 62.96538 131.70722 59.87569 128.61753 57.94907 126.69089 56.02245 124.76427 52.93279 121.67462 51.00615 119.748 49.07953 117.82138 45.98985 114.73167 44.06323 112.80505 42.13661 110.87843 39.04694 107.78877 37.12032 105.86215 36.34244 105.08426 35.37497 104.11679 34.37093 103.09758Z" fill="#0000ff" fill-opacity=".05"/>
</g>
<g clip-path="url(#clip_2)">
<path transform="matrix(1.00005,0,0,-1.00002,11.096153,227.90431)" d="M103.1125 34.37889C104.35503 35.61319 105.595 36.85316 106.5495 37.80768 108.47612 39.7343 111.5658 42.82396 113.49242 44.7506 115.41904 46.67722 118.50871 49.76689 120.43533 51.69351 122.36197 53.62013 125.45163 56.70981 127.37825 58.63643 129.30487 60.56305 132.39456 63.65273 134.32118 65.57935 136.2478 67.50597 139.33747 70.59564 141.26409 72.52226 143.1907 74.44888 146.2804 77.53856 148.20702 79.4652 150.13364 81.39182 153.2233 84.48148 155.14992 86.4081 157.07656 88.33472 160.16623 91.42441 162.09285 93.35103 164.01947 95.27765 167.10913 98.36731 169.03577 100.29393 169.8315 101.08966 170.82563 102.08379 171.85427 103.11244V103.1129C170.82563 104.14159 169.8315 105.13577 169.03577 105.93152 167.10913 107.85814 164.01947 110.9478 162.09285 112.87442 160.16623 114.80104 157.07656 117.89073 155.14992 119.81735 153.2233 121.74397 150.13364 124.83363 148.20702 126.76025 146.2804 128.68689 143.1907 131.77657 141.26409 133.70319 139.33747 135.6298 136.2478 138.71949 134.32118 140.64612 132.39456 142.57274 129.30487 145.6624 127.37825 147.58902 125.45163 149.51564 122.36197 152.60533 120.43533 154.53195 118.50871 156.45858 115.41904 159.54824 113.49242 161.47486 111.5658 163.40149 108.47612 166.49117 106.5495 168.41779 105.595 169.37227 104.35503 170.61222 103.1125 171.84632Z" fill="#0000ff" fill-opacity=".05"/>
</g>
<use data-text="&#x2212;" xlink:href="#font_3_1" transform="matrix(7.970498,0,0,-7.9702599,40.0576,204.31484)"/>
<use data-text="1" xlink:href="#font_4_1" transform="matrix(7.970498,0,0,-7.9702599,46.643926,204.31484)"/>
<use data-text="1" xlink:href="#font_4_1" transform="matrix(7.970498,0,0,-7.9702599,180.84165,204.31484)"/>
<use data-text="1" xlink:href="#font_4_1" transform="matrix(7.970498,0,0,-7.9702599,104.33381,127.3573)"/>
<use data-text="2" xlink:href="#font_4_2" transform="matrix(7.970498,0,0,-7.9702599,104.33381,58.61493)"/>
<g clip-path="url(#clip_5)">
<path transform="matrix(1.00005,0,0,-1.00002,11.096153,227.90431)" stroke-width=".99628" stroke-linecap="butt" stroke-miterlimit="10" stroke-linejoin="miter" fill="none" stroke="#ff0000" d="M-240.00817-308.74998C-235.5801-304.3219-235.5801-304.3219-233.65348-302.3953-231.72686-300.46867-228.63719-297.379-226.71056-295.4524-224.78394-293.52577-221.69426-290.43608-219.76764-288.50947-217.84102-286.58283-214.75135-283.49317-212.82472-281.56654-210.8981-279.63993-207.80843-276.55024-205.8818-274.6236-203.95517-272.697-200.86551-269.60734-198.93889-267.6807-197.01227-265.75407-193.92259-262.6644-191.99596-260.7378-190.06934-258.81117-186.97968-255.72148-185.05306-253.79486-183.12644-251.86824-180.03675-248.77857-178.11013-246.85195-176.1835-244.92531-173.09384-241.83565-171.16722-239.90903-169.24059-237.9824-166.15091-234.89272-164.22429-232.9661-162.29767-231.03948-159.20801-227.94982-157.28137-226.0232-155.35475-224.09658-152.26508-221.00688-150.33846-219.08026-148.41184-217.15364-145.32216-214.06398-143.39554-212.13736-141.46892-210.21073-138.37924-207.12105-136.45262-205.19443-134.52599-203.2678-131.43633-200.17815-129.5097-198.25151-127.58308-196.32489-124.49341-193.23522-122.56677-191.3086-120.64015-189.38198-117.55049-186.2923-115.62387-184.36568-113.69725-182.43906-110.60756-179.34938-108.68094-177.42276-106.75432-175.49613-103.66466-172.40647-101.73804-170.47985-99.81142-168.55323-96.72173-165.46355-94.7951-163.53691-92.86848-161.61029-89.77882-158.52063-87.85219-156.59401-85.92557-154.66739-82.83589-151.5777-80.90927-149.65108-78.98265-147.72446-75.89297-144.6348-73.96635-142.70818-72.03973-140.78154-68.95006-137.69187-67.02344-135.76525-65.09682-133.83863-62.00714-130.74897-60.08052-128.82233-58.1539-126.8957-55.06422-123.80603-53.13759-121.87941-51.21097-119.95279-48.1213-116.86311-46.19469-114.9365-44.26807-113.00987-41.17838-109.9202-39.25175-107.99358-37.32513-106.06694-34.23547-102.97728-32.30885-101.05066-30.38223-99.12404-27.29254-96.03436-25.36592-94.10773-23.4393-92.1811-20.34964-89.09145-18.423-87.16483-16.49638-85.2382-13.40671-82.14851-11.48009-80.2219-9.55347-78.29527-6.46379-75.20561-4.53717-73.27899-2.61055-71.35236 .47911-68.26268 2.40573-66.33606 4.33235-64.40944 7.42203-61.31978 9.34865-59.39314 11.27527-57.46652 14.36493-54.37686 16.29156-52.45024 18.21819-50.52362 21.30786-47.43393 23.23448-45.50731 25.1611-43.58069 28.25078-40.49103 30.1774-38.5644 32.10402-36.63777 35.1937-33.5481 37.12032-31.62148 39.04694-29.69485 42.13661-26.6052 44.06323-24.67856 45.98985-22.75194 49.07953-19.66226 51.00615-17.73564 52.93279-15.80902 56.02245-12.71935 57.94907-10.79272 59.87569-8.8661 62.96538-5.77643 64.892-3.84981 66.81862-1.92317 69.90828 1.16646 71.8349 3.09308 73.76152 5.0197 76.85121 8.10938 78.77783 10.03601 80.70445 11.96263 83.79411 15.05229 85.72073 16.97891 87.64737 18.90553 90.73705 21.99522 92.66367 23.92184 94.59029 25.84846 97.67996 28.93813 99.60658 30.86475 101.5332 32.79138 104.62288 35.88106 106.5495 37.80768 108.47612 39.7343 111.5658 42.82396 113.49242 44.7506 115.41904 46.67722 118.50871 49.76689 120.43533 51.69351 122.36197 53.62013 125.45163 56.70981 127.37825 58.63643 129.30487 60.56305 132.39456 63.65273 134.32118 65.57935 136.2478 67.50597 139.33747 70.59564 141.26409 72.52226 143.1907 74.44888 146.2804 77.53856 148.20702 79.4652 150.13364 81.39182 153.2233 84.48148 155.14992 86.4081 157.07656 88.33472 160.16623 91.42441 162.09285 93.35103 164.01947 95.27765 167.10913 98.36731 169.03577 100.29393 170.96239 102.22055 174.05207 105.31024 175.97869 107.23686 177.9053 109.16348 180.99498 112.25314 182.9216 114.17978 184.84822 116.1064 187.9379 119.19608 189.86452 121.1227 191.79116 123.04932 194.88082 126.13899 196.80744 128.06562 198.73406 129.99224 201.82373 133.08191 203.75037 135.00853 205.67699 136.93515 208.76665 140.02483 210.69327 141.95145 212.61989 143.87807 215.70958 146.96775 217.6362 148.89438 219.56282 150.821 222.65248 153.91066 224.5791 155.83728 226.50574 157.7639 229.59542 160.85359 231.52204 162.78022 233.44866 164.70684 236.53832 167.7965 238.46495 169.72312 240.39157 171.64974 243.48125 174.73943 245.40787 176.66605 247.33449 178.59267 250.42417 181.68233 252.35079 183.60895 254.2774 185.53559 257.36708 188.62525 259.2937 190.55187 261.2203 192.47849 264.31 195.56818 266.23664 197.4948 268.16325 199.42142 271.2529 202.51108 273.17955 204.4377 275.10618 206.36432 278.19584 209.45401 280.12245 211.38063 282.04908 213.30725 285.13877 216.39691 287.06538 218.32353 288.992 220.25017 292.08168 223.33985 294.0083 225.26647 295.9349 227.19309 299.02458 230.28276 300.9512 232.20938 302.8778 234.136 305.9675 237.22568 307.89414 239.1523 309.82078 241.07892 312.91044 244.1686 314.83705 246.09522 316.76368 248.02184 319.85337 251.11151 321.77998 253.03813 323.7066 254.96477 326.79627 258.05445 328.72288 259.98106 330.6495 261.90769 333.73918 264.99736 335.6658 266.92399 337.5924 268.8506 340.68208 271.94026 342.60874 273.86689 344.53535 275.7935 347.62504 278.8832 349.55165 280.8098 351.47828 282.73643 354.56794 285.8261 356.49455 287.75273 358.42118 289.67936 361.51087 292.76905 363.43748 294.69566 365.3641 296.62229 368.45378 299.71195 370.3804 301.63859 372.307 303.5652 375.39668 306.65486 377.32334 308.58149 379.24995 310.5081 382.3396 313.59779 384.2662 315.5244 386.19285 317.45103 389.28254 320.5407 391.20915 322.46733 393.13578 324.39396 396.22544 327.4836 398.15205 329.41023 400.07868 331.33686 403.16838 334.42655 405.095 336.35316 407.0216 338.2798 410.11128 341.36946 412.0379 343.29609 413.9645 345.2227 417.0542 348.31239 418.98085 350.239 420.90745 352.16563 423.99714 355.25529 425.92375 357.1819 427.85038 359.10856 430.94004 362.1982 432.86665 364.12483 434.79328 366.05146 437.88298 369.1411 439.80958 371.06776 441.73619 372.9944 446.7525 378.01069 446.16426 377.42243"/>
<path transform="matrix(-.70712539,.70711418,.7071353,.7071042,-228.92401,536.66049)" stroke-width=".79701" stroke-linecap="round" stroke-linejoin="round" fill="none" stroke="#ff0000" d="M-1.73352 2.31136C-1.58905 1.4446 0 .14444 .43336 0 0-.14444-1.58905-1.4446-1.73352-2.31136"/>
<path transform="matrix(.7071353,-.70711418,-.7071353,-.70711418,457.28269,-149.52568)" stroke-width=".79701" stroke-linecap="round" stroke-linejoin="round" fill="none" stroke="#ff0000" d="M-1.73352 2.31136C-1.58905 1.4446 0 .14444 .43336 0 0-.14444-1.58905-1.4446-1.73352-2.31136"/>
<path transform="matrix(1.00005,0,0,-1.00002,11.096153,227.90431)" stroke-width=".99628" stroke-linecap="butt" stroke-dasharray="2.98883,1.99255,.99628,1.99255" stroke-miterlimit="10" stroke-linejoin="miter" fill="none" stroke="#ff0000" d="M-240.00817-171.26631C-235.5801-166.83826-235.5801-166.83826-233.65348-164.91164-231.72686-162.98502-228.63719-159.89534-226.71056-157.96872-224.78394-156.0421-221.69426-152.95243-219.76764-151.02579-217.84102-149.09917-214.75135-146.0095-212.82472-144.08289-210.8981-142.15627-207.80843-139.06658-205.8818-137.13996-203.95517-135.21334-200.86551-132.12368-198.93889-130.19705-197.01227-128.27043-193.92259-125.18074-191.99596-123.25412-190.06934-121.3275-186.97968-118.23784-185.05306-116.31122-183.12644-114.38458-180.03675-111.2949-178.11013-109.36829-176.1835-107.44167-173.09384-104.35199-171.16722-102.42537-169.24059-100.49875-166.15091-97.40907-164.22429-95.48245-162.29767-93.55583-159.20801-90.46616-157.28137-88.53954-155.35475-86.61292-152.26508-83.52324-150.33846-81.59662-148.41184-79.66998-145.32216-76.58032-143.39554-74.6537-141.46892-72.72708-138.37924-69.63739-136.45262-67.71077-134.52599-65.78415-131.43633-62.69449-129.5097-60.76787-127.58308-58.84125-124.49341-55.75156-122.56677-53.82494-120.64015-51.89832-117.55049-48.80865-115.62387-46.88203-113.69725-44.9554-110.60756-41.86572-108.68094-39.9391-106.75432-38.01248-103.66466-34.9228-101.73804-32.99619-99.81142-31.06956-96.72173-27.97989-94.7951-26.05327-92.86848-24.12665-89.77882-21.03697-87.85219-19.11035-85.92557-17.18373-82.83589-14.09406-80.90927-12.16743-78.98265-10.2408-75.89297-7.15114-73.96635-5.22452-72.03973-3.2979-68.95006-.20824-67.02344 1.71838-65.09682 3.645-62.00714 6.73466-60.08052 8.66129-58.1539 10.5879-55.06422 13.6776-53.13759 15.60422-51.21097 17.53084-48.1213 20.6205-46.19469 22.54712-44.26807 24.47375-41.17838 27.56343-39.25175 29.49005-37.32513 31.41667-34.23547 34.50633-32.30885 36.43297-30.38223 38.35959-27.29254 41.44926-25.36592 43.37589-23.4393 45.3025-20.34964 48.39218-18.423 50.3188-16.49638 52.24542-13.40671 55.3351-11.48009 57.26172-9.55347 59.18835-6.46379 62.27802-4.53717 64.20464-2.61055 66.13126 .47911 69.22093 2.40573 71.14757 4.33235 73.07419 7.42203 76.16385 9.34865 78.09047 11.27527 80.01709 14.36493 83.10677 16.29156 85.03339 18.21819 86.96 21.30786 90.04968 23.23448 91.9763 25.1611 93.90294 28.25078 96.9926 30.1774 98.91922 32.10402 100.84584 35.1937 103.93552 37.12032 105.86215 39.04694 107.78877 42.13661 110.87843 44.06323 112.80505 45.98985 114.73167 49.07953 117.82138 51.00615 119.748 52.93279 121.67462 56.02245 124.76427 57.94907 126.69089 59.87569 128.61753 62.96538 131.70722 64.892 133.63384 66.81862 135.56046 69.90828 138.65012 71.8349 140.57675 73.76152 142.50337 76.85121 145.59305 78.77783 147.51967 80.70445 149.44629 83.79411 152.53595 85.72073 154.46257 87.64737 156.38919 90.73705 159.47887 92.66367 161.40549 94.59029 163.33213 97.67996 166.42179 99.60658 168.3484 101.5332 170.27503 104.62288 173.36469 106.5495 175.29132 108.47612 177.21794 111.5658 180.30762 113.49242 182.23424 115.41904 184.16086 118.50871 187.25054 120.43533 189.17716 122.36197 191.10378 125.45163 194.19345 127.37825 196.12007 129.30487 198.0467 132.39456 201.13637 134.32118 203.06299 136.2478 204.98961 139.33747 208.07929 141.26409 210.00592 143.1907 211.93254 146.2804 215.02222 148.20702 216.94884 150.13364 218.87546 153.2233 221.96514 155.14992 223.89176 157.07656 225.81838 160.16623 228.90805 162.09285 230.83467 164.01947 232.76129 167.10913 235.85097 169.03577 237.77759 170.96239 239.70421 174.05207 242.79389 175.97869 244.72052 177.9053 246.64714 180.99498 249.7368 182.9216 251.66342 184.84822 253.59004 187.9379 256.67973 189.86452 258.60636 191.79116 260.53297 194.88082 263.62263 196.80744 265.54927 198.73406 267.4759 201.82373 270.56559 203.75037 272.4922 205.67699 274.41883 208.76665 277.50849 210.69327 279.4351 212.61989 281.36174 215.70958 284.4514 217.6362 286.37803 219.56282 288.30464 222.65248 291.39433 224.5791 293.32096 226.50574 295.24757 229.59542 298.33723 231.52204 300.26387 233.44866 302.1905 236.53832 305.28016 238.46495 307.20677 240.39157 309.1334 243.48125 312.22309 245.40787 314.1497 247.33449 316.07633 250.42417 319.166 252.35079 321.0926 254.2774 323.01924 257.36708 326.1089 259.2937 328.03553 261.2203 329.96214 264.31 333.05183 266.23664 334.97846 268.16325 336.90507 271.2529 339.99476 273.17955 341.92137 275.10618 343.848 278.19584 346.93766 280.12245 348.8643 282.04908 350.79093 285.13877 353.88059 287.06538 355.8072 288.992 357.7338 292.08168 360.8235 294.0083 362.75013 295.9349 364.67674 299.02458 367.7664 300.9512 369.69303 302.8778 371.61964 305.9675 374.70936 307.89414 376.63597 309.82078 378.5626 312.91044 381.65226 314.83705 383.57887 316.76368 385.5055 319.85337 388.59519 321.77998 390.5218 323.7066 392.4484 326.79627 395.5381 328.72288 397.4647 330.6495 399.39134 333.73918 402.481 335.6658 404.40763 337.5924 406.33424 340.68208 409.42393 342.60874 411.35054 344.53535 413.27717 347.62504 416.36686 349.55165 418.29347 351.47828 420.2201 354.56794 423.30976 356.49455 425.23637 358.42118 427.163 361.51087 430.2527 363.43748 432.1793 365.3641 434.10594 368.45378 437.1956 370.3804 439.12223 372.307 441.04884 375.39668 444.13853 377.32334 446.06517 379.24995 447.99177 382.3396 451.08143 384.2662 453.00804 386.19285 454.9347 389.28254 458.02436 391.20915 459.95097 393.13578 461.8776 396.22544 464.9673 398.15205 466.8939 400.07868 468.8205 403.16838 471.9102 405.095 473.8368 407.0216 475.76344 410.11128 478.8531 412.0379 480.77973 413.9645 482.70634 417.0542 485.79603 418.98085 487.72264 420.90745 489.6493 423.99714 492.73896 425.92375 494.66557 427.85038 496.5922 430.94004 499.68186 432.86665 501.6085 434.79328 503.5351 437.88298 506.62477 439.80958 508.5514 441.73619 510.478 446.7525 515.4943 446.16426 514.90609"/>
<path transform="matrix(-.70712539,.70711418,.7071353,.7071042,-228.92401,399.17408)" stroke-width=".79701" stroke-linecap="round" stroke-linejoin="round" fill="none" stroke="#ff0000" d="M-1.73352 2.31136C-1.58905 1.4446 0 .14444 .43336 0 0-.14444-1.58905-1.4446-1.73352-2.31136"/>
<path transform="matrix(.7071353,-.70711418,-.7071353,-.70711418,457.28269,-287.0121)" stroke-width=".79701" stroke-linecap="round" stroke-linejoin="round" fill="none" stroke="#ff0000" d="M-1.73352 2.31136C-1.58905 1.4446 0 .14444 .43336 0 0-.14444-1.58905-1.4446-1.73352-2.31136"/>
<path transform="matrix(1.00005,0,0,-1.00002,11.096153,227.90431)" stroke-width=".99628" stroke-linecap="butt" stroke-miterlimit="10" stroke-linejoin="miter" fill="none" stroke="#000000" d="M-240.00817 377.4918C-235.5801 373.06376-235.5801 373.06376-233.65348 371.13713-231.72686 369.21049-228.63719 366.12083-226.71056 364.1942-224.78394 362.26759-221.69426 359.1779-219.76764 357.25129-217.84102 355.32466-214.75135 352.235-212.82472 350.30836-210.8981 348.38175-207.80843 345.29206-205.8818 343.36543-203.95517 341.4388-200.86551 338.34916-198.93889 336.42253-197.01227 334.4959-193.92259 331.40623-191.99596 329.4796-190.06934 327.55299-186.97968 324.46333-185.05306 322.53669-183.12644 320.61006-180.03675 317.5204-178.11013 315.59379-176.1835 313.66716-173.09384 310.57749-171.16722 308.65086-169.24059 306.72425-166.15091 303.63456-164.22429 301.70793-162.29767 299.7813-159.20801 296.69166-157.28137 294.765-155.35475 292.8384-152.26508 289.74873-150.33846 287.82209-148.41184 285.89546-145.32216 282.8058-143.39554 280.87919-141.46892 278.95256-138.37924 275.86289-136.45262 273.93626-134.52599 272.00965-131.43633 268.91999-129.5097 266.99336-127.58308 265.06675-124.49341 261.97706-122.56677 260.0504-120.64015 258.1238-117.55049 255.03414-115.62387 253.1075-113.69725 251.18088-110.60756 248.0912-108.68094 246.16458-106.75432 244.23796-103.66466 241.14829-101.73804 239.22167-99.81142 237.29505-96.72173 234.20537-94.7951 232.27875-92.86848 230.35213-89.77882 227.26245-87.85219 225.33583-85.92557 223.40921-82.83589 220.31954-80.90927 218.3929-78.98265 216.46628-75.89297 213.37662-73.96635 211.45-72.03973 209.52338-68.95006 206.43369-67.02344 204.50707-65.09682 202.58045-62.00714 199.49079-60.08052 197.56417-58.1539 195.63755-55.06422 192.54785-53.13759 190.62123-51.21097 188.69461-48.1213 185.60495-46.19469 183.67833-44.26807 181.7517-41.17838 178.66202-39.25175 176.7354-37.32513 174.80878-34.23547 171.7191-32.30885 169.79248-30.38223 167.86586-27.29254 164.77619-25.36592 162.84957-23.4393 160.92295-20.34964 157.83327-18.423 155.90665-16.49638 153.98003-13.40671 150.89035-11.48009 148.96373-9.55347 147.0371-6.46379 143.94744-4.53717 142.02082-2.61055 140.0942 .47911 137.0045 2.40573 135.07788 4.33235 133.15126 7.42203 130.0616 9.34865 128.13498 11.27527 126.20836 14.36493 123.11868 16.29156 121.19206 18.21819 119.26544 21.30786 116.17577 23.23448 114.24915 25.1611 112.32251 28.25078 109.23285 30.1774 107.30623 32.10402 105.37961 35.1937 102.28992 37.12032 100.3633 39.04694 98.43668 42.13661 95.34702 44.06323 93.4204 45.98985 91.49377 49.07953 88.40408 51.00615 86.47746 52.93279 84.55084 56.02245 81.46118 57.94907 79.53456 59.87569 77.60793 62.96538 74.51825 64.892 72.59163 66.81862 70.66501 69.90828 67.57533 71.8349 65.64871 73.76152 63.72209 76.85121 60.63242 78.77783 58.7058 80.70445 56.77917 83.79411 53.6895 85.72073 51.76288 87.64737 49.83626 90.73705 46.74658 92.66367 44.81996 94.59029 42.89333 97.67996 39.80367 99.60658 37.87704 101.5332 35.95042 104.62288 32.86075 106.5495 30.93411 108.47612 29.00749 111.5658 25.91783 113.49242 23.99121 115.41904 22.06459 118.50871 18.9749 120.43533 17.04828 122.36197 15.12166 125.45163 12.032 127.37825 10.10538 129.30487 8.17874 132.39456 5.08907 134.32118 3.16245 136.2478 1.23582 139.33747-1.8538 141.26409-3.78044 143.1907-5.70706 146.2804-8.79674 148.20702-10.72336 150.13364-12.64998 153.2233-15.73965 155.14992-17.66628 157.07656-19.5929 160.16623-22.68257 162.09285-24.60919 164.01947-26.53583 167.10913-29.62549 169.03577-31.55211 170.96239-33.47873 174.05207-36.5684 175.97869-38.49504 177.9053-40.42166 180.99498-43.51132 182.9216-45.43794 184.84822-47.36456 187.9379-50.45425 189.86452-52.38087 191.79116-54.3075 194.88082-57.39716 196.80744-59.32378 198.73406-61.25041 201.82373-64.34009 203.75037-66.26671 205.67699-68.19333 208.76665-71.28299 210.69327-73.20963 212.61989-75.13625 215.70958-78.22592 217.6362-80.15254 219.56282-82.07916 222.65248-85.16884 224.5791-87.09546 226.50574-89.02208 229.59542-92.11176 231.52204-94.03838 233.44866-95.96501 236.53832-99.05467 238.46495-100.9813 240.39157-102.90791 243.48125-105.99759 245.40787-107.92422 247.33449-109.85085 250.42417-112.9405 252.35079-114.86713 254.2774-116.79375 257.36708-119.88342 259.2937-121.81004 261.2203-123.73666 264.31-126.82634 266.23664-128.75296 268.16325-130.6796 271.2529-133.76926 273.17955-135.69588 275.10618-137.6225 278.19584-140.71218 280.12245-142.63881 282.04908-144.56543 285.13877-147.65509 287.06538-149.58171 288.992-151.50833 292.08168-154.59803 294.0083-156.52465 295.9349-158.45127 299.02458-161.54093 300.9512-163.46755 302.8778-165.39418 305.9675-168.48386 307.89414-170.41048 309.82078-172.3371 312.91044-175.42676 314.83705-177.3534 316.76368-179.28002 319.85337-182.36969 321.77998-184.29631 323.7066-186.22293 326.79627-189.3126 328.72288-191.23923 330.6495-193.16585 333.73918-196.25553 335.6658-198.18215 337.5924-200.10877 340.68208-203.19844 342.60874-205.12506 344.53535-207.05168 347.62504-210.14136 349.55165-212.068 351.47828-213.99462 354.56794-217.08428 356.49455-219.0109 358.42118-220.93752 361.51087-224.0272 363.43748-225.95383 365.3641-227.88045 368.45378-230.97011 370.3804-232.89673 372.307-234.82335 375.39668-237.91304 377.32334-239.83966 379.24995-241.76628 382.3396-244.85594 384.2662-246.78258 386.19285-248.7092 389.28254-251.79888 391.20915-253.7255 393.13578-255.65212 396.22544-258.7418 398.15205-260.6684 400.07868-262.59504 403.16838-265.68473 405.095-267.61134 407.0216-269.53797 410.11128-272.62763 412.0379-274.55424 413.9645-276.48088 417.0542-279.57054 418.98085-281.4972 420.90745-283.4238 423.99714-286.51347 425.92375-288.4401 427.85038-290.3667 430.94004-293.4564 432.86665-295.383 434.79328-297.30964 437.88298-300.3993 439.80958-302.3259 441.73619-304.25254 446.7525-309.26884 446.16426-308.6806"/>
<path transform="matrix(-.70712539,-.70711418,-.7071353,.7071042,-228.92401,-149.59505)" stroke-width=".79701" stroke-linecap="round" stroke-linejoin="round" fill="none" stroke="#000000" d="M-1.73352 2.31136C-1.58905 1.4446 0 .14444 .43336 0 0-.14444-1.58905-1.4446-1.73352-2.31136"/>
<path transform="matrix(.7071353,.70711418,.7071353,-.70711418,457.28269,536.5911)" stroke-width=".79701" stroke-linecap="round" stroke-linejoin="round" fill="none" stroke="#000000" d="M-1.73352 2.31136C-1.58905 1.4446 0 .14444 .43336 0 0-.14444-1.58905-1.4446-1.73352-2.31136"/>
<path transform="matrix(1.00005,0,0,-1.00002,11.096153,227.90431)" stroke-width=".99628" stroke-linecap="butt" stroke-dasharray="2.98883,1.99255,.99628,1.99255" stroke-miterlimit="10" stroke-linejoin="miter" fill="none" stroke="#000000" d="M-240.00817 514.97549C-235.5801 510.5474-235.5801 510.5474-233.65348 508.62077-231.72686 506.69416-228.63719 503.6045-226.71056 501.67787-224.78394 499.75126-221.69426 496.66154-219.76764 494.73493-217.84102 492.8083-214.75135 489.71864-212.82472 487.792-210.8981 485.8654-207.80843 482.7757-205.8818 480.8491-203.95517 478.92247-200.86551 475.8328-198.93889 473.90617-197.01227 471.97956-193.92259 468.8899-191.99596 466.96327-190.06934 465.03666-186.97968 461.94697-185.05306 460.02037-183.12644 458.09373-180.03675 455.00404-178.11013 453.07743-176.1835 451.1508-173.09384 448.06114-171.16722 446.1345-169.24059 444.2079-166.15091 441.1182-164.22429 439.19157-162.29767 437.26496-159.20801 434.1753-157.28137 432.24867-155.35475 430.32206-152.26508 427.23237-150.33846 425.30574-148.41184 423.37913-145.32216 420.28947-143.39554 418.36283-141.46892 416.4362-138.37924 413.34654-136.45262 411.4199-134.52599 409.4933-131.43633 406.4036-129.5097 404.477-127.58308 402.55039-124.49341 399.4607-122.56677 397.53407-120.64015 395.60746-117.55049 392.5178-115.62387 390.59117-113.69725 388.66456-110.60756 385.57487-108.68094 383.64826-106.75432 381.7216-103.66466 378.63194-101.73804 376.70533-99.81142 374.7787-96.72173 371.689-94.7951 369.7624-92.86848 367.8358-89.77882 364.74613-87.85219 362.8195-85.92557 360.89289-82.83589 357.8032-80.90927 355.87657-78.98265 353.94996-75.89297 350.8603-73.96635 348.93367-72.03973 347.00703-68.95006 343.91734-67.02344 341.99073-65.09682 340.0641-62.00714 336.97444-60.08052 335.0478-58.1539 333.1212-55.06422 330.03153-53.13759 328.1049-51.21097 326.17829-48.1213 323.0886-46.19469 321.16197-44.26807 319.23536-41.17838 316.1457-39.25175 314.21907-37.32513 312.29243-34.23547 309.20277-32.30885 307.27616-30.38223 305.34953-27.29254 302.25984-25.36592 300.3332-23.4393 298.4066-20.34964 295.31694-18.423 293.3903-16.49638 291.46369-13.40671 288.374-11.48009 286.44737-9.55347 284.52076-6.46379 281.4311-4.53717 279.50447-2.61055 277.57786 .47911 274.48817 2.40573 272.56156 4.33235 270.63493 7.42203 267.54524 9.34865 265.61863 11.27527 263.692 14.36493 260.60234 16.29156 258.67573 18.21819 256.7491 21.30786 253.65941 23.23448 251.73279 25.1611 249.80617 28.25078 246.7165 30.1774 244.78989 32.10402 242.86325 35.1937 239.77358 37.12032 237.84696 39.04694 235.92034 42.13661 232.83068 44.06323 230.90404 45.98985 228.97742 49.07953 225.88773 51.00615 223.9611 52.93279 222.03449 56.02245 218.94483 57.94907 217.0182 59.87569 215.09159 62.96538 212.00189 64.892 210.07527 66.81862 208.14864 69.90828 205.05898 71.8349 203.13236 73.76152 201.20574 76.85121 198.11606 78.77783 196.18943 80.70445 194.2628 83.79411 191.17316 85.72073 189.24654 87.64737 187.31992 90.73705 184.23023 92.66367 182.3036 94.59029 180.37699 97.67996 177.28733 99.60658 175.3607 101.5332 173.43407 104.62288 170.3444 106.5495 168.41779 108.47612 166.49117 111.5658 163.40149 113.49242 161.47486 115.41904 159.54824 118.50871 156.45858 120.43533 154.53195 122.36197 152.60533 125.45163 149.51564 127.37825 147.58902 129.30487 145.6624 132.39456 142.57274 134.32118 140.64612 136.2478 138.71949 139.33747 135.6298 141.26409 133.70319 143.1907 131.77657 146.2804 128.68689 148.20702 126.76025 150.13364 124.83363 153.2233 121.74397 155.14992 119.81735 157.07656 117.89073 160.16623 114.80104 162.09285 112.87442 164.01947 110.9478 167.10913 107.85814 169.03577 105.93152 170.96239 104.00488 174.05207 100.9152 175.97869 98.98859 177.9053 97.06197 180.99498 93.9723 182.9216 92.04567 184.84822 90.11905 187.9379 87.02937 189.86452 85.10275 191.79116 83.17613 194.88082 80.08646 196.80744 78.15984 198.73406 76.23322 201.82373 73.14354 203.75037 71.21692 205.67699 69.29028 208.76665 66.20062 210.69327 64.274 212.61989 62.34738 215.70958 59.2577 217.6362 57.33107 219.56282 55.40445 222.65248 52.31479 224.5791 50.38817 226.50574 48.46155 229.59542 45.37186 231.52204 43.44524 233.44866 41.51862 236.53832 38.42896 238.46495 36.50233 240.39157 34.5757 243.48125 31.48602 245.40787 29.5594 247.33449 27.63278 250.42417 24.54312 252.35079 22.61649 254.2774 20.68987 257.36708 17.6002 259.2937 15.67358 261.2203 13.74696 264.31 10.65727 266.23664 8.73065 268.16325 6.80403 271.2529 3.71437 273.17955 1.78775 275.10618-.13885 278.19584-3.22853 280.12245-5.15515 282.04908-7.08177 285.13877-10.17143 287.06538-12.09807 288.992-14.02469 292.08168-17.11436 294.0083-19.04099 295.9349-20.9676 299.02458-24.05728 300.9512-25.9839 302.8778-27.91052 305.9675-31.0002 307.89414-32.92682 309.82078-34.85344 312.91044-37.94312 314.83705-39.86974 316.76368-41.79636 319.85337-44.88603 321.77998-46.81267 323.7066-48.73929 326.79627-51.82895 328.72288-53.75557 330.6495-55.68219 333.73918-58.77188 335.6658-60.6985 337.5924-62.62512 340.68208-65.71478 342.60874-67.6414 344.53535-69.56802 347.62504-72.65771 349.55165-74.58434 351.47828-76.51096 354.56794-79.60062 356.49455-81.52725 358.42118-83.45387 361.51087-86.54355 363.43748-88.47017 365.3641-90.39679 368.45378-93.48647 370.3804-95.41309 372.307-97.3397 375.39668-100.42938 377.32334-102.356 379.24995-104.28262 382.3396-107.3723 384.2662-109.29892 386.19285-111.22554 389.28254-114.31522 391.20915-116.24184 393.13578-118.16847 396.22544-121.25813 398.15205-123.18475 400.07868-125.11137 403.16838-128.20107 405.095-130.12769 407.0216-132.0543 410.11128-135.14397 412.0379-137.07059 413.9645-138.99721 417.0542-142.0869 418.98085-144.01352 420.90745-145.94014 423.99714-149.0298 425.92375-150.95642 427.85038-152.88306 430.94004-155.97274 432.86665-157.89936 434.79328-159.82598 437.88298-162.91565 439.80958-164.84227 441.73619-166.76889 446.7525-171.78519 446.16426-171.19695"/>
<path transform="matrix(-.70712539,-.70711418,-.7071353,.7071042,-228.92401,-287.08149)" stroke-width=".79701" stroke-linecap="round" stroke-linejoin="round" fill="none" stroke="#000000" d="M-1.73352 2.31136C-1.58905 1.4446 0 .14444 .43336 0 0-.14444-1.58905-1.4446-1.73352-2.31136"/>
<path transform="matrix(.7071353,.70711418,.7071353,-.70711418,457.28269,399.10469)" stroke-width=".79701" stroke-linecap="round" stroke-linejoin="round" fill="none" stroke="#000000" d="M-1.73352 2.31136C-1.58905 1.4446 0 .14444 .43336 0 0-.14444-1.58905-1.4446-1.73352-2.31136"/>
<use data-text="D" xlink:href="#font_6_1" transform="matrix(9.963098,0,0,-9.962799,124.38782,128.19332)"/>
</g>
<use data-text="x" xlink:href="#font_6_2" transform="matrix(9.963098,0,0,-9.962799,230.90714,195.67067)"/>
<use data-text="y" xlink:href="#font_6_3" transform="matrix(9.963098,0,0,-9.962799,111.67417,6.2058718)"/>
<path transform="matrix(1.00005,0,0,-1.00002,11.096153,227.90431)" d="M36.75665-69.2286H169.4688V-41.4437H36.75665Z" fill="#ffffff"/>
<path transform="matrix(1.00005,0,0,-1.00002,11.096153,227.90431)" stroke-width=".3985" stroke-linecap="butt" stroke-miterlimit="10" stroke-linejoin="miter" fill="none" stroke="#000000" d="M36.75665-69.2286H169.4688V-41.4437H36.75665Z"/>
<path transform="matrix(1.00005,0,0,-1.00002,51.34116,277.2913)" stroke-width=".99628" stroke-linecap="butt" stroke-miterlimit="10" stroke-linejoin="miter" fill="none" stroke="#ff0000" d="M.8319 0C6.14426 0 6.14426 0 8.50412 0 10.86398 0 17.00826 0 16.17636 0"/>
<path transform="matrix(-1.00005,-0,0,1.00002,52.1731,277.2913)" stroke-width=".79701" stroke-linecap="round" stroke-linejoin="round" fill="none" stroke="#ff0000" d="M-1.73352 2.31136C-1.58905 1.4446 0 .14444 .43336 0 0-.14444-1.58905-1.4446-1.73352-2.31136"/>
<path transform="matrix(1.00005,0,0,-1.00002,67.518329,277.2913)" stroke-width=".79701" stroke-linecap="round" stroke-linejoin="round" fill="none" stroke="#ff0000" d="M-1.73352 2.31136C-1.58905 1.4446 0 .14444 .43336 0 0-.14444-1.58905-1.4446-1.73352-2.31136"/>
<use data-text="y" xlink:href="#font_6_3" transform="matrix(9.963098,0,0,-9.962799,70.84114,279.75434)"/>
<use data-text="&#x2212;" xlink:href="#font_7_1" transform="matrix(9.963098,0,0,-9.962799,78.29751,279.75434)"/>
<use data-text="x" xlink:href="#font_6_2" transform="matrix(9.963098,0,0,-9.962799,88.26001,279.75434)"/>
<use data-text="=" xlink:href="#font_8_4" transform="matrix(9.963098,0,0,-9.962799,96.72243,279.75434)"/>
<use data-text="0" xlink:href="#font_8_2" transform="matrix(9.963098,0,0,-9.962799,107.22353,279.75434)"/>
<path transform="matrix(1.00005,0,0,-1.00002,114.71033,277.2913)" stroke-width=".99628" stroke-linecap="butt" stroke-dasharray="2.98883,1.99255,.99628,1.99255" stroke-miterlimit="10" stroke-linejoin="miter" fill="none" stroke="#ff0000" d="M.8319 0C6.14426 0 6.14426 0 8.50412 0 10.86398 0 17.00826 0 16.17636 0"/>
<path transform="matrix(-1.00005,-0,0,1.00002,115.54227,277.2913)" stroke-width=".79701" stroke-linecap="round" stroke-linejoin="round" fill="none" stroke="#ff0000" d="M-1.73352 2.31136C-1.58905 1.4446 0 .14444 .43336 0 0-.14444-1.58905-1.4446-1.73352-2.31136"/>
<path transform="matrix(1.00005,0,0,-1.00002,130.8875,277.2913)" stroke-width=".79701" stroke-linecap="round" stroke-linejoin="round" fill="none" stroke="#ff0000" d="M-1.73352 2.31136C-1.58905 1.4446 0 .14444 .43336 0 0-.14444-1.58905-1.4446-1.73352-2.31136"/>
<use data-text="y" xlink:href="#font_6_3" transform="matrix(9.963098,0,0,-9.962799,134.2103,279.75434)"/>
<use data-text="&#x2212;" xlink:href="#font_7_1" transform="matrix(9.963098,0,0,-9.962799,141.66666,279.75434)"/>
<use data-text="x" xlink:href="#font_6_2" transform="matrix(9.963098,0,0,-9.962799,151.63016,279.75434)"/>
<use data-text="=" xlink:href="#font_8_4" transform="matrix(9.963098,0,0,-9.962799,160.09157,279.75434)"/>
<use data-text="2" xlink:href="#font_8_3" transform="matrix(9.963098,0,0,-9.962799,170.59268,279.75434)"/>
<path transform="matrix(1.00005,0,0,-1.00002,51.34116,289.19154)" stroke-width=".99628" stroke-linecap="butt" stroke-miterlimit="10" stroke-linejoin="miter" fill="none" stroke="#000000" d="M.8319 0C6.14426 0 6.14426 0 8.50412 0 10.86398 0 17.00826 0 16.17636 0"/>
<path transform="matrix(-1.00005,-0,0,1.00002,52.1731,289.19154)" stroke-width=".79701" stroke-linecap="round" stroke-linejoin="round" fill="none" stroke="#000000" d="M-1.73352 2.31136C-1.58905 1.4446 0 .14444 .43336 0 0-.14444-1.58905-1.4446-1.73352-2.31136"/>
<path transform="matrix(1.00005,0,0,-1.00002,67.518329,289.19154)" stroke-width=".79701" stroke-linecap="round" stroke-linejoin="round" fill="none" stroke="#000000" d="M-1.73352 2.31136C-1.58905 1.4446 0 .14444 .43336 0 0-.14444-1.58905-1.4446-1.73352-2.31136"/>
<use data-text="y" xlink:href="#font_6_3" transform="matrix(9.963098,0,0,-9.962799,70.84114,291.65458)"/>
<use data-text="+" xlink:href="#font_8_1" transform="matrix(9.963098,0,0,-9.962799,78.29751,291.65458)"/>
<use data-text="x" xlink:href="#font_6_2" transform="matrix(9.963098,0,0,-9.962799,88.26001,291.65458)"/>
<use data-text="=" xlink:href="#font_8_4" transform="matrix(9.963098,0,0,-9.962799,96.72243,291.65458)"/>
<use data-text="0" xlink:href="#font_8_2" transform="matrix(9.963098,0,0,-9.962799,107.22353,291.65458)"/>
<path transform="matrix(1.00005,0,0,-1.00002,114.71033,289.19154)" stroke-width=".99628" stroke-linecap="butt" stroke-dasharray="2.98883,1.99255,.99628,1.99255" stroke-miterlimit="10" stroke-linejoin="miter" fill="none" stroke="#000000" d="M.8319 0C6.14426 0 6.14426 0 8.50412 0 10.86398 0 17.00826 0 16.17636 0"/>
<path transform="matrix(-1.00005,-0,0,1.00002,115.54227,289.19154)" stroke-width=".79701" stroke-linecap="round" stroke-linejoin="round" fill="none" stroke="#000000" d="M-1.73352 2.31136C-1.58905 1.4446 0 .14444 .43336 0 0-.14444-1.58905-1.4446-1.73352-2.31136"/>
<path transform="matrix(1.00005,0,0,-1.00002,130.8875,289.19154)" stroke-width=".79701" stroke-linecap="round" stroke-linejoin="round" fill="none" stroke="#000000" d="M-1.73352 2.31136C-1.58905 1.4446 0 .14444 .43336 0 0-.14444-1.58905-1.4446-1.73352-2.31136"/>
<use data-text="y" xlink:href="#font_6_3" transform="matrix(9.963098,0,0,-9.962799,134.2103,291.65458)"/>
<use data-text="+" xlink:href="#font_8_1" transform="matrix(9.963098,0,0,-9.962799,141.66666,291.65458)"/>
<use data-text="x" xlink:href="#font_6_2" transform="matrix(9.963098,0,0,-9.962799,151.63016,291.65458)"/>
<use data-text="=" xlink:href="#font_8_4" transform="matrix(9.963098,0,0,-9.962799,160.09157,291.65458)"/>
<use data-text="2" xlink:href="#font_8_3" transform="matrix(9.963098,0,0,-9.962799,170.59268,291.65458)"/>
</svg>
