<svg xmlns="http://www.w3.org/2000/svg" xmlns:xlink="http://www.w3.org/1999/xlink" version="1.1" width="270" height="143" viewBox="0 0 270 143">
<defs>
<path id="font_1_3" d="M.28199769 .20405579C.2979889 .21907044 .33999635 .2520752 .35598756 .26608277 .41799928 .32312013 .47698976 .3781433 .47698976 .46917726 .47698976 .588089 .3769989 .66503909 .2519989 .66503909 .13198853 .66503909 .052993776 .57411196 .052993776 .48516847 .052993776 .4361725 .09199524 .4291687 .10598755 .4291687 .1269989 .4291687 .1579895 .4441681 .1579895 .48217774 .1579895 .5341797 .10798645 .5341797 .09599304 .5341797 .125 .6070709 .19198609 .6320343 .24099732 .6320343 .33399964 .6320343 .38198854 .55314639 .38198854 .46917726 .38198854 .36514283 .30899049 .28910829 .19099427 .16804505L.06498718 .037994386C.052993776 .026992798 .052993776 .024993897 .052993776 0H.44799806L.47698976 .17904663H.44599916C.44299317 .1590271 .43499757 .10900879 .4229889 .08999634 .4169922 .08198547 .34098817 .08198547 .32499696 .08198547H.14698792L.28199769 .20405579Z"/>
<path id="font_1_5" d="M.3939972 .6468048C.3939972 .6667938 .3939972 .6748047 .37298585 .6748047 .3600006 .6748047 .35899354 .6737976 .34899903 .65979006L.02999878 .197052V.1640625H.31199647V.08100891C.31199647 .04399109 .30899049 .032989503 .23199463 .032989503H.20899964V0C.2939911 .0029907227 .29599 .0029907227 .35299684 .0029907227 .4099884 .0029907227 .4119873 .0029907227 .49699403 0V.032989503H.47399903C.39698792 .032989503 .3939972 .04399109 .3939972 .08100891V.1640625H.5V.197052H.3939972V.6468048M.31900025 .5658417V.197052H.06498718L.31900025 .5658417Z"/>
<path id="font_1_6" d="M.13798523 .33073426C.13798523 .41377259 .14498902 .4868164 .18099976 .54782107 .21099854 .5978241 .2619934 .6390381 .32499696 .6390381 .34498597 .6390381 .3909912 .63601687 .4139862 .60084536 .36898805 .5988312 .36499024 .5648346 .36499024 .553833 .36499024 .5238342 .3880005 .50683596 .4119873 .50683596 .42999269 .50683596 .45899964 .51782229 .45899964 .5558319 .45899964 .615921 .4139862 .66503909 .32398988 .66503909 .18499756 .66503909 .04399109 .53282168 .04399109 .31672669 .04399109 .045532228 .16999817-.021484375 .2669983-.021484375 .31498719-.021484375 .36698915-.0084991459 .4119873 .03453064 .45199586 .07354736 .48599244 .11558533 .48599244 .20263672 .48599244 .33372499 .3869934 .42578126 .27598573 .42578126 .20399475 .42578126 .16099549 .37976075 .13798523 .33073426M.2669983 .008514404C.21398926 .008514404 .18099976 .045532228 .1659851 .07354736 .14299011 .11859131 .14099121 .18663025 .14099121 .22465515 .14099121 .32373048 .19499207 .3977661 .27198792 .3977661 .32199098 .3977661 .35198976 .37176515 .37098695 .33673097 .3919983 .29971314 .3919983 .25468446 .3919983 .2036438 .3919983 .15260315 .3919983 .10858154 .37199403 .07255554 .34599305 .026519776 .31098939 .008514404 .2669983 .008514404Z"/>
<path id="font_1_7" d="M.33198548 .36080934C.3880005 .38783265 .45599366 .4378662 .45599366 .5159302 .45599366 .6110077 .35899354 .66503909 .2659912 .66503909 .1599884 .66503909 .07398987 .59199526 .07398987 .49790956 .07398987 .46089173 .08699036 .42686463 .11199951 .39782716 .1289978 .3768158 .1329956 .3748169 .19499207 .3357849 .070999149 .2807312 .04399109 .20767212 .04399109 .15162659 .04399109 .041534425 .15499878-.021484375 .2639923-.021484375 .3869934-.021484375 .48599244 .061553956 .48599244 .16764832 .48599244 .23069763 .45199586 .2727356 .43598939 .28974916 .4189911 .30575563 .41799928 .3067627 .33198548 .36080934M.1769867 .45487977C.147995 .4718933 .12399292 .5009155 .12399292 .5359497 .12399292 .598999 .19299317 .6390381 .2639923 .6390381 .34199525 .6390381 .4059906 .5859833 .4059906 .5159302 .4059906 .45788575 .36099244 .408844 .3019867 .37982179L.1769867 .45487977M.22599793 .31776429C.22999573 .31576539 .34399415 .24571228 .36099244 .23469544 .3769989 .22569275 .42900086 .19366455 .42900086 .13360596 .42900086 .056549074 .34799195 .008514404 .2659912 .008514404 .1769867 .008514404 .100997928 .06956482 .100997928 .15162659 .100997928 .22668457 .15699768 .28573609 .22599793 .31776429Z"/>
<path id="font_1_2" d="M.31399537 .63708499C.31399537 .664032 .31199647 .66503909 .2849884 .66503909 .24398804 .6251831 .19099427 .6013489 .09599304 .6013489V.5683594C.12298584 .5683594 .1769867 .5683594 .23498535 .5953522V.08203125C.23498535 .04499817 .23199463 .032989503 .13699341 .032989503H.101989749V0C.14299011 .0029907227 .22898865 .0029907227 .27398683 .0029907227 .31900025 .0029907227 .4059906 .0029907227 .44699098 0V.032989503H.4119873C.31698609 .032989503 .31399537 .04499817 .31399537 .08203125V.63708499Z"/>
<path id="font_1_1" d="M.4889984 .31877137C.4889984 .42585755 .47799684 .49090577 .44499208 .55496218 .40098573 .6430359 .31999208 .66503909 .2649994 .66503909 .13899231 .66503909 .09298706 .5709839 .07899475 .5429535 .042999269 .4698944 .040985109 .3708191 .040985109 .31877137 .040985109 .25271607 .04399109 .15162659 .09199524 .07156372 .13798523-.0024871827 .21199036-.021484375 .2649994-.021484375 .31298829-.021484375 .39898683-.0064849855 .44898988 .09257507 .48599244 .16464234 .4889984 .2537079 .4889984 .31877137M.2649994 .006515503C.23098755 .006515503 .1619873 .022521973 .14099121 .12760926 .12998963 .18466187 .12998963 .2787323 .12998963 .33078004 .12998963 .3998413 .12998963 .4698944 .14099121 .5249481 .1619873 .6270294 .23999024 .6370239 .2649994 .6370239 .29899598 .6370239 .36799623 .62002566 .3880005 .5289459 .3999939 .4738922 .3999939 .39883424 .3999939 .33078004 .3999939 .27172853 .3999939 .18165589 .3880005 .12561035 .36698915 .020523072 .2979889 .006515503 .2649994 .006515503Z"/>
<path id="font_2_1" d="M.69898989 .22743225C.71499636 .22743225 .7369995 .22743225 .7369995 .25042726 .7369995 .2734375 .71499636 .2734375 .69898989 .2734375H.12599182C.10998535 .2734375 .08799744 .2734375 .08799744 .25042726 .08799744 .22743225 .10998535 .22743225 .12599182 .22743225H.69898989Z"/>
<path id="font_1_4" d="M.25299073 .33370973C.33198548 .33370973 .38198854 .27557374 .38198854 .17037964 .38198854 .045440675 .31098939 .008514404 .2579956 .008514404 .20298767 .008514404 .12799073 .0284729 .09298706 .08137512 .1289978 .08137512 .1539917 .10437012 .1539917 .13737488 .1539917 .16937256 .1309967 .19238281 .09899902 .19238281 .07199097 .19238281 .04399109 .17536927 .04399109 .13537598 .04399109 .04045105 .1459961-.021484375 .2599945-.021484375 .3929901-.021484375 .48599244 .070388797 .48599244 .17037964 .48599244 .25352479 .41999818 .32969667 .31799317 .3517456 .39698792 .37982179 .45599366 .4479828 .45599366 .52804568 .45599366 .6080475 .3659973 .66503909 .2619934 .66503909 .15499878 .66503909 .07398987 .6070404 .07398987 .53105166 .07398987 .49404908 .09899902 .4780426 .125 .4780426 .1559906 .4780426 .17599488 .5000458 .17599488 .52905276 .17599488 .56604006 .14399719 .5800476 .12199402 .5810547 .1639862 .6360321 .24099732 .6390381 .25898744 .6390381 .2849884 .6390381 .36099244 .6310272 .36099244 .52804568 .36099244 .45799256 .33198548 .41589356 .31799317 .39985658 .28799439 .36878968 .2649994 .36679078 .20399475 .3627777 .18499756 .36177064 .1769867 .36076356 .1769867 .3477478 .1769867 .33370973 .18598938 .33370973 .20298767 .33370973H.25299073Z"/>
<clipPath id="clip_3">
<path transform="matrix(1.00008,0,0,-1.00009,11.096649,131.51969)" d="M0 0H239.10567V109.85936H0Z"/>
</clipPath>
<path id="font_4_2" d="M.33399964 .30233766C.33999635 .32835389 .36299134 .42037965 .43299867 .42037965 .43798829 .42037965 .46199037 .42037965 .48298646 .40734864 .45498658 .402359 .43499757 .37734986 .43499757 .35334779 .43499757 .33735658 .44599916 .31835938 .47299195 .31835938 .49499513 .31835938 .5269928 .3363495 .5269928 .37635804 .5269928 .42837525 .46798707 .4423828 .43399049 .4423828 .37599183 .4423828 .34098817 .38935853 .32899476 .36634828 .3039856 .43237306 .25 .4423828 .22099304 .4423828 .116989139 .4423828 .05999756 .3133545 .05999756 .28834535 .05999756 .27833558 .069992069 .27833558 .07199097 .27833558 .07998657 .27833558 .08299255 .28033448 .084991458 .28933717 .11898804 .39535523 .18499756 .42037965 .21899414 .42037965 .23799134 .42037965 .272995 .4113617 .272995 .35334779 .272995 .32235719 .2559967 .25532533 .21899414 .11528015 .20298767 .053268434 .16799927 .011245728 .12399292 .011245728 .117996219 .011245728 .09498596 .011245728 .07398987 .024276734 .09899902 .029266358 .12098694 .05027771 .12098694 .07827759 .12098694 .105270389 .09899902 .11328125 .083999637 .11328125 .053985597 .11328125 .0289917 .08728027 .0289917 .055267335 .0289917 .009246826 .07899475-.0107421879 .12298584-.0107421879 .18899536-.0107421879 .22499085 .059280397 .22799683 .0652771 .23999024 .028274537 .27598573-.0107421879 .33599855-.0107421879 .43899537-.0107421879 .49598695 .118270877 .49598695 .14328003 .49598695 .1532898 .4869995 .1532898 .48399354 .1532898 .47499085 .1532898 .47299195 .14929199 .47099305 .14228821 .43798829 .03527832 .36999513 .011245728 .33799745 .011245728 .29899598 .011245728 .2829895 .043273927 .2829895 .07727051 .2829895 .09927368 .2889862 .121276859 .2999878 .16529846L.33399964 .30233766Z"/>
<path id="font_4_3" d="M.48599244 .38136292C.48999024 .39537049 .48999024 .39736939 .48999024 .40437318 .48999024 .42237855 .47599793 .43138124 .46099855 .43138124 .45098878 .43138124 .43499757 .42536927 .42599488 .41036988 .42399598 .405365 .41600038 .37435914 .4119873 .35635377 .40499879 .33035279 .397995 .30334474 .3919983 .27633668L.34700013 .09628296C.34298707 .08126831 .2999878 .011245728 .23399353 .011245728 .18299866 .011245728 .17199707 .055267335 .17199707 .0922699 .17199707 .1382904 .18899536 .20030213 .22299195 .28833009 .23899842 .3293457 .24299622 .3403473 .24299622 .36035157 .24299622 .405365 .21099854 .4423828 .16099549 .4423828 .06599426 .4423828 .0289917 .29733277 .0289917 .28833009 .0289917 .27833558 .038986207 .27833558 .040985109 .27833558 .050994874 .27833558 .051986696 .28033448 .056991579 .29634095 .083999637 .3903656 .12399292 .42037965 .1579895 .42037965 .1659851 .42037965 .18299866 .42037965 .18299866 .3883667 .18299866 .36335755 .17298889 .3373413 .1659851 .31834413 .12599182 .21231079 .10798645 .1552887 .10798645 .10827637 .10798645 .019256592 .17098999-.0107421879 .22999573-.0107421879 .2689972-.0107421879 .30299378 .0062561037 .33099366 .03425598 .31799317-.017745972 .30599977-.06674194 .2659912-.11973572 .23999024-.15385437 .20199585-.18309021 .1559906-.18309021 .14199829-.18309021 .09700012-.18005371 .07998657-.14074707 .09599304-.14074707 .10899353-.14074707 .12298584-.1287384 .1329956-.11973572 .14299011-.10673523 .14299011-.08773804 .14299011-.056747438 .115997318-.052734376 .10598755-.052734376 .08299255-.052734376 .049987794-.068740848 .049987794-.11773682 .049987794-.16796875 .09399414-.20507813 .1559906-.20507813 .25898744-.20507813 .3619995-.11373901 .3899994-.00074768069L.48599244 .38136292Z"/>
<path id="font_5_3" d="M.68699648 .32714845C.70199587 .32714845 .72099307 .32714845 .72099307 .34713746 .72099307 .36714173 .70199587 .36714173 .6879883 .36714173H.08898926C.07499695 .36714173 .055999757 .36714173 .055999757 .34713746 .055999757 .32714845 .07499695 .32714845 .08999634 .32714845H.68699648M.6879883 .13284302C.70199587 .13284302 .72099307 .13284302 .72099307 .15284729 .72099307 .17285156 .70199587 .17285156 .68699648 .17285156H.08999634C.07499695 .17285156 .055999757 .17285156 .055999757 .15284729 .055999757 .13284302 .07499695 .13284302 .08898926 .13284302H.6879883Z"/>
<path id="font_4_1" d="M.36698915 .3996582H.45298768C.47299195 .3996582 .48298646 .3996582 .48298646 .41966249 .48298646 .43066407 .47299195 .43066407 .45599366 .43066407H.37298585L.3939972 .5449524C.397995 .5660095 .4119873 .6370239 .41799928 .6490326 .4269867 .66804507 .44400025 .68307498 .46499635 .68307498 .46899415 .68307498 .49499513 .68307498 .5139923 .66503909 .46998597 .661026 .45999146 .6260376 .45999146 .6110382 .45999146 .58802798 .47799684 .57603457 .49699403 .57603457 .522995 .57603457 .5519867 .5980377 .5519867 .6360321 .5519867 .6820679 .5059967 .7050781 .46499635 .7050781 .43099977 .7050781 .36799623 .68707278 .33799745 .58802798 .33198548 .56700137 .32899476 .5569763 .30499269 .43066407H.23599243C.21699524 .43066407 .20599365 .43066407 .20599365 .4116516 .20599365 .3996582 .21499634 .3996582 .23399353 .3996582H.2999878L.22499085 .0048828127C.20698548-.09207153 .18998719-.18309021 .13798523-.18309021 .13398743-.18309021 .10899353-.18309021 .08999634-.16506958 .13598633-.1620636 .14498902-.12606812 .14498902-.111068729 .14498902-.08807373 .1269989-.07606506 .10798645-.07606506 .08198547-.07606506 .052993776-.09806824 .052993776-.13606262 .052993776-.18109131 .09700012-.20507813 .13798523-.20507813 .19299317-.20507813 .23298645-.14607239 .25099183-.108062747 .2829895-.04508972 .30599977 .07583618 .30699159 .082839969L.36698915 .3996582Z"/>
<path id="font_5_1" d="M.33099366-.2400055C.33099366-.23701477 .33099366-.23500061 .31399537-.21800232 .18899536-.0920105 .15699768 .09700012 .15699768 .25 .15699768 .42399598 .19499207 .59799197 .31799317 .72299197 .33099366 .73498538 .33099366 .7369995 .33099366 .73999026 .33099366 .746994 .32699586 .75 .32099916 .75 .31098939 .75 .22099304 .6819916 .1619873 .5549927 .11099243 .44499208 .09899902 .33399964 .09899902 .25 .09899902 .17199707 .10998535 .050994874 .16499329-.06201172 .22499085-.18501282 .31098939-.25 .32099916-.25 .32699586-.25 .33099366-.24700928 .33099366-.2400055Z"/>
<path id="font_5_2" d="M.2889862 .25C.2889862 .32798768 .27799989 .44898988 .22299195 .56199648 .16299439 .68499758 .07699585 .75 .066986087 .75 .06098938 .75 .056991579 .74598696 .056991579 .73999026 .056991579 .7369995 .056991579 .73498538 .07598877 .71699526 .17399597 .6179962 .23098755 .45899964 .23098755 .25 .23098755 .07899475 .19400025-.09700012 .069992069-.2230072 .056991579-.23500061 .056991579-.23701477 .056991579-.2400055 .056991579-.2460022 .06098938-.25 .066986087-.25 .07699585-.25 .16699219-.18200684 .22599793-.055007936 .2769928 .054992677 .2889862 .16600037 .2889862 .25Z"/>
</defs>
<path transform="matrix(1.00008,0,0,-1.00009,11.096649,131.51969)" stroke-width=".09962" stroke-linecap="butt" stroke-miterlimit="10" stroke-linejoin="miter" fill="none" stroke="#e0e0e0" d="M86.1642 0V109.85936M129.2463 0V109.85936M172.3284 0V109.85936M215.4105 0V109.85936"/>
<path transform="matrix(1.00008,0,0,-1.00009,11.096649,131.51969)" stroke-width=".19925" stroke-linecap="butt" stroke-miterlimit="10" stroke-linejoin="miter" fill="none" stroke="#c0c0c0" d="M64.62315 0V109.85936M107.70525 0V109.85936M150.78736 0V109.85936M193.86946 0V109.85936M236.95156 0V109.85936"/>
<path transform="matrix(1.00008,0,0,-1.00009,11.096649,131.51969)" stroke-width=".09962" stroke-linecap="butt" stroke-miterlimit="10" stroke-linejoin="miter" fill="none" stroke="#e0e0e0" d="M0 10.77052H239.10567M0 32.31157H239.10567M0 53.85262H239.10567M0 75.39368H239.10567M0 96.93472H239.10567"/>
<path transform="matrix(1.00008,0,0,-1.00009,11.096649,131.51969)" stroke-width=".19925" stroke-linecap="butt" stroke-miterlimit="10" stroke-linejoin="miter" fill="none" stroke="#c0c0c0" d="M0 0H239.10567M0 43.08209H239.10567M0 64.62315H239.10567M0 86.1642H239.10567M0 107.70525H239.10567"/>
<path transform="matrix(1.00008,0,0,-1.00009,11.096649,131.51969)" stroke-width=".19925" stroke-linecap="butt" stroke-miterlimit="10" stroke-linejoin="miter" fill="none" stroke="#929292" d="M86.1642 20.12332V22.95876M129.2463 20.12332V22.95876M172.3284 20.12332V22.95876M215.4105 20.12332V22.95876"/>
<path transform="matrix(1.00008,0,0,-1.00009,11.096649,131.51969)" stroke-width=".19925" stroke-linecap="butt" stroke-miterlimit="10" stroke-linejoin="miter" fill="none" stroke="#929292" d="M64.62315 19.41467V23.6674M107.70525 19.41467V23.6674M150.78736 19.41467V23.6674M193.86946 19.41467V23.6674M236.95156 19.41467V23.6674"/>
<path transform="matrix(1.00008,0,0,-1.00009,11.096649,131.51969)" stroke-width=".19925" stroke-linecap="butt" stroke-miterlimit="10" stroke-linejoin="miter" fill="none" stroke="#929292" d="M20.12332 10.77052H22.95876M20.12332 32.31157H22.95876M20.12332 53.85262H22.95876M20.12332 75.39368H22.95876M20.12332 96.93472H22.95876"/>
<path transform="matrix(1.00008,0,0,-1.00009,11.096649,131.51969)" stroke-width=".19925" stroke-linecap="butt" stroke-miterlimit="10" stroke-linejoin="miter" fill="none" stroke="#929292" d="M19.41467 0H23.6674M19.41467 43.08209H23.6674M19.41467 64.62315H23.6674M19.41467 86.1642H23.6674M19.41467 107.70525H23.6674"/>
<path transform="matrix(1.00008,0,0,-1.00009,11.096649,131.51969)" stroke-width=".3985" stroke-linecap="butt" stroke-miterlimit="10" stroke-linejoin="miter" fill="none" stroke="#000000" d="M-6.37622 21.54105H245.48189"/>
<path transform="matrix(-1.00008,-0,0,1.00009,4.7199189,109.9767)" d="M3.58653 0C2.52383 .19925 .797 .797-.3985 1.49438V-1.49438C.797-.797 2.52383-.19925 3.58653 0"/>
<path transform="matrix(1.00008,0,0,-1.00009,256.59819,109.9767)" d="M3.58653 0C2.52383 .19925 .797 .797-.3985 1.49438V-1.49438C.797-.797 2.52383-.19925 3.58653 0"/>
<path transform="matrix(1.00008,0,0,-1.00009,11.096649,131.51969)" stroke-width=".3985" stroke-linecap="butt" stroke-miterlimit="10" stroke-linejoin="miter" fill="none" stroke="#000000" d="M21.54105-6.37622V116.23558"/>
<path transform="matrix(0,1.00009,1.00008,0,32.63942,137.89649)" d="M3.58653 0C2.52383 .19925 .797 .797-.3985 1.49438V-1.49438C.797-.797 2.52383-.19925 3.58653 0"/>
<path transform="matrix(0,-1.00009,-1.00008,-0,32.63942,15.2736439)" d="M3.58653 0C2.52383 .19925 .797 .797-.3985 1.49438V-1.49438C.797-.797 2.52383-.19925 3.58653 0"/>
<use data-text="2" xlink:href="#font_1_3" transform="matrix(7.9707376,0,0,-7.970817,73.60765,120.76071)"/>
<use data-text="4" xlink:href="#font_1_5" transform="matrix(7.9707376,0,0,-7.970817,116.69309,120.76071)"/>
<use data-text="6" xlink:href="#font_1_6" transform="matrix(7.9707376,0,0,-7.970817,159.77854,120.76071)"/>
<use data-text="8" xlink:href="#font_1_7" transform="matrix(7.9707376,0,0,-7.970817,202.86399,120.76071)"/>
<use data-text="1" xlink:href="#font_1_2" transform="matrix(7.9707376,0,0,-7.970817,243.83228,120.76071)"/>
<use data-text="0" xlink:href="#font_1_1" transform="matrix(7.9707376,0,0,-7.970817,248.06473,120.76071)"/>
<use data-text="&#x2212;" xlink:href="#font_2_1" transform="matrix(7.9707376,0,0,-7.970817,16.171059,133.67288)"/>
<use data-text="1" xlink:href="#font_1_2" transform="matrix(7.9707376,0,0,-7.970817,22.758584,133.67288)"/>
<use data-text="1" xlink:href="#font_1_2" transform="matrix(7.9707376,0,0,-7.970817,22.758584,91.00204)"/>
<use data-text="2" xlink:href="#font_1_3" transform="matrix(7.9707376,0,0,-7.970817,22.758584,69.4591)"/>
<use data-text="3" xlink:href="#font_1_4" transform="matrix(7.9707376,0,0,-7.970817,22.758584,47.91616)"/>
<use data-text="4" xlink:href="#font_1_5" transform="matrix(7.9707376,0,0,-7.970817,22.758584,26.373223)"/>
<g clip-path="url(#clip_3)">
<path transform="matrix(1.00008,0,0,-1.00009,11.096649,131.51969)" stroke-width=".79701" stroke-linecap="butt" stroke-miterlimit="10" stroke-linejoin="miter" fill="none" stroke="#0000ff" d="M21.54105 21.54105C21.54105 21.54105 24.39964 28.96144 25.49754 30.7729 26.59544 32.58437 28.35614 33.65921 29.45406 34.59688 30.55197 35.53456 32.31265 36.78076 33.41057 37.5311 34.50848 38.28142 36.26917 39.35918 37.36708 40.00476 38.465 40.65034 40.2257 41.6084 41.3236 42.1841 42.4215 42.7598 44.18217 43.62933 45.28008 44.15405 46.37798 44.67876 48.13867 45.48051 49.23659 45.96588 50.3345 46.45125 52.09518 47.19855 53.1931 47.6523 54.29102 48.10605 56.0517 48.80861 57.14961 49.23622 58.24753 49.66383 60.00821 50.32878 61.10612 50.73433 62.20404 51.13988 63.96472 51.77261 65.06264 52.1592 66.16055 52.54578 67.92123 53.15059 69.01915 53.52068 70.11707 53.89075 71.87776 54.47098 72.97566 54.82649 74.07356 55.182 75.83426 55.74046 76.93216 56.08301 78.03006 56.42555 79.79074 56.96445 80.88864 57.29535 81.98654 57.62625 83.74724 58.14758 84.84515 58.46796 85.94307 58.78833 87.70375 59.29361 88.80167 59.6044 89.89958 59.91519 91.66026 60.40591 92.75818 60.70793 93.8561 61.00995 95.61678 61.48724 96.71469 61.78119 97.8126 62.07513 99.57329 62.54008 100.6712 62.82658 101.76912 63.11307 103.5298 63.56653 104.62772 63.84612 105.72563 64.12569 107.48631 64.56854 108.58423 64.84169 109.68214 65.11484 111.44283 65.5477 112.54074 65.81485 113.63866 66.08199 115.39934 66.50557 116.49725 66.76707 117.59517 67.02858 119.35587 67.44347 120.45377 67.69968 121.55167 67.95589 123.31233 68.36256 124.41023 68.6138 125.50813 68.86505 127.26883 69.26398 128.36675 69.51051 129.46466 69.75703 131.22534 70.14864 132.32326 70.39073 133.42118 70.63283 135.18186 71.01753 136.27977 71.25542 137.37769 71.4933 139.13837 71.8714 140.23628 72.10529 141.3342 72.33917 143.09488 72.71103 144.1928 72.9411 145.29071 73.17119 147.05139 73.53711 148.1493 73.76357 149.24723 73.99 151.0079 74.35028 152.10582 74.57329 153.20374 74.79628 154.96443 75.15111 156.06233 75.37079 157.16024 75.59047 158.92092 75.94017 160.01882 76.1567 161.11672 76.37321 162.87741 76.71791 163.97533 76.93141 165.07324 77.14491 166.83393 77.48486 167.93184 77.69545 169.02976 77.90604 170.79044 78.24144 171.88835 78.44923 172.98627 78.65703 174.74697 78.98804 175.84487 79.19316 176.94277 79.39828 178.70346 79.72508 179.80136 79.92761 180.89926 80.13016 182.65996 80.4529 183.75788 80.65294 184.85579 80.85298 186.61647 81.17183 187.71439 81.36948 188.8123 81.56714 190.57299 81.88217 191.6709 82.07751 192.76882 82.27286 194.52951 82.58429 195.62741 82.77739 196.72531 82.9705 198.486 83.27841 199.5839 83.46936 200.6818 83.66031 202.44249 83.96481 203.5404 84.15366 204.63832 84.34251 206.399 84.6437 207.49692 84.83055 208.59484 85.01741 210.35552 85.31544 211.45343 85.50032 212.55135 85.68521 215.40995 86.16313 215.40995 86.16313"/>
</g>
<use data-text="x" xlink:href="#font_4_2" transform="matrix(9.963397,0,0,-9.963496,263.75486,112.11694)"/>
<use data-text="y" xlink:href="#font_4_3" transform="matrix(9.963397,0,0,-9.963496,30.022164,6.209404)"/>
<path transform="matrix(1.00008,0,0,-1.00009,11.096649,131.51969)" d="M168.4368 90.5258H234.12326V107.46245H168.4368Z" fill="#ffffff"/>
<path transform="matrix(1.00008,0,0,-1.00009,11.096649,131.51969)" stroke-width=".3985" stroke-linecap="butt" stroke-miterlimit="10" stroke-linejoin="miter" fill="none" stroke="#000000" d="M168.4368 90.5258H234.12326V107.46245H168.4368Z"/>
<path transform="matrix(1.00008,0,0,-1.00009,182.9354,32.51677)" stroke-width=".79701" stroke-linecap="butt" stroke-miterlimit="10" stroke-linejoin="miter" fill="none" stroke="#0000ff" d="M0 0C0 0 6.14426 0 8.50412 0 10.86398 0 17.00826 0 17.00826 0"/>
<use data-text="y" xlink:href="#font_4_3" transform="matrix(9.963397,0,0,-9.963496,202.33594,35.506036)"/>
<use data-text="=" xlink:href="#font_5_3" transform="matrix(9.963397,0,0,-9.963496,210.34558,35.506036)"/>
<use data-text="f" xlink:href="#font_4_1" transform="matrix(9.963397,0,0,-9.963496,220.86243,35.506036)"/>
<use data-text="(" xlink:href="#font_5_1" transform="matrix(9.963397,0,0,-9.963496,226.8129,35.506036)"/>
<use data-text="x" xlink:href="#font_4_2" transform="matrix(9.963397,0,0,-9.963496,230.68824,35.506036)"/>
<use data-text=")" xlink:href="#font_5_2" transform="matrix(9.963397,0,0,-9.963496,236.38266,35.506036)"/>
</svg>
