<svg xmlns="http://www.w3.org/2000/svg" xmlns:xlink="http://www.w3.org/1999/xlink" version="1.1" width="270" height="192" viewBox="0 0 270 192">
<defs>
<path id="font_1_1" d="M.69898989 .22743225C.71499636 .22743225 .7369995 .22743225 .7369995 .25042726 .7369995 .2734375 .71499636 .2734375 .69898989 .2734375H.12599182C.10998535 .2734375 .08799744 .2734375 .08799744 .25042726 .08799744 .22743225 .10998535 .22743225 .12599182 .22743225H.69898989Z"/>
<path id="font_2_1" d="M.28399659 .36465455H.39898683C.37799073 .2738037 .3600006 .19992066 .3600006 .1260376 .3600006 .11904907 .3600006 .0761261 .37098695 .04017639 .38398744-.0017700195 .3939972-.009765625 .4119873-.009765625 .43399049-.009765625 .45700074 .009231567 .45700074 .033187868 .45700074 .04017639 .45599366 .042175294 .45199586 .05116272 .43099977 .097091678 .41600038 .14500427 .41600038 .22688294 .41600038 .24984741 .41600038 .29177857 .43099977 .36465455H.5519867C.56799319 .36465455 .57899478 .36465455 .58898928 .37265016 .6009979 .38365174 .60398867 .39665223 .60398867 .40264894 .60398867 .43066407 .57899478 .43066407 .56199648 .43066407H.20098877C.17999268 .43066407 .14199829 .43066407 .09298706 .3826599 .056991579 .3466797 .0289917 .300766 .0289917 .29377748 .0289917 .28479005 .035995485 .28178407 .04399109 .28178407 .053985597 .28178407 .055999757 .28479005 .06199646 .2927704 .11099243 .36465455 .16999817 .36465455 .19299317 .36465455H.25099183C.22200012 .25883485 .16899109 .13801575 .13198853 .06513977 .125 .0501709 .114990238 .030197144 .114990238 .021209717 .114990238 .00022888184 .13198853-.009765625 .147995-.009765625 .18598938-.009765625 .19599915 .028198243 .21699524 .110061649L.28399659 .36465455Z"/>
<path id="font_3_1" d="M.31399537 .63708499C.31399537 .664032 .31199647 .66503909 .2849884 .66503909 .24398804 .6251831 .19099427 .6013489 .09599304 .6013489V.5683594C.12298584 .5683594 .1769867 .5683594 .23498535 .5953522V.08203125C.23498535 .04499817 .23199463 .032989503 .13699341 .032989503H.101989749V0C.14299011 .0029907227 .22898865 .0029907227 .27398683 .0029907227 .31900025 .0029907227 .4059906 .0029907227 .44699098 0V.032989503H.4119873C.31698609 .032989503 .31399537 .04499817 .31399537 .08203125V.63708499Z"/>
<clipPath id="clip_4">
<path transform="matrix(1.00005,0,0,-1,-27.914799,148.48001)" d="M39.00961 0H278.11885V126.85138H39.00961Z"/>
</clipPath>
<path id="font_5_1" d="M.45498658 .5001831C.45498658 .56614688 .43699647 .7050781 .33499146 .7050781 .19599915 .7050781 .041992189 .42323304 .041992189 .19425965 .041992189 .100250247 .070999149-.0107421879 .1619873-.0107421879 .30299378-.0107421879 .45498658 .27627564 .45498658 .5001831M.147995 .36328126C.16499329 .42723084 .18499756 .5071869 .22499085 .57814028 .2519989 .6271057 .2889862 .68307498 .33399964 .68307498 .3829956 .68307498 .3889923 .6191101 .3889923 .56214907 .3889923 .5131836 .3809967 .46220399 .35699464 .36328126H.147995M.34799195 .3312683C.33699037 .28527833 .31599427 .2002716 .27799989 .12826538 .24299622 .060256959 .20498657 .011245728 .1619873 .011245728 .1289978 .011245728 .10798645 .040252687 .10798645 .133255 .10798645 .17526245 .11399841 .23326111 .13999939 .3312683H.34799195Z"/>
<path id="font_5_2" d="M.48599244 .38136292C.48999024 .39537049 .48999024 .39736939 .48999024 .40437318 .48999024 .42237855 .47599793 .43138124 .46099855 .43138124 .45098878 .43138124 .43499757 .42536927 .42599488 .41036988 .42399598 .405365 .41600038 .37435914 .4119873 .35635377 .40499879 .33035279 .397995 .30334474 .3919983 .27633668L.34700013 .09628296C.34298707 .08126831 .2999878 .011245728 .23399353 .011245728 .18299866 .011245728 .17199707 .055267335 .17199707 .0922699 .17199707 .1382904 .18899536 .20030213 .22299195 .28833009 .23899842 .3293457 .24299622 .3403473 .24299622 .36035157 .24299622 .405365 .21099854 .4423828 .16099549 .4423828 .06599426 .4423828 .0289917 .29733277 .0289917 .28833009 .0289917 .27833558 .038986207 .27833558 .040985109 .27833558 .050994874 .27833558 .051986696 .28033448 .056991579 .29634095 .083999637 .3903656 .12399292 .42037965 .1579895 .42037965 .1659851 .42037965 .18299866 .42037965 .18299866 .3883667 .18299866 .36335755 .17298889 .3373413 .1659851 .31834413 .12599182 .21231079 .10798645 .1552887 .10798645 .10827637 .10798645 .019256592 .17098999-.0107421879 .22999573-.0107421879 .2689972-.0107421879 .30299378 .0062561037 .33099366 .03425598 .31799317-.017745972 .30599977-.06674194 .2659912-.11973572 .23999024-.15385437 .20199585-.18309021 .1559906-.18309021 .14199829-.18309021 .09700012-.18005371 .07998657-.14074707 .09599304-.14074707 .10899353-.14074707 .12298584-.1287384 .1329956-.11973572 .14299011-.10673523 .14299011-.08773804 .14299011-.056747438 .115997318-.052734376 .10598755-.052734376 .08299255-.052734376 .049987794-.068740848 .049987794-.11773682 .049987794-.16796875 .09399414-.20507813 .1559906-.20507813 .25898744-.20507813 .3619995-.11373901 .3899994-.00074768069L.48599244 .38136292Z"/>
<path id="font_6_3" d="M.20799256 .19424439C.22999573 .19024658 .31199647 .17424011 .31199647 .102249149 .31199647 .051254274 .2769928 .011245728 .19898987 .011245728 .114990238 .011245728 .07899475 .06825256 .05999756 .15324402 .056991579 .1662445 .055999757 .17024231 .04598999 .17024231 .032989503 .17024231 .032989503 .16323853 .032989503 .14524842V.013244629C.032989503-.003753662 .032989503-.0107421879 .04399109-.0107421879 .04899597-.0107421879 .049987794-.009750366 .068984989 .009246826 .070999149 .011245728 .070999149 .013244629 .08898926 .03224182 .1329956-.009750366 .17799378-.0107421879 .19898987-.0107421879 .31399537-.0107421879 .3600006 .056243898 .3600006 .12825012 .3600006 .1812439 .32998658 .21124268 .31799317 .22323609 .2849884 .25523377 .24598694 .26324464 .20399475 .27124024 .147995 .28224183 .08099365 .2952423 .08099365 .35324098 .08099365 .38822938 .10699463 .42922975 .19299317 .42922975 .30299378 .42922975 .30799867 .3392334 .30999757 .3082428 .31098939 .2992401 .31999208 .2992401 .32199098 .2992401 .33499146 .2992401 .33499146 .304245 .33499146 .3232422V.4242401C.33499146 .4412384 .33499146 .4482422 .32398988 .4482422 .31900025 .4482422 .31698609 .4482422 .3039856 .43623353 .30099488 .43223573 .29100038 .42323304 .2869873 .42022706 .24899292 .4482422 .20799256 .4482422 .19299317 .4482422 .070999149 .4482422 .032989503 .38124085 .032989503 .3252411 .032989503 .29023744 .04899597 .26223756 .07598877 .24023438 .10798645 .21424866 .13598633 .2082367 .20799256 .19424439Z"/>
<path id="font_6_1" d="M.1769867 .4423828 .036987306 .43138124V.40037538C.101989749 .40037538 .11099243 .3943634 .11099243 .34532167V.076034549C.11099243 .0309906 .099990848 .0309906 .032989503 .0309906V0C.06498718 .0009918213 .11898804 .0029907227 .14299011 .0029907227 .17799378 .0029907227 .21299744 .0009918213 .24699402 0V.0309906C.18099976 .0309906 .1769867 .035995485 .1769867 .075042728V.4423828M.18099976 .6159363C.18099976 .64793398 .1559906 .6689453 .12799073 .6689453 .09700012 .6689453 .07499695 .64193728 .07499695 .6159363 .07499695 .5889435 .09700012 .5629425 .12799073 .5629425 .1559906 .5629425 .18099976 .5839386 .18099976 .6159363Z"/>
<path id="font_6_2" d="M.10998535 .34429933V.076034549C.10998535 .0309906 .09899902 .0309906 .03199768 .0309906V0C.066986087 .0009918213 .117996219 .0029907227 .14498902 .0029907227 .17098999 .0029907227 .22299195 .0009918213 .25698854 0V.0309906C.18998719 .0309906 .1789856 .0309906 .1789856 .076034549V.2602234C.1789856 .36431886 .25 .42037965 .31399537 .42037965 .3769989 .42037965 .3880005 .36631776 .3880005 .30926515V.076034549C.3880005 .0309906 .3769989 .0309906 .30999757 .0309906V0C.34498597 .0009918213 .3959961 .0029907227 .4229889 .0029907227 .44898988 .0029907227 .5009918 .0009918213 .5349884 0V.0309906C.48298646 .0309906 .45799256 .0309906 .45700074 .061019899V.25221253C.45700074 .3383026 .45700074 .36932374 .42599488 .405365 .4119873 .42237855 .3789978 .4423828 .32099916 .4423828 .24798584 .4423828 .20098877 .39935304 .17298889 .33729554V.4423828L.03199768 .43138124V.40037538C.101989749 .4003601 .10998535 .39335633 .10998535 .34429933Z"/>
</defs>
<path transform="matrix(1.00005,0,0,-1,-27.914799,148.48001)" stroke-width=".09962" stroke-linecap="butt" stroke-miterlimit="10" stroke-linejoin="miter" fill="none" stroke="#e0e0e0" d="M158.56423 0V126.85138"/>
<path transform="matrix(1.00005,0,0,-1,-27.914799,148.48001)" stroke-width=".19925" stroke-linecap="butt" stroke-miterlimit="10" stroke-linejoin="miter" fill="none" stroke="#c0c0c0" d="M58.93547 0V126.85138M258.193 0V126.85138"/>
<path transform="matrix(1.00005,0,0,-1,-27.914799,148.48001)" stroke-width=".09962" stroke-linecap="butt" stroke-miterlimit="10" stroke-linejoin="miter" fill="none" stroke="#e0e0e0" d="M39.00961 63.42569H278.11885"/>
<path transform="matrix(1.00005,0,0,-1,-27.914799,148.48001)" stroke-width=".19925" stroke-linecap="butt" stroke-miterlimit="10" stroke-linejoin="miter" fill="none" stroke="#c0c0c0" d="M39.00961 31.71284H278.11885M39.00961 95.13853H278.11885"/>
<path transform="matrix(1.00005,0,0,-1,-27.914799,148.48001)" stroke-width=".19925" stroke-linecap="butt" stroke-miterlimit="10" stroke-linejoin="miter" fill="none" stroke="#929292" d="M158.56423 62.00829V64.8431"/>
<path transform="matrix(1.00005,0,0,-1,-27.914799,148.48001)" stroke-width=".19925" stroke-linecap="butt" stroke-miterlimit="10" stroke-linejoin="miter" fill="none" stroke="#929292" d="M58.93547 61.29977V65.55157M258.193 61.29977V65.55157"/>
<path transform="matrix(1.00005,0,0,-1,-27.914799,148.48001)" stroke-width=".19925" stroke-linecap="butt" stroke-miterlimit="10" stroke-linejoin="miter" fill="none" stroke="#929292" d="M157.14682 63.42569H159.98163"/>
<path transform="matrix(1.00005,0,0,-1,-27.914799,148.48001)" stroke-width=".19925" stroke-linecap="butt" stroke-miterlimit="10" stroke-linejoin="miter" fill="none" stroke="#929292" d="M156.43833 31.71284H160.69013M156.43833 95.13853H160.69013"/>
<path transform="matrix(1.00005,0,0,-1,-27.914799,148.48001)" stroke-width=".3985" stroke-linecap="butt" stroke-miterlimit="10" stroke-linejoin="miter" fill="none" stroke="#000000" d="M32.63338 63.42569H284.49507"/>
<path transform="matrix(-1.00005,-0,0,1,4.720211,85.05432)" d="M3.58653 0C2.52383 .19925 .797 .797-.3985 1.49438V-1.49438C.797-.797 2.52383-.19925 3.58653 0"/>
<path transform="matrix(1.00005,0,0,-1,256.59449,85.05432)" d="M3.58653 0C2.52383 .19925 .797 .797-.3985 1.49438V-1.49438C.797-.797 2.52383-.19925 3.58653 0"/>
<path transform="matrix(1.00005,0,0,-1,-27.914799,148.48001)" stroke-width=".3985" stroke-linecap="butt" stroke-miterlimit="10" stroke-linejoin="miter" fill="none" stroke="#000000" d="M158.56423-6.37622V133.2276"/>
<path transform="matrix(0,1,1.00005,0,130.65735,154.85623)" d="M3.58653 0C2.52383 .19925 .797 .797-.3985 1.49438V-1.49438C.797-.797 2.52383-.19925 3.58653 0"/>
<path transform="matrix(0,-1,-1.00005,-0,130.65735,15.252411)" d="M3.58653 0C2.52383 .19925 .797 .797-.3985 1.49438V-1.49438C.797-.797 2.52383-.19925 3.58653 0"/>
<use data-text="&#x2212;" xlink:href="#font_1_1" transform="matrix(7.970498,0,0,-7.9701,25.155854,95.515018)"/>
<use data-text="&#x03c0;" xlink:href="#font_2_1" transform="matrix(7.970498,0,0,-7.9701,31.743184,95.515018)"/>
<use data-text="&#x03c0;" xlink:href="#font_2_1" transform="matrix(7.970498,0,0,-7.9701,227.71698,94.13201)"/>
<use data-text="&#x2212;" xlink:href="#font_1_1" transform="matrix(7.970498,0,0,-7.9701,114.19031,118.92001)"/>
<use data-text="1" xlink:href="#font_3_1" transform="matrix(7.970498,0,0,-7.9701,120.77763,118.92001)"/>
<use data-text="1" xlink:href="#font_3_1" transform="matrix(7.970498,0,0,-7.9701,120.77664,55.91001)"/>
<g clip-path="url(#clip_4)">
<path transform="matrix(1.00005,0,0,-1,-27.914799,148.48001)" stroke-width=".99628" stroke-linecap="butt" stroke-miterlimit="10" stroke-linejoin="miter" fill="none" stroke="#e41a1c" d="M0 93.83385C0 93.83385 2.31416 94.42172 3.20297 94.58641 4.09178 94.7511 5.51715 94.94489 6.40598 95.02087 7.29478 95.09685 8.72015 95.14767 9.60896 95.13408 10.49777 95.12048 11.92314 95.02605 12.81197 94.92288 13.70078 94.8197 15.12614 94.58182 16.01495 94.39043 16.90378 94.19904 18.32913 93.82101 19.21796 93.54338 20.10677 93.26575 21.53214 92.75058 22.42094 92.38933 23.30977 92.02809 24.73514 91.38098 25.62395 90.93974 26.51276 90.4985 27.93813 89.72574 28.82693 89.20917 29.71576 88.69261 31.14113 87.80322 32.02994 87.21666 32.91875 86.6301 34.3441 85.63225 35.23293 84.98154 36.12173 84.33081 37.5471 83.23495 38.43591 82.52664 39.32472 81.81831 40.75009 80.63501 41.63892 79.8764 42.52773 79.1178 43.9531 77.86006 44.8419 77.05904 45.73073 76.25801 47.15608 74.93866 48.0449 74.10309 48.93372 73.2675 50.35909 71.89813 51.2479 71.03677 52.13672 70.17542 53.56209 68.77336 54.4509 67.89497 55.3397 67.01659 56.76508 65.59244 57.65388 64.70592 58.54271 63.8194 59.96808 62.39093 60.85689 61.50546 61.7457 60.62 63.17107 59.19972 64.05988 58.32402 64.9487 57.44833 66.37407 56.05081 67.26288 55.19398 68.15169 54.33716 69.57704 52.97783 70.46587 52.14859 71.35468 51.31935 72.78004 50.01065 73.66885 49.21738 74.55766 48.42409 75.98303 47.18015 76.87186 46.43108 77.76067 45.682 79.18604 44.51604 80.07484 43.81859 80.96367 43.12114 82.38902 42.04279 83.27785 41.40428 84.16666 40.76578 85.59203 39.78963 86.48083 39.21674 87.36966 38.64384 88.79503 37.77711 89.68384 37.27525 90.57265 36.77339 91.99802 36.0252 92.88683 35.59956 93.77565 35.1739 95.20102 34.55232 96.08983 34.20737 96.97864 33.8624 98.404 33.37393 99.29283 33.11328 100.18164 32.85263 101.60701 32.50246 102.49582 32.3287 103.38463 32.15494 104.80998 31.94615 105.6988 31.86092 106.58762 31.7757 108.01299 31.71025 108.9018 31.71442 109.7906 31.71858 111.21597 31.79742 112.1048 31.89105 112.9936 31.98468 114.41898 32.20703 115.30779 32.38927 116.19661 32.5715 117.62196 32.93573 118.51079 33.2046 119.3996 33.47348 120.82497 33.97455 121.71378 34.32724 122.6026 34.67995 124.02797 35.31383 124.91678 35.7467 125.80559 36.17958 127.23096 36.93832 128.11977 37.44714 129.00859 37.95598 130.43396 38.83423 131.32277 39.41399 132.21158 39.99374 133.63695 40.98131 134.52577 41.62564 135.41458 42.26997 136.83995 43.35553 137.72876 44.058 138.61757 44.76047 140.04293 45.935 140.93175 46.6886 141.82056 47.44218 143.24593 48.69244 144.13474 49.48947 145.02356 50.2865 146.44892 51.60075 147.33774 52.43306 148.22655 53.26537 149.65192 54.62924 150.54073 55.48827 151.42955 56.34727 152.85492 57.7473 153.74373 58.62436 154.63254 59.50142 156.0579 60.9236 156.94672 61.8096 157.83554 62.6956 159.26091 64.12405 160.14972 65.01006 161.03853 65.89606 162.4639 67.31818 163.3527 68.1953 164.24153 69.0724 165.6669 70.4724 166.55571 71.3317 167.44452 72.19098 168.86989 73.55582 169.75872 74.38849 170.64752 75.22116 172.07289 76.53561 172.9617 77.33304 173.85051 78.13045 175.27587 79.38177 176.16469 80.1358 177.0535 80.88985 178.47887 82.06462 179.36768 82.76767 180.2565 83.47072 181.68186 84.55788 182.57068 85.20288 183.45949 85.84789 184.88486 86.83607 185.77367 87.41644 186.66249 87.99681 188.08786 88.87625 188.97667 89.38582 189.86548 89.89539 191.29085 90.65553 192.17966 91.08911 193.06848 91.52269 194.49385 92.1573 195.38266 92.5108 196.27147 92.86429 197.69684 93.36708 198.58567 93.63693 199.47447 93.90678 200.89984 94.27267 201.78865 94.45575 202.67746 94.63882 204.10283 94.86203 204.99166 94.9565 205.88047 95.05095 207.30583 95.13162 208.19464 95.13661 209.08345 95.14162 210.5088 95.07698 211.39763 94.99265 212.28644 94.9083 213.7118 94.70148 214.60062 94.52869 215.48944 94.35591 216.9148 94.0071 217.80362 93.74728 218.69243 93.48746 220.1178 93.00014 221.0066 92.65605 221.89543 92.31197 223.3208 91.69211 224.20961 91.26733 225.09842 90.84256 226.52379 90.09561 227.4126 89.5945 228.30142 89.09337 229.72679 88.22786 230.6156 87.65556 231.50441 87.08325 232.92978 86.10753 233.8186 85.4696 234.70742 84.83168 236.13278 83.75471 237.02159 83.05785 237.9104 82.36096 239.33577 81.1955 240.2246 80.44691 241.1134 79.69833 242.53878 78.45532 243.42758 77.66252 244.3164 76.86972 245.74175 75.56183 246.63057 74.7329 247.51938 73.90396 248.94475 72.54474 249.83356 71.68814 250.72238 70.83154 252.14775 69.4346 253.03656 68.55904 253.92537 67.68346 255.35074 66.26308 256.23957 65.37761 257.12837 64.49214 258.55375 63.06363 259.44255 62.17715 260.33137 61.29066 261.75675 59.86693 262.64555 58.98842 263.53437 58.1099 264.95973 56.70697 265.84855 55.84535 266.73735 54.98373 268.16273 53.61424 269.05155 52.7784 269.94035 51.94257 271.36573 50.6226 272.25453 49.82118 273.14335 49.01974 274.5687 47.76128 275.45753 47.00223 276.34635 46.24318 277.7717 45.0592 278.66053 44.3504 279.54936 43.64159 280.9747 42.54486 281.8635 41.8936 282.75233 41.24236 284.1777 40.2439 285.0665 39.65659 285.95533 39.06927 287.38069 38.17798 288.2695 37.66058 289.15834 37.14319 290.58369 36.3694 291.4725 35.92746 292.3613 35.48553 293.78669 34.83742 294.67549 34.47534 295.5643 34.11327 296.9897 33.59637 297.8785 33.31783 298.7673 33.03926 300.19267 32.65979 301.08149 32.4676 301.97029 32.27542 303.39567 32.03665 304.2845 31.9326 305.1733 31.82854 306.59867 31.73215 307.48747 31.71758 308.37629 31.70302 309.80165 31.75249 310.6905 31.82764 311.57929 31.90277 313.00465 32.09543 313.89347 32.25925 314.7823 32.42307 317.09645 33.0083 317.09645 33.0083"/>
<path transform="matrix(1.00005,0,0,-1,-27.914799,148.48001)" stroke-width=".99628" stroke-linecap="butt" stroke-dasharray="2.98883,2.98883" stroke-miterlimit="10" stroke-linejoin="miter" fill="none" stroke="#377eb8" d="M0-95.13853C0-95.13853 2.31416-92.82436 3.20297-91.93553 4.09178-91.04672 5.51715-89.62135 6.40598-88.73254 7.29478-87.84373 8.72015-86.41837 9.60896-85.52954 10.49777-84.64073 11.92314-83.21536 12.81197-82.32655 13.70078-81.43773 15.12614-80.01237 16.01495-79.12355 16.90378-78.23474 18.32913-76.80937 19.21796-75.92056 20.10677-75.03174 21.53214-73.60637 22.42094-72.71756 23.30977-71.82875 24.73514-70.40338 25.62395-69.51457 26.51276-68.62575 27.93813-67.20038 28.82693-66.31157 29.71576-65.42276 31.14113-63.99739 32.02994-63.10857 32.91875-62.21976 34.3441-60.7944 35.23293-59.9056 36.12173-59.01678 37.5471-57.59142 38.43591-56.70259 39.32472-55.81378 40.75009-54.38841 41.63892-53.4996 42.52773-52.61078 43.9531-51.18542 44.8419-50.2966 45.73073-49.40779 47.15608-47.98242 48.0449-47.09361 48.93372-46.20479 50.35909-44.77942 51.2479-43.89061 52.13672-43.0018 53.56209-41.57643 54.4509-40.68762 55.3397-39.7988 56.76508-38.37343 57.65388-37.48462 58.54271-36.59581 59.96808-35.17044 60.85689-34.28163 61.7457-33.3928 63.17107-31.96744 64.05988-31.07863 64.9487-30.18982 66.37407-28.76445 67.26288-27.87563 68.15169-26.98682 69.57704-25.56146 70.46587-24.67265 71.35468-23.78384 72.78004-22.35847 73.66885-21.46965 74.55766-20.58084 75.98303-19.15547 76.87186-18.26666 77.76067-17.37784 79.18604-15.95248 80.07484-15.06366 80.96367-14.17485 82.38902-12.74948 83.27785-11.86067 84.16666-10.97185 85.59203-9.54648 86.48083-8.65767 87.36966-7.76886 88.79503-6.34349 89.68384-5.45468 90.57265-4.56586 91.99802-3.14049 92.88683-2.25168 93.77565-1.36287 95.20102 .06247 96.08983 .9513 96.97864 1.8401 98.404 3.26547 99.29283 4.15428 100.18164 5.04309 101.60701 6.46846 102.49582 7.35728 103.38463 8.2461 104.80998 9.67145 105.6988 10.56026 106.58762 11.44907 108.01299 12.87444 108.9018 13.76326 109.7906 14.65207 111.21597 16.07744 112.1048 16.96625 112.9936 17.85507 114.41898 19.28043 115.30779 20.16925 116.19661 21.05806 117.62196 22.48343 118.51079 23.37224 119.3996 24.26106 120.82497 25.68643 121.71378 26.57524 122.6026 27.46405 124.02797 28.88942 124.91678 29.77823 125.80559 30.66705 127.23096 32.09242 128.11977 32.98123 129.00859 33.87004 130.43396 35.29541 131.32277 36.18423 132.21158 37.07304 133.63695 38.49841 134.52577 39.38722 135.41458 40.27603 136.83995 41.7014 137.72876 42.59023 138.61757 43.47903 140.04293 44.90439 140.93175 45.7932 141.82056 46.68202 143.24593 48.10738 144.13474 48.9962 145.02356 49.88501 146.44892 51.31038 147.33774 52.19919 148.22655 53.08801 149.65192 54.51338 150.54073 55.40219 151.42955 56.291 152.85492 57.71637 153.74373 58.60518 154.63254 59.494 156.0579 60.91937 156.94672 61.80818 157.83554 62.69699 159.26091 64.12236 160.14972 65.01117 161.03853 65.9 162.4639 67.32536 163.3527 68.21417 164.24153 69.10298 165.6669 70.52835 166.55571 71.41718 167.44452 72.30598 168.86989 73.73135 169.75872 74.62016 170.64752 75.50897 172.07289 76.93434 172.9617 77.82317 173.85051 78.71198 175.27587 80.13733 176.16469 81.02614 177.0535 81.91496 178.47887 83.34032 179.36768 84.22914 180.2565 85.11795 181.68186 86.54332 182.57068 87.43213 183.45949 88.32095 184.88486 89.74632 185.77367 90.63513 186.66249 91.52394 188.08786 92.94931 188.97667 93.83812 189.86548 94.72694 191.29085 96.15231 192.17966 97.04112 193.06848 97.92993 194.49385 99.3553 195.38266 100.24413 196.27147 101.13293 197.69684 102.5583 198.58567 103.44711 199.47447 104.33592 200.89984 105.76129 201.78865 106.65012 202.67746 107.53893 204.10283 108.9643 204.99166 109.8531 205.88047 110.74191 207.30583 112.16728 208.19464 113.0561 209.08345 113.94492 210.5088 115.37027 211.39763 116.25908 212.28644 117.1479 213.7118 118.57327 214.60062 119.46208 215.48944 120.35089 216.9148 121.77626 217.80362 122.66507 218.69243 123.5539 220.1178 124.97926 221.0066 125.86807 221.89543 126.75688 223.3208 128.18225 224.20961 129.07106 225.09842 129.95989 226.52379 131.38526 227.4126 132.27407 228.30142 133.16287 229.72679 134.58824 230.6156 135.47707 231.50441 136.36588 232.92978 137.79125 233.8186 138.68006 234.70742 139.56887 236.13278 140.99423 237.02159 141.88306 237.9104 142.77187 239.33577 144.19724 240.2246 145.08605 241.1134 145.97487 242.53878 147.40023 243.42758 148.28905 244.3164 149.17786 245.74175 150.60321 246.63057 151.49202 247.51938 152.38085 248.94475 153.80622 249.83356 154.69503 250.72238 155.58383 252.14775 157.0092 253.03656 157.89801 253.92537 158.78684 255.35074 160.2122 256.23957 161.10102 257.12837 161.98983 258.55375 163.41519 259.44255 164.30402 260.33137 165.19283 261.75675 166.6182 262.64555 167.507 263.53437 168.39582 264.95973 169.82118 265.84855 170.71 266.73735 171.59882 268.16273 173.02419 269.05155 173.913 269.94035 174.8018 271.36573 176.22718 272.25453 177.116 273.14335 178.0048 274.5687 179.43018 275.45753 180.31899 276.34635 181.20781 277.7717 182.63317 278.66053 183.52199 279.54936 184.4108 280.9747 185.83615 281.8635 186.72496 282.75233 187.61379 284.1777 189.03916 285.0665 189.92797 285.95533 190.81678 287.38069 192.24214 288.2695 193.13095 289.15834 194.01978 290.58369 195.44515 291.4725 196.33396 292.3613 197.22277 293.78669 198.64813 294.67549 199.53696 295.5643 200.42577 296.9897 201.85114 297.8785 202.73995 298.7673 203.62876 300.19267 205.05413 301.08149 205.94295 301.97029 206.83176 303.39567 208.25713 304.2845 209.14594 305.1733 210.03476 306.59867 211.46012 307.48747 212.34894 308.37629 213.23775 309.80165 214.66312 310.6905 215.55193 311.57929 216.44075 313.00465 217.86612 313.89347 218.75493 314.7823 219.64374 317.09645 221.9579 317.09645 221.9579"/>
</g>
<use data-text="&#x03b8;" xlink:href="#font_5_1" transform="matrix(9.963098,0,0,-9.9626,263.75077,88.503009)"/>
<use data-text="y" xlink:href="#font_5_2" transform="matrix(9.963098,0,0,-9.9626,128.064,6.209015)"/>
<path transform="matrix(1.00005,0,0,-1,-27.914799,148.48001)" d="M121.68576-41.95227H195.44266V-25.569142H121.68576Z" fill="#ffffff"/>
<path transform="matrix(1.00005,0,0,-1,-27.914799,148.48001)" stroke-width=".3985" stroke-linecap="butt" stroke-miterlimit="10" stroke-linejoin="miter" fill="none" stroke="#000000" d="M121.68576-41.95227H195.44266V-25.569142H121.68576Z"/>
<path transform="matrix(1.00005,0,0,-1,97.26445,182.24102)" stroke-width=".99628" stroke-linecap="butt" stroke-miterlimit="10" stroke-linejoin="miter" fill="none" stroke="#e41a1c" d="M0 0C0 0 6.14426 0 8.50412 0 10.86398 0 17.00826 0 17.00826 0"/>
<use data-text="s" xlink:href="#font_6_3" transform="matrix(9.963098,0,0,-9.9626,116.76443,184.953)"/>
<use data-text="i" xlink:href="#font_6_1" transform="matrix(9.963098,0,0,-9.9626,120.68989,184.953)"/>
<use data-text="n" xlink:href="#font_6_2" transform="matrix(9.963098,0,0,-9.9626,123.44967,184.953)"/>
<use data-text="&#x03b8;" xlink:href="#font_5_1" transform="matrix(9.963098,0,0,-9.9626,130.65712,184.953)"/>
<path transform="matrix(1.00005,0,0,-1,138.10251,182.24102)" stroke-width=".99628" stroke-linecap="butt" stroke-dasharray="2.98883,2.98883" stroke-miterlimit="10" stroke-linejoin="miter" fill="none" stroke="#377eb8" d="M0 0C0 0 6.14426 0 8.50412 0 10.86398 0 17.00826 0 17.00826 0"/>
<use data-text="&#x03b8;" xlink:href="#font_5_1" transform="matrix(9.963098,0,0,-9.9626,157.60147,184.953)"/>
</svg>
