<svg xmlns="http://www.w3.org/2000/svg" xmlns:xlink="http://www.w3.org/1999/xlink" version="1.1" width="371" height="27" viewBox="0 0 371 27">
<defs>
<path id="font_1_2" d="M.44400025 .24998474C.44400025 .35688783 .35499574 .44381715 .25 .44381715 .14199829 .44381715 .054992677 .35488893 .054992677 .24998474 .054992677 .14407349 .14199829 .056137086 .25 .056137086 .35499574 .056137086 .44400025 .14308167 .44400025 .24998474Z"/>
<path id="font_2_2" d="M.33399964 .30233766C.33999635 .32835389 .36299134 .42037965 .43299867 .42037965 .43798829 .42037965 .46199037 .42037965 .48298646 .40734864 .45498658 .402359 .43499757 .37734986 .43499757 .35334779 .43499757 .33735658 .44599916 .31835938 .47299195 .31835938 .49499513 .31835938 .5269928 .3363495 .5269928 .37635804 .5269928 .42837525 .46798707 .4423828 .43399049 .4423828 .37599183 .4423828 .34098817 .38935853 .32899476 .36634828 .3039856 .43237306 .25 .4423828 .22099304 .4423828 .116989139 .4423828 .05999756 .3133545 .05999756 .28834535 .05999756 .27833558 .069992069 .27833558 .07199097 .27833558 .07998657 .27833558 .08299255 .28033448 .084991458 .28933717 .11898804 .39535523 .18499756 .42037965 .21899414 .42037965 .23799134 .42037965 .272995 .4113617 .272995 .35334779 .272995 .32235719 .2559967 .25532533 .21899414 .11528015 .20298767 .053268434 .16799927 .011245728 .12399292 .011245728 .117996219 .011245728 .09498596 .011245728 .07398987 .024276734 .09899902 .029266358 .12098694 .05027771 .12098694 .07827759 .12098694 .105270389 .09899902 .11328125 .083999637 .11328125 .053985597 .11328125 .0289917 .08728027 .0289917 .055267335 .0289917 .009246826 .07899475-.0107421879 .12298584-.0107421879 .18899536-.0107421879 .22499085 .059280397 .22799683 .0652771 .23999024 .028274537 .27598573-.0107421879 .33599855-.0107421879 .43899537-.0107421879 .49598695 .118270877 .49598695 .14328003 .49598695 .1532898 .4869995 .1532898 .48399354 .1532898 .47499085 .1532898 .47299195 .14929199 .47099305 .14228821 .43798829 .03527832 .36999513 .011245728 .33799745 .011245728 .29899598 .011245728 .2829895 .043273927 .2829895 .07727051 .2829895 .09927368 .2889862 .121276859 .2999878 .16529846L.33399964 .30233766Z"/>
<path id="font_3_1" d="M.33499146 .63612368C.33499146 .6630554 .33299256 .6640625 .30499269 .6640625 .24099732 .6014404 .1499939 .6004486 .10899353 .6004486V.5644531C.1329956 .5644531 .19898987 .5644531 .2539978 .592453V.08203125C.2539978 .04899597 .2539978 .035995485 .1539917 .035995485H.115997318V0C.13398743 .0009918213 .25698854 .0039978029 .2939911 .0039978029 .32499696 .0039978029 .45098878 .0009918213 .47299195 0V.035995485H.43499757C.33499146 .035995485 .33499146 .04899597 .33499146 .08203125V.63612368Z"/>
<path id="font_4_7" d="M.68699648 .32714845C.70199587 .32714845 .72099307 .32714845 .72099307 .34713746 .72099307 .36714173 .70199587 .36714173 .6879883 .36714173H.08898926C.07499695 .36714173 .055999757 .36714173 .055999757 .34713746 .055999757 .32714845 .07499695 .32714845 .08999634 .32714845H.68699648M.6879883 .13284302C.70199587 .13284302 .72099307 .13284302 .72099307 .15284729 .72099307 .17285156 .70199587 .17285156 .68699648 .17285156H.08999634C.07499695 .17285156 .055999757 .17285156 .055999757 .15284729 .055999757 .13284302 .07499695 .13284302 .08898926 .13284302H.6879883Z"/>
<path id="font_1_1" d="M.6589966 .23046875C.6759949 .23046875 .69400027 .23046875 .69400027 .25045777 .69400027 .27046205 .6759949 .27046205 .6589966 .27046205H.117996219C.100997928 .27046205 .08299255 .27046205 .08299255 .25045777 .08299255 .23046875 .100997928 .23046875 .117996219 .23046875H.6589966Z"/>
<path id="font_4_3" d="M.1269989 .07699585 .23298645 .18003845C.3889923 .31811524 .44898988 .3721466 .44898988 .47216798 .44898988 .5860901 .35899354 .6660156 .23699951 .6660156 .12399292 .6660156 .049987794 .57411196 .049987794 .48516847 .049987794 .4291687 .099990848 .4291687 .102996829 .4291687 .11999512 .4291687 .15499878 .44117738 .15499878 .48217774 .15499878 .5081787 .13699341 .5341797 .101989749 .5341797 .09399414 .5341797 .09199524 .5341797 .08898926 .5331726 .11199951 .59806826 .1659851 .63500979 .22399903 .63500979 .31498719 .63500979 .35798646 .5541382 .35798646 .47216798 .35798646 .39215089 .30799867 .31311036 .25299073 .25108338L.06098938 .036987306C.049987794 .025985718 .049987794 .023986817 .049987794 0H.42099L.44898988 .17404175H.42399598C.4189911 .14402771 .4119873 .1000061 .4019928 .084991458 .394989 .07699585 .32899476 .07699585 .30699159 .07699585H.1269989Z"/>
<path id="font_2_1" d="M.08799744 .059265138C.084991458 .044265748 .07899475 .021255494 .07899475 .01625061 .07899475-.0017547608 .09298706-.0107421879 .10798645-.0107421879 .11999512-.0107421879 .13798523-.002746582 .14498902 .01725769 .1459961 .019256592 .1579895 .06626892 .1639862 .091278079L.18598938 .18130493C.19198609 .2033081 .19799805 .22531128 .20298767 .24832154 .20698548 .26531983 .21499634 .29434205 .21598816 .29833985 .23098755 .3293457 .28399659 .42037965 .3789978 .42037965 .42399598 .42037965 .43299867 .38336183 .43299867 .35035707 .43299867 .3253479 .42599488 .29733277 .41799928 .26733399L.3899994 .1512909 .36999513 .07527161C.3659973 .055267335 .35699464 .021255494 .35699464 .01625061 .35699464-.0017547608 .37098695-.0107421879 .38598634-.0107421879 .4169922-.0107421879 .4229889 .014251709 .43099977 .04626465 .44499208 .10227966 .48199464 .24832154 .4909973 .28733827 .49398805 .30033876 .5469971 .42037965 .6559906 .42037965 .69898989 .42037965 .70999148 .3863678 .70999148 .35035707 .70999148 .29333497 .66799929 .17930603 .647995 .12628174 .6389923 .10227966 .6349945 .091278079 .6349945 .0712738 .6349945 .024261475 .66999819-.0107421879 .71699526-.0107421879 .8109894-.0107421879 .84799197 .13528443 .84799197 .14329529 .84799197 .1532898 .83898928 .1532898 .83599856 .1532898 .82598879 .1532898 .82598879 .15029907 .82099917 .13528443 .80599978 .08227539 .7739868 .011245728 .71899417 .011245728 .70199587 .011245728 .69499209 .021255494 .69499209 .044265748 .69499209 .0692749 .70399478 .09327698 .71299746 .11528015 .7319946 .16729737 .7739868 .27833558 .7739868 .3353424 .7739868 .4003601 .73399356 .4423828 .6589966 .4423828 .58399966 .4423828 .5329895 .3983612 .49598695 .34535218 .49499513 .35835267 .49198915 .3923645 .46398927 .41636659 .43899537 .43737794 .40699769 .4423828 .38198854 .4423828 .2919922 .4423828 .24299622 .37835694 .22599793 .35534669 .22099304 .41236878 .1789856 .4423828 .13398743 .4423828 .08799744 .4423828 .068984989 .4033661 .05999756 .38536073 .041992189 .35035707 .0289917 .29133607 .0289917 .28833009 .0289917 .27833558 .038986207 .27833558 .040985109 .27833558 .050994874 .27833558 .051986696 .2793274 .057998659 .30133058 .07499695 .37236024 .09498596 .42037965 .1309967 .42037965 .14698792 .42037965 .1619873 .41236878 .1619873 .37435914 .1619873 .35334779 .15899658 .3423462 .1459961 .29032899L.08799744 .059265138Z"/>
<path id="font_4_5" d="M.44898988 .20022583C.44898988 .3193512 .36698915 .41944886 .25898744 .41944886 .21099854 .41944886 .16799927 .40345765 .13198853 .36842347V.5637665C.1519928 .5577698 .18499756 .55078127 .21699524 .55078127 .33999635 .55078127 .4099884 .6417694 .4099884 .6547699 .4099884 .6607666 .40699769 .6657715 .3999939 .6657715 .39898683 .6657715 .39698792 .6657715 .3919983 .66278079 .37199403 .6537781 .32299806 .6337738 .2559967 .6337738 .21598816 .6337738 .16999817 .6407776 .12298584 .6617737 .114990238 .66477969 .11299133 .66477969 .11099243 .66477969 .100997928 .66477969 .100997928 .6567688 .100997928 .6407776V.34439088C.100997928 .32637025 .100997928 .31835938 .114990238 .31835938 .12199402 .31835938 .12399292 .32136537 .12799073 .32736207 .13899231 .3433838 .17599488 .39746095 .25698854 .39746095 .30899049 .39746095 .33399964 .35139466 .34199525 .33337403 .35798646 .29632569 .3600006 .25727845 .3600006 .20722962 .3600006 .17222595 .3600006 .11222839 .33599855 .07035828 .31199647 .031463624 .2749939 .0055389406 .22898865 .0055389406 .1559906 .0055389406 .09899902 .058380128 .08198547 .11723328 .084991458 .1162262 .08799744 .115234378 .09899902 .115234378 .13198853 .115234378 .14898682 .14022827 .14898682 .16423035 .14898682 .18823242 .13198853 .21322632 .09899902 .21322632 .084991458 .21322632 .049987794 .20622254 .049987794 .16023255 .049987794 .07434082 .11898804-.022460938 .23098755-.022460938 .34700013-.022460938 .44898988 .073349 .44898988 .20022583Z"/>
<path id="font_3_2" d="M.5049896 .18203736H.47099305C.46798707 .16001892 .45799256 .100997928 .44499208 .09098816 .43699647 .084991458 .3600006 .084991458 .34599305 .084991458H.1619873C.2669983 .17803955 .3019867 .20603943 .3619995 .25306703 .43598939 .312088 .5049896 .374115 .5049896 .46914674 .5049896 .5900879 .39898683 .6640625 .2709961 .6640625 .14698792 .6640625 .06298828 .57710269 .06298828 .4851532 .06298828 .43414308 .10598755 .42915345 .115997318 .42915345 .13999939 .42915345 .16899109 .44615174 .16899109 .48214723 .16899109 .5001526 .1619873 .53515627 .10998535 .53515627 .14099121 .6060791 .20899964 .62805178 .2559967 .62805178 .35598756 .62805178 .4079895 .5501404 .4079895 .46914674 .4079895 .38212586 .34599305 .3130951 .31399537 .27708436L.07299805 .038986207C.06298828 .02999878 .06298828 .027999878 .06298828 0H.47499085L.5049896 .18203736Z"/>
<path id="font_4_4" d="M.2899933 .35191346C.37199403 .37893678 .42999269 .4490509 .42999269 .52809146 .42999269 .6100464 .34199525 .6660156 .24598694 .6660156 .14498902 .6660156 .068984989 .60606387 .068984989 .53009036 .068984989 .49710084 .09098816 .47808839 .11999512 .47808839 .15098572 .47808839 .17098999 .50009158 .17098999 .5290985 .17098999 .57910159 .12399292 .57910159 .10899353 .57910159 .13999939 .62802127 .20599365 .64100649 .24198914 .64100649 .2829895 .64100649 .33799745 .6190338 .33799745 .5290985 .33799745 .51708987 .33599855 .45906068 .30999757 .4149933 .27999879 .36691285 .24598694 .36390687 .22099304 .36291505 .21299744 .36190797 .18899536 .35990907 .18199158 .35990907 .17399597 .35890199 .16699219 .35791017 .16699219 .3479004 .16699219 .33691407 .17399597 .33691407 .19099427 .33691407H.23498535C.31698609 .33691407 .35398866 .2686615 .35398866 .17037964 .35398866 .034469606 .2849884 .0055389406 .24099732 .0055389406 .19799805 .0055389406 .12298584 .022491456 .08799744 .08137512 .12298584 .07637024 .1539917 .09837341 .1539917 .1363678 .1539917 .17237854 .1269989 .19238281 .09799194 .19238281 .07398987 .19238281 .041992189 .17837525 .041992189 .1343689 .041992189 .043441774 .1349945-.022460938 .24398804-.022460938 .3659973-.022460938 .45700074 .06838989 .45700074 .17037964 .45700074 .252594 .3939972 .33088685 .2899933 .35191346Z"/>
<path id="font_4_1" d="M.45999146 .31976319C.45999146 .39982606 .45498658 .47988893 .41999818 .5539398 .37399293 .65000918 .2919922 .6660156 .25 .6660156 .18998719 .6660156 .116989139 .64001467 .07598877 .54693606 .04399109 .47789 .038986207 .39982606 .038986207 .31976319 .038986207 .24472046 .042999269 .15464783 .083999637 .07859802 .1269989-.0024719239 .19999695-.022460938 .24899292-.022460938 .30299378-.022460938 .3789978-.0014648438 .4229889 .09359741 .45498658 .16265869 .45999146 .2407074 .45999146 .31976319M.24899292-.00047302247C.20999146-.00047302247 .15098572 .024551392 .1329956 .12062073 .12199402 .18066406 .12199402 .2727356 .12199402 .3317871 .12199402 .39582826 .12199402 .46188355 .12998963 .5159149 .14898682 .63500979 .22399903 .64401248 .24899292 .64401248 .28199769 .64401248 .34799195 .6259918 .36698915 .52693179 .3769989 .47088624 .3769989 .39482118 .3769989 .3317871 .3769989 .25672914 .3769989 .18867493 .3659973 .12461853 .35099793 .029556275 .2939911-.00047302247 .24899292-.00047302247Z"/>
<path id="font_3_3" d="M.272995 .33428956C.35099793 .33428956 .40699769 .2803192 .40699769 .1733551 .40699769 .04940796 .33499146 .012466431 .2769928 .012466431 .23699951 .012466431 .14898682 .0234375 .10699463 .082351688 .1539917 .084350589 .16499329 .11735535 .16499329 .13835144 .16499329 .17034912 .14099121 .19335938 .10998535 .19335938 .08198547 .19335938 .053985597 .17634583 .053985597 .13534546 .053985597 .041412355 .1579895-.01953125 .2789917-.01953125 .41799928-.01953125 .5139923 .07336426 .5139923 .1733551 .5139923 .2513275 .44999696 .32929994 .33999635 .35229493 .44499208 .39024354 .48298646 .4650879 .48298646 .5260773 .48298646 .60505679 .3919983 .6640625 .2809906 .6640625 .16999817 .6640625 .084991458 .61006167 .084991458 .5300751 .084991458 .49606324 .10699463 .47706605 .13699341 .47706605 .16799927 .47706605 .18798828 .5000763 .18798828 .5280762 .18798828 .5570679 .16799927 .57806399 .13699341 .5800781 .17199707 .62405398 .24099732 .63505557 .27799989 .63505557 .32299806 .63505557 .38598634 .6130676 .38598634 .5260773 .38598634 .48406983 .37199403 .43814088 .34599305 .4072113 .31298829 .36927796 .2849884 .3672943 .23498535 .36428834 .20999146 .3623047 .20799256 .3623047 .20298767 .3612976 .20098877 .3612976 .19299317 .3592987 .19299317 .34829713 .19299317 .33428956 .20199585 .33428956 .21899414 .33428956H.272995Z"/>
<path id="font_4_6" d="M.47599793 .609375C.4850006 .6213684 .4850006 .62338259 .4850006 .64437869H.24198914C.11999512 .64437869 .117996219 .65737918 .11399841 .67637637H.08898926L.055999757 .4702301H.08099365C.083999637 .48625184 .09298706 .5493469 .10598755 .56137087 .11299133 .5673828 .19099427 .5673828 .20399475 .5673828H.41099549C.3999939 .5513611 .32099916 .4421997 .29899598 .40914918 .20899964 .27394105 .17599488 .1347351 .17599488 .032577516 .17599488 .022567749 .17599488-.022460938 .22200012-.022460938 .2679901-.022460938 .2679901 .022567749 .2679901 .032577516V.08366394C.2679901 .13873291 .2709961 .19381714 .2789917 .24790955 .2829895 .27093507 .29699708 .35707093 .34098817 .41915895L.47599793 .609375Z"/>
<path id="font_4_2" d="M.2939911 .64004519C.2939911 .66400149 .2939911 .6660156 .2709961 .6660156 .20899964 .60227969 .12098694 .60227969 .08898926 .60227969V.57128909C.10899353 .57128909 .16799927 .57128909 .21998596 .5972748V.07902527C.21998596 .042999269 .21699524 .0309906 .1269989 .0309906H.09498596V0C.12998963 .0029907227 .21699524 .0029907227 .25698854 .0029907227 .29699708 .0029907227 .38398744 .0029907227 .4189911 0V.0309906H.3869934C.29699708 .0309906 .2939911 .041992189 .2939911 .07902527V.64004519Z"/>
</defs>
<path transform="matrix(1.00005,0,0,-1.00005,114.48781,13.355018)" stroke-width=".3985" stroke-linecap="butt" stroke-miterlimit="10" stroke-linejoin="miter" fill="none" stroke="#000000" d="M-113.08836 0H254.8224"/>
<path transform="matrix(-1.00005,-0,0,1.00005,1.3937988,13.355018)" stroke-width=".3985" stroke-linecap="square" stroke-miterlimit="10" stroke-linejoin="miter" fill="none" stroke="#000000" d="M.09961-2.5903V2.5903"/>
<path transform="matrix(1.00005,0,0,-1.00005,369.32295,13.355018)" stroke-width=".3985" stroke-linecap="square" stroke-miterlimit="10" stroke-linejoin="miter" fill="none" stroke="#000000" d="M.09961-2.5903V2.5903"/>
<use data-text="&#x2022;" xlink:href="#font_1_2" transform="matrix(9.963098,0,0,-9.963098,55.300859,15.569128)"/>
<use data-text="x" xlink:href="#font_2_2" transform="matrix(9.963098,0,0,-9.963098,39.702074,23.295514)"/>
<use data-text="1" xlink:href="#font_3_1" transform="matrix(6.9741489,0,0,-6.9741489,45.396364,24.790589)"/>
<use data-text="=" xlink:href="#font_4_7" transform="matrix(9.963098,0,0,-9.963098,52.632707,23.295514)"/>
<use data-text="&#x2212;" xlink:href="#font_1_1" transform="matrix(9.963098,0,0,-9.963098,63.149248,23.295514)"/>
<use data-text="2" xlink:href="#font_4_3" transform="matrix(9.963098,0,0,-9.963098,70.89862,23.295514)"/>
<use data-text="m" xlink:href="#font_2_1" transform="matrix(9.963098,0,0,-9.963098,39.559068,8.340767)"/>
<use data-text="1" xlink:href="#font_3_1" transform="matrix(6.9741489,0,0,-6.9741489,48.306505,9.835842)"/>
<use data-text="=" xlink:href="#font_4_7" transform="matrix(9.963098,0,0,-9.963098,55.543855,8.340767)"/>
<use data-text="2" xlink:href="#font_4_3" transform="matrix(9.963098,0,0,-9.963098,66.04497,8.340767)"/>
<use data-text="5" xlink:href="#font_4_5" transform="matrix(9.963098,0,0,-9.963098,71.026508,8.340767)"/>
<use data-text="&#x2022;" xlink:href="#font_1_2" transform="matrix(9.963098,0,0,-9.963098,197.04193,15.569128)"/>
<use data-text="x" xlink:href="#font_2_2" transform="matrix(9.963098,0,0,-9.963098,185.31735,23.295514)"/>
<use data-text="2" xlink:href="#font_3_2" transform="matrix(6.9741489,0,0,-6.9741489,191.01163,24.790589)"/>
<use data-text="=" xlink:href="#font_4_7" transform="matrix(9.963098,0,0,-9.963098,198.24799,23.295514)"/>
<use data-text="3" xlink:href="#font_4_4" transform="matrix(9.963098,0,0,-9.963098,208.74909,23.295514)"/>
<use data-text="m" xlink:href="#font_2_1" transform="matrix(9.963098,0,0,-9.963098,181.30014,8.340767)"/>
<use data-text="2" xlink:href="#font_3_2" transform="matrix(6.9741489,0,0,-6.9741489,190.04758,9.835842)"/>
<use data-text="=" xlink:href="#font_4_7" transform="matrix(9.963098,0,0,-9.963098,197.28493,8.340767)"/>
<use data-text="2" xlink:href="#font_4_3" transform="matrix(9.963098,0,0,-9.963098,207.78604,8.340767)"/>
<use data-text="0" xlink:href="#font_4_1" transform="matrix(9.963098,0,0,-9.963098,212.76758,8.340767)"/>
<use data-text="&#x2022;" xlink:href="#font_1_2" transform="matrix(9.963098,0,0,-9.963098,310.43458,15.569128)"/>
<use data-text="x" xlink:href="#font_2_2" transform="matrix(9.963098,0,0,-9.963098,298.71003,23.295514)"/>
<use data-text="3" xlink:href="#font_3_3" transform="matrix(6.9741489,0,0,-6.9741489,304.4043,24.790589)"/>
<use data-text="=" xlink:href="#font_4_7" transform="matrix(9.963098,0,0,-9.963098,311.64064,23.295514)"/>
<use data-text="7" xlink:href="#font_4_6" transform="matrix(9.963098,0,0,-9.963098,322.14176,23.295514)"/>
<use data-text="m" xlink:href="#font_2_1" transform="matrix(9.963098,0,0,-9.963098,294.6928,8.340767)"/>
<use data-text="3" xlink:href="#font_3_3" transform="matrix(6.9741489,0,0,-6.9741489,303.44026,9.835842)"/>
<use data-text="=" xlink:href="#font_4_7" transform="matrix(9.963098,0,0,-9.963098,310.6776,8.340767)"/>
<use data-text="1" xlink:href="#font_4_2" transform="matrix(9.963098,0,0,-9.963098,321.1787,8.340767)"/>
<use data-text="0" xlink:href="#font_4_1" transform="matrix(9.963098,0,0,-9.963098,326.16026,8.340767)"/>
</svg>
