<svg xmlns="http://www.w3.org/2000/svg" xmlns:xlink="http://www.w3.org/1999/xlink" version="1.1" width="197" height="239" viewBox="0 0 197 239">
<defs>
<clipPath id="clip_1">
<path transform="matrix(1.00005,0,0,-1.00002,11.628578,228.07831)" d="M0 0H164.97916V206.22396H0Z"/>
</clipPath>
<clipPath id="clip_2">
<path transform="matrix(1.00005,0,0,-1.00002,11.628578,228.07831)" d="M0 0H164.97916V206.22396H0Z"/>
</clipPath>
<path id="font_3_1" d="M.375 .6136017C.3809967 .63760378 .38398744 .6476135 .40299989 .65060427 .4119873 .6516113 .44400025 .6516113 .46398927 .6516113 .5349884 .6516113 .6459961 .6516113 .6459961 .5525818 .6459961 .51856997 .6299896 .44955445 .59098818 .41055299 .5649872 .38453675 .5119934 .35253907 .42199708 .35253907H.30999757L.375 .6136017M.5189972 .33953858C.6199951 .3615265 .7389984 .43154908 .7389984 .5325775 .7389984 .61860659 .6489868 .6826172 .5179901 .6826172H.23298645C.21299744 .6826172 .20399475 .6826172 .20399475 .6626129 .20399475 .6516113 .21299744 .6516113 .23199463 .6516113 .23399353 .6516113 .25299073 .6516113 .269989 .6496124 .28799439 .6476135 .29699708 .64660647 .29699708 .63360598 .29699708 .62960818 .29599 .6266022 .29299928 .6145935L.15899658 .07752991C.14898682 .038528444 .14698792 .030532837 .067993167 .030532837 .049987794 .030532837 .040985109 .030532837 .040985109 .010528564 .040985109-.00047302247 .052993776-.00047302247 .054992677-.00047302247 .08299255-.00047302247 .15299988 .002532959 .18099976 .002532959 .20899964 .002532959 .27999879-.00047302247 .30799867-.00047302247 .31599427-.00047302247 .32798768-.00047302247 .32798768 .01953125 .32798768 .030532837 .31900025 .030532837 .2999878 .030532837 .2630005 .030532837 .23498535 .030532837 .23498535 .048538209 .23498535 .054534913 .23699951 .059524537 .23799134 .0655365L.3039856 .3305359H.4229889C.5139923 .3305359 .5319977 .27453614 .5319977 .23953247 .5319977 .22453308 .5239868 .19352722 .5179901 .17053223 .5109863 .14253235 .5019989 .105529788 .5019989 .08552551 .5019989-.022460938 .621994-.022460938 .6349945-.022460938 .7200012-.022460938 .7549896 .07853699 .7549896 .0925293 .7549896 .104537967 .74398806 .104537967 .7429962 .104537967 .73399356 .104537967 .7319946 .09753418 .7299957 .090530399 .7049866 .016525269 .6619873-.00047302247 .6389923-.00047302247 .60598757-.00047302247 .598999 .021530152 .598999 .060531618 .598999 .091537479 .6049957 .14253235 .60899356 .17453003 .61099246 .1885376 .61299136 .20753479 .61299136 .2215271 .61299136 .2985382 .54599 .3295288 .5189972 .33953858Z"/>
<path id="font_4_1" d="M.69898989 .22743225C.71499636 .22743225 .7369995 .22743225 .7369995 .25042726 .7369995 .2734375 .71499636 .2734375 .69898989 .2734375H.12599182C.10998535 .2734375 .08799744 .2734375 .08799744 .25042726 .08799744 .22743225 .10998535 .22743225 .12599182 .22743225H.69898989Z"/>
<path id="font_5_2" d="M.28199769 .20405579C.2979889 .21907044 .33999635 .2520752 .35598756 .26608277 .41799928 .32312013 .47698976 .3781433 .47698976 .46917726 .47698976 .588089 .3769989 .66503909 .2519989 .66503909 .13198853 .66503909 .052993776 .57411196 .052993776 .48516847 .052993776 .4361725 .09199524 .4291687 .10598755 .4291687 .1269989 .4291687 .1579895 .4441681 .1579895 .48217774 .1579895 .5341797 .10798645 .5341797 .09599304 .5341797 .125 .6070709 .19198609 .6320343 .24099732 .6320343 .33399964 .6320343 .38198854 .55314639 .38198854 .46917726 .38198854 .36514283 .30899049 .28910829 .19099427 .16804505L.06498718 .037994386C.052993776 .026992798 .052993776 .024993897 .052993776 0H.44799806L.47698976 .17904663H.44599916C.44299317 .1590271 .43499757 .10900879 .4229889 .08999634 .4169922 .08198547 .34098817 .08198547 .32499696 .08198547H.14698792L.28199769 .20405579Z"/>
<path id="font_5_1" d="M.31399537 .63708499C.31399537 .664032 .31199647 .66503909 .2849884 .66503909 .24398804 .6251831 .19099427 .6013489 .09599304 .6013489V.5683594C.12298584 .5683594 .1769867 .5683594 .23498535 .5953522V.08203125C.23498535 .04499817 .23199463 .032989503 .13699341 .032989503H.101989749V0C.14299011 .0029907227 .22898865 .0029907227 .27398683 .0029907227 .31900025 .0029907227 .4059906 .0029907227 .44699098 0V.032989503H.4119873C.31698609 .032989503 .31399537 .04499817 .31399537 .08203125V.63708499Z"/>
<path id="font_5_3" d="M.25299073 .33370973C.33198548 .33370973 .38198854 .27557374 .38198854 .17037964 .38198854 .045440675 .31098939 .008514404 .2579956 .008514404 .20298767 .008514404 .12799073 .0284729 .09298706 .08137512 .1289978 .08137512 .1539917 .10437012 .1539917 .13737488 .1539917 .16937256 .1309967 .19238281 .09899902 .19238281 .07199097 .19238281 .04399109 .17536927 .04399109 .13537598 .04399109 .04045105 .1459961-.021484375 .2599945-.021484375 .3929901-.021484375 .48599244 .070388797 .48599244 .17037964 .48599244 .25352479 .41999818 .32969667 .31799317 .3517456 .39698792 .37982179 .45599366 .4479828 .45599366 .52804568 .45599366 .6080475 .3659973 .66503909 .2619934 .66503909 .15499878 .66503909 .07398987 .6070404 .07398987 .53105166 .07398987 .49404908 .09899902 .4780426 .125 .4780426 .1559906 .4780426 .17599488 .5000458 .17599488 .52905276 .17599488 .56604006 .14399719 .5800476 .12199402 .5810547 .1639862 .6360321 .24099732 .6390381 .25898744 .6390381 .2849884 .6390381 .36099244 .6310272 .36099244 .52804568 .36099244 .45799256 .33198548 .41589356 .31799317 .39985658 .28799439 .36878968 .2649994 .36679078 .20399475 .3627777 .18499756 .36177064 .1769867 .36076356 .1769867 .3477478 .1769867 .33370973 .18598938 .33370973 .20298767 .33370973H.25299073Z"/>
<path id="font_5_4" d="M.3939972 .6468048C.3939972 .6667938 .3939972 .6748047 .37298585 .6748047 .3600006 .6748047 .35899354 .6737976 .34899903 .65979006L.02999878 .197052V.1640625H.31199647V.08100891C.31199647 .04399109 .30899049 .032989503 .23199463 .032989503H.20899964V0C.2939911 .0029907227 .29599 .0029907227 .35299684 .0029907227 .4099884 .0029907227 .4119873 .0029907227 .49699403 0V.032989503H.47399903C.39698792 .032989503 .3939972 .04399109 .3939972 .08100891V.1640625H.5V.197052H.3939972V.6468048M.31900025 .5658417V.197052H.06498718L.31900025 .5658417Z"/>
<path id="font_3_4" d="M.33399964 .30233766C.33999635 .32835389 .36299134 .42037965 .43299867 .42037965 .43798829 .42037965 .46199037 .42037965 .48298646 .40734864 .45498658 .402359 .43499757 .37734986 .43499757 .35334779 .43499757 .33735658 .44599916 .31835938 .47299195 .31835938 .49499513 .31835938 .5269928 .3363495 .5269928 .37635804 .5269928 .42837525 .46798707 .4423828 .43399049 .4423828 .37599183 .4423828 .34098817 .38935853 .32899476 .36634828 .3039856 .43237306 .25 .4423828 .22099304 .4423828 .116989139 .4423828 .05999756 .3133545 .05999756 .28834535 .05999756 .27833558 .069992069 .27833558 .07199097 .27833558 .07998657 .27833558 .08299255 .28033448 .084991458 .28933717 .11898804 .39535523 .18499756 .42037965 .21899414 .42037965 .23799134 .42037965 .272995 .4113617 .272995 .35334779 .272995 .32235719 .2559967 .25532533 .21899414 .11528015 .20298767 .053268434 .16799927 .011245728 .12399292 .011245728 .117996219 .011245728 .09498596 .011245728 .07398987 .024276734 .09899902 .029266358 .12098694 .05027771 .12098694 .07827759 .12098694 .105270389 .09899902 .11328125 .083999637 .11328125 .053985597 .11328125 .0289917 .08728027 .0289917 .055267335 .0289917 .009246826 .07899475-.0107421879 .12298584-.0107421879 .18899536-.0107421879 .22499085 .059280397 .22799683 .0652771 .23999024 .028274537 .27598573-.0107421879 .33599855-.0107421879 .43899537-.0107421879 .49598695 .118270877 .49598695 .14328003 .49598695 .1532898 .4869995 .1532898 .48399354 .1532898 .47499085 .1532898 .47299195 .14929199 .47099305 .14228821 .43798829 .03527832 .36999513 .011245728 .33799745 .011245728 .29899598 .011245728 .2829895 .043273927 .2829895 .07727051 .2829895 .09927368 .2889862 .121276859 .2999878 .16529846L.33399964 .30233766Z"/>
<path id="font_3_5" d="M.48599244 .38136292C.48999024 .39537049 .48999024 .39736939 .48999024 .40437318 .48999024 .42237855 .47599793 .43138124 .46099855 .43138124 .45098878 .43138124 .43499757 .42536927 .42599488 .41036988 .42399598 .405365 .41600038 .37435914 .4119873 .35635377 .40499879 .33035279 .397995 .30334474 .3919983 .27633668L.34700013 .09628296C.34298707 .08126831 .2999878 .011245728 .23399353 .011245728 .18299866 .011245728 .17199707 .055267335 .17199707 .0922699 .17199707 .1382904 .18899536 .20030213 .22299195 .28833009 .23899842 .3293457 .24299622 .3403473 .24299622 .36035157 .24299622 .405365 .21099854 .4423828 .16099549 .4423828 .06599426 .4423828 .0289917 .29733277 .0289917 .28833009 .0289917 .27833558 .038986207 .27833558 .040985109 .27833558 .050994874 .27833558 .051986696 .28033448 .056991579 .29634095 .083999637 .3903656 .12399292 .42037965 .1579895 .42037965 .1659851 .42037965 .18299866 .42037965 .18299866 .3883667 .18299866 .36335755 .17298889 .3373413 .1659851 .31834413 .12599182 .21231079 .10798645 .1552887 .10798645 .10827637 .10798645 .019256592 .17098999-.0107421879 .22999573-.0107421879 .2689972-.0107421879 .30299378 .0062561037 .33099366 .03425598 .31799317-.017745972 .30599977-.06674194 .2659912-.11973572 .23999024-.15385437 .20199585-.18309021 .1559906-.18309021 .14199829-.18309021 .09700012-.18005371 .07998657-.14074707 .09599304-.14074707 .10899353-.14074707 .12298584-.1287384 .1329956-.11973572 .14299011-.10673523 .14299011-.08773804 .14299011-.056747438 .115997318-.052734376 .10598755-.052734376 .08299255-.052734376 .049987794-.068740848 .049987794-.11773682 .049987794-.16796875 .09399414-.20507813 .1559906-.20507813 .25898744-.20507813 .3619995-.11373901 .3899994-.00074768069L.48599244 .38136292Z"/>
<path id="font_3_2" d="M.36698915 .3996582H.45298768C.47299195 .3996582 .48298646 .3996582 .48298646 .41966249 .48298646 .43066407 .47299195 .43066407 .45599366 .43066407H.37298585L.3939972 .5449524C.397995 .5660095 .4119873 .6370239 .41799928 .6490326 .4269867 .66804507 .44400025 .68307498 .46499635 .68307498 .46899415 .68307498 .49499513 .68307498 .5139923 .66503909 .46998597 .661026 .45999146 .6260376 .45999146 .6110382 .45999146 .58802798 .47799684 .57603457 .49699403 .57603457 .522995 .57603457 .5519867 .5980377 .5519867 .6360321 .5519867 .6820679 .5059967 .7050781 .46499635 .7050781 .43099977 .7050781 .36799623 .68707278 .33799745 .58802798 .33198548 .56700137 .32899476 .5569763 .30499269 .43066407H.23599243C.21699524 .43066407 .20599365 .43066407 .20599365 .4116516 .20599365 .3996582 .21499634 .3996582 .23399353 .3996582H.2999878L.22499085 .0048828127C.20698548-.09207153 .18998719-.18309021 .13798523-.18309021 .13398743-.18309021 .10899353-.18309021 .08999634-.16506958 .13598633-.1620636 .14498902-.12606812 .14498902-.111068729 .14498902-.08807373 .1269989-.07606506 .10798645-.07606506 .08198547-.07606506 .052993776-.09806824 .052993776-.13606262 .052993776-.18109131 .09700012-.20507813 .13798523-.20507813 .19299317-.20507813 .23298645-.14607239 .25099183-.108062747 .2829895-.04508972 .30599977 .07583618 .30699159 .082839969L.36698915 .3996582Z"/>
<path id="font_6_1" d="M.33099366-.2400055C.33099366-.23701477 .33099366-.23500061 .31399537-.21800232 .18899536-.0920105 .15699768 .09700012 .15699768 .25 .15699768 .42399598 .19499207 .59799197 .31799317 .72299197 .33099366 .73498538 .33099366 .7369995 .33099366 .73999026 .33099366 .746994 .32699586 .75 .32099916 .75 .31098939 .75 .22099304 .6819916 .1619873 .5549927 .11099243 .44499208 .09899902 .33399964 .09899902 .25 .09899902 .17199707 .10998535 .050994874 .16499329-.06201172 .22499085-.18501282 .31098939-.25 .32099916-.25 .32699586-.25 .33099366-.24700928 .33099366-.2400055Z"/>
<path id="font_6_2" d="M.2889862 .25C.2889862 .32798768 .27799989 .44898988 .22299195 .56199648 .16299439 .68499758 .07699585 .75 .066986087 .75 .06098938 .75 .056991579 .74598696 .056991579 .73999026 .056991579 .7369995 .056991579 .73498538 .07598877 .71699526 .17399597 .6179962 .23098755 .45899964 .23098755 .25 .23098755 .07899475 .19400025-.09700012 .069992069-.2230072 .056991579-.23500061 .056991579-.23701477 .056991579-.2400055 .056991579-.2460022 .06098938-.25 .066986087-.25 .07699585-.25 .16699219-.18200684 .22599793-.055007936 .2769928 .054992677 .2889862 .16600037 .2889862 .25Z"/>
<path id="font_6_4" d="M.68699648 .32714845C.70199587 .32714845 .72099307 .32714845 .72099307 .34713746 .72099307 .36714173 .70199587 .36714173 .6879883 .36714173H.08898926C.07499695 .36714173 .055999757 .36714173 .055999757 .34713746 .055999757 .32714845 .07499695 .32714845 .08999634 .32714845H.68699648M.6879883 .13284302C.70199587 .13284302 .72099307 .13284302 .72099307 .15284729 .72099307 .17285156 .70199587 .17285156 .68699648 .17285156H.08999634C.07499695 .17285156 .055999757 .17285156 .055999757 .15284729 .055999757 .13284302 .07499695 .13284302 .08898926 .13284302H.6879883Z"/>
<path id="font_6_3" d="M.2939911 .16503906V.07800293C.2939911 .041992189 .2919922 .0309906 .21798706 .0309906H.19699097V0C.23799134 .0029907227 .2899933 .0029907227 .33198548 .0029907227 .37399293 .0029907227 .4269867 .0029907227 .46798707 0V.0309906H.44699098C.37298585 .0309906 .37098695 .041992189 .37098695 .07800293V.16503906H.47099305V.19602967H.37098695V.65075686C.37098695 .67074587 .37098695 .6767578 .35499574 .6767578 .34599305 .6767578 .34298707 .6767578 .33499146 .66474917L.027999878 .19602967V.16503906H.2939911M.2999878 .19602967H.055999757L.2999878 .5688019V.19602967Z"/>
<path id="font_7_1" d="M.6589966 .23046875C.6759949 .23046875 .69400027 .23046875 .69400027 .25045777 .69400027 .27046205 .6759949 .27046205 .6589966 .27046205H.117996219C.100997928 .27046205 .08299255 .27046205 .08299255 .25045777 .08299255 .23046875 .100997928 .23046875 .117996219 .23046875H.6589966Z"/>
<path id="font_8_1" d="M.5049896 .18203736H.47099305C.46798707 .16001892 .45799256 .100997928 .44499208 .09098816 .43699647 .084991458 .3600006 .084991458 .34599305 .084991458H.1619873C.2669983 .17803955 .3019867 .20603943 .3619995 .25306703 .43598939 .312088 .5049896 .374115 .5049896 .46914674 .5049896 .5900879 .39898683 .6640625 .2709961 .6640625 .14698792 .6640625 .06298828 .57710269 .06298828 .4851532 .06298828 .43414308 .10598755 .42915345 .115997318 .42915345 .13999939 .42915345 .16899109 .44615174 .16899109 .48214723 .16899109 .5001526 .1619873 .53515627 .10998535 .53515627 .14099121 .6060791 .20899964 .62805178 .2559967 .62805178 .35598756 .62805178 .4079895 .5501404 .4079895 .46914674 .4079895 .38212586 .34599305 .3130951 .31399537 .27708436L.07299805 .038986207C.06298828 .02999878 .06298828 .027999878 .06298828 0H.47499085L.5049896 .18203736Z"/>
<path id="font_3_3" d="M.47099305 .3773346C.47200013 .3833313 .47399903 .38833619 .47399903 .39535523 .47399903 .41236878 .46199037 .42237855 .44499208 .42237855 .43499757 .42237855 .4079895 .41537477 .4039917 .3793335 .38598634 .41636659 .35099793 .4423828 .31098939 .4423828 .19699097 .4423828 .07299805 .30226136 .07299805 .15812683 .07299805 .059020997 .13398743 0 .20599365 0 .2649994 0 .31199647 .04701233 .32199098 .058029176L.32299806 .057022096C.3019867-.031982423 .2899933-.07295227 .2899933-.07495117 .28599549-.08395386 .2519989-.18309021 .1459961-.18309021 .1269989-.18309021 .09399414-.18206787 .06599426-.17297364 .09599304-.16394043 .10699463-.13793946 .10699463-.12094116 .10699463-.10494995 .09599304-.0859375 .068984989-.0859375 .04699707-.0859375 .01499939-.10394287 .01499939-.14395142 .01499939-.18508911 .051986696-.20507813 .147995-.20507813 .272995-.20507813 .34498597-.12693787 .3600006-.06695557L.47099305 .3773346M.34098817 .12809754C.33499146 .10206604 .31199647 .077041629 .2899933 .058029176 .2689972 .040008546 .23799134 .021987915 .20899964 .021987915 .15899658 .021987915 .14399719 .074035648 .14399719 .11407471 .14399719 .16212464 .17298889 .28024293 .19999695 .33128358 .22698975 .38034059 .269989 .42037965 .31199647 .42037965 .37799073 .42037965 .3919983 .33929444 .3919983 .33428956 .3919983 .32928468 .3899994 .3232727 .3889923 .3192749L.34098817 .12809754Z"/>
</defs>
<g clip-path="url(#clip_1)">
<path transform="matrix(1.00005,0,0,-1.00002,11.628578,228.07831)" d="M24.15303 123.68904 25.48924 127.44945 27.5618 133.07386 29.63437 138.49 31.70692 143.69783 33.77948 148.69736 35.85204 153.48856 37.92459 158.07152 39.9971 162.44605 42.06966 166.61243 44.14223 170.57051 46.21478 174.32027 48.28734 177.86173 50.35991 181.19493 52.4324 184.31981 54.50497 187.23639 56.57753 189.94474 58.65007 192.44475 60.72264 194.73644 62.7952 196.81989 64.8677 198.69503 66.94026 200.36185 69.01282 201.8204 71.08539 203.07067 73.15794 204.11269 75.23051 204.94638 77.30301 205.57176 79.37556 205.98882 81.44814 206.19763 83.52069 206.19814 85.59338 205.99039 87.66574 205.57434 89.73842 204.94997 91.81075 204.1174 93.88342 203.0764 95.95612 201.82709 98.02849 200.36972 100.10118 198.70377 102.17355 196.82984 104.24617 194.74733 106.31886 192.45652 108.39122 189.95777 110.46393 187.2503 112.53629 184.33499 114.60896 181.21099 116.6816 177.8786 118.75397 174.33853 120.82666 170.58959 122.89903 166.63288 124.97171 162.4673 127.0444 158.09343 129.11672 153.5121 131.1894 148.72159 133.26177 143.72351 135.33446 138.51642 137.40715 133.10103 139.4795 127.47815 140.82619 123.6889 140.82608 123.77946 139.4795 119.99057 137.40715 114.36768 135.33446 108.9523 133.26177 103.74521 131.1894 98.74713 129.11672 93.95662 127.0444 89.37529 124.97171 85.00142 122.89903 80.83585 120.82666 76.87914 118.75397 73.13019 116.6816 69.59006 114.60896 66.25774 112.53629 63.13373 110.46393 60.21841 108.39122 57.51096 106.31886 55.0122 104.24617 52.72139 102.17355 50.63889 100.10118 48.76495 98.02849 47.099 95.95612 45.64163 93.88342 44.39232 91.81075 43.35132 89.73842 42.51875 87.66574 41.89438 85.59338 41.47833 83.52069 41.27058 81.44814 41.27109 79.37556 41.4799 77.30301 41.89696 75.23051 42.52234 73.15794 43.35603 71.08539 44.39806 69.01282 45.64832 66.94026 47.10687 64.8677 48.7737 62.7952 50.64883 60.72264 52.73228 58.65007 55.02397 56.57753 57.52399 54.50497 60.23233 52.4324 63.14891 50.35991 66.27379 48.28734 69.607 46.21478 73.14845 44.14223 76.89821 42.06966 80.8563 39.9971 85.02267 37.92459 89.3972 35.85204 93.98016 33.77948 98.77136 31.70692 103.77089 29.63437 108.97871 27.5618 114.39487 25.48924 120.01927 24.15283 123.78021Z" fill="#42c8f4" fill-opacity=".4"/>
</g>
<g clip-path="url(#clip_2)">
<path transform="matrix(1.00005,0,0,-1.00002,11.628578,228.07831)" stroke-width=".79701" stroke-linecap="butt" stroke-miterlimit="10" stroke-linejoin="miter" fill="none" stroke="#b30000" d="M-123.73436-824.8958-121.6618-804.27407-119.58925-783.86129-117.51668-763.6561-115.44418-743.6605-113.37161-723.872-111.29906-704.2918-109.2265-684.92056-107.15393-665.757-105.08144-646.80239-103.00887-628.0554-100.93631-609.5168-98.86375-591.18649-96.7912-573.0651-94.71864-555.1514-92.64607-537.44607-90.57358-519.949-88.50102-502.6602-86.42845-485.57978-84.3559-468.70765-82.28333-452.04383-80.21077-435.58833-78.13828-419.34114-76.0657-403.30226-73.99315-387.4717-71.9206-371.84947-69.84804-356.43489-67.77547-341.22929-65.70291-326.23136-63.63042-311.443-61.55785-296.8617-59.48529-282.48933-57.41272-268.32466-55.34016-254.3689-53.26761-240.62085-51.1951-227.08173-49.12254-213.7503-47.04997-200.6275-44.97743-187.71282-42.90488-175.00653-40.8323-162.50849-38.75981-150.21906-36.68724-138.13758-34.61469-126.2644-32.54213-114.59949-30.46956-103.14288-28.397-91.89458-26.3245-80.85492-24.25194-70.0232-22.17938-59.39978-20.10683-48.98462-18.03427-38.77776-15.9617-28.77922-13.88914-18.989-11.81664-9.40733-9.74408-.0336-7.67152 9.13173-5.59895 18.08882-3.5264 26.83762-1.45383 35.37814 .61864 43.71011 2.6912 51.83403 4.76376 59.74962 6.8363 67.45695 8.90887 74.956 10.98143 82.24677 13.05392 89.32898 15.1265 96.2032 17.19905 102.86905 19.27162 109.32663 21.34418 115.57591 23.41673 121.61693 25.48924 127.44945 27.5618 133.07386 29.63437 138.49 31.70692 143.69783 33.77948 148.69736 35.85204 153.48856 37.92459 158.07152 39.9971 162.44605 42.06966 166.61243 44.14223 170.57051 46.21478 174.32027 48.28734 177.86173 50.35991 181.19493 52.4324 184.31981 54.50497 187.23639 56.57753 189.94474 58.65007 192.44475 60.72264 194.73644 62.7952 196.81989 64.8677 198.69503 66.94026 200.36185 69.01282 201.8204 71.08539 203.07067 73.15794 204.11269 75.23051 204.94638 77.30301 205.57176 79.37556 205.98882 81.44814 206.19763 83.52069 206.19814 85.59338 205.99039 87.66574 205.57434 89.73842 204.94997 91.81075 204.1174 93.88342 203.0764 95.95612 201.82709 98.02849 200.36972 100.10118 198.70377 102.17355 196.82984 104.24617 194.74733 106.31886 192.45652 108.39122 189.95777 110.46393 187.2503 112.53629 184.33499 114.60896 181.21099 116.6816 177.8786 118.75397 174.33853 120.82666 170.58959 122.89903 166.63288 124.97171 162.4673 127.0444 158.09343 129.11672 153.5121 131.1894 148.72159 133.26177 143.72351 135.33446 138.51642 137.40715 133.10103 139.4795 127.47815 141.5522 121.64613 143.62451 115.60686 145.6972 109.35828 147.76988 102.90132 149.84226 96.23712 151.91495 89.36353 153.98732 82.28276 156.05995 74.99287 158.13263 67.4944 160.20499 59.78877 162.2777 51.87373 164.35005 43.75159 166.42275 35.41988 168.49536 26.88014 170.56774 18.13318 172.64043 9.1766 174.7128 .01308 176.78549-9.36012 178.85817-18.94159 180.93048-28.72969 183.00318-38.7278 185.07553-48.93262 187.14824-59.34741 189.22092-69.97046 191.29329-80.80011 193.36597-91.83977 195.43828-103.08568 197.51097-114.54196 199.58365-126.20651 201.65604-138.07755 203.72872-150.15877 205.80109-162.44637 207.87372-174.94373 209.9464-187.64983 212.01877-200.5623 214.09146-213.68486 216.16382-227.01377 218.23651-240.5535 220.30913-254.3003 222.38152-268.25416 224.4542-282.4182 226.52657-296.78868 228.59926-311.36936 230.67194-326.15898 232.74427-341.15376 234.81694-356.35939 236.88932-371.77079 238.962-387.39305 241.03469-403.22425 243.10706-419.2606 245.17974-435.50779 247.25206-451.9601 249.32474-468.62458 251.39742-485.4967 253.4698-502.5746 255.54248-519.86337 257.61488-537.3573 259.68748-555.0626 261.76017-572.9764 263.83253-591.0952 265.90525-609.42556 267.9776-627.9617 270.0503-646.7086 272.1229-665.6632 274.19529-684.82369 276.26799-704.19558 278.34037-723.7726 280.41304-743.5611 282.4857-763.5579 284.55805-783.7593 286.6307-804.1727 288.7031-824.7913"/>
<path transform="matrix(1.00005,0,0,-1.00002,11.628578,228.07831)" stroke-width=".79701" stroke-linecap="butt" stroke-miterlimit="10" stroke-linejoin="miter" fill="none" stroke="#00aeef" d="M-123.73436 1072.3646-121.6618 1051.7428-119.58925 1031.33-117.51668 1011.1248-115.44418 991.1293-113.37161 971.34078-111.29906 951.76058-109.2265 932.3893-107.15393 913.22579-105.08144 894.2711-103.00887 875.5242-100.93631 856.98556-98.86375 838.6552-96.7912 820.5338-94.71864 802.6201-92.64607 784.91476-90.57358 767.4177-88.50102 750.12899-86.42845 733.0485-84.3559 716.17636-82.28333 699.5126-80.21077 683.05709-78.13828 666.8099-76.0657 650.771-73.99315 634.9404-71.9206 619.3182-69.84804 603.9036-67.77547 588.698-65.70291 573.7001-63.63042 558.9117-61.55785 544.3304-59.48529 529.95809-57.41272 515.7934-55.34016 501.83763-53.26761 488.08958-51.1951 474.55046-49.12254 461.21903-47.04997 448.09626-44.97743 435.18156-42.90488 422.47529-40.8323 409.97724-38.75981 397.6878-36.68724 385.60633-34.61469 373.73316-32.54213 362.0682-30.46956 350.61164-28.397 339.3633-26.3245 328.32365-24.25194 317.49195-22.17938 306.86854-20.10683 296.45335-18.03427 286.2465-15.9617 276.24797-13.88914 266.45774-11.81664 256.87608-9.74408 247.50234-7.67152 238.33699-5.59895 229.3799-3.5264 220.6311-1.45383 212.09058 .61864 203.7586 2.6912 195.63469 4.76376 187.7191 6.8363 180.01175 8.90887 172.51273 10.98143 165.22196 13.05392 158.13974 15.1265 151.26552 17.19905 144.59967 19.27162 138.14209 21.34418 131.8928 23.41673 125.85179 25.48924 120.01927 27.5618 114.39487 29.63437 108.97871 31.70692 103.77089 33.77948 98.77136 35.85204 93.98016 37.92459 89.3972 39.9971 85.02267 42.06966 80.8563 44.14223 76.89821 46.21478 73.14845 48.28734 69.607 50.35991 66.27379 52.4324 63.14891 54.50497 60.23233 56.57753 57.52399 58.65007 55.02397 60.72264 52.73228 62.7952 50.64883 64.8677 48.7737 66.94026 47.10687 69.01282 45.64832 71.08539 44.39806 73.15794 43.35603 75.23051 42.52234 77.30301 41.89696 79.37556 41.4799 81.44814 41.27109 83.52069 41.27058 85.59338 41.47833 87.66574 41.89438 89.73842 42.51875 91.81075 43.35132 93.88342 44.39232 95.95612 45.64163 98.02849 47.099 100.10118 48.76495 102.17355 50.63889 104.24617 52.72139 106.31886 55.0122 108.39122 57.51096 110.46393 60.21841 112.53629 63.13373 114.60896 66.25774 116.6816 69.59006 118.75397 73.13019 120.82666 76.87914 122.89903 80.83585 124.97171 85.00142 127.0444 89.37529 129.11672 93.95662 131.1894 98.74713 133.26177 103.74521 135.33446 108.9523 137.40715 114.36768 139.4795 119.99057 141.5522 125.82259 143.62451 131.86186 145.6972 138.11045 147.76988 144.5674 149.84226 151.2316 151.91495 158.1052 153.98732 165.18596 156.05995 172.47585 158.13263 179.97432 160.20499 187.67995 162.2777 195.59499 164.35005 203.71714 166.42275 212.04885 168.49536 220.58858 170.56774 229.33554 172.64043 238.29212 174.7128 247.45565 176.78549 256.82887 178.85817 266.4103 180.93048 276.19844 183.00318 286.19654 185.07553 296.40135 187.14824 306.81617 189.22092 317.4392 191.29329 328.26884 193.36597 339.3085 195.43828 350.5544 197.51097 362.0107 199.58365 373.67527 201.65604 385.5463 203.72872 397.6275 205.80109 409.9151 207.87372 422.41246 209.9464 435.11857 212.01877 448.03105 214.09146 461.1536 216.16382 474.4825 218.23651 488.02223 220.30913 501.76905 222.38152 515.7229 224.4542 529.8869 226.52657 544.2574 228.59926 558.8381 230.67194 573.6277 232.74427 588.6225 234.81694 603.8281 236.88932 619.2395 238.962 634.86178 241.03469 650.69296 243.10706 666.7293 245.17974 682.9765 247.25206 699.42886 249.32474 716.09329 251.39742 732.9654 253.4698 750.04336 255.54248 767.3321 257.61488 784.826 259.68748 802.5314 261.76017 820.44509 263.83253 838.5639 265.90525 856.8943 267.9776 875.43038 270.0503 894.1773 272.1229 913.13198 274.19529 932.29238 276.26799 951.6643 278.34037 971.24136 280.41304 991.02987 282.4857 1011.0267 284.55805 1031.228 286.6307 1051.6415 288.7031 1072.2601"/>
<use data-text="R" xlink:href="#font_3_1" transform="matrix(9.963098,0,0,-9.962799,110.92454,100.82176)"/>
</g>
<use data-text="&#x2212;" xlink:href="#font_4_1" transform="matrix(7.970498,0,0,-7.9702599,6.2183077,197.6147)"/>
<use data-text="2" xlink:href="#font_5_2" transform="matrix(7.970498,0,0,-7.9702599,12.804634,197.6147)"/>
<use data-text="&#x2212;" xlink:href="#font_4_1" transform="matrix(7.970498,0,0,-7.9702599,47.464368,197.6147)"/>
<use data-text="1" xlink:href="#font_5_1" transform="matrix(7.970498,0,0,-7.9702599,54.050695,197.6147)"/>
<use data-text="1" xlink:href="#font_5_1" transform="matrix(7.970498,0,0,-7.9702599,133.25165,197.6147)"/>
<use data-text="2" xlink:href="#font_5_2" transform="matrix(7.970498,0,0,-7.9702599,174.49872,197.6147)"/>
<use data-text="&#x2212;" xlink:href="#font_4_1" transform="matrix(7.970498,0,0,-7.9702599,77.65488,230.23136)"/>
<use data-text="1" xlink:href="#font_5_1" transform="matrix(7.970498,0,0,-7.9702599,84.2412,230.23136)"/>
<use data-text="1" xlink:href="#font_5_1" transform="matrix(7.970498,0,0,-7.9702599,84.2422,148.1557)"/>
<use data-text="2" xlink:href="#font_5_2" transform="matrix(7.970498,0,0,-7.9702599,84.2422,106.90988)"/>
<use data-text="3" xlink:href="#font_5_3" transform="matrix(7.970498,0,0,-7.9702599,84.2422,65.66406)"/>
<use data-text="4" xlink:href="#font_5_4" transform="matrix(7.970498,0,0,-7.9702599,84.2422,24.418229)"/>
<use data-text="x" xlink:href="#font_3_4" transform="matrix(9.963098,0,0,-9.962799,190.13349,188.80353)"/>
<use data-text="y" xlink:href="#font_3_5" transform="matrix(9.963098,0,0,-9.962799,91.52057,6.2068636)"/>
<path transform="matrix(1.00005,0,0,-1.00002,11.628578,228.07831)" d="M73.7137 170.73589H161.47962V201.89933H73.7137Z" fill="#ffffff"/>
<path transform="matrix(1.00005,0,0,-1.00002,11.628578,228.07831)" stroke-width=".3985" stroke-linecap="butt" stroke-miterlimit="10" stroke-linejoin="miter" fill="none" stroke="#000000" d="M73.7137 170.73589H161.47962V201.89933H73.7137Z"/>
<path transform="matrix(1.00005,0,0,-1.00002,88.73343,34.962434)" stroke-width=".79701" stroke-linecap="butt" stroke-miterlimit="10" stroke-linejoin="miter" fill="none" stroke="#b30000" d="M0 0H8.50412 17.00826"/>
<use data-text="f" xlink:href="#font_3_2" transform="matrix(9.963098,0,0,-9.962799,108.1334,38.270494)"/>
<use data-text="(" xlink:href="#font_6_1" transform="matrix(9.963098,0,0,-9.962799,114.083698,38.270494)"/>
<use data-text="x" xlink:href="#font_3_4" transform="matrix(9.963098,0,0,-9.962799,117.958889,38.270494)"/>
<use data-text=")" xlink:href="#font_6_2" transform="matrix(9.963098,0,0,-9.962799,123.653179,38.270494)"/>
<use data-text="=" xlink:href="#font_6_4" transform="matrix(9.963098,0,0,-9.962799,130.27864,38.270494)"/>
<use data-text="4" xlink:href="#font_6_3" transform="matrix(9.963098,0,0,-9.962799,140.7897,38.270494)"/>
<use data-text="&#x2212;" xlink:href="#font_7_1" transform="matrix(9.963098,0,0,-9.962799,148.00739,38.270494)"/>
<use data-text="x" xlink:href="#font_3_4" transform="matrix(9.963098,0,0,-9.962799,157.9699,38.270494)"/>
<use data-text="2" xlink:href="#font_8_1" transform="matrix(6.9741489,0,0,-6.97394,163.66417,34.655427)"/>
<path transform="matrix(1.00005,0,0,-1.00002,88.73343,48.551713)" stroke-width=".79701" stroke-linecap="butt" stroke-miterlimit="10" stroke-linejoin="miter" fill="none" stroke="#00aeef" d="M0 0H8.50412 17.00826"/>
<use data-text="g" xlink:href="#font_3_3" transform="matrix(9.963098,0,0,-9.962799,108.1334,51.85977)"/>
<use data-text="(" xlink:href="#font_6_1" transform="matrix(9.963098,0,0,-9.962799,113.24366,51.85977)"/>
<use data-text="x" xlink:href="#font_3_4" transform="matrix(9.963098,0,0,-9.962799,117.11785,51.85977)"/>
<use data-text=")" xlink:href="#font_6_2" transform="matrix(9.963098,0,0,-9.962799,122.81213,51.85977)"/>
<use data-text="=" xlink:href="#font_6_4" transform="matrix(9.963098,0,0,-9.962799,129.43759,51.85977)"/>
<use data-text="x" xlink:href="#font_3_4" transform="matrix(9.963098,0,0,-9.962799,139.971,51.85977)"/>
<use data-text="2" xlink:href="#font_8_1" transform="matrix(6.9741489,0,0,-6.97394,145.66527,48.244707)"/>
<path transform="matrix(1.00005,0,0,-1.00002,11.628578,228.07831)" stroke-width=".09962" stroke-linecap="butt" stroke-miterlimit="10" stroke-linejoin="miter" fill="none" stroke="#e0e0e0" d="M20.62239 0V206.22396M61.86717 0V206.22396M103.11197 0V206.22396M144.35677 0V206.22396"/>
<path transform="matrix(1.00005,0,0,-1.00002,11.628578,228.07831)" stroke-width=".19925" stroke-linecap="butt" stroke-miterlimit="10" stroke-linejoin="miter" fill="none" stroke="#c0c0c0" d="M0 0V206.22396M41.24478 0V206.22396M123.73436 0V206.22396M164.97916 0V206.22396"/>
<path transform="matrix(1.00005,0,0,-1.00002,11.628578,228.07831)" stroke-width=".09962" stroke-linecap="butt" stroke-miterlimit="10" stroke-linejoin="miter" fill="none" stroke="#e0e0e0" d="M0 20.62239H164.97916M0 61.86717H164.97916M0 103.11197H164.97916M0 144.35677H164.97916M0 185.60155H164.97916"/>
<path transform="matrix(1.00005,0,0,-1.00002,11.628578,228.07831)" stroke-width=".19925" stroke-linecap="butt" stroke-miterlimit="10" stroke-linejoin="miter" fill="none" stroke="#c0c0c0" d="M0 0H164.97916M0 82.48958H164.97916M0 123.73436H164.97916M0 164.97916H164.97916M0 206.22396H164.97916"/>
<path transform="matrix(1.00005,0,0,-1.00002,11.628578,228.07831)" stroke-width=".19925" stroke-linecap="butt" stroke-miterlimit="10" stroke-linejoin="miter" fill="none" stroke="#929292" d="M20.62239 39.82742V42.66212M61.86717 39.82742V42.66212M103.11197 39.82742V42.66212M144.35677 39.82742V42.66212"/>
<path transform="matrix(1.00005,0,0,-1.00002,11.628578,228.07831)" stroke-width=".19925" stroke-linecap="butt" stroke-miterlimit="10" stroke-linejoin="miter" fill="none" stroke="#929292" d="M0 39.11891V43.37065M41.24478 39.11891V43.37065M123.73436 39.11891V43.37065M164.97916 39.11891V43.37065"/>
<path transform="matrix(1.00005,0,0,-1.00002,11.628578,228.07831)" stroke-width=".19925" stroke-linecap="butt" stroke-miterlimit="10" stroke-linejoin="miter" fill="none" stroke="#929292" d="M81.07222 20.62239H83.90692M81.07222 61.86717H83.90692M81.07222 103.11197H83.90692M81.07222 144.35677H83.90692M81.07222 185.60155H83.90692"/>
<path transform="matrix(1.00005,0,0,-1.00002,11.628578,228.07831)" stroke-width=".19925" stroke-linecap="butt" stroke-miterlimit="10" stroke-linejoin="miter" fill="none" stroke="#929292" d="M80.3637 0H84.61543M80.3637 82.48958H84.61543M80.3637 123.73436H84.61543M80.3637 164.97916H84.61543M80.3637 206.22396H84.61543"/>
<path transform="matrix(1.00005,0,0,-1.00002,11.628578,228.07831)" stroke-width=".3985" stroke-linecap="butt" stroke-miterlimit="10" stroke-linejoin="miter" fill="none" stroke="#000000" d="M-6.37622 41.24478H171.3554"/>
<path transform="matrix(-1.00005,-0,0,1.00002,5.2520396,186.8327)" d="M3.58653 0C2.52383 .19925 .797 .797-.3985 1.49438V-1.49438C.797-.797 2.52383-.19925 3.58653 0"/>
<path transform="matrix(1.00005,0,0,-1.00002,182.99253,186.8327)" d="M3.58653 0C2.52383 .19925 .797 .797-.3985 1.49438V-1.49438C.797-.797 2.52383-.19925 3.58653 0"/>
<path transform="matrix(1.00005,0,0,-1.00002,11.628578,228.07831)" stroke-width=".3985" stroke-linecap="butt" stroke-miterlimit="10" stroke-linejoin="miter" fill="none" stroke="#000000" d="M82.48958-6.37622V212.60018"/>
<path transform="matrix(0,1.00002,1.00005,0,94.12228,234.45465)" d="M3.58653 0C2.52383 .19925 .797 .797-.3985 1.49438V-1.49438C.797-.797 2.52383-.19925 3.58653 0"/>
<path transform="matrix(0,-1.00002,-1.00005,-0,94.12228,15.473877)" d="M3.58653 0C2.52383 .19925 .797 .797-.3985 1.49438V-1.49438C.797-.797 2.52383-.19925 3.58653 0"/>
</svg>
