<svg xmlns="http://www.w3.org/2000/svg" xmlns:xlink="http://www.w3.org/1999/xlink" version="1.1" width="269" height="184" viewBox="0 0 269 184">
<defs>
<path id="font_1_1" d="M.69898989 .22743225C.71499636 .22743225 .7369995 .22743225 .7369995 .25042726 .7369995 .2734375 .71499636 .2734375 .69898989 .2734375H.12599182C.10998535 .2734375 .08799744 .2734375 .08799744 .25042726 .08799744 .22743225 .10998535 .22743225 .12599182 .22743225H.69898989Z"/>
<path id="font_2_4" d="M.3939972 .6468048C.3939972 .6667938 .3939972 .6748047 .37298585 .6748047 .3600006 .6748047 .35899354 .6737976 .34899903 .65979006L.02999878 .197052V.1640625H.31199647V.08100891C.31199647 .04399109 .30899049 .032989503 .23199463 .032989503H.20899964V0C.2939911 .0029907227 .29599 .0029907227 .35299684 .0029907227 .4099884 .0029907227 .4119873 .0029907227 .49699403 0V.032989503H.47399903C.39698792 .032989503 .3939972 .04399109 .3939972 .08100891V.1640625H.5V.197052H.3939972V.6468048M.31900025 .5658417V.197052H.06498718L.31900025 .5658417Z"/>
<path id="font_2_3" d="M.25299073 .33370973C.33198548 .33370973 .38198854 .27557374 .38198854 .17037964 .38198854 .045440675 .31098939 .008514404 .2579956 .008514404 .20298767 .008514404 .12799073 .0284729 .09298706 .08137512 .1289978 .08137512 .1539917 .10437012 .1539917 .13737488 .1539917 .16937256 .1309967 .19238281 .09899902 .19238281 .07199097 .19238281 .04399109 .17536927 .04399109 .13537598 .04399109 .04045105 .1459961-.021484375 .2599945-.021484375 .3929901-.021484375 .48599244 .070388797 .48599244 .17037964 .48599244 .25352479 .41999818 .32969667 .31799317 .3517456 .39698792 .37982179 .45599366 .4479828 .45599366 .52804568 .45599366 .6080475 .3659973 .66503909 .2619934 .66503909 .15499878 .66503909 .07398987 .6070404 .07398987 .53105166 .07398987 .49404908 .09899902 .4780426 .125 .4780426 .1559906 .4780426 .17599488 .5000458 .17599488 .52905276 .17599488 .56604006 .14399719 .5800476 .12199402 .5810547 .1639862 .6360321 .24099732 .6390381 .25898744 .6390381 .2849884 .6390381 .36099244 .6310272 .36099244 .52804568 .36099244 .45799256 .33198548 .41589356 .31799317 .39985658 .28799439 .36878968 .2649994 .36679078 .20399475 .3627777 .18499756 .36177064 .1769867 .36076356 .1769867 .3477478 .1769867 .33370973 .18598938 .33370973 .20298767 .33370973H.25299073Z"/>
<path id="font_2_2" d="M.28199769 .20405579C.2979889 .21907044 .33999635 .2520752 .35598756 .26608277 .41799928 .32312013 .47698976 .3781433 .47698976 .46917726 .47698976 .588089 .3769989 .66503909 .2519989 .66503909 .13198853 .66503909 .052993776 .57411196 .052993776 .48516847 .052993776 .4361725 .09199524 .4291687 .10598755 .4291687 .1269989 .4291687 .1579895 .4441681 .1579895 .48217774 .1579895 .5341797 .10798645 .5341797 .09599304 .5341797 .125 .6070709 .19198609 .6320343 .24099732 .6320343 .33399964 .6320343 .38198854 .55314639 .38198854 .46917726 .38198854 .36514283 .30899049 .28910829 .19099427 .16804505L.06498718 .037994386C.052993776 .026992798 .052993776 .024993897 .052993776 0H.44799806L.47698976 .17904663H.44599916C.44299317 .1590271 .43499757 .10900879 .4229889 .08999634 .4169922 .08198547 .34098817 .08198547 .32499696 .08198547H.14698792L.28199769 .20405579Z"/>
<path id="font_2_1" d="M.31399537 .63708499C.31399537 .664032 .31199647 .66503909 .2849884 .66503909 .24398804 .6251831 .19099427 .6013489 .09599304 .6013489V.5683594C.12298584 .5683594 .1769867 .5683594 .23498535 .5953522V.08203125C.23498535 .04499817 .23199463 .032989503 .13699341 .032989503H.101989749V0C.14299011 .0029907227 .22898865 .0029907227 .27398683 .0029907227 .31900025 .0029907227 .4059906 .0029907227 .44699098 0V.032989503H.4119873C.31698609 .032989503 .31399537 .04499817 .31399537 .08203125V.63708499Z"/>
<clipPath id="clip_3">
<path transform="matrix(1.00009,0,0,-1.00002,11.6282429,141.20355)" d="M0 0H239.10279V119.55139H0Z"/>
</clipPath>
<path id="font_4_3" d="M.20599365 .3996582H.2999878C.31999208 .3996582 .32998658 .3996582 .32998658 .41966249 .32998658 .43066407 .31999208 .43066407 .3019867 .43066407H.21398926C.25 .5724945 .25498963 .59246829 .25498963 .59846499 .25498963 .61546328 .24299622 .62545779 .22599793 .62545779 .22299195 .62545779 .19499207 .62446597 .18598938 .58947756L.14698792 .43066407H.052993776C.032989503 .43066407 .022994996 .43066407 .022994996 .4116516 .022994996 .3996582 .0309906 .3996582 .050994874 .3996582H.13899231C.066986087 .11608887 .06298828 .099121097 .06298828 .08114624 .06298828 .02722168 .100997928-.0107421879 .15499878-.0107421879 .25698854-.0107421879 .31399537 .13505554 .31399537 .14305115 .31399537 .1530304 .30599977 .1530304 .3019867 .1530304 .29299928 .1530304 .2919922 .15003968 .2869873 .13905335 .24398804 .035217287 .19099427 .011245728 .15699768 .011245728 .13598633 .011245728 .12599182 .024230957 .12599182 .057174684 .12599182 .08114624 .12799073 .088134769 .13198853 .10510254L.20599365 .3996582Z"/>
<path id="font_4_4" d="M.48599244 .38136292C.48999024 .39537049 .48999024 .39736939 .48999024 .40437318 .48999024 .42237855 .47599793 .43138124 .46099855 .43138124 .45098878 .43138124 .43499757 .42536927 .42599488 .41036988 .42399598 .405365 .41600038 .37435914 .4119873 .35635377 .40499879 .33035279 .397995 .30334474 .3919983 .27633668L.34700013 .09628296C.34298707 .08126831 .2999878 .011245728 .23399353 .011245728 .18299866 .011245728 .17199707 .055267335 .17199707 .0922699 .17199707 .1382904 .18899536 .20030213 .22299195 .28833009 .23899842 .3293457 .24299622 .3403473 .24299622 .36035157 .24299622 .405365 .21099854 .4423828 .16099549 .4423828 .06599426 .4423828 .0289917 .29733277 .0289917 .28833009 .0289917 .27833558 .038986207 .27833558 .040985109 .27833558 .050994874 .27833558 .051986696 .28033448 .056991579 .29634095 .083999637 .3903656 .12399292 .42037965 .1579895 .42037965 .1659851 .42037965 .18299866 .42037965 .18299866 .3883667 .18299866 .36335755 .17298889 .3373413 .1659851 .31834413 .12599182 .21231079 .10798645 .1552887 .10798645 .10827637 .10798645 .019256592 .17098999-.0107421879 .22999573-.0107421879 .2689972-.0107421879 .30299378 .0062561037 .33099366 .03425598 .31799317-.017745972 .30599977-.06674194 .2659912-.11973572 .23999024-.15385437 .20199585-.18309021 .1559906-.18309021 .14199829-.18309021 .09700012-.18005371 .07998657-.14074707 .09599304-.14074707 .10899353-.14074707 .12298584-.1287384 .1329956-.11973572 .14299011-.10673523 .14299011-.08773804 .14299011-.056747438 .115997318-.052734376 .10598755-.052734376 .08299255-.052734376 .049987794-.068740848 .049987794-.11773682 .049987794-.16796875 .09399414-.20507813 .1559906-.20507813 .25898744-.20507813 .3619995-.11373901 .3899994-.00074768069L.48599244 .38136292Z"/>
<path id="font_4_2" d="M.47099305 .3773346C.47200013 .3833313 .47399903 .38833619 .47399903 .39535523 .47399903 .41236878 .46199037 .42237855 .44499208 .42237855 .43499757 .42237855 .4079895 .41537477 .4039917 .3793335 .38598634 .41636659 .35099793 .4423828 .31098939 .4423828 .19699097 .4423828 .07299805 .30226136 .07299805 .15812683 .07299805 .059020997 .13398743 0 .20599365 0 .2649994 0 .31199647 .04701233 .32199098 .058029176L.32299806 .057022096C.3019867-.031982423 .2899933-.07295227 .2899933-.07495117 .28599549-.08395386 .2519989-.18309021 .1459961-.18309021 .1269989-.18309021 .09399414-.18206787 .06599426-.17297364 .09599304-.16394043 .10699463-.13793946 .10699463-.12094116 .10699463-.10494995 .09599304-.0859375 .068984989-.0859375 .04699707-.0859375 .01499939-.10394287 .01499939-.14395142 .01499939-.18508911 .051986696-.20507813 .147995-.20507813 .272995-.20507813 .34498597-.12693787 .3600006-.06695557L.47099305 .3773346M.34098817 .12809754C.33499146 .10206604 .31199647 .077041629 .2899933 .058029176 .2689972 .040008546 .23799134 .021987915 .20899964 .021987915 .15899658 .021987915 .14399719 .074035648 .14399719 .11407471 .14399719 .16212464 .17298889 .28024293 .19999695 .33128358 .22698975 .38034059 .269989 .42037965 .31199647 .42037965 .37799073 .42037965 .3919983 .33929444 .3919983 .33428956 .3919983 .32928468 .3899994 .3232727 .3889923 .3192749L.34098817 .12809754Z"/>
<path id="font_5_1" d="M.33099366-.2400055C.33099366-.23701477 .33099366-.23500061 .31399537-.21800232 .18899536-.0920105 .15699768 .09700012 .15699768 .25 .15699768 .42399598 .19499207 .59799197 .31799317 .72299197 .33099366 .73498538 .33099366 .7369995 .33099366 .73999026 .33099366 .746994 .32699586 .75 .32099916 .75 .31098939 .75 .22099304 .6819916 .1619873 .5549927 .11099243 .44499208 .09899902 .33399964 .09899902 .25 .09899902 .17199707 .10998535 .050994874 .16499329-.06201172 .22499085-.18501282 .31098939-.25 .32099916-.25 .32699586-.25 .33099366-.24700928 .33099366-.2400055Z"/>
<path id="font_5_2" d="M.2889862 .25C.2889862 .32798768 .27799989 .44898988 .22299195 .56199648 .16299439 .68499758 .07699585 .75 .066986087 .75 .06098938 .75 .056991579 .74598696 .056991579 .73999026 .056991579 .7369995 .056991579 .73498538 .07598877 .71699526 .17399597 .6179962 .23098755 .45899964 .23098755 .25 .23098755 .07899475 .19400025-.09700012 .069992069-.2230072 .056991579-.23500061 .056991579-.23701477 .056991579-.2400055 .056991579-.2460022 .06098938-.25 .066986087-.25 .07699585-.25 .16699219-.18200684 .22599793-.055007936 .2769928 .054992677 .2889862 .16600037 .2889862 .25Z"/>
<path id="font_4_1" d="M.644989 .69506838C.644989 .69807437 .6429901 .7050781 .6339874 .7050781 .6289978 .7050781 .6279907 .70407107 .6159973 .6900635L.56799319 .6330414C.5419922 .68006899 .48999024 .7050781 .4249878 .7050781 .2979889 .7050781 .17799378 .58999636 .17799378 .4689026 .17799378 .38783265 .23098755 .34179688 .28199769 .32678224L.3889923 .2987671C.42599488 .2897644 .48098756 .27474977 .48098756 .19267273 .48098756 .1026001 .39898683 .008529663 .30099488 .008529663 .23699951 .008529663 .12599182 .030548096 .12599182 .15464783 .12599182 .17866516 .1309967 .2026825 .13198853 .20869446 .1329956 .21269226 .13398743 .21369934 .13398743 .21569824 .13398743 .22570801 .1269989 .22669983 .12199402 .22669983 .116989139 .22669983 .114990238 .22570801 .11199951 .22270203 .10798645 .21870423 .051986696-.009475708 .051986696-.012466431 .051986696-.018463135 .056991579-.022460938 .06298828-.022460938 .067993167-.022460938 .068984989-.021469117 .08099365-.007461548L.12998963 .049560548C.17298889-.008468628 .24099732-.022460938 .29899598-.022460938 .43499757-.022460938 .5529938 .11061096 .5529938 .2347107 .5529938 .30377198 .5189972 .33779908 .5039978 .35180665 .48098756 .37483216 .46598817 .37882997 .3769989 .40185548 .35499574 .40785218 .31900025 .41786195 .30999757 .41986085 .2829895 .42886354 .24899292 .457901 .24899292 .51094058 .24899292 .59199526 .32899476 .677063 .42399598 .677063 .5069885 .677063 .56799319 .6340332 .56799319 .52194216 .56799319 .48991395 .56399539 .47190858 .56399539 .4658966 .56399539 .4649048 .56399539 .45588685 .57598879 .45588685 .58599856 .45588685 .58699038 .45889283 .59098818 .47590638L.644989 .69506838Z"/>
<path id="font_6_1" d="M.5159912 .31925965C.5159912 .42918397 .5029907 .50813296 .45700074 .5780945 .42599488 .62405398 .3639984 .6640625 .28399659 .6640625 .051986696 .6640625 .051986696 .39120484 .051986696 .31925965 .051986696 .2472992 .051986696-.01953125 .28399659-.01953125 .5159912-.01953125 .5159912 .2472992 .5159912 .31925965M.28399659 .008468628C.23799134 .008468628 .1769867 .035446168 .15699768 .117385867 .14299011 .17634583 .14299011 .25830079 .14299011 .33224488 .14299011 .40519715 .14299011 .4811554 .1579895 .53611758 .1789856 .6150665 .24299622 .63604739 .28399659 .63604739 .33799745 .63604739 .3899994 .6030731 .4079895 .545105 .42399598 .4911499 .4249878 .41918946 .4249878 .33224488 .4249878 .25830079 .4249878 .18434143 .4119873 .12138367 .3919983 .030441285 .32398988 .008468628 .28399659 .008468628Z"/>
<path id="font_6_2" d="M.5049896 .18203736H.47099305C.46798707 .16001892 .45799256 .100997928 .44499208 .09098816 .43699647 .084991458 .3600006 .084991458 .34599305 .084991458H.1619873C.2669983 .17803955 .3019867 .20603943 .3619995 .25306703 .43598939 .312088 .5049896 .374115 .5049896 .46914674 .5049896 .5900879 .39898683 .6640625 .2709961 .6640625 .14698792 .6640625 .06298828 .57710269 .06298828 .4851532 .06298828 .43414308 .10598755 .42915345 .115997318 .42915345 .13999939 .42915345 .16899109 .44615174 .16899109 .48214723 .16899109 .5001526 .1619873 .53515627 .10998535 .53515627 .14099121 .6060791 .20899964 .62805178 .2559967 .62805178 .35598756 .62805178 .4079895 .5501404 .4079895 .46914674 .4079895 .38212586 .34599305 .3130951 .31399537 .27708436L.07299805 .038986207C.06298828 .02999878 .06298828 .027999878 .06298828 0H.47499085L.5049896 .18203736Z"/>
<path id="font_6_3" d="M.5289917 .1640625V.20005799H.41799928V.64582827C.41799928 .66682437 .41799928 .6738281 .3959961 .6738281 .38398744 .6738281 .37998963 .6738281 .36999513 .65982058L.038986207 .20005799V.1640625H.33299256V.08201599C.33299256 .04800415 .33299256 .035995485 .2519989 .035995485H.22499085V0C.2749939 .0019989014 .33898927 .0039978029 .375 .0039978029 .4119873 .0039978029 .47599793 .0019989014 .526001 0V.035995485H.49899293C.41799928 .035995485 .41799928 .04800415 .41799928 .08201599V.1640625H.5289917M.33999635 .5658722V.20005799H.07598877L.33999635 .5658722Z"/>
</defs>
<path transform="matrix(1.00009,0,0,-1.00002,11.6282429,141.20355)" stroke-width=".09962" stroke-linecap="butt" stroke-miterlimit="10" stroke-linejoin="miter" fill="none" stroke="#e0e0e0" d="M19.92523 0V119.55139M59.7757 0V119.55139M99.62616 0V119.55139M139.47663 0V119.55139M179.32709 0V119.55139M219.17755 0V119.55139"/>
<path transform="matrix(1.00009,0,0,-1.00002,11.6282429,141.20355)" stroke-width=".19925" stroke-linecap="butt" stroke-miterlimit="10" stroke-linejoin="miter" fill="none" stroke="#c0c0c0" d="M0 0V119.55139M39.85046 0V119.55139M79.70093 0V119.55139M119.55139 0V119.55139M199.25232 0V119.55139M239.10279 0V119.55139"/>
<path transform="matrix(1.00009,0,0,-1.00002,11.6282429,141.20355)" stroke-width=".09962" stroke-linecap="butt" stroke-miterlimit="10" stroke-linejoin="miter" fill="none" stroke="#e0e0e0" d="M0 19.92523H239.10279M0 59.7757H239.10279M0 99.62616H239.10279"/>
<path transform="matrix(1.00009,0,0,-1.00002,11.6282429,141.20355)" stroke-width=".19925" stroke-linecap="butt" stroke-miterlimit="10" stroke-linejoin="miter" fill="none" stroke="#c0c0c0" d="M0 0H239.10279M0 39.85046H239.10279M0 119.55139H239.10279"/>
<path transform="matrix(1.00009,0,0,-1.00002,11.6282429,141.20355)" stroke-width=".19925" stroke-linecap="butt" stroke-miterlimit="10" stroke-linejoin="miter" fill="none" stroke="#929292" d="M19.92523 78.28346V81.1184M59.7757 78.28346V81.1184M99.62616 78.28346V81.1184M139.47663 78.28346V81.1184M179.32709 78.28346V81.1184M219.17755 78.28346V81.1184"/>
<path transform="matrix(1.00009,0,0,-1.00002,11.6282429,141.20355)" stroke-width=".19925" stroke-linecap="butt" stroke-miterlimit="10" stroke-linejoin="miter" fill="none" stroke="#929292" d="M0 77.57492V81.8269M39.85046 77.57492V81.8269M79.70093 77.57492V81.8269M119.55139 77.57492V81.8269M199.25232 77.57492V81.8269M239.10279 77.57492V81.8269"/>
<path transform="matrix(1.00009,0,0,-1.00002,11.6282429,141.20355)" stroke-width=".19925" stroke-linecap="butt" stroke-miterlimit="10" stroke-linejoin="miter" fill="none" stroke="#929292" d="M157.98439 19.92523H160.81932M157.98439 59.7757H160.81932M157.98439 99.62616H160.81932"/>
<path transform="matrix(1.00009,0,0,-1.00002,11.6282429,141.20355)" stroke-width=".19925" stroke-linecap="butt" stroke-miterlimit="10" stroke-linejoin="miter" fill="none" stroke="#929292" d="M157.27587 0H161.52783M157.27587 39.85046H161.52783M157.27587 119.55139H161.52783"/>
<path transform="matrix(1.00009,0,0,-1.00002,11.6282429,141.20355)" stroke-width=".3985" stroke-linecap="butt" stroke-miterlimit="10" stroke-linejoin="miter" fill="none" stroke="#000000" d="M-6.37622 79.70093H245.47902"/>
<path transform="matrix(-1.00009,-0,0,1.00002,5.251448,61.50103)" d="M3.58653 0C2.52383 .19925 .797 .797-.3985 1.49438V-1.49438C.797-.797 2.52383-.19925 3.58653 0"/>
<path transform="matrix(1.00009,0,0,-1.00002,257.12937,61.50103)" d="M3.58653 0C2.52383 .19925 .797 .797-.3985 1.49438V-1.49438C.797-.797 2.52383-.19925 3.58653 0"/>
<path transform="matrix(1.00009,0,0,-1.00002,11.6282429,141.20355)" stroke-width=".3985" stroke-linecap="butt" stroke-miterlimit="10" stroke-linejoin="miter" fill="none" stroke="#000000" d="M159.40186-6.37622V125.92761"/>
<path transform="matrix(0,1.00002,1.00009,0,171.04444,147.5799)" d="M3.58653 0C2.52383 .19925 .797 .797-.3985 1.49438V-1.49438C.797-.797 2.52383-.19925 3.58653 0"/>
<path transform="matrix(0,-1.00002,-1.00009,-0,171.04444,15.273415)" d="M3.58653 0C2.52383 .19925 .797 .797-.3985 1.49438V-1.49438C.797-.797 2.52383-.19925 3.58653 0"/>
<use data-text="&#x2212;" xlink:href="#font_1_1" transform="matrix(7.970817,0,0,-7.9702599,6.217758,72.28317)"/>
<use data-text="4" xlink:href="#font_2_4" transform="matrix(7.970817,0,0,-7.9702599,12.805351,72.28317)"/>
<use data-text="&#x2212;" xlink:href="#font_1_1" transform="matrix(7.970817,0,0,-7.9702599,46.071344,72.28317)"/>
<use data-text="3" xlink:href="#font_2_3" transform="matrix(7.970817,0,0,-7.9702599,52.658937,72.28317)"/>
<use data-text="&#x2212;" xlink:href="#font_1_1" transform="matrix(7.970817,0,0,-7.9702599,85.92593,72.28317)"/>
<use data-text="2" xlink:href="#font_2_2" transform="matrix(7.970817,0,0,-7.9702599,92.51352,72.28317)"/>
<use data-text="&#x2212;" xlink:href="#font_1_1" transform="matrix(7.970817,0,0,-7.9702599,125.77952,72.28317)"/>
<use data-text="1" xlink:href="#font_2_1" transform="matrix(7.970817,0,0,-7.9702599,132.36711,72.28317)"/>
<use data-text="1" xlink:href="#font_2_1" transform="matrix(7.970817,0,0,-7.9702599,208.78098,72.28317)"/>
<use data-text="2" xlink:href="#font_2_2" transform="matrix(7.970817,0,0,-7.9702599,248.63556,72.28317)"/>
<use data-text="&#x2212;" xlink:href="#font_1_1" transform="matrix(7.970817,0,0,-7.9702599,154.57611,143.3566)"/>
<use data-text="2" xlink:href="#font_2_2" transform="matrix(7.970817,0,0,-7.9702599,161.1637,143.3566)"/>
<use data-text="&#x2212;" xlink:href="#font_1_1" transform="matrix(7.970817,0,0,-7.9702599,154.57611,103.5058)"/>
<use data-text="1" xlink:href="#font_2_1" transform="matrix(7.970817,0,0,-7.9702599,161.1637,103.5058)"/>
<use data-text="1" xlink:href="#font_2_1" transform="matrix(7.970817,0,0,-7.9702599,161.1637,24.218209)"/>
<g clip-path="url(#clip_3)">
<path transform="matrix(1.00009,0,0,-1.00002,11.6282429,141.20355)" stroke-width=".99628" stroke-linecap="butt" stroke-miterlimit="10" stroke-linejoin="miter" fill="none" stroke="#e41a1c" d="M2.41512-252.4208C2.41512-252.4208 4.16008-118.47015 4.83026-88.06952 5.50043-57.6689 6.5752-44.70772 7.24538-33.31418 7.91556-21.92065 8.99034-12.02486 9.66052-5.95285 10.33069 .11916 11.40547 6.65771 12.07565 10.44878 12.74583 14.23985 13.8206 18.77443 14.49078 21.3706 15.16095 23.96677 16.23573 27.27031 16.90591 29.16017 17.5761 31.05003 18.65088 33.5544 19.32106 34.99149 19.99123 36.42857 21.066 38.38855 21.73618 39.5177 22.40636 40.64687 23.48114 42.21982 24.15132 43.12976 24.82149 44.03969 25.89627 45.32745 26.56645 46.07588 27.23663 46.82431 28.31142 47.8979 28.9816 48.5239 29.65176 49.1499 30.72653 50.05704 31.39671 50.58777 32.0669 51.1185 33.14168 51.89388 33.81186 52.34915 34.48203 52.80441 35.55681 53.4747 36.22699 53.86903 36.89717 54.26338 37.97194 54.84683 38.64212 55.19128 39.31229 55.53575 40.38707 56.04852 41.05725 56.35173 41.72743 56.65495 42.80222 57.10808 43.4724 57.37668 44.14256 57.64528 45.21735 58.0485 45.88753 58.28767 46.55771 58.52687 47.63248 58.88658 48.30266 59.10062 48.97282 59.31465 50.0476 59.63799 50.71779 59.83028 51.38797 60.02257 52.46275 60.31311 53.13293 60.48662 53.8031 60.66011 54.87788 60.9237 55.54807 61.08078 56.21825 61.23787 57.29301 61.4764 57.9632 61.61876 58.63336 61.76112 59.70815 61.97745 60.37833 62.10695 61.04851 62.23643 62.12329 62.43398 62.79347 62.55206 63.46364 62.67015 64.5384 62.85039 65.20859 62.95813 65.87877 63.06589 66.95355 63.23035 67.62373 63.32877 68.29391 63.42717 69.36868 63.57748 70.03886 63.6675 70.70905 63.7575 71.78381 63.8952 72.454 63.97752 73.12418 64.05983 74.19894 64.18561 74.86913 64.26085 75.5393 64.3361 76.61409 64.45105 77.28427 64.51988 77.95445 64.58871 79.02922 64.69408 79.6994 64.757 80.36958 64.81992 81.44435 64.916 82.11453 64.97339 82.78471 65.03078 83.85948 65.11838 84.52966 65.17062 85.19984 65.22289 86.27463 65.30247 86.94481 65.34998 87.61499 65.39746 88.68974 65.47006 89.35992 65.51297 90.0301 65.55586 91.10489 65.62056 91.77507 65.65921 92.44525 65.69785 93.52002 65.75679 94.1902 65.7915 94.86038 65.82623 95.93515 65.87862 96.60533 65.90945 97.27551 65.9403 98.35028 65.98676 99.02046 66.01389 99.69064 66.04102 100.76543 66.08151 101.43561 66.10513 102.10579 66.12874 103.18054 66.1638 103.85072 66.18404 104.5209 66.20427 105.59569 66.23392 106.26587 66.25099 106.93605 66.26807 108.01082 66.2933 108.681 66.30717 109.35118 66.32104 110.42596 66.34041 111.09615 66.35101 111.76633 66.36163 112.84108 66.37611 113.51126 66.38368 114.18144 66.39125 115.25623 66.40114 115.9264 66.40561 116.59659 66.41008 117.67136 66.41454 118.34154 66.41595 119.01172 66.41739 120.08649 66.41739 120.75667 66.41595 121.42685 66.41454 122.50162 66.41008 123.1718 66.40561 123.84198 66.40114 124.91676 66.39125 125.58694 66.38368 126.25713 66.37611 127.33188 66.36163 128.00206 66.35101 128.67224 66.34041 129.74703 66.32104 130.4172 66.30717 131.08739 66.2933 132.16216 66.26796 132.83234 66.25099 133.50252 66.23402 134.5773 66.205 135.24748 66.18483 135.91767 66.16466 136.99242 66.12926 137.6626 66.10553 138.33278 66.08182 139.40756 66.04108 140.07775 66.01389 140.74793 65.9867 141.8227 65.94026 142.49288 65.90945 143.16306 65.87866 144.23783 65.8265 144.908 65.7919 145.57819 65.75731 146.65296 65.6987 147.32314 65.66002 147.99332 65.62132 149.0681 65.55586 149.73828 65.51297 150.40847 65.47006 151.48322 65.39821 152.1534 65.35077 152.82358 65.30334 153.89836 65.2234 154.56855 65.17104 155.23873 65.11868 156.31349 65.03082 156.98368 64.97339 157.65386 64.91595 158.72864 64.81992 159.39882 64.757 160.069 64.69408 161.14376 64.58871 161.81394 64.51988 162.48412 64.45105 163.5589 64.3361 164.22908 64.26085 164.89926 64.18561 165.97403 64.05978 166.64421 63.97752 167.31439 63.89525 168.38916 63.75783 169.05934 63.66788 169.72953 63.57794 170.8043 63.4275 171.47447 63.32915 172.14466 63.2308 173.21944 63.06665 173.88962 62.95894 174.5598 62.85123 175.63457 62.67091 176.30474 62.55287 176.97492 62.43481 178.0497 62.23767 178.71988 62.10812 179.39006 61.97859 180.46483 61.76154 181.135 61.61917 181.80518 61.4768 182.87996 61.23889 183.55014 61.08199 184.22032 60.92506 185.2951 60.66171 185.96527 60.4882 186.63545 60.31471 187.71024 60.02376 188.38042 59.83147 189.0506 59.63918 190.12538 59.31624 190.79555 59.10222 191.46573 58.88818 192.5405 58.52798 193.21068 58.28886 193.88086 58.04973 194.95565 57.64711 195.62581 57.37868 196.29599 57.11024 197.37078 56.65721 198.04096 56.35413 198.71114 56.05103 199.7859 55.53853 200.45607 55.19408 201.12625 54.84961 202.20104 54.26572 202.87122 53.87144 203.5414 53.47716 204.61617 52.80743 205.28633 52.35234 205.95652 51.89723 207.0313 51.12192 207.70148 50.59135 208.37166 50.06079 209.44644 49.15402 210.11661 48.52829 210.78679 47.90257 211.86157 46.82973 212.53176 46.08148 213.20194 45.33322 214.27672 44.04497 214.94689 43.13531 215.61707 42.22566 216.69184 40.65388 217.36202 39.52527 218.0322 38.39667 219.10698 36.43741 219.77715 35.00104 220.44733 33.56468 221.52211 31.06172 222.19229 29.17291 222.86248 27.28409 223.93724 23.98218 224.6074 21.38773 225.27759 18.79329 226.35237 14.26192 227.02256 10.47388 227.69274 6.68585 228.76752 .15219 229.43769-5.91379 230.10787-11.9798 231.18264-21.8677 231.85282-33.24564 232.523-44.62358 233.59778-57.59308 234.26796-87.91808 234.93813-118.24307 236.68309-251.80712 236.68309-251.80712"/>
<path transform="matrix(1.00009,0,0,-1.00002,11.6282429,141.20355)" stroke-width=".99628" stroke-linecap="butt" stroke-dasharray="2.98883,2.98883" stroke-miterlimit="10" stroke-linejoin="miter" fill="none" stroke="#377eb8" d="M0 66.41756C0 66.41756 1.74493 66.41756 2.41512 66.41756 3.0853 66.41756 4.16008 66.41756 4.83026 66.41756 5.50043 66.41756 6.5752 66.41756 7.24538 66.41756 7.91556 66.41756 8.99034 66.41756 9.66052 66.41756 10.33069 66.41756 11.40547 66.41756 12.07565 66.41756 12.74583 66.41756 13.8206 66.41756 14.49078 66.41756 15.16095 66.41756 16.23573 66.41756 16.90591 66.41756 17.5761 66.41756 18.65088 66.41756 19.32106 66.41756 19.99123 66.41756 21.066 66.41756 21.73618 66.41756 22.40636 66.41756 23.48114 66.41756 24.15132 66.41756 24.82149 66.41756 25.89627 66.41756 26.56645 66.41756 27.23663 66.41756 28.31142 66.41756 28.9816 66.41756 29.65176 66.41756 30.72653 66.41756 31.39671 66.41756 32.0669 66.41756 33.14168 66.41756 33.81186 66.41756 34.48203 66.41756 35.55681 66.41756 36.22699 66.41756 36.89717 66.41756 37.97194 66.41756 38.64212 66.41756 39.31229 66.41756 40.38707 66.41756 41.05725 66.41756 41.72743 66.41756 42.80222 66.41756 43.4724 66.41756 44.14256 66.41756 45.21735 66.41756 45.88753 66.41756 46.55771 66.41756 47.63248 66.41756 48.30266 66.41756 48.97282 66.41756 50.0476 66.41756 50.71779 66.41756 51.38797 66.41756 52.46275 66.41756 53.13293 66.41756 53.8031 66.41756 54.87788 66.41756 55.54807 66.41756 56.21825 66.41756 57.29301 66.41756 57.9632 66.41756 58.63336 66.41756 59.70815 66.41756 60.37833 66.41756 61.04851 66.41756 62.12329 66.41756 62.79347 66.41756 63.46364 66.41756 64.5384 66.41756 65.20859 66.41756 65.87877 66.41756 66.95355 66.41756 67.62373 66.41756 68.29391 66.41756 69.36868 66.41756 70.03886 66.41756 70.70905 66.41756 71.78381 66.41756 72.454 66.41756 73.12418 66.41756 74.19894 66.41756 74.86913 66.41756 75.5393 66.41756 76.61409 66.41756 77.28427 66.41756 77.95445 66.41756 79.02922 66.41756 79.6994 66.41756 80.36958 66.41756 81.44435 66.41756 82.11453 66.41756 82.78471 66.41756 83.85948 66.41756 84.52966 66.41756 85.19984 66.41756 86.27463 66.41756 86.94481 66.41756 87.61499 66.41756 88.68974 66.41756 89.35992 66.41756 90.0301 66.41756 91.10489 66.41756 91.77507 66.41756 92.44525 66.41756 93.52002 66.41756 94.1902 66.41756 94.86038 66.41756 95.93515 66.41756 96.60533 66.41756 97.27551 66.41756 98.35028 66.41756 99.02046 66.41756 99.69064 66.41756 100.76543 66.41756 101.43561 66.41756 102.10579 66.41756 103.18054 66.41756 103.85072 66.41756 104.5209 66.41756 105.59569 66.41756 106.26587 66.41756 106.93605 66.41756 108.01082 66.41756 108.681 66.41756 109.35118 66.41756 110.42596 66.41756 111.09615 66.41756 111.76633 66.41756 112.84108 66.41756 113.51126 66.41756 114.18144 66.41756 115.25623 66.41756 115.9264 66.41756 116.59659 66.41756 117.67136 66.41756 118.34154 66.41756 119.01172 66.41756 120.08649 66.41756 120.75667 66.41756 121.42685 66.41756 122.50162 66.41756 123.1718 66.41756 123.84198 66.41756 124.91676 66.41756 125.58694 66.41756 126.25713 66.41756 127.33188 66.41756 128.00206 66.41756 128.67224 66.41756 129.74703 66.41756 130.4172 66.41756 131.08739 66.41756 132.16216 66.41756 132.83234 66.41756 133.50252 66.41756 134.5773 66.41756 135.24748 66.41756 135.91767 66.41756 136.99242 66.41756 137.6626 66.41756 138.33278 66.41756 139.40756 66.41756 140.07775 66.41756 140.74793 66.41756 141.8227 66.41756 142.49288 66.41756 143.16306 66.41756 144.23783 66.41756 144.908 66.41756 145.57819 66.41756 146.65296 66.41756 147.32314 66.41756 147.99332 66.41756 149.0681 66.41756 149.73828 66.41756 150.40847 66.41756 151.48322 66.41756 152.1534 66.41756 152.82358 66.41756 153.89836 66.41756 154.56855 66.41756 155.23873 66.41756 156.31349 66.41756 156.98368 66.41756 157.65386 66.41756 158.72864 66.41756 159.39882 66.41756 160.069 66.41756 161.14376 66.41756 161.81394 66.41756 162.48412 66.41756 163.5589 66.41756 164.22908 66.41756 164.89926 66.41756 165.97403 66.41756 166.64421 66.41756 167.31439 66.41756 168.38916 66.41756 169.05934 66.41756 169.72953 66.41756 170.8043 66.41756 171.47447 66.41756 172.14466 66.41756 173.21944 66.41756 173.88962 66.41756 174.5598 66.41756 175.63457 66.41756 176.30474 66.41756 176.97492 66.41756 178.0497 66.41756 178.71988 66.41756 179.39006 66.41756 180.46483 66.41756 181.135 66.41756 181.80518 66.41756 182.87996 66.41756 183.55014 66.41756 184.22032 66.41756 185.2951 66.41756 185.96527 66.41756 186.63545 66.41756 187.71024 66.41756 188.38042 66.41756 189.0506 66.41756 190.12538 66.41756 190.79555 66.41756 191.46573 66.41756 192.5405 66.41756 193.21068 66.41756 193.88086 66.41756 194.95565 66.41756 195.62581 66.41756 196.29599 66.41756 197.37078 66.41756 198.04096 66.41756 198.71114 66.41756 199.7859 66.41756 200.45607 66.41756 201.12625 66.41756 202.20104 66.41756 202.87122 66.41756 203.5414 66.41756 204.61617 66.41756 205.28633 66.41756 205.95652 66.41756 207.0313 66.41756 207.70148 66.41756 208.37166 66.41756 209.44644 66.41756 210.11661 66.41756 210.78679 66.41756 211.86157 66.41756 212.53176 66.41756 213.20194 66.41756 214.27672 66.41756 214.94689 66.41756 215.61707 66.41756 216.69184 66.41756 217.36202 66.41756 218.0322 66.41756 219.10698 66.41756 219.77715 66.41756 220.44733 66.41756 221.52211 66.41756 222.19229 66.41756 222.86248 66.41756 223.93724 66.41756 224.6074 66.41756 225.27759 66.41756 226.35237 66.41756 227.02256 66.41756 227.69274 66.41756 228.76752 66.41756 229.43769 66.41756 230.10787 66.41756 231.18264 66.41756 231.85282 66.41756 232.523 66.41756 233.59778 66.41756 234.26796 66.41756 234.93813 66.41756 236.01291 66.41756 236.68309 66.41756 237.35327 66.41756 239.09824 66.41756 239.09824 66.41756"/>
<path transform="matrix(1.00009,0,0,-1.00002,11.6282429,141.20355)" stroke-width=".99628" stroke-linecap="butt" stroke-dasharray=".99628,1.99255" stroke-miterlimit="10" stroke-linejoin="miter" fill="none" stroke="#4daf4a" d="M0 39.85062C0 39.85062 1.74493 40.99695 2.41512 41.42314 3.0853 41.84935 4.16008 42.51625 4.83026 42.92247 5.50043 43.3287 6.5752 43.96402 7.24538 44.35095 7.91556 44.7379 8.99034 45.34296 9.66052 45.7113 10.33069 46.07965 11.40547 46.65533 12.07565 47.00572 12.74583 47.35611 13.8206 47.90364 14.49078 48.23679 15.16095 48.56992 16.23573 49.09027 16.90591 49.40675 17.5761 49.72325 18.65088 50.21738 19.32106 50.51787 19.99123 50.81836 21.066 51.28746 21.73618 51.57256 22.40636 51.85765 23.48114 52.3024 24.15132 52.57268 24.82149 52.84296 25.89627 53.26453 26.56645 53.5206 27.23663 53.77666 28.31142 54.17587 28.9816 54.4183 29.65176 54.66072 30.72653 55.03851 31.39671 55.26784 32.0669 55.49716 33.14168 55.85434 33.81186 56.0711 34.48203 56.28787 35.55681 56.62543 36.22699 56.83017 36.89717 57.03491 37.97194 57.3536 38.64212 57.54681 39.31229 57.74 40.38707 58.04054 41.05725 58.2227 41.72743 58.40486 42.80222 58.68814 43.4724 58.85976 44.14256 59.03137 45.21735 59.29811 45.88753 59.45963 46.55771 59.62115 47.63248 59.87204 48.30266 60.02391 48.97282 60.17578 50.0476 60.41158 50.71779 60.55424 51.38797 60.69691 52.46275 60.91833 53.13293 61.0522 53.8031 61.18607 54.87788 61.39366 55.54807 61.51917 56.21825 61.64465 57.29301 61.83917 57.9632 61.9567 58.63336 62.0742 59.70815 62.25626 60.37833 62.36613 61.04851 62.47601 62.12329 62.64612 62.79347 62.74873 63.46364 62.85133 64.5384 63.01009 65.20859 63.10579 65.87877 63.2015 66.95355 63.34947 67.62373 63.43864 68.29391 63.5278 69.36868 63.66551 70.03886 63.7484 70.70905 63.83127 71.78381 63.95915 72.454 64.03607 73.12418 64.11299 74.19894 64.23158 74.86913 64.30284 75.5393 64.3741 76.61409 64.48384 77.28427 64.5497 77.95445 64.61554 79.02922 64.71683 79.6994 64.77753 80.36958 64.83823 81.44435 64.93146 82.11453 64.98726 82.78471 65.04308 83.85948 65.12868 84.52966 65.17981 85.19984 65.23096 86.27463 65.30923 86.94481 65.35593 87.61499 65.40262 88.68974 65.47394 89.35992 65.51637 90.0301 65.55879 91.10489 65.62346 91.77507 65.6618 92.44525 65.70016 93.52002 65.7584 94.1902 65.79288 94.86038 65.82735 95.93515 65.87949 96.60533 65.91019 97.27551 65.9409 98.35028 65.98714 99.02046 66.01425 99.69064 66.04135 100.76543 66.08194 101.43561 66.10555 102.10579 66.12917 103.18054 66.16428 103.85072 66.18451 104.5209 66.20474 105.59569 66.23453 106.26587 66.2515 106.93605 66.26846 108.01082 66.29306 108.681 66.30682 109.35118 66.3206 110.42596 66.34015 111.09615 66.35078 111.76633 66.36143 112.84108 66.376 113.51126 66.38356 114.18144 66.39113 115.25623 66.40082 115.9264 66.40533 116.59659 66.40985 117.67136 66.4147 118.34154 66.4162 119.01172 66.41771 120.08649 66.4177 120.75667 66.4162 121.42685 66.41472 122.50162 66.40988 123.1718 66.40536 123.84198 66.40085 124.91676 66.39119 125.58694 66.38362 126.25713 66.37607 127.33188 66.3615 128.00206 66.35086 128.67224 66.34024 129.74703 66.3207 130.4172 66.30693 131.08739 66.29318 132.16216 66.26859 132.83234 66.25162 133.50252 66.23465 134.5773 66.20488 135.24748 66.18465 135.91767 66.16441 136.99242 66.12932 137.6626 66.1057 138.33278 66.08209 139.40756 66.04152 140.07775 66.01443 140.74793 65.98734 141.8227 65.9411 142.49288 65.9104 143.16306 65.87971 144.23783 65.82758 144.908 65.79312 145.57819 65.75867 146.65296 65.70042 147.32314 65.66206 147.99332 65.6237 149.0681 65.55908 149.73828 65.51666 150.40847 65.47423 151.48322 65.40294 152.1534 65.35625 152.82358 65.30956 153.89836 65.23131 154.56855 65.18016 155.23873 65.12903 156.31349 65.04346 156.98368 64.98764 157.65386 64.93184 158.72864 64.83861 159.39882 64.77791 160.069 64.7172 161.14376 64.61598 161.81394 64.55014 162.48412 64.48431 163.5589 64.37454 164.22908 64.30331 164.89926 64.23207 165.97403 64.11353 166.64421 64.03662 167.31439 63.95972 168.38916 63.83183 169.05934 63.74898 169.72953 63.6661 170.8043 63.52846 171.47447 63.43932 172.14466 63.35019 173.21944 63.20222 173.88962 63.1065 174.5598 63.01079 175.63457 62.85202 176.30474 62.7494 176.97492 62.6468 178.0497 62.47672 178.71988 62.36685 179.39006 62.25699 180.46483 62.07501 181.135 61.95752 181.80518 61.84004 182.87996 61.64552 183.55014 61.52005 184.22032 61.39456 185.2951 61.18692 185.96527 61.05307 186.63545 60.91922 187.71024 60.69788 188.38042 60.55524 189.0506 60.4126 190.12538 60.17676 190.79555 60.02492 191.46573 59.87306 192.5405 59.6222 193.21068 59.46071 193.88086 59.29921 194.95565 59.03255 195.62581 58.86096 196.29599 58.68938 197.37078 58.4061 198.04096 58.22395 198.71114 58.0418 199.7859 57.74121 200.45607 57.54803 201.12625 57.35487 202.20104 57.03633 202.87122 56.83162 203.5414 56.6269 204.61617 56.28937 205.28633 56.07262 205.95652 55.85587 207.0313 55.49872 207.70148 55.26942 208.37166 55.04015 209.44644 54.66237 210.11661 54.41997 210.78679 54.17758 211.86157 53.7784 212.53176 53.52234 213.20194 53.2663 214.27672 52.84479 214.94689 52.57451 215.61707 52.30424 216.69184 51.85945 217.36202 51.57437 218.0322 51.2893 219.10698 50.82039 219.77715 50.51994 220.44733 50.21948 221.52211 49.72536 222.19229 49.4089 222.86248 49.09244 223.93724 48.5722 224.6074 48.23909 225.27759 47.90599 226.35237 47.35844 227.02256 47.00807 227.69274 46.65768 228.76752 46.08208 229.43769 45.7138 230.10787 45.34552 231.18264 44.74054 231.85282 44.35364 232.523 43.96674 233.59778 43.33138 234.26796 42.9252 234.93813 42.51901 236.01291 41.8523 236.68309 41.42615 237.35327 40.99998 239.09824 39.85368 239.09824 39.85368"/>
<path transform="matrix(1.00009,0,0,-1.00002,11.6282429,141.20355)" stroke-width=".99628" stroke-linecap="butt" stroke-dasharray="2.98883,1.99255,.3985,1.99255" stroke-miterlimit="10" stroke-linejoin="miter" fill="none" stroke="#984ea3" d="M0 13.27956C0 13.27956 1.74493 17.0363 2.41512 18.38458 3.0853 19.73286 4.16008 21.779 4.83026 22.99712 5.50043 24.21524 6.5752 26.06375 7.24538 27.16396 7.91556 28.26414 8.99034 29.93315 9.66052 30.92657 10.33069 31.92001 11.40547 33.42699 12.07565 34.32397 12.74583 35.22096 13.8206 36.58171 14.49078 37.39153 15.16095 38.20134 16.23573 39.42953 16.90591 40.16063 17.5761 40.89172 18.65088 42.00064 19.32106 42.66074 19.99123 43.32085 21.066 44.32211 21.73618 44.91823 22.40636 45.51434 23.48114 46.41873 24.15132 46.95723 24.82149 47.49573 25.89627 48.31274 26.56645 48.79941 27.23663 49.28607 28.31142 50.02483 28.9816 50.46478 29.65176 50.90474 30.72653 51.57248 31.39671 51.97043 32.0669 52.3684 33.14168 52.97282 33.81186 53.33308 34.48203 53.69333 35.55681 54.24063 36.22699 54.56696 36.89717 54.89328 37.97194 55.38919 38.64212 55.68503 39.31229 55.98085 40.38707 56.43071 41.05725 56.69911 41.72743 56.96751 42.80222 57.37581 43.4724 57.61958 44.14256 57.86334 45.21735 58.23447 45.88753 58.45607 46.55771 58.67767 47.63248 59.01518 48.30266 59.21683 48.97282 59.41846 50.0476 59.72575 50.71779 59.90942 51.38797 60.0931 52.46275 60.37315 53.13293 60.54062 53.8031 60.70808 54.87788 60.96358 55.54807 61.1164 56.21825 61.26923 57.29301 61.50256 57.9632 61.64218 58.63336 61.78178 59.70815 61.99503 60.37833 62.12265 61.04851 62.25027 62.12329 62.44531 62.79347 62.56207 63.46364 62.67885 64.5384 62.85735 65.20859 62.96423 65.87877 63.07112 66.95355 63.23457 67.62373 63.33244 68.29391 63.43031 69.36868 63.58 70.03886 63.66965 70.70905 63.7593 71.78381 63.89645 72.454 63.97855 73.12418 64.06065 74.19894 64.18626 74.86913 64.26141 75.5393 64.33658 76.61409 64.45157 77.28427 64.52034 77.95445 64.58911 79.02922 64.69426 79.6994 64.75713 80.36958 64.81998 81.44435 64.91605 82.11453 64.9734 82.78471 65.03076 83.85948 65.11836 84.52966 65.1706 85.19984 65.22284 86.27463 65.30252 86.94481 65.34998 87.61499 65.39742 88.68974 65.46965 89.35992 65.5126 90.0301 65.55554 91.10489 65.62082 91.77507 65.65952 92.44525 65.6982 93.52002 65.75687 94.1902 65.79152 94.86038 65.82619 95.93515 65.87859 96.60533 65.90942 97.27551 65.94025 98.35028 65.98666 99.02046 66.01382 99.69064 66.04099 100.76543 66.08165 101.43561 66.10532 102.10579 66.12897 103.18054 66.1641 103.85072 66.18436 104.5209 66.20462 105.59569 66.2344 106.26587 66.25139 106.93605 66.26837 108.01082 66.29298 108.681 66.30675 109.35118 66.32053 110.42596 66.34007 111.09615 66.35071 111.76633 66.36136 112.84108 66.37593 113.51126 66.38348 114.18144 66.39105 115.25623 66.40074 115.9264 66.40526 116.59659 66.40977 117.67136 66.41463 118.34154 66.41612 119.01172 66.41763 120.08649 66.41762 120.75667 66.41612 121.42685 66.41464 122.50162 66.4098 123.1718 66.40529 123.84198 66.40077 124.91676 66.3911 125.58694 66.38353 126.25713 66.37598 127.33188 66.3614 128.00206 66.35077 128.67224 66.34015 129.74703 66.32062 130.4172 66.30684 131.08739 66.29308 132.16216 66.26848 132.83234 66.25151 133.50252 66.23454 134.5773 66.20474 135.24748 66.1845 135.91767 66.16425 136.99242 66.12912 137.6626 66.10545 138.33278 66.0818 139.40756 66.04117 140.07775 66.014 140.74793 65.98685 141.8227 65.94046 142.49288 65.90962 143.16306 65.8788 144.23783 65.82643 144.908 65.79176 145.57819 65.75711 146.65296 65.69847 147.32314 65.65979 147.99332 65.6211 149.0681 65.55585 149.73828 65.51292 150.40847 65.46999 151.48322 65.39774 152.1534 65.3503 152.82358 65.30287 153.89836 65.22322 154.56855 65.17097 155.23873 65.11874 156.31349 65.03117 156.98368 64.97383 157.65386 64.91649 158.72864 64.82043 159.39882 64.7576 160.069 64.69475 161.14376 64.58961 161.81394 64.52086 162.48412 64.45209 163.5589 64.33714 164.22908 64.262 164.89926 64.18684 165.97403 64.06126 166.64421 63.97919 167.31439 63.89711 168.38916 63.76 169.05934 63.67038 169.72953 63.58076 170.8043 63.43108 171.47447 63.33322 172.14466 63.23537 173.21944 63.07195 173.88962 62.9651 174.5598 62.85825 175.63457 62.67978 176.30474 62.56305 176.97492 62.44632 178.0497 62.25131 178.71988 62.12373 179.39006 61.99614 180.46483 61.78294 181.135 61.64337 181.80518 61.5038 182.87996 61.27055 183.55014 61.11775 184.22032 60.96495 185.2951 60.70952 185.96527 60.5421 186.63545 60.37468 187.71024 60.0947 188.38042 59.91107 189.0506 59.72745 190.12538 59.42023 190.79555 59.21863 191.46573 59.01704 192.5405 58.67961 193.21068 58.45807 193.88086 58.23654 194.95565 57.86559 195.62581 57.62187 196.29599 57.37817 197.37078 56.96992 198.04096 56.70158 198.71114 56.43323 199.7859 55.98354 200.45607 55.6878 201.12625 55.39206 202.20104 54.89624 202.87122 54.57 203.5414 54.24377 204.61617 53.69662 205.28633 53.33647 205.95652 52.97632 207.0313 52.37212 207.70148 51.97424 208.37166 51.57639 209.44644 50.90866 210.11661 50.46883 210.78679 50.02899 211.86157 49.29065 212.53176 48.80415 213.20194 48.31766 214.27672 47.5008 214.94689 46.96243 215.61707 46.42407 216.69184 45.51994 217.36202 44.92398 218.0322 44.32802 219.10698 43.327 219.77715 42.66707 220.44733 42.00713 221.52211 40.89851 222.19229 40.16762 222.86248 39.43672 223.93724 38.2088 224.6074 37.39923 225.27759 36.58966 226.35237 35.22948 227.02256 34.33276 227.69274 33.43605 228.76752 31.92941 229.43769 30.9362 230.10787 29.943 231.18264 28.2743 231.85282 27.17441 232.523 26.07452 233.59778 24.22665 234.26796 23.00887 234.93813 21.79109 236.01291 19.74535 236.68309 18.39743 237.35327 17.04951 239.09824 13.29396 239.09824 13.29396"/>
</g>
<use data-text="t" xlink:href="#font_4_3" transform="matrix(9.963496,0,0,-9.962799,264.27098,64.55302)"/>
<use data-text="y" xlink:href="#font_4_4" transform="matrix(9.963496,0,0,-9.962799,168.44635,6.207855)"/>
<path transform="matrix(1.00009,0,0,-1.00002,11.6282429,141.20355)" d="M48.48752-41.0458H190.61525V-24.10915H48.48752Z" fill="#ffffff"/>
<path transform="matrix(1.00009,0,0,-1.00002,11.6282429,141.20355)" stroke-width=".3985" stroke-linecap="butt" stroke-miterlimit="10" stroke-linejoin="miter" fill="none" stroke="#000000" d="M48.48752-41.0458H190.61525V-24.10915H48.48752Z"/>
<path transform="matrix(1.00009,0,0,-1.00002,63.607927,173.7812)" stroke-width=".99628" stroke-linecap="butt" stroke-miterlimit="10" stroke-linejoin="miter" fill="none" stroke="#e41a1c" d="M0 0C0 0 6.14426 0 8.50412 0 10.86398 0 17.00826 0 17.00826 0"/>
<use data-text="g" xlink:href="#font_4_2" transform="matrix(9.963496,0,0,-9.962799,83.10768,176.77027)"/>
<use data-text="(" xlink:href="#font_5_1" transform="matrix(9.963496,0,0,-9.962799,88.21814,176.77027)"/>
<use data-text="t" xlink:href="#font_4_3" transform="matrix(9.963496,0,0,-9.962799,92.09248,176.77027)"/>
<use data-text=")" xlink:href="#font_5_2" transform="matrix(9.963496,0,0,-9.962799,95.69081,176.77027)"/>
<path transform="matrix(1.00009,0,0,-1.00002,102.05639,173.7812)" stroke-width=".99628" stroke-linecap="butt" stroke-dasharray="2.98883,2.98883" stroke-miterlimit="10" stroke-linejoin="miter" fill="none" stroke="#377eb8" d="M0 0C0 0 6.14426 0 8.50412 0 10.86398 0 17.00826 0 17.00826 0"/>
<use data-text="S" xlink:href="#font_4_1" transform="matrix(9.963496,0,0,-9.962799,121.55614,176.43827)"/>
<use data-text="0" xlink:href="#font_6_1" transform="matrix(6.9744279,0,0,-6.97394,127.66669,177.93329)"/>
<path transform="matrix(1.00009,0,0,-1.00002,134.62631,173.7812)" stroke-width=".99628" stroke-linecap="butt" stroke-dasharray=".99628,1.99255" stroke-miterlimit="10" stroke-linejoin="miter" fill="none" stroke="#4daf4a" d="M0 0C0 0 6.14426 0 8.50412 0 10.86398 0 17.00826 0 17.00826 0"/>
<use data-text="S" xlink:href="#font_4_1" transform="matrix(9.963496,0,0,-9.962799,154.12708,176.43827)"/>
<use data-text="2" xlink:href="#font_6_2" transform="matrix(6.9744279,0,0,-6.97394,160.23662,177.93329)"/>
<path transform="matrix(1.00009,0,0,-1.00002,167.19724,173.7812)" stroke-width=".99628" stroke-linecap="butt" stroke-dasharray="2.98883,1.99255,.3985,1.99255" stroke-miterlimit="10" stroke-linejoin="miter" fill="none" stroke="#984ea3" d="M0 0C0 0 6.14426 0 8.50412 0 10.86398 0 17.00826 0 17.00826 0"/>
<use data-text="S" xlink:href="#font_4_1" transform="matrix(9.963496,0,0,-9.962799,186.698,176.43827)"/>
<use data-text="4" xlink:href="#font_6_3" transform="matrix(6.9744279,0,0,-6.97394,192.80754,177.93329)"/>
</svg>
