<svg xmlns="http://www.w3.org/2000/svg" xmlns:xlink="http://www.w3.org/1999/xlink" version="1.1" width="238" height="288" viewBox="0 0 238 288">
<defs>
<path id="font_1_1" d="M.69898989 .22743225C.71499636 .22743225 .7369995 .22743225 .7369995 .25042726 .7369995 .2734375 .71499636 .2734375 .69898989 .2734375H.12599182C.10998535 .2734375 .08799744 .2734375 .08799744 .25042726 .08799744 .22743225 .10998535 .22743225 .12599182 .22743225H.69898989Z"/>
<path id="font_2_2" d="M.28199769 .20405579C.2979889 .21907044 .33999635 .2520752 .35598756 .26608277 .41799928 .32312013 .47698976 .3781433 .47698976 .46917726 .47698976 .588089 .3769989 .66503909 .2519989 .66503909 .13198853 .66503909 .052993776 .57411196 .052993776 .48516847 .052993776 .4361725 .09199524 .4291687 .10598755 .4291687 .1269989 .4291687 .1579895 .4441681 .1579895 .48217774 .1579895 .5341797 .10798645 .5341797 .09599304 .5341797 .125 .6070709 .19198609 .6320343 .24099732 .6320343 .33399964 .6320343 .38198854 .55314639 .38198854 .46917726 .38198854 .36514283 .30899049 .28910829 .19099427 .16804505L.06498718 .037994386C.052993776 .026992798 .052993776 .024993897 .052993776 0H.44799806L.47698976 .17904663H.44599916C.44299317 .1590271 .43499757 .10900879 .4229889 .08999634 .4169922 .08198547 .34098817 .08198547 .32499696 .08198547H.14698792L.28199769 .20405579Z"/>
<path id="font_2_1" d="M.31399537 .63708499C.31399537 .664032 .31199647 .66503909 .2849884 .66503909 .24398804 .6251831 .19099427 .6013489 .09599304 .6013489V.5683594C.12298584 .5683594 .1769867 .5683594 .23498535 .5953522V.08203125C.23498535 .04499817 .23199463 .032989503 .13699341 .032989503H.101989749V0C.14299011 .0029907227 .22898865 .0029907227 .27398683 .0029907227 .31900025 .0029907227 .4059906 .0029907227 .44699098 0V.032989503H.4119873C.31698609 .032989503 .31399537 .04499817 .31399537 .08203125V.63708499Z"/>
<clipPath id="clip_3">
<path transform="matrix(1.00003,0,0,-1.00009,11.627754,227.92134)" d="M0 0H206.22396V206.22396H0Z"/>
</clipPath>
<path id="font_4_2" d="M.33399964 .30233766C.33999635 .32835389 .36299134 .42037965 .43299867 .42037965 .43798829 .42037965 .46199037 .42037965 .48298646 .40734864 .45498658 .402359 .43499757 .37734986 .43499757 .35334779 .43499757 .33735658 .44599916 .31835938 .47299195 .31835938 .49499513 .31835938 .5269928 .3363495 .5269928 .37635804 .5269928 .42837525 .46798707 .4423828 .43399049 .4423828 .37599183 .4423828 .34098817 .38935853 .32899476 .36634828 .3039856 .43237306 .25 .4423828 .22099304 .4423828 .116989139 .4423828 .05999756 .3133545 .05999756 .28834535 .05999756 .27833558 .069992069 .27833558 .07199097 .27833558 .07998657 .27833558 .08299255 .28033448 .084991458 .28933717 .11898804 .39535523 .18499756 .42037965 .21899414 .42037965 .23799134 .42037965 .272995 .4113617 .272995 .35334779 .272995 .32235719 .2559967 .25532533 .21899414 .11528015 .20298767 .053268434 .16799927 .011245728 .12399292 .011245728 .117996219 .011245728 .09498596 .011245728 .07398987 .024276734 .09899902 .029266358 .12098694 .05027771 .12098694 .07827759 .12098694 .105270389 .09899902 .11328125 .083999637 .11328125 .053985597 .11328125 .0289917 .08728027 .0289917 .055267335 .0289917 .009246826 .07899475-.0107421879 .12298584-.0107421879 .18899536-.0107421879 .22499085 .059280397 .22799683 .0652771 .23999024 .028274537 .27598573-.0107421879 .33599855-.0107421879 .43899537-.0107421879 .49598695 .118270877 .49598695 .14328003 .49598695 .1532898 .4869995 .1532898 .48399354 .1532898 .47499085 .1532898 .47299195 .14929199 .47099305 .14228821 .43798829 .03527832 .36999513 .011245728 .33799745 .011245728 .29899598 .011245728 .2829895 .043273927 .2829895 .07727051 .2829895 .09927368 .2889862 .121276859 .2999878 .16529846L.33399964 .30233766Z"/>
<path id="font_4_3" d="M.48599244 .38136292C.48999024 .39537049 .48999024 .39736939 .48999024 .40437318 .48999024 .42237855 .47599793 .43138124 .46099855 .43138124 .45098878 .43138124 .43499757 .42536927 .42599488 .41036988 .42399598 .405365 .41600038 .37435914 .4119873 .35635377 .40499879 .33035279 .397995 .30334474 .3919983 .27633668L.34700013 .09628296C.34298707 .08126831 .2999878 .011245728 .23399353 .011245728 .18299866 .011245728 .17199707 .055267335 .17199707 .0922699 .17199707 .1382904 .18899536 .20030213 .22299195 .28833009 .23899842 .3293457 .24299622 .3403473 .24299622 .36035157 .24299622 .405365 .21099854 .4423828 .16099549 .4423828 .06599426 .4423828 .0289917 .29733277 .0289917 .28833009 .0289917 .27833558 .038986207 .27833558 .040985109 .27833558 .050994874 .27833558 .051986696 .28033448 .056991579 .29634095 .083999637 .3903656 .12399292 .42037965 .1579895 .42037965 .1659851 .42037965 .18299866 .42037965 .18299866 .3883667 .18299866 .36335755 .17298889 .3373413 .1659851 .31834413 .12599182 .21231079 .10798645 .1552887 .10798645 .10827637 .10798645 .019256592 .17098999-.0107421879 .22999573-.0107421879 .2689972-.0107421879 .30299378 .0062561037 .33099366 .03425598 .31799317-.017745972 .30599977-.06674194 .2659912-.11973572 .23999024-.15385437 .20199585-.18309021 .1559906-.18309021 .14199829-.18309021 .09700012-.18005371 .07998657-.14074707 .09599304-.14074707 .10899353-.14074707 .12298584-.1287384 .1329956-.11973572 .14299011-.10673523 .14299011-.08773804 .14299011-.056747438 .115997318-.052734376 .10598755-.052734376 .08299255-.052734376 .049987794-.068740848 .049987794-.11773682 .049987794-.16796875 .09399414-.20507813 .1559906-.20507813 .25898744-.20507813 .3619995-.11373901 .3899994-.00074768069L.48599244 .38136292Z"/>
<path id="font_5_2" d="M.1769867 .69433596 .032989503 .68333438V.6523285C.102996829 .6523285 .11099243 .6453247 .11099243 .5962982V.07601929C.11099243 .0309906 .099990848 .0309906 .032989503 .0309906V0C.06599426 .0009918213 .11898804 .0029907227 .14399719 .0029907227 .16899109 .0029907227 .21798706 .0009918213 .25498963 0V.0309906C.18798828 .0309906 .1769867 .0309906 .1769867 .07601929V.69433596Z"/>
<path id="font_5_1" d="M.1769867 .4423828 .036987306 .43138124V.40037538C.101989749 .40037538 .11099243 .3943634 .11099243 .34532167V.076034549C.11099243 .0309906 .099990848 .0309906 .032989503 .0309906V0C.06498718 .0009918213 .11898804 .0029907227 .14299011 .0029907227 .17799378 .0029907227 .21299744 .0009918213 .24699402 0V.0309906C.18099976 .0309906 .1769867 .035995485 .1769867 .075042728V.4423828M.18099976 .6159363C.18099976 .64793398 .1559906 .6689453 .12799073 .6689453 .09700012 .6689453 .07499695 .64193728 .07499695 .6159363 .07499695 .5889435 .09700012 .5629425 .12799073 .5629425 .1559906 .5629425 .18099976 .5839386 .18099976 .6159363Z"/>
<path id="font_5_3" d="M.10998535 .34429933V.076034549C.10998535 .0309906 .09899902 .0309906 .03199768 .0309906V0C.066986087 .0009918213 .117996219 .0029907227 .14498902 .0029907227 .17098999 .0029907227 .22299195 .0009918213 .25698854 0V.0309906C.18998719 .0309906 .1789856 .0309906 .1789856 .076034549V.2602234C.1789856 .36431886 .25 .42037965 .31399537 .42037965 .3769989 .42037965 .3880005 .36631776 .3880005 .30926515V.076034549C.3880005 .0309906 .3769989 .0309906 .30999757 .0309906V0C.34498597 .0009918213 .3959961 .0029907227 .4229889 .0029907227 .44898988 .0029907227 .5009918 .0009918213 .5349884 0V.0309906C.46798707 .0309906 .45700074 .0309906 .45700074 .076034549V.2602234C.45700074 .36431886 .5279999 .42037965 .59199526 .42037965 .6549988 .42037965 .66600039 .36631776 .66600039 .30926515V.076034549C.66600039 .0309906 .6549988 .0309906 .58799746 .0309906V0C.6230011 .0009918213 .673996 .0029907227 .70098879 .0029907227 .72698977 .0029907227 .7789917 .0009918213 .8129883 0V.0309906C.7609863 .0309906 .73599246 .0309906 .7350006 .061019899V.25221253C.7350006 .3383026 .7350006 .36932374 .70399478 .405365 .6899872 .42237855 .6569977 .4423828 .598999 .4423828 .5149994 .4423828 .47099305 .38233949 .45399476 .34429933 .43998719 .43138124 .3659973 .4423828 .32099916 .4423828 .24798584 .4423828 .20098877 .39935304 .17298889 .33729554V.4423828L.03199768 .43138124V.40037538C.101989749 .4003601 .10998535 .39335633 .10998535 .34429933Z"/>
<path id="font_6_1" d="M.12199402 .06324768C.117996219 .050247194 .11199951 .025222779 .11199951 .022232056 .11199951 .00022888184 .12998963-.009765625 .1459961-.009765625 .1639862-.009765625 .17999268 .0032196046 .18499756 .01222229 .18998719 .021224976 .19799805 .053237916 .20298767 .07424927 .20799256 .09326172 .21899414 .13928223 .22499085 .16429138 .23098755 .18629456 .23699951 .20831299 .24198914 .23132324 .25299073 .27233888 .25498963 .28033448 .28399659 .32136537 .31199647 .3613739 .35899354 .4133911 .43399049 .4133911 .49198915 .4133911 .49299623 .36238099 .49299623 .34336854 .49299623 .28334046 .44999696 .17228699 .43399049 .13027954 .4229889 .102264408 .4189911 .09326172 .4189911 .07624817 .4189911 .023223877 .46299745-.009765625 .5139923-.009765625 .6139984-.009765625 .6579895 .12828064 .6579895 .14328003 .6579895 .15628052 .644989 .15628052 .6419983 .15628052 .6279907 .15628052 .6269989 .15028382 .6230011 .13928223 .59999087 .059249879 .5569916 .018234253 .5169983 .018234253 .49598695 .018234253 .49198915 .032226564 .49198915 .053237916 .49198915 .07624817 .49699403 .089263919 .5149994 .13427735 .5269928 .1652832 .56799319 .2713318 .56799319 .32736207 .56799319 .4243927 .4909973 .44140626 .43798829 .44140626 .35499574 .44140626 .29899598 .39038087 .2689972 .3503723 .2619934 .41940309 .20298767 .44140626 .1619873 .44140626 .11898804 .44140626 .09599304 .4104004 .08299255 .38739015 .06098938 .3503723 .04699707 .29335023 .04699707 .28834535 .04699707 .27534486 .06098938 .27534486 .06399536 .27534486 .07798767 .27534486 .07899475 .27833558 .085998538 .3053589 .100997928 .36437989 .11999512 .4133911 .15899658 .4133911 .18499756 .4133911 .19198609 .39138795 .19198609 .36437989 .19198609 .34536744 .18299866 .3083496 .17599488 .28134156 .16899109 .2543335 .15899658 .21331787 .1539917 .19129944L.12199402 .06324768Z"/>
<path id="font_7_1" d="M.91999819 .2263794C.7939911 .13398743 .7769928 .0028076173 .7769928 .0018157959 .7769928-.013183594 .7869873-.013183594 .8009949-.013183594 .81900027-.013183594 .82199099-.013183594 .82699587 .0038146973 .83299258 .028808594 .848999 .092819217 .901001 .14805603 .95899966 .20930481 1.0089874 .2243805 1.0509949 .23738098 1.0569916 .23937989 1.0609894 .24537659 1.0609894 .25038148 1.0609894 .26037599 1.0549927 .26239015 1.0419922 .26638795 .897995 .3123169 .8470001 .41412355 .82598879 .502121 .82199099 .51412966 .8149872 .51412966 .8009949 .51412966 .7869873 .51412966 .7769928 .51412966 .7769928 .49913026 .7769928 .49713136 .7869873 .43013 .83599856 .3612213 .85899356 .32728578 .8869934 .29933167 .91999819 .27539063H.116989139C.100997928 .27539063 .07699585 .27539063 .07699585 .25138856 .07699585 .2263794 .099990848 .2263794 .116989139 .2263794H.91999819Z"/>
<path id="font_7_2" d="M.5779877 .27427674C.5249939 .3363037 .5089874 .353302 .47099305 .38031007 .4099884 .4243164 .34599305 .4413147 .29100038 .4413147 .16699219 .4413147 .07699585 .33529664 .07699585 .215271 .07699585 .098236087 .16299439-.009765625 .28799439-.009765625 .4269867-.009765625 .5239868 .10424805 .55999758 .15725708 .61299136 .09524536 .6289978 .07823181 .6669922 .051239015 .7279968 .007232666 .7919922-.009765625 .8470001-.009765625 .97099307-.009765625 1.0609894 .09623718 1.0609894 .21626282 1.0609894 .33329774 .97499087 .4413147 .84999087 .4413147 .71099856 .4413147 .6139984 .32730104 .5779877 .27427674M.6100006 .23727417C.6499939 .30229188 .7369995 .4033203 .85899356 .4033203 .96199038 .4033203 1.0329895 .31228639 1.0329895 .21626282 1.0329895 .12025452 .95500186 .04522705 .86299136 .04522705 .769989 .04522705 .70599368 .12124634 .6100006 .23727417M.5279999 .19425965C.48799134 .1292572 .40098573 .02822876 .2789917 .02822876 .17599488 .02822876 .10499573 .11924744 .10499573 .215271 .10499573 .31129457 .18299866 .38630677 .2749939 .38630677 .36799623 .38630677 .43199159 .31028749 .5279999 .19425965Z"/>
<path id="font_4_1" d="M.644989 .69506838C.644989 .69807437 .6429901 .7050781 .6339874 .7050781 .6289978 .7050781 .6279907 .70407107 .6159973 .6900635L.56799319 .6330414C.5419922 .68006899 .48999024 .7050781 .4249878 .7050781 .2979889 .7050781 .17799378 .58999636 .17799378 .4689026 .17799378 .38783265 .23098755 .34179688 .28199769 .32678224L.3889923 .2987671C.42599488 .2897644 .48098756 .27474977 .48098756 .19267273 .48098756 .1026001 .39898683 .008529663 .30099488 .008529663 .23699951 .008529663 .12599182 .030548096 .12599182 .15464783 .12599182 .17866516 .1309967 .2026825 .13198853 .20869446 .1329956 .21269226 .13398743 .21369934 .13398743 .21569824 .13398743 .22570801 .1269989 .22669983 .12199402 .22669983 .116989139 .22669983 .114990238 .22570801 .11199951 .22270203 .10798645 .21870423 .051986696-.009475708 .051986696-.012466431 .051986696-.018463135 .056991579-.022460938 .06298828-.022460938 .067993167-.022460938 .068984989-.021469117 .08099365-.007461548L.12998963 .049560548C.17298889-.008468628 .24099732-.022460938 .29899598-.022460938 .43499757-.022460938 .5529938 .11061096 .5529938 .2347107 .5529938 .30377198 .5189972 .33779908 .5039978 .35180665 .48098756 .37483216 .46598817 .37882997 .3769989 .40185548 .35499574 .40785218 .31900025 .41786195 .30999757 .41986085 .2829895 .42886354 .24899292 .457901 .24899292 .51094058 .24899292 .59199526 .32899476 .677063 .42399598 .677063 .5069885 .677063 .56799319 .6340332 .56799319 .52194216 .56799319 .48991395 .56399539 .47190858 .56399539 .4658966 .56399539 .4649048 .56399539 .45588685 .57598879 .45588685 .58599856 .45588685 .58699038 .45889283 .59098818 .47590638L.644989 .69506838Z"/>
<path id="font_8_1" d="M.33499146 .63612368C.33499146 .6630554 .33299256 .6640625 .30499269 .6640625 .24099732 .6014404 .1499939 .6004486 .10899353 .6004486V.5644531C.1329956 .5644531 .19898987 .5644531 .2539978 .592453V.08203125C.2539978 .04899597 .2539978 .035995485 .1539917 .035995485H.115997318V0C.13398743 .0009918213 .25698854 .0039978029 .2939911 .0039978029 .32499696 .0039978029 .45098878 .0009918213 .47299195 0V.035995485H.43499757C.33499146 .035995485 .33499146 .04899597 .33499146 .08203125V.63612368Z"/>
<path id="font_8_2" d="M.272995 .33428956C.35099793 .33428956 .40699769 .2803192 .40699769 .1733551 .40699769 .04940796 .33499146 .012466431 .2769928 .012466431 .23699951 .012466431 .14898682 .0234375 .10699463 .082351688 .1539917 .084350589 .16499329 .11735535 .16499329 .13835144 .16499329 .17034912 .14099121 .19335938 .10998535 .19335938 .08198547 .19335938 .053985597 .17634583 .053985597 .13534546 .053985597 .041412355 .1579895-.01953125 .2789917-.01953125 .41799928-.01953125 .5139923 .07336426 .5139923 .1733551 .5139923 .2513275 .44999696 .32929994 .33999635 .35229493 .44499208 .39024354 .48298646 .4650879 .48298646 .5260773 .48298646 .60505679 .3919983 .6640625 .2809906 .6640625 .16999817 .6640625 .084991458 .61006167 .084991458 .5300751 .084991458 .49606324 .10699463 .47706605 .13699341 .47706605 .16799927 .47706605 .18798828 .5000763 .18798828 .5280762 .18798828 .5570679 .16799927 .57806399 .13699341 .5800781 .17199707 .62405398 .24099732 .63505557 .27799989 .63505557 .32299806 .63505557 .38598634 .6130676 .38598634 .5260773 .38598634 .48406983 .37199403 .43814088 .34599305 .4072113 .31298829 .36927796 .2849884 .3672943 .23498535 .36428834 .20999146 .3623047 .20799256 .3623047 .20298767 .3612976 .20098877 .3612976 .19299317 .3592987 .19299317 .34829713 .19299317 .33428956 .20199585 .33428956 .21899414 .33428956H.272995Z"/>
<path id="font_8_3" d="M.15499878 .5588074C.20599365 .5458069 .23599243 .5458069 .2519989 .5458069 .38398744 .5458069 .46199037 .6358032 .46199037 .6508026 .46199037 .6618042 .45498658 .6648102 .44999696 .6648102 .44799806 .6648102 .44599916 .6648102 .44198609 .6618042 .41799928 .6528015 .36499024 .6328125 .29100038 .6328125 .2630005 .6328125 .20999146 .6348114 .14498902 .6598053 .1349945 .6648102 .1329956 .6648102 .13198853 .6648102 .11898804 .6648102 .11898804 .6538086 .11898804 .6378021V.34251405C.11898804 .32548524 .11898804 .3134613 .1349945 .3134613 .14399719 .3134613 .14498902 .3154602 .15499878 .32748414 .19799805 .38259889 .25898744 .390625 .2939911 .390625 .35398866 .390625 .3809967 .34251405 .38598634 .33450318 .4039917 .30143739 .4099884 .26335145 .4099884 .20524597 .4099884 .17524719 .4099884 .116256717 .37998963 .07234192 .35499574 .03640747 .31199647 .012466431 .2630005 .012466431 .19799805 .012466431 .1309967 .04838562 .10598755 .11425781 .14399719 .11125183 .16299439 .13624573 .16299439 .16325379 .16299439 .20625305 .12599182 .21424866 .11299133 .21424866 .11099243 .21424866 .06298828 .21424866 .06298828 .1602478 .06298828 .07034302 .14498902-.01953125 .2649994-.01953125 .3929901-.01953125 .5049896 .07533264 .5049896 .20124817 .5049896 .31445313 .4189911 .41862489 .29499818 .41862489 .25099183 .41862489 .19898987 .4076233 .15499878 .36956788V.5588074Z"/>
<path id="font_8_4" d="M.5349884 .6045227C.54499819 .6165161 .54499819 .6185303 .54499819 .64453127H.2829895C.24299622 .64453127 .23199463 .6455078 .19599915 .6484375 .14399719 .65234377 .14199829 .6592407 .13899231 .676239H.10499573L.069992069 .46250917H.10398865C.10598755 .47750855 .115997318 .54351809 .13198853 .5535126 .13999939 .55952456 .22099304 .55952456 .23599243 .55952456H.45399476C.42199708 .5175171 .37098695 .45550538 .34999085 .4275055 .21899414 .25549317 .20698548 .096466068 .20698548 .037460329 .20698548 .02645874 .20698548-.01953125 .2539978-.01953125 .3019867-.01953125 .3019867 .025466919 .3019867 .038467409V.07847595C.3019867 .27249146 .34199525 .36149598 .3849945 .41551209L.5349884 .6045227Z"/>
</defs>
<path transform="matrix(1.00003,0,0,-1.00009,11.627754,227.92134)" stroke-width=".09962" stroke-linecap="butt" stroke-miterlimit="10" stroke-linejoin="miter" fill="none" stroke="#e0e0e0" d="M25.77798 0V206.22396M77.33397 0V206.22396M128.88997 0V206.22396M180.44596 0V206.22396"/>
<path transform="matrix(1.00003,0,0,-1.00009,11.627754,227.92134)" stroke-width=".19925" stroke-linecap="butt" stroke-miterlimit="10" stroke-linejoin="miter" fill="none" stroke="#c0c0c0" d="M0 0V206.22396M51.55598 0V206.22396M154.66796 0V206.22396M206.22396 0V206.22396"/>
<path transform="matrix(1.00003,0,0,-1.00009,11.627754,227.92134)" stroke-width=".09962" stroke-linecap="butt" stroke-miterlimit="10" stroke-linejoin="miter" fill="none" stroke="#e0e0e0" d="M0 25.77798H206.22396M0 77.33397H206.22396M0 128.88997H206.22396M0 180.44596H206.22396"/>
<path transform="matrix(1.00003,0,0,-1.00009,11.627754,227.92134)" stroke-width=".19925" stroke-linecap="butt" stroke-miterlimit="10" stroke-linejoin="miter" fill="none" stroke="#c0c0c0" d="M0 0H206.22396M0 51.55598H206.22396M0 154.66796H206.22396M0 206.22396H206.22396"/>
<path transform="matrix(1.00003,0,0,-1.00009,11.627754,227.92134)" stroke-width=".19925" stroke-linecap="butt" stroke-miterlimit="10" stroke-linejoin="miter" fill="none" stroke="#929292" d="M25.77798 101.6944V104.52954M77.33397 101.6944V104.52954M128.88997 101.6944V104.52954M180.44596 101.6944V104.52954"/>
<path transform="matrix(1.00003,0,0,-1.00009,11.627754,227.92134)" stroke-width=".19925" stroke-linecap="butt" stroke-miterlimit="10" stroke-linejoin="miter" fill="none" stroke="#929292" d="M0 100.98582V105.2381M51.55598 100.98582V105.2381M154.66796 100.98582V105.2381M206.22396 100.98582V105.2381"/>
<path transform="matrix(1.00003,0,0,-1.00009,11.627754,227.92134)" stroke-width=".19925" stroke-linecap="butt" stroke-miterlimit="10" stroke-linejoin="miter" fill="none" stroke="#929292" d="M101.6944 25.77798H104.52954M101.6944 77.33397H104.52954M101.6944 128.88997H104.52954M101.6944 180.44596H104.52954"/>
<path transform="matrix(1.00003,0,0,-1.00009,11.627754,227.92134)" stroke-width=".19925" stroke-linecap="butt" stroke-miterlimit="10" stroke-linejoin="miter" fill="none" stroke="#929292" d="M100.98582 0H105.2381M100.98582 51.55598H105.2381M100.98582 154.66796H105.2381M100.98582 206.22396H105.2381"/>
<path transform="matrix(1.00003,0,0,-1.00009,11.627754,227.92134)" stroke-width=".3985" stroke-linecap="butt" stroke-miterlimit="10" stroke-linejoin="miter" fill="none" stroke="#000000" d="M-6.37622 103.11197H212.60018"/>
<path transform="matrix(-1.00003,-0,0,1.00009,5.2513425,124.800098)" d="M3.58653 0C2.52383 .19925 .797 .797-.3985 1.49438V-1.49438C.797-.797 2.52383-.19925 3.58653 0"/>
<path transform="matrix(1.00003,0,0,-1.00009,224.23432,124.800098)" d="M3.58653 0C2.52383 .19925 .797 .797-.3985 1.49438V-1.49438C.797-.797 2.52383-.19925 3.58653 0"/>
<path transform="matrix(1.00003,0,0,-1.00009,11.627754,227.92134)" stroke-width=".3985" stroke-linecap="butt" stroke-miterlimit="10" stroke-linejoin="miter" fill="none" stroke="#000000" d="M103.11197-6.37622V212.60018"/>
<path transform="matrix(0,1.00009,1.00003,0,114.74282,234.29814)" d="M3.58653 0C2.52383 .19925 .797 .797-.3985 1.49438V-1.49438C.797-.797 2.52383-.19925 3.58653 0"/>
<path transform="matrix(0,-1.00009,-1.00003,-0,114.74282,15.302032)" d="M3.58653 0C2.52383 .19925 .797 .797-.3985 1.49438V-1.49438C.797-.797 2.52383-.19925 3.58653 0"/>
<use data-text="&#x2212;" xlink:href="#font_1_1" transform="matrix(7.9703395,0,0,-7.970817,6.2175905,135.58304)"/>
<use data-text="2" xlink:href="#font_2_2" transform="matrix(7.9703395,0,0,-7.970817,12.804787,135.58304)"/>
<use data-text="&#x2212;" xlink:href="#font_1_1" transform="matrix(7.9703395,0,0,-7.970817,57.77514,135.58304)"/>
<use data-text="1" xlink:href="#font_2_1" transform="matrix(7.9703395,0,0,-7.970817,64.362339,135.58304)"/>
<use data-text="1" xlink:href="#font_2_1" transform="matrix(7.9703395,0,0,-7.970817,164.18332,135.58304)"/>
<use data-text="2" xlink:href="#font_2_2" transform="matrix(7.9703395,0,0,-7.970817,215.74088,135.58304)"/>
<use data-text="&#x2212;" xlink:href="#font_1_1" transform="matrix(7.9703395,0,0,-7.970817,98.27535,230.07453)"/>
<use data-text="2" xlink:href="#font_2_2" transform="matrix(7.9703395,0,0,-7.970817,104.86255,230.07453)"/>
<use data-text="&#x2212;" xlink:href="#font_1_1" transform="matrix(7.9703395,0,0,-7.970817,98.27535,178.51389)"/>
<use data-text="1" xlink:href="#font_2_1" transform="matrix(7.9703395,0,0,-7.970817,104.86255,178.51389)"/>
<use data-text="1" xlink:href="#font_2_1" transform="matrix(7.9703395,0,0,-7.970817,104.86256,75.80765)"/>
<use data-text="2" xlink:href="#font_2_2" transform="matrix(7.9703395,0,0,-7.970817,104.86256,24.24701)"/>
<g clip-path="url(#clip_3)">
<path transform="matrix(1.00003,0,0,-1.00009,11.627754,227.92134)" stroke-width=".99628" stroke-linecap="butt" stroke-miterlimit="10" stroke-linejoin="miter" fill="none" stroke="#e41a1c" d="M52.59746-98.0605C52.59746-98.0605 53.34993-70.18428 53.63895-62.32602 53.92795-54.46777 54.39142-46.38213 54.68044-41.42368 54.96944-36.46524 55.4329-30.24342 55.72192-26.58896 56.01093-22.9345 56.4744-17.9852 56.7634-15.08475 57.05241-12.1843 57.51588-8.09113 57.80489-5.68454 58.0939-3.27797 58.55737 .20271 58.84637 2.26021 59.13539 4.3177 59.59886 7.347 59.88786 9.14447 60.17686 10.94194 60.64035 13.61864 60.92935 15.21518 61.21835 16.81172 61.68184 19.21538 61.97084 20.65126 62.25984 22.08713 62.72333 24.25977 63.01233 25.56403 63.30133 26.86827 63.76482 28.85637 64.05382 30.05147 64.34282 31.24655 64.8063 33.07524 65.0953 34.17749 65.38431 35.27974 65.8478 36.97244 66.1368 37.99571 66.4258 39.01898 66.88928 40.5974 67.17828 41.55257 67.46729 42.50774 67.93076 43.9849 68.21977 44.87999 68.50877 45.77509 68.97224 47.1614 69.26126 48.00377 69.55026 48.84613 70.01373 50.1555 70.30275 50.95122 70.59175 51.74693 71.05522 52.98468 71.34422 53.73885 71.63324 54.49303 72.09671 55.67052 72.38571 56.38678 72.67473 57.10303 73.1382 58.21945 73.4272 58.90115 73.71622 59.58286 74.17969 60.64919 74.46869 61.30005 74.75769 61.95093 75.22118 62.96968 75.51018 63.59224 75.79918 64.2148 76.26266 65.19083 76.55167 65.78697 76.84067 66.38312 77.30415 67.31644 77.59315 67.88892 77.88216 68.46138 78.34564 69.36235 78.63464 69.913 78.92365 70.46364 79.38713 71.32785 79.67613 71.8577 79.96513 72.38753 80.42862 73.22058 80.71762 73.73175 81.00662 74.24292 81.47011 75.04846 81.75911 75.54189 82.04811 76.03532 82.51158 76.81111 82.8006 77.28809 83.0896 77.76506 83.55307 78.5179 83.84209 78.97963 84.13109 79.44138 84.59456 80.16895 84.88358 80.61603 85.17258 81.0631 85.63605 81.76848 85.92505 82.20189 86.21407 82.6353 86.67754 83.31863 86.96654 83.7398 87.25555 84.16096 87.71902 84.82863 88.00803 85.2375 88.29704 85.64638 88.76051 86.29018 89.04951 86.68675 89.33852 87.08333 89.802 87.70892 90.091 88.09576 90.38 88.4826 90.84349 89.0979 91.13249 89.47488 91.4215 89.85187 91.88498 90.44537 92.17398 90.81276 92.46298 91.18015 92.92647 91.76457 93.21547 92.12282 93.50447 92.48105 93.96796 93.04582 94.25696 93.39468 94.54596 93.74355 95.00945 94.29648 95.29845 94.63719 95.58745 94.97789 96.05092 95.51753 96.33994 95.85031 96.62894 96.18307 97.0924 96.71033 97.38142 97.03557 97.67043 97.36082 98.1339 97.87653 98.42291 98.19455 98.71191 98.51259 99.17538 99.01674 99.46439 99.32776 99.7534 99.63878 100.21687 100.13162 100.50587 100.4362 100.79489 100.7408 101.25836 101.22487 101.54736 101.52301 101.83638 101.82115 102.29985 102.29308 102.58885 102.58505 102.87785 102.87704 103.34134 103.34134 103.63034 103.62753 103.91934 103.91373 104.38283 104.36734 104.67183 104.64781 104.96083 104.92828 105.42432 105.37378 105.71332 105.64903 106.00232 105.92427 106.4658 106.36165 106.7548 106.63168 107.04381 106.90172 107.5073 107.33047 107.7963 107.59528 108.0853 107.86008 108.5488 108.28035 108.8378 108.5403 109.1268 108.80023 109.59027 109.21338 109.87927 109.46881 110.16827 109.72426 110.63174 110.13028 110.92076 110.38136 111.20976 110.63243 111.67323 111.03166 111.96225 111.27843 112.25125 111.5252 112.71472 111.9174 113.00374 112.16003 113.29274 112.40268 113.75621 112.78879 114.04521 113.0272 114.33423 113.26561 114.7977 113.6437 115.0867 113.87839 115.37572 114.11308 115.83919 114.48793 116.12819 114.71877 116.4172 114.94958 116.88068 115.31506 117.16968 115.54211 117.45868 115.76915 117.92216 116.1316 118.21117 116.35515 118.50017 116.57867 118.96365 116.9332 119.25266 117.15323 119.54166 117.37326 120.00514 117.72433 120.29414 117.94101 120.58315 118.15768 121.04663 118.50142 121.33563 118.71487 121.62463 118.92833 122.08812 119.26929 122.37712 119.47945 122.66612 119.68959 123.12961 120.0225 123.41861 120.22958 123.70761 120.43666 124.1711 120.76733 124.4601 120.97198 124.7491 121.17664 125.21257 121.5031 125.50159 121.7046 125.79059 121.9061 126.25406 122.22568 126.54308 122.42432 126.83208 122.62297 127.29555 122.94025 127.58456 123.1363 127.87357 123.33237 128.33704 123.64435 128.62604 123.83746 128.91506 124.0306 129.37853 124.33755 129.66753 124.52832 129.95655 124.71909 130.42002 125.02406 130.70902 125.21246 130.99803 125.40088 131.4615 125.70032 131.7505 125.88629 132.0395 126.07228 132.50299 126.36952 132.79199 126.55292 133.081 126.73631 133.54448 127.02737 133.83348 127.2082 134.12248 127.38902 134.58597 127.67729 134.87497 127.85626 135.16397 128.03524 135.62746 128.32132 135.91646 128.49814 136.20546 128.67494 136.66895 128.9566 136.95795 129.13072 137.24695 129.30483 137.71044 129.58112 137.99944 129.75299 138.28844 129.92488 138.75193 130.19937 139.04093 130.36962 139.32993 130.53987 139.7934 130.81137 140.08242 130.98004 140.37142 131.14871 140.83489 131.41886 141.1239 131.58531 141.4129 131.75176 141.87638 132.01558 142.16539 132.17975 142.45439 132.34392 142.91786 132.606 143.20687 132.76851 143.49588 132.93102 143.95935 133.19037 144.24835 133.35109 144.53737 133.51183 145.00084 133.76818 145.28984 133.92697 145.57886 134.08577 146.04233 134.33834 146.33133 134.49564 146.62033 134.65293 147.08382 134.90499 147.37282 135.0607 147.66182 135.2164 148.1253 135.46424 148.4143 135.61801 148.70331 135.77179 149.1668 136.01692 149.4558 136.16915 149.7448 136.32137 150.20829 136.56526 150.49729 136.71512 150.78629 136.86499 151.24977 137.1014 151.53878 137.24925 151.82778 137.3971 152.29126 137.63321 152.58026 137.78078 152.86927 137.92835 153.33274 138.16663 153.62175 138.31284 153.91075 138.45905 154.66324 138.8346 154.66324 138.8346"/>
<path transform="matrix(1.00003,0,0,-1.00009,11.627754,227.92134)" stroke-width=".99628" stroke-linecap="butt" stroke-dasharray="2.98883,2.98883" stroke-miterlimit="10" stroke-linejoin="miter" fill="none" stroke="#377eb8" d="M0 0C0 0 1.505 1.505 2.08304 2.08304 2.66109 2.66109 3.58807 3.58807 4.1661 4.1661 4.74416 4.74416 5.67114 5.67114 6.24918 6.24918 6.82721 6.82721 7.7542 7.7542 8.33224 8.33224 8.91028 8.91028 9.83725 9.83725 10.4153 10.4153 10.99333 10.99333 11.92032 11.92032 12.49837 12.49837 13.0764 13.0764 14.00339 14.00339 14.58142 14.58142 15.15947 15.15947 16.08646 16.08646 16.66449 16.66449 17.24254 17.24254 18.16953 18.16953 18.74756 18.74756 19.32559 19.32559 20.25256 20.25256 20.83061 20.83061 21.40865 21.40865 22.33563 22.33563 22.91368 22.91368 23.49171 23.49171 24.4187 24.4187 24.99673 24.99673 25.57478 25.57478 26.50177 26.50177 27.0798 27.0798 27.65785 27.65785 28.58484 28.58484 29.16287 29.16287 29.74092 29.74092 30.6679 30.6679 31.24593 31.24593 31.82396 31.82396 32.75095 32.75095 33.329 33.329 33.90703 33.90703 34.83401 34.83401 35.41206 35.41206 35.9901 35.9901 36.91708 36.91708 37.49512 37.49512 38.07317 38.07317 39.00014 39.00014 39.57817 39.57817 40.15622 40.15622 41.0832 41.0832 41.66124 41.66124 42.23929 42.23929 43.16628 43.16628 43.74431 43.74431 44.32234 44.32234 45.24933 45.24933 45.82738 45.82738 46.40541 46.40541 47.3324 47.3324 47.91045 47.91045 48.48848 48.48848 49.41545 49.41545 49.99348 49.99348 50.57153 50.57153 51.49852 51.49852 52.07655 52.07655 52.6546 52.6546 53.58159 53.58159 54.15962 54.15962 54.73767 54.73767 55.66466 55.66466 56.24269 56.24269 56.82072 56.82072 57.74771 57.74771 58.32576 58.32576 58.9038 58.9038 59.83076 59.83076 60.40881 60.40881 60.98685 60.98685 61.91383 61.91383 62.49187 62.49187 63.06992 63.06992 63.9969 63.9969 64.57494 64.57494 65.15298 65.15298 66.07997 66.07997 66.658 66.658 67.23605 67.23605 68.16302 68.16302 68.74106 68.74106 69.31909 69.31909 70.24608 70.24608 70.82413 70.82413 71.40216 71.40216 72.32915 72.32915 72.9072 72.9072 73.48523 73.48523 74.41222 74.41222 74.99025 74.99025 75.5683 75.5683 76.49529 76.49529 77.07332 77.07332 77.65137 77.65137 78.57834 78.57834 79.15637 79.15637 79.73442 79.73442 80.6614 80.6614 81.23944 81.23944 81.81747 81.81747 82.74446 82.74446 83.32251 83.32251 83.90054 83.90054 84.82753 84.82753 85.40558 85.40558 85.98361 85.98361 86.9106 86.9106 87.48863 87.48863 88.06668 88.06668 88.99365 88.99365 89.57169 89.57169 90.14973 90.14973 91.07672 91.07672 91.65475 91.65475 92.2328 92.2328 93.15979 93.15979 93.73782 93.73782 94.31586 94.31586 95.24284 95.24284 95.82089 95.82089 96.39893 96.39893 97.3259 97.3259 97.90395 97.90395 98.48198 98.48198 99.40897 99.40897 99.987 99.987 100.56505 100.56505 101.49203 101.49203 102.07007 102.07007 102.64812 102.64812 103.5751 103.5751 104.15314 104.15314 104.73119 104.73119 105.65817 105.65817 106.2362 106.2362 106.81424 106.81424 107.74121 107.74121 108.31926 108.31926 108.8973 108.8973 109.82428 109.82428 110.40233 110.40233 110.98036 110.98036 111.90735 111.90735 112.48538 112.48538 113.06343 113.06343 113.99042 113.99042 114.56845 114.56845 115.1465 115.1465 116.07349 116.07349 116.65152 116.65152 117.22957 117.22957 118.15654 118.15654 118.73457 118.73457 119.3126 119.3126 120.2396 120.2396 120.81764 120.81764 121.39568 121.39568 122.32266 122.32266 122.90071 122.90071 123.47874 123.47874 124.40573 124.40573 124.98376 124.98376 125.56181 125.56181 126.4888 126.4888 127.06683 127.06683 127.64488 127.64488 128.57186 128.57186 129.14989 129.14989 129.72794 129.72794 130.65493 130.65493 131.23296 131.23296 131.81099 131.81099 132.73798 132.73798 133.31603 133.31603 133.89406 133.89406 134.82105 134.82105 135.3991 135.3991 135.97713 135.97713 136.9041 136.9041 137.48213 137.48213 138.06018 138.06018 138.98717 138.98717 139.5652 139.5652 140.14325 140.14325 141.07024 141.07024 141.64827 141.64827 142.22632 142.22632 143.1533 143.1533 143.73134 143.73134 144.30937 144.30937 145.23636 145.23636 145.8144 145.8144 146.39244 146.39244 147.31941 147.31941 147.89746 147.89746 148.4755 148.4755 149.40248 149.40248 149.98052 149.98052 150.55857 150.55857 151.48555 151.48555 152.06359 152.06359 152.64163 152.64163 153.56862 153.56862 154.14665 154.14665 154.7247 154.7247 155.65169 155.65169 156.22972 156.22972 156.80776 156.80776 157.73473 157.73473 158.31278 158.31278 158.89081 158.89081 159.8178 159.8178 160.39585 160.39585 160.97388 160.97388 161.90087 161.90087 162.4789 162.4789 163.05695 163.05695 163.98394 163.98394 164.56197 164.56197 165.14002 165.14002 166.06699 166.06699 166.64502 166.64502 167.22307 167.22307 168.15006 168.15006 168.72809 168.72809 169.30612 169.30612 170.23311 170.23311 170.81116 170.81116 171.38919 171.38919 172.31618 172.31618 172.89423 172.89423 173.47226 173.47226 174.39925 174.39925 174.97728 174.97728 175.55533 175.55533 176.4823 176.4823 177.06034 177.06034 177.63838 177.63838 178.56537 178.56537 179.1434 179.1434 179.72145 179.72145 180.64844 180.64844 181.22647 181.22647 181.8045 181.8045 182.73149 182.73149 183.30954 183.30954 183.88758 183.88758 184.81456 184.81456 185.39261 185.39261 185.97064 185.97064 186.89762 186.89762 187.47565 187.47565 188.0537 188.0537 188.98069 188.98069 189.55872 189.55872 190.13677 190.13677 191.06375 191.06375 191.64179 191.64179 192.21984 192.21984 193.14682 193.14682 193.72486 193.72486 194.30289 194.30289 195.22986 195.22986 195.8079 195.8079 196.38594 196.38594 197.31293 197.31293 197.89098 197.89098 198.46901 198.46901 199.396 199.396 199.97403 199.97403 200.55208 200.55208 201.47907 201.47907 202.0571 202.0571 202.63515 202.63515 203.56214 203.56214 204.14017 204.14017 204.71822 204.71822 206.22322 206.22322 206.22322 206.22322"/>
<path transform="matrix(1.00003,0,0,-1.00009,11.627754,227.92134)" stroke-width=".99628" stroke-linecap="butt" stroke-dasharray=".99628,1.99255" stroke-miterlimit="10" stroke-linejoin="miter" fill="none" stroke="#4daf4a" d="M0-240.59426C0-240.59426 1.505-230.15264 2.08304-226.22179 2.66109-222.29094 3.58807-216.08016 4.1661-212.26332 4.74416-208.44647 5.67114-202.4174 6.24918-198.71266 6.82721-195.00794 7.7542-189.15674 8.33224-185.56208 8.91028-181.96743 9.83725-176.29122 10.4153-172.80487 10.99333-169.31851 11.92032-163.81475 12.49837-160.43483 13.0764-157.05492 14.00339-151.72023 14.58142-148.44478 15.15947-145.16931 16.08646-140.00016 16.66449-136.82747 17.24254-133.65479 18.16953-128.65023 18.74756-125.57826 19.32559-122.5063 20.25256-117.66017 20.83061-114.68684 21.40865-111.71353 22.33563-107.02478 22.91368-104.1486 23.49171-101.27245 24.4187-96.73843 24.99673-93.95732 25.57478-91.17621 26.50177-86.79231 27.0798-84.10426 27.65785-81.41623 28.58484-77.18051 29.16287-74.58374 29.74092-71.98697 30.6679-67.8958 31.24593-65.38852 31.82396-62.88124 32.75095-58.93268 33.329-56.51295 33.90703-54.09322 34.83401-50.28304 35.41206-47.94878 35.9901-45.61453 36.91708-41.93964 37.49512-39.6893 38.07317-37.43896 39.00014-33.89833 39.57817-31.7299 40.15622-29.5615 41.0832-26.14926 41.66124-24.06075 42.23929-21.97221 43.16628-18.6877 43.74431-16.67722 44.32234-14.66673 45.24933-11.50491 45.82738-9.57054 46.40541-7.63615 47.3324-4.59546 47.91045-2.73557 48.48848-.87566 49.41545 2.04703 49.99348 3.8344 50.57153 5.62178 51.49852 8.42976 52.07655 10.14664 52.6546 11.86353 53.58159 14.56023 54.15962 16.20854 54.73767 17.85686 55.66466 20.4451 56.24269 22.02669 56.82072 23.60828 57.74771 26.09087 58.32576 27.60756 58.9038 29.12427 59.83076 31.5044 60.40881 32.9581 60.98685 34.4118 61.91383 36.6923 62.49187 38.08492 63.06992 39.47752 63.9969 41.66165 64.57494 42.99506 65.15298 44.32845 66.07997 46.4191 66.658 47.69514 67.23605 48.9712 68.16302 50.97142 68.74106 52.19205 69.31909 53.41267 70.24608 55.32553 70.82413 56.4926 71.40216 57.65967 72.32915 59.48816 72.9072 60.60356 73.48523 61.71896 74.41222 63.46608 74.99025 64.53171 75.5683 65.59734 76.49529 67.26616 77.07332 68.2839 77.65137 69.30165 78.57834 70.89514 79.15637 71.86688 79.73442 72.83862 80.6614 74.35994 81.23944 75.28757 81.81747 76.21518 82.74446 77.66719 83.32251 78.55258 83.90054 79.43797 84.82753 80.82385 85.40558 81.6689 85.98361 82.51395 86.9106 83.8366 87.48863 84.64319 88.06668 85.4498 88.99365 86.71231 89.57169 87.48233 90.14973 88.25235 91.07672 89.45775 91.65475 90.1931 92.2328 90.92845 93.15979 92.07974 93.73782 92.7823 94.31586 93.48486 95.24284 94.58507 95.82089 95.25673 96.39893 95.92839 97.3259 96.98056 97.90395 97.62318 98.48198 98.26582 99.40897 99.27296 99.987 99.88849 100.56505 100.504 101.49203 101.46915 102.07007 102.0594 102.64812 102.64966 103.5751 103.57587 104.15314 104.14278 104.73119 104.70969 105.65817 105.59991 106.2362 106.14536 106.81424 106.69081 107.74121 107.54814 108.31926 108.074 108.8973 108.59987 109.82428 109.42728 110.40233 109.93546 110.98036 110.44363 111.90735 111.24422 112.48538 111.73659 113.06343 112.22894 113.99042 113.00569 114.56845 113.48413 115.1465 113.96257 116.07349 114.71852 116.65152 115.18492 117.22957 115.65134 118.15654 116.38947 118.73457 116.84575 119.3126 117.30202 120.2396 118.02544 120.81764 118.47345 121.39568 118.92146 122.32266 119.63315 122.90071 120.07478 123.47874 120.51642 124.40573 121.21935 124.98376 121.65651 125.56181 122.09367 126.4888 122.791 127.06683 123.22556 127.64488 123.66013 128.57186 124.35477 129.14989 124.7886 129.72794 125.22246 130.65493 125.91745 131.23296 126.35246 131.81099 126.78749 132.73798 127.48589 133.31603 127.92398 133.89406 128.36209 134.82105 129.06703 135.3991 129.5101 135.97713 129.95316 136.9041 130.66745 137.48213 131.11736 138.06018 131.56726 138.98717 132.29409 139.5652 132.7527 140.14325 133.2113 141.07024 133.95352 141.64827 134.42275 142.22632 134.89197 143.1533 135.6529 143.73134 136.13463 144.30937 136.61637 145.23636 137.39871 145.8144 137.89482 146.39244 138.39095 147.31941 139.19795 147.89746 139.71038 148.4755 140.22278 149.40248 141.05747 149.98052 141.58805 150.55857 142.11862 151.48555 142.98384 152.06359 143.53447 152.64163 144.0851 153.56862 144.9841 154.14665 145.55666 154.7247 146.12921 155.65169 147.06473 156.22972 147.66112 156.80776 148.25749 157.73473 149.23287 158.31278 149.85503 158.89081 150.4772 159.8178 151.49568 160.39585 152.14533 160.97388 152.79497 161.90087 153.85805 162.4789 154.53723 163.05695 155.2164 163.98394 156.32996 164.56197 157.04047 165.14002 157.75098 166.06699 158.91432 166.64502 159.65816 167.22307 160.40201 168.15006 161.6227 168.72809 162.40166 169.30612 163.18064 170.23311 164.45655 170.81116 165.27249 171.38919 166.08844 172.31618 167.42754 172.89423 168.28253 173.47226 169.13755 174.39925 170.5391 174.97728 171.43488 175.55533 172.33066 176.4823 173.80028 177.06034 174.73877 177.63838 175.67726 178.56537 177.21578 179.1434 178.1989 179.72145 179.18204 180.64844 180.79497 181.22647 181.82453 181.8045 182.85407 182.73149 184.5414 183.30954 185.61923 183.88758 186.69707 184.81456 188.4648 185.39261 189.59285 185.97064 190.7209 186.89762 192.56929 187.47565 193.7495 188.0537 194.9297 188.98069 196.86463 189.55872 198.09899 190.13677 199.33333 191.06375 201.35576 191.64179 202.6459 192.21984 203.93605 193.14682 206.04949 193.72486 207.39749 194.30289 208.74552 195.22986 210.95375 195.8079 212.36151 196.38594 213.76926 197.31293 216.0744 197.89098 217.5436 198.46901 219.0128 199.396 221.41777 199.97403 222.95047 200.55208 224.48319 201.47907 226.99222 202.0571 228.5904 202.63515 230.18857 203.56214 232.80374 204.14017 234.46901 204.71822 236.13428 206.22322 240.59252 206.22322 240.59252"/>
<path transform="matrix(1.00003,0,0,-1.00009,11.627754,227.92134)" stroke-width=".99628" stroke-linecap="butt" stroke-dasharray="2.98883,1.99255,.3985,1.99255" stroke-miterlimit="10" stroke-linejoin="miter" fill="none" stroke="#984ea3" d="M0-776.77658C0-776.77658 1.505-731.03897 2.08304-714.225 2.66109-697.4111 3.58807-671.3461 4.1661-655.59329 4.74416-639.84048 5.67114-615.4397 6.24918-600.6896 6.82721-585.9394 7.7542-563.08187 8.33224-549.2844 8.91028-535.487 9.83725-514.1412 10.4153-501.24745 10.99333-488.3537 11.92032-468.39735 12.49837-456.3554 13.0764-444.31343 14.00339-425.69206 14.58142-414.45719 15.15947-403.2223 16.08646-385.85609 16.66449-375.38218 17.24254-364.90827 18.16953-348.72438 18.74756-338.96849 19.32559-329.21263 20.25256-314.14793 20.83061-305.0687 21.40865-295.98948 22.33563-281.97428 22.91368-273.53169 23.49171-265.0891 24.4187-252.06421 24.99673-244.22035 25.57478-236.3765 26.50177-224.28028 27.0798-216.9986 27.65785-209.71692 28.58484-198.49346 29.16287-191.73905 29.74092-184.98465 30.6679-174.5778 31.24593-168.31749 31.82396-162.05716 32.75095-152.41698 33.329-146.6189 33.90703-140.82082 34.83401-131.89519 35.41206-126.52887 35.9901-121.16255 36.91708-112.9053 37.49512-107.94221 38.07317-102.97914 39.00014-95.3458 39.57817-90.75842 40.15622-86.17104 41.0832-79.1173 41.66124-74.87949 42.23929-70.64168 43.16628-64.12817 43.74431-60.2152 44.32234-56.30222 45.24933-50.28911 45.82738-46.67744 46.40541-43.06577 47.3324-37.51697 47.91045-34.1847 48.48848-30.85242 49.41545-25.73456 49.99348-22.6607 50.57153-19.58684 51.49852-14.8659 52.07655-12.03049 52.6546-9.19508 53.58159-4.84052 54.15962-2.22496 54.73767 .3906 55.66466 4.40753 56.24269 6.82066 56.82072 9.2338 57.74771 12.94016 58.32576 15.1672 58.9038 17.39424 59.83076 20.81543 60.40881 22.87173 60.98685 24.92804 61.91383 28.08775 62.49187 29.98773 63.06992 31.88771 63.9969 34.80849 64.57494 36.5655 65.15298 38.32253 66.07997 41.02467 66.658 42.65117 67.23605 44.27765 68.16302 46.78058 68.74106 48.28813 69.31909 49.79568 70.24608 52.11725 70.82413 53.51656 71.40216 54.91585 72.32915 57.07245 72.9072 58.37338 73.48523 59.67433 74.41222 61.68118 74.99025 62.89287 75.5683 64.10457 76.49529 65.97565 77.07332 67.10641 77.65137 68.23718 78.57834 69.98523 79.15637 71.04276 79.73442 72.10028 80.6614 73.73709 81.23944 74.72833 81.81747 75.71956 82.74446 77.2556 83.32251 78.18687 83.90054 79.11815 84.82753 80.56326 85.40558 81.44032 85.98361 82.31738 86.9106 83.68011 87.48863 84.50813 88.06668 85.33617 88.99365 86.6245 89.57169 87.40813 90.14973 88.19176 91.07672 89.41267 91.65475 90.15608 92.2328 90.89949 93.15979 92.05925 93.73782 92.76616 94.31586 93.47307 95.24284 94.57729 95.82089 95.25098 96.39893 95.92467 97.3259 96.97833 97.90395 97.62175 98.48198 98.26515 99.40897 99.27258 99.987 99.8883 100.56505 100.50401 101.49203 101.46912 102.07007 102.0594 102.64812 102.64969 103.5751 103.57588 104.15314 104.14276 104.73119 104.70964 105.65817 105.59991 106.2362 106.14519 106.81424 106.69048 107.74121 107.5475 108.31926 108.07275 108.8973 108.59802 109.82428 109.42422 110.40233 109.9309 110.98036 110.43756 111.90735 111.23514 112.48538 111.72455 113.06343 112.21396 113.99042 112.9849 114.56845 113.45828 115.1465 113.93167 116.07349 114.67793 116.65152 115.13649 117.22957 115.59506 118.15654 116.31847 118.73457 116.76341 119.3126 117.20836 120.2396 117.91089 120.81764 118.34343 121.39568 118.77597 122.32266 119.4595 122.90071 119.88092 123.47874 120.30234 124.40573 120.96902 124.98376 121.3807 125.56181 121.79239 126.4888 122.44463 127.06683 122.84813 127.64488 123.25162 128.57186 123.89188 129.14989 124.28888 129.72794 124.68587 130.65493 125.31702 131.23296 125.70944 131.81099 126.10187 132.73798 126.7272 133.31603 127.11726 133.89406 127.50732 134.82105 128.13066 135.3991 128.52082 135.97713 128.91098 136.9041 129.53627 137.48213 129.92929 138.06018 130.32233 138.98717 130.95449 139.5652 131.35352 140.14325 131.75257 141.07024 132.39669 141.64827 132.80529 142.22632 133.21389 143.1533 133.87631 143.73134 134.2985 144.30937 134.72069 145.23636 135.40796 145.8144 135.8482 146.39244 136.28844 147.31941 137.0082 147.89746 137.47145 148.4755 137.93473 149.40248 138.69538 149.98052 139.18718 150.55857 139.67897 151.48555 140.48963 152.06359 141.01607 152.64163 141.54251 153.56862 142.41373 154.14665 142.98148 154.7247 143.54923 155.65169 144.49152 156.22972 145.10807 156.80776 145.72461 157.73473 146.75159 158.31278 147.42519 158.89081 148.09879 159.8178 149.2239 160.39585 149.96297 160.97388 150.70203 161.90087 151.93753 162.4789 152.75185 163.05695 153.56615 163.98394 154.93215 164.56197 155.832 165.14002 156.73188 166.06699 158.24062 166.64502 159.23748 167.22307 160.23433 168.15006 161.91107 168.72809 163.01673 169.30612 164.12238 170.23311 165.97859 170.81116 167.20638 171.38919 168.43415 172.31618 170.50165 172.89423 171.86569 173.47226 173.22972 174.39925 175.52265 174.97728 177.03748 175.55533 178.5523 176.4823 181.10166 177.06034 182.78359 177.63838 184.46552 178.56537 187.29372 179.1434 189.1597 179.72145 191.02568 180.64844 194.16414 181.22647 196.23236 181.8045 198.30057 182.73149 201.77722 183.30954 204.06597 183.88758 206.35472 184.81456 210.1975 185.39261 212.72809 185.97064 215.25868 186.89762 219.50855 187.47565 222.30483 188.0537 225.10112 188.98069 229.79949 189.55872 232.88175 190.13677 235.964 191.06375 241.12767 191.64179 244.51969 192.21984 247.91168 193.14682 253.59818 193.72486 257.32896 194.30289 261.05976 195.22986 267.3147 195.8079 271.40858 196.38594 275.50248 197.31293 282.34986 197.89098 286.83485 198.46901 291.3199 199.396 298.82737 199.97403 303.73359 200.55208 308.63978 201.47907 316.8368 202.0571 322.19548 202.63515 327.5541 203.56214 336.51017 204.14017 342.3551 204.71822 348.2 206.22322 364.32173 206.22322 364.32173"/>
<path transform="matrix(1.00003,0,0,-1.00009,11.627754,227.92134)" stroke-width=".99628" stroke-linecap="butt" stroke-dasharray="2.98883,1.99255,.3985,1.99255,.3985,1.99255" stroke-miterlimit="10" stroke-linejoin="miter" fill="none" stroke="#ff7f00" d="M0-2269.4102C0-2269.4102 1.505-2084.326 2.08304-2017.9882 2.66109-1951.6505 3.58807-1851.0658 4.1661-1791.2944 4.74416-1731.5231 5.67114-1640.9815 6.24918-1587.1979 6.82721-1533.4143 7.7542-1451.9834 8.33224-1403.6598 8.91028-1355.3363 9.83725-1282.2682 10.4153-1238.9157 10.99333-1195.5632 11.92032-1130.0437 12.49837-1091.2055 13.0764-1052.3672 14.00339-993.73867 14.58142-958.9966 15.15947-924.2546 16.08646-871.8436 16.66449-840.80899 17.24254-809.77438 18.16953-763.004 18.74756-735.3206 19.32559-707.63717 20.25256-665.945 20.83061-641.2859 21.40865-616.6268 22.33563-579.53079 22.91368-557.5949 23.49171-535.65908 24.4187-502.67768 24.99673-483.18754 25.57478-463.6974 26.50177-434.41664 27.0798-417.1235 27.65785-399.83036 28.58484-373.87538 29.16287-358.5505 29.74092-343.22566 30.6679-320.2411 31.24593-306.6726 31.82396-293.1041 32.75095-272.76078 33.329-260.7582 33.90703-248.75562 34.83401-230.77429 35.41206-220.1664 35.9901-209.5585 36.91708-193.67307 37.49512-184.30384 38.07317-174.93462 39.00014-160.91094 39.57817-152.63951 40.15622-144.3681 41.0832-131.99005 41.66124-124.68927 42.23929-117.38849 43.16628-106.46465 43.74431-100.02054 44.32234-93.57645 45.24933-83.93451 45.82738-78.24464 46.40541-72.5548 47.3324-64.03867 47.91045-59.012 48.48848-53.98532 49.41545-46.46083 49.99348-42.01582 50.57153-37.57083 51.49852-30.91177 52.07655-26.97548 52.6546-23.03918 53.58159-17.13744 54.15962-13.64569 54.73767-10.15393 55.66466-4.91325 56.24269-1.80931 56.82072 1.2946 57.74771 5.95924 58.32576 8.7254 58.9038 11.49155 59.83076 15.65492 60.40881 18.12726 60.98685 20.59958 61.91383 24.32722 62.49187 26.54431 63.06992 28.7614 63.9969 32.11104 64.57494 34.10655 65.15298 36.10208 66.07997 39.12346 66.658 40.92664 67.23605 42.72981 68.16302 45.4664 68.74106 47.10268 69.31909 48.73897 70.24608 51.22849 70.82413 52.71985 71.40216 54.21121 72.32915 56.48607 72.9072 57.85147 73.48523 59.21687 74.41222 61.30502 74.99025 62.56078 75.5683 63.81651 76.49529 65.742 77.07332 66.90207 77.65137 68.06215 78.57834 69.84546 79.15637 70.92184 79.73442 71.99823 80.6614 73.65707 81.23944 74.66 81.81747 75.66295 82.74446 77.21213 83.32251 78.15036 83.90054 79.08858 84.82753 80.5411 85.40558 81.42206 85.98361 82.30302 86.9106 83.6697 87.48863 84.49977 88.06668 85.32983 88.99365 86.62004 89.57169 87.40466 90.14973 88.18929 91.07672 89.41101 91.65475 90.15486 92.2328 90.8987 93.15979 92.05875 93.73782 92.76581 94.31586 93.47287 95.24284 94.57718 95.82089 95.25092 96.39893 95.92465 97.3259 96.9783 97.90395 97.62173 98.48198 98.26515 99.40897 99.27258 99.987 99.8883 100.56505 100.50401 101.49203 101.46912 102.07007 102.0594 102.64812 102.64969 103.5751 103.57588 104.15314 104.14276 104.73119 104.70964 105.65817 105.59991 106.2362 106.14519 106.81424 106.69048 107.74121 107.54752 108.31926 108.07275 108.8973 108.598 109.82428 109.4242 110.40233 109.93083 110.98036 110.43747 111.90735 111.23499 112.48538 111.72429 113.06343 112.2136 113.99042 112.98431 114.56845 113.45744 115.1465 113.93059 116.07349 114.6763 116.65152 115.13431 117.22957 115.59232 118.15654 116.31462 118.73457 116.75848 119.3126 117.20235 120.2396 117.90282 120.81764 118.33348 121.39568 118.76416 122.32266 119.44414 122.90071 119.8625 123.47874 120.28085 124.40573 120.9418 124.98376 121.34883 125.56181 121.75584 126.4888 122.39938 127.06683 122.79608 127.64488 123.19278 128.57186 123.8205 129.14989 124.208 129.72794 124.5955 130.65493 125.20929 131.23296 125.58894 131.81099 125.9686 132.73798 126.57085 133.31603 126.9443 133.89406 127.31778 134.82105 127.91139 135.3991 128.2807 135.97713 128.65001 136.9041 129.23834 137.48213 129.606 138.06018 129.97367 138.98717 130.56139 139.5652 130.93058 140.14325 131.29976 141.07024 131.89212 141.64827 132.26683 142.22632 132.64154 143.1533 133.24604 143.73134 133.63127 144.30937 134.0165 145.23636 134.64147 145.8144 135.04343 146.39244 135.44538 147.31941 136.10202 147.89746 136.52838 148.4755 136.95475 149.40248 137.65631 149.98052 138.11635 150.55857 138.57639 151.48555 139.33905 152.06359 139.8441 152.64163 140.34915 153.56862 141.19277 154.14665 141.75646 154.7247 142.32015 155.65169 143.26807 156.22972 143.9068 156.80776 144.54553 157.73473 145.62656 158.31278 146.36003 158.89081 147.09352 159.8178 148.34253 160.39585 149.19324 160.97388 150.04396 161.90087 151.49648 162.4789 152.49149 163.05695 153.48648 163.98394 155.19355 164.56197 156.36458 165.14002 157.53562 166.06699 159.54804 166.64502 160.9316 167.22307 162.31517 168.15006 164.69863 168.72809 166.33643 169.30612 167.97423 170.23311 170.79453 170.81116 172.73575 171.38919 174.67699 172.31618 178.02758 172.89423 180.32756 173.47226 182.62755 174.39925 186.58998 174.97728 189.31244 175.55533 192.03488 176.4823 196.73203 177.06034 199.94915 177.63838 203.16625 178.56537 208.70639 179.1434 212.49912 179.72145 216.29184 180.64844 222.82427 181.22647 227.28455 181.8045 231.74481 182.73149 239.41695 183.30954 244.6457 183.88758 249.87445 184.81456 258.85466 185.39261 264.96977 185.97064 271.0849 186.89762 281.58738 187.47565 288.71925 188.0537 295.85115 188.98069 308.08308 189.55872 316.3715 190.13677 324.65995 191.06375 338.8505 191.64179 348.45655 192.21984 358.06263 193.14682 374.50248 193.72486 385.6054 194.30289 396.7084 195.22986 415.68678 195.8079 428.47908 196.38594 441.27137 197.31293 463.10783 197.89098 477.80348 198.46901 492.4991 199.396 517.5607 199.97403 534.3951 200.55208 551.22946 201.47907 579.9033 202.0571 599.1337 202.63515 618.364 203.56214 651.07418 204.14017 672.99398 204.71822 694.9138 206.22322 757.1165 206.22322 757.1165"/>
</g>
<use data-text="x" xlink:href="#font_4_2" transform="matrix(9.962899,0,0,-9.963496,231.38336,126.923259)"/>
<use data-text="y" xlink:href="#font_4_3" transform="matrix(9.962899,0,0,-9.963496,112.145778,6.2083895)"/>
<path transform="matrix(1.00003,0,0,-1.00009,11.627754,227.92134)" d="M6.99063-57.82654H199.23329V-41.443414H6.99063Z" fill="#ffffff"/>
<path transform="matrix(1.00003,0,0,-1.00009,11.627754,227.92134)" stroke-width=".3985" stroke-linecap="butt" stroke-miterlimit="10" stroke-linejoin="miter" fill="none" stroke="#000000" d="M6.99063-57.82654H199.23329V-41.443414H6.99063Z"/>
<path transform="matrix(1.00003,0,0,-1.00009,22.106072,277.5608)" stroke-width=".99628" stroke-linecap="butt" stroke-miterlimit="10" stroke-linejoin="miter" fill="none" stroke="#e41a1c" d="M0 0C0 0 6.14426 0 8.50412 0 10.86398 0 17.00826 0 17.00826 0"/>
<use data-text="l" xlink:href="#font_5_2" transform="matrix(9.962899,0,0,-9.963496,45.09176,280.27305)"/>
<use data-text="i" xlink:href="#font_5_1" transform="matrix(9.962899,0,0,-9.963496,47.851488,280.27305)"/>
<use data-text="m" xlink:href="#font_5_3" transform="matrix(9.962899,0,0,-9.963496,50.611215,280.27305)"/>
<use data-text="n" xlink:href="#font_6_1" transform="matrix(6.9740097,0,0,-6.9744279,41.604654,286.2516)"/>
<use data-text="&#x2192;" xlink:href="#font_7_1" transform="matrix(6.9740097,0,0,-6.9744279,46.529809,286.2516)"/>
<use data-text="&#x221e;" xlink:href="#font_7_2" transform="matrix(6.9740097,0,0,-6.9744279,54.466226,286.2516)"/>
<use data-text="S" xlink:href="#font_4_1" transform="matrix(9.962899,0,0,-9.963496,64.07633,280.27305)"/>
<use data-text="n" xlink:href="#font_6_1" transform="matrix(6.9740097,0,0,-6.9744279,70.18551,281.76719)"/>
<path transform="matrix(1.00003,0,0,-1.00009,78.09876,277.5608)" stroke-width=".99628" stroke-linecap="butt" stroke-dasharray="2.98883,2.98883" stroke-miterlimit="10" stroke-linejoin="miter" fill="none" stroke="#377eb8" d="M0 0C0 0 6.14426 0 8.50412 0 10.86398 0 17.00826 0 17.00826 0"/>
<use data-text="S" xlink:href="#font_4_1" transform="matrix(9.962899,0,0,-9.963496,97.598339,280.21803)"/>
<use data-text="1" xlink:href="#font_8_1" transform="matrix(6.9740097,0,0,-6.9744279,103.70751,281.71217)"/>
<path transform="matrix(1.00003,0,0,-1.00009,110.66773,277.5608)" stroke-width=".99628" stroke-linecap="butt" stroke-dasharray=".99628,1.99255" stroke-miterlimit="10" stroke-linejoin="miter" fill="none" stroke="#4daf4a" d="M0 0C0 0 6.14426 0 8.50412 0 10.86398 0 17.00826 0 17.00826 0"/>
<use data-text="S" xlink:href="#font_4_1" transform="matrix(9.962899,0,0,-9.963496,130.16733,280.21803)"/>
<use data-text="3" xlink:href="#font_8_2" transform="matrix(6.9740097,0,0,-6.9744279,136.27649,281.71217)"/>
<path transform="matrix(1.00003,0,0,-1.00009,143.2367,277.5608)" stroke-width=".99628" stroke-linecap="butt" stroke-dasharray="2.98883,1.99255,.3985,1.99255" stroke-miterlimit="10" stroke-linejoin="miter" fill="none" stroke="#984ea3" d="M0 0C0 0 6.14426 0 8.50412 0 10.86398 0 17.00826 0 17.00826 0"/>
<use data-text="S" xlink:href="#font_4_1" transform="matrix(9.962899,0,0,-9.963496,162.73628,280.21803)"/>
<use data-text="5" xlink:href="#font_8_3" transform="matrix(6.9740097,0,0,-6.9744279,168.84546,281.71217)"/>
<path transform="matrix(1.00003,0,0,-1.00009,175.80469,277.5608)" stroke-width=".99628" stroke-linecap="butt" stroke-dasharray="2.98883,1.99255,.3985,1.99255,.3985,1.99255" stroke-miterlimit="10" stroke-linejoin="miter" fill="none" stroke="#ff7f00" d="M0 0C0 0 6.14426 0 8.50412 0 10.86398 0 17.00826 0 17.00826 0"/>
<use data-text="S" xlink:href="#font_4_1" transform="matrix(9.962899,0,0,-9.963496,195.30428,280.21803)"/>
<use data-text="7" xlink:href="#font_8_4" transform="matrix(6.9740097,0,0,-6.9744279,201.41347,281.71217)"/>
</svg>
