<svg xmlns="http://www.w3.org/2000/svg" xmlns:xlink="http://www.w3.org/1999/xlink" xmlns:inkscape="http://www.inkscape.org/namespaces/inkscape" version="1.1" width="237" height="299" viewBox="0 0 237 299">
<defs>
<clipPath id="clip_1">
<path transform="matrix(1.00003,0,0,-1.00005,10.921852,227.89374)" d="M0 0H206.22638V206.22638H0Z"/>
</clipPath>
<clipPath id="clip_2">
<path transform="matrix(1.00003,0,0,-1.00005,10.921852,227.89374)" d="M0 0H206.22638V206.22638H0Z"/>
</clipPath>
<clipPath id="clip_3">
<path transform="matrix(1.00003,0,0,-1.00005,10.921852,227.89374)" d="M0 0H206.22638V206.22638H0Z"/>
</clipPath>
<path id="font_4_1" d="M.69898989 .22743225C.71499636 .22743225 .7369995 .22743225 .7369995 .25042726 .7369995 .2734375 .71499636 .2734375 .69898989 .2734375H.12599182C.10998535 .2734375 .08799744 .2734375 .08799744 .25042726 .08799744 .22743225 .10998535 .22743225 .12599182 .22743225H.69898989Z"/>
<path id="font_5_2" d="M.31399537 .63708499C.31399537 .664032 .31199647 .66503909 .2849884 .66503909 .24398804 .6251831 .19099427 .6013489 .09599304 .6013489V.5683594C.12298584 .5683594 .1769867 .5683594 .23498535 .5953522V.08203125C.23498535 .04499817 .23199463 .032989503 .13699341 .032989503H.101989749V0C.14299011 .0029907227 .22898865 .0029907227 .27398683 .0029907227 .31900025 .0029907227 .4059906 .0029907227 .44699098 0V.032989503H.4119873C.31698609 .032989503 .31399537 .04499817 .31399537 .08203125V.63708499Z"/>
<path id="font_6_1" d="M.20298767 .054992677C.20298767 .08898926 .1749878 .11099243 .147995 .11099243 .115997318 .11099243 .09199524 .084991458 .09199524 .055999757 .09199524 .021987915 .11999512 0 .14698792 0 .1789856 0 .20298767 .025985718 .20298767 .054992677Z"/>
<path id="font_5_1" d="M.4889984 .31877137C.4889984 .42585755 .47799684 .49090577 .44499208 .55496218 .40098573 .6430359 .31999208 .66503909 .2649994 .66503909 .13899231 .66503909 .09298706 .5709839 .07899475 .5429535 .042999269 .4698944 .040985109 .3708191 .040985109 .31877137 .040985109 .25271607 .04399109 .15162659 .09199524 .07156372 .13798523-.0024871827 .21199036-.021484375 .2649994-.021484375 .31298829-.021484375 .39898683-.0064849855 .44898988 .09257507 .48599244 .16464234 .4889984 .2537079 .4889984 .31877137M.2649994 .006515503C.23098755 .006515503 .1619873 .022521973 .14099121 .12760926 .12998963 .18466187 .12998963 .2787323 .12998963 .33078004 .12998963 .3998413 .12998963 .4698944 .14099121 .5249481 .1619873 .6270294 .23999024 .6370239 .2649994 .6370239 .29899598 .6370239 .36799623 .62002566 .3880005 .5289459 .3999939 .4738922 .3999939 .39883424 .3999939 .33078004 .3999939 .27172853 .3999939 .18165589 .3880005 .12561035 .36698915 .020523072 .2979889 .006515503 .2649994 .006515503Z"/>
<path id="font_5_5" d="M.3919983 .29478456C.3919983 .050704957 .27598573 .008514404 .21798706 .008514404 .19699097 .008514404 .14498902 .011520386 .117996219 .04270935 .1619873 .046707155 .16499329 .079711917 .16499329 .08970642 .16499329 .1197052 .14199829 .13671875 .117996219 .13671875 .099990848 .13671875 .070999149 .12571717 .070999149 .08770752 .070999149 .019577027 .1269989-.021484375 .21899414-.021484375 .35598756-.021484375 .48599244 .114715579 .48599244 .3287964 .48599244 .58898928 .37098695 .66503909 .2679901 .66503909 .1499939 .66503909 .04399109 .5729828 .04399109 .44187928 .04399109 .31278993 .14099121 .21875 .2539978 .21875 .32499696 .21875 .36799623 .26374818 .3919983 .31478883V.29478456M.2579956 .24674988C.21199036 .24674988 .18299866 .26776124 .16099549 .30477906 .13798523 .34181214 .13798523 .3898468 .13798523 .44088746 .13798523 .4999237 .13798523 .54196169 .16499329 .58299258 .18998719 .61901858 .22200012 .6390381 .2689972 .6390381 .33599855 .6390381 .36499024 .5729828 .36799623 .5679779 .3889923 .51893618 .3899994 .44088746 .3899994 .42086793 .3899994 .34181214 .34700013 .24674988 .2579956 .24674988Z"/>
<path id="font_5_3" d="M.28199769 .20405579C.2979889 .21907044 .33999635 .2520752 .35598756 .26608277 .41799928 .32312013 .47698976 .3781433 .47698976 .46917726 .47698976 .588089 .3769989 .66503909 .2519989 .66503909 .13198853 .66503909 .052993776 .57411196 .052993776 .48516847 .052993776 .4361725 .09199524 .4291687 .10598755 .4291687 .1269989 .4291687 .1579895 .4441681 .1579895 .48217774 .1579895 .5341797 .10798645 .5341797 .09599304 .5341797 .125 .6070709 .19198609 .6320343 .24099732 .6320343 .33399964 .6320343 .38198854 .55314639 .38198854 .46917726 .38198854 .36514283 .30899049 .28910829 .19099427 .16804505L.06498718 .037994386C.052993776 .026992798 .052993776 .024993897 .052993776 0H.44799806L.47698976 .17904663H.44599916C.44299317 .1590271 .43499757 .10900879 .4229889 .08999634 .4169922 .08198547 .34098817 .08198547 .32499696 .08198547H.14698792L.28199769 .20405579Z"/>
<path id="font_5_4" d="M.25299073 .33370973C.33198548 .33370973 .38198854 .27557374 .38198854 .17037964 .38198854 .045440675 .31098939 .008514404 .2579956 .008514404 .20298767 .008514404 .12799073 .0284729 .09298706 .08137512 .1289978 .08137512 .1539917 .10437012 .1539917 .13737488 .1539917 .16937256 .1309967 .19238281 .09899902 .19238281 .07199097 .19238281 .04399109 .17536927 .04399109 .13537598 .04399109 .04045105 .1459961-.021484375 .2599945-.021484375 .3929901-.021484375 .48599244 .070388797 .48599244 .17037964 .48599244 .25352479 .41999818 .32969667 .31799317 .3517456 .39698792 .37982179 .45599366 .4479828 .45599366 .52804568 .45599366 .6080475 .3659973 .66503909 .2619934 .66503909 .15499878 .66503909 .07398987 .6070404 .07398987 .53105166 .07398987 .49404908 .09899902 .4780426 .125 .4780426 .1559906 .4780426 .17599488 .5000458 .17599488 .52905276 .17599488 .56604006 .14399719 .5800476 .12199402 .5810547 .1639862 .6360321 .24099732 .6390381 .25898744 .6390381 .2849884 .6390381 .36099244 .6310272 .36099244 .52804568 .36099244 .45799256 .33198548 .41589356 .31799317 .39985658 .28799439 .36878968 .2649994 .36679078 .20399475 .3627777 .18499756 .36177064 .1769867 .36076356 .1769867 .3477478 .1769867 .33370973 .18598938 .33370973 .20298767 .33370973H.25299073Z"/>
<clipPath id="clip_7">
<path transform="matrix(1.00003,0,0,-1.00005,10.921852,227.89374)" d="M0 0H206.22638V206.22638H0Z"/>
</clipPath>
<path id="font_8_1" d="M.15899658 .07795715C.14898682 .038986207 .14698792 .0309906 .067993167 .0309906 .050994874 .0309906 .039993287 .0309906 .039993287 .011993408 .039993287 0 .04899597 0 .067993167 0H.39898683C.6069946 0 .80400088 .21087647 .80400088 .42974855 .80400088 .5706482 .71899417 .6826172 .56900027 .6826172H.23298645C.21398926 .6826172 .20298767 .6826172 .20298767 .66360476 .20298767 .6516113 .21199036 .6516113 .23199463 .6516113 .24499512 .6516113 .2630005 .65060427 .2749939 .6496124 .29100038 .6476135 .29699708 .64460757 .29699708 .6336212 .29699708 .6296234 .29599 .62661746 .29299928 .614624L.15899658 .07795715M.375 .6136322C.38398744 .64860537 .38598634 .6516113 .42900086 .6516113H.5359955C.6339874 .6516113 .71699526 .5986328 .71699526 .46672059 .71699526 .41775514 .69699099 .25386048 .6119995 .1439209 .58299258 .10694885 .5039978 .0309906 .3809967 .0309906H.2679901C.2539978 .0309906 .2519989 .0309906 .24598694 .03199768 .23599243 .032989503 .23298645 .033996583 .23298645 .041992189 .23298645 .04498291 .23298645 .04698181 .23799134 .064971927L.375 .6136322Z"/>
<path id="font_8_2" d="M.33399964 .30233766C.33999635 .32835389 .36299134 .42037965 .43299867 .42037965 .43798829 .42037965 .46199037 .42037965 .48298646 .40734864 .45498658 .402359 .43499757 .37734986 .43499757 .35334779 .43499757 .33735658 .44599916 .31835938 .47299195 .31835938 .49499513 .31835938 .5269928 .3363495 .5269928 .37635804 .5269928 .42837525 .46798707 .4423828 .43399049 .4423828 .37599183 .4423828 .34098817 .38935853 .32899476 .36634828 .3039856 .43237306 .25 .4423828 .22099304 .4423828 .116989139 .4423828 .05999756 .3133545 .05999756 .28834535 .05999756 .27833558 .069992069 .27833558 .07199097 .27833558 .07998657 .27833558 .08299255 .28033448 .084991458 .28933717 .11898804 .39535523 .18499756 .42037965 .21899414 .42037965 .23799134 .42037965 .272995 .4113617 .272995 .35334779 .272995 .32235719 .2559967 .25532533 .21899414 .11528015 .20298767 .053268434 .16799927 .011245728 .12399292 .011245728 .117996219 .011245728 .09498596 .011245728 .07398987 .024276734 .09899902 .029266358 .12098694 .05027771 .12098694 .07827759 .12098694 .105270389 .09899902 .11328125 .083999637 .11328125 .053985597 .11328125 .0289917 .08728027 .0289917 .055267335 .0289917 .009246826 .07899475-.0107421879 .12298584-.0107421879 .18899536-.0107421879 .22499085 .059280397 .22799683 .0652771 .23999024 .028274537 .27598573-.0107421879 .33599855-.0107421879 .43899537-.0107421879 .49598695 .118270877 .49598695 .14328003 .49598695 .1532898 .4869995 .1532898 .48399354 .1532898 .47499085 .1532898 .47299195 .14929199 .47099305 .14228821 .43798829 .03527832 .36999513 .011245728 .33799745 .011245728 .29899598 .011245728 .2829895 .043273927 .2829895 .07727051 .2829895 .09927368 .2889862 .121276859 .2999878 .16529846L.33399964 .30233766Z"/>
<path id="font_8_3" d="M.48599244 .38136292C.48999024 .39537049 .48999024 .39736939 .48999024 .40437318 .48999024 .42237855 .47599793 .43138124 .46099855 .43138124 .45098878 .43138124 .43499757 .42536927 .42599488 .41036988 .42399598 .405365 .41600038 .37435914 .4119873 .35635377 .40499879 .33035279 .397995 .30334474 .3919983 .27633668L.34700013 .09628296C.34298707 .08126831 .2999878 .011245728 .23399353 .011245728 .18299866 .011245728 .17199707 .055267335 .17199707 .0922699 .17199707 .1382904 .18899536 .20030213 .22299195 .28833009 .23899842 .3293457 .24299622 .3403473 .24299622 .36035157 .24299622 .405365 .21099854 .4423828 .16099549 .4423828 .06599426 .4423828 .0289917 .29733277 .0289917 .28833009 .0289917 .27833558 .038986207 .27833558 .040985109 .27833558 .050994874 .27833558 .051986696 .28033448 .056991579 .29634095 .083999637 .3903656 .12399292 .42037965 .1579895 .42037965 .1659851 .42037965 .18299866 .42037965 .18299866 .3883667 .18299866 .36335755 .17298889 .3373413 .1659851 .31834413 .12599182 .21231079 .10798645 .1552887 .10798645 .10827637 .10798645 .019256592 .17098999-.0107421879 .22999573-.0107421879 .2689972-.0107421879 .30299378 .0062561037 .33099366 .03425598 .31799317-.017745972 .30599977-.06674194 .2659912-.11973572 .23999024-.15385437 .20199585-.18309021 .1559906-.18309021 .14199829-.18309021 .09700012-.18005371 .07998657-.14074707 .09599304-.14074707 .10899353-.14074707 .12298584-.1287384 .1329956-.11973572 .14299011-.10673523 .14299011-.08773804 .14299011-.056747438 .115997318-.052734376 .10598755-.052734376 .08299255-.052734376 .049987794-.068740848 .049987794-.11773682 .049987794-.16796875 .09399414-.20507813 .1559906-.20507813 .25898744-.20507813 .3619995-.11373901 .3899994-.00074768069L.48599244 .38136292Z"/>
<path id="font_9_4" d="M.68699648 .32714845C.70199587 .32714845 .72099307 .32714845 .72099307 .34713746 .72099307 .36714173 .70199587 .36714173 .6879883 .36714173H.08898926C.07499695 .36714173 .055999757 .36714173 .055999757 .34713746 .055999757 .32714845 .07499695 .32714845 .08999634 .32714845H.68699648M.6879883 .13284302C.70199587 .13284302 .72099307 .13284302 .72099307 .15284729 .72099307 .17285156 .70199587 .17285156 .68699648 .17285156H.08999634C.07499695 .17285156 .055999757 .17285156 .055999757 .15284729 .055999757 .13284302 .07499695 .13284302 .08898926 .13284302H.6879883Z"/>
<path id="font_9_1" d="M.2939911 .64004519C.2939911 .66400149 .2939911 .6660156 .2709961 .6660156 .20899964 .60227969 .12098694 .60227969 .08898926 .60227969V.57128909C.10899353 .57128909 .16799927 .57128909 .21998596 .5972748V.07902527C.21998596 .042999269 .21699524 .0309906 .1269989 .0309906H.09498596V0C.12998963 .0029907227 .21699524 .0029907227 .25698854 .0029907227 .29699708 .0029907227 .38398744 .0029907227 .4189911 0V.0309906H.3869934C.29699708 .0309906 .2939911 .041992189 .2939911 .07902527V.64004519Z"/>
<path id="font_9_3" d="M.2939911 .16503906V.07800293C.2939911 .041992189 .2919922 .0309906 .21798706 .0309906H.19699097V0C.23799134 .0029907227 .2899933 .0029907227 .33198548 .0029907227 .37399293 .0029907227 .4269867 .0029907227 .46798707 0V.0309906H.44699098C.37298585 .0309906 .37098695 .041992189 .37098695 .07800293V.16503906H.47099305V.19602967H.37098695V.65075686C.37098695 .67074587 .37098695 .6767578 .35499574 .6767578 .34599305 .6767578 .34298707 .6767578 .33499146 .66474917L.027999878 .19602967V.16503906H.2939911M.2999878 .19602967H.055999757L.2999878 .5688019V.19602967Z"/>
<path id="font_9_2" d="M.2899933 .35191346C.37199403 .37893678 .42999269 .4490509 .42999269 .52809146 .42999269 .6100464 .34199525 .6660156 .24598694 .6660156 .14498902 .6660156 .068984989 .60606387 .068984989 .53009036 .068984989 .49710084 .09098816 .47808839 .11999512 .47808839 .15098572 .47808839 .17098999 .50009158 .17098999 .5290985 .17098999 .57910159 .12399292 .57910159 .10899353 .57910159 .13999939 .62802127 .20599365 .64100649 .24198914 .64100649 .2829895 .64100649 .33799745 .6190338 .33799745 .5290985 .33799745 .51708987 .33599855 .45906068 .30999757 .4149933 .27999879 .36691285 .24598694 .36390687 .22099304 .36291505 .21299744 .36190797 .18899536 .35990907 .18199158 .35990907 .17399597 .35890199 .16699219 .35791017 .16699219 .3479004 .16699219 .33691407 .17399597 .33691407 .19099427 .33691407H.23498535C.31698609 .33691407 .35398866 .2686615 .35398866 .17037964 .35398866 .034469606 .2849884 .0055389406 .24099732 .0055389406 .19799805 .0055389406 .12298584 .022491456 .08799744 .08137512 .12298584 .07637024 .1539917 .09837341 .1539917 .1363678 .1539917 .17237854 .1269989 .19238281 .09799194 .19238281 .07398987 .19238281 .041992189 .17837525 .041992189 .1343689 .041992189 .043441774 .1349945-.022460938 .24398804-.022460938 .3659973-.022460938 .45700074 .06838989 .45700074 .17037964 .45700074 .252594 .3939972 .33088685 .2899933 .35191346Z"/>
</defs>
<path transform="matrix(1.00003,0,0,-1.00005,10.921852,227.89374)" stroke-width=".09962" stroke-linecap="butt" stroke-miterlimit="10" stroke-linejoin="miter" fill="none" stroke="#d9d9d9" d="M19.82945 0V206.22638M59.48837 0V206.22638M99.1473 0V206.22638M138.80622 0V206.22638M178.46514 0V206.22638"/>
<path transform="matrix(1.00003,0,0,-1.00005,10.921852,227.89374)" stroke-width=".19925" stroke-linecap="butt" stroke-miterlimit="10" stroke-linejoin="miter" fill="none" stroke="#b2b3b2" d="M0 0V206.22638M39.65892 0V206.22638M79.31784 0V206.22638M118.97676 0V206.22638M158.63568 0V206.22638M198.2946 0V206.22638"/>
<path transform="matrix(1.00003,0,0,-1.00005,10.921852,227.89374)" stroke-width=".09962" stroke-linecap="butt" stroke-miterlimit="10" stroke-linejoin="miter" fill="none" stroke="#d9d9d9" d="M0 19.82945H206.22638M0 59.48837H206.22638M0 99.1473H206.22638M0 138.80622H206.22638M0 178.46514H206.22638"/>
<path transform="matrix(1.00003,0,0,-1.00005,10.921852,227.89374)" stroke-width=".19925" stroke-linecap="butt" stroke-miterlimit="10" stroke-linejoin="miter" fill="none" stroke="#b2b3b2" d="M0 0H206.22638M0 39.65892H206.22638M0 79.31784H206.22638M0 118.97676H206.22638M0 158.63568H206.22638M0 198.2946H206.22638"/>
<path transform="matrix(1.00003,0,0,-1.00005,10.921852,227.89374)" stroke-width=".19925" stroke-linecap="butt" stroke-miterlimit="10" stroke-linejoin="miter" fill="none" stroke="#7f807f" d="M19.82945 42.2073V45.04228M59.48837 42.2073V45.04228M99.1473 42.2073V45.04228M138.80622 42.2073V45.04228M178.46514 42.2073V45.04228"/>
<path transform="matrix(1.00003,0,0,-1.00005,10.921852,227.89374)" stroke-width=".19925" stroke-linecap="butt" stroke-miterlimit="10" stroke-linejoin="miter" fill="none" stroke="#7f807f" d="M0 41.4988V45.75081M39.65892 41.4988V45.75081M79.31784 41.4988V45.75081M118.97676 41.4988V45.75081M158.63568 41.4988V45.75081M198.2946 41.4988V45.75081"/>
<path transform="matrix(1.00003,0,0,-1.00005,10.921852,227.89374)" stroke-width=".19925" stroke-linecap="butt" stroke-miterlimit="10" stroke-linejoin="miter" fill="none" stroke="#7f807f" d="M42.2073 19.82945H45.04228M42.2073 59.48837H45.04228M42.2073 99.1473H45.04228M42.2073 138.80622H45.04228M42.2073 178.46514H45.04228"/>
<path transform="matrix(1.00003,0,0,-1.00005,10.921852,227.89374)" stroke-width=".19925" stroke-linecap="butt" stroke-miterlimit="10" stroke-linejoin="miter" fill="none" stroke="#7f807f" d="M41.4988 0H45.75081M41.4988 39.65892H45.75081M41.4988 79.31784H45.75081M41.4988 118.97676H45.75081M41.4988 158.63568H45.75081M41.4988 198.2946H45.75081"/>
<path transform="matrix(1.00003,0,0,-1.00005,10.921852,227.89374)" stroke-width=".3985" stroke-linecap="butt" stroke-miterlimit="10" stroke-linejoin="miter" fill="none" stroke="#000000" d="M-6.37622 43.6248H212.60262"/>
<path transform="matrix(-1.00003,-0,0,1.00005,4.54544,184.26676)" d="M3.58653 0C2.52383 .19925 .797 .797-.3985 1.49438V-1.49438C.797-.797 2.52383-.19925 3.58653 0"/>
<path transform="matrix(1.00003,0,0,-1.00005,223.53086,184.26676)" d="M3.58653 0C2.52383 .19925 .797 .797-.3985 1.49438V-1.49438C.797-.797 2.52383-.19925 3.58653 0"/>
<path transform="matrix(1.00003,0,0,-1.00005,10.921852,227.89374)" stroke-width=".3985" stroke-linecap="butt" stroke-miterlimit="10" stroke-linejoin="miter" fill="none" stroke="#000000" d="M43.6248-6.37622V212.60262"/>
<path transform="matrix(0,1.00005,1.00003,0,54.547967,234.27028)" d="M3.58653 0C2.52383 .19925 .797 .797-.3985 1.49438V-1.49438C.797-.797 2.52383-.19925 3.58653 0"/>
<path transform="matrix(0,-1.00005,-1.00003,-0,54.547967,15.280502)" d="M3.58653 0C2.52383 .19925 .797 .797-.3985 1.49438V-1.49438C.797-.797 2.52383-.19925 3.58653 0"/>
<g clip-path="url(#clip_1)">
<path transform="matrix(1.00003,0,0,-1.00005,10.921852,227.89374)" d="M66.52187 112.32086C66.91576 111.14046 67.43694 109.66498 67.78032 108.73682 68.1805 107.65501 68.82227 106.03583 69.22244 105.07233 69.62262 104.10883 70.26439 102.65643 70.66457 101.79253 71.06474 100.92863 71.7065 99.6234 72.10667 98.84589 72.50685 98.06837 73.14862 96.8936 73.5488 96.18874 73.94897 95.48386 74.59073 94.40717 74.9909 93.76556 75.39108 93.12396 76.03285 92.15053 76.43303 91.5645 76.8332 90.97849 77.47498 90.0795 77.87515 89.5419 78.27533 89.00429 78.91708 88.18394 79.31726 87.68982 79.71744 87.1957 80.3592 86.43779 80.75938 85.98053 81.15956 85.52327 81.80132 84.81787 82.20149 84.39417 82.49565 84.08269 82.92041 83.64864 83.28374 83.28433L83.28369 162.60155C83.17981 162.2899 83.07813 161.98479 82.99814 161.74481 82.82031 161.2113 82.5351 160.35569 82.35725 159.82216 82.17943 159.28864 81.8942 158.43302 81.71635 157.89949 81.53853 157.36597 81.25331 156.51036 81.07547 155.97684 80.89764 155.44332 80.61243 154.5877 80.43459 154.05419 80.25676 153.52065 79.97154 152.66503 79.7937 152.1315 79.61588 151.59796 79.33063 150.74236 79.1528 150.20883 78.97498 149.6753 78.68974 148.8197 78.51192 148.28617 78.33409 147.75264 78.04886 146.89705 77.87103 146.36351 77.6932 145.82999 77.40797 144.97438 77.23015 144.44084 77.0523 143.90732 76.76709 143.05171 76.58926 142.51819 76.41142 141.98467 76.1262 141.12905 75.94838 140.59552 75.77054 140.062 75.48532 139.20639 75.3075 138.67287 75.12965 138.13935 74.84444 137.28374 74.66661 136.75022 74.48877 136.21668 74.20354 135.36107 74.02571 134.82755 73.84787 134.294 73.56265 133.43842 73.38483 132.90489 73.20699 132.37136 72.92177 131.51573 72.74394 130.9822 72.5661 130.44867 72.28088 129.59308 72.10306 129.05954 71.92522 128.52602 71.63998 127.67041 71.46216 127.13687 71.28432 126.60335 70.9991 125.74774 70.82127 125.21422 70.64343 124.6807 70.35822 123.82507 70.18037 123.29155 70.00255 122.75803 69.71733 121.90242 69.53949 121.3689 69.36166 120.83536 69.07645 119.97977 68.8986 119.44624 68.72078 118.9127 68.43556 118.0571 68.25772 117.52357 68.0799 116.99004 67.79468 116.13445 67.61684 115.6009 67.43901 115.06738 67.15378 114.21176 66.97594 113.67822 66.85242 113.30762 66.67705 112.78162 66.52185 112.32153Z" fill="#0000ff" fill-opacity=".05"/>
</g>
<g clip-path="url(#clip_2)">
<path transform="matrix(1.00003,0,0,-1.00005,10.921852,227.89374)" d="M83.28372 83.2706C83.38402 83.38402 83.4784 83.4784 83.56361 83.56361 84.04161 84.04161 84.80817 84.80817 85.28616 85.28616 85.76416 85.76416 86.53072 86.53072 87.00871 87.00871 87.48671 87.48671 88.25325 88.25325 88.73125 88.73125 88.92567 88.92567 89.16783 89.16783 89.4189 89.4189L89.41891 181.00731C89.4149 180.99521 89.41093 180.98326 89.40701 180.97147 89.22917 180.43793 88.94395 179.58225 88.76613 179.04872 88.58829 178.51522 88.30307 177.6597 88.12524 177.12618 87.9474 176.59267 87.66219 175.73699 87.48436 175.20345 87.30652 174.6699 87.0213 173.81423 86.84348 173.28072 86.66563 172.74721 86.3804 171.89168 86.20256 171.35817 86.02473 170.82466 85.73952 169.96894 85.56168 169.43543 85.38385 168.9019 85.09863 168.04639 84.92079 167.51288 84.74297 166.97936 84.45775 166.12369 84.2799 165.59015 84.10208 165.0566 83.81686 164.20095 83.63902 163.6674 83.54117 163.37384 83.4108 162.98279 83.2837 162.59427Z" fill="#0000ff" fill-opacity=".05"/>
</g>
<g clip-path="url(#clip_3)">
<path transform="matrix(1.00003,0,0,-1.00005,10.921852,227.89374)" d="M89.41893 89.4123C89.78508 89.78508 90.17023 90.17023 90.4538 90.4538 90.9318 90.9318 91.69833 91.69833 92.17633 92.17633 92.65433 92.65433 93.4209 93.4209 93.8989 93.8989 94.37688 94.37688 95.14345 95.14345 95.62144 95.62144 96.09944 96.09944 96.86598 96.86598 97.34398 97.34398 97.82198 97.82198 98.58853 98.58853 99.06653 99.06653 99.54453 99.54453 100.31107 100.31107 100.78906 100.78906 101.26706 101.26706 102.03362 102.03362 102.51161 102.51161 102.98961 102.98961 103.75616 103.75616 104.23416 104.23416 104.71216 104.71216 105.47871 105.47871 105.9567 105.9567 106.4347 106.4347 107.20126 107.20126 107.67926 107.67926 108.15726 108.15726 108.9238 108.9238 109.4018 109.4018 109.87979 109.87979 110.64635 110.64635 111.12434 111.12434 111.60234 111.60234 112.3689 112.3689 112.8469 112.8469 113.32489 113.32489 114.09143 114.09143 114.56943 114.56943 115.04742 115.04742 115.81398 115.81398 116.29198 116.29198 116.76997 116.76997 117.53651 117.53651 118.01451 118.01451 118.49251 118.49251 119.25908 119.25908 119.73706 119.73706 120.21506 120.21506 120.98163 120.98163 121.45963 121.45963 121.86395 121.86395 122.47475 122.47475 122.9427 122.9427L122.94266 122.94281C122.81099 123.07426 122.68732 123.19832 122.58078 123.30591 122.1806 123.70996 121.53883 124.36923 121.13866 124.78836 120.73848 125.2075 120.09671 125.8915 119.69653 126.32675 119.29636 126.762 118.65462 127.47308 118.25444 127.92538 117.85426 128.37769 117.2125 129.1165 116.81232 129.5867 116.41214 130.0569 115.77037 130.82501 115.3702 131.31424 114.97002 131.80347 114.32825 132.60318 113.92807 133.11278 113.5279 133.62236 112.88612 134.45584 112.48595 134.98706 112.08577 135.51827 111.44402 136.38736 111.04384 136.94145 110.64366 137.49555 110.0019 138.40201 109.60173 138.9807 109.20155 139.5594 108.55978 140.5076 108.1596 141.11237 107.75943 141.71715 107.11766 142.70688 106.71748 143.33962 106.3173 143.97235 105.67554 145.00992 105.27536 145.67276 104.87518 146.33559 104.23341 147.42203 103.83325 148.11695 103.43307 148.81186 102.79132 149.95186 102.39114 150.68128 101.99097 151.41069 101.3492 152.60746 100.94902 153.37412 100.54884 154.1408 99.90707 155.40024 99.5069 156.20697 99.10672 157.01369 98.46497 158.33855 98.06479 159.1885 97.66461 160.03849 97.02284 161.43599 96.62267 162.33307 96.22249 163.23015 95.58073 164.70603 95.18056 165.65412 94.78038 166.6022 94.13861 168.16297 93.73843 169.1663 93.33826 170.16963 92.69649 171.82186 92.29631 172.88552 91.89613 173.94916 91.25438 175.7027 90.8542 176.83237 90.4563 177.95558 89.81956 179.80411 89.41893 181.01934Z" fill="#0000ff" fill-opacity=".05"/>
</g>
<use data-text="&#x2212;" xlink:href="#font_4_1" transform="matrix(7.9703395,0,0,-7.970498,2.2175904,195.0491)"/>
<use data-text="1" xlink:href="#font_5_2" transform="matrix(7.9703395,0,0,-7.970498,8.803787,195.0491)"/>
<use data-text="." xlink:href="#font_6_1" transform="matrix(7.9703395,0,0,-7.970498,13.03791,195.0491)"/>
<use data-text="1" xlink:href="#font_5_2" transform="matrix(7.9703395,0,0,-7.970498,15.390984,195.0491)"/>
<use data-text="&#x2212;" xlink:href="#font_4_1" transform="matrix(7.9703395,0,0,-7.970498,41.877786,195.0491)"/>
<use data-text="0" xlink:href="#font_5_1" transform="matrix(7.9703395,0,0,-7.970498,48.46398,195.0491)"/>
<use data-text="." xlink:href="#font_6_1" transform="matrix(7.9703395,0,0,-7.970498,52.698106,195.0491)"/>
<use data-text="1" xlink:href="#font_5_2" transform="matrix(7.9703395,0,0,-7.970498,55.051179,195.0491)"/>
<use data-text="0" xlink:href="#font_5_1" transform="matrix(7.9703395,0,0,-7.970498,84.83107,195.0491)"/>
<use data-text="." xlink:href="#font_6_1" transform="matrix(7.9703395,0,0,-7.970498,89.06519,195.0491)"/>
<use data-text="9" xlink:href="#font_5_5" transform="matrix(7.9703395,0,0,-7.970498,91.41727,195.0491)"/>
<use data-text="1" xlink:href="#font_5_2" transform="matrix(7.9703395,0,0,-7.970498,124.491268,195.0491)"/>
<use data-text="." xlink:href="#font_6_1" transform="matrix(7.9703395,0,0,-7.970498,128.72539,195.0491)"/>
<use data-text="9" xlink:href="#font_5_5" transform="matrix(7.9703395,0,0,-7.970498,131.07746,195.0491)"/>
<use data-text="2" xlink:href="#font_5_3" transform="matrix(7.9703395,0,0,-7.970498,164.15146,195.0491)"/>
<use data-text="." xlink:href="#font_6_1" transform="matrix(7.9703395,0,0,-7.970498,168.38559,195.0491)"/>
<use data-text="9" xlink:href="#font_5_5" transform="matrix(7.9703395,0,0,-7.970498,170.73767,195.0491)"/>
<use data-text="3" xlink:href="#font_5_4" transform="matrix(7.9703395,0,0,-7.970498,203.81165,195.0491)"/>
<use data-text="." xlink:href="#font_6_1" transform="matrix(7.9703395,0,0,-7.970498,208.04578,195.0491)"/>
<use data-text="9" xlink:href="#font_5_5" transform="matrix(7.9703395,0,0,-7.970498,210.39786,195.0491)"/>
<use data-text="&#x2212;" xlink:href="#font_4_1" transform="matrix(7.9703395,0,0,-7.970498,31.494469,230.04685)"/>
<use data-text="1" xlink:href="#font_5_2" transform="matrix(7.9703395,0,0,-7.970498,38.080667,230.04685)"/>
<use data-text="." xlink:href="#font_6_1" transform="matrix(7.9703395,0,0,-7.970498,42.31479,230.04685)"/>
<use data-text="1" xlink:href="#font_5_2" transform="matrix(7.9703395,0,0,-7.970498,44.667863,230.04685)"/>
<use data-text="&#x2212;" xlink:href="#font_4_1" transform="matrix(7.9703395,0,0,-7.970498,31.494469,190.38587)"/>
<use data-text="0" xlink:href="#font_5_1" transform="matrix(7.9703395,0,0,-7.970498,38.080667,190.38587)"/>
<use data-text="." xlink:href="#font_6_1" transform="matrix(7.9703395,0,0,-7.970498,42.31479,190.38587)"/>
<use data-text="1" xlink:href="#font_5_2" transform="matrix(7.9703395,0,0,-7.970498,44.667863,190.38587)"/>
<use data-text="0" xlink:href="#font_5_1" transform="matrix(7.9703395,0,0,-7.970498,38.08067,151.13991)"/>
<use data-text="." xlink:href="#font_6_1" transform="matrix(7.9703395,0,0,-7.970498,42.314794,151.13991)"/>
<use data-text="9" xlink:href="#font_5_5" transform="matrix(7.9703395,0,0,-7.970498,44.666868,151.13991)"/>
<use data-text="1" xlink:href="#font_5_2" transform="matrix(7.9703395,0,0,-7.970498,38.08067,111.47893)"/>
<use data-text="." xlink:href="#font_6_1" transform="matrix(7.9703395,0,0,-7.970498,42.314794,111.47893)"/>
<use data-text="9" xlink:href="#font_5_5" transform="matrix(7.9703395,0,0,-7.970498,44.666868,111.47893)"/>
<use data-text="2" xlink:href="#font_5_3" transform="matrix(7.9703395,0,0,-7.970498,38.08067,71.81894)"/>
<use data-text="." xlink:href="#font_6_1" transform="matrix(7.9703395,0,0,-7.970498,42.314794,71.81894)"/>
<use data-text="9" xlink:href="#font_5_5" transform="matrix(7.9703395,0,0,-7.970498,44.666868,71.81894)"/>
<use data-text="3" xlink:href="#font_5_4" transform="matrix(7.9703395,0,0,-7.970498,38.08067,32.15796)"/>
<use data-text="." xlink:href="#font_6_1" transform="matrix(7.9703395,0,0,-7.970498,42.314794,32.15796)"/>
<use data-text="9" xlink:href="#font_5_5" transform="matrix(7.9703395,0,0,-7.970498,44.666868,32.15796)"/>
<g clip-path="url(#clip_7)">
<path transform="matrix(1.00003,0,0,-1.00005,10.921852,227.89374)" stroke-width=".99628" stroke-linecap="butt" stroke-miterlimit="10" stroke-linejoin="miter" fill="none" stroke="#000000" d="M47.60118 439.38224C48.63263 357.62825 48.63263 357.62825 49.0328 334.45954 49.43298 311.29084 50.07475 287.26618 50.47493 273.23014 50.8751 259.1941 51.51686 242.7367 51.91704 233.29755 52.31721 223.8584 52.95898 211.99053 53.35916 205.19922 53.75934 198.40792 54.40111 189.47454 54.80128 184.35051 55.20146 179.22649 55.84322 172.2736 56.2434 168.26882 56.64357 164.26404 57.28534 158.70467 57.68552 155.48676 58.0857 152.26885 58.72745 147.71863 59.12762 145.0763 59.5278 142.43395 60.16956 138.64963 60.56973 136.44254 60.96991 134.23546 61.61168 131.04218 62.01186 129.16909 62.41203 127.296 63.0538 124.55215 63.45398 122.94264 63.85416 121.33315 64.49593 118.9665 64.8961 117.56885 65.29628 116.1712 65.93803 114.09468 66.33821 112.86926 66.73839 111.64386 67.38014 109.81862 67.78032 108.73682 68.1805 107.65501 68.82227 106.03583 69.22244 105.07233 69.62262 104.10883 70.26439 102.65643 70.66457 101.79253 71.06474 100.92863 71.7065 99.6234 72.10667 98.84589 72.50685 98.06837 73.14862 96.8936 73.5488 96.18874 73.94897 95.48386 74.59073 94.40717 74.9909 93.76556 75.39108 93.12396 76.03285 92.15053 76.43303 91.5645 76.8332 90.97849 77.47498 90.0795 77.87515 89.5419 78.27533 89.00429 78.91708 88.18394 79.31726 87.68982 79.71744 87.1957 80.3592 86.43779 80.75938 85.98053 81.15956 85.52327 81.80132 84.81787 82.20149 84.39417 82.60167 83.97047 83.24344 83.31999 83.64362 82.92679 84.0438 82.53357 84.68556 81.92673 85.08574 81.56013 85.48592 81.19356 86.12769 80.62708 86.52786 80.28471 86.92804 79.94235 87.5698 79.41298 87.96997 79.09258 88.37015 78.77216 89.0119 78.27592 89.41208 77.97537 89.81226 77.67484 90.45403 77.20879 90.8542 76.92639 91.25438 76.644 91.89613 76.20596 92.29631 75.94008 92.69649 75.6742 93.33826 75.26094 93.73843 75.01009 94.13861 74.75922 94.78038 74.36908 95.18056 74.13203 95.58073 73.89499 96.22249 73.5258 96.62267 73.30157 97.02284 73.07735 97.66461 72.72836 98.06479 72.51591 98.46497 72.30348 99.10672 71.97212 99.5069 71.77034 99.90707 71.56857 100.54884 71.25334 100.94902 71.06165 101.3492 70.86995 101.99097 70.57092 102.39114 70.38861 102.79132 70.20631 103.43307 69.92145 103.83325 69.74773 104.23341 69.57402 104.87518 69.30222 105.27536 69.13658 105.67554 68.97096 106.3173 68.71219 106.71748 68.554 107.11766 68.39581 107.75943 68.14764 108.1596 67.99638 108.55978 67.84512 109.20155 67.60843 109.60173 67.46378 110.0019 67.3191 110.64366 67.09236 111.04384 66.95377 111.44402 66.81517 112.08577 66.59749 112.48595 66.46477 112.88612 66.33206 113.5279 66.12457 113.92807 65.9972 114.32825 65.86981 114.97002 65.66898 115.3702 65.54666 115.77037 65.42435 116.41214 65.2331 116.81232 65.11557 117.2125 64.99805 117.85426 64.81268 118.25444 64.69955 118.65462 64.58643 119.29636 64.40897 119.69653 64.30019 120.09671 64.19139 120.73848 64.02025 121.13866 63.9155 121.53883 63.81073 122.1806 63.646 122.58078 63.54509 122.98096 63.44417 123.62271 63.28564 124.02289 63.18814 124.42307 63.09064 125.06483 62.93636 125.46501 62.84233 125.86519 62.7483 126.50694 62.601 126.90712 62.51038 127.3073 62.41975 127.94907 62.2768 128.34925 62.18915 128.74942 62.10149 129.39118 61.96346 129.79135 61.87862 130.19153 61.79376 130.8333 61.65974 131.23348 61.57759 131.63365 61.49545 132.27542 61.36589 132.6756 61.2865 133.07578 61.20709 133.71753 61.08212 134.1177 61.00533 134.51789 60.92851 135.15964 60.80737 135.55982 60.73286 135.95999 60.65837 136.60176 60.54053 137.00194 60.46834 137.40212 60.39615 138.04389 60.28253 138.44406 60.21254 138.84424 60.14255 139.48601 60.03183 139.88619 59.96388 140.28636 59.89592 140.92813 59.78868 141.32831 59.72276 141.72849 59.65685 142.37023 59.55281 142.7704 59.48877 143.17058 59.42473 143.81235 59.32335 144.21253 59.26112 144.6127 59.1989 145.25447 59.10063 145.65465 59.04022 146.05483 58.97981 146.6966 58.88454 147.09677 58.82565 147.49695 58.76678 148.13872 58.67314 148.5389 58.61588 148.93907 58.55861 149.58081 58.46844 149.98099 58.41283 150.38117 58.3572 151.02294 58.26906 151.42311 58.21492 151.82329 58.16078 152.46506 58.07533 152.86524 58.02257 153.26541 57.9698 153.90718 57.88599 154.30736 57.8346 154.70754 57.78322 155.3493 57.70218 155.74948 57.65216 156.14966 57.60214 156.7914 57.52289 157.19158 57.47409 157.59175 57.4253 158.23352 57.34798 158.6337 57.30038 159.03388 57.25279 159.67565 57.17741 160.07582 57.13103 160.476 57.08466 161.11777 57.01129 161.51795 56.96606 161.91812 56.92084 162.55988 56.84921 162.96006 56.80504 163.36023 56.76086 164.00199 56.69072 164.40216 56.6476 164.80234 56.60446 165.4441 56.53625 165.84429 56.49411 166.24446 56.45198 166.88622 56.38496 167.28639 56.34381 167.68657 56.30266 168.32834 56.23769 168.72852 56.19746 169.1287 56.15724 169.77046 56.09329 170.17064 56.0539 170.57082 56.01451 171.21259 55.95197 171.61277 55.91351 172.01293 55.87505 172.6547 55.81421 173.05487 55.77669 173.45505 55.73917 174.0968 55.67978 174.49698 55.64304 174.89716 55.6063 175.53893 55.54768 175.9391 55.51176 176.33928 55.47585 176.98105 55.41928 177.38123 55.38406 177.7814 55.34886 178.42317 55.29245 178.82335 55.25795 179.22353 55.22346 179.86528 55.16902 180.26546 55.1354 180.66564 55.10179 181.30739 55.04863 181.70757 55.01564 182.10774 54.98264 182.74951 54.92981 183.14969 54.89745 183.54987 54.8651 184.19164 54.81407 184.59181 54.78244 184.99199 54.7508 185.63376 54.70044 186.03394 54.6694 186.43412 54.63838 187.07587 54.58919 187.47605 54.55876 187.87622 54.52835 188.51798 54.47992 188.91815 54.4501 189.31833 54.42029 190.36028 54.34381 189.53066 54.40468"/>
<path transform="matrix(-.012620379,-.99992999,-.99991008,.012620631,58.524484,-211.51044)" stroke-width=".79701" stroke-linecap="round" stroke-linejoin="round" fill="none" stroke="#000000" d="M-1.73352 2.31136C-1.58905 1.4446 0 .14444 .43336 0 0-.14444-1.58905-1.4446-1.73352-2.31136"/>
<path transform="matrix(.99729999,.073183659,.073182199,-.9973198,200.45819,173.48633)" stroke-width=".79701" stroke-linecap="round" stroke-linejoin="round" fill="none" stroke="#000000" d="M-1.73352 2.31136C-1.58905 1.4446 0 .14444 .43336 0 0-.14444-1.58905-1.4446-1.73352-2.31136"/>
<path transform="matrix(1.00003,0,0,-1.00005,10.921852,227.89374)" stroke-width=".99628" stroke-linecap="butt" stroke-dasharray="2.98883,1.99255,.99628,1.99255" stroke-miterlimit="10" stroke-linejoin="miter" fill="none" stroke="#000000" d="M47.5933 1629.1498C48.63263 1299.6267 48.63263 1299.6267 49.0328 1206.9518 49.43298 1114.277 50.07475 1018.1875 50.47493 962.0461 50.8751 905.9047 51.51686 840.0804 51.91704 802.3237 52.31721 764.56716 52.95898 717.08828 53.35916 689.9224 53.75934 662.75668 54.40111 627.0277 54.80128 606.5316 55.20146 586.0355 55.84322 558.2217 56.2434 542.2009 56.64357 526.18008 57.28534 503.93473 57.68552 491.06468 58.0857 478.19468 58.72745 460.00929 59.12762 449.44264 59.5278 438.876 60.16956 423.73988 60.56973 414.90766 60.96991 406.0754 61.61168 393.279 62.01186 385.7861 62.41203 378.2932 63.0538 367.34159 63.45398 360.9041 63.85416 354.4666 64.49593 344.97923 64.8961 339.38914 65.29628 333.79905 65.93803 325.51466 66.33821 320.6146 66.73839 315.71455 67.38014 308.40397 67.78032 304.07286 68.1805 299.7418 68.82227 293.25364 69.22244 289.39906 69.62262 285.5445 70.26439 279.7441 70.66457 276.29179 71.06474 272.83946 71.7065 267.62767 72.10667 264.51707 72.50685 261.40647 73.14862 256.6916 73.5488 253.8726 73.94897 251.05362 74.59073 246.7651 74.9909 244.1998 75.39108 241.63449 76.03285 237.72661 76.43303 235.3836 76.8332 233.0406 77.47498 229.46231 77.87515 227.31302 78.27533 225.16371 78.91708 221.87267 79.31726 219.89284 79.71744 217.91301 80.3592 214.8728 80.75938 213.04375 81.15956 211.21469 81.80132 208.40436 82.20149 206.71022 82.60167 205.01609 83.24344 202.40763 83.64362 200.83356 84.0438 199.25948 84.68556 196.83176 85.08574 195.36537 85.48592 193.89899 86.12769 191.63417 86.52786 190.26485 86.92804 188.89554 87.5698 186.77793 87.96997 185.49626 88.37015 184.2146 89.0119 182.22959 89.41208 181.0275 89.81226 179.8254 90.45403 177.96204 90.8542 176.83237 91.25438 175.7027 91.89613 173.94916 92.29631 172.88552 92.69649 171.82186 93.33826 170.16963 93.73843 169.1663 94.13861 168.16297 94.78038 166.6022 95.18056 165.65412 95.58073 164.70603 96.22249 163.23015 96.62267 162.33307 97.02284 161.43599 97.66461 160.03849 98.06479 159.1885 98.46497 158.33855 99.10672 157.01369 99.5069 156.20697 99.90707 155.40024 100.54884 154.1408 100.94902 153.37412 101.3492 152.60746 101.99097 151.41069 102.39114 150.68128 102.79132 149.95186 103.43307 148.81186 103.83325 148.11695 104.23341 147.42203 104.87518 146.33559 105.27536 145.67276 105.67554 145.00992 106.3173 143.97235 106.71748 143.33962 107.11766 142.70688 107.75943 141.71715 108.1596 141.11237 108.55978 140.5076 109.20155 139.5594 109.60173 138.9807 110.0019 138.40201 110.64366 137.49555 111.04384 136.94145 111.44402 136.38736 112.08577 135.51827 112.48595 134.98706 112.88612 134.45584 113.5279 133.62236 113.92807 133.11278 114.32825 132.60318 114.97002 131.80347 115.3702 131.31424 115.77037 130.82501 116.41214 130.0569 116.81232 129.5867 117.2125 129.1165 117.85426 128.37769 118.25444 127.92538 118.65462 127.47308 119.29636 126.762 119.69653 126.32675 120.09671 125.8915 120.73848 125.2075 121.13866 124.78836 121.53883 124.36923 122.1806 123.70996 122.58078 123.30591 122.98096 122.90186 123.62271 122.26584 124.02289 121.87622 124.42307 121.48659 125.06483 120.8736 125.46501 120.49767 125.86519 120.12173 126.50694 119.52971 126.90712 119.16672 127.3073 118.80373 127.94907 118.23222 128.34925 117.88138 128.74942 117.53053 129.39118 116.97728 129.79135 116.63805 130.19153 116.29883 130.8333 115.7645 131.23348 115.4364 131.63365 115.10829 132.27542 114.59076 132.6756 114.27321 133.07578 113.95564 133.71753 113.45522 134.1177 113.14767 134.51789 112.84015 135.15964 112.35463 135.55982 112.05666 135.95999 111.7587 136.60176 111.28893 137.00194 111.00014 137.40212 110.71136 138.04389 110.2555 138.44406 109.97536 138.84424 109.69524 139.48601 109.25288 139.88619 108.98112 140.28636 108.70935 140.92813 108.28038 141.32831 108.0166 141.72849 107.75282 142.37023 107.33601 142.7704 107.07986 143.17058 106.82373 143.81235 106.41931 144.21253 106.17049 144.6127 105.92166 145.25447 105.52838 145.65465 105.2865 146.05483 105.0446 146.6966 104.66231 147.09677 104.42708 147.49695 104.19185 148.13872 103.81987 148.5389 103.59108 148.93907 103.36229 149.58081 103.00069 149.98099 102.77806 150.38117 102.55542 151.02294 102.2032 151.42311 101.98647 151.82329 101.76973 152.46506 101.42693 152.86524 101.21591 153.26541 101.00488 153.90718 100.67107 154.30736 100.46555 154.70754 100.26004 155.3493 99.93486 155.74948 99.73463 156.14966 99.53441 156.7914 99.21759 157.19158 99.02237 157.59175 98.82715 158.23352 98.51787 158.6337 98.32755 159.03388 98.13722 159.67565 97.83626 160.07582 97.65056 160.476 97.46484 161.11777 97.17024 161.51795 96.98906 161.91812 96.80786 162.55988 96.5214 162.96006 96.3446 163.36023 96.1678 164.00199 95.88742 164.40216 95.71481 164.80234 95.5422 165.4441 95.26904 165.84429 95.1005 166.24446 94.93196 166.88622 94.66469 167.28639 94.50005 167.68657 94.33542 168.32834 94.07472 168.72852 93.9139 169.1287 93.75305 169.77046 93.49808 170.17064 93.34082 170.57082 93.18358 171.21259 92.93419 171.61277 92.78044 172.01293 92.62671 172.6547 92.38307 173.05487 92.23276 173.45505 92.08243 174.0968 91.84398 174.49698 91.69696 174.89716 91.54994 175.53893 91.3169 175.9391 91.17307 176.33928 91.02924 176.98105 90.80096 177.38123 90.66028 177.7814 90.51958 178.42317 90.29677 178.82335 90.15898 179.22353 90.02121 179.86528 89.80208 180.26546 89.66722 180.66564 89.53236 181.30739 89.319 181.70757 89.18695 182.10774 89.05489 182.74951 88.84476 183.14969 88.71541 183.54987 88.58606 184.19164 88.38123 184.59181 88.25456 184.99199 88.1279 185.63376 87.92664 186.03394 87.80246 186.43412 87.67827 187.07587 87.48106 187.47605 87.35947 187.87622 87.23787 188.51798 87.04523 188.91815 86.926 189.31833 86.80676 190.36028 86.50006 189.5623 86.73495"/>
<path transform="matrix(-.003160095,-1.0000199,-1,.003160158,58.5166,-1401.3374)" stroke-width=".79701" stroke-linecap="round" stroke-linejoin="round" fill="none" stroke="#000000" d="M-1.73352 2.31136C-1.58905 1.4446 0 .14444 .43336 0 0-.14444-1.58905-1.4446-1.73352-2.31136"/>
<path transform="matrix(.9592588,.2823941,.2823885,-.9592779,200.48984,141.15444)" stroke-width=".79701" stroke-linecap="round" stroke-linejoin="round" fill="none" stroke="#000000" d="M-1.73352 2.31136C-1.58905 1.4446 0 .14444 .43336 0 0-.14444-1.58905-1.4446-1.73352-2.31136"/>
<path transform="matrix(1.00003,0,0,-1.00005,10.921852,227.89374)" stroke-width=".99628" stroke-linecap="butt" stroke-miterlimit="10" stroke-linejoin="miter" fill="none" stroke="#ff0000" d="M20.4177 20.4177C21.07399 21.07399 21.07399 21.07399 21.55199 21.55199 22.02998 22.02998 22.79654 22.79654 23.27454 23.27454 23.75253 23.75253 24.51907 24.51907 24.99707 24.99707 25.47507 25.47507 26.24164 26.24164 26.71964 26.71964 27.19762 27.19762 27.96417 27.96417 28.44217 28.44217 28.92017 28.92017 29.68672 29.68672 30.16472 30.16472 30.64272 30.64272 31.40927 31.40927 31.88727 31.88727 32.36526 32.36526 33.1318 33.1318 33.6098 33.6098 34.0878 34.0878 34.85435 34.85435 35.33235 35.33235 35.81035 35.81035 36.57689 36.57689 37.05489 37.05489 37.53288 37.53288 38.29945 38.29945 38.77744 38.77744 39.25543 39.25543 40.022 40.022 40.5 40.5 40.978 40.978 41.74454 41.74454 42.22253 42.22253 42.70053 42.70053 43.46709 43.46709 43.94508 43.94508 44.42308 44.42308 45.18962 45.18962 45.66762 45.66762 46.14561 46.14561 46.91217 46.91217 47.39017 47.39017 47.86816 47.86816 48.63472 48.63472 49.11272 49.11272 49.59071 49.59071 50.35725 50.35725 50.83525 50.83525 51.31325 51.31325 52.07982 52.07982 52.5578 52.5578 53.0358 53.0358 53.80235 53.80235 54.28035 54.28035 54.75835 54.75835 55.5249 55.5249 56.0029 56.0029 56.4809 56.4809 57.24745 57.24745 57.72545 57.72545 58.20345 58.20345 58.96999 58.96999 59.44798 59.44798 59.92598 59.92598 60.69254 60.69254 61.17053 61.17053 61.64853 61.64853 62.41507 62.41507 62.89307 62.89307 63.37106 63.37106 64.13762 64.13762 64.61562 64.61562 65.09361 65.09361 65.86018 65.86018 66.33817 66.33817 66.81616 66.81616 67.58272 67.58272 68.06071 68.06071 68.53871 68.53871 69.30527 69.30527 69.78326 69.78326 70.26126 70.26126 71.0278 71.0278 71.5058 71.5058 71.9838 71.9838 72.75035 72.75035 73.22835 73.22835 73.70634 73.70634 74.4729 74.4729 74.9509 74.9509 75.4289 75.4289 76.19543 76.19543 76.67343 76.67343 77.15143 77.15143 77.91798 77.91798 78.39598 78.39598 78.87398 78.87398 79.64053 79.64053 80.11853 80.11853 80.59651 80.59651 81.36308 81.36308 81.84108 81.84108 82.31908 82.31908 83.08562 83.08562 83.56361 83.56361 84.04161 84.04161 84.80817 84.80817 85.28616 85.28616 85.76416 85.76416 86.53072 86.53072 87.00871 87.00871 87.48671 87.48671 88.25325 88.25325 88.73125 88.73125 89.20924 89.20924 89.9758 89.9758 90.4538 90.4538 90.9318 90.9318 91.69833 91.69833 92.17633 92.17633 92.65433 92.65433 93.4209 93.4209 93.8989 93.8989 94.37688 94.37688 95.14345 95.14345 95.62144 95.62144 96.09944 96.09944 96.86598 96.86598 97.34398 97.34398 97.82198 97.82198 98.58853 98.58853 99.06653 99.06653 99.54453 99.54453 100.31107 100.31107 100.78906 100.78906 101.26706 101.26706 102.03362 102.03362 102.51161 102.51161 102.98961 102.98961 103.75616 103.75616 104.23416 104.23416 104.71216 104.71216 105.47871 105.47871 105.9567 105.9567 106.4347 106.4347 107.20126 107.20126 107.67926 107.67926 108.15726 108.15726 108.9238 108.9238 109.4018 109.4018 109.87979 109.87979 110.64635 110.64635 111.12434 111.12434 111.60234 111.60234 112.3689 112.3689 112.8469 112.8469 113.32489 113.32489 114.09143 114.09143 114.56943 114.56943 115.04742 115.04742 115.81398 115.81398 116.29198 116.29198 116.76997 116.76997 117.53651 117.53651 118.01451 118.01451 118.49251 118.49251 119.25908 119.25908 119.73706 119.73706 120.21506 120.21506 120.98163 120.98163 121.45963 121.45963 121.93762 121.93762 122.70416 122.70416 123.18216 123.18216 123.66016 123.66016 124.42671 124.42671 124.90471 124.90471 125.3827 125.3827 126.14925 126.14925 126.62724 126.62724 127.10524 127.10524 127.8718 127.8718 128.3498 128.3498 128.82779 128.82779 129.59435 129.59435 130.07234 130.07234 130.55034 130.55034 131.31688 131.31688 131.79488 131.79488 132.27288 132.27288 133.03945 133.03945 133.51743 133.51743 133.99542 133.99542 134.76198 134.76198 135.23998 135.23998 135.71797 135.71797 136.48453 136.48453 136.96253 136.96253 137.44052 137.44052 138.20708 138.20708 138.68508 138.68508 139.16307 139.16307 139.92961 139.92961 140.40761 140.40761 140.8856 140.8856 141.65216 141.65216 142.13016 142.13016 142.60816 142.60816 143.3747 143.3747 143.85269 143.85269 144.33069 144.33069 145.09725 145.09725 145.57524 145.57524 146.05324 146.05324 146.8198 146.8198 147.29779 147.29779 147.77577 147.77577 148.54235 148.54235 149.02034 149.02034 149.49834 149.49834 150.2649 150.2649 150.74289 150.74289 151.22089 151.22089 151.98743 151.98743 152.46543 152.46543 152.94342 152.94342 153.70998 153.70998 154.18798 154.18798 154.66597 154.66597 155.43251 155.43251 155.9105 155.9105 156.3885 156.3885 157.15506 157.15506 157.63306 157.63306 158.11106 158.11106 158.87761 158.87761 159.3556 159.3556 159.8336 159.8336 160.60016 160.60016 161.07816 161.07816 161.55614 161.55614 162.32271 162.32271 162.8007 162.8007 163.2787 163.2787 164.04524 164.04524 164.52324 164.52324 165.00124 165.00124 165.76779 165.76779 166.24579 166.24579 166.72379 166.72379 167.49034 167.49034 167.96834 167.96834 168.44634 168.44634 169.21288 169.21288 169.69087 169.69087 170.16887 170.16887 170.93543 170.93543 171.41342 171.41342 171.89142 171.89142 172.65798 172.65798 173.13596 173.13596 173.61396 173.61396 174.38053 174.38053 174.85852 174.85852 175.33652 175.33652 176.10308 176.10308 176.58107 176.58107 177.05907 177.05907 177.8256 177.8256 178.3036 178.3036 178.7816 178.7816 179.54816 179.54816 180.02616 180.02616 180.50415 180.50415 181.27069 181.27069 181.74869 181.74869 182.22669 182.22669 182.99324 182.99324 183.47124 183.47124 183.94924 183.94924 184.71579 184.71579 185.19379 185.19379 185.67179 185.67179 186.43834 186.43834 186.91632 186.91632 187.39432 187.39432 188.16089 188.16089 188.63889 188.63889 189.11688 189.11688 190.36142 190.36142 189.77318 189.77318"/>
<path transform="matrix(-.7071212,.7071353,.7071212,.7071353,31.340167,207.47502)" stroke-width=".79701" stroke-linecap="round" stroke-linejoin="round" fill="none" stroke="#ff0000" d="M-1.73352 2.31136C-1.58905 1.4446 0 .14444 .43336 0 0-.14444-1.58905-1.4446-1.73352-2.31136"/>
<path transform="matrix(.7071212,-.7071353,-.7071212,-.7071353,200.70075,38.111085)" stroke-width=".79701" stroke-linecap="round" stroke-linejoin="round" fill="none" stroke="#ff0000" d="M-1.73352 2.31136C-1.58905 1.4446 0 .14444 .43336 0 0-.14444-1.58905-1.4446-1.73352-2.31136"/>
<path transform="matrix(1.00003,0,0,-1.00005,10.921852,227.89374)" stroke-width=".99628" stroke-linecap="butt" stroke-dasharray="2.98883,1.99255,.99628,1.99255" stroke-miterlimit="10" stroke-linejoin="miter" fill="none" stroke="#ff0000" d="M31.99016 8.72096C32.19019 9.3209 32.19019 9.3209 32.36801 9.85443 32.54585 10.38795 32.83107 11.24356 33.0089 11.77708 33.18674 12.31061 33.47195 13.16623 33.64978 13.69975 33.82762 14.23329 34.11284 15.08888 34.29066 15.6224 34.4685 16.15594 34.75372 17.01155 34.93155 17.54507 35.10939 18.07861 35.39462 18.93422 35.57245 19.46776 35.75029 20.00128 36.0355 20.85689 36.21333 21.39043 36.39117 21.92395 36.67639 22.77956 36.85422 23.31308 37.03206 23.8466 37.31728 24.70221 37.49512 25.23573 37.67294 25.76926 37.95816 26.62488 38.136 27.1584 38.31383 27.69193 38.59904 28.54753 38.77689 29.08105 38.95471 29.6146 39.23994 30.4702 39.41779 31.00372 39.59561 31.53726 39.88083 32.39285 40.05867 32.92638 40.2365 33.45992 40.52171 34.31552 40.69955 34.84906 40.87738 35.38258 41.1626 36.23817 41.34044 36.77171 41.51826 37.30524 41.8035 38.16084 41.98134 38.69438 42.15916 39.2279 42.44438 40.08353 42.62222 40.61705 42.80005 41.15057 43.08527 42.00618 43.2631 42.5397 43.44093 43.07323 43.72615 43.92885 43.90399 44.46237 44.08182 44.9959 44.36703 45.8515 44.54488 46.38503 44.7227 46.91856 45.00793 47.77417 45.18576 48.3077 45.36359 48.84123 45.64882 49.69682 45.82664 50.23035 46.00447 50.76389 46.2897 51.61949 46.46753 52.15303 46.64536 52.68655 46.9306 53.54214 47.10843 54.07568 47.28627 54.6092 47.57149 55.46481 47.74931 55.99834 47.92715 56.53186 48.21237 57.3875 48.3902 57.92102 48.56804 58.45454 48.85326 59.31015 49.03108 59.84367 49.20892 60.3772 49.49416 61.23282 49.67198 61.76634 49.84982 62.29988 50.13504 63.15547 50.31287 63.689 50.4907 64.22253 50.77592 65.07813 50.95375 65.61165 51.13159 66.14519 51.41681 67.0008 51.59464 67.53433 51.77248 68.06786 52.0577 68.92345 52.23552 69.45699 52.41336 69.99051 52.69858 70.84612 52.8764 71.37965 53.05424 71.91318 53.33946 72.76878 53.51729 73.3023 53.69513 73.83583 53.98036 74.69147 54.1582 75.22499 54.33603 75.75851 54.62125 76.61412 54.79909 77.14764 54.97691 77.68117 55.26213 78.53679 55.43997 79.07031 55.6178 79.60385 55.90302 80.45944 56.08086 80.99297 56.25868 81.5265 56.5439 82.3821 56.72174 82.91562 56.89957 83.44916 57.1848 84.30476 57.36264 84.8383 57.54047 85.37183 57.82568 86.22742 58.00352 86.76096 58.18135 87.29448 58.46657 88.15009 58.64441 88.68362 58.82224 89.21715 59.10745 90.07275 59.2853 90.60628 59.46312 91.1398 59.74834 91.9954 59.92618 92.52893 60.104 93.06245 60.38924 93.91809 60.56708 94.45161 60.7449 94.98515 61.03012 95.84076 61.20796 96.37428 61.38579 96.90782 61.67102 97.76341 61.84885 98.29694 62.02667 98.83047 62.3119 99.68607 62.48973 100.2196 62.66756 100.75313 62.95279 101.60873 63.13062 102.14227 63.30846 102.6758 63.59367 103.53139 63.7715 104.06493 63.94934 104.59845 64.23457 105.45407 64.4124 105.9876 64.59024 106.52112 64.87546 107.37672 65.05328 107.91025 65.23112 108.44377 65.51634 109.29938 65.69417 109.8329 65.87201 110.36642 66.15723 111.22205 66.33505 111.75557 66.5129 112.28911 66.79811 113.1447 66.97594 113.67822 67.15378 114.21176 67.43901 115.06738 67.61684 115.6009 67.79468 116.13445 68.0799 116.99004 68.25772 117.52357 68.43556 118.0571 68.72078 118.9127 68.8986 119.44624 69.07645 119.97977 69.36166 120.83536 69.53949 121.3689 69.71733 121.90242 70.00255 122.75803 70.18037 123.29155 70.35822 123.82507 70.64343 124.6807 70.82127 125.21422 70.9991 125.74774 71.28432 126.60335 71.46216 127.13687 71.63998 127.67041 71.92522 128.52602 72.10306 129.05954 72.28088 129.59308 72.5661 130.44867 72.74394 130.9822 72.92177 131.51573 73.20699 132.37136 73.38483 132.90489 73.56265 133.43842 73.84787 134.294 74.02571 134.82755 74.20354 135.36107 74.48877 136.21668 74.66661 136.75022 74.84444 137.28374 75.12965 138.13935 75.3075 138.67287 75.48532 139.20639 75.77054 140.062 75.94838 140.59552 76.1262 141.12905 76.41142 141.98467 76.58926 142.51819 76.76709 143.05171 77.0523 143.90732 77.23015 144.44084 77.40797 144.97438 77.6932 145.82999 77.87103 146.36351 78.04886 146.89705 78.33409 147.75264 78.51192 148.28617 78.68974 148.8197 78.97498 149.6753 79.1528 150.20883 79.33063 150.74236 79.61588 151.59796 79.7937 152.1315 79.97154 152.66503 80.25676 153.52065 80.43459 154.05419 80.61243 154.5877 80.89764 155.44332 81.07547 155.97684 81.25331 156.51036 81.53853 157.36597 81.71635 157.89949 81.8942 158.43302 82.17943 159.28864 82.35725 159.82216 82.5351 160.35569 82.82031 161.2113 82.99814 161.74481 83.17598 162.27834 83.4612 163.13388 83.63902 163.6674 83.81686 164.20095 84.10208 165.0566 84.2799 165.59015 84.45775 166.12369 84.74297 166.97936 84.92079 167.51288 85.09863 168.04639 85.38385 168.9019 85.56168 169.43543 85.73952 169.96894 86.02473 170.82466 86.20256 171.35817 86.3804 171.89168 86.66563 172.74721 86.84348 173.28072 87.0213 173.81423 87.30652 174.6699 87.48436 175.20345 87.66219 175.73699 87.9474 176.59267 88.12524 177.12618 88.30307 177.6597 88.58829 178.51522 88.76613 179.04872 88.94395 179.58225 89.22917 180.43793 89.40701 180.97147 89.58484 181.50502 89.87007 182.36069 90.04791 182.89421 90.22574 183.42772 90.51096 184.28324 90.6888 184.81676 90.86662 185.35027 91.15184 186.20597 91.32968 186.73949 91.5075 187.273 91.79272 188.12854 91.97057 188.66205 92.14839 189.19556 92.43362 190.05124 92.61147 190.58478 92.78929 191.11832 93.07451 191.974 93.25235 192.5075 93.43018 193.04102 93.7154 193.89655 93.89323 194.43006 94.07106 194.96358 94.3563 195.81928 94.53412 196.35279 94.71194 196.8863 95.175 198.27536 94.91197 197.48618"/>
<path transform="matrix(-.3161895,.9486974,.9486785,.3161958,42.912984,219.17232)" stroke-width=".79701" stroke-linecap="round" stroke-linejoin="round" fill="none" stroke="#ff0000" d="M-1.73352 2.31136C-1.58905 1.4446 0 .14444 .43336 0 0-.14444-1.58905-1.4446-1.73352-2.31136"/>
<path transform="matrix(.3161895,-.9486974,-.9486785,-.3161958,105.83666,30.39772)" stroke-width=".79701" stroke-linecap="round" stroke-linejoin="round" fill="none" stroke="#ff0000" d="M-1.73352 2.31136C-1.58905 1.4446 0 .14444 .43336 0 0-.14444-1.58905-1.4446-1.73352-2.31136"/>
<use data-text="D" xlink:href="#font_8_1" transform="matrix(9.962899,0,0,-9.963098,99.86052,108.34876)"/>
</g>
<use data-text="x" xlink:href="#font_8_2" transform="matrix(9.962899,0,0,-9.963098,230.68647,186.40167)"/>
<use data-text="y" xlink:href="#font_8_3" transform="matrix(9.962899,0,0,-9.963098,51.933084,6.206665)"/>
<path transform="matrix(1.00003,0,0,-1.00005,10.921852,227.89374)" d="M48.93375-69.22879H157.29262V-41.44389H48.93375Z" fill="#ffffff"/>
<path transform="matrix(1.00003,0,0,-1.00005,10.921852,227.89374)" stroke-width=".3985" stroke-linecap="butt" stroke-miterlimit="10" stroke-linejoin="miter" fill="none" stroke="#000000" d="M48.93375-69.22879H157.29262V-41.44389H48.93375Z"/>
<path transform="matrix(1.00003,0,0,-1.00005,63.34443,277.2822)" stroke-width=".99628" stroke-linecap="butt" stroke-miterlimit="10" stroke-linejoin="miter" fill="none" stroke="#000000" d="M.8319 0C6.14426 0 6.14426 0 8.50412 0 10.86398 0 17.00826 0 16.17636 0"/>
<path transform="matrix(-1.00003,-0,0,1.00005,64.17635,277.2822)" stroke-width=".79701" stroke-linecap="round" stroke-linejoin="round" fill="none" stroke="#000000" d="M-1.73352 2.31136C-1.58905 1.4446 0 .14444 .43336 0 0-.14444-1.58905-1.4446-1.73352-2.31136"/>
<path transform="matrix(1.00003,0,0,-1.00005,79.52127,277.2822)" stroke-width=".79701" stroke-linecap="round" stroke-linejoin="round" fill="none" stroke="#000000" d="M-1.73352 2.31136C-1.58905 1.4446 0 .14444 .43336 0 0-.14444-1.58905-1.4446-1.73352-2.31136"/>
<use data-text="x" xlink:href="#font_8_2" transform="matrix(9.962899,0,0,-9.963098,82.84401,279.7453)"/>
<use data-text="y" xlink:href="#font_8_3" transform="matrix(9.962899,0,0,-9.963098,88.53282,279.7453)"/>
<use data-text="=" xlink:href="#font_9_4" transform="matrix(9.962899,0,0,-9.963098,96.547428,279.7453)"/>
<use data-text="1" xlink:href="#font_9_1" transform="matrix(9.962899,0,0,-9.963098,107.048328,279.7453)"/>
<path transform="matrix(1.00003,0,0,-1.00005,114.535968,277.2822)" stroke-width=".99628" stroke-linecap="butt" stroke-dasharray="2.98883,1.99255,.99628,1.99255" stroke-miterlimit="10" stroke-linejoin="miter" fill="none" stroke="#000000" d="M.8319 0C6.14426 0 6.14426 0 8.50412 0 10.86398 0 17.00826 0 16.17636 0"/>
<path transform="matrix(-1.00003,-0,0,1.00005,115.36789,277.2822)" stroke-width=".79701" stroke-linecap="round" stroke-linejoin="round" fill="none" stroke="#000000" d="M-1.73352 2.31136C-1.58905 1.4446 0 .14444 .43336 0 0-.14444-1.58905-1.4446-1.73352-2.31136"/>
<path transform="matrix(1.00003,0,0,-1.00005,130.71282,277.2822)" stroke-width=".79701" stroke-linecap="round" stroke-linejoin="round" fill="none" stroke="#000000" d="M-1.73352 2.31136C-1.58905 1.4446 0 .14444 .43336 0 0-.14444-1.58905-1.4446-1.73352-2.31136"/>
<use data-text="x" xlink:href="#font_8_2" transform="matrix(9.962899,0,0,-9.963098,134.03556,279.7453)"/>
<use data-text="y" xlink:href="#font_8_3" transform="matrix(9.962899,0,0,-9.963098,139.72437,279.7453)"/>
<use data-text="=" xlink:href="#font_9_4" transform="matrix(9.962899,0,0,-9.963098,147.73897,279.7453)"/>
<use data-text="4" xlink:href="#font_9_3" transform="matrix(9.962899,0,0,-9.963098,158.23986,279.7453)"/>
<path transform="matrix(1.00003,0,0,-1.00005,63.34443,289.1828)" stroke-width=".99628" stroke-linecap="butt" stroke-miterlimit="10" stroke-linejoin="miter" fill="none" stroke="#ff0000" d="M.8319 0C6.14426 0 6.14426 0 8.50412 0 10.86398 0 17.00826 0 16.17636 0"/>
<path transform="matrix(-1.00003,-0,0,1.00005,64.17635,289.1828)" stroke-width=".79701" stroke-linecap="round" stroke-linejoin="round" fill="none" stroke="#ff0000" d="M-1.73352 2.31136C-1.58905 1.4446 0 .14444 .43336 0 0-.14444-1.58905-1.4446-1.73352-2.31136"/>
<path transform="matrix(1.00003,0,0,-1.00005,79.52127,289.1828)" stroke-width=".79701" stroke-linecap="round" stroke-linejoin="round" fill="none" stroke="#ff0000" d="M-1.73352 2.31136C-1.58905 1.4446 0 .14444 .43336 0 0-.14444-1.58905-1.4446-1.73352-2.31136"/>
<use data-text="y" xlink:href="#font_8_3" transform="matrix(9.962899,0,0,-9.963098,82.84401,290.58088)"/>
<use data-text="=" xlink:href="#font_9_4" transform="matrix(9.962899,0,0,-9.963098,90.85326,290.58088)"/>
<use data-text="x" xlink:href="#font_8_2" transform="matrix(9.962899,0,0,-9.963098,101.36957,290.58088)"/>
<path transform="matrix(1.00003,0,0,-1.00005,114.535968,289.1828)" stroke-width=".99628" stroke-linecap="butt" stroke-dasharray="2.98883,1.99255,.99628,1.99255" stroke-miterlimit="10" stroke-linejoin="miter" fill="none" stroke="#ff0000" d="M.8319 0C6.14426 0 6.14426 0 8.50412 0 10.86398 0 17.00826 0 16.17636 0"/>
<path transform="matrix(-1.00003,-0,0,1.00005,115.36789,289.1828)" stroke-width=".79701" stroke-linecap="round" stroke-linejoin="round" fill="none" stroke="#ff0000" d="M-1.73352 2.31136C-1.58905 1.4446 0 .14444 .43336 0 0-.14444-1.58905-1.4446-1.73352-2.31136"/>
<path transform="matrix(1.00003,0,0,-1.00005,130.71282,289.1828)" stroke-width=".79701" stroke-linecap="round" stroke-linejoin="round" fill="none" stroke="#ff0000" d="M-1.73352 2.31136C-1.58905 1.4446 0 .14444 .43336 0 0-.14444-1.58905-1.4446-1.73352-2.31136"/>
<use data-text="y" xlink:href="#font_8_3" transform="matrix(9.962899,0,0,-9.963098,134.03556,291.64595)"/>
<use data-text="=" xlink:href="#font_9_4" transform="matrix(9.962899,0,0,-9.963098,142.04479,291.64595)"/>
<use data-text="3" xlink:href="#font_9_2" transform="matrix(9.962899,0,0,-9.963098,152.54569,291.64595)"/>
<use data-text="x" xlink:href="#font_8_2" transform="matrix(9.962899,0,0,-9.963098,157.54225,291.64595)"/>
</svg>
