<svg xmlns="http://www.w3.org/2000/svg" xmlns:xlink="http://www.w3.org/1999/xlink" version="1.1" width="109" height="60" viewBox="0 0 109 60">
<defs>
<clipPath id="clip_1">
<path transform="matrix(1.00005,0,0,-1.00002,-61.030805,125.21818)" d="M0 0H194.26912V161.39438H0Z"/>
</clipPath>
<path id="font_2_1" d="M.34599305 .2461853 .46299745 .37631227C.47599793 .39031983 .48199464 .3973236 .5649872 .3973236V.44433595C.5299988 .44232179 .47799684 .44132997 .47299195 .44132997 .44799806 .44132997 .397995 .44332887 .36999513 .44433595V.3973236C.38398744 .3973236 .3959961 .3953247 .4079895 .38832093 .4039917 .38230897 .4039917 .38031007 .3999939 .37631227L.31599427 .2822113 .21798706 .3973236H.2579956V.44433595C.23199463 .44332887 .16899109 .44132997 .13699341 .44132997 .10499573 .44132997 .05999756 .44332887 .026992798 .44433595V.3973236H.09799194L.2539978 .21315003 .12298584 .06600952C.10598755 .04699707 .069992069 .04699707 .021987915 .04699707V0C.056991579 .0019989014 .10899353 .0029907227 .11399841 .0029907227 .13899231 .0029907227 .19699097 .0009918213 .21699524 0V.04699707C.19898987 .04699707 .17999268 .052001954 .17999268 .057998659 .17999268 .059005739 .17999268 .05999756 .18699646 .06800842L.28399659 .17712403 .3939972 .04699707H.35499574V0C.3809967 .0009918213 .44198609 .0029907227 .47499085 .0029907227 .5069885 .0029907227 .5519867 .0009918213 .58499148 0V.04699707H.5139923L.34599305 .2461853Z"/>
<path id="font_2_2" d="M.5059967 .37631227C.5130005 .39031983 .5159912 .3973236 .5799866 .3973236V.44433595C.55599978 .44232179 .526001 .44132997 .5009918 .44132997 .47599793 .44132997 .43099977 .44332887 .4099884 .44433595V.3973236C.4119873 .3973236 .45700074 .3973236 .45700074 .38531495 .45700074 .38430787 .45298768 .3742981 .45199586 .37330628L.33699037 .1270752 .20999146 .3973236H.2639923V.44433595C.23098755 .44232179 .14099121 .44132997 .13999939 .44132997 .11199951 .44132997 .066986087 .44332887 .025985718 .44433595V.3973236H.08999634L.2769928-.000045776369 .2539978-.048095704C.23199463-.09614563 .19999695-.16419983 .1289978-.16419983 .114990238-.16419983 .11299133-.16320801 .10499573-.16020203 .11399841-.15618897 .13699341-.1421814 .13699341-.10714722 .13699341-.07411194 .11299133-.050094606 .07899475-.050094606 .050994874-.050094606 .021987915-.069107059 .021987915-.1081543 .021987915-.15919495 .068984989-.20019531 .1289978-.20019531 .20599365-.20019531 .2639923-.1381836 .29100038-.08113098L.5059967 .37631227Z"/>
<path id="font_3_1" d="M.40899659 .23046875H.6879883C.70199587 .23046875 .72099307 .23046875 .72099307 .25045777 .72099307 .27046205 .70199587 .27046205 .6879883 .27046205H.40899659V.5500183C.40899659 .56399539 .40899659 .5830078 .3889923 .5830078 .36898805 .5830078 .36898805 .56399539 .36898805 .5500183V.27046205H.08898926C.07499695 .27046205 .055999757 .27046205 .055999757 .25045777 .055999757 .23046875 .07499695 .23046875 .08898926 .23046875H.36898805V-.05000305C.36898805-.06401062 .36898805-.08300781 .3889923-.08300781 .40899659-.08300781 .40899659-.06401062 .40899659-.05000305V.23046875Z"/>
</defs>
<g clip-path="url(#clip_1)">
<path transform="matrix(1.00005,0,0,-1.00002,-61.030805,125.21818)" stroke-width=".3985" stroke-linecap="butt" stroke-miterlimit="10" stroke-linejoin="miter" fill="none" stroke="#000000" d="M152.64002 85.44408 166.35912 122.9888"/>
<path transform="matrix(.34320716,-.9392588,-.9392869,-.3431969,105.33661,2.2269135)" stroke-width=".31879" stroke-linecap="round" stroke-linejoin="round" fill="none" stroke="#000000" d="M-1.19551 1.59401C-1.09587 .99626 0 .09961 .29886 0 0-.09961-1.09587-.99626-1.19551-1.59401"/>
<use data-text="x" xlink:href="#font_2_1" transform="matrix(9.963098,0,0,-9.962799,102.075359,22.998139)"/>
<path transform="matrix(1.00005,0,0,-1.00002,-61.030805,125.21818)" stroke-width=".3985" stroke-linecap="butt" stroke-miterlimit="10" stroke-linejoin="miter" fill="none" stroke="#000000" d="M152.64002 75.95029 125.32088 85.29576"/>
<path transform="matrix(-.9461973,-.3236765,-.32368616,.94616898,64.29634,39.920709)" stroke-width=".31879" stroke-linecap="round" stroke-linejoin="round" fill="none" stroke="#000000" d="M-1.19551 1.59401C-1.09587 .99626 0 .09961 .29886 0 0-.09961-1.09587-.99626-1.19551-1.59401"/>
<use data-text="y" xlink:href="#font_2_2" transform="matrix(9.963098,0,0,-9.962799,60.75927,34.315355)"/>
<path transform="matrix(1.00005,0,0,-1.00002,-61.030805,125.21818)" stroke-width=".3985" stroke-linecap="butt" stroke-dasharray="2.98883,2.98883" stroke-miterlimit="10" stroke-linejoin="miter" fill="none" stroke="#000000" d="M97.13455 66.45651 110.85365 104.00122"/>
<path transform="matrix(.34320716,-.9392588,-.9392869,-.3431969,49.828374,21.214875)" stroke-width=".31879" stroke-linecap="round" stroke-linejoin="round" fill="none" stroke="#000000" d="M-1.19551 1.59401C-1.09587 .99626 0 .09961 .29886 0 0-.09961-1.09587-.99626-1.19551-1.59401"/>
<use data-text="x" xlink:href="#font_2_1" transform="matrix(9.963098,0,0,-9.962799,46.567575,41.98651)"/>
<path transform="matrix(1.00005,0,0,-1.00002,-61.030805,125.21818)" stroke-width=".3985" stroke-linecap="butt" stroke-dasharray="2.98883,2.98883" stroke-miterlimit="10" stroke-linejoin="miter" fill="none" stroke="#000000" d="M111.01093 104.43166 83.69177 113.77711"/>
<path transform="matrix(-.9461973,-.3236765,-.32368616,.94616898,22.665165,11.438789)" stroke-width=".31879" stroke-linecap="round" stroke-linejoin="round" fill="none" stroke="#000000" d="M-1.19551 1.59401C-1.09587 .99626 0 .09961 .29886 0 0-.09961-1.09587-.99626-1.19551-1.59401"/>
<use data-text="y" xlink:href="#font_2_2" transform="matrix(9.963098,0,0,-9.962799,33.005899,10.57988)"/>
<path transform="matrix(1.00005,0,0,-1.00002,-61.030805,125.21818)" stroke-width=".3985" stroke-linecap="butt" stroke-miterlimit="10" stroke-linejoin="miter" fill="none" stroke="#000000" d="M97.13455 66.45651 83.38675 113.48561"/>
<path transform="matrix(-.280574,-.9597992,-.9598279,.28056563,22.360112,11.730293)" stroke-width=".31879" stroke-linecap="round" stroke-linejoin="round" fill="none" stroke="#000000" d="M-1.19551 1.59401C-1.09587 .99626 0 .09961 .29886 0 0-.09961-1.09587-.99626-1.19551-1.59401"/>
<use data-text="x" xlink:href="#font_2_1" transform="matrix(9.963098,0,0,-9.962799,1.219307,36.962404)"/>
<use data-text="+" xlink:href="#font_3_1" transform="matrix(9.963098,0,0,-9.962799,9.4807209,36.962404)"/>
<use data-text="y" xlink:href="#font_2_2" transform="matrix(9.963098,0,0,-9.962799,19.443219,36.962404)"/>
</g>
</svg>
