<svg xmlns="http://www.w3.org/2000/svg" xmlns:xlink="http://www.w3.org/1999/xlink" version="1.1" width="218" height="175" viewBox="0 0 218 175">
<defs>
<clipPath id="clip_1">
<path transform="matrix(1.00003,0,0,-1,4.2955019,171.077)" d="M165.03052 41.14473C150.33374 100.09532 105.28317 146.74715 46.88017 163.49155L23.44008 81.74576C52.64157 73.37355 75.16685 50.04764 82.51524 20.57234L165.03052 41.14473"/>
</clipPath>
<path id="font_2_1" d="M.44198609 .69781497C.43499757 .7108154 .43299867 .7158203 .41600038 .7158203 .39898683 .7158203 .39698792 .7108154 .3899994 .69781497L.051986696 .019989014C.04699707 .010986328 .04699707 .008987427 .04699707 .0079956059 .04699707 0 .052993776 0 .068984989 0H.7630005C.7789917 0 .7849884 0 .7849884 .0079956059 .7849884 .008987427 .7849884 .010986328 .7799988 .019989014L.44198609 .69781497M.38398744 .61582949 .6529999 .07598877H.11399841L.38398744 .61582949Z"/>
<path id="font_3_1" d="M.45498658 .5001831C.45498658 .56614688 .43699647 .7050781 .33499146 .7050781 .19599915 .7050781 .041992189 .42323304 .041992189 .19425965 .041992189 .100250247 .070999149-.0107421879 .1619873-.0107421879 .30299378-.0107421879 .45498658 .27627564 .45498658 .5001831M.147995 .36328126C.16499329 .42723084 .18499756 .5071869 .22499085 .57814028 .2519989 .6271057 .2889862 .68307498 .33399964 .68307498 .3829956 .68307498 .3889923 .6191101 .3889923 .56214907 .3889923 .5131836 .3809967 .46220399 .35699464 .36328126H.147995M.34799195 .3312683C.33699037 .28527833 .31599427 .2002716 .27799989 .12826538 .24299622 .060256959 .20498657 .011245728 .1619873 .011245728 .1289978 .011245728 .10798645 .040252687 .10798645 .133255 .10798645 .17526245 .11399841 .23326111 .13999939 .3312683H.34799195Z"/>
</defs>
<path transform="matrix(1.00003,0,0,-1,4.2955019,171.077)" stroke-width=".79701" stroke-linecap="butt" stroke-miterlimit="10" stroke-linejoin="miter" fill="none" stroke="#000000" d="M0 0H211.89369"/>
<path transform="matrix(1.00003,0,0,-1,216.19556,171.077)" stroke-width=".6376" stroke-linecap="round" stroke-linejoin="round" fill="none" stroke="#000000" d="M-1.55415 2.0722C-1.42464 1.29512 0 .1295 .38852 0 0-.1295-1.42464-1.29512-1.55415-2.0722"/>
<path transform="matrix(1.00003,0,0,-1,4.2955019,171.077)" stroke-width=".79701" stroke-linecap="butt" stroke-miterlimit="10" stroke-linejoin="miter" fill="none" stroke="#000000" d="M0 0V169.37349"/>
<path transform="matrix(0,-1,-1.00003,-0,4.2955019,1.7035065)" stroke-width=".6376" stroke-linecap="round" stroke-linejoin="round" fill="none" stroke="#000000" d="M-1.55415 2.0722C-1.42464 1.29512 0 .1295 .38852 0 0-.1295-1.42464-1.29512-1.55415-2.0722"/>
<g clip-path="url(#clip_1)">
<path transform="matrix(1.00003,0,0,-1,4.2955019,171.077)" stroke-width=".79701" stroke-linecap="butt" stroke-miterlimit="10" stroke-linejoin="miter" fill="none" stroke="#000000" d="M85.04042 0C85.04042 46.96713 46.96713 85.04042 0 85.04042-46.96713 85.04042-85.04042 46.96713-85.04042 0-85.04042-46.96713-46.96713-85.04042 0-85.04042 46.96713-85.04042 85.04042-46.96713 85.04042 0ZM0 0"/>
<path transform="matrix(1.00003,0,0,-1,4.2955019,171.077)" stroke-width=".79701" stroke-linecap="butt" stroke-miterlimit="10" stroke-linejoin="miter" fill="none" stroke="#000000" d="M170.08086 0C170.08086 93.93427 93.93427 170.08086 0 170.08086-93.93427 170.08086-170.08086 93.93427-170.08086 0-170.08086-93.93427-93.93427-170.08086 0-170.08086 93.93427-170.08086 170.08086-93.93427 170.08086 0ZM0 0"/>
<path transform="matrix(1.00003,0,0,-1,4.2955019,171.077)" d="M85.04042 0C85.04042 46.96713 46.96713 85.04042 0 85.04042-46.96713 85.04042-85.04042 46.96713-85.04042 0-85.04042-46.96713-46.96713-85.04042 0-85.04042 46.96713-85.04042 85.04042-46.96713 85.04042 0ZM0 0V0M170.08086 0C170.08086 93.93427 93.93427 170.08086 0 170.08086-93.93427 170.08086-170.08086 93.93427-170.08086 0-170.08086-93.93427-93.93427-170.08086 0-170.08086 93.93427-170.08086 170.08086-93.93427 170.08086 0ZM0 0" fill="#d9d9ff" fill-opacity=".5"/>
</g>
<path transform="matrix(1.00003,0,0,-1,4.2955019,171.077)" stroke-width=".3985" stroke-linecap="butt" stroke-miterlimit="10" stroke-linejoin="miter" fill="none" stroke="#000000" d="M23.44292 81.75572 46.88588 163.51148"/>
<path transform="matrix(1.00003,0,0,-1,4.2955019,171.077)" stroke-width=".3985" stroke-linecap="butt" stroke-miterlimit="10" stroke-linejoin="miter" fill="none" stroke="#000000" d="M37.27911 76.43332 74.55827 152.86669"/>
<path transform="matrix(1.00003,0,0,-1,4.2955019,171.077)" stroke-width=".3985" stroke-linecap="butt" stroke-miterlimit="10" stroke-linejoin="miter" fill="none" stroke="#000000" d="M49.99146 68.80786 99.98294 137.61574"/>
<path transform="matrix(1.00003,0,0,-1,4.2955019,171.077)" stroke-width=".3985" stroke-linecap="butt" stroke-miterlimit="10" stroke-linejoin="miter" fill="none" stroke="#000000" d="M61.17339 59.07387 122.3468 118.14774"/>
<path transform="matrix(1.00003,0,0,-1,4.2955019,171.077)" stroke-width=".3985" stroke-linecap="butt" stroke-miterlimit="10" stroke-linejoin="miter" fill="none" stroke="#000000" d="M70.51053 47.55943 141.02109 95.1189"/>
<path transform="matrix(1.00003,0,0,-1,4.2955019,171.077)" stroke-width=".3985" stroke-linecap="butt" stroke-miterlimit="10" stroke-linejoin="miter" fill="none" stroke="#000000" d="M77.68813 34.58917 155.37628 69.17838"/>
<path transform="matrix(1.00003,0,0,-1,4.2955019,171.077)" stroke-width=".3985" stroke-linecap="butt" stroke-miterlimit="10" stroke-linejoin="miter" fill="none" stroke="#000000" d="M82.5253 20.57483 165.05066 41.14972"/>
<path transform="matrix(1.00003,0,0,-1,4.2955019,171.077)" stroke-width=".3985" stroke-linecap="butt" stroke-miterlimit="10" stroke-linejoin="miter" fill="none" stroke="#000000" d="M41.02016 143.05478C92.12279 128.40343 131.54203 87.58307 144.4017 36.0013"/>
<path transform="matrix(1.00003,0,0,-1,4.2955019,171.077)" stroke-width=".3985" stroke-linecap="butt" stroke-miterlimit="10" stroke-linejoin="miter" fill="none" stroke="#000000" d="M35.16013 122.61867C78.96239 110.06036 112.75032 75.07149 123.77289 30.85854"/>
<path transform="matrix(1.00003,0,0,-1,4.2955019,171.077)" stroke-width=".3985" stroke-linecap="butt" stroke-miterlimit="10" stroke-linejoin="miter" fill="none" stroke="#000000" d="M29.3001 102.18188C65.80196 91.71663 93.95857 62.55923 103.14404 25.71513"/>
<path transform="matrix(1.00003,0,0,-1,4.2955019,171.077)" stroke-width=".3985" stroke-linecap="butt" stroke-dasharray="2.98883,2.98883" stroke-miterlimit="10" stroke-linejoin="miter" fill="none" stroke="#ff0000" d="M0 0 70.50194 47.55363"/>
<path transform="matrix(1.00003,0,0,-1,4.2955019,171.077)" stroke-width=".3985" stroke-linecap="butt" stroke-dasharray="2.98883,2.98883" stroke-miterlimit="10" stroke-linejoin="miter" fill="none" stroke="#ff0000" d="M0 0 61.17339 59.07387"/>
<path transform="matrix(1.00003,0,0,-1,4.2955019,171.077)" stroke-width=".3985" stroke-linecap="butt" stroke-miterlimit="10" stroke-linejoin="miter" fill="none" stroke="#000000" d="M38.10248 37.05336C40.25813 34.83688 42.21918 32.4298 43.95715 29.87268"/>
<use data-text="&#x2206;" xlink:href="#font_2_1" transform="matrix(9.962899,0,0,-9.9626,46.52677,133.539)"/>
<use data-text="&#x03b8;" xlink:href="#font_3_1" transform="matrix(9.962899,0,0,-9.9626,54.829027,133.539)"/>
</svg>
