<svg xmlns="http://www.w3.org/2000/svg" xmlns:xlink="http://www.w3.org/1999/xlink" version="1.1" width="197" height="171" viewBox="0 0 197 171">
<defs>
<path id="font_1_1" d="M.6589966 .23046875C.6759949 .23046875 .69400027 .23046875 .69400027 .25045777 .69400027 .27046205 .6759949 .27046205 .6589966 .27046205H.117996219C.100997928 .27046205 .08299255 .27046205 .08299255 .25045777 .08299255 .23046875 .100997928 .23046875 .117996219 .23046875H.6589966Z"/>
<path id="font_2_6" d="M.2899933 .35191346C.37199403 .37893678 .42999269 .4490509 .42999269 .52809146 .42999269 .6100464 .34199525 .6660156 .24598694 .6660156 .14498902 .6660156 .068984989 .60606387 .068984989 .53009036 .068984989 .49710084 .09098816 .47808839 .11999512 .47808839 .15098572 .47808839 .17098999 .50009158 .17098999 .5290985 .17098999 .57910159 .12399292 .57910159 .10899353 .57910159 .13999939 .62802127 .20599365 .64100649 .24198914 .64100649 .2829895 .64100649 .33799745 .6190338 .33799745 .5290985 .33799745 .51708987 .33599855 .45906068 .30999757 .4149933 .27999879 .36691285 .24598694 .36390687 .22099304 .36291505 .21299744 .36190797 .18899536 .35990907 .18199158 .35990907 .17399597 .35890199 .16699219 .35791017 .16699219 .3479004 .16699219 .33691407 .17399597 .33691407 .19099427 .33691407H.23498535C.31698609 .33691407 .35398866 .2686615 .35398866 .17037964 .35398866 .034469606 .2849884 .0055389406 .24099732 .0055389406 .19799805 .0055389406 .12298584 .022491456 .08799744 .08137512 .12298584 .07637024 .1539917 .09837341 .1539917 .1363678 .1539917 .17237854 .1269989 .19238281 .09799194 .19238281 .07398987 .19238281 .041992189 .17837525 .041992189 .1343689 .041992189 .043441774 .1349945-.022460938 .24398804-.022460938 .3659973-.022460938 .45700074 .06838989 .45700074 .17037964 .45700074 .252594 .3939972 .33088685 .2899933 .35191346Z"/>
<path id="font_2_5" d="M.1269989 .07699585 .23298645 .18003845C.3889923 .31811524 .44898988 .3721466 .44898988 .47216798 .44898988 .5860901 .35899354 .6660156 .23699951 .6660156 .12399292 .6660156 .049987794 .57411196 .049987794 .48516847 .049987794 .4291687 .099990848 .4291687 .102996829 .4291687 .11999512 .4291687 .15499878 .44117738 .15499878 .48217774 .15499878 .5081787 .13699341 .5341797 .101989749 .5341797 .09399414 .5341797 .09199524 .5341797 .08898926 .5331726 .11199951 .59806826 .1659851 .63500979 .22399903 .63500979 .31498719 .63500979 .35798646 .5541382 .35798646 .47216798 .35798646 .39215089 .30799867 .31311036 .25299073 .25108338L.06098938 .036987306C.049987794 .025985718 .049987794 .023986817 .049987794 0H.42099L.44898988 .17404175H.42399598C.4189911 .14402771 .4119873 .1000061 .4019928 .084991458 .394989 .07699585 .32899476 .07699585 .30699159 .07699585H.1269989Z"/>
<path id="font_2_4" d="M.2939911 .64004519C.2939911 .66400149 .2939911 .6660156 .2709961 .6660156 .20899964 .60227969 .12098694 .60227969 .08898926 .60227969V.57128909C.10899353 .57128909 .16799927 .57128909 .21998596 .5972748V.07902527C.21998596 .042999269 .21699524 .0309906 .1269989 .0309906H.09498596V0C.12998963 .0029907227 .21699524 .0029907227 .25698854 .0029907227 .29699708 .0029907227 .38398744 .0029907227 .4189911 0V.0309906H.3869934C.29699708 .0309906 .2939911 .041992189 .2939911 .07902527V.64004519Z"/>
<path id="font_2_3" d="M.45999146 .31976319C.45999146 .39982606 .45498658 .47988893 .41999818 .5539398 .37399293 .65000918 .2919922 .6660156 .25 .6660156 .18998719 .6660156 .116989139 .64001467 .07598877 .54693606 .04399109 .47789 .038986207 .39982606 .038986207 .31976319 .038986207 .24472046 .042999269 .15464783 .083999637 .07859802 .1269989-.0024719239 .19999695-.022460938 .24899292-.022460938 .30299378-.022460938 .3789978-.0014648438 .4229889 .09359741 .45498658 .16265869 .45999146 .2407074 .45999146 .31976319M.24899292-.00047302247C.20999146-.00047302247 .15098572 .024551392 .1329956 .12062073 .12199402 .18066406 .12199402 .2727356 .12199402 .3317871 .12199402 .39582826 .12199402 .46188355 .12998963 .5159149 .14898682 .63500979 .22399903 .64401248 .24899292 .64401248 .28199769 .64401248 .34799195 .6259918 .36698915 .52693179 .3769989 .47088624 .3769989 .39482118 .3769989 .3317871 .3769989 .25672914 .3769989 .18867493 .3659973 .12461853 .35099793 .029556275 .2939911-.00047302247 .24899292-.00047302247Z"/>
<path id="font_2_7" d="M.44898988 .20022583C.44898988 .3193512 .36698915 .41944886 .25898744 .41944886 .21099854 .41944886 .16799927 .40345765 .13198853 .36842347V.5637665C.1519928 .5577698 .18499756 .55078127 .21699524 .55078127 .33999635 .55078127 .4099884 .6417694 .4099884 .6547699 .4099884 .6607666 .40699769 .6657715 .3999939 .6657715 .39898683 .6657715 .39698792 .6657715 .3919983 .66278079 .37199403 .6537781 .32299806 .6337738 .2559967 .6337738 .21598816 .6337738 .16999817 .6407776 .12298584 .6617737 .114990238 .66477969 .11299133 .66477969 .11099243 .66477969 .100997928 .66477969 .100997928 .6567688 .100997928 .6407776V.34439088C.100997928 .32637025 .100997928 .31835938 .114990238 .31835938 .12199402 .31835938 .12399292 .32136537 .12799073 .32736207 .13899231 .3433838 .17599488 .39746095 .25698854 .39746095 .30899049 .39746095 .33399964 .35139466 .34199525 .33337403 .35798646 .29632569 .3600006 .25727845 .3600006 .20722962 .3600006 .17222595 .3600006 .11222839 .33599855 .07035828 .31199647 .031463624 .2749939 .0055389406 .22898865 .0055389406 .1559906 .0055389406 .09899902 .058380128 .08198547 .11723328 .084991458 .1162262 .08799744 .115234378 .09899902 .115234378 .13198853 .115234378 .14898682 .14022827 .14898682 .16423035 .14898682 .18823242 .13198853 .21322632 .09899902 .21322632 .084991458 .21322632 .049987794 .20622254 .049987794 .16023255 .049987794 .07434082 .11898804-.022460938 .23098755-.022460938 .34700013-.022460938 .44898988 .073349 .44898988 .20022583Z"/>
<clipPath id="clip_3">
<path transform="matrix(1.00003,0,0,-1.00006,-23.18723,1013.91)" d="M24.28363 847.3341H218.55275V1008.7311H24.28363Z"/>
</clipPath>
<path id="font_4_3" d="M.20599365 .3996582H.2999878C.31999208 .3996582 .32998658 .3996582 .32998658 .41966249 .32998658 .43066407 .31999208 .43066407 .3019867 .43066407H.21398926C.25 .5724945 .25498963 .59246829 .25498963 .59846499 .25498963 .61546328 .24299622 .62545779 .22599793 .62545779 .22299195 .62545779 .19499207 .62446597 .18598938 .58947756L.14698792 .43066407H.052993776C.032989503 .43066407 .022994996 .43066407 .022994996 .4116516 .022994996 .3996582 .0309906 .3996582 .050994874 .3996582H.13899231C.066986087 .11608887 .06298828 .099121097 .06298828 .08114624 .06298828 .02722168 .100997928-.0107421879 .15499878-.0107421879 .25698854-.0107421879 .31399537 .13505554 .31399537 .14305115 .31399537 .1530304 .30599977 .1530304 .3019867 .1530304 .29299928 .1530304 .2919922 .15003968 .2869873 .13905335 .24398804 .035217287 .19099427 .011245728 .15699768 .011245728 .13598633 .011245728 .12599182 .024230957 .12599182 .057174684 .12599182 .08114624 .12799073 .088134769 .13198853 .10510254L.20599365 .3996582Z"/>
<path id="font_4_4" d="M.48599244 .38136292C.48999024 .39537049 .48999024 .39736939 .48999024 .40437318 .48999024 .42237855 .47599793 .43138124 .46099855 .43138124 .45098878 .43138124 .43499757 .42536927 .42599488 .41036988 .42399598 .405365 .41600038 .37435914 .4119873 .35635377 .40499879 .33035279 .397995 .30334474 .3919983 .27633668L.34700013 .09628296C.34298707 .08126831 .2999878 .011245728 .23399353 .011245728 .18299866 .011245728 .17199707 .055267335 .17199707 .0922699 .17199707 .1382904 .18899536 .20030213 .22299195 .28833009 .23899842 .3293457 .24299622 .3403473 .24299622 .36035157 .24299622 .405365 .21099854 .4423828 .16099549 .4423828 .06599426 .4423828 .0289917 .29733277 .0289917 .28833009 .0289917 .27833558 .038986207 .27833558 .040985109 .27833558 .050994874 .27833558 .051986696 .28033448 .056991579 .29634095 .083999637 .3903656 .12399292 .42037965 .1579895 .42037965 .1659851 .42037965 .18299866 .42037965 .18299866 .3883667 .18299866 .36335755 .17298889 .3373413 .1659851 .31834413 .12599182 .21231079 .10798645 .1552887 .10798645 .10827637 .10798645 .019256592 .17098999-.0107421879 .22999573-.0107421879 .2689972-.0107421879 .30299378 .0062561037 .33099366 .03425598 .31799317-.017745972 .30599977-.06674194 .2659912-.11973572 .23999024-.15385437 .20199585-.18309021 .1559906-.18309021 .14199829-.18309021 .09700012-.18005371 .07998657-.14074707 .09599304-.14074707 .10899353-.14074707 .12298584-.1287384 .1329956-.11973572 .14299011-.10673523 .14299011-.08773804 .14299011-.056747438 .115997318-.052734376 .10598755-.052734376 .08299255-.052734376 .049987794-.068740848 .049987794-.11773682 .049987794-.16796875 .09399414-.20507813 .1559906-.20507813 .25898744-.20507813 .3619995-.11373901 .3899994-.00074768069L.48599244 .38136292Z"/>
<path id="font_2_8" d="M.68699648 .32714845C.70199587 .32714845 .72099307 .32714845 .72099307 .34713746 .72099307 .36714173 .70199587 .36714173 .6879883 .36714173H.08898926C.07499695 .36714173 .055999757 .36714173 .055999757 .34713746 .055999757 .32714845 .07499695 .32714845 .08999634 .32714845H.68699648M.6879883 .13284302C.70199587 .13284302 .72099307 .13284302 .72099307 .15284729 .72099307 .17285156 .70199587 .17285156 .68699648 .17285156H.08999634C.07499695 .17285156 .055999757 .17285156 .055999757 .15284729 .055999757 .13284302 .07499695 .13284302 .08898926 .13284302H.6879883Z"/>
<path id="font_4_2" d="M.47099305 .3773346C.47200013 .3833313 .47399903 .38833619 .47399903 .39535523 .47399903 .41236878 .46199037 .42237855 .44499208 .42237855 .43499757 .42237855 .4079895 .41537477 .4039917 .3793335 .38598634 .41636659 .35099793 .4423828 .31098939 .4423828 .19699097 .4423828 .07299805 .30226136 .07299805 .15812683 .07299805 .059020997 .13398743 0 .20599365 0 .2649994 0 .31199647 .04701233 .32199098 .058029176L.32299806 .057022096C.3019867-.031982423 .2899933-.07295227 .2899933-.07495117 .28599549-.08395386 .2519989-.18309021 .1459961-.18309021 .1269989-.18309021 .09399414-.18206787 .06599426-.17297364 .09599304-.16394043 .10699463-.13793946 .10699463-.12094116 .10699463-.10494995 .09599304-.0859375 .068984989-.0859375 .04699707-.0859375 .01499939-.10394287 .01499939-.14395142 .01499939-.18508911 .051986696-.20507813 .147995-.20507813 .272995-.20507813 .34498597-.12693787 .3600006-.06695557L.47099305 .3773346M.34098817 .12809754C.33499146 .10206604 .31199647 .077041629 .2899933 .058029176 .2689972 .040008546 .23799134 .021987915 .20899964 .021987915 .15899658 .021987915 .14399719 .074035648 .14399719 .11407471 .14399719 .16212464 .17298889 .28024293 .19999695 .33128358 .22698975 .38034059 .269989 .42037965 .31199647 .42037965 .37799073 .42037965 .3919983 .33929444 .3919983 .33428956 .3919983 .32928468 .3899994 .3232727 .3889923 .3192749L.34098817 .12809754Z"/>
<path id="font_2_1" d="M.33099366-.2400055C.33099366-.23701477 .33099366-.23500061 .31399537-.21800232 .18899536-.0920105 .15699768 .09700012 .15699768 .25 .15699768 .42399598 .19499207 .59799197 .31799317 .72299197 .33099366 .73498538 .33099366 .7369995 .33099366 .73999026 .33099366 .746994 .32699586 .75 .32099916 .75 .31098939 .75 .22099304 .6819916 .1619873 .5549927 .11099243 .44499208 .09899902 .33399964 .09899902 .25 .09899902 .17199707 .10998535 .050994874 .16499329-.06201172 .22499085-.18501282 .31098939-.25 .32099916-.25 .32699586-.25 .33099366-.24700928 .33099366-.2400055Z"/>
<path id="font_2_2" d="M.2889862 .25C.2889862 .32798768 .27799989 .44898988 .22299195 .56199648 .16299439 .68499758 .07699585 .75 .066986087 .75 .06098938 .75 .056991579 .74598696 .056991579 .73999026 .056991579 .7369995 .056991579 .73498538 .07598877 .71699526 .17399597 .6179962 .23098755 .45899964 .23098755 .25 .23098755 .07899475 .19400025-.09700012 .069992069-.2230072 .056991579-.23500061 .056991579-.23701477 .056991579-.2400055 .056991579-.2460022 .06098938-.25 .066986087-.25 .07699585-.25 .16699219-.18200684 .22599793-.055007936 .2769928 .054992677 .2889862 .16600037 .2889862 .25Z"/>
<path id="font_4_1" d="M.5159912 .68333438C.5159912 .6843262 .5159912 .69433596 .5029907 .69433596 .48799134 .69433596 .3929901 .68533328 .37599183 .68333438 .36799623 .6823273 .3619995 .6773224 .3619995 .6643219 .3619995 .6523285 .37098695 .6523285 .38598634 .6523285 .43399049 .6523285 .43598939 .6453247 .43598939 .6353302L.43299867 .6153412 .37298585 .37835694C.35499574 .41537477 .32598878 .4423828 .2809906 .4423828 .1639862 .4423828 .039993287 .29533387 .039993287 .14929199 .039993287 .055267335 .09498596-.0107421879 .17298889-.0107421879 .19299317-.0107421879 .24299622-.0067443849 .30299378 .06427002 .31098939 .022247315 .34599305-.0107421879 .3939972-.0107421879 .42900086-.0107421879 .45199586 .012252808 .46798707 .044265748 .4850006 .08027649 .49798585 .14129639 .49798585 .14329529 .49798585 .1532898 .4889984 .1532898 .48599244 .1532898 .47599793 .1532898 .47499085 .14929199 .47200013 .13528443 .45498658 .07026672 .43699647 .011245728 .3959961 .011245728 .36898805 .011245728 .3659973 .037261964 .3659973 .057266237 .3659973 .08126831 .36799623 .088272098 .37199403 .105285648L.5159912 .68333438M.30799867 .119277957C.30299378 .10127258 .30299378 .09927368 .28799439 .08227539 .24398804 .027252198 .20298767 .011245728 .1749878 .011245728 .125 .011245728 .11099243 .06626892 .11099243 .105285648 .11099243 .1552887 .14299011 .27833558 .1659851 .32434083 .19699097 .38336183 .24198914 .42037965 .28199769 .42037965 .34700013 .42037965 .36099244 .3383484 .36099244 .33235169 .36099244 .32633973 .35899354 .32034303 .35798646 .31533814L.30799867 .119277957Z"/>
</defs>
<path transform="matrix(1.00003,0,0,-1.00006,-23.18723,1013.91)" stroke-width=".3985" stroke-linecap="butt" stroke-miterlimit="10" stroke-linejoin="miter" fill="none" stroke="#cbcbcb" d="M48.56728 847.3341V1008.7311M72.8509 847.3341V1008.7311M97.13455 847.3341V1008.7311M145.70183 847.3341V1008.7311M169.98548 847.3341V1008.7311M194.26912 847.3341V1008.7311"/>
<path transform="matrix(1.00003,0,0,-1.00006,-23.18723,1013.91)" stroke-width=".3985" stroke-linecap="butt" stroke-miterlimit="10" stroke-linejoin="miter" fill="none" stroke="#cbcbcb" d="M24.28363 847.3341H218.55275M24.28363 887.68338H218.55275M24.28363 968.38186H218.55275M24.28363 1008.7311H218.55275"/>
<path transform="matrix(1.00003,0,0,-1.00006,-23.18723,1013.91)" stroke-width=".19925" stroke-linecap="butt" stroke-miterlimit="10" stroke-linejoin="miter" fill="none" stroke="#929292" d="M48.56728 925.9072V930.1579M72.8509 925.9072V930.1579M97.13455 925.9072V930.1579M145.70183 925.9072V930.1579M169.98548 925.9072V930.1579M194.26912 925.9072V930.1579"/>
<path transform="matrix(1.00003,0,0,-1.00006,-23.18723,1013.91)" stroke-width=".19925" stroke-linecap="butt" stroke-miterlimit="10" stroke-linejoin="miter" fill="none" stroke="#929292" d="M119.29224 847.3341H123.54413M119.29224 887.68338H123.54413M119.29224 968.38186H123.54413M119.29224 1008.7311H123.54413"/>
<path transform="matrix(1.00003,0,0,-1.00006,-23.18723,1013.91)" stroke-width=".3985" stroke-linecap="butt" stroke-miterlimit="10" stroke-linejoin="miter" fill="none" stroke="#000000" d="M24.28363 928.0326H216.56023"/>
<path transform="matrix(1.00003,0,0,-1.00006,193.3795,85.82172)" d="M1.99252 0-1.19551 1.59401 0 0-1.19551-1.59401"/>
<path transform="matrix(1.00003,0,0,-1.00006,-23.18723,1013.91)" stroke-width=".3985" stroke-linecap="butt" stroke-miterlimit="10" stroke-linejoin="miter" fill="none" stroke="#000000" d="M121.4182 847.3341V1006.7385"/>
<path transform="matrix(0,-1.00006,-1.00003,-0,98.23462,7.111084)" d="M1.99252 0-1.19551 1.59401 0 0-1.19551-1.59401"/>
<use data-text="&#x2212;" xlink:href="#font_1_1" transform="matrix(9.962899,0,0,-9.963197,19.016037,97.88806)"/>
<use data-text="3" xlink:href="#font_2_6" transform="matrix(9.962899,0,0,-9.963197,26.76527,97.88806)"/>
<use data-text="&#x2212;" xlink:href="#font_1_1" transform="matrix(9.962899,0,0,-9.963197,43.30077,97.88806)"/>
<use data-text="2" xlink:href="#font_2_5" transform="matrix(9.962899,0,0,-9.963197,51.050004,97.88806)"/>
<use data-text="&#x2212;" xlink:href="#font_1_1" transform="matrix(9.962899,0,0,-9.963197,67.58449,97.88806)"/>
<use data-text="1" xlink:href="#font_2_4" transform="matrix(9.962899,0,0,-9.963197,75.333728,97.88806)"/>
<use data-text="1" xlink:href="#font_2_4" transform="matrix(9.962899,0,0,-9.963197,120.028079,97.88806)"/>
<use data-text="2" xlink:href="#font_2_5" transform="matrix(9.962899,0,0,-9.963197,144.3128,97.88806)"/>
<use data-text="3" xlink:href="#font_2_6" transform="matrix(9.962899,0,0,-9.963197,168.59654,97.88806)"/>
<use data-text="&#x2212;" xlink:href="#font_1_1" transform="matrix(9.962899,0,0,-9.963197,74.87671,169.32032)"/>
<use data-text="1" xlink:href="#font_2_4" transform="matrix(9.962899,0,0,-9.963197,82.625949,169.32032)"/>
<use data-text="0" xlink:href="#font_2_3" transform="matrix(9.962899,0,0,-9.963197,87.60739,169.32032)"/>
<use data-text="&#x2212;" xlink:href="#font_1_1" transform="matrix(9.962899,0,0,-9.963197,79.857868,128.96894)"/>
<use data-text="5" xlink:href="#font_2_7" transform="matrix(9.962899,0,0,-9.963197,87.6071,128.96894)"/>
<use data-text="5" xlink:href="#font_2_7" transform="matrix(9.962899,0,0,-9.963197,87.6071,48.680116)"/>
<use data-text="1" xlink:href="#font_2_4" transform="matrix(9.962899,0,0,-9.963197,82.625949,8.328674)"/>
<use data-text="0" xlink:href="#font_2_3" transform="matrix(9.962899,0,0,-9.963197,87.6074,8.328674)"/>
<g clip-path="url(#clip_3)">
<path transform="matrix(1.00003,0,0,-1.00006,-23.18723,1013.91)" stroke-width="1.59404" stroke-linecap="butt" stroke-miterlimit="10" stroke-linejoin="miter" fill="none" stroke="#0000ff" d="M0 1987.2002C0 1987.2002 3.58041 1855.8622 4.95555 1809.7438 6.33069 1763.6255 8.53596 1694.947 9.9111 1654.8112 11.28624 1614.6752 13.49153 1555.1497 14.86667 1520.4718 16.24182 1485.7941 18.4471 1434.5983 19.82224 1404.8776 21.19737 1375.1569 23.40265 1331.507 24.77779 1306.2656 26.15292 1281.0242 28.35822 1244.1718 29.73335 1222.9555 31.1085 1201.739 33.31378 1170.9752 34.68892 1153.3527 36.06406 1135.7302 38.26935 1110.3812 39.64449 1095.9446 41.01962 1081.5079 43.2249 1060.9386 44.60004 1049.3035 45.97519 1037.6683 48.18047 1021.2813 49.5556 1012.08657 50.93074 1002.8917 53.13603 990.1262 54.51117 983.03378 55.8863 975.94137 58.09158 966.2739 59.46672 960.9693 60.84187 955.6646 63.04715 948.6097 64.42229 944.8015 65.79742 940.99337 68.00272 936.1023 69.37785 933.5226 70.75299 930.9429 72.95827 927.8046 74.3334 926.2087 75.70856 924.61276 77.91383 922.8536 79.28899 922.01998 80.66412 921.18637 82.8694 920.47 84.24454 920.2006 85.61967 919.9313 87.82495 919.9586 89.20009 920.07876 90.57524 920.1988 92.78052 920.7082 94.15567 921.0663 95.5308 921.4244 97.73608 922.19168 99.11122 922.65957 100.48636 923.1274 102.69164 923.9656 104.06677 924.43838 105.44193 924.9111 107.6472 925.6708 109.02235 926.06686 110.39749 926.4629 112.60277 927.03176 113.9779 927.2928 115.35304 927.55386 117.55833 927.8573 118.93347 927.94839 120.30861 928.0394 122.51389 928.0398 123.88904 927.9492 125.26418 927.85867 127.46945 927.5561 128.84459 927.2955 130.21973 927.03488 132.42502 926.4666 133.80016 926.07089 135.1753 925.6752 137.38057 924.9159 138.75572 924.4433 140.13086 923.97067 142.33615 923.13247 143.71129 922.6645 145.08643 922.1965 147.2917 921.4288 148.66684 921.0702 150.04198 920.7117 152.24726 920.2012 153.6224 920.0802 154.99755 919.9592 157.20284 919.9302 158.57798 920.1982 159.95311 920.4662 162.15839 921.18026 163.53353 922.01199 164.90866 922.8437 167.11394 924.5994 168.48909 926.19296 169.86423 927.78646 172.06952 930.92037 173.44466 933.497 174.8198 936.0736 177.02507 940.9592 178.4002 944.76358 179.77535 948.56796 181.98064 955.6163 183.35578 960.9163 184.73093 966.2164 186.9362 975.87576 188.31134 982.96279 189.68648 990.04977 191.89176 1002.8061 193.26689 1011.99459 194.64203 1021.183 196.84732 1037.559 198.22246 1049.1867 199.59761 1060.8143 201.80289 1081.3709 203.17803 1095.799 204.55316 1110.2272 206.75844 1135.5619 208.13358 1153.175 209.50872 1170.7882 211.714 1201.5364 213.08914 1222.7422 214.4643 1243.948 216.66957 1280.7821 218.04471 1306.0117 219.41985 1331.2413 221.62514 1374.8721 223.00028 1404.5797 224.37541 1434.2874 226.58069 1485.4603 227.95583 1520.1233 229.33098 1554.7864 231.53626 1614.287 232.91139 1654.4069 234.28653 1694.5267 236.49182 1763.1785 237.86696 1809.2796 239.2421 1855.3805 242.82251 1986.6707 242.82251 1986.6707"/>
<path transform="matrix(1.00003,0,0,-1.00006,-23.18723,1013.91)" stroke-width="1.59404" stroke-linecap="butt" stroke-dasharray="2.98883,2.98883" stroke-miterlimit="10" stroke-linejoin="miter" fill="none" stroke="#ff0000" d="M0 0C0 0 3.58041 84.60648 4.95555 115.24481 6.33069 145.88314 8.53596 192.80783 9.9111 220.81974 11.28624 248.83165 13.49153 291.6356 14.86667 317.13523 16.24182 342.63484 18.4471 381.50166 19.82224 404.60325 21.19737 427.7048 23.40265 462.8175 24.77779 483.6352 26.15292 504.45289 28.35822 535.99478 29.73335 554.64279 31.1085 573.2907 33.31378 601.44448 34.68892 618.0369 36.06406 634.62936 38.26935 659.5785 39.64449 674.2297 41.01962 688.8809 43.2249 710.80868 44.60004 723.63278 45.97519 736.4569 48.18047 755.5459 49.5556 766.65707 50.93074 777.7681 53.13603 794.2016 54.51117 803.714 55.8863 813.2264 58.09158 827.1878 59.46672 835.21566 60.84187 843.24349 63.04715 854.9155 64.42229 861.57296 65.79742 868.23037 68.00272 877.7964 69.37785 883.1976 70.75299 888.5988 72.95827 896.24197 74.3334 900.50119 75.70856 904.7604 77.91383 910.6637 79.28899 913.8951 80.66412 917.1264 82.8694 921.47299 84.24454 923.79067 85.61967 926.1084 87.82495 929.0813 89.20009 930.5996 90.57524 932.11788 92.78052 933.9003 94.15567 934.7333 95.5308 935.5662 97.73608 936.3413 99.11122 936.6032 100.48636 936.8651 102.69164 936.8159 104.06677 936.621 105.44193 936.42599 107.6472 935.7356 109.02235 935.1979 110.39749 934.66018 112.60277 933.5117 113.9779 932.7455 115.35304 931.97927 117.55833 930.5559 118.93347 929.67538 120.30861 928.7948 122.51389 927.27969 123.88904 926.3989 125.26418 925.5182 127.46945 924.09426 128.84459 923.3276 130.21973 922.5608 132.42502 921.41146 133.80016 920.873 135.1753 920.3345 137.38057 919.6425 138.75572 919.4464 140.13086 919.2503 142.33615 919.19906 143.71129 919.4595 145.08643 919.7199 147.2917 920.4924 148.66684 921.3236 150.04198 922.15487 152.24726 923.9342 153.6224 925.45046 154.99755 926.9666 157.20284 929.936 158.57798 932.25137 159.95311 934.56668 162.15839 938.9092 163.53353 942.1378 164.90866 945.36648 167.11394 951.2651 168.48909 955.52127 169.86423 959.7774 172.06952 967.41537 173.44466 972.81326 174.8198 978.2111 177.02507 987.77169 178.4002 994.42538 179.77535 1001.07907 181.98064 1012.74496 183.35578 1020.76876 184.73093 1028.7925 186.9362 1042.7472 188.31134 1052.2553 189.68648 1061.7633 191.89176 1078.1898 193.26689 1089.2963 194.64203 1100.4028 196.84732 1119.4841 198.22246 1132.3032 199.59761 1145.1223 201.80289 1167.0414 203.17803 1181.6873 204.55316 1196.3333 206.75844 1221.2739 208.13358 1237.8609 209.50872 1254.4479 211.714 1282.5924 213.08914 1301.2345 214.4643 1319.8766 216.66957 1351.4086 218.04471 1372.2201 219.41985 1393.0317 221.62514 1428.1348 223.00028 1451.2299 224.37541 1474.3248 226.58069 1513.1807 227.95583 1538.6734 229.33098 1564.1659 231.53626 1606.9583 232.91139 1634.9629 234.28653 1662.9675 236.49182 1709.8804 237.86696 1740.5112 239.2421 1771.1421 242.82251 1855.729 242.82251 1855.729"/>
</g>
<use data-text="t" xlink:href="#font_4_3" transform="matrix(9.962899,0,0,-9.963197,188.25412,82.302127)"/>
<use data-text="y" xlink:href="#font_4_4" transform="matrix(9.962899,0,0,-9.963197,101.75453,12.9279789)"/>
<path transform="matrix(1.00003,0,0,-1.00006,-23.18723,1013.91)" d="M150.92076 969.2286H214.46727V1005.3031H150.92076Z" fill="#ffffff"/>
<path transform="matrix(1.00003,0,0,-1.00006,-23.18723,1013.91)" stroke-width=".3985" stroke-linecap="butt" stroke-miterlimit="10" stroke-linejoin="miter" fill="none" stroke="#000000" d="M150.92076 969.2286H214.46727V1005.3031H150.92076Z"/>
<path transform="matrix(1.00003,0,0,-1.00006,131.52442,17.015259)" stroke-width="1.59404" stroke-linecap="butt" stroke-miterlimit="10" stroke-linejoin="miter" fill="none" stroke="#0000ff" d="M0 0C0 0 6.14426 0 8.50412 0 10.86398 0 17.00826 0 17.00826 0"/>
<use data-text="y" xlink:href="#font_4_4" transform="matrix(9.962899,0,0,-9.963197,151.32202,20.004456)"/>
<use data-text="=" xlink:href="#font_2_8" transform="matrix(9.962899,0,0,-9.963197,159.33127,20.004456)"/>
<use data-text="g" xlink:href="#font_4_2" transform="matrix(9.962899,0,0,-9.963197,169.84757,20.004456)"/>
<use data-text="(" xlink:href="#font_2_1" transform="matrix(9.962899,0,0,-9.963197,174.95774,20.004456)"/>
<use data-text="t" xlink:href="#font_4_3" transform="matrix(9.962899,0,0,-9.963197,178.83185,20.004456)"/>
<use data-text=")" xlink:href="#font_2_2" transform="matrix(9.962899,0,0,-9.963197,182.42996,20.004456)"/>
<path transform="matrix(1.00003,0,0,-1.00006,131.52442,33.061159)" stroke-width="1.59404" stroke-linecap="butt" stroke-dasharray="2.98883,2.98883" stroke-miterlimit="10" stroke-linejoin="miter" fill="none" stroke="#ff0000" d="M0 0C0 0 6.14426 0 8.50412 0 10.86398 0 17.00826 0 17.00826 0"/>
<use data-text="y" xlink:href="#font_4_4" transform="matrix(9.962899,0,0,-9.963197,152.95807,39.143495)"/>
<use data-text="=" xlink:href="#font_2_8" transform="matrix(9.962899,0,0,-9.963197,160.96732,39.143495)"/>
<use data-text="d" xlink:href="#font_4_1" transform="matrix(9.962899,0,0,-9.963197,172.67966,32.403139)"/>
<use data-text="g" xlink:href="#font_4_2" transform="matrix(9.962899,0,0,-9.963197,178.34854,32.403139)"/>
<path transform="matrix(1.00003,0,0,-1.00006,55.858148,-954.8301)" stroke-width=".3985" stroke-linecap="butt" stroke-miterlimit="10" stroke-linejoin="miter" fill="none" stroke="#000000" d="M116.818-991.423H127.611"/>
<use data-text="d" xlink:href="#font_4_1" transform="matrix(9.962899,0,0,-9.963197,173.43567,45.97693)"/>
<use data-text="t" xlink:href="#font_4_3" transform="matrix(9.962899,0,0,-9.963197,178.61638,45.97693)"/>
</svg>
