<svg xmlns="http://www.w3.org/2000/svg" xmlns:xlink="http://www.w3.org/1999/xlink" version="1.1" width="197" height="165" viewBox="0 0 197 165">
<defs>
<clipPath id="clip_1">
<path transform="matrix(1,0,0,-1,1.0960007,163.185)" d="M0 0H194.26456V161.388H0Z"/>
</clipPath>
<path id="font_2_1" d="M.37298585 .37835694C.35499574 .41537477 .32598878 .4423828 .2809906 .4423828 .1639862 .4423828 .039993287 .29533387 .039993287 .14929199 .039993287 .055267335 .09498596-.0107421879 .17298889-.0107421879 .19299317-.0107421879 .24299622-.0067443849 .30299378 .06427002 .31098939 .022247315 .34599305-.0107421879 .3939972-.0107421879 .42900086-.0107421879 .45199586 .012252808 .46798707 .044265748 .4850006 .08027649 .49798585 .14129639 .49798585 .14329529 .49798585 .1532898 .4889984 .1532898 .48599244 .1532898 .47599793 .1532898 .47499085 .14929199 .47200013 .13528443 .45498658 .07026672 .43699647 .011245728 .3959961 .011245728 .36898805 .011245728 .3659973 .037261964 .3659973 .057266237 .3659973 .07926941 .36799623 .08728027 .3789978 .13128662 .3899994 .17329407 .3919983 .18330384 .40098573 .22131348L.43699647 .36135865C.44400025 .38935853 .44400025 .39135743 .44400025 .39537049 .44400025 .41236878 .43199159 .42237855 .4149933 .42237855 .3909912 .42237855 .37599183 .4003601 .37298585 .37835694M.30799867 .119277957C.30299378 .10127258 .30299378 .09927368 .28799439 .08227539 .24398804 .027252198 .20298767 .011245728 .1749878 .011245728 .125 .011245728 .11099243 .06626892 .11099243 .105285648 .11099243 .1552887 .14299011 .27833558 .1659851 .32434083 .19699097 .38336183 .24198914 .42037965 .28199769 .42037965 .34700013 .42037965 .36099244 .3383484 .36099244 .33235169 .36099244 .32633973 .35899354 .32034303 .35798646 .31533814L.30799867 .119277957Z"/>
<path id="font_2_2" d="M.23899842 .68333438C.23899842 .6843262 .23899842 .69433596 .22599793 .69433596 .20298767 .69433596 .12998963 .6863251 .10398865 .6843262 .09599304 .68333438 .084991458 .6823273 .084991458 .6643219 .084991458 .6523285 .09399414 .6523285 .10899353 .6523285 .15699768 .6523285 .15899658 .6453247 .15899658 .6353302 .15899658 .6283264 .1499939 .5943451 .14498902 .573349L.06298828 .24731446C.050994874 .1973114 .04699707 .18130493 .04699707 .14628601 .04699707 .05126953 .099990848-.0107421879 .17399597-.0107421879 .2919922-.0107421879 .4149933 .1382904 .4149933 .28233338 .4149933 .37335206 .3619995 .4423828 .28199769 .4423828 .23599243 .4423828 .19499207 .41337586 .16499329 .38235475L.23899842 .68333438M.14498902 .30534364C.15098572 .3273468 .15098572 .3293457 .1599884 .3403473 .20899964 .405365 .2539978 .42037965 .27999879 .42037965 .31599427 .42037965 .34298707 .3903656 .34298707 .32633973 .34298707 .26733399 .30999757 .15229798 .2919922 .11428833 .25898744 .04725647 .21299744 .011245728 .17399597 .011245728 .13999939 .011245728 .10699463 .038253786 .10699463 .11227417 .10699463 .13128662 .10699463 .15029907 .12298584 .21331787L.14498902 .30534364Z"/>
<clipPath id="clip_3">
<path transform="matrix(1,0,0,-1,1.0960007,163.185)" d="M0 0H194.26456V161.388H0Z"/>
</clipPath>
<path id="font_2_5" d="M.2869873 .68333438C.2869873 .6843262 .2869873 .69433596 .27398683 .69433596 .25099183 .69433596 .17799378 .6863251 .1519928 .6843262 .14399719 .68333438 .1329956 .6823273 .1329956 .6643219 .1329956 .6523285 .14199829 .6523285 .15699768 .6523285 .20498657 .6523285 .20698548 .6453247 .20698548 .6353302L.20399475 .6153412 .05899048 .039260866C.054992677 .025253296 .054992677 .023254395 .054992677 .01725769 .054992677-.0057525637 .07499695-.0107421879 .083999637-.0107421879 .099990848-.0107421879 .115997318 .0012512207 .12098694 .015258789L.13999939 .091278079 .1619873 .18130493C.16799927 .2033081 .17399597 .22531128 .1789856 .24832154 .18099976 .25431825 .18899536 .28733827 .18998719 .29333497 .19299317 .30233766 .22399903 .35835267 .2579956 .38536073 .27999879 .4013672 .31098939 .42037965 .35398866 .42037965 .39698792 .42037965 .4079895 .3863678 .4079895 .35035707 .4079895 .29634095 .36999513 .18730164 .34599305 .12628174 .33799745 .103271488 .33299256 .091278079 .33299256 .0712738 .33299256 .024261475 .36799623-.0107421879 .4149933-.0107421879 .5089874-.0107421879 .54599 .13528443 .54599 .14329529 .54599 .1532898 .5369873 .1532898 .5339966 .1532898 .5239868 .1532898 .5239868 .15029907 .5189972 .13528443 .5039978 .08227539 .47200013 .011245728 .4169922 .011245728 .3999939 .011245728 .3929901 .021255494 .3929901 .044265748 .3929901 .0692749 .4019928 .09327698 .41099549 .11528015 .4269867 .15829468 .47200013 .2773285 .47200013 .3353424 .47200013 .4003601 .43199159 .4423828 .35699464 .4423828 .2939911 .4423828 .24598694 .41137696 .20899964 .36535646L.2869873 .68333438Z"/>
<path id="font_4_4" d="M.68699648 .32714845C.70199587 .32714845 .72099307 .32714845 .72099307 .34713746 .72099307 .36714173 .70199587 .36714173 .6879883 .36714173H.08898926C.07499695 .36714173 .055999757 .36714173 .055999757 .34713746 .055999757 .32714845 .07499695 .32714845 .08999634 .32714845H.68699648M.6879883 .13284302C.70199587 .13284302 .72099307 .13284302 .72099307 .15284729 .72099307 .17285156 .70199587 .17285156 .68699648 .17285156H.08999634C.07499695 .17285156 .055999757 .17285156 .055999757 .15284729 .055999757 .13284302 .07499695 .13284302 .08898926 .13284302H.6879883Z"/>
<path id="font_5_3" d="M.40699769 .39465333H.5049896C.5249939 .39465333 .5379944 .39465333 .5379944 .4166565 .5379944 .43066407 .5249939 .43066407 .5069885 .43066407H.4139862C.43699647 .5580139 .44499208 .6040497 .45298768 .63305667 .45799256 .6550598 .47999574 .6760864 .5039978 .6760864 .5049896 .6760864 .5319977 .6760864 .5509949 .6640625 .5099945 .651062 .5069885 .61505129 .5069885 .60905459 .5069885 .5870514 .5239868 .572052 .5469971 .572052 .57398989 .572052 .60398867 .59506228 .60398867 .63305667 .60398867 .6790924 .5549927 .70410159 .5039978 .70410159 .45999146 .70410159 .41099549 .6790924 .38398744 .62905886 .3639984 .5920563 .35598756 .5469818 .33499146 .43066407H.2559967C.23599243 .43066407 .22299195 .43066407 .22299195 .4086609 .22299195 .39465333 .23599243 .39465333 .2539978 .39465333H.32798768C.32699586 .38865663 .2639923 .028869629 .23999024-.078063968 .23498535-.10006714 .21798706-.17610169 .16999817-.17610169 .16899109-.17610169 .14498902-.17610169 .12599182-.1640625 .16699219-.15107727 .16999817-.11506653 .16999817-.109069827 .16999817-.08706665 .15299988-.07206726 .12998963-.07206726 .102996829-.07206726 .07299805-.095077518 .07299805-.1330719 .07299805-.17811585 .11999512-.20410156 .16999817-.20410156 .23399353-.20410156 .27799989-.13807678 .2899933-.11607361 .32598878-.049087526 .34899903 .07385254 .35099793 .08584595L.40699769 .39465333Z"/>
<path id="font_6_1" d="M.35499574 .75C.16499329 .61598208 .114990238 .40397645 .114990238 .25097657 .114990238 .10997009 .15699768-.10902405 .35499574-.24902344 .36299134-.24902344 .375-.24902344 .375-.23703003 .375-.23103333 .37199403-.22903443 .36499024-.22203064 .23199463-.10203552 .18299866 .067977908 .18299866 .24996948 .18299866 .519989 .28599549 .65197756 .36799623 .72598269 .37199403 .7299957 .375 .73298647 .375 .73799136 .375 .75 .36299134 .75 .35499574 .75Z"/>
<path id="font_5_5" d="M.24899292 .10601807C.23899842 .072021488 .20599365 .018234253 .15499878 .018234253 .1519928 .018234253 .12199402 .018234253 .100997928 .03215027 .14199829 .04508972 .14498902 .08100891 .14498902 .087020877 .14498902 .10900879 .12799073 .12402344 .10499573 .12402344 .07699585 .12402344 .04798889 .10002136 .04798889 .0630188 .04798889 .01322937 .10398865-.009765625 .15299988-.009765625 .19898987-.009765625 .23999024 .019226075 .2649994 .061019899 .2889862 .008224487 .34399415-.009765625 .38398744-.009765625 .49899293-.009765625 .55999758 .11502075 .55999758 .14305115 .55999758 .15608216 .5469971 .15608216 .5439911 .15608216 .5299988 .15608216 .5289917 .15107727 .5249939 .13905335 .5039978 .07002258 .44400025 .018234253 .3880005 .018234253 .34799195 .018234253 .32699586 .04508972 .32699586 .08302307 .32699586 .10900879 .35099793 .20018006 .3789978 .31140138 .39898683 .38841249 .44400025 .4133911 .47698976 .4133911 .47898866 .4133911 .5099945 .4133911 .5309906 .39941407 .49899293 .39041139 .4869995 .3624115 .4869995 .34440614 .4869995 .32240296 .5039978 .30740357 .5269928 .30740357 .5499878 .30740357 .58299258 .32640077 .58299258 .3684082 .58299258 .4243927 .5189972 .44140626 .47898866 .44140626 .42900086 .44140626 .3889923 .4084015 .36698915 .3704071 .34899903 .4113922 .30299378 .44140626 .24699402 .44140626 .1349945 .44140626 .070999149 .31840516 .070999149 .2883606 .070999149 .27534486 .084991458 .27534486 .08799744 .27534486 .100997928 .27534486 .101989749 .27934266 .10699463 .29237367 .13198853 .3704071 .19499207 .4133911 .24398804 .4133911 .2769928 .4133911 .3039856 .395401 .3039856 .3474121 .3039856 .32740785 .2919922 .27734376 .2829895 .24327088L.24899292 .10601807Z"/>
<path id="font_7_1" d="M.3959961 .6244507C.3959961 .64845278 .37799073 .66744998 .35198976 .66744998 .32398988 .66744998 .29100038 .6404419 .29100038 .6074524 .29100038 .5794525 .31298829 .5644531 .33399964 .5644531 .36698915 .5644531 .3959961 .5944519 .3959961 .6244507M.44299317 .14428711C.44299317 .15829468 .42599488 .15829468 .42199708 .15829468 .40499879 .15829468 .4039917 .15429688 .397995 .13528443 .3809967 .08027649 .33599855 .023254395 .28599549 .023254395 .2630005 .023254395 .2559967 .039260866 .2559967 .061264039 .2559967 .08227539 .26098634 .09327698 .2689972 .11227417 .2769928 .1322937 .2849884 .15229798 .2899933 .16629029 .2939911 .17530823 .33299256 .2683258 .34700013 .30433656 .35499574 .32435609 .36099244 .33735658 .36099244 .35435487 .36099244 .40237428 .31498719 .4423828 .2519989 .4423828 .14698792 .4423828 .09098816 .3143463 .09098816 .28733827 .09098816 .2733307 .10699463 .2733307 .11199951 .2733307 .1289978 .2733307 .12998963 .27833558 .1349945 .29333497 .15699768 .36436463 .20498657 .40837098 .24798584 .40837098 .2669983 .40837098 .27799989 .39736939 .27799989 .37036134 .27799989 .36636354 .27799989 .35336305 .27198792 .3343506 .2649994 .3163452 .21998596 .20930481 .20599365 .17530823 .19898987 .15829468 .19898987 .15629578 .18399048 .122283939 .1789856 .10827637 .17298889 .0942688 .17298889 .07727051 .17298889 .025253296 .22200012-.0107421879 .28199769-.0107421879 .3869934-.0107421879 .44299317 .119277957 .44299317 .14428711Z"/>
<path id="font_6_2" d="M.08999634 .75C.08299255 .75 .070999149 .75 .070999149 .73799136 .070999149 .73298647 .07398987 .7299957 .07998657 .72299197 .1659851 .64398196 .2619934 .5089874 .2619934 .25097657 .2619934 .04197693 .19699097-.11602783 .08898926-.21403504 .07199097-.23103333 .070999149-.23202515 .070999149-.23703003 .070999149-.24203491 .07398987-.24902344 .083999637-.24902344 .09599304-.24902344 .19099427-.18302918 .25698854-.058029176 .30099488 .024978638 .32998658 .13298035 .32998658 .24996948 .32998658 .39097596 .28799439 .60998538 .08999634 .75Z"/>
<path id="font_8_1" d="M.74398806 .2263794C.7599945 .2263794 .7839966 .2263794 .7839966 .25038148 .7839966 .27539063 .7609863 .27539063 .74398806 .27539063H.147995C.13198853 .27539063 .10798645 .27539063 .10798645 .25138856 .10798645 .2263794 .1309967 .2263794 .147995 .2263794H.74398806Z"/>
<path id="font_5_4" d="M.5319977 .36935426C.5359955 .3843689 .5359955 .38937379 .5359955 .39038087 .5359955 .4123993 .5179901 .4223938 .5019989 .4223938 .47898866 .4223938 .45999146 .4033966 .45599366 .3843689 .43899537 .4113922 .40499879 .44140626 .35299684 .44140626 .22799683 .44140626 .09700012 .3072815 .09700012 .1641388 .09700012 .061019899 .16699219 0 .24899292 0 .29499818 0 .33898927 .022994996 .37399293 .054016115L.35198976-.036026C.34098817-.07803345 .33399964-.105041507 .29599-.13903809 .2519989-.17610169 .20899964-.17610169 .18399048-.17610169 .13798523-.17610169 .125-.17308045 .10699463-.16903687 .13198853-.15704346 .13899231-.13304138 .13899231-.11903381 .13899231-.09503174 .11999512-.08203125 .099990848-.08203125 .07199097-.08203125 .042999269-.105041507 .042999269-.14303589 .042999269-.20310974 .1289978-.20410156 .18499756-.20410156 .34199525-.20410156 .40899659-.1240387 .4229889-.06703186L.5319977 .36935426M.3939972 .13310242C.3899994 .11808777 .3899994 .11608887 .37298585 .096069339 .33799745 .054016115 .2899933 .027999878 .2519989 .027999878 .20098877 .027999878 .1769867 .07104492 .1769867 .12309265 .1769867 .16714478 .20399475 .2792511 .22999573 .32330323 .27198792 .39338685 .31900025 .4133911 .35299684 .4133911 .4229889 .4133911 .44198609 .33831788 .44198609 .3283081 .44198609 .3263092 .44198609 .3243103 .43899537 .31329347L.3939972 .13310242Z"/>
<path id="font_6_3" d="M.5049896 .18203736H.47099305C.46798707 .16001892 .45799256 .100997928 .44499208 .09098816 .43699647 .084991458 .3600006 .084991458 .34599305 .084991458H.1619873C.2669983 .17803955 .3019867 .20603943 .3619995 .25306703 .43598939 .312088 .5049896 .374115 .5049896 .46914674 .5049896 .5900879 .39898683 .6640625 .2709961 .6640625 .14698792 .6640625 .06298828 .57710269 .06298828 .4851532 .06298828 .43414308 .10598755 .42915345 .115997318 .42915345 .13999939 .42915345 .16899109 .44615174 .16899109 .48214723 .16899109 .5001526 .1619873 .53515627 .10998535 .53515627 .14099121 .6060791 .20899964 .62805178 .2559967 .62805178 .35598756 .62805178 .4079895 .5501404 .4079895 .46914674 .4079895 .38212586 .34599305 .3130951 .31399537 .27708436L.07299805 .038986207C.06298828 .02999878 .06298828 .027999878 .06298828 0H.47499085L.5049896 .18203736Z"/>
<path id="font_4_1" d="M.44198609 .69781497C.43499757 .7108154 .43299867 .7158203 .41600038 .7158203 .39898683 .7158203 .39698792 .7108154 .3899994 .69781497L.051986696 .019989014C.04699707 .010986328 .04699707 .008987427 .04699707 .0079956059 .04699707 0 .052993776 0 .068984989 0H.7630005C.7789917 0 .7849884 0 .7849884 .0079956059 .7849884 .008987427 .7849884 .010986328 .7799988 .019989014L.44198609 .69781497M.38398744 .61582949 .6529999 .07598877H.11399841L.38398744 .61582949Z"/>
<path id="font_2_6" d="M.33399964 .30233766C.33999635 .32835389 .36299134 .42037965 .43299867 .42037965 .43798829 .42037965 .46199037 .42037965 .48298646 .40734864 .45498658 .402359 .43499757 .37734986 .43499757 .35334779 .43499757 .33735658 .44599916 .31835938 .47299195 .31835938 .49499513 .31835938 .5269928 .3363495 .5269928 .37635804 .5269928 .42837525 .46798707 .4423828 .43399049 .4423828 .37599183 .4423828 .34098817 .38935853 .32899476 .36634828 .3039856 .43237306 .25 .4423828 .22099304 .4423828 .116989139 .4423828 .05999756 .3133545 .05999756 .28834535 .05999756 .27833558 .069992069 .27833558 .07199097 .27833558 .07998657 .27833558 .08299255 .28033448 .084991458 .28933717 .11898804 .39535523 .18499756 .42037965 .21899414 .42037965 .23799134 .42037965 .272995 .4113617 .272995 .35334779 .272995 .32235719 .2559967 .25532533 .21899414 .11528015 .20298767 .053268434 .16799927 .011245728 .12399292 .011245728 .117996219 .011245728 .09498596 .011245728 .07398987 .024276734 .09899902 .029266358 .12098694 .05027771 .12098694 .07827759 .12098694 .105270389 .09899902 .11328125 .083999637 .11328125 .053985597 .11328125 .0289917 .08728027 .0289917 .055267335 .0289917 .009246826 .07899475-.0107421879 .12298584-.0107421879 .18899536-.0107421879 .22499085 .059280397 .22799683 .0652771 .23999024 .028274537 .27598573-.0107421879 .33599855-.0107421879 .43899537-.0107421879 .49598695 .118270877 .49598695 .14328003 .49598695 .1532898 .4869995 .1532898 .48399354 .1532898 .47499085 .1532898 .47299195 .14929199 .47099305 .14228821 .43798829 .03527832 .36999513 .011245728 .33799745 .011245728 .29899598 .011245728 .2829895 .043273927 .2829895 .07727051 .2829895 .09927368 .2889862 .121276859 .2999878 .16529846L.33399964 .30233766Z"/>
<path id="font_2_7" d="M.48599244 .38136292C.48999024 .39537049 .48999024 .39736939 .48999024 .40437318 .48999024 .42237855 .47599793 .43138124 .46099855 .43138124 .45098878 .43138124 .43499757 .42536927 .42599488 .41036988 .42399598 .405365 .41600038 .37435914 .4119873 .35635377 .40499879 .33035279 .397995 .30334474 .3919983 .27633668L.34700013 .09628296C.34298707 .08126831 .2999878 .011245728 .23399353 .011245728 .18299866 .011245728 .17199707 .055267335 .17199707 .0922699 .17199707 .1382904 .18899536 .20030213 .22299195 .28833009 .23899842 .3293457 .24299622 .3403473 .24299622 .36035157 .24299622 .405365 .21099854 .4423828 .16099549 .4423828 .06599426 .4423828 .0289917 .29733277 .0289917 .28833009 .0289917 .27833558 .038986207 .27833558 .040985109 .27833558 .050994874 .27833558 .051986696 .28033448 .056991579 .29634095 .083999637 .3903656 .12399292 .42037965 .1579895 .42037965 .1659851 .42037965 .18299866 .42037965 .18299866 .3883667 .18299866 .36335755 .17298889 .3373413 .1659851 .31834413 .12599182 .21231079 .10798645 .1552887 .10798645 .10827637 .10798645 .019256592 .17098999-.0107421879 .22999573-.0107421879 .2689972-.0107421879 .30299378 .0062561037 .33099366 .03425598 .31799317-.017745972 .30599977-.06674194 .2659912-.11973572 .23999024-.15385437 .20199585-.18309021 .1559906-.18309021 .14199829-.18309021 .09700012-.18005371 .07998657-.14074707 .09599304-.14074707 .10899353-.14074707 .12298584-.1287384 .1329956-.11973572 .14299011-.10673523 .14299011-.08773804 .14299011-.056747438 .115997318-.052734376 .10598755-.052734376 .08299255-.052734376 .049987794-.068740848 .049987794-.11773682 .049987794-.16796875 .09399414-.20507813 .1559906-.20507813 .25898744-.20507813 .3619995-.11373901 .3899994-.00074768069L.48599244 .38136292Z"/>
<path id="font_5_2" d="M.48599244 .6046295C.49299623 .63360598 .49499513 .63661196 .5169983 .63861086 .5219879 .63960269 .5569916 .63960269 .57699587 .63960269 .6380005 .63960269 .6639862 .63960269 .68899539 .63160708 .73399356 .61761477 .73599246 .5886383 .73599246 .5526581 .73599246 .53666689 .73599246 .52368167 .72898867 .4717102L.72698977 .46072389C.72698977 .45072938 .73399356 .4457245 .74398806 .4457245 .7589874 .4457245 .7609863 .45472718 .7630005 .47071839L.7899933 .66160586C.7899933 .6756134 .7779999 .6756134 .7599945 .6756134H.14498902C.11999512 .6756134 .117996219 .6756134 .11099243 .65460208L.04798889 .4777069C.04699707 .4737091 .042999269 .46472169 .042999269 .4597168 .042999269 .455719 .04499817 .4457245 .05999756 .4457245 .07299805 .4457245 .07499695 .45072938 .08099365 .4697113 .13899231 .62960818 .17199707 .63960269 .32398988 .63960269H.3659973C.3959961 .63960269 .39698792 .63861086 .39698792 .62960818 .39698792 .62861636 .39698792 .62361147 .3929901 .6086273L.26098634 .082962039C.2519989 .04598999 .24899292 .035995485 .14399719 .035995485 .10798645 .035995485 .09899902 .035995485 .09899902 .01399231 .09899902 .010986328 .100997928 0 .115997318 0 .14399719 0 .17399597 .0029907227 .20199585 .0029907227 .22999573 .0029907227 .2599945 .0039978029 .28799439 .0039978029 .31599427 .0039978029 .34999085 .0039978029 .37799073 .0029907227 .40499879 .0019989014 .43499757 0 .46199037 0 .46998597 0 .4850006 0 .4850006 .021987915 .4850006 .035995485 .47499085 .035995485 .44400025 .035995485 .4249878 .035995485 .40499879 .036987306 .38598634 .037994386 .35198976 .040985109 .34999085 .04498291 .34999085 .05697632 .34999085 .0639801 .34999085 .065979007 .35398866 .07997131L.48599244 .6046295Z"/>
<path id="font_5_1" d="M.18998719 .07797241C.18099976 .04399109 .1789856 .035995485 .101989749 .035995485 .084991458 .035995485 .07199097 .035995485 .07199097 .01499939 .07199097 0 .083999637 0 .101989749 0H.4889984C.6569977 0 .7859955 .11494446 .7859955 .21388245 .7859955 .28485108 .72099307 .34580995 .61499026 .35681153 .73599246 .37879945 .83699038 .4547577 .83699038 .54067996 .83699038 .6166382 .7599945 .6826172 .6299896 .6826172H.2659912C.24699402 .6826172 .23399353 .6826172 .23399353 .660614 .23399353 .64660647 .24598694 .64660647 .2659912 .64660647 .2669983 .64660647 .28599549 .64660647 .3039856 .64460757 .32499696 .64260867 .32699586 .64060977 .32699586 .63061526 .32699586 .62861636 .32699586 .6236267 .32299806 .6086426L.18998719 .07797241M.34999085 .3688202 .41099549 .6126404C.4189911 .6436157 .41999818 .64660647 .46199037 .64660647H.6139984C.71598818 .64660647 .7389984 .57966616 .7389984 .541687 .7389984 .46073915 .647995 .3688202 .5139923 .3688202H.34999085M.3019867 .035995485C.2709961 .035995485 .269989 .036987306 .269989 .04598999 .269989 .04698181 .269989 .051986696 .27398683 .066970828L.34298707 .3408203H.5549927C.6489868 .3408203 .68499758 .27885438 .68499758 .22088623 .68499758 .12194824 .58399966 .035995485 .46299745 .035995485H.3019867Z"/>
<path id="font_2_3" d="M.36698915 .3996582H.45298768C.47299195 .3996582 .48298646 .3996582 .48298646 .41966249 .48298646 .43066407 .47299195 .43066407 .45599366 .43066407H.37298585L.3939972 .5449524C.397995 .5660095 .4119873 .6370239 .41799928 .6490326 .4269867 .66804507 .44400025 .68307498 .46499635 .68307498 .46899415 .68307498 .49499513 .68307498 .5139923 .66503909 .46998597 .661026 .45999146 .6260376 .45999146 .6110382 .45999146 .58802798 .47799684 .57603457 .49699403 .57603457 .522995 .57603457 .5519867 .5980377 .5519867 .6360321 .5519867 .6820679 .5059967 .7050781 .46499635 .7050781 .43099977 .7050781 .36799623 .68707278 .33799745 .58802798 .33198548 .56700137 .32899476 .5569763 .30499269 .43066407H.23599243C.21699524 .43066407 .20599365 .43066407 .20599365 .4116516 .20599365 .3996582 .21499634 .3996582 .23399353 .3996582H.2999878L.22499085 .0048828127C.20698548-.09207153 .18998719-.18309021 .13798523-.18309021 .13398743-.18309021 .10899353-.18309021 .08999634-.16506958 .13598633-.1620636 .14498902-.12606812 .14498902-.111068729 .14498902-.08807373 .1269989-.07606506 .10798645-.07606506 .08198547-.07606506 .052993776-.09806824 .052993776-.13606262 .052993776-.18109131 .09700012-.20507813 .13798523-.20507813 .19299317-.20507813 .23298645-.14607239 .25099183-.108062747 .2829895-.04508972 .30599977 .07583618 .30699159 .082839969L.36698915 .3996582Z"/>
<path id="font_4_2" d="M.33099366-.2400055C.33099366-.23701477 .33099366-.23500061 .31399537-.21800232 .18899536-.0920105 .15699768 .09700012 .15699768 .25 .15699768 .42399598 .19499207 .59799197 .31799317 .72299197 .33099366 .73498538 .33099366 .7369995 .33099366 .73999026 .33099366 .746994 .32699586 .75 .32099916 .75 .31098939 .75 .22099304 .6819916 .1619873 .5549927 .11099243 .44499208 .09899902 .33399964 .09899902 .25 .09899902 .17199707 .10998535 .050994874 .16499329-.06201172 .22499085-.18501282 .31098939-.25 .32099916-.25 .32699586-.25 .33099366-.24700928 .33099366-.2400055Z"/>
<path id="font_4_3" d="M.2889862 .25C.2889862 .32798768 .27799989 .44898988 .22299195 .56199648 .16299439 .68499758 .07699585 .75 .066986087 .75 .06098938 .75 .056991579 .74598696 .056991579 .73999026 .056991579 .7369995 .056991579 .73498538 .07598877 .71699526 .17399597 .6179962 .23098755 .45899964 .23098755 .25 .23098755 .07899475 .19400025-.09700012 .069992069-.2230072 .056991579-.23500061 .056991579-.23701477 .056991579-.2400055 .056991579-.2460022 .06098938-.25 .066986087-.25 .07699585-.25 .16699219-.18200684 .22599793-.055007936 .2769928 .054992677 .2889862 .16600037 .2889862 .25Z"/>
<path id="font_2_4" d="M.47099305 .3773346C.47200013 .3833313 .47399903 .38833619 .47399903 .39535523 .47399903 .41236878 .46199037 .42237855 .44499208 .42237855 .43499757 .42237855 .4079895 .41537477 .4039917 .3793335 .38598634 .41636659 .35099793 .4423828 .31098939 .4423828 .19699097 .4423828 .07299805 .30226136 .07299805 .15812683 .07299805 .059020997 .13398743 0 .20599365 0 .2649994 0 .31199647 .04701233 .32199098 .058029176L.32299806 .057022096C.3019867-.031982423 .2899933-.07295227 .2899933-.07495117 .28599549-.08395386 .2519989-.18309021 .1459961-.18309021 .1269989-.18309021 .09399414-.18206787 .06599426-.17297364 .09599304-.16394043 .10699463-.13793946 .10699463-.12094116 .10699463-.10494995 .09599304-.0859375 .068984989-.0859375 .04699707-.0859375 .01499939-.10394287 .01499939-.14395142 .01499939-.18508911 .051986696-.20507813 .147995-.20507813 .272995-.20507813 .34498597-.12693787 .3600006-.06695557L.47099305 .3773346M.34098817 .12809754C.33499146 .10206604 .31199647 .077041629 .2899933 .058029176 .2689972 .040008546 .23799134 .021987915 .20899964 .021987915 .15899658 .021987915 .14399719 .074035648 .14399719 .11407471 .14399719 .16212464 .17298889 .28024293 .19999695 .33128358 .22698975 .38034059 .269989 .42037965 .31199647 .42037965 .37799073 .42037965 .3919983 .33929444 .3919983 .33428956 .3919983 .32928468 .3899994 .3232727 .3889923 .3192749L.34098817 .12809754Z"/>
</defs>
<path transform="matrix(1,0,0,-1,1.0960007,163.185)" stroke-width=".19925" stroke-linecap="butt" stroke-miterlimit="10" stroke-linejoin="miter" fill="none" stroke="#929292" d="M28.56831 68.88487V73.13654M154.2689 68.88487V73.13654"/>
<path transform="matrix(1,0,0,-1,1.0960007,163.185)" stroke-width=".19925" stroke-linecap="butt" stroke-miterlimit="10" stroke-linejoin="miter" fill="none" stroke="#929292" d=""/>
<path transform="matrix(1,0,0,-1,1.0960007,163.185)" stroke-width=".3985" stroke-linecap="butt" stroke-miterlimit="10" stroke-linejoin="miter" fill="none" stroke="#000000" d="M0 71.01071H192.27204"/>
<path transform="matrix(1,0,0,-1,193.36804,92.174289)" d="M1.99252 0-1.19551 1.59401 0 0-1.19551-1.59401"/>
<path transform="matrix(1,0,0,-1,1.0960007,163.185)" stroke-width=".3985" stroke-linecap="butt" stroke-miterlimit="10" stroke-linejoin="miter" fill="none" stroke="#000000" d="M11.42732 0V159.39548"/>
<path transform="matrix(0,-1,-1,-0,12.52332,3.7895203)" d="M1.99252 0-1.19551 1.59401 0 0-1.19551-1.59401"/>
<g clip-path="url(#clip_1)">
<path transform="matrix(1,0,0,-1,1.0960007,163.185)" d="M28.56822 105.0521 29.28612 106.20235 30.09006 107.46384 30.89398 108.69893 31.69792 109.90773 32.50186 111.09038 33.3058 112.24718 34.10974 113.37817 34.91367 114.4836 35.7176 115.56354 36.52155 116.61824 37.32547 117.6479 38.12941 118.65254 38.93333 119.6325 39.73727 120.58789 40.54121 121.51886 41.34515 122.42549 42.1491 123.30815 42.95302 124.1668 43.75696 125.00172 44.56088 125.81314 45.36482 126.60115 46.16876 127.36592 46.97269 128.10753 47.77663 128.82634 48.58057 129.5224 49.3845 130.19582 50.18845 130.84696 50.99237 131.47585 51.79631 132.08258 52.60023 132.66754 53.40417 133.23078 54.20811 133.77243 55.01204 134.29265 55.816 134.79169 56.61992 135.26973 57.42386 135.72682 58.2278 136.16323 59.03172 136.57915 59.83566 136.97472 60.63959 137.34998 61.44353 137.7053 62.24747 138.04068 63.05139 138.35634 63.85535 138.65259 64.65927 138.92946 65.46321 139.18704 66.26714 139.42563 67.07108 139.64545 67.875 139.84647 68.67894 140.02909 69.48288 140.19332 70.2868 140.33934 71.09076 140.46733 71.89468 140.57747 72.69862 140.67003 73.50256 140.74498 74.30649 140.80269 75.11043 140.84325 75.91435 140.86672 76.71829 140.87334 77.52223 140.8634 78.32616 140.83695 79.13011 140.79412 79.93404 140.73517 80.73798 140.66019 81.54192 140.56938 82.34584 140.463 83.14978 140.3411 83.9537 140.20392 84.75764 140.05152 85.56158 139.8842 86.36552 139.70204 87.16946 139.50522 87.97339 139.294 88.77733 139.06847 89.58125 138.82875 90.3852 138.57514 91.18913 138.30767 91.99306 138.02655 92.797 137.73206 93.60094 137.42427 94.40488 137.10327 95.20882 136.76935 96.01274 136.4227 96.81668 136.06337 97.6206 135.69164 98.42455 135.30764 99.22849 134.91153 100.03241 134.50342 100.83635 134.08356 101.64029 133.65213 102.44423 133.20922 103.24817 132.75508 104.05214 132.2898 104.856 131.81368 105.65999 131.32666 106.46385 130.82921 107.26784 130.32122 108.07181 129.80297 108.87569 129.2747 109.67967 128.73642 110.48354 128.1885 111.2875 127.6309 112.09149 127.06393 112.89536 126.48778 113.69934 125.90244 114.50319 125.3083 115.30717 124.70534 116.11116 124.0938 116.91504 123.47394 117.71902 122.84576 118.52287 122.20966 119.32686 121.56549 120.13084 120.91362 120.93471 120.25433 121.7387 119.58752 122.54254 118.91357 123.34653 118.23251 124.15053 117.54454 124.95439 116.84995 125.75838 116.14871 126.56223 115.44124 127.36621 114.72742 128.1702 114.00757 128.97406 113.28195 129.77805 112.5505 130.5819 111.81361 131.3859 111.07129 132.18988 110.32378 132.99375 109.5713 133.79773 108.8139 134.60158 108.0519 135.40557 107.28522 136.20955 106.51424 137.01342 105.73918 137.8174 104.95998 138.62126 104.17702 139.42525 103.39029 140.22924 102.60005 141.0331 101.80658 141.83707 101.0098 142.64093 100.21016 143.44492 99.40755 144.2489 98.60226 145.05275 97.7946 145.85674 96.98448 146.66062 96.17235 147.4646 95.35806 148.26859 94.54196 149.07244 93.72435 149.87642 92.90508 150.68029 92.08466 151.48427 91.26294 152.28826 90.44025 153.0921 89.61685 153.8961 88.79268 154.26854 88.41068 154.26897 78.12259 153.8961 77.64973 153.0921 76.63528 152.28826 75.62614 151.48427 74.62215 150.68029 73.62352 149.87642 72.63054 149.07244 71.64299 148.26859 70.66129 147.4646 69.68521 146.66062 68.71501 145.85674 67.75096 145.05275 66.79286 144.2489 65.84111 143.44492 64.8955 142.64093 63.95627 141.83707 63.02367 141.0331 62.09753 140.22924 61.17824 139.42525 60.26563 138.62126 59.35988 137.8174 58.46129 137.01342 57.56966 136.20955 56.68538 135.40557 55.80823 134.60158 54.93852 133.79773 54.07646 132.99375 53.22185 132.18988 52.37508 131.3859 51.53603 130.5819 50.70482 129.77805 49.88182 128.97406 49.06677 128.1702 48.26007 127.36621 47.46156 126.56223 46.67148 125.75838 45.89003 124.95439 45.11707 124.15053 44.35294 123.34653 43.5976 122.54254 42.85106 121.7387 42.11368 120.93471 41.38542 120.13084 40.6664 119.32686 39.95662 118.52287 39.25626 117.71902 38.56558 116.91504 37.88435 116.11116 37.21298 115.30717 36.5514 114.50319 35.8997 113.69934 35.25813 112.89536 34.62666 112.09149 34.0055 111.2875 33.3945 110.48354 32.79404 109.67967 32.20418 108.87569 31.62485 108.07181 31.05635 107.26784 30.49867 106.46385 29.95189 105.65999 29.41621 104.856 28.89168 104.05214 28.37845 103.24817 27.87645 102.44423 27.38597 101.64029 26.90707 100.83635 26.43968 100.03241 25.98418 99.22849 25.54051 98.42455 25.10881 97.6206 24.68915 96.81668 24.2817 96.01274 23.88649 95.20882 23.50357 94.40488 23.13312 93.60094 22.77531 92.797 22.43007 91.99306 22.0977 91.18913 21.77818 90.3852 21.4716 89.58125 21.17807 88.77733 20.89777 87.97339 20.63072 87.16946 20.37704 86.36552 20.1368 85.56158 19.91014 84.75764 19.69719 83.9537 19.49799 83.14978 19.3127 82.34584 19.1414 81.54192 18.9841 80.73798 18.84106 79.93404 18.71231 79.13011 18.59789 78.32616 18.498 77.52223 18.4127 76.71829 18.34207 75.91435 18.2862 75.11043 18.24529 74.30649 18.21933 73.50256 18.20844 72.69862 18.21278 71.89468 18.23242 71.09076 18.26747 70.2868 18.31795 69.48288 18.38411 68.67894 18.46594 67.875 18.5635 67.07108 18.67705 66.26714 18.80661 65.46321 18.9522 64.65927 19.11406 63.85535 19.29222 63.05139 19.48679 62.24747 19.6978 61.44353 19.9255 60.63959 20.16992 59.83566 20.43108 59.03172 20.70923 58.2278 21.00435 57.42386 21.31659 56.61992 21.64604 55.816 21.99281 55.01204 22.35703 54.20811 22.73872 53.40417 23.13806 52.60023 23.55515 51.79631 23.99007 50.99237 24.44284 50.18845 24.91371 49.3845 25.4027 48.58057 25.90988 47.77663 26.43541 46.97269 26.97939 46.16876 27.54184 45.36482 28.12299 44.56088 28.72284 43.75696 29.34155 42.95302 29.97917 42.1491 30.63582 41.34515 31.31166 40.54121 32.00668 39.73727 32.7211 38.93333 33.45494 38.12941 34.20833 37.32547 34.98132 36.52155 35.77411 35.7176 36.58673 34.91367 37.41927 34.10974 38.27188 33.3058 39.14468 32.50186 40.0377 31.69792 40.95105 30.89398 41.88489 30.09006 42.83931 29.28612 43.8143 28.56822 44.70354Z" fill="#42c8f4" fill-opacity=".4"/>
</g>
<use data-text="a" xlink:href="#font_2_1" transform="matrix(9.9626,0,0,-9.9626,27.030999,102.10899)"/>
<use data-text="b" xlink:href="#font_2_2" transform="matrix(9.9626,0,0,-9.9626,153.22699,104.739)"/>
<g clip-path="url(#clip_3)">
<path transform="matrix(1,0,0,-1,1.0960007,163.185)" stroke-width=".79701" stroke-linecap="butt" stroke-miterlimit="10" stroke-linejoin="miter" fill="none" stroke="#b30000" d="M22.85464 95.13821 23.65857 96.61734 24.46251 98.06863 25.26643 99.4923 26.07039 100.88855 26.87431 102.25749 27.67825 103.59932 28.4822 104.91425 29.28612 106.20235 30.09006 107.46384 30.89398 108.69893 31.69792 109.90773 32.50186 111.09038 33.3058 112.24718 34.10974 113.37817 34.91367 114.4836 35.7176 115.56354 36.52155 116.61824 37.32547 117.6479 38.12941 118.65254 38.93333 119.6325 39.73727 120.58789 40.54121 121.51886 41.34515 122.42549 42.1491 123.30815 42.95302 124.1668 43.75696 125.00172 44.56088 125.81314 45.36482 126.60115 46.16876 127.36592 46.97269 128.10753 47.77663 128.82634 48.58057 129.5224 49.3845 130.19582 50.18845 130.84696 50.99237 131.47585 51.79631 132.08258 52.60023 132.66754 53.40417 133.23078 54.20811 133.77243 55.01204 134.29265 55.816 134.79169 56.61992 135.26973 57.42386 135.72682 58.2278 136.16323 59.03172 136.57915 59.83566 136.97472 60.63959 137.34998 61.44353 137.7053 62.24747 138.04068 63.05139 138.35634 63.85535 138.65259 64.65927 138.92946 65.46321 139.18704 66.26714 139.42563 67.07108 139.64545 67.875 139.84647 68.67894 140.02909 69.48288 140.19332 70.2868 140.33934 71.09076 140.46733 71.89468 140.57747 72.69862 140.67003 73.50256 140.74498 74.30649 140.80269 75.11043 140.84325 75.91435 140.86672 76.71829 140.87334 77.52223 140.8634 78.32616 140.83695 79.13011 140.79412 79.93404 140.73517 80.73798 140.66019 81.54192 140.56938 82.34584 140.463 83.14978 140.3411 83.9537 140.20392 84.75764 140.05152 85.56158 139.8842 86.36552 139.70204 87.16946 139.50522 87.97339 139.294 88.77733 139.06847 89.58125 138.82875 90.3852 138.57514 91.18913 138.30767 91.99306 138.02655 92.797 137.73206 93.60094 137.42427 94.40488 137.10327 95.20882 136.76935 96.01274 136.4227 96.81668 136.06337 97.6206 135.69164 98.42455 135.30764 99.22849 134.91153 100.03241 134.50342 100.83635 134.08356 101.64029 133.65213 102.44423 133.20922 103.24817 132.75508 104.05214 132.2898 104.856 131.81368 105.65999 131.32666 106.46385 130.82921 107.26784 130.32122 108.07181 129.80297 108.87569 129.2747 109.67967 128.73642 110.48354 128.1885 111.2875 127.6309 112.09149 127.06393 112.89536 126.48778 113.69934 125.90244 114.50319 125.3083 115.30717 124.70534 116.11116 124.0938 116.91504 123.47394 117.71902 122.84576 118.52287 122.20966 119.32686 121.56549 120.13084 120.91362 120.93471 120.25433 121.7387 119.58752 122.54254 118.91357 123.34653 118.23251 124.15053 117.54454 124.95439 116.84995 125.75838 116.14871 126.56223 115.44124 127.36621 114.72742 128.1702 114.00757 128.97406 113.28195 129.77805 112.5505 130.5819 111.81361 131.3859 111.07129 132.18988 110.32378 132.99375 109.5713 133.79773 108.8139 134.60158 108.0519 135.40557 107.28522 136.20955 106.51424 137.01342 105.73918 137.8174 104.95998 138.62126 104.17702 139.42525 103.39029 140.22924 102.60005 141.0331 101.80658 141.83707 101.0098 142.64093 100.21016 143.44492 99.40755 144.2489 98.60226 145.05275 97.7946 145.85674 96.98448 146.66062 96.17235 147.4646 95.35806 148.26859 94.54196 149.07244 93.72435 149.87642 92.90508 150.68029 92.08466 151.48427 91.26294 152.28826 90.44025 153.0921 89.61685 153.8961 88.79268 154.69997 87.96817 155.50395 87.1432 156.30794 86.31812 157.11179 85.4932 157.91577 84.66833 158.71964 83.84395 159.52362 83.02 160.3276 82.19673 161.13146 81.37447 161.93546 80.55312 162.73932 79.7331 163.5433 78.91432 164.34729 78.09712 165.15114 77.28172 165.95513 76.46811 166.75899 75.65666 167.56298 74.8473 168.36696 74.04034 169.17082 73.23605 169.97481 72.43437 170.77867 71.63571 171.58266 70.84 172.38663 70.0475 173.19049 69.25853 173.99448 68.473 174.79834 67.69133 175.60233 66.91347 176.40631 66.13965 177.21018 65.37021 178.01416 64.60506 178.81803 63.84459 179.62201 63.08878 180.42598 62.33788 181.22985 61.59218 182.03383 60.85161 182.83769 60.11658"/>
<path transform="matrix(1,0,0,-1,1.0960007,163.185)" stroke-width=".79701" stroke-linecap="butt" stroke-miterlimit="10" stroke-linejoin="miter" fill="none" stroke="#00aeef" d="M22.85464 52.37039 23.65857 51.22646 24.46251 50.10397 25.26643 49.0029 26.07039 47.92307 26.87431 46.86438 27.67825 45.82675 28.4822 44.81009 29.28612 43.8143 30.09006 42.83931 30.89398 41.88489 31.69792 40.95105 32.50186 40.0377 33.3058 39.14468 34.10974 38.27188 34.91367 37.41927 35.7176 36.58673 36.52155 35.77411 37.32547 34.98132 38.12941 34.20833 38.93333 33.45494 39.73727 32.7211 40.54121 32.00668 41.34515 31.31166 42.1491 30.63582 42.95302 29.97917 43.75696 29.34155 44.56088 28.72284 45.36482 28.12299 46.16876 27.54184 46.97269 26.97939 47.77663 26.43541 48.58057 25.90988 49.3845 25.4027 50.18845 24.91371 50.99237 24.44284 51.79631 23.99007 52.60023 23.55515 53.40417 23.13806 54.20811 22.73872 55.01204 22.35703 55.816 21.99281 56.61992 21.64604 57.42386 21.31659 58.2278 21.00435 59.03172 20.70923 59.83566 20.43108 60.63959 20.16992 61.44353 19.9255 62.24747 19.6978 63.05139 19.48679 63.85535 19.29222 64.65927 19.11406 65.46321 18.9522 66.26714 18.80661 67.07108 18.67705 67.875 18.5635 68.67894 18.46594 69.48288 18.38411 70.2868 18.31795 71.09076 18.26747 71.89468 18.23242 72.69862 18.21278 73.50256 18.20844 74.30649 18.21933 75.11043 18.24529 75.91435 18.2862 76.71829 18.34207 77.52223 18.4127 78.32616 18.498 79.13011 18.59789 79.93404 18.71231 80.73798 18.84106 81.54192 18.9841 82.34584 19.1414 83.14978 19.3127 83.9537 19.49799 84.75764 19.69719 85.56158 19.91014 86.36552 20.1368 87.16946 20.37704 87.97339 20.63072 88.77733 20.89777 89.58125 21.17807 90.3852 21.4716 91.18913 21.77818 91.99306 22.0977 92.797 22.43007 93.60094 22.77531 94.40488 23.13312 95.20882 23.50357 96.01274 23.88649 96.81668 24.2817 97.6206 24.68915 98.42455 25.10881 99.22849 25.54051 100.03241 25.98418 100.83635 26.43968 101.64029 26.90707 102.44423 27.38597 103.24817 27.87645 104.05214 28.37845 104.856 28.89168 105.65999 29.41621 106.46385 29.95189 107.26784 30.49867 108.07181 31.05635 108.87569 31.62485 109.67967 32.20418 110.48354 32.79404 111.2875 33.3945 112.09149 34.0055 112.89536 34.62666 113.69934 35.25813 114.50319 35.8997 115.30717 36.5514 116.11116 37.21298 116.91504 37.88435 117.71902 38.56558 118.52287 39.25626 119.32686 39.95662 120.13084 40.6664 120.93471 41.38542 121.7387 42.11368 122.54254 42.85106 123.34653 43.5976 124.15053 44.35294 124.95439 45.11707 125.75838 45.89003 126.56223 46.67148 127.36621 47.46156 128.1702 48.26007 128.97406 49.06677 129.77805 49.88182 130.5819 50.70482 131.3859 51.53603 132.18988 52.37508 132.99375 53.22185 133.79773 54.07646 134.60158 54.93852 135.40557 55.80823 136.20955 56.68538 137.01342 57.56966 137.8174 58.46129 138.62126 59.35988 139.42525 60.26563 140.22924 61.17824 141.0331 62.09753 141.83707 63.02367 142.64093 63.95627 143.44492 64.8955 144.2489 65.84111 145.05275 66.79286 145.85674 67.75096 146.66062 68.71501 147.4646 69.68521 148.26859 70.66129 149.07244 71.64299 149.87642 72.63054 150.68029 73.62352 151.48427 74.62215 152.28826 75.62614 153.0921 76.63528 153.8961 77.64973 154.69997 78.66911 155.50395 79.69365 156.30794 80.72304 157.11179 81.75705 157.91577 82.79593 158.71964 83.83919 159.52362 84.88707 160.3276 85.93933 161.13146 86.99571 161.93546 88.05641 162.73932 89.12103 163.5433 90.18979 164.34729 91.26236 165.15114 92.3386 165.95513 93.41862 166.75899 94.50208 167.56298 95.58913 168.36696 96.67955 169.17082 97.77304 169.97481 98.86986 170.77867 99.96959 171.58266 101.07246 172.38663 102.1781 173.19049 103.28639 173.99448 104.3975 174.79834 105.511 175.60233 106.62712 176.40631 107.74557 177.21018 108.86612 178.01416 109.9889 178.81803 111.11365 179.62201 112.24046 180.42598 113.36914 181.22985 114.49933 182.03383 115.63148 182.83769 116.7649"/>
<g>
<path transform="matrix(1,0,0,-1,1.0960007,163.185)" d="M70.02855 140.73097V18.72046H89.95409V140.73097ZM89.95409 18.72046" fill="#929292" fill-opacity=".5"/>
<path transform="matrix(1,0,0,-1,1.0960007,163.185)" stroke-width=".3985" stroke-linecap="butt" stroke-miterlimit="10" stroke-linejoin="miter" fill="none" stroke="#929292" stroke-opacity=".5" d="M70.02855 140.73097V18.72046H89.95409V140.73097ZM89.95409 18.72046"/>
</g>
<path transform="matrix(1,0,0,-1,1.0960007,163.185)" stroke-width=".3985" stroke-linecap="butt" stroke-miterlimit="10" stroke-linejoin="miter" fill="none" stroke="#000000" d="M91.94664 140.73097C92.69385 140.35738 93.19199 139.48563 93.19199 138.24028V82.21642C93.19199 80.97107 93.69011 80.0993 94.43733 79.72572 93.69011 79.35213 93.19199 78.48038 93.19199 77.23503V21.21115C93.19199 19.9658 92.69385 19.09404 91.94664 18.72046"/>
<use data-text="h" xlink:href="#font_2_5" transform="matrix(9.9626,0,0,-9.9626,100.548007,86.772998)"/>
<use data-text="=" xlink:href="#font_4_4" transform="matrix(9.9626,0,0,-9.9626,109.055,86.772998)"/>
<use data-text="f" xlink:href="#font_5_3" transform="matrix(6.9738,0,0,-6.9738,120.767,81.940998)"/>
<use data-text="(" xlink:href="#font_6_1" transform="matrix(6.9738,0,0,-6.9738,125.433,81.940998)"/>
<use data-text="x" xlink:href="#font_5_5" transform="matrix(6.9738,0,0,-6.9738,128.547,81.940998)"/>
<use data-text="i" xlink:href="#font_7_1" transform="matrix(4.9813,0,0,-4.9813,133.065,82.93799)"/>
<use data-text=")" xlink:href="#font_6_2" transform="matrix(6.9738,0,0,-6.9738,136.221,81.940998)"/>
<use data-text="&#x2212;" xlink:href="#font_8_1" transform="matrix(6.9738,0,0,-6.9738,139.33399,81.940998)"/>
<use data-text="g" xlink:href="#font_5_4" transform="matrix(6.9738,0,0,-6.9738,145.561,81.940998)"/>
<use data-text="(" xlink:href="#font_6_1" transform="matrix(6.9738,0,0,-6.9738,149.698,81.940998)"/>
<use data-text="x" xlink:href="#font_5_5" transform="matrix(6.9738,0,0,-6.9738,152.811,81.940998)"/>
<use data-text="i" xlink:href="#font_7_1" transform="matrix(4.9813,0,0,-4.9813,157.32901,82.93799)"/>
<use data-text=")" xlink:href="#font_6_2" transform="matrix(6.9738,0,0,-6.9738,160.48502,81.940998)"/>
<path transform="matrix(1,0,0,-1,17.452004,-60.412004)" stroke-width=".3985" stroke-linecap="butt" stroke-miterlimit="10" stroke-linejoin="miter" fill="none" stroke="#000000" d="M103.315-144.695H146.146"/>
<use data-text="2" xlink:href="#font_6_3" transform="matrix(6.9738,0,0,-6.9738,140.197,90.209)"/>
<path transform="matrix(1,0,0,-1,1.0960007,163.185)" stroke-width=".3985" stroke-linecap="butt" stroke-miterlimit="10" stroke-linejoin="miter" fill="none" stroke="#000000" d="M89.95409 15.73163C89.58049 14.98442 88.70874 14.48628 87.4634 14.48628H82.48201C81.23666 14.48628 80.3649 13.98816 79.99132 13.24094 79.61772 13.98816 78.74597 14.48628 77.50063 14.48628H72.51924C71.2739 14.48628 70.40213 14.98442 70.02855 15.73163"/>
<use data-text="&#x2206;" xlink:href="#font_4_1" transform="matrix(9.9626,0,0,-9.9626,74.089,158.777)"/>
<use data-text="x" xlink:href="#font_2_6" transform="matrix(9.9626,0,0,-9.9626,82.391,158.777)"/>
<use data-text="y" xlink:href="#font_2_7" transform="matrix(9.9626,0,0,-9.9626,41.225004,24.744004)" fill="#b30000"/>
<use data-text="T" xlink:href="#font_5_2" transform="matrix(6.9738,0,0,-6.9738,46.109006,26.238999)" fill="#b30000"/>
<use data-text="y" xlink:href="#font_2_7" transform="matrix(9.9626,0,0,-9.9626,40.934003,148.69)" fill="#00aeef"/>
<use data-text="B" xlink:href="#font_5_1" transform="matrix(6.9738,0,0,-6.9738,45.818006,150.185)" fill="#00aeef"/>
</g>
<path transform="matrix(1,0,0,-1,1.0960007,163.185)" d="M143.0183 128.0721H190.17917V157.96028H143.0183Z" fill="#ffffff"/>
<path transform="matrix(1,0,0,-1,1.0960007,163.185)" stroke-width=".3985" stroke-linecap="butt" stroke-miterlimit="10" stroke-linejoin="miter" fill="none" stroke="#000000" d="M143.0183 128.0721H190.17917V157.96028H143.0183Z"/>
<path transform="matrix(1,0,0,-1,147.501,13.694)" stroke-width=".79701" stroke-linecap="butt" stroke-miterlimit="10" stroke-linejoin="miter" fill="none" stroke="#b30000" d="M0 0H8.50412 17.00826"/>
<use data-text="f" xlink:href="#font_2_3" transform="matrix(9.9626,0,0,-9.9626,166.901,16.682999)"/>
<use data-text="(" xlink:href="#font_4_2" transform="matrix(9.9626,0,0,-9.9626,172.851,16.682999)"/>
<use data-text="x" xlink:href="#font_2_6" transform="matrix(9.9626,0,0,-9.9626,176.725,16.682999)"/>
<use data-text=")" xlink:href="#font_4_3" transform="matrix(9.9626,0,0,-9.9626,182.41899,16.682999)"/>
<path transform="matrix(1,0,0,-1,147.501,26.645005)" stroke-width=".79701" stroke-linecap="butt" stroke-miterlimit="10" stroke-linejoin="miter" fill="none" stroke="#00aeef" d="M0 0H8.50412 17.00826"/>
<use data-text="g" xlink:href="#font_2_4" transform="matrix(9.9626,0,0,-9.9626,167.321,29.634003)"/>
<use data-text="(" xlink:href="#font_4_2" transform="matrix(9.9626,0,0,-9.9626,172.43,29.634003)"/>
<use data-text="x" xlink:href="#font_2_6" transform="matrix(9.9626,0,0,-9.9626,176.304,29.634003)"/>
<use data-text=")" xlink:href="#font_4_3" transform="matrix(9.9626,0,0,-9.9626,181.998,29.634003)"/>
</svg>
