<svg xmlns="http://www.w3.org/2000/svg" xmlns:xlink="http://www.w3.org/1999/xlink" version="1.1" width="197" height="171" viewBox="0 0 197 171">
<defs>
<path id="font_1_1" d="M.6589966 .23046875C.6759949 .23046875 .69400027 .23046875 .69400027 .25045777 .69400027 .27046205 .6759949 .27046205 .6589966 .27046205H.117996219C.100997928 .27046205 .08299255 .27046205 .08299255 .25045777 .08299255 .23046875 .100997928 .23046875 .117996219 .23046875H.6589966Z"/>
<path id="font_2_6" d="M.2899933 .35191346C.37199403 .37893678 .42999269 .4490509 .42999269 .52809146 .42999269 .6100464 .34199525 .6660156 .24598694 .6660156 .14498902 .6660156 .068984989 .60606387 .068984989 .53009036 .068984989 .49710084 .09098816 .47808839 .11999512 .47808839 .15098572 .47808839 .17098999 .50009158 .17098999 .5290985 .17098999 .57910159 .12399292 .57910159 .10899353 .57910159 .13999939 .62802127 .20599365 .64100649 .24198914 .64100649 .2829895 .64100649 .33799745 .6190338 .33799745 .5290985 .33799745 .51708987 .33599855 .45906068 .30999757 .4149933 .27999879 .36691285 .24598694 .36390687 .22099304 .36291505 .21299744 .36190797 .18899536 .35990907 .18199158 .35990907 .17399597 .35890199 .16699219 .35791017 .16699219 .3479004 .16699219 .33691407 .17399597 .33691407 .19099427 .33691407H.23498535C.31698609 .33691407 .35398866 .2686615 .35398866 .17037964 .35398866 .034469606 .2849884 .0055389406 .24099732 .0055389406 .19799805 .0055389406 .12298584 .022491456 .08799744 .08137512 .12298584 .07637024 .1539917 .09837341 .1539917 .1363678 .1539917 .17237854 .1269989 .19238281 .09799194 .19238281 .07398987 .19238281 .041992189 .17837525 .041992189 .1343689 .041992189 .043441774 .1349945-.022460938 .24398804-.022460938 .3659973-.022460938 .45700074 .06838989 .45700074 .17037964 .45700074 .252594 .3939972 .33088685 .2899933 .35191346Z"/>
<path id="font_2_5" d="M.1269989 .07699585 .23298645 .18003845C.3889923 .31811524 .44898988 .3721466 .44898988 .47216798 .44898988 .5860901 .35899354 .6660156 .23699951 .6660156 .12399292 .6660156 .049987794 .57411196 .049987794 .48516847 .049987794 .4291687 .099990848 .4291687 .102996829 .4291687 .11999512 .4291687 .15499878 .44117738 .15499878 .48217774 .15499878 .5081787 .13699341 .5341797 .101989749 .5341797 .09399414 .5341797 .09199524 .5341797 .08898926 .5331726 .11199951 .59806826 .1659851 .63500979 .22399903 .63500979 .31498719 .63500979 .35798646 .5541382 .35798646 .47216798 .35798646 .39215089 .30799867 .31311036 .25299073 .25108338L.06098938 .036987306C.049987794 .025985718 .049987794 .023986817 .049987794 0H.42099L.44898988 .17404175H.42399598C.4189911 .14402771 .4119873 .1000061 .4019928 .084991458 .394989 .07699585 .32899476 .07699585 .30699159 .07699585H.1269989Z"/>
<path id="font_2_4" d="M.2939911 .64004519C.2939911 .66400149 .2939911 .6660156 .2709961 .6660156 .20899964 .60227969 .12098694 .60227969 .08898926 .60227969V.57128909C.10899353 .57128909 .16799927 .57128909 .21998596 .5972748V.07902527C.21998596 .042999269 .21699524 .0309906 .1269989 .0309906H.09498596V0C.12998963 .0029907227 .21699524 .0029907227 .25698854 .0029907227 .29699708 .0029907227 .38398744 .0029907227 .4189911 0V.0309906H.3869934C.29699708 .0309906 .2939911 .041992189 .2939911 .07902527V.64004519Z"/>
<path id="font_2_3" d="M.45999146 .31976319C.45999146 .39982606 .45498658 .47988893 .41999818 .5539398 .37399293 .65000918 .2919922 .6660156 .25 .6660156 .18998719 .6660156 .116989139 .64001467 .07598877 .54693606 .04399109 .47789 .038986207 .39982606 .038986207 .31976319 .038986207 .24472046 .042999269 .15464783 .083999637 .07859802 .1269989-.0024719239 .19999695-.022460938 .24899292-.022460938 .30299378-.022460938 .3789978-.0014648438 .4229889 .09359741 .45498658 .16265869 .45999146 .2407074 .45999146 .31976319M.24899292-.00047302247C.20999146-.00047302247 .15098572 .024551392 .1329956 .12062073 .12199402 .18066406 .12199402 .2727356 .12199402 .3317871 .12199402 .39582826 .12199402 .46188355 .12998963 .5159149 .14898682 .63500979 .22399903 .64401248 .24899292 .64401248 .28199769 .64401248 .34799195 .6259918 .36698915 .52693179 .3769989 .47088624 .3769989 .39482118 .3769989 .3317871 .3769989 .25672914 .3769989 .18867493 .3659973 .12461853 .35099793 .029556275 .2939911-.00047302247 .24899292-.00047302247Z"/>
<path id="font_2_7" d="M.44898988 .20022583C.44898988 .3193512 .36698915 .41944886 .25898744 .41944886 .21099854 .41944886 .16799927 .40345765 .13198853 .36842347V.5637665C.1519928 .5577698 .18499756 .55078127 .21699524 .55078127 .33999635 .55078127 .4099884 .6417694 .4099884 .6547699 .4099884 .6607666 .40699769 .6657715 .3999939 .6657715 .39898683 .6657715 .39698792 .6657715 .3919983 .66278079 .37199403 .6537781 .32299806 .6337738 .2559967 .6337738 .21598816 .6337738 .16999817 .6407776 .12298584 .6617737 .114990238 .66477969 .11299133 .66477969 .11099243 .66477969 .100997928 .66477969 .100997928 .6567688 .100997928 .6407776V.34439088C.100997928 .32637025 .100997928 .31835938 .114990238 .31835938 .12199402 .31835938 .12399292 .32136537 .12799073 .32736207 .13899231 .3433838 .17599488 .39746095 .25698854 .39746095 .30899049 .39746095 .33399964 .35139466 .34199525 .33337403 .35798646 .29632569 .3600006 .25727845 .3600006 .20722962 .3600006 .17222595 .3600006 .11222839 .33599855 .07035828 .31199647 .031463624 .2749939 .0055389406 .22898865 .0055389406 .1559906 .0055389406 .09899902 .058380128 .08198547 .11723328 .084991458 .1162262 .08799744 .115234378 .09899902 .115234378 .13198853 .115234378 .14898682 .14022827 .14898682 .16423035 .14898682 .18823242 .13198853 .21322632 .09899902 .21322632 .084991458 .21322632 .049987794 .20622254 .049987794 .16023255 .049987794 .07434082 .11898804-.022460938 .23098755-.022460938 .34700013-.022460938 .44898988 .073349 .44898988 .20022583Z"/>
<clipPath id="clip_3">
<path transform="matrix(1.00003,0,0,-1.00006,-23.18723,166.5352)" d="M24.28363 0H218.55275V161.39696H24.28363Z"/>
</clipPath>
<path id="font_4_2" d="M.20599365 .3996582H.2999878C.31999208 .3996582 .32998658 .3996582 .32998658 .41966249 .32998658 .43066407 .31999208 .43066407 .3019867 .43066407H.21398926C.25 .5724945 .25498963 .59246829 .25498963 .59846499 .25498963 .61546328 .24299622 .62545779 .22599793 .62545779 .22299195 .62545779 .19499207 .62446597 .18598938 .58947756L.14698792 .43066407H.052993776C.032989503 .43066407 .022994996 .43066407 .022994996 .4116516 .022994996 .3996582 .0309906 .3996582 .050994874 .3996582H.13899231C.066986087 .11608887 .06298828 .099121097 .06298828 .08114624 .06298828 .02722168 .100997928-.0107421879 .15499878-.0107421879 .25698854-.0107421879 .31399537 .13505554 .31399537 .14305115 .31399537 .1530304 .30599977 .1530304 .3019867 .1530304 .29299928 .1530304 .2919922 .15003968 .2869873 .13905335 .24398804 .035217287 .19099427 .011245728 .15699768 .011245728 .13598633 .011245728 .12599182 .024230957 .12599182 .057174684 .12599182 .08114624 .12799073 .088134769 .13198853 .10510254L.20599365 .3996582Z"/>
<path id="font_4_3" d="M.48599244 .38136292C.48999024 .39537049 .48999024 .39736939 .48999024 .40437318 .48999024 .42237855 .47599793 .43138124 .46099855 .43138124 .45098878 .43138124 .43499757 .42536927 .42599488 .41036988 .42399598 .405365 .41600038 .37435914 .4119873 .35635377 .40499879 .33035279 .397995 .30334474 .3919983 .27633668L.34700013 .09628296C.34298707 .08126831 .2999878 .011245728 .23399353 .011245728 .18299866 .011245728 .17199707 .055267335 .17199707 .0922699 .17199707 .1382904 .18899536 .20030213 .22299195 .28833009 .23899842 .3293457 .24299622 .3403473 .24299622 .36035157 .24299622 .405365 .21099854 .4423828 .16099549 .4423828 .06599426 .4423828 .0289917 .29733277 .0289917 .28833009 .0289917 .27833558 .038986207 .27833558 .040985109 .27833558 .050994874 .27833558 .051986696 .28033448 .056991579 .29634095 .083999637 .3903656 .12399292 .42037965 .1579895 .42037965 .1659851 .42037965 .18299866 .42037965 .18299866 .3883667 .18299866 .36335755 .17298889 .3373413 .1659851 .31834413 .12599182 .21231079 .10798645 .1552887 .10798645 .10827637 .10798645 .019256592 .17098999-.0107421879 .22999573-.0107421879 .2689972-.0107421879 .30299378 .0062561037 .33099366 .03425598 .31799317-.017745972 .30599977-.06674194 .2659912-.11973572 .23999024-.15385437 .20199585-.18309021 .1559906-.18309021 .14199829-.18309021 .09700012-.18005371 .07998657-.14074707 .09599304-.14074707 .10899353-.14074707 .12298584-.1287384 .1329956-.11973572 .14299011-.10673523 .14299011-.08773804 .14299011-.056747438 .115997318-.052734376 .10598755-.052734376 .08299255-.052734376 .049987794-.068740848 .049987794-.11773682 .049987794-.16796875 .09399414-.20507813 .1559906-.20507813 .25898744-.20507813 .3619995-.11373901 .3899994-.00074768069L.48599244 .38136292Z"/>
<path id="font_2_8" d="M.68699648 .32714845C.70199587 .32714845 .72099307 .32714845 .72099307 .34713746 .72099307 .36714173 .70199587 .36714173 .6879883 .36714173H.08898926C.07499695 .36714173 .055999757 .36714173 .055999757 .34713746 .055999757 .32714845 .07499695 .32714845 .08999634 .32714845H.68699648M.6879883 .13284302C.70199587 .13284302 .72099307 .13284302 .72099307 .15284729 .72099307 .17285156 .70199587 .17285156 .68699648 .17285156H.08999634C.07499695 .17285156 .055999757 .17285156 .055999757 .15284729 .055999757 .13284302 .07499695 .13284302 .08898926 .13284302H.6879883Z"/>
<path id="font_4_1" d="M.47099305 .3773346C.47200013 .3833313 .47399903 .38833619 .47399903 .39535523 .47399903 .41236878 .46199037 .42237855 .44499208 .42237855 .43499757 .42237855 .4079895 .41537477 .4039917 .3793335 .38598634 .41636659 .35099793 .4423828 .31098939 .4423828 .19699097 .4423828 .07299805 .30226136 .07299805 .15812683 .07299805 .059020997 .13398743 0 .20599365 0 .2649994 0 .31199647 .04701233 .32199098 .058029176L.32299806 .057022096C.3019867-.031982423 .2899933-.07295227 .2899933-.07495117 .28599549-.08395386 .2519989-.18309021 .1459961-.18309021 .1269989-.18309021 .09399414-.18206787 .06599426-.17297364 .09599304-.16394043 .10699463-.13793946 .10699463-.12094116 .10699463-.10494995 .09599304-.0859375 .068984989-.0859375 .04699707-.0859375 .01499939-.10394287 .01499939-.14395142 .01499939-.18508911 .051986696-.20507813 .147995-.20507813 .272995-.20507813 .34498597-.12693787 .3600006-.06695557L.47099305 .3773346M.34098817 .12809754C.33499146 .10206604 .31199647 .077041629 .2899933 .058029176 .2689972 .040008546 .23799134 .021987915 .20899964 .021987915 .15899658 .021987915 .14399719 .074035648 .14399719 .11407471 .14399719 .16212464 .17298889 .28024293 .19999695 .33128358 .22698975 .38034059 .269989 .42037965 .31199647 .42037965 .37799073 .42037965 .3919983 .33929444 .3919983 .33428956 .3919983 .32928468 .3899994 .3232727 .3889923 .3192749L.34098817 .12809754Z"/>
<path id="font_2_1" d="M.33099366-.2400055C.33099366-.23701477 .33099366-.23500061 .31399537-.21800232 .18899536-.0920105 .15699768 .09700012 .15699768 .25 .15699768 .42399598 .19499207 .59799197 .31799317 .72299197 .33099366 .73498538 .33099366 .7369995 .33099366 .73999026 .33099366 .746994 .32699586 .75 .32099916 .75 .31098939 .75 .22099304 .6819916 .1619873 .5549927 .11099243 .44499208 .09899902 .33399964 .09899902 .25 .09899902 .17199707 .10998535 .050994874 .16499329-.06201172 .22499085-.18501282 .31098939-.25 .32099916-.25 .32699586-.25 .33099366-.24700928 .33099366-.2400055Z"/>
<path id="font_2_2" d="M.2889862 .25C.2889862 .32798768 .27799989 .44898988 .22299195 .56199648 .16299439 .68499758 .07699585 .75 .066986087 .75 .06098938 .75 .056991579 .74598696 .056991579 .73999026 .056991579 .7369995 .056991579 .73498538 .07598877 .71699526 .17399597 .6179962 .23098755 .45899964 .23098755 .25 .23098755 .07899475 .19400025-.09700012 .069992069-.2230072 .056991579-.23500061 .056991579-.23701477 .056991579-.2400055 .056991579-.2460022 .06098938-.25 .066986087-.25 .07699585-.25 .16699219-.18200684 .22599793-.055007936 .2769928 .054992677 .2889862 .16600037 .2889862 .25Z"/>
</defs>
<path transform="matrix(1.00003,0,0,-1.00006,-23.18723,166.5352)" stroke-width=".3985" stroke-linecap="butt" stroke-miterlimit="10" stroke-linejoin="miter" fill="none" stroke="#cbcbcb" d="M48.56728 0V161.39696M72.8509 0V161.39696M97.13455 0V161.39696M145.70183 0V161.39696M169.98548 0V161.39696M194.26912 0V161.39696"/>
<path transform="matrix(1.00003,0,0,-1.00006,-23.18723,166.5352)" stroke-width=".3985" stroke-linecap="butt" stroke-miterlimit="10" stroke-linejoin="miter" fill="none" stroke="#cbcbcb" d="M24.28363 0H218.55275M24.28363 40.34923H218.55275M24.28363 121.04771H218.55275M24.28363 161.39696H218.55275"/>
<path transform="matrix(1.00003,0,0,-1.00006,-23.18723,166.5352)" stroke-width=".19925" stroke-linecap="butt" stroke-miterlimit="10" stroke-linejoin="miter" fill="none" stroke="#929292" d="M48.56728 78.57314V82.8238M72.8509 78.57314V82.8238M97.13455 78.57314V82.8238M145.70183 78.57314V82.8238M169.98548 78.57314V82.8238M194.26912 78.57314V82.8238"/>
<path transform="matrix(1.00003,0,0,-1.00006,-23.18723,166.5352)" stroke-width=".19925" stroke-linecap="butt" stroke-miterlimit="10" stroke-linejoin="miter" fill="none" stroke="#929292" d="M119.29224 0H123.54413M119.29224 40.34923H123.54413M119.29224 121.04771H123.54413M119.29224 161.39696H123.54413"/>
<path transform="matrix(1.00003,0,0,-1.00006,-23.18723,166.5352)" stroke-width=".3985" stroke-linecap="butt" stroke-miterlimit="10" stroke-linejoin="miter" fill="none" stroke="#000000" d="M24.28363 80.69847H216.56023"/>
<path transform="matrix(1.00003,0,0,-1.00006,193.3795,85.831897)" d="M1.99252 0-1.19551 1.59401 0 0-1.19551-1.59401"/>
<path transform="matrix(1.00003,0,0,-1.00006,-23.18723,166.5352)" stroke-width=".3985" stroke-linecap="butt" stroke-miterlimit="10" stroke-linejoin="miter" fill="none" stroke="#000000" d="M121.4182 0V159.40444"/>
<path transform="matrix(0,-1.00006,-1.00003,-0,98.23462,7.121216)" d="M1.99252 0-1.19551 1.59401 0 0-1.19551-1.59401"/>
<use data-text="&#x2212;" xlink:href="#font_1_1" transform="matrix(9.962899,0,0,-9.963197,19.016037,97.89809)"/>
<use data-text="3" xlink:href="#font_2_6" transform="matrix(9.962899,0,0,-9.963197,26.76527,97.89809)"/>
<use data-text="&#x2212;" xlink:href="#font_1_1" transform="matrix(9.962899,0,0,-9.963197,43.30077,97.89809)"/>
<use data-text="2" xlink:href="#font_2_5" transform="matrix(9.962899,0,0,-9.963197,51.050004,97.89809)"/>
<use data-text="&#x2212;" xlink:href="#font_1_1" transform="matrix(9.962899,0,0,-9.963197,67.58449,97.89809)"/>
<use data-text="1" xlink:href="#font_2_4" transform="matrix(9.962899,0,0,-9.963197,75.333728,97.89809)"/>
<use data-text="1" xlink:href="#font_2_4" transform="matrix(9.962899,0,0,-9.963197,120.028079,97.89809)"/>
<use data-text="2" xlink:href="#font_2_5" transform="matrix(9.962899,0,0,-9.963197,144.3128,97.89809)"/>
<use data-text="3" xlink:href="#font_2_6" transform="matrix(9.962899,0,0,-9.963197,168.59654,97.89809)"/>
<use data-text="&#x2212;" xlink:href="#font_1_1" transform="matrix(9.962899,0,0,-9.963197,74.87671,169.33037)"/>
<use data-text="1" xlink:href="#font_2_4" transform="matrix(9.962899,0,0,-9.963197,82.625949,169.33037)"/>
<use data-text="0" xlink:href="#font_2_3" transform="matrix(9.962899,0,0,-9.963197,87.60739,169.33037)"/>
<use data-text="&#x2212;" xlink:href="#font_1_1" transform="matrix(9.962899,0,0,-9.963197,79.857868,128.97895)"/>
<use data-text="5" xlink:href="#font_2_7" transform="matrix(9.962899,0,0,-9.963197,87.6071,128.97895)"/>
<use data-text="5" xlink:href="#font_2_7" transform="matrix(9.962899,0,0,-9.963197,87.6071,48.69014)"/>
<use data-text="1" xlink:href="#font_2_4" transform="matrix(9.962899,0,0,-9.963197,82.625949,8.338715)"/>
<use data-text="0" xlink:href="#font_2_3" transform="matrix(9.962899,0,0,-9.963197,87.6074,8.338715)"/>
<g clip-path="url(#clip_3)">
<path transform="matrix(1.00003,0,0,-1.00006,-23.18723,166.5352)" stroke-width="1.59404" stroke-linecap="butt" stroke-miterlimit="10" stroke-linejoin="miter" fill="none" stroke="#0000ff" d="M0 1139.8661C0 1139.8661 3.58041 1008.5281 4.95555 962.4097 6.33069 916.2913 8.53596 847.613 9.9111 807.477 11.28624 767.34109 13.49153 707.81558 14.86667 673.13778 16.24182 638.4599 18.4471 587.26419 19.82224 557.54348 21.19737 527.8227 23.40265 484.17289 24.77779 458.9315 26.15292 433.69017 28.35822 396.83769 29.73335 375.62129 31.1085 354.4049 33.31378 323.6411 34.68892 306.0186 36.06406 288.3961 38.26935 263.0471 39.64449 248.61046 41.01962 234.17383 43.2249 213.60446 44.60004 201.96933 45.97519 190.33419 48.18047 173.9472 49.5556 164.75243 50.93074 155.55765 53.13603 142.7921 54.51117 135.69968 55.8863 128.60726 58.09158 118.93982 59.46672 113.63516 60.84187 108.3305 63.04715 101.27557 64.42229 97.4674 65.79742 93.65923 68.00272 88.7682 69.37785 86.18849 70.75299 83.60878 72.95827 80.47054 74.3334 78.87457 75.70856 77.27861 77.91383 75.51945 79.28899 74.68585 80.66412 73.85225 82.8694 73.13586 84.24454 72.86653 85.61967 72.5972 87.82495 72.62453 89.20009 72.74461 90.57524 72.86472 92.78052 73.3741 94.15567 73.73218 95.5308 74.09024 97.73608 74.85757 99.11122 75.32542 100.48636 75.79329 102.69164 76.6315 104.06677 77.10425 105.44193 77.577 107.6472 78.33669 109.02235 78.73273 110.39749 79.12877 112.60277 79.69763 113.9779 79.95868 115.35304 80.21973 117.55833 80.52316 118.93347 80.61424 120.30861 80.70532 122.51389 80.70569 123.88904 80.61511 125.26418 80.52454 127.46945 80.22198 128.84459 79.96138 130.21973 79.70078 132.42502 79.13252 133.80016 78.73679 135.1753 78.34105 137.38057 77.5818 138.75572 77.10918 140.13086 76.63654 142.33615 75.79836 143.71129 75.33035 145.08643 74.86237 147.2917 74.09467 148.66684 73.73611 150.04198 73.37755 152.24726 72.86708 153.6224 72.7461 154.99755 72.6251 157.20284 72.59604 158.57798 72.86406 159.95311 73.1321 162.15839 73.84612 163.53353 74.67786 164.90866 75.5096 167.11394 77.26529 168.48909 78.85881 169.86423 80.45233 172.06952 83.58623 173.44466 86.16287 174.8198 88.73952 177.02507 93.6251 178.4002 97.42947 179.77535 101.23384 181.98064 108.28215 183.35578 113.58221 184.73093 118.88228 186.9362 128.54164 188.31134 135.62863 189.68648 142.71564 191.89176 155.472 193.26689 164.66043 194.64203 173.84888 196.84732 190.22489 198.22246 201.85259 199.59761 213.4803 201.80289 234.03673 203.17803 248.4649 204.55316 262.8931 206.75844 288.2278 208.13358 305.8409 209.50872 323.45405 211.714 354.2022 213.08914 375.40806 214.4643 396.61384 216.66957 433.44798 218.04471 458.6776 219.41985 483.90724 221.62514 527.538 223.00028 557.2456 224.37541 586.9532 226.58069 638.1262 227.95583 672.78927 229.33098 707.4523 231.53626 766.9529 232.91139 807.07278 234.28653 847.1926 236.49182 915.84439 237.86696 961.9454 239.2421 1008.0463 242.82251 1139.3366 242.82251 1139.3366"/>
</g>
<use data-text="t" xlink:href="#font_4_2" transform="matrix(9.962899,0,0,-9.963197,188.25412,82.31215)"/>
<use data-text="y" xlink:href="#font_4_3" transform="matrix(9.962899,0,0,-9.963197,101.75453,12.937988)"/>
<path transform="matrix(1.00003,0,0,-1.00006,-23.18723,166.5352)" d="M150.92076 141.03243H214.46727V157.96907H150.92076Z" fill="#ffffff"/>
<path transform="matrix(1.00003,0,0,-1.00006,-23.18723,166.5352)" stroke-width=".3985" stroke-linecap="butt" stroke-miterlimit="10" stroke-linejoin="miter" fill="none" stroke="#000000" d="M150.92076 141.03243H214.46727V157.96907H150.92076Z"/>
<path transform="matrix(1.00003,0,0,-1.00006,131.52442,17.025238)" stroke-width="1.59404" stroke-linecap="butt" stroke-miterlimit="10" stroke-linejoin="miter" fill="none" stroke="#0000ff" d="M0 0C0 0 6.14426 0 8.50412 0 10.86398 0 17.00826 0 17.00826 0"/>
<use data-text="y" xlink:href="#font_4_3" transform="matrix(9.962899,0,0,-9.963197,151.32202,20.01442)"/>
<use data-text="=" xlink:href="#font_2_8" transform="matrix(9.962899,0,0,-9.963197,159.33127,20.01442)"/>
<use data-text="g" xlink:href="#font_4_1" transform="matrix(9.962899,0,0,-9.963197,169.84757,20.01442)"/>
<use data-text="(" xlink:href="#font_2_1" transform="matrix(9.962899,0,0,-9.963197,174.95774,20.01442)"/>
<use data-text="t" xlink:href="#font_4_2" transform="matrix(9.962899,0,0,-9.963197,178.83185,20.01442)"/>
<use data-text=")" xlink:href="#font_2_2" transform="matrix(9.962899,0,0,-9.963197,182.42996,20.01442)"/>
</svg>
