<svg xmlns="http://www.w3.org/2000/svg" xmlns:xlink="http://www.w3.org/1999/xlink" version="1.1" width="238" height="297" viewBox="0 0 238 297">
<defs>
<clipPath id="clip_1">
<path transform="matrix(1.00002,0,0,-1.00009,11.095665,225.98517)" d="M0 0H206.22547V206.22547H0Z"/>
</clipPath>
<path id="font_2_1" d="M.31399537 .63708499C.31399537 .664032 .31199647 .66503909 .2849884 .66503909 .24398804 .6251831 .19099427 .6013489 .09599304 .6013489V.5683594C.12298584 .5683594 .1769867 .5683594 .23498535 .5953522V.08203125C.23498535 .04499817 .23199463 .032989503 .13699341 .032989503H.101989749V0C.14299011 .0029907227 .22898865 .0029907227 .27398683 .0029907227 .31900025 .0029907227 .4059906 .0029907227 .44699098 0V.032989503H.4119873C.31698609 .032989503 .31399537 .04499817 .31399537 .08203125V.63708499Z"/>
<path id="font_2_2" d="M.28199769 .20405579C.2979889 .21907044 .33999635 .2520752 .35598756 .26608277 .41799928 .32312013 .47698976 .3781433 .47698976 .46917726 .47698976 .588089 .3769989 .66503909 .2519989 .66503909 .13198853 .66503909 .052993776 .57411196 .052993776 .48516847 .052993776 .4361725 .09199524 .4291687 .10598755 .4291687 .1269989 .4291687 .1579895 .4441681 .1579895 .48217774 .1579895 .5341797 .10798645 .5341797 .09599304 .5341797 .125 .6070709 .19198609 .6320343 .24099732 .6320343 .33399964 .6320343 .38198854 .55314639 .38198854 .46917726 .38198854 .36514283 .30899049 .28910829 .19099427 .16804505L.06498718 .037994386C.052993776 .026992798 .052993776 .024993897 .052993776 0H.44799806L.47698976 .17904663H.44599916C.44299317 .1590271 .43499757 .10900879 .4229889 .08999634 .4169922 .08198547 .34098817 .08198547 .32499696 .08198547H.14698792L.28199769 .20405579Z"/>
<clipPath id="clip_3">
<path transform="matrix(1.00002,0,0,-1.00009,11.095665,225.98517)" d="M0 0H206.22547V206.22547H0Z"/>
</clipPath>
<path id="font_4_1" d="M.375 .6136017C.3809967 .63760378 .38398744 .6476135 .40299989 .65060427 .4119873 .6516113 .44400025 .6516113 .46398927 .6516113 .5349884 .6516113 .6459961 .6516113 .6459961 .5525818 .6459961 .51856997 .6299896 .44955445 .59098818 .41055299 .5649872 .38453675 .5119934 .35253907 .42199708 .35253907H.30999757L.375 .6136017M.5189972 .33953858C.6199951 .3615265 .7389984 .43154908 .7389984 .5325775 .7389984 .61860659 .6489868 .6826172 .5179901 .6826172H.23298645C.21299744 .6826172 .20399475 .6826172 .20399475 .6626129 .20399475 .6516113 .21299744 .6516113 .23199463 .6516113 .23399353 .6516113 .25299073 .6516113 .269989 .6496124 .28799439 .6476135 .29699708 .64660647 .29699708 .63360598 .29699708 .62960818 .29599 .6266022 .29299928 .6145935L.15899658 .07752991C.14898682 .038528444 .14698792 .030532837 .067993167 .030532837 .049987794 .030532837 .040985109 .030532837 .040985109 .010528564 .040985109-.00047302247 .052993776-.00047302247 .054992677-.00047302247 .08299255-.00047302247 .15299988 .002532959 .18099976 .002532959 .20899964 .002532959 .27999879-.00047302247 .30799867-.00047302247 .31599427-.00047302247 .32798768-.00047302247 .32798768 .01953125 .32798768 .030532837 .31900025 .030532837 .2999878 .030532837 .2630005 .030532837 .23498535 .030532837 .23498535 .048538209 .23498535 .054534913 .23699951 .059524537 .23799134 .0655365L.3039856 .3305359H.4229889C.5139923 .3305359 .5319977 .27453614 .5319977 .23953247 .5319977 .22453308 .5239868 .19352722 .5179901 .17053223 .5109863 .14253235 .5019989 .105529788 .5019989 .08552551 .5019989-.022460938 .621994-.022460938 .6349945-.022460938 .7200012-.022460938 .7549896 .07853699 .7549896 .0925293 .7549896 .104537967 .74398806 .104537967 .7429962 .104537967 .73399356 .104537967 .7319946 .09753418 .7299957 .090530399 .7049866 .016525269 .6619873-.00047302247 .6389923-.00047302247 .60598757-.00047302247 .598999 .021530152 .598999 .060531618 .598999 .091537479 .6049957 .14253235 .60899356 .17453003 .61099246 .1885376 .61299136 .20753479 .61299136 .2215271 .61299136 .2985382 .54599 .3295288 .5189972 .33953858Z"/>
<path id="font_4_2" d="M.34999085 .056259157C.36099244 .015258789 .3959961-.0107421879 .43899537-.0107421879 .47399903-.0107421879 .49699403 .012252808 .5130005 .044265748 .5299988 .08027649 .54299929 .14129639 .54299929 .14329529 .54299929 .1532898 .5339966 .1532898 .5309906 .1532898 .5209961 .1532898 .519989 .14929199 .5169983 .13528443 .5029907 .07926941 .48399354 .011245728 .44198609 .011245728 .42099 .011245728 .41099549 .024261475 .41099549 .057266237 .41099549 .07926941 .4229889 .12628174 .43099977 .16130066L.45899964 .2693329C.46199037 .28433229 .47200013 .32234193 .47599793 .3373413 .48098756 .36035157 .4909973 .3983612 .4909973 .40437318 .4909973 .42237855 .47698976 .43138124 .46199037 .43138124 .45700074 .43138124 .43099977 .43037416 .4229889 .3963623 .4039917 .323349 .3600006 .14828491 .34799195 .09527588 .34700013 .091278079 .30699159 .011245728 .23399353 .011245728 .18199158 .011245728 .17199707 .056259157 .17199707 .09327698 .17199707 .14929199 .19999695 .22831726 .22599793 .29733277 .23799134 .3273468 .24299622 .34135438 .24299622 .36035157 .24299622 .405365 .21099854 .4423828 .16099549 .4423828 .06599426 .4423828 .0289917 .29733277 .0289917 .28833009 .0289917 .27833558 .038986207 .27833558 .040985109 .27833558 .050994874 .27833558 .051986696 .28033448 .056991579 .29634095 .08198547 .38336183 .11999512 .42037965 .1579895 .42037965 .16699219 .42037965 .18299866 .41937257 .18299866 .38735963 .18299866 .36335755 .17199707 .3343506 .1659851 .31933595 .1289978 .2203064 .10798645 .15829468 .10798645 .10928345 .10798645 .014251709 .1769867-.0107421879 .23098755-.0107421879 .29699708-.0107421879 .33299256 .03425598 .34999085 .056259157Z"/>
<path id="font_4_3" d="M.46798707 .37236024C.46798707 .42637635 .44198609 .4423828 .42399598 .4423828 .39898683 .4423828 .375 .41636659 .375 .3943634 .375 .38136292 .37998963 .3753662 .3909912 .36434938 .4119873 .3443451 .4249878 .31834413 .4249878 .28233338 .4249878 .24032593 .3639984 .011245728 .24699402 .011245728 .19599915 .011245728 .17298889 .04626465 .17298889 .09828186 .17298889 .15429688 .19999695 .22731018 .23098755 .31033326 .23799134 .3273468 .24299622 .34135438 .24299622 .36035157 .24299622 .405365 .21099854 .4423828 .16099549 .4423828 .066986087 .4423828 .0289917 .29733277 .0289917 .28833009 .0289917 .27833558 .038986207 .27833558 .040985109 .27833558 .050994874 .27833558 .051986696 .28033448 .056991579 .29634095 .085998538 .39736939 .1289978 .42037965 .1579895 .42037965 .1659851 .42037965 .18299866 .42037965 .18299866 .3883667 .18299866 .36335755 .17298889 .3363495 .1659851 .31834413 .12199402 .20230103 .10899353 .15629578 .10899353 .11328125 .10899353 .0052490236 .19699097-.0107421879 .24299622-.0107421879 .41099549-.0107421879 .46798707 .32034303 .46798707 .37236024Z"/>
<path id="font_5_3" d="M.68699648 .32714845C.70199587 .32714845 .72099307 .32714845 .72099307 .34713746 .72099307 .36714173 .70199587 .36714173 .6879883 .36714173H.08898926C.07499695 .36714173 .055999757 .36714173 .055999757 .34713746 .055999757 .32714845 .07499695 .32714845 .08999634 .32714845H.68699648M.6879883 .13284302C.70199587 .13284302 .72099307 .13284302 .72099307 .15284729 .72099307 .17285156 .70199587 .17285156 .68699648 .17285156H.08999634C.07499695 .17285156 .055999757 .17285156 .055999757 .15284729 .055999757 .13284302 .07499695 .13284302 .08898926 .13284302H.6879883Z"/>
<path id="font_5_1" d="M.45999146 .31976319C.45999146 .39982606 .45498658 .47988893 .41999818 .5539398 .37399293 .65000918 .2919922 .6660156 .25 .6660156 .18998719 .6660156 .116989139 .64001467 .07598877 .54693606 .04399109 .47789 .038986207 .39982606 .038986207 .31976319 .038986207 .24472046 .042999269 .15464783 .083999637 .07859802 .1269989-.0024719239 .19999695-.022460938 .24899292-.022460938 .30299378-.022460938 .3789978-.0014648438 .4229889 .09359741 .45498658 .16265869 .45999146 .2407074 .45999146 .31976319M.24899292-.00047302247C.20999146-.00047302247 .15098572 .024551392 .1329956 .12062073 .12199402 .18066406 .12199402 .2727356 .12199402 .3317871 .12199402 .39582826 .12199402 .46188355 .12998963 .5159149 .14898682 .63500979 .22399903 .64401248 .24899292 .64401248 .28199769 .64401248 .34799195 .6259918 .36698915 .52693179 .3769989 .47088624 .3769989 .39482118 .3769989 .3317871 .3769989 .25672914 .3769989 .18867493 .3659973 .12461853 .35099793 .029556275 .2939911-.00047302247 .24899292-.00047302247Z"/>
<path id="font_5_2" d="M.1269989 .07699585 .23298645 .18003845C.3889923 .31811524 .44898988 .3721466 .44898988 .47216798 .44898988 .5860901 .35899354 .6660156 .23699951 .6660156 .12399292 .6660156 .049987794 .57411196 .049987794 .48516847 .049987794 .4291687 .099990848 .4291687 .102996829 .4291687 .11999512 .4291687 .15499878 .44117738 .15499878 .48217774 .15499878 .5081787 .13699341 .5341797 .101989749 .5341797 .09399414 .5341797 .09199524 .5341797 .08898926 .5331726 .11199951 .59806826 .1659851 .63500979 .22399903 .63500979 .31498719 .63500979 .35798646 .5541382 .35798646 .47216798 .35798646 .39215089 .30799867 .31311036 .25299073 .25108338L.06098938 .036987306C.049987794 .025985718 .049987794 .023986817 .049987794 0H.42099L.44898988 .17404175H.42399598C.4189911 .14402771 .4119873 .1000061 .4019928 .084991458 .394989 .07699585 .32899476 .07699585 .30699159 .07699585H.1269989Z"/>
</defs>
<path transform="matrix(1.00002,0,0,-1.00009,11.095665,225.98517)" stroke-width=".09962" stroke-linecap="butt" stroke-miterlimit="10" stroke-linejoin="miter" fill="none" stroke="#e0e0e0" d="M34.37091 0V206.22547M103.11273 0V206.22547M171.85456 0V206.22547"/>
<path transform="matrix(1.00002,0,0,-1.00009,11.095665,225.98517)" stroke-width=".19925" stroke-linecap="butt" stroke-miterlimit="10" stroke-linejoin="miter" fill="none" stroke="#c0c0c0" d="M103.11273 0V206.22547M171.85456 0V206.22547"/>
<path transform="matrix(1.00002,0,0,-1.00009,11.095665,225.98517)" stroke-width=".09962" stroke-linecap="butt" stroke-miterlimit="10" stroke-linejoin="miter" fill="none" stroke="#e0e0e0" d="M0 34.37091H206.22547M0 103.11273H206.22547M0 171.85456H206.22547"/>
<path transform="matrix(1.00002,0,0,-1.00009,11.095665,225.98517)" stroke-width=".19925" stroke-linecap="butt" stroke-miterlimit="10" stroke-linejoin="miter" fill="none" stroke="#c0c0c0" d="M0 103.11273H206.22547M0 171.85456H206.22547"/>
<path transform="matrix(1.00002,0,0,-1.00009,11.095665,225.98517)" stroke-width=".19925" stroke-linecap="butt" stroke-miterlimit="10" stroke-linejoin="miter" fill="none" stroke="#929292" d="M34.37091 32.9535V35.78833M103.11273 32.9535V35.78833M171.85456 32.9535V35.78833"/>
<path transform="matrix(1.00002,0,0,-1.00009,11.095665,225.98517)" stroke-width=".19925" stroke-linecap="butt" stroke-miterlimit="10" stroke-linejoin="miter" fill="none" stroke="#929292" d="M103.11273 32.245V36.4968M171.85456 32.245V36.4968"/>
<path transform="matrix(1.00002,0,0,-1.00009,11.095665,225.98517)" stroke-width=".19925" stroke-linecap="butt" stroke-miterlimit="10" stroke-linejoin="miter" fill="none" stroke="#929292" d="M32.9535 34.37091H35.78833M32.9535 103.11273H35.78833M32.9535 171.85456H35.78833"/>
<path transform="matrix(1.00002,0,0,-1.00009,11.095665,225.98517)" stroke-width=".19925" stroke-linecap="butt" stroke-miterlimit="10" stroke-linejoin="miter" fill="none" stroke="#929292" d="M32.245 103.11273H36.4968M32.245 171.85456H36.4968"/>
<path transform="matrix(1.00002,0,0,-1.00009,11.095665,225.98517)" stroke-width=".3985" stroke-linecap="butt" stroke-miterlimit="10" stroke-linejoin="miter" fill="none" stroke="#000000" d="M-6.37622 34.37091H212.6017"/>
<path transform="matrix(-1.00002,-0,0,1.00009,4.719317,191.61116)" d="M3.58653 0C2.52383 .19925 .797 .797-.3985 1.49438V-1.49438C.797-.797 2.52383-.19925 3.58653 0"/>
<path transform="matrix(1.00002,0,0,-1.00009,223.70163,191.61116)" d="M3.58653 0C2.52383 .19925 .797 .797-.3985 1.49438V-1.49438C.797-.797 2.52383-.19925 3.58653 0"/>
<path transform="matrix(1.00002,0,0,-1.00009,11.095665,225.98517)" stroke-width=".3985" stroke-linecap="butt" stroke-miterlimit="10" stroke-linejoin="miter" fill="none" stroke="#000000" d="M34.37091-6.37622V212.6017"/>
<path transform="matrix(0,1.00009,1.00002,0,45.467264,232.36197)" d="M3.58653 0C2.52383 .19925 .797 .797-.3985 1.49438V-1.49438C.797-.797 2.52383-.19925 3.58653 0"/>
<path transform="matrix(0,-1.00009,-1.00002,-0,45.467264,13.364334)" d="M3.58653 0C2.52383 .19925 .797 .797-.3985 1.49438V-1.49438C.797-.797 2.52383-.19925 3.58653 0"/>
<g clip-path="url(#clip_1)">
<path transform="matrix(1.00002,0,0,-1.00009,11.095665,225.98517)" d="M34.37076 34.36613C35.61319 34.37088 36.85316 34.3709 37.80768 34.37091 39.7343 34.37091 42.82396 34.37091 44.7506 34.37091 46.67722 34.37091 49.76689 34.37091 51.69351 34.37091 53.62013 34.37091 56.70981 34.37091 58.63643 34.37091 60.56305 34.37091 63.65273 34.37091 65.57935 34.37091 67.50597 34.37091 70.59564 34.37091 72.52226 34.37091 74.44888 34.37091 77.53856 34.37091 79.4652 34.37091 81.39182 34.37091 84.48148 34.37091 86.4081 34.37091 88.33472 34.37091 91.42441 34.37091 93.35103 34.37091 95.27765 34.37091 98.36731 34.37091 100.29393 34.37091 102.22055 34.37091 105.31024 34.37091 107.23686 34.37091 109.16348 34.37091 112.25314 34.37091 114.17978 34.37091 116.1064 34.37091 119.19608 34.37091 121.1227 34.37091 123.04932 34.37091 126.13899 34.37091 128.06562 34.37091 129.99224 34.37091 133.08191 34.37091 135.00853 34.37091 136.93515 34.37091 140.02483 34.37091 141.95145 34.37091 143.87807 34.37091 146.96775 34.37091 148.89438 34.37091 150.821 34.37091 153.91066 34.37091 155.83728 34.37091 157.7639 34.37091 160.85359 34.37091 162.78022 34.37091 164.70684 34.37091 167.7965 34.37091 169.72312 34.37091 170.33986 34.3709 171.07582 34.37088 171.85465 34.37086V171.8545C171.07582 171.85453 170.33986 171.85454 169.72312 171.85456 167.7965 171.85456 164.70684 171.85456 162.78022 171.85456 160.85359 171.85456 157.7639 171.85456 155.83728 171.85456 153.91066 171.85456 150.821 171.85456 148.89438 171.85456 146.96775 171.85456 143.87807 171.85456 141.95145 171.85456 140.02483 171.85456 136.93515 171.85456 135.00853 171.85456 133.08191 171.85456 129.99224 171.85456 128.06562 171.85456 126.13899 171.85456 123.04932 171.85456 121.1227 171.85456 119.19608 171.85456 116.1064 171.85456 114.17978 171.85456 112.25314 171.85456 109.16348 171.85456 107.23686 171.85456 105.31024 171.85456 102.22055 171.85456 100.29393 171.85456 98.36731 171.85456 95.27765 171.85456 93.35103 171.85456 91.42441 171.85456 88.33472 171.85456 86.4081 171.85456 84.48148 171.85456 81.39182 171.85456 79.4652 171.85456 77.53856 171.85456 74.44888 171.85456 72.52226 171.85456 70.59564 171.85456 67.50597 171.85456 65.57935 171.85456 63.65273 171.85456 60.56305 171.85456 58.63643 171.85456 56.70981 171.85456 53.62013 171.85456 51.69351 171.85456 49.76689 171.85456 46.67722 171.85456 44.7506 171.85456 42.82396 171.85456 39.7343 171.85456 37.80768 171.85456 36.85316 171.85454 35.61319 171.85453 34.37076 171.8515Z" fill="#0000ff" fill-opacity=".05"/>
</g>
<use data-text="1" xlink:href="#font_2_1" transform="matrix(7.9702599,0,0,-7.970817,112.09369,202.39405)"/>
<use data-text="2" xlink:href="#font_2_2" transform="matrix(7.9702599,0,0,-7.970817,180.83606,202.39405)"/>
<use data-text="1" xlink:href="#font_2_1" transform="matrix(7.9702599,0,0,-7.970817,35.587156,125.43112)"/>
<use data-text="2" xlink:href="#font_2_2" transform="matrix(7.9702599,0,0,-7.970817,35.587156,56.68393)"/>
<g clip-path="url(#clip_3)">
<path transform="matrix(1.00002,0,0,-1.00009,11.095665,225.98517)" stroke-width=".99628" stroke-linecap="butt" stroke-miterlimit="10" stroke-linejoin="miter" fill="none" stroke="#ff0000" d="M34.37091-308.50633C34.37091-304.3219 34.37091-304.3219 34.37091-302.3953 34.37091-300.46867 34.37091-297.379 34.37091-295.4524 34.37091-293.52577 34.37091-290.43608 34.37091-288.50947 34.37091-286.58283 34.37091-283.49317 34.37091-281.56654 34.37091-279.63993 34.37091-276.55024 34.37091-274.6236 34.37091-272.697 34.37091-269.60734 34.37091-267.6807 34.37091-265.75407 34.37091-262.6644 34.37091-260.7378 34.37091-258.81117 34.37091-255.72148 34.37091-253.79486 34.37091-251.86824 34.37091-248.77857 34.37091-246.85195 34.37091-244.92531 34.37091-241.83565 34.37091-239.90903 34.37091-237.9824 34.37091-234.89272 34.37091-232.9661 34.37091-231.03948 34.37091-227.94982 34.37091-226.0232 34.37091-224.09658 34.37091-221.00688 34.37091-219.08026 34.37091-217.15364 34.37091-214.06398 34.37091-212.13736 34.37091-210.21073 34.37091-207.12105 34.37091-205.19443 34.37091-203.2678 34.37091-200.17815 34.37091-198.25151 34.37091-196.32489 34.37091-193.23522 34.37091-191.3086 34.37091-189.38198 34.37091-186.2923 34.37091-184.36568 34.37091-182.43906 34.37091-179.34938 34.37091-177.42276 34.37091-175.49613 34.37091-172.40647 34.37091-170.47985 34.37091-168.55323 34.37091-165.46355 34.37091-163.53691 34.37091-161.61029 34.37091-158.52063 34.37091-156.59401 34.37091-154.66739 34.37091-151.5777 34.37091-149.65108 34.37091-147.72446 34.37091-144.6348 34.37091-142.70818 34.37091-140.78154 34.37091-137.69187 34.37091-135.76525 34.37091-133.83863 34.37091-130.74897 34.37091-128.82233 34.37091-126.8957 34.37091-123.80603 34.37091-121.87941 34.37091-119.95279 34.37091-116.86311 34.37091-114.9365 34.37091-113.00987 34.37091-109.9202 34.37091-107.99358 34.37091-106.06694 34.37091-102.97728 34.37091-101.05066 34.37091-99.12404 34.37091-96.03436 34.37091-94.10773 34.37091-92.1811 34.37091-89.09145 34.37091-87.16483 34.37091-85.2382 34.37091-82.14851 34.37091-80.2219 34.37091-78.29527 34.37091-75.20561 34.37091-73.27899 34.37091-71.35236 34.37091-68.26268 34.37091-66.33606 34.37091-64.40944 34.37091-61.31978 34.37091-59.39314 34.37091-57.46652 34.37091-54.37686 34.37091-52.45024 34.37091-50.52362 34.37091-47.43393 34.37091-45.50731 34.37091-43.58069 34.37091-40.49103 34.37091-38.5644 34.37091-36.63777 34.37091-33.5481 34.37091-31.62148 34.37091-29.69485 34.37091-26.6052 34.37091-24.67856 34.37091-22.75194 34.37091-19.66226 34.37091-17.73564 34.37091-15.80902 34.37091-12.71935 34.37091-10.79272 34.37091-8.8661 34.37091-5.77643 34.37091-3.84981 34.37091-1.92317 34.37091 1.16646 34.37091 3.09308 34.37091 5.0197 34.37091 8.10938 34.37091 10.03601 34.37091 11.96263 34.37091 15.05229 34.37091 16.97891 34.37091 18.90553 34.37091 21.99522 34.37091 23.92184 34.37091 25.84846 34.37091 28.93813 34.37091 30.86475 34.37091 32.79138 34.37091 35.88106 34.37091 37.80768 34.37091 39.7343 34.37091 42.82396 34.37091 44.7506 34.37091 46.67722 34.37091 49.76689 34.37091 51.69351 34.37091 53.62013 34.37091 56.70981 34.37091 58.63643 34.37091 60.56305 34.37091 63.65273 34.37091 65.57935 34.37091 67.50597 34.37091 70.59564 34.37091 72.52226 34.37091 74.44888 34.37091 77.53856 34.37091 79.4652 34.37091 81.39182 34.37091 84.48148 34.37091 86.4081 34.37091 88.33472 34.37091 91.42441 34.37091 93.35103 34.37091 95.27765 34.37091 98.36731 34.37091 100.29393 34.37091 102.22055 34.37091 105.31024 34.37091 107.23686 34.37091 109.16348 34.37091 112.25314 34.37091 114.17978 34.37091 116.1064 34.37091 119.19608 34.37091 121.1227 34.37091 123.04932 34.37091 126.13899 34.37091 128.06562 34.37091 129.99224 34.37091 133.08191 34.37091 135.00853 34.37091 136.93515 34.37091 140.02483 34.37091 141.95145 34.37091 143.87807 34.37091 146.96775 34.37091 148.89438 34.37091 150.821 34.37091 153.91066 34.37091 155.83728 34.37091 157.7639 34.37091 160.85359 34.37091 162.78022 34.37091 164.70684 34.37091 167.7965 34.37091 169.72312 34.37091 171.64974 34.37091 174.73943 34.37091 176.66605 34.37091 178.59267 34.37091 181.68233 34.37091 183.60895 34.37091 185.53559 34.37091 188.62525 34.37091 190.55187 34.37091 192.47849 34.37091 195.56818 34.37091 197.4948 34.37091 199.42142 34.37091 202.51108 34.37091 204.4377 34.37091 206.36432 34.37091 209.45401 34.37091 211.38063 34.37091 213.30725 34.37091 216.39691 34.37091 218.32353 34.37091 220.25017 34.37091 223.33985 34.37091 225.26647 34.37091 227.19309 34.37091 230.28276 34.37091 232.20938 34.37091 234.136 34.37091 237.22568 34.37091 239.1523 34.37091 241.07892 34.37091 244.1686 34.37091 246.09522 34.37091 248.02184 34.37091 251.11151 34.37091 253.03813 34.37091 254.96477 34.37091 258.05445 34.37091 259.98106 34.37091 261.90769 34.37091 264.99736 34.37091 266.92399 34.37091 268.8506 34.37091 271.94026 34.37091 273.86689 34.37091 275.7935 34.37091 278.8832 34.37091 280.8098 34.37091 282.73643 34.37091 285.8261 34.37091 287.75273 34.37091 289.67936 34.37091 292.76905 34.37091 294.69566 34.37091 296.62229 34.37091 299.71195 34.37091 301.63859 34.37091 303.5652 34.37091 306.65486 34.37091 308.58149 34.37091 310.5081 34.37091 313.59779 34.37091 315.5244 34.37091 317.45103 34.37091 320.5407 34.37091 322.46733 34.37091 324.39396 34.37091 327.4836 34.37091 329.41023 34.37091 331.33686 34.37091 334.42655 34.37091 336.35316 34.37091 338.2798 34.37091 341.36946 34.37091 343.29609 34.37091 345.2227 34.37091 348.31239 34.37091 350.239 34.37091 352.16563 34.37091 355.25529 34.37091 357.1819 34.37091 359.10856 34.37091 362.1982 34.37091 364.12483 34.37091 366.05146 34.37091 369.1411 34.37091 371.06776 34.37091 372.9944 34.37091 378.01069 34.37091 377.17878"/>
<path transform="matrix(0,1.00009,1.00002,0,45.467264,534.5193)" stroke-width=".79701" stroke-linecap="round" stroke-linejoin="round" fill="none" stroke="#ff0000" d="M-1.73352 2.31136C-1.58905 1.4446 0 .14444 .43336 0 0-.14444-1.58905-1.4446-1.73352-2.31136"/>
<path transform="matrix(0,-1.00009,-1.00002,-0,45.467264,-151.22754)" stroke-width=".79701" stroke-linecap="round" stroke-linejoin="round" fill="none" stroke="#ff0000" d="M-1.73352 2.31136C-1.58905 1.4446 0 .14444 .43336 0 0-.14444-1.58905-1.4446-1.73352-2.31136"/>
<path transform="matrix(1.00002,0,0,-1.00009,11.095665,225.98517)" stroke-width=".99628" stroke-linecap="butt" stroke-dasharray="2.98883,1.99255,.99628,1.99255" stroke-miterlimit="10" stroke-linejoin="miter" fill="none" stroke="#ff0000" d="M171.85456-308.50633C171.85456-304.3219 171.85456-304.3219 171.85456-302.3953 171.85456-300.46867 171.85456-297.379 171.85456-295.4524 171.85456-293.52577 171.85456-290.43608 171.85456-288.50947 171.85456-286.58283 171.85456-283.49317 171.85456-281.56654 171.85456-279.63993 171.85456-276.55024 171.85456-274.6236 171.85456-272.697 171.85456-269.60734 171.85456-267.6807 171.85456-265.75407 171.85456-262.6644 171.85456-260.7378 171.85456-258.81117 171.85456-255.72148 171.85456-253.79486 171.85456-251.86824 171.85456-248.77857 171.85456-246.85195 171.85456-244.92531 171.85456-241.83565 171.85456-239.90903 171.85456-237.9824 171.85456-234.89272 171.85456-232.9661 171.85456-231.03948 171.85456-227.94982 171.85456-226.0232 171.85456-224.09658 171.85456-221.00688 171.85456-219.08026 171.85456-217.15364 171.85456-214.06398 171.85456-212.13736 171.85456-210.21073 171.85456-207.12105 171.85456-205.19443 171.85456-203.2678 171.85456-200.17815 171.85456-198.25151 171.85456-196.32489 171.85456-193.23522 171.85456-191.3086 171.85456-189.38198 171.85456-186.2923 171.85456-184.36568 171.85456-182.43906 171.85456-179.34938 171.85456-177.42276 171.85456-175.49613 171.85456-172.40647 171.85456-170.47985 171.85456-168.55323 171.85456-165.46355 171.85456-163.53691 171.85456-161.61029 171.85456-158.52063 171.85456-156.59401 171.85456-154.66739 171.85456-151.5777 171.85456-149.65108 171.85456-147.72446 171.85456-144.6348 171.85456-142.70818 171.85456-140.78154 171.85456-137.69187 171.85456-135.76525 171.85456-133.83863 171.85456-130.74897 171.85456-128.82233 171.85456-126.8957 171.85456-123.80603 171.85456-121.87941 171.85456-119.95279 171.85456-116.86311 171.85456-114.9365 171.85456-113.00987 171.85456-109.9202 171.85456-107.99358 171.85456-106.06694 171.85456-102.97728 171.85456-101.05066 171.85456-99.12404 171.85456-96.03436 171.85456-94.10773 171.85456-92.1811 171.85456-89.09145 171.85456-87.16483 171.85456-85.2382 171.85456-82.14851 171.85456-80.2219 171.85456-78.29527 171.85456-75.20561 171.85456-73.27899 171.85456-71.35236 171.85456-68.26268 171.85456-66.33606 171.85456-64.40944 171.85456-61.31978 171.85456-59.39314 171.85456-57.46652 171.85456-54.37686 171.85456-52.45024 171.85456-50.52362 171.85456-47.43393 171.85456-45.50731 171.85456-43.58069 171.85456-40.49103 171.85456-38.5644 171.85456-36.63777 171.85456-33.5481 171.85456-31.62148 171.85456-29.69485 171.85456-26.6052 171.85456-24.67856 171.85456-22.75194 171.85456-19.66226 171.85456-17.73564 171.85456-15.80902 171.85456-12.71935 171.85456-10.79272 171.85456-8.8661 171.85456-5.77643 171.85456-3.84981 171.85456-1.92317 171.85456 1.16646 171.85456 3.09308 171.85456 5.0197 171.85456 8.10938 171.85456 10.03601 171.85456 11.96263 171.85456 15.05229 171.85456 16.97891 171.85456 18.90553 171.85456 21.99522 171.85456 23.92184 171.85456 25.84846 171.85456 28.93813 171.85456 30.86475 171.85456 32.79138 171.85456 35.88106 171.85456 37.80768 171.85456 39.7343 171.85456 42.82396 171.85456 44.7506 171.85456 46.67722 171.85456 49.76689 171.85456 51.69351 171.85456 53.62013 171.85456 56.70981 171.85456 58.63643 171.85456 60.56305 171.85456 63.65273 171.85456 65.57935 171.85456 67.50597 171.85456 70.59564 171.85456 72.52226 171.85456 74.44888 171.85456 77.53856 171.85456 79.4652 171.85456 81.39182 171.85456 84.48148 171.85456 86.4081 171.85456 88.33472 171.85456 91.42441 171.85456 93.35103 171.85456 95.27765 171.85456 98.36731 171.85456 100.29393 171.85456 102.22055 171.85456 105.31024 171.85456 107.23686 171.85456 109.16348 171.85456 112.25314 171.85456 114.17978 171.85456 116.1064 171.85456 119.19608 171.85456 121.1227 171.85456 123.04932 171.85456 126.13899 171.85456 128.06562 171.85456 129.99224 171.85456 133.08191 171.85456 135.00853 171.85456 136.93515 171.85456 140.02483 171.85456 141.95145 171.85456 143.87807 171.85456 146.96775 171.85456 148.89438 171.85456 150.821 171.85456 153.91066 171.85456 155.83728 171.85456 157.7639 171.85456 160.85359 171.85456 162.78022 171.85456 164.70684 171.85456 167.7965 171.85456 169.72312 171.85456 171.64974 171.85456 174.73943 171.85456 176.66605 171.85456 178.59267 171.85456 181.68233 171.85456 183.60895 171.85456 185.53559 171.85456 188.62525 171.85456 190.55187 171.85456 192.47849 171.85456 195.56818 171.85456 197.4948 171.85456 199.42142 171.85456 202.51108 171.85456 204.4377 171.85456 206.36432 171.85456 209.45401 171.85456 211.38063 171.85456 213.30725 171.85456 216.39691 171.85456 218.32353 171.85456 220.25017 171.85456 223.33985 171.85456 225.26647 171.85456 227.19309 171.85456 230.28276 171.85456 232.20938 171.85456 234.136 171.85456 237.22568 171.85456 239.1523 171.85456 241.07892 171.85456 244.1686 171.85456 246.09522 171.85456 248.02184 171.85456 251.11151 171.85456 253.03813 171.85456 254.96477 171.85456 258.05445 171.85456 259.98106 171.85456 261.90769 171.85456 264.99736 171.85456 266.92399 171.85456 268.8506 171.85456 271.94026 171.85456 273.86689 171.85456 275.7935 171.85456 278.8832 171.85456 280.8098 171.85456 282.73643 171.85456 285.8261 171.85456 287.75273 171.85456 289.67936 171.85456 292.76905 171.85456 294.69566 171.85456 296.62229 171.85456 299.71195 171.85456 301.63859 171.85456 303.5652 171.85456 306.65486 171.85456 308.58149 171.85456 310.5081 171.85456 313.59779 171.85456 315.5244 171.85456 317.45103 171.85456 320.5407 171.85456 322.46733 171.85456 324.39396 171.85456 327.4836 171.85456 329.41023 171.85456 331.33686 171.85456 334.42655 171.85456 336.35316 171.85456 338.2798 171.85456 341.36946 171.85456 343.29609 171.85456 345.2227 171.85456 348.31239 171.85456 350.239 171.85456 352.16563 171.85456 355.25529 171.85456 357.1819 171.85456 359.10856 171.85456 362.1982 171.85456 364.12483 171.85456 366.05146 171.85456 369.1411 171.85456 371.06776 171.85456 372.9944 171.85456 378.01069 171.85456 377.17878"/>
<path transform="matrix(0,1.00009,1.00002,0,182.95368,534.5193)" stroke-width=".79701" stroke-linecap="round" stroke-linejoin="round" fill="none" stroke="#ff0000" d="M-1.73352 2.31136C-1.58905 1.4446 0 .14444 .43336 0 0-.14444-1.58905-1.4446-1.73352-2.31136"/>
<path transform="matrix(0,-1.00009,-1.00002,-0,182.95368,-151.22754)" stroke-width=".79701" stroke-linecap="round" stroke-linejoin="round" fill="none" stroke="#ff0000" d="M-1.73352 2.31136C-1.58905 1.4446 0 .14444 .43336 0 0-.14444-1.58905-1.4446-1.73352-2.31136"/>
<path transform="matrix(1.00002,0,0,-1.00009,11.095665,225.98517)" stroke-width=".99628" stroke-linecap="butt" stroke-miterlimit="10" stroke-linejoin="miter" fill="none" stroke="#000000" d="M-308.50633 34.37091C-304.3219 34.37091-304.3219 34.37091-302.3953 34.37091-300.46867 34.37091-297.379 34.37091-295.4524 34.37091-293.52577 34.37091-290.43608 34.37091-288.50947 34.37091-286.58287 34.37091-283.4932 34.37091-281.56657 34.37091-279.63993 34.37091-276.55027 34.37091-274.62364 34.37091-272.697 34.37091-269.60734 34.37091-267.68074 34.37091-265.7541 34.37091-262.6644 34.37091-260.7378 34.37091-258.81117 34.37091-255.7215 34.37091-253.79488 34.37091-251.86826 34.37091-248.77858 34.37091-246.85196 34.37091-244.92533 34.37091-241.83567 34.37091-239.90904 34.37091-237.98242 34.37091-234.89273 34.37091-232.96611 34.37091-231.03949 34.37091-227.94983 34.37091-226.02321 34.37091-224.09659 34.37091-221.0069 34.37091-219.08028 34.37091-217.15366 34.37091-214.064 34.37091-212.13738 34.37091-210.21074 34.37091-207.12107 34.37091-205.19445 34.37091-203.26782 34.37091-200.17815 34.37091-198.25153 34.37091-196.3249 34.37091-193.23523 34.37091-191.30861 34.37091-189.38199 34.37091-186.29232 34.37091-184.36569 34.37091-182.43907 34.37091-179.3494 34.37091-177.42278 34.37091-175.49614 34.37091-172.40648 34.37091-170.47986 34.37091-168.55324 34.37091-165.46356 34.37091-163.53693 34.37091-161.6103 34.37091-158.52065 34.37091-156.59403 34.37091-154.6674 34.37091-151.57772 34.37091-149.6511 34.37091-147.72447 34.37091-144.63481 34.37091-142.70819 34.37091-140.78156 34.37091-137.69188 34.37091-135.76526 34.37091-133.83864 34.37091-130.74898 34.37091-128.82234 34.37091-126.89572 34.37091-123.80605 34.37091-121.87943 34.37091-119.9528 34.37091-116.86313 34.37091-114.93651 34.37091-113.00989 34.37091-109.92021 34.37091-107.99359 34.37091-106.06696 34.37091-102.9773 34.37091-101.05067 34.37091-99.12405 34.37091-96.03438 34.37091-94.10774 34.37091-92.18112 34.37091-89.09146 34.37091-87.16484 34.37091-85.23822 34.37091-82.14853 34.37091-80.22191 34.37091-78.29529 34.37091-75.20563 34.37091-73.279 34.37091-71.35237 34.37091-68.2627 34.37091-66.33607 34.37091-64.40945 34.37091-61.3198 34.37091-59.39316 34.37091-57.46654 34.37091-54.37688 34.37091-52.45026 34.37091-50.52364 34.37091-47.43394 34.37091-45.50732 34.37091-43.5807 34.37091-40.49104 34.37091-38.56442 34.37091-36.63779 34.37091-33.54811 34.37091-31.62149 34.37091-29.69487 34.37091-26.60521 34.37091-24.67857 34.37091-22.75195 34.37091-19.66228 34.37091-17.73566 34.37091-15.80904 34.37091-12.71936 34.37091-10.79274 34.37091-8.86612 34.37091-5.77644 34.37091-3.84982 34.37091-1.92319 34.37091 1.16646 34.37091 3.09308 34.37091 5.0197 34.37091 8.10938 34.37091 10.03601 34.37091 11.96263 34.37091 15.05229 34.37091 16.97891 34.37091 18.90553 34.37091 21.99522 34.37091 23.92184 34.37091 25.84846 34.37091 28.93813 34.37091 30.86475 34.37091 32.79138 34.37091 35.88106 34.37091 37.80768 34.37091 39.7343 34.37091 42.82396 34.37091 44.7506 34.37091 46.67722 34.37091 49.76689 34.37091 51.69351 34.37091 53.62013 34.37091 56.70981 34.37091 58.63643 34.37091 60.56305 34.37091 63.65273 34.37091 65.57935 34.37091 67.50597 34.37091 70.59564 34.37091 72.52226 34.37091 74.44888 34.37091 77.53856 34.37091 79.4652 34.37091 81.39182 34.37091 84.48148 34.37091 86.4081 34.37091 88.33472 34.37091 91.42441 34.37091 93.35103 34.37091 95.27765 34.37091 98.36731 34.37091 100.29393 34.37091 102.22055 34.37091 105.31024 34.37091 107.23686 34.37091 109.16348 34.37091 112.25314 34.37091 114.17978 34.37091 116.1064 34.37091 119.19608 34.37091 121.1227 34.37091 123.04932 34.37091 126.13899 34.37091 128.06562 34.37091 129.99224 34.37091 133.08191 34.37091 135.00853 34.37091 136.93515 34.37091 140.02483 34.37091 141.95145 34.37091 143.87807 34.37091 146.96775 34.37091 148.89438 34.37091 150.821 34.37091 153.91066 34.37091 155.83728 34.37091 157.7639 34.37091 160.85359 34.37091 162.78022 34.37091 164.70684 34.37091 167.7965 34.37091 169.72312 34.37091 171.64974 34.37091 174.73943 34.37091 176.66605 34.37091 178.59267 34.37091 181.68233 34.37091 183.60895 34.37091 185.53559 34.37091 188.62525 34.37091 190.55187 34.37091 192.47849 34.37091 195.56818 34.37091 197.4948 34.37091 199.42142 34.37091 202.51108 34.37091 204.4377 34.37091 206.36432 34.37091 209.45401 34.37091 211.38063 34.37091 213.30725 34.37091 216.39691 34.37091 218.32353 34.37091 220.25017 34.37091 223.33985 34.37091 225.26647 34.37091 227.19309 34.37091 230.28276 34.37091 232.20938 34.37091 234.136 34.37091 237.22568 34.37091 239.1523 34.37091 241.07892 34.37091 244.1686 34.37091 246.09522 34.37091 248.02184 34.37091 251.11151 34.37091 253.03813 34.37091 254.96477 34.37091 258.05445 34.37091 259.98106 34.37091 261.90769 34.37091 264.99736 34.37091 266.92399 34.37091 268.8506 34.37091 271.94026 34.37091 273.86689 34.37091 275.7935 34.37091 278.8832 34.37091 280.8098 34.37091 282.73643 34.37091 285.8261 34.37091 287.75273 34.37091 289.67936 34.37091 292.76905 34.37091 294.69566 34.37091 296.62229 34.37091 299.71195 34.37091 301.63859 34.37091 303.5652 34.37091 306.65486 34.37091 308.58149 34.37091 310.5081 34.37091 313.59779 34.37091 315.5244 34.37091 317.45103 34.37091 320.5407 34.37091 322.46733 34.37091 324.39396 34.37091 327.4836 34.37091 329.41023 34.37091 331.33686 34.37091 334.42655 34.37091 336.35316 34.37091 338.2798 34.37091 341.36946 34.37091 343.29609 34.37091 345.2227 34.37091 348.31239 34.37091 350.239 34.37091 352.16563 34.37091 355.25529 34.37091 357.1819 34.37091 359.10856 34.37091 362.1982 34.37091 364.12483 34.37091 366.05146 34.37091 369.1411 34.37091 371.06776 34.37091 372.9944 34.37091 378.01069 34.37091 377.17878 34.37091"/>
<path transform="matrix(-1.00002,-0,0,1.00009,-297.4168,191.61116)" stroke-width=".79701" stroke-linecap="round" stroke-linejoin="round" fill="none" stroke="#000000" d="M-1.73352 2.31136C-1.58905 1.4446 0 .14444 .43336 0 0-.14444-1.58905-1.4446-1.73352-2.31136"/>
<path transform="matrix(1.00002,0,0,-1.00009,388.282,191.61116)" stroke-width=".79701" stroke-linecap="round" stroke-linejoin="round" fill="none" stroke="#000000" d="M-1.73352 2.31136C-1.58905 1.4446 0 .14444 .43336 0 0-.14444-1.58905-1.4446-1.73352-2.31136"/>
<path transform="matrix(1.00002,0,0,-1.00009,11.095665,225.98517)" stroke-width=".99628" stroke-linecap="butt" stroke-dasharray="2.98883,1.99255,.99628,1.99255" stroke-miterlimit="10" stroke-linejoin="miter" fill="none" stroke="#000000" d="M-308.50633 171.85456C-304.3219 171.85456-304.3219 171.85456-302.3953 171.85456-300.46867 171.85456-297.379 171.85456-295.4524 171.85456-293.52577 171.85456-290.43608 171.85456-288.50947 171.85456-286.58287 171.85456-283.4932 171.85456-281.56657 171.85456-279.63993 171.85456-276.55027 171.85456-274.62364 171.85456-272.697 171.85456-269.60734 171.85456-267.68074 171.85456-265.7541 171.85456-262.6644 171.85456-260.7378 171.85456-258.81117 171.85456-255.7215 171.85456-253.79488 171.85456-251.86826 171.85456-248.77858 171.85456-246.85196 171.85456-244.92533 171.85456-241.83567 171.85456-239.90904 171.85456-237.98242 171.85456-234.89273 171.85456-232.96611 171.85456-231.03949 171.85456-227.94983 171.85456-226.02321 171.85456-224.09659 171.85456-221.0069 171.85456-219.08028 171.85456-217.15366 171.85456-214.064 171.85456-212.13738 171.85456-210.21074 171.85456-207.12107 171.85456-205.19445 171.85456-203.26782 171.85456-200.17815 171.85456-198.25153 171.85456-196.3249 171.85456-193.23523 171.85456-191.30861 171.85456-189.38199 171.85456-186.29232 171.85456-184.36569 171.85456-182.43907 171.85456-179.3494 171.85456-177.42278 171.85456-175.49614 171.85456-172.40648 171.85456-170.47986 171.85456-168.55324 171.85456-165.46356 171.85456-163.53693 171.85456-161.6103 171.85456-158.52065 171.85456-156.59403 171.85456-154.6674 171.85456-151.57772 171.85456-149.6511 171.85456-147.72447 171.85456-144.63481 171.85456-142.70819 171.85456-140.78156 171.85456-137.69188 171.85456-135.76526 171.85456-133.83864 171.85456-130.74898 171.85456-128.82234 171.85456-126.89572 171.85456-123.80605 171.85456-121.87943 171.85456-119.9528 171.85456-116.86313 171.85456-114.93651 171.85456-113.00989 171.85456-109.92021 171.85456-107.99359 171.85456-106.06696 171.85456-102.9773 171.85456-101.05067 171.85456-99.12405 171.85456-96.03438 171.85456-94.10774 171.85456-92.18112 171.85456-89.09146 171.85456-87.16484 171.85456-85.23822 171.85456-82.14853 171.85456-80.22191 171.85456-78.29529 171.85456-75.20563 171.85456-73.279 171.85456-71.35237 171.85456-68.2627 171.85456-66.33607 171.85456-64.40945 171.85456-61.3198 171.85456-59.39316 171.85456-57.46654 171.85456-54.37688 171.85456-52.45026 171.85456-50.52364 171.85456-47.43394 171.85456-45.50732 171.85456-43.5807 171.85456-40.49104 171.85456-38.56442 171.85456-36.63779 171.85456-33.54811 171.85456-31.62149 171.85456-29.69487 171.85456-26.60521 171.85456-24.67857 171.85456-22.75195 171.85456-19.66228 171.85456-17.73566 171.85456-15.80904 171.85456-12.71936 171.85456-10.79274 171.85456-8.86612 171.85456-5.77644 171.85456-3.84982 171.85456-1.92319 171.85456 1.16646 171.85456 3.09308 171.85456 5.0197 171.85456 8.10938 171.85456 10.03601 171.85456 11.96263 171.85456 15.05229 171.85456 16.97891 171.85456 18.90553 171.85456 21.99522 171.85456 23.92184 171.85456 25.84846 171.85456 28.93813 171.85456 30.86475 171.85456 32.79138 171.85456 35.88106 171.85456 37.80768 171.85456 39.7343 171.85456 42.82396 171.85456 44.7506 171.85456 46.67722 171.85456 49.76689 171.85456 51.69351 171.85456 53.62013 171.85456 56.70981 171.85456 58.63643 171.85456 60.56305 171.85456 63.65273 171.85456 65.57935 171.85456 67.50597 171.85456 70.59564 171.85456 72.52226 171.85456 74.44888 171.85456 77.53856 171.85456 79.4652 171.85456 81.39182 171.85456 84.48148 171.85456 86.4081 171.85456 88.33472 171.85456 91.42441 171.85456 93.35103 171.85456 95.27765 171.85456 98.36731 171.85456 100.29393 171.85456 102.22055 171.85456 105.31024 171.85456 107.23686 171.85456 109.16348 171.85456 112.25314 171.85456 114.17978 171.85456 116.1064 171.85456 119.19608 171.85456 121.1227 171.85456 123.04932 171.85456 126.13899 171.85456 128.06562 171.85456 129.99224 171.85456 133.08191 171.85456 135.00853 171.85456 136.93515 171.85456 140.02483 171.85456 141.95145 171.85456 143.87807 171.85456 146.96775 171.85456 148.89438 171.85456 150.821 171.85456 153.91066 171.85456 155.83728 171.85456 157.7639 171.85456 160.85359 171.85456 162.78022 171.85456 164.70684 171.85456 167.7965 171.85456 169.72312 171.85456 171.64974 171.85456 174.73943 171.85456 176.66605 171.85456 178.59267 171.85456 181.68233 171.85456 183.60895 171.85456 185.53559 171.85456 188.62525 171.85456 190.55187 171.85456 192.47849 171.85456 195.56818 171.85456 197.4948 171.85456 199.42142 171.85456 202.51108 171.85456 204.4377 171.85456 206.36432 171.85456 209.45401 171.85456 211.38063 171.85456 213.30725 171.85456 216.39691 171.85456 218.32353 171.85456 220.25017 171.85456 223.33985 171.85456 225.26647 171.85456 227.19309 171.85456 230.28276 171.85456 232.20938 171.85456 234.136 171.85456 237.22568 171.85456 239.1523 171.85456 241.07892 171.85456 244.1686 171.85456 246.09522 171.85456 248.02184 171.85456 251.11151 171.85456 253.03813 171.85456 254.96477 171.85456 258.05445 171.85456 259.98106 171.85456 261.90769 171.85456 264.99736 171.85456 266.92399 171.85456 268.8506 171.85456 271.94026 171.85456 273.86689 171.85456 275.7935 171.85456 278.8832 171.85456 280.8098 171.85456 282.73643 171.85456 285.8261 171.85456 287.75273 171.85456 289.67936 171.85456 292.76905 171.85456 294.69566 171.85456 296.62229 171.85456 299.71195 171.85456 301.63859 171.85456 303.5652 171.85456 306.65486 171.85456 308.58149 171.85456 310.5081 171.85456 313.59779 171.85456 315.5244 171.85456 317.45103 171.85456 320.5407 171.85456 322.46733 171.85456 324.39396 171.85456 327.4836 171.85456 329.41023 171.85456 331.33686 171.85456 334.42655 171.85456 336.35316 171.85456 338.2798 171.85456 341.36946 171.85456 343.29609 171.85456 345.2227 171.85456 348.31239 171.85456 350.239 171.85456 352.16563 171.85456 355.25529 171.85456 357.1819 171.85456 359.10856 171.85456 362.1982 171.85456 364.12483 171.85456 366.05146 171.85456 369.1411 171.85456 371.06776 171.85456 372.9944 171.85456 378.01069 171.85456 377.17878 171.85456"/>
<path transform="matrix(-1.00002,-0,0,1.00009,-297.4168,54.115144)" stroke-width=".79701" stroke-linecap="round" stroke-linejoin="round" fill="none" stroke="#000000" d="M-1.73352 2.31136C-1.58905 1.4446 0 .14444 .43336 0 0-.14444-1.58905-1.4446-1.73352-2.31136"/>
<path transform="matrix(1.00002,0,0,-1.00009,388.282,54.115144)" stroke-width=".79701" stroke-linecap="round" stroke-linejoin="round" fill="none" stroke="#000000" d="M-1.73352 2.31136C-1.58905 1.4446 0 .14444 .43336 0 0-.14444-1.58905-1.4446-1.73352-2.31136"/>
<use data-text="R" xlink:href="#font_4_1" transform="matrix(9.962799,0,0,-9.963496,110.389659,126.2672)"/>
</g>
<use data-text="u" xlink:href="#font_4_2" transform="matrix(9.962799,0,0,-9.963496,230.91507,193.74927)"/>
<use data-text="v" xlink:href="#font_4_3" transform="matrix(9.962799,0,0,-9.963496,42.955305,6.2083895)"/>
<path transform="matrix(1.00002,0,0,-1.00009,11.095665,225.98517)" d="M54.16603-69.2286H152.05944V-41.4437H54.16603Z" fill="#ffffff"/>
<path transform="matrix(1.00002,0,0,-1.00009,11.095665,225.98517)" stroke-width=".3985" stroke-linecap="butt" stroke-miterlimit="10" stroke-linejoin="miter" fill="none" stroke="#000000" d="M54.16603-69.2286H152.05944V-41.4437H54.16603Z"/>
<path transform="matrix(1.00002,0,0,-1.00009,68.74982,275.37663)" stroke-width=".99628" stroke-linecap="butt" stroke-miterlimit="10" stroke-linejoin="miter" fill="none" stroke="#ff0000" d="M.8319 0C6.14426 0 6.14426 0 8.50412 0 10.86398 0 17.00826 0 16.17636 0"/>
<path transform="matrix(-1.00002,-0,0,1.00009,69.58173,275.37663)" stroke-width=".79701" stroke-linecap="round" stroke-linejoin="round" fill="none" stroke="#ff0000" d="M-1.73352 2.31136C-1.58905 1.4446 0 .14444 .43336 0 0-.14444-1.58905-1.4446-1.73352-2.31136"/>
<path transform="matrix(1.00002,0,0,-1.00009,84.9265,275.37663)" stroke-width=".79701" stroke-linecap="round" stroke-linejoin="round" fill="none" stroke="#ff0000" d="M-1.73352 2.31136C-1.58905 1.4446 0 .14444 .43336 0 0-.14444-1.58905-1.4446-1.73352-2.31136"/>
<use data-text="u" xlink:href="#font_4_2" transform="matrix(9.962799,0,0,-9.963496,88.24921,277.83985)"/>
<use data-text="=" xlink:href="#font_5_3" transform="matrix(9.962799,0,0,-9.963496,96.719379,277.83985)"/>
<use data-text="0" xlink:href="#font_5_1" transform="matrix(9.962799,0,0,-9.963496,107.22017,277.83985)"/>
<path transform="matrix(1.00002,0,0,-1.00009,114.70773,275.37663)" stroke-width=".99628" stroke-linecap="butt" stroke-dasharray="2.98883,1.99255,.99628,1.99255" stroke-miterlimit="10" stroke-linejoin="miter" fill="none" stroke="#ff0000" d="M.8319 0C6.14426 0 6.14426 0 8.50412 0 10.86398 0 17.00826 0 16.17636 0"/>
<path transform="matrix(-1.00002,-0,0,1.00009,115.53965,275.37663)" stroke-width=".79701" stroke-linecap="round" stroke-linejoin="round" fill="none" stroke="#ff0000" d="M-1.73352 2.31136C-1.58905 1.4446 0 .14444 .43336 0 0-.14444-1.58905-1.4446-1.73352-2.31136"/>
<path transform="matrix(1.00002,0,0,-1.00009,130.88442,275.37663)" stroke-width=".79701" stroke-linecap="round" stroke-linejoin="round" fill="none" stroke="#ff0000" d="M-1.73352 2.31136C-1.58905 1.4446 0 .14444 .43336 0 0-.14444-1.58905-1.4446-1.73352-2.31136"/>
<use data-text="u" xlink:href="#font_4_2" transform="matrix(9.962799,0,0,-9.963496,134.20714,277.83985)"/>
<use data-text="=" xlink:href="#font_5_3" transform="matrix(9.962799,0,0,-9.963496,142.6783,277.83985)"/>
<use data-text="2" xlink:href="#font_5_2" transform="matrix(9.962799,0,0,-9.963496,153.1791,277.83985)"/>
<path transform="matrix(1.00002,0,0,-1.00009,68.74982,287.27668)" stroke-width=".99628" stroke-linecap="butt" stroke-miterlimit="10" stroke-linejoin="miter" fill="none" stroke="#000000" d="M.8319 0C6.14426 0 6.14426 0 8.50412 0 10.86398 0 17.00826 0 16.17636 0"/>
<path transform="matrix(-1.00002,-0,0,1.00009,69.58173,287.27668)" stroke-width=".79701" stroke-linecap="round" stroke-linejoin="round" fill="none" stroke="#000000" d="M-1.73352 2.31136C-1.58905 1.4446 0 .14444 .43336 0 0-.14444-1.58905-1.4446-1.73352-2.31136"/>
<path transform="matrix(1.00002,0,0,-1.00009,84.9265,287.27668)" stroke-width=".79701" stroke-linecap="round" stroke-linejoin="round" fill="none" stroke="#000000" d="M-1.73352 2.31136C-1.58905 1.4446 0 .14444 .43336 0 0-.14444-1.58905-1.4446-1.73352-2.31136"/>
<use data-text="v" xlink:href="#font_4_3" transform="matrix(9.962799,0,0,-9.963496,88.24921,289.7399)"/>
<use data-text="=" xlink:href="#font_5_3" transform="matrix(9.962799,0,0,-9.963496,96.20337,289.7399)"/>
<use data-text="0" xlink:href="#font_5_1" transform="matrix(9.962799,0,0,-9.963496,106.70416,289.7399)"/>
<path transform="matrix(1.00002,0,0,-1.00009,114.70773,287.27668)" stroke-width=".99628" stroke-linecap="butt" stroke-dasharray="2.98883,1.99255,.99628,1.99255" stroke-miterlimit="10" stroke-linejoin="miter" fill="none" stroke="#000000" d="M.8319 0C6.14426 0 6.14426 0 8.50412 0 10.86398 0 17.00826 0 16.17636 0"/>
<path transform="matrix(-1.00002,-0,0,1.00009,115.53965,287.27668)" stroke-width=".79701" stroke-linecap="round" stroke-linejoin="round" fill="none" stroke="#000000" d="M-1.73352 2.31136C-1.58905 1.4446 0 .14444 .43336 0 0-.14444-1.58905-1.4446-1.73352-2.31136"/>
<path transform="matrix(1.00002,0,0,-1.00009,130.88442,287.27668)" stroke-width=".79701" stroke-linecap="round" stroke-linejoin="round" fill="none" stroke="#000000" d="M-1.73352 2.31136C-1.58905 1.4446 0 .14444 .43336 0 0-.14444-1.58905-1.4446-1.73352-2.31136"/>
<use data-text="v" xlink:href="#font_4_3" transform="matrix(9.962799,0,0,-9.963496,134.20714,289.7399)"/>
<use data-text="=" xlink:href="#font_5_3" transform="matrix(9.962799,0,0,-9.963496,142.16129,289.7399)"/>
<use data-text="2" xlink:href="#font_5_2" transform="matrix(9.962799,0,0,-9.963496,152.66208,289.7399)"/>
</svg>
