<svg xmlns="http://www.w3.org/2000/svg" xmlns:xlink="http://www.w3.org/1999/xlink" version="1.1" width="224" height="288" viewBox="0 0 224 288">
<defs>
<path id="font_1_1" d="M.69898989 .22743225C.71499636 .22743225 .7369995 .22743225 .7369995 .25042726 .7369995 .2734375 .71499636 .2734375 .69898989 .2734375H.12599182C.10998535 .2734375 .08799744 .2734375 .08799744 .25042726 .08799744 .22743225 .10998535 .22743225 .12599182 .22743225H.69898989Z"/>
<path id="font_2_2" d="M.28199769 .20405579C.2979889 .21907044 .33999635 .2520752 .35598756 .26608277 .41799928 .32312013 .47698976 .3781433 .47698976 .46917726 .47698976 .588089 .3769989 .66503909 .2519989 .66503909 .13198853 .66503909 .052993776 .57411196 .052993776 .48516847 .052993776 .4361725 .09199524 .4291687 .10598755 .4291687 .1269989 .4291687 .1579895 .4441681 .1579895 .48217774 .1579895 .5341797 .10798645 .5341797 .09599304 .5341797 .125 .6070709 .19198609 .6320343 .24099732 .6320343 .33399964 .6320343 .38198854 .55314639 .38198854 .46917726 .38198854 .36514283 .30899049 .28910829 .19099427 .16804505L.06498718 .037994386C.052993776 .026992798 .052993776 .024993897 .052993776 0H.44799806L.47698976 .17904663H.44599916C.44299317 .1590271 .43499757 .10900879 .4229889 .08999634 .4169922 .08198547 .34098817 .08198547 .32499696 .08198547H.14698792L.28199769 .20405579Z"/>
<path id="font_2_1" d="M.31399537 .63708499C.31399537 .664032 .31199647 .66503909 .2849884 .66503909 .24398804 .6251831 .19099427 .6013489 .09599304 .6013489V.5683594C.12298584 .5683594 .1769867 .5683594 .23498535 .5953522V.08203125C.23498535 .04499817 .23199463 .032989503 .13699341 .032989503H.101989749V0C.14299011 .0029907227 .22898865 .0029907227 .27398683 .0029907227 .31900025 .0029907227 .4059906 .0029907227 .44699098 0V.032989503H.4119873C.31698609 .032989503 .31399537 .04499817 .31399537 .08203125V.63708499Z"/>
<path id="font_2_3" d="M.25299073 .33370973C.33198548 .33370973 .38198854 .27557374 .38198854 .17037964 .38198854 .045440675 .31098939 .008514404 .2579956 .008514404 .20298767 .008514404 .12799073 .0284729 .09298706 .08137512 .1289978 .08137512 .1539917 .10437012 .1539917 .13737488 .1539917 .16937256 .1309967 .19238281 .09899902 .19238281 .07199097 .19238281 .04399109 .17536927 .04399109 .13537598 .04399109 .04045105 .1459961-.021484375 .2599945-.021484375 .3929901-.021484375 .48599244 .070388797 .48599244 .17037964 .48599244 .25352479 .41999818 .32969667 .31799317 .3517456 .39698792 .37982179 .45599366 .4479828 .45599366 .52804568 .45599366 .6080475 .3659973 .66503909 .2619934 .66503909 .15499878 .66503909 .07398987 .6070404 .07398987 .53105166 .07398987 .49404908 .09899902 .4780426 .125 .4780426 .1559906 .4780426 .17599488 .5000458 .17599488 .52905276 .17599488 .56604006 .14399719 .5800476 .12199402 .5810547 .1639862 .6360321 .24099732 .6390381 .25898744 .6390381 .2849884 .6390381 .36099244 .6310272 .36099244 .52804568 .36099244 .45799256 .33198548 .41589356 .31799317 .39985658 .28799439 .36878968 .2649994 .36679078 .20399475 .3627777 .18499756 .36177064 .1769867 .36076356 .1769867 .3477478 .1769867 .33370973 .18598938 .33370973 .20298767 .33370973H.25299073Z"/>
<path id="font_2_4" d="M.3939972 .6468048C.3939972 .6667938 .3939972 .6748047 .37298585 .6748047 .3600006 .6748047 .35899354 .6737976 .34899903 .65979006L.02999878 .197052V.1640625H.31199647V.08100891C.31199647 .04399109 .30899049 .032989503 .23199463 .032989503H.20899964V0C.2939911 .0029907227 .29599 .0029907227 .35299684 .0029907227 .4099884 .0029907227 .4119873 .0029907227 .49699403 0V.032989503H.47399903C.39698792 .032989503 .3939972 .04399109 .3939972 .08100891V.1640625H.5V.197052H.3939972V.6468048M.31900025 .5658417V.197052H.06498718L.31900025 .5658417Z"/>
<clipPath id="clip_3">
<path transform="matrix(1.00005,0,0,-1.00005,29.866532,227.90473)" d="M0 0H164.97794V206.22243H0Z"/>
</clipPath>
<path id="font_4_3" d="M.33399964 .30233766C.33999635 .32835389 .36299134 .42037965 .43299867 .42037965 .43798829 .42037965 .46199037 .42037965 .48298646 .40734864 .45498658 .402359 .43499757 .37734986 .43499757 .35334779 .43499757 .33735658 .44599916 .31835938 .47299195 .31835938 .49499513 .31835938 .5269928 .3363495 .5269928 .37635804 .5269928 .42837525 .46798707 .4423828 .43399049 .4423828 .37599183 .4423828 .34098817 .38935853 .32899476 .36634828 .3039856 .43237306 .25 .4423828 .22099304 .4423828 .116989139 .4423828 .05999756 .3133545 .05999756 .28834535 .05999756 .27833558 .069992069 .27833558 .07199097 .27833558 .07998657 .27833558 .08299255 .28033448 .084991458 .28933717 .11898804 .39535523 .18499756 .42037965 .21899414 .42037965 .23799134 .42037965 .272995 .4113617 .272995 .35334779 .272995 .32235719 .2559967 .25532533 .21899414 .11528015 .20298767 .053268434 .16799927 .011245728 .12399292 .011245728 .117996219 .011245728 .09498596 .011245728 .07398987 .024276734 .09899902 .029266358 .12098694 .05027771 .12098694 .07827759 .12098694 .105270389 .09899902 .11328125 .083999637 .11328125 .053985597 .11328125 .0289917 .08728027 .0289917 .055267335 .0289917 .009246826 .07899475-.0107421879 .12298584-.0107421879 .18899536-.0107421879 .22499085 .059280397 .22799683 .0652771 .23999024 .028274537 .27598573-.0107421879 .33599855-.0107421879 .43899537-.0107421879 .49598695 .118270877 .49598695 .14328003 .49598695 .1532898 .4869995 .1532898 .48399354 .1532898 .47499085 .1532898 .47299195 .14929199 .47099305 .14228821 .43798829 .03527832 .36999513 .011245728 .33799745 .011245728 .29899598 .011245728 .2829895 .043273927 .2829895 .07727051 .2829895 .09927368 .2889862 .121276859 .2999878 .16529846L.33399964 .30233766Z"/>
<path id="font_4_4" d="M.48599244 .38136292C.48999024 .39537049 .48999024 .39736939 .48999024 .40437318 .48999024 .42237855 .47599793 .43138124 .46099855 .43138124 .45098878 .43138124 .43499757 .42536927 .42599488 .41036988 .42399598 .405365 .41600038 .37435914 .4119873 .35635377 .40499879 .33035279 .397995 .30334474 .3919983 .27633668L.34700013 .09628296C.34298707 .08126831 .2999878 .011245728 .23399353 .011245728 .18299866 .011245728 .17199707 .055267335 .17199707 .0922699 .17199707 .1382904 .18899536 .20030213 .22299195 .28833009 .23899842 .3293457 .24299622 .3403473 .24299622 .36035157 .24299622 .405365 .21099854 .4423828 .16099549 .4423828 .06599426 .4423828 .0289917 .29733277 .0289917 .28833009 .0289917 .27833558 .038986207 .27833558 .040985109 .27833558 .050994874 .27833558 .051986696 .28033448 .056991579 .29634095 .083999637 .3903656 .12399292 .42037965 .1579895 .42037965 .1659851 .42037965 .18299866 .42037965 .18299866 .3883667 .18299866 .36335755 .17298889 .3373413 .1659851 .31834413 .12599182 .21231079 .10798645 .1552887 .10798645 .10827637 .10798645 .019256592 .17098999-.0107421879 .22999573-.0107421879 .2689972-.0107421879 .30299378 .0062561037 .33099366 .03425598 .31799317-.017745972 .30599977-.06674194 .2659912-.11973572 .23999024-.15385437 .20199585-.18309021 .1559906-.18309021 .14199829-.18309021 .09700012-.18005371 .07998657-.14074707 .09599304-.14074707 .10899353-.14074707 .12298584-.1287384 .1329956-.11973572 .14299011-.10673523 .14299011-.08773804 .14299011-.056747438 .115997318-.052734376 .10598755-.052734376 .08299255-.052734376 .049987794-.068740848 .049987794-.11773682 .049987794-.16796875 .09399414-.20507813 .1559906-.20507813 .25898744-.20507813 .3619995-.11373901 .3899994-.00074768069L.48599244 .38136292Z"/>
<path id="font_4_2" d="M.18699646 .23144531C.21598816 .23144531 .2899933 .23344422 .33999635 .2544403 .4099884 .28442384 .4149933 .34339906 .4149933 .35740663 .4149933 .40138246 .3769989 .4423828 .30799867 .4423828 .19699097 .4423828 .04598999 .34539796 .04598999 .17037964 .04598999 .06829834 .10499573-.0107421879 .20298767-.0107421879 .34599305-.0107421879 .42999269 .095321658 .42999269 .10733032 .42999269 .113342288 .42399598 .12034607 .41799928 .12034607 .41299439 .12034607 .41099549 .11834717 .40499879 .1103363 .32598878 .011245728 .21699524 .011245728 .20498657 .011245728 .1269989 .011245728 .117996219 .095321658 .117996219 .12734986 .117996219 .13935852 .11898804 .17037964 .13398743 .23144531H.18699646M.13999939 .25343324C.1789856 .40538026 .28199769 .42037965 .30799867 .42037965 .35499574 .42037965 .38198854 .39138795 .38198854 .35740663 .38198854 .25343324 .22200012 .25343324 .18099976 .25343324H.13999939Z"/>
<path id="font_5_1" d="M.24899292 .10601807C.23899842 .072021488 .20599365 .018234253 .15499878 .018234253 .1519928 .018234253 .12199402 .018234253 .100997928 .03215027 .14199829 .04508972 .14498902 .08100891 .14498902 .087020877 .14498902 .10900879 .12799073 .12402344 .10499573 .12402344 .07699585 .12402344 .04798889 .10002136 .04798889 .0630188 .04798889 .01322937 .10398865-.009765625 .15299988-.009765625 .19898987-.009765625 .23999024 .019226075 .2649994 .061019899 .2889862 .008224487 .34399415-.009765625 .38398744-.009765625 .49899293-.009765625 .55999758 .11502075 .55999758 .14305115 .55999758 .15608216 .5469971 .15608216 .5439911 .15608216 .5299988 .15608216 .5289917 .15107727 .5249939 .13905335 .5039978 .07002258 .44400025 .018234253 .3880005 .018234253 .34799195 .018234253 .32699586 .04508972 .32699586 .08302307 .32699586 .10900879 .35099793 .20018006 .3789978 .31140138 .39898683 .38841249 .44400025 .4133911 .47698976 .4133911 .47898866 .4133911 .5099945 .4133911 .5309906 .39941407 .49899293 .39041139 .4869995 .3624115 .4869995 .34440614 .4869995 .32240296 .5039978 .30740357 .5269928 .30740357 .5499878 .30740357 .58299258 .32640077 .58299258 .3684082 .58299258 .4243927 .5189972 .44140626 .47898866 .44140626 .42900086 .44140626 .3889923 .4084015 .36698915 .3704071 .34899903 .4113922 .30299378 .44140626 .24699402 .44140626 .1349945 .44140626 .070999149 .31840516 .070999149 .2883606 .070999149 .27534486 .084991458 .27534486 .08799744 .27534486 .100997928 .27534486 .101989749 .27934266 .10699463 .29237367 .13198853 .3704071 .19499207 .4133911 .24398804 .4133911 .2769928 .4133911 .3039856 .395401 .3039856 .3474121 .3039856 .32740785 .2919922 .27734376 .2829895 .24327088L.24899292 .10601807Z"/>
<path id="font_4_1" d="M.4269867 .6066284C.43399049 .63461306 .43798829 .64060977 .44999696 .6436157 .45899964 .6456146 .49198915 .6456146 .5130005 .6456146 .6139984 .6456146 .6589966 .6416168 .6589966 .56365969 .6589966 .54867556 .6549988 .50968936 .651001 .4837036 .6499939 .4797058 .647995 .4677124 .647995 .46472169 .647995 .45872499 .651001 .45173646 .6599884 .45173646 .67099 .45173646 .6729889 .45973207 .6749878 .4747162L.70199587 .64860537C.7029877 .65260317 .70399478 .6626129 .70399478 .66560366 .70399478 .6766052 .69400027 .6766052 .6769867 .6766052H.12199402C.09799194 .6766052 .09700012 .6756134 .08999634 .6566162L.02999878 .4807129C.0289917 .478714 .023986817 .46472169 .023986817 .46272279 .023986817 .45672608 .0289917 .45173646 .035995485 .45173646 .04598999 .45173646 .04699707 .45672608 .052993776 .4727173 .10699463 .6276245 .1329956 .6456146 .2809906 .6456146H.31999208C.34799195 .6456146 .34799195 .6416168 .34799195 .6336212 .34799195 .6276245 .34498597 .6156311 .34399415 .6126251L.20999146 .07896423C.20098877 .041992189 .19799805 .0309906 .09098816 .0309906 .054992677 .0309906 .04899597 .0309906 .04899597 .011993408 .04899597 0 .05999756 0 .06599426 0 .09298706 0 .12098694 .0019989014 .147995 .0019989014 .17599488 .0019989014 .20498657 .0029907227 .23298645 .0029907227 .26098634 .0029907227 .2889862 .0019989014 .31599427 .0019989014 .34498597 .0019989014 .375 0 .40299989 0 .41299439 0 .4249878 0 .4249878 .019989014 .4249878 .0309906 .4169922 .0309906 .3909912 .0309906 .3659973 .0309906 .35299684 .0309906 .32699586 .032989503 .2979889 .035995485 .2899933 .038986207 .2899933 .054977418 .2899933 .05596924 .2899933 .06097412 .2939911 .07595825L.4269867 .6066284Z"/>
<path id="font_6_1" d="M.5159912 .31925965C.5159912 .42918397 .5029907 .50813296 .45700074 .5780945 .42599488 .62405398 .3639984 .6640625 .28399659 .6640625 .051986696 .6640625 .051986696 .39120484 .051986696 .31925965 .051986696 .2472992 .051986696-.01953125 .28399659-.01953125 .5159912-.01953125 .5159912 .2472992 .5159912 .31925965M.28399659 .008468628C.23799134 .008468628 .1769867 .035446168 .15699768 .117385867 .14299011 .17634583 .14299011 .25830079 .14299011 .33224488 .14299011 .40519715 .14299011 .4811554 .1579895 .53611758 .1789856 .6150665 .24299622 .63604739 .28399659 .63604739 .33799745 .63604739 .3899994 .6030731 .4079895 .545105 .42399598 .4911499 .4249878 .41918946 .4249878 .33224488 .4249878 .25830079 .4249878 .18434143 .4119873 .12138367 .3919983 .030441285 .32398988 .008468628 .28399659 .008468628Z"/>
<path id="font_7_1" d="M.33099366-.2400055C.33099366-.23701477 .33099366-.23500061 .31399537-.21800232 .18899536-.0920105 .15699768 .09700012 .15699768 .25 .15699768 .42399598 .19499207 .59799197 .31799317 .72299197 .33099366 .73498538 .33099366 .7369995 .33099366 .73999026 .33099366 .746994 .32699586 .75 .32099916 .75 .31098939 .75 .22099304 .6819916 .1619873 .5549927 .11099243 .44499208 .09899902 .33399964 .09899902 .25 .09899902 .17199707 .10998535 .050994874 .16499329-.06201172 .22499085-.18501282 .31098939-.25 .32099916-.25 .32699586-.25 .33099366-.24700928 .33099366-.2400055Z"/>
<path id="font_7_2" d="M.2889862 .25C.2889862 .32798768 .27799989 .44898988 .22299195 .56199648 .16299439 .68499758 .07699585 .75 .066986087 .75 .06098938 .75 .056991579 .74598696 .056991579 .73999026 .056991579 .7369995 .056991579 .73498538 .07598877 .71699526 .17399597 .6179962 .23098755 .45899964 .23098755 .25 .23098755 .07899475 .19400025-.09700012 .069992069-.2230072 .056991579-.23500061 .056991579-.23701477 .056991579-.2400055 .056991579-.2460022 .06098938-.25 .066986087-.25 .07699585-.25 .16699219-.18200684 .22599793-.055007936 .2769928 .054992677 .2889862 .16600037 .2889862 .25Z"/>
<path id="font_6_2" d="M.33499146 .63612368C.33499146 .6630554 .33299256 .6640625 .30499269 .6640625 .24099732 .6014404 .1499939 .6004486 .10899353 .6004486V.5644531C.1329956 .5644531 .19898987 .5644531 .2539978 .592453V.08203125C.2539978 .04899597 .2539978 .035995485 .1539917 .035995485H.115997318V0C.13398743 .0009918213 .25698854 .0039978029 .2939911 .0039978029 .32499696 .0039978029 .45098878 .0009918213 .47299195 0V.035995485H.43499757C.33499146 .035995485 .33499146 .04899597 .33499146 .08203125V.63612368Z"/>
<path id="font_6_3" d="M.5049896 .18203736H.47099305C.46798707 .16001892 .45799256 .100997928 .44499208 .09098816 .43699647 .084991458 .3600006 .084991458 .34599305 .084991458H.1619873C.2669983 .17803955 .3019867 .20603943 .3619995 .25306703 .43598939 .312088 .5049896 .374115 .5049896 .46914674 .5049896 .5900879 .39898683 .6640625 .2709961 .6640625 .14698792 .6640625 .06298828 .57710269 .06298828 .4851532 .06298828 .43414308 .10598755 .42915345 .115997318 .42915345 .13999939 .42915345 .16899109 .44615174 .16899109 .48214723 .16899109 .5001526 .1619873 .53515627 .10998535 .53515627 .14099121 .6060791 .20899964 .62805178 .2559967 .62805178 .35598756 .62805178 .4079895 .5501404 .4079895 .46914674 .4079895 .38212586 .34599305 .3130951 .31399537 .27708436L.07299805 .038986207C.06298828 .02999878 .06298828 .027999878 .06298828 0H.47499085L.5049896 .18203736Z"/>
<path id="font_6_4" d="M.272995 .33428956C.35099793 .33428956 .40699769 .2803192 .40699769 .1733551 .40699769 .04940796 .33499146 .012466431 .2769928 .012466431 .23699951 .012466431 .14898682 .0234375 .10699463 .082351688 .1539917 .084350589 .16499329 .11735535 .16499329 .13835144 .16499329 .17034912 .14099121 .19335938 .10998535 .19335938 .08198547 .19335938 .053985597 .17634583 .053985597 .13534546 .053985597 .041412355 .1579895-.01953125 .2789917-.01953125 .41799928-.01953125 .5139923 .07336426 .5139923 .1733551 .5139923 .2513275 .44999696 .32929994 .33999635 .35229493 .44499208 .39024354 .48298646 .4650879 .48298646 .5260773 .48298646 .60505679 .3919983 .6640625 .2809906 .6640625 .16999817 .6640625 .084991458 .61006167 .084991458 .5300751 .084991458 .49606324 .10699463 .47706605 .13699341 .47706605 .16799927 .47706605 .18798828 .5000763 .18798828 .5280762 .18798828 .5570679 .16799927 .57806399 .13699341 .5800781 .17199707 .62405398 .24099732 .63505557 .27799989 .63505557 .32299806 .63505557 .38598634 .6130676 .38598634 .5260773 .38598634 .48406983 .37199403 .43814088 .34599305 .4072113 .31298829 .36927796 .2849884 .3672943 .23498535 .36428834 .20999146 .3623047 .20799256 .3623047 .20298767 .3612976 .20098877 .3612976 .19299317 .3592987 .19299317 .34829713 .19299317 .33428956 .20199585 .33428956 .21899414 .33428956H.272995Z"/>
</defs>
<path transform="matrix(1.00005,0,0,-1.00005,29.866532,227.90473)" stroke-width=".09962" stroke-linecap="butt" stroke-miterlimit="10" stroke-linejoin="miter" fill="none" stroke="#e0e0e0" d="M20.62224 0V206.22243M61.86673 0V206.22243M103.1112 0V206.22243M144.3557 0V206.22243"/>
<path transform="matrix(1.00005,0,0,-1.00005,29.866532,227.90473)" stroke-width=".19925" stroke-linecap="butt" stroke-miterlimit="10" stroke-linejoin="miter" fill="none" stroke="#c0c0c0" d="M0 0V206.22243M41.24448 0V206.22243M123.73346 0V206.22243M164.97794 0V206.22243"/>
<path transform="matrix(1.00005,0,0,-1.00005,29.866532,227.90473)" stroke-width=".09962" stroke-linecap="butt" stroke-miterlimit="10" stroke-linejoin="miter" fill="none" stroke="#e0e0e0" d="M0 20.62224H164.97794M0 61.86673H164.97794M0 103.1112H164.97794M0 144.3557H164.97794M0 185.60019H164.97794"/>
<path transform="matrix(1.00005,0,0,-1.00005,29.866532,227.90473)" stroke-width=".19925" stroke-linecap="butt" stroke-miterlimit="10" stroke-linejoin="miter" fill="none" stroke="#c0c0c0" d="M0 0H164.97794M0 82.48897H164.97794M0 123.73346H164.97794M0 164.97794H164.97794M0 206.22243H164.97794"/>
<path transform="matrix(1.00005,0,0,-1.00005,29.866532,227.90473)" stroke-width=".19925" stroke-linecap="butt" stroke-miterlimit="10" stroke-linejoin="miter" fill="none" stroke="#929292" d="M20.62224 39.82703V42.66193M61.86673 39.82703V42.66193M103.1112 39.82703V42.66193M144.3557 39.82703V42.66193"/>
<path transform="matrix(1.00005,0,0,-1.00005,29.866532,227.90473)" stroke-width=".19925" stroke-linecap="butt" stroke-miterlimit="10" stroke-linejoin="miter" fill="none" stroke="#929292" d="M0 39.11852V43.37044M41.24448 39.11852V43.37044M123.73346 39.11852V43.37044M164.97794 39.11852V43.37044"/>
<path transform="matrix(1.00005,0,0,-1.00005,29.866532,227.90473)" stroke-width=".19925" stroke-linecap="butt" stroke-miterlimit="10" stroke-linejoin="miter" fill="none" stroke="#929292" d="M81.07152 20.62224H83.90642M81.07152 61.86673H83.90642M81.07152 103.1112H83.90642M81.07152 144.3557H83.90642M81.07152 185.60019H83.90642"/>
<path transform="matrix(1.00005,0,0,-1.00005,29.866532,227.90473)" stroke-width=".19925" stroke-linecap="butt" stroke-miterlimit="10" stroke-linejoin="miter" fill="none" stroke="#929292" d="M80.363 0H84.61491M80.363 82.48897H84.61491M80.363 123.73346H84.61491M80.363 164.97794H84.61491M80.363 206.22243H84.61491"/>
<path transform="matrix(1.00005,0,0,-1.00005,29.866532,227.90473)" stroke-width=".3985" stroke-linecap="butt" stroke-miterlimit="10" stroke-linejoin="miter" fill="none" stroke="#000000" d="M-6.37622 41.24448H171.35417"/>
<path transform="matrix(-1.00005,-0,0,1.00005,23.489993,186.65819)" d="M3.58653 0C2.52383 .19925 .797 .797-.3985 1.49438V-1.49438C.797-.797 2.52383-.19925 3.58653 0"/>
<path transform="matrix(1.00005,0,0,-1.00005,201.22927,186.65819)" d="M3.58653 0C2.52383 .19925 .797 .797-.3985 1.49438V-1.49438C.797-.797 2.52383-.19925 3.58653 0"/>
<path transform="matrix(1.00005,0,0,-1.00005,29.866532,227.90473)" stroke-width=".3985" stroke-linecap="butt" stroke-miterlimit="10" stroke-linejoin="miter" fill="none" stroke="#000000" d="M82.48897-6.37622V212.59867"/>
<path transform="matrix(0,1.00005,1.00005,0,112.35962,234.28127)" d="M3.58653 0C2.52383 .19925 .797 .797-.3985 1.49438V-1.49438C.797-.797 2.52383-.19925 3.58653 0"/>
<path transform="matrix(0,-1.00005,-1.00005,-0,112.35962,15.295441)" d="M3.58653 0C2.52383 .19925 .797 .797-.3985 1.49438V-1.49438C.797-.797 2.52383-.19925 3.58653 0"/>
<use data-text="&#x2212;" xlink:href="#font_1_1" transform="matrix(7.970498,0,0,-7.970498,24.45626,197.4412)"/>
<use data-text="2" xlink:href="#font_2_2" transform="matrix(7.970498,0,0,-7.970498,31.043602,197.4412)"/>
<use data-text="&#x2212;" xlink:href="#font_1_1" transform="matrix(7.970498,0,0,-7.970498,65.70232,197.4412)"/>
<use data-text="1" xlink:href="#font_2_1" transform="matrix(7.970498,0,0,-7.970498,72.28966,197.4412)"/>
<use data-text="1" xlink:href="#font_2_1" transform="matrix(7.970498,0,0,-7.970498,151.4886,197.4412)"/>
<use data-text="2" xlink:href="#font_2_2" transform="matrix(7.970498,0,0,-7.970498,192.73566,197.4412)"/>
<use data-text="&#x2212;" xlink:href="#font_1_1" transform="matrix(7.970498,0,0,-7.970498,95.89183,230.05783)"/>
<use data-text="1" xlink:href="#font_2_1" transform="matrix(7.970498,0,0,-7.970498,102.47917,230.05783)"/>
<use data-text="1" xlink:href="#font_2_1" transform="matrix(7.970498,0,0,-7.970498,102.47916,147.97974)"/>
<use data-text="2" xlink:href="#font_2_2" transform="matrix(7.970498,0,0,-7.970498,102.47916,106.73367)"/>
<use data-text="3" xlink:href="#font_2_3" transform="matrix(7.970498,0,0,-7.970498,102.47916,65.4866)"/>
<use data-text="4" xlink:href="#font_2_4" transform="matrix(7.970498,0,0,-7.970498,102.47916,24.24054)"/>
<g clip-path="url(#clip_3)">
<path transform="matrix(1.00005,0,0,-1.00005,29.866532,227.90473)" stroke-width=".99628" stroke-linecap="butt" stroke-miterlimit="10" stroke-linejoin="miter" fill="none" stroke="#e41a1c" d="M0 46.82608C0 46.82608 1.204 46.99184 1.66641 47.05707 2.12885 47.1223 2.87042 47.22878 3.33286 47.29628 3.79529 47.3638 4.53687 47.47336 4.9993 47.54373 5.46173 47.61412 6.20331 47.72977 6.66574 47.80359 7.12817 47.87741 7.86975 47.99905 8.33218 48.07579 8.79462 48.15253 9.53618 48.27715 9.99861 48.35667 10.46103 48.43622 11.20262 48.56612 11.66505 48.6491 12.12747 48.73206 12.86906 48.86826 13.33148 48.95471 13.79391 49.04117 14.5355 49.18188 14.99792 49.2723 15.46036 49.3627 16.20193 49.51253 16.66437 49.60637 17.1268 49.70021 17.86838 49.85143 18.33081 49.9487 18.79324 50.04599 19.5348 50.20563 19.99724 50.30754 20.45967 50.40945 21.20125 50.57736 21.66368 50.68327 22.12611 50.78918 22.86769 50.96053 23.33012 51.07097 23.79254 51.18141 24.53413 51.36421 24.99657 51.4793 25.45898 51.59436 26.20058 51.78139 26.663 51.90039 27.12543 52.01941 27.867 52.21301 28.32942 52.33719 28.79185 52.46135 29.53343 52.66545 29.99586 52.7954 30.4583 52.92534 31.19987 53.13873 31.66231 53.27383 32.12474 53.40894 32.86632 53.629 33.32875 53.7692 33.79118 53.90938 34.53276 54.13783 34.9952 54.28433 35.45763 54.43082 36.1992 54.67276 36.66164 54.82504 37.12405 54.97733 37.86563 55.22328 38.32806 55.38185 38.79048 55.54042 39.53207 55.80244 39.99449 55.96793 40.45692 56.13342 41.1985 56.40286 41.66093 56.57465 42.12337 56.74643 42.86494 57.02704 43.32738 57.20609 43.78981 57.38513 44.53139 57.67868 44.99382 57.86519 45.45625 58.05168 46.19783 58.35614 46.66026 58.55025 47.1227 58.74434 47.86426 59.06207 48.32669 59.26419 48.78911 59.4663 49.5307 59.797 49.99313 60.007 50.45555 60.21703 51.19714 60.5587 51.65956 60.77786 52.122 60.99704 52.86359 61.35823 53.326 61.58667 53.78844 61.81511 54.53001 62.18675 54.99245 62.42435 55.45488 62.66194 56.19644 63.05188 56.65887 63.29915 57.1213 63.5464 57.86288 63.94954 58.32532 64.20653 58.78775 64.46352 59.52933 64.88351 59.99176 65.15143 60.4542 65.41936 61.19577 65.85828 61.6582 66.13759 62.12062 66.41689 62.86221 66.87381 63.32465 67.16457 63.78706 67.45532 64.52866 67.93051 64.99107 68.23322 65.4535 68.53593 66.19508 69.0311 66.6575 69.3464 67.11993 69.66171 67.86151 70.1777 68.32394 70.50578 68.78638 70.83385 69.52795 71.3692 69.99039 71.71095 70.45282 72.05269 71.1944 72.61292 71.65683 72.96892 72.11926 73.3249 72.86084 73.9064 73.32327 74.27676 73.7857 74.64714 74.52727 75.2525 74.9897 75.63826 75.45212 76.024 76.19371 76.65529 76.65614 77.05705 77.11856 77.45883 77.86015 78.11559 78.32257 78.53403 78.785 78.95245 79.52658 79.63731 79.98901 80.07286 80.45145 80.50839 81.19302 81.22122 81.65546 81.67314 82.11789 82.12505 82.85947 82.85938 83.3219 83.32994 83.78433 83.8005 84.5259 84.57329 84.98833 85.06467 85.45076 85.55606 86.19234 86.35995 86.65477 86.87161 87.11719 87.38326 87.85878 88.21957 88.32121 88.75235 88.78363 89.28513 89.52522 90.15672 89.98764 90.71146 90.45007 91.26619 91.19167 92.17307 91.65408 92.7506 92.11652 93.32811 92.8581 94.27242 93.32053 94.87386 93.78296 95.47528 94.52452 96.45906 94.98695 97.08539 95.44939 97.71173 96.19096 98.73593 96.6534 99.38806 97.11583 100.04019 97.8574 101.10661 98.31984 101.7856 98.78227 102.46458 99.52385 103.57487 99.98628 104.28172 100.4487 104.98857 101.19029 106.14423 101.65273 106.88013 102.11514 107.61604 102.85672 108.81923 103.31914 109.58577 103.78157 110.3523 104.52316 111.6067 104.98558 112.40482 105.44801 113.20294 106.18959 114.50732 106.65202 115.33813 107.11446 116.16893 107.85603 117.52757 108.31847 118.3927 108.7809 119.25783 109.52248 120.6725 109.98491 121.57347 110.44734 122.47443 111.18892 123.94797 111.65135 124.88623 112.11378 125.82451 112.85535 127.35913 113.31778 128.33592 113.7802 129.3127 114.52179 130.90937 114.98422 131.92626 115.44664 132.94315 116.18823 134.60616 116.65065 135.66507 117.11308 136.72397 117.85466 138.45563 118.3171 139.55814 118.77953 140.66065 119.5211 142.4635 119.98354 143.61122 120.44597 144.75894 121.18753 146.63497 121.64996 147.83013 122.1124 149.02529 122.85397 150.98032 123.3164 152.22515 123.77884 153.46997 124.52042 155.50606 124.98285 156.80205 125.44527 158.09803 126.18686 160.21623 126.64929 161.56578 127.11171 162.91535 127.8533 165.12349 128.31572 166.52873 128.77816 167.93396 129.51975 170.23093 129.98217 171.69379 130.4446 173.15663 131.18616 175.54904 131.64859 177.07205 132.11103 178.59506 132.8526 181.08452 133.31504 182.67058 133.77747 184.25666 134.51905 186.85157 134.98148 188.50339 135.44391 190.1552 136.18549 192.85623 136.64792 194.5758 137.11035 196.29537 137.85193 199.1068 138.31436 200.89693 138.77678 202.68708 139.51837 205.61342 139.9808 207.4779 140.44322 209.34238 141.1848 212.39377 141.64722 214.3348 142.10965 216.27584 142.85124 219.4467 143.31366 221.46762 143.7761 223.48856 144.51767 226.79547 144.9801 228.90029 145.44254 231.00511 146.18412 234.44625 146.64655 236.63776 147.10898 238.82927 147.85056 242.41335 148.31299 244.69528 148.77542 246.97722 149.51699 250.70864 149.97942 253.08441 150.44185 255.46019 151.18343 259.3443 151.64586 261.81834 152.10828 264.2924 152.84987 268.33946 153.3123 270.91563 153.77472 273.49183 154.51631 277.70368 154.97873 280.3858 155.44116 283.0679 156.18274 287.4548 156.64517 290.24653 157.1076 293.0382 157.84918 297.59968 158.31162 300.5065 158.77405 303.41337 159.51561 308.16926 159.97805 311.19709 160.44048 314.2249 161.18206 319.17655 161.64449 322.32896 162.10692 325.48136 162.8485 330.6358 163.31093 333.91743 163.77335 337.19905 164.97737 345.9806 164.97737 345.9806"/>
<path transform="matrix(1.00005,0,0,-1.00005,29.866532,227.90473)" stroke-width=".99628" stroke-linecap="butt" stroke-dasharray="2.98883,2.98883" stroke-miterlimit="10" stroke-linejoin="miter" fill="none" stroke="#377eb8" d="M0 82.48897C0 82.48897 1.204 82.48897 1.66641 82.48897 2.12885 82.48897 2.87042 82.48897 3.33286 82.48897 3.79529 82.48897 4.53687 82.48897 4.9993 82.48897 5.46173 82.48897 6.20331 82.48897 6.66574 82.48897 7.12817 82.48897 7.86975 82.48897 8.33218 82.48897 8.79462 82.48897 9.53618 82.48897 9.99861 82.48897 10.46103 82.48897 11.20262 82.48897 11.66505 82.48897 12.12747 82.48897 12.86906 82.48897 13.33148 82.48897 13.79391 82.48897 14.5355 82.48897 14.99792 82.48897 15.46036 82.48897 16.20193 82.48897 16.66437 82.48897 17.1268 82.48897 17.86838 82.48897 18.33081 82.48897 18.79324 82.48897 19.5348 82.48897 19.99724 82.48897 20.45967 82.48897 21.20125 82.48897 21.66368 82.48897 22.12611 82.48897 22.86769 82.48897 23.33012 82.48897 23.79254 82.48897 24.53413 82.48897 24.99657 82.48897 25.45898 82.48897 26.20058 82.48897 26.663 82.48897 27.12543 82.48897 27.867 82.48897 28.32942 82.48897 28.79185 82.48897 29.53343 82.48897 29.99586 82.48897 30.4583 82.48897 31.19987 82.48897 31.66231 82.48897 32.12474 82.48897 32.86632 82.48897 33.32875 82.48897 33.79118 82.48897 34.53276 82.48897 34.9952 82.48897 35.45763 82.48897 36.1992 82.48897 36.66164 82.48897 37.12405 82.48897 37.86563 82.48897 38.32806 82.48897 38.79048 82.48897 39.53207 82.48897 39.99449 82.48897 40.45692 82.48897 41.1985 82.48897 41.66093 82.48897 42.12337 82.48897 42.86494 82.48897 43.32738 82.48897 43.78981 82.48897 44.53139 82.48897 44.99382 82.48897 45.45625 82.48897 46.19783 82.48897 46.66026 82.48897 47.1227 82.48897 47.86426 82.48897 48.32669 82.48897 48.78911 82.48897 49.5307 82.48897 49.99313 82.48897 50.45555 82.48897 51.19714 82.48897 51.65956 82.48897 52.122 82.48897 52.86359 82.48897 53.326 82.48897 53.78844 82.48897 54.53001 82.48897 54.99245 82.48897 55.45488 82.48897 56.19644 82.48897 56.65887 82.48897 57.1213 82.48897 57.86288 82.48897 58.32532 82.48897 58.78775 82.48897 59.52933 82.48897 59.99176 82.48897 60.4542 82.48897 61.19577 82.48897 61.6582 82.48897 62.12062 82.48897 62.86221 82.48897 63.32465 82.48897 63.78706 82.48897 64.52866 82.48897 64.99107 82.48897 65.4535 82.48897 66.19508 82.48897 66.6575 82.48897 67.11993 82.48897 67.86151 82.48897 68.32394 82.48897 68.78638 82.48897 69.52795 82.48897 69.99039 82.48897 70.45282 82.48897 71.1944 82.48897 71.65683 82.48897 72.11926 82.48897 72.86084 82.48897 73.32327 82.48897 73.7857 82.48897 74.52727 82.48897 74.9897 82.48897 75.45212 82.48897 76.19371 82.48897 76.65614 82.48897 77.11856 82.48897 77.86015 82.48897 78.32257 82.48897 78.785 82.48897 79.52658 82.48897 79.98901 82.48897 80.45145 82.48897 81.19302 82.48897 81.65546 82.48897 82.11789 82.48897 82.85947 82.48897 83.3219 82.48897 83.78433 82.48897 84.5259 82.48897 84.98833 82.48897 85.45076 82.48897 86.19234 82.48897 86.65477 82.48897 87.11719 82.48897 87.85878 82.48897 88.32121 82.48897 88.78363 82.48897 89.52522 82.48897 89.98764 82.48897 90.45007 82.48897 91.19167 82.48897 91.65408 82.48897 92.11652 82.48897 92.8581 82.48897 93.32053 82.48897 93.78296 82.48897 94.52452 82.48897 94.98695 82.48897 95.44939 82.48897 96.19096 82.48897 96.6534 82.48897 97.11583 82.48897 97.8574 82.48897 98.31984 82.48897 98.78227 82.48897 99.52385 82.48897 99.98628 82.48897 100.4487 82.48897 101.19029 82.48897 101.65273 82.48897 102.11514 82.48897 102.85672 82.48897 103.31914 82.48897 103.78157 82.48897 104.52316 82.48897 104.98558 82.48897 105.44801 82.48897 106.18959 82.48897 106.65202 82.48897 107.11446 82.48897 107.85603 82.48897 108.31847 82.48897 108.7809 82.48897 109.52248 82.48897 109.98491 82.48897 110.44734 82.48897 111.18892 82.48897 111.65135 82.48897 112.11378 82.48897 112.85535 82.48897 113.31778 82.48897 113.7802 82.48897 114.52179 82.48897 114.98422 82.48897 115.44664 82.48897 116.18823 82.48897 116.65065 82.48897 117.11308 82.48897 117.85466 82.48897 118.3171 82.48897 118.77953 82.48897 119.5211 82.48897 119.98354 82.48897 120.44597 82.48897 121.18753 82.48897 121.64996 82.48897 122.1124 82.48897 122.85397 82.48897 123.3164 82.48897 123.77884 82.48897 124.52042 82.48897 124.98285 82.48897 125.44527 82.48897 126.18686 82.48897 126.64929 82.48897 127.11171 82.48897 127.8533 82.48897 128.31572 82.48897 128.77816 82.48897 129.51975 82.48897 129.98217 82.48897 130.4446 82.48897 131.18616 82.48897 131.64859 82.48897 132.11103 82.48897 132.8526 82.48897 133.31504 82.48897 133.77747 82.48897 134.51905 82.48897 134.98148 82.48897 135.44391 82.48897 136.18549 82.48897 136.64792 82.48897 137.11035 82.48897 137.85193 82.48897 138.31436 82.48897 138.77678 82.48897 139.51837 82.48897 139.9808 82.48897 140.44322 82.48897 141.1848 82.48897 141.64722 82.48897 142.10965 82.48897 142.85124 82.48897 143.31366 82.48897 143.7761 82.48897 144.51767 82.48897 144.9801 82.48897 145.44254 82.48897 146.18412 82.48897 146.64655 82.48897 147.10898 82.48897 147.85056 82.48897 148.31299 82.48897 148.77542 82.48897 149.51699 82.48897 149.97942 82.48897 150.44185 82.48897 151.18343 82.48897 151.64586 82.48897 152.10828 82.48897 152.84987 82.48897 153.3123 82.48897 153.77472 82.48897 154.51631 82.48897 154.97873 82.48897 155.44116 82.48897 156.18274 82.48897 156.64517 82.48897 157.1076 82.48897 157.84918 82.48897 158.31162 82.48897 158.77405 82.48897 159.51561 82.48897 159.97805 82.48897 160.44048 82.48897 161.18206 82.48897 161.64449 82.48897 162.10692 82.48897 162.8485 82.48897 163.31093 82.48897 163.77335 82.48897 164.97737 82.48897 164.97737 82.48897"/>
<path transform="matrix(1.00005,0,0,-1.00005,29.866532,227.90473)" stroke-width=".99628" stroke-linecap="butt" stroke-dasharray=".99628,1.99255" stroke-miterlimit="10" stroke-linejoin="miter" fill="none" stroke="#4daf4a" d="M0 0C0 0 1.204 1.204 1.66641 1.66641 2.12885 2.12885 2.87042 2.87042 3.33286 3.33286 3.79529 3.79529 4.53687 4.53687 4.9993 4.9993 5.46173 5.46173 6.20331 6.20331 6.66574 6.66574 7.12817 7.12817 7.86975 7.86975 8.33218 8.33218 8.79462 8.79462 9.53618 9.53618 9.99861 9.99861 10.46103 10.46103 11.20262 11.20262 11.66505 11.66505 12.12747 12.12747 12.86906 12.86906 13.33148 13.33148 13.79391 13.79391 14.5355 14.5355 14.99792 14.99792 15.46036 15.46036 16.20193 16.20193 16.66437 16.66437 17.1268 17.1268 17.86838 17.86838 18.33081 18.33081 18.79324 18.79324 19.5348 19.5348 19.99724 19.99724 20.45967 20.45967 21.20125 21.20125 21.66368 21.66368 22.12611 22.12611 22.86769 22.86769 23.33012 23.33012 23.79254 23.79254 24.53413 24.53413 24.99657 24.99657 25.45898 25.45898 26.20058 26.20058 26.663 26.663 27.12543 27.12543 27.867 27.867 28.32942 28.32942 28.79185 28.79185 29.53343 29.53343 29.99586 29.99586 30.4583 30.4583 31.19987 31.19987 31.66231 31.66231 32.12474 32.12474 32.86632 32.86632 33.32875 33.32875 33.79118 33.79118 34.53276 34.53276 34.9952 34.9952 35.45763 35.45763 36.1992 36.1992 36.66164 36.66164 37.12405 37.12405 37.86563 37.86563 38.32806 38.32806 38.79048 38.79048 39.53207 39.53207 39.99449 39.99449 40.45692 40.45692 41.1985 41.1985 41.66093 41.66093 42.12337 42.12337 42.86494 42.86494 43.32738 43.32738 43.78981 43.78981 44.53139 44.53139 44.99382 44.99382 45.45625 45.45625 46.19783 46.19783 46.66026 46.66026 47.1227 47.1227 47.86426 47.86426 48.32669 48.32669 48.78911 48.78911 49.5307 49.5307 49.99313 49.99313 50.45555 50.45555 51.19714 51.19714 51.65956 51.65956 52.122 52.122 52.86359 52.86359 53.326 53.326 53.78844 53.78844 54.53001 54.53001 54.99245 54.99245 55.45488 55.45488 56.19644 56.19644 56.65887 56.65887 57.1213 57.1213 57.86288 57.86288 58.32532 58.32532 58.78775 58.78775 59.52933 59.52933 59.99176 59.99176 60.4542 60.4542 61.19577 61.19577 61.6582 61.6582 62.12062 62.12062 62.86221 62.86221 63.32465 63.32465 63.78706 63.78706 64.52866 64.52866 64.99107 64.99107 65.4535 65.4535 66.19508 66.19508 66.6575 66.6575 67.11993 67.11993 67.86151 67.86151 68.32394 68.32394 68.78638 68.78638 69.52795 69.52795 69.99039 69.99039 70.45282 70.45282 71.1944 71.1944 71.65683 71.65683 72.11926 72.11926 72.86084 72.86084 73.32327 73.32327 73.7857 73.7857 74.52727 74.52727 74.9897 74.9897 75.45212 75.45212 76.19371 76.19371 76.65614 76.65614 77.11856 77.11856 77.86015 77.86015 78.32257 78.32257 78.785 78.785 79.52658 79.52658 79.98901 79.98901 80.45145 80.45145 81.19302 81.19302 81.65546 81.65546 82.11789 82.11789 82.85947 82.85945 83.3219 83.32188 83.78433 83.78432 84.5259 84.5259 84.98833 84.98833 85.45076 85.45076 86.19234 86.19234 86.65477 86.65477 87.11719 87.11719 87.85878 87.85878 88.32121 88.32121 88.78363 88.78363 89.52522 89.5252 89.98764 89.98763 90.45007 90.45006 91.19167 91.19165 91.65408 91.65407 92.11652 92.1165 92.8581 92.85808 93.32053 93.32051 93.78296 93.78294 94.52452 94.52452 94.98695 94.98695 95.44939 95.44939 96.19096 96.19096 96.6534 96.6534 97.11583 97.11583 97.8574 97.8574 98.31984 98.31984 98.78227 98.78227 99.52385 99.52383 99.98628 99.98627 100.4487 100.44868 101.19029 101.19028 101.65273 101.65271 102.11514 102.11513 102.85672 102.85672 103.31914 103.31914 103.78157 103.78157 104.52316 104.52316 104.98558 104.98558 105.44801 105.44801 106.18959 106.18959 106.65202 106.65202 107.11446 107.11446 107.85603 107.85602 108.31847 108.31845 108.7809 108.78088 109.52248 109.52246 109.98491 109.9849 110.44734 110.44733 111.18892 111.1889 111.65135 111.65134 112.11378 112.11377 112.85535 112.85535 113.31778 113.31778 113.7802 113.7802 114.52179 114.52179 114.98422 114.98422 115.44664 115.44664 116.18823 116.18823 116.65065 116.65065 117.11308 117.11308 117.85466 117.85464 118.3171 118.31708 118.77953 118.77951 119.5211 119.52109 119.98354 119.98352 120.44597 120.44595 121.18753 121.18753 121.64996 121.64996 122.1124 122.1124 122.85397 122.85397 123.3164 123.3164 123.77884 123.77884 124.52042 124.52042 124.98285 124.98285 125.44527 125.44527 126.18686 126.18686 126.64929 126.64929 127.11171 127.11171 127.8533 127.8533 128.31572 128.31572 128.77816 128.77816 129.51975 129.51975 129.98217 129.98217 130.4446 130.4446 131.18616 131.18616 131.64859 131.64859 132.11103 132.11103 132.8526 132.8526 133.31504 133.31504 133.77747 133.77747 134.51905 134.51905 134.98148 134.98148 135.44391 135.44391 136.18549 136.18549 136.64792 136.64792 137.11035 137.11035 137.85193 137.85193 138.31436 138.31436 138.77678 138.77678 139.51837 139.51837 139.9808 139.9808 140.44322 140.44322 141.1848 141.1848 141.64722 141.64722 142.10965 142.10965 142.85124 142.85124 143.31366 143.31366 143.7761 143.7761 144.51767 144.51767 144.9801 144.9801 145.44254 145.44254 146.18412 146.18412 146.64655 146.64655 147.10898 147.10898 147.85056 147.85056 148.31299 148.31299 148.77542 148.77542 149.51699 149.51699 149.97942 149.97942 150.44185 150.44185 151.18343 151.18343 151.64586 151.64586 152.10828 152.10828 152.84987 152.84987 153.3123 153.3123 153.77472 153.77472 154.51631 154.51631 154.97873 154.97873 155.44116 155.44116 156.18274 156.18274 156.64517 156.64517 157.1076 157.1076 157.84918 157.84918 158.31162 158.31162 158.77405 158.77405 159.51561 159.51561 159.97805 159.97805 160.44048 160.44048 161.18206 161.18206 161.64449 161.64449 162.10692 162.10692 162.8485 162.8485 163.31093 163.31093 163.77335 163.77335 164.97737 164.97737 164.97737 164.97737"/>
<path transform="matrix(1.00005,0,0,-1.00005,29.866532,227.90473)" stroke-width=".99628" stroke-linecap="butt" stroke-dasharray="2.98883,1.99255,.3985,1.99255" stroke-miterlimit="10" stroke-linejoin="miter" fill="none" stroke="#984ea3" d="M0 82.48897C0 82.48897 1.204 81.29962 1.66641 80.85583 2.12885 80.41205 2.87042 79.71538 3.33286 79.29036 3.79529 78.86534 4.53687 78.1989 4.9993 77.79253 5.46173 77.38617 6.20331 76.7492 6.66574 76.3615 7.12817 75.97379 7.86975 75.36711 8.33218 74.99812 8.79462 74.62912 9.53618 74.0523 9.99861 73.70197 10.46103 73.35162 11.20262 72.80473 11.66505 72.47304 12.12747 72.14134 12.86906 71.62427 13.33148 71.31136 13.79391 70.99843 14.5355 70.5119 14.99792 70.2177 15.46036 69.9235 16.20193 69.46648 16.66437 69.19087 17.1268 68.91525 17.86838 68.48817 18.33081 68.23128 18.79324 67.97438 19.5348 67.57756 19.99724 67.33931 20.45967 67.10107 21.20125 66.73369 21.66368 66.51416 22.12611 66.29465 22.86769 65.9579 23.33012 65.7571 23.79254 65.55629 24.53413 65.24896 24.99657 65.06682 25.45898 64.88466 26.20058 64.60768 26.663 64.44418 27.12543 64.28069 27.867 64.03328 28.32942 63.88837 28.79185 63.74347 29.53343 63.52585 29.99586 63.39978 30.4583 63.27371 31.19987 63.08702 31.66231 62.97966 32.12474 62.8723 32.86632 62.71465 33.32875 62.62595 33.79118 62.53723 34.53276 62.41032 34.9952 62.34029 35.45763 62.27023 36.1992 62.17249 36.66164 62.12102 37.12405 62.06956 37.86563 62.00208 38.32806 61.96939 38.79048 61.9367 39.53207 61.89938 39.99449 61.88542 40.45692 61.87146 41.1985 61.86406 41.66093 61.86876 42.12337 61.87346 42.86494 61.89597 43.32738 61.91933 43.78981 61.94267 44.53139 61.99507 44.99382 62.03711 45.45625 62.07915 46.19783 62.16159 46.66026 62.2223 47.1227 62.283 47.86426 62.39531 48.32669 62.4747 48.78911 62.55408 49.5307 62.69646 49.99313 62.79454 50.45555 62.89262 51.19714 63.06494 51.65956 63.18172 52.122 63.29848 52.86359 63.50072 53.326 63.63617 53.78844 63.77162 54.53001 64.00381 54.99245 64.15794 55.45488 64.31209 56.19644 64.57426 56.65887 64.74709 57.1213 64.9199 57.86288 65.21205 58.32532 65.40356 58.78775 65.59508 59.52933 65.91724 59.99176 66.12741 60.4542 66.3376 61.19577 66.68965 61.6582 66.91852 62.12062 67.14738 62.86221 67.52943 63.32465 67.77698 63.78706 68.02452 64.52866 68.43651 64.99107 68.70274 65.4535 68.969 66.19508 69.41098 66.6575 69.6959 67.11993 69.98083 67.86151 70.45274 68.32394 70.75633 68.78638 71.05994 69.52795 71.56184 69.99039 71.88414 70.45282 72.20644 71.1944 72.73828 71.65683 73.07927 72.11926 73.42024 72.86084 73.98203 73.32327 74.34169 73.7857 74.70135 74.52727 75.29312 74.9897 75.67148 75.45212 76.04982 76.19371 76.67155 76.65614 77.06857 77.11856 77.4656 77.86015 78.11731 78.32257 78.53302 78.785 78.94873 79.52658 79.63039 79.98901 80.06479 80.45145 80.49918 81.19302 81.2108 81.65546 81.66388 82.11789 82.11696 82.85947 82.85852 83.3219 83.33029 83.78433 83.80205 84.5259 84.5736 84.98833 85.06404 85.45076 85.55449 86.19234 86.35602 86.65477 86.86514 87.11719 87.37428 87.85878 88.20575 88.32121 88.73357 88.78363 89.26137 89.52522 90.1228 89.98764 90.66931 90.45007 91.2158 91.19167 92.1072 91.65408 92.67238 92.11652 93.23756 92.8581 94.15894 93.32053 94.7428 93.78296 95.32666 94.52452 96.278 94.98695 96.88054 95.44939 97.4831 96.19096 98.46434 96.6534 99.08557 97.11583 99.7068 97.8574 100.71805 98.31984 101.35799 98.78227 101.99791 99.52385 103.03912 99.98628 103.69774 100.4487 104.35634 101.19029 105.42752 101.65273 106.1048 102.11514 106.78207 102.85672 107.88322 103.31914 108.57918 103.78157 109.27515 104.52316 110.40625 104.98558 111.12091 105.44801 111.83557 106.18959 112.99666 106.65202 113.73 107.11446 114.46332 107.85603 115.65428 108.31847 116.4063 108.7809 117.15831 109.52248 118.37933 109.98491 119.15004 110.44734 119.92075 111.18892 121.17166 111.65135 121.96106 112.11378 122.75044 112.85535 124.03143 113.31778 124.83951 113.7802 125.64758 114.52179 126.95842 114.98422 127.78517 115.44664 128.61194 116.18823 129.9528 116.65065 130.79824 117.11308 131.64368 117.85466 133.01451 118.3171 133.87863 118.77953 134.74275 119.5211 136.14347 119.98354 137.02628 120.44597 137.90909 121.18753 139.33985 121.64996 140.24134 122.1124 141.14282 122.85397 142.60346 123.3164 143.52364 123.77884 144.4438 124.52042 145.93457 124.98285 146.87335 125.44527 147.81215 126.18686 149.3323 126.64929 150.2898 127.11171 151.24727 127.8533 152.79798 128.31572 153.77429 128.77816 154.75061 129.51975 156.33152 129.98217 157.32642 130.4446 158.32134 131.18616 159.93134 131.64859 160.94496 132.11103 161.95859 132.8526 163.5997 133.31504 164.63198 133.77747 165.66425 134.51905 167.33405 134.98148 168.38498 135.44391 169.43592 136.18549 171.1368 136.64792 172.20644 137.11035 173.27608 137.85193 175.00598 138.31436 176.0943 138.77678 177.1826 139.51837 178.94319 139.9808 180.05022 140.44322 181.15724 141.1848 182.94724 141.64722 184.07295 142.10965 185.19867 142.85124 187.01935 143.31366 188.16374 143.7761 189.30814 144.51767 191.1579 144.9801 192.32094 145.44254 193.48398 146.18412 195.36443 146.64655 196.54619 147.10898 197.72795 147.85056 199.63779 148.31299 200.83826 148.77542 202.03873 149.51699 203.97919 149.97942 205.19837 150.44185 206.41754 151.18343 208.38758 151.64586 209.62529 152.10828 210.863 152.84987 212.86255 153.3123 214.11904 153.77472 215.37552 154.51631 217.40605 154.97873 218.68126 155.44116 219.95647 156.18274 222.01609 156.64517 223.30988 157.1076 224.60367 157.84918 226.69351 158.31162 228.00614 158.77405 229.31877 159.51561 231.43923 159.97805 232.77045 160.44048 234.10167 161.18206 236.25092 161.64449 237.60074 162.10692 238.95058 162.8485 241.13045 163.31093 242.4991 163.77335 243.86774 164.97737 247.46509 164.97737 247.46509"/>
<path transform="matrix(1.00005,0,0,-1.00005,29.866532,227.90473)" stroke-width=".99628" stroke-linecap="butt" stroke-dasharray="2.98883,1.99255,.3985,1.99255,.3985,1.99255" stroke-miterlimit="10" stroke-linejoin="miter" fill="none" stroke="#ff7f00" d="M0 27.49644C0 27.49644 1.204 28.68526 1.66641 29.12947 2.12885 29.5737 2.87042 30.27144 3.33286 30.69815 3.79529 31.12488 4.53687 31.79504 4.9993 32.20499 5.46173 32.61494 6.20331 33.25896 6.66574 33.65283 7.12817 34.04669 7.86975 34.66528 8.33218 35.04375 8.79462 35.42221 9.53618 36.01666 9.99861 36.38065 10.46103 36.74464 11.20262 37.31691 11.66505 37.66722 12.12747 38.01755 12.86906 38.56828 13.33148 38.90555 13.79391 39.24281 14.5355 39.77312 14.99792 40.09808 15.46036 40.42305 16.20193 40.93427 16.66437 41.24773 17.1268 41.5612 17.86838 42.05467 18.33081 42.35738 18.79324 42.66008 19.5348 43.13684 19.99724 43.42947 20.45967 43.7221 21.20125 44.1831 21.66368 44.46652 22.12611 44.74995 22.86769 45.19728 23.33012 45.47223 23.79254 45.74716 24.53413 46.18094 24.99657 46.44823 25.45898 46.7155 26.20058 47.13843 26.663 47.39867 27.12543 47.6589 27.867 48.07011 28.32942 48.32393 28.79185 48.57776 29.53343 48.97961 29.99586 49.22818 30.4583 49.47675 31.19987 49.87157 31.66231 50.11551 32.12474 50.35944 32.86632 50.7464 33.32875 50.98633 33.79118 51.22627 34.53276 51.60818 34.9952 51.84479 35.45763 52.08139 36.1992 52.45761 36.66164 52.69171 37.12405 52.9258 37.86563 53.29955 38.32806 53.53203 38.79048 53.76451 39.53207 54.13583 39.99449 54.36737 40.45692 54.59892 41.1985 54.96947 41.66093 55.20084 42.12337 55.4322 42.86494 55.80304 43.32738 56.03497 43.78981 56.2669 44.53139 56.63922 44.99382 56.87248 45.45625 57.10574 46.19783 57.48087 46.66026 57.71617 47.1227 57.95148 47.86426 58.33038 48.32669 58.56851 48.78911 58.80666 49.5307 59.19081 49.99313 59.43256 50.45555 59.6743 51.19714 60.06485 51.65956 60.31093 52.122 60.55699 52.86359 60.95503 53.326 61.20618 53.78844 61.45734 54.53001 61.86412 54.99245 62.12114 55.45488 62.37816 56.19644 62.79498 56.65887 63.05862 57.1213 63.32225 57.86288 63.75032 58.32532 64.02132 58.78775 64.29231 59.52933 64.73273 59.99176 65.01183 60.4542 65.29094 61.19577 65.74503 61.6582 66.03299 62.12062 66.32097 62.86221 66.78983 63.32465 67.08742 63.78706 67.38501 64.52866 67.86987 64.99107 68.17786 65.4535 68.48584 66.19508 68.98804 66.6575 69.30714 67.11993 69.62627 67.86151 70.14688 68.32394 70.47789 68.78638 70.8089 69.52795 71.3492 69.99039 71.69286 70.45282 72.03651 71.1944 72.59767 71.65683 72.95473 72.11926 73.31178 72.86084 73.89507 73.32327 74.26627 73.7857 74.63747 74.52727 75.24403 74.9897 75.63016 75.45212 76.01627 76.19371 76.64737 76.65614 77.04913 77.11856 77.45091 77.86015 78.10773 78.32257 78.52592 78.785 78.9441 79.52658 79.62788 79.98901 80.06325 80.45145 80.49861 81.19302 81.21053 81.65546 81.66382 82.11789 82.11711 82.85947 82.85838 83.3219 83.33035 83.78433 83.80232 84.5259 84.57416 84.98833 85.06558 85.45076 85.557 86.19234 86.36061 86.65477 86.87221 87.11719 87.38382 87.85878 88.22043 88.32121 88.75299 88.78363 89.28554 89.52522 90.15634 89.98764 90.7106 90.45007 91.26488 91.19167 92.1711 91.65408 92.7478 92.11652 93.32452 92.8581 94.26735 93.32053 94.86728 93.78296 95.46721 94.52452 96.44789 94.98695 97.0718 95.44939 97.69571 96.19096 98.71538 96.6534 99.364 97.11583 100.01262 97.8574 101.07259 98.31984 101.7467 98.78227 102.4208 99.52385 103.52223 99.98628 104.22256 100.4487 104.92291 101.19029 106.06699 101.65273 106.79431 102.11514 107.52164 102.85672 108.70958 103.31914 109.46465 103.78157 110.21971 104.52316 111.45277 104.98558 112.23634 105.44801 113.01993 106.18959 114.2993 106.65202 115.11212 107.11446 115.92494 107.85603 117.2518 108.31847 118.09464 108.7809 118.93745 109.52248 120.31308 109.98491 121.18668 110.44734 122.06027 111.18892 123.48581 111.65135 124.39093 112.11378 125.29604 112.85535 126.77277 113.31778 127.71016 113.7802 128.64754 114.52179 130.17659 114.98422 131.147 115.44664 132.11742 116.18823 133.70008 116.65065 134.70427 117.11308 135.70847 117.85466 137.34587 118.3171 138.38459 118.77953 139.42331 119.5211 141.11666 119.98354 142.19066 120.44597 143.26467 121.18753 145.01529 121.64996 146.12535 122.1124 147.23542 122.85397 149.04444 123.3164 150.19127 123.77884 151.3381 124.52042 153.2067 124.98285 154.39098 125.44527 155.57526 126.18686 157.50415 126.64929 158.72676 127.11171 159.94939 127.8533 161.94084 128.31572 163.20278 128.77816 164.4647 129.51975 166.52022 129.98217 167.82192 130.4446 169.12361 131.18616 171.24236 131.64859 172.58457 132.11103 173.92679 132.8526 176.11225 133.31504 177.49571 133.77747 178.87918 134.51905 181.13022 134.98148 182.55574 135.44391 183.98128 136.18549 186.30159 136.64792 187.77004 137.11035 189.2385 137.85193 191.62735 138.31436 193.1394 138.77678 194.65148 139.51837 197.11157 139.9808 198.66797 140.44322 200.22438 141.1848 202.75543 141.64722 204.357 142.10965 205.95856 142.85124 208.56359 143.31366 210.21099 143.7761 211.8584 144.51767 214.53644 144.9801 216.23036 145.44254 217.92429 146.18412 220.67832 146.64655 222.41968 147.10898 224.16106 147.85056 226.99143 148.31299 228.78096 148.77542 230.57051 149.51699 233.4792 149.97942 235.31755 150.44185 237.15592 151.18343 240.14282 151.64586 242.03067 152.10828 243.91854 152.84987 246.98564 153.3123 248.92403 153.77472 250.86241 154.51631 254.01178 154.97873 256.00135 155.44116 257.99089 156.18274 261.222 156.64517 263.2634 157.1076 265.3048 157.84918 268.6202 158.31162 270.7144 158.77405 272.80857 159.51561 276.20927 159.97805 278.35676 160.44048 280.50425 161.18206 283.9905 161.64449 286.1921 162.10692 288.39375 162.8485 291.968 163.31093 294.2246 163.77335 296.48127 164.97737 302.4564 164.97737 302.4564"/>
</g>
<use data-text="x" xlink:href="#font_4_3" transform="matrix(9.963098,0,0,-9.963098,208.36745,188.79578)"/>
<use data-text="y" xlink:href="#font_4_4" transform="matrix(9.963098,0,0,-9.963098,109.75652,6.20665)"/>
<path transform="matrix(1.00005,0,0,-1.00005,29.866532,227.90473)" d="M-27.76988-58.37975H192.74785V-41.4431H-27.76988Z" fill="#ffffff"/>
<path transform="matrix(1.00005,0,0,-1.00005,29.866532,227.90473)" stroke-width=".3985" stroke-linecap="butt" stroke-miterlimit="10" stroke-linejoin="miter" fill="none" stroke="#000000" d="M-27.76988-58.37975H192.74785V-41.4431H-27.76988Z"/>
<path transform="matrix(1.00005,0,0,-1.00005,5.582321,277.81825)" stroke-width=".99628" stroke-linecap="butt" stroke-miterlimit="10" stroke-linejoin="miter" fill="none" stroke="#e41a1c" d="M0 0C0 0 6.14426 0 8.50412 0 10.86398 0 17.00826 0 17.00826 0"/>
<use data-text="e" xlink:href="#font_4_2" transform="matrix(9.963098,0,0,-9.963098,25.082306,280.38038)"/>
<use data-text="x" xlink:href="#font_5_1" transform="matrix(6.9741489,0,0,-6.9741489,29.721543,276.76518)"/>
<path transform="matrix(1.00005,0,0,-1.00005,37.227907,277.81825)" stroke-width=".99628" stroke-linecap="butt" stroke-dasharray="2.98883,2.98883" stroke-miterlimit="10" stroke-linejoin="miter" fill="none" stroke="#377eb8" d="M0 0C0 0 6.14426 0 8.50412 0 10.86398 0 17.00826 0 17.00826 0"/>
<use data-text="T" xlink:href="#font_4_1" transform="matrix(9.963098,0,0,-9.963098,56.727876,280.80738)"/>
<use data-text="0" xlink:href="#font_6_1" transform="matrix(6.9741489,0,0,-6.9741489,62.55017,282.30146)"/>
<use data-text="(" xlink:href="#font_7_1" transform="matrix(9.963098,0,0,-9.963098,67.0204,280.80738)"/>
<use data-text="x" xlink:href="#font_4_3" transform="matrix(9.963098,0,0,-9.963098,70.89459,280.80738)"/>
<use data-text=")" xlink:href="#font_7_2" transform="matrix(9.963098,0,0,-9.963098,76.58887,280.80738)"/>
<path transform="matrix(1.00005,0,0,-1.00005,82.95418,277.81825)" stroke-width=".99628" stroke-linecap="butt" stroke-dasharray=".99628,1.99255" stroke-miterlimit="10" stroke-linejoin="miter" fill="none" stroke="#4daf4a" d="M0 0C0 0 6.14426 0 8.50412 0 10.86398 0 17.00826 0 17.00826 0"/>
<use data-text="T" xlink:href="#font_4_1" transform="matrix(9.963098,0,0,-9.963098,102.45416,280.80738)"/>
<use data-text="1" xlink:href="#font_6_2" transform="matrix(6.9741489,0,0,-6.9741489,108.27646,282.30146)"/>
<use data-text="(" xlink:href="#font_7_1" transform="matrix(9.963098,0,0,-9.963098,112.74568,280.80738)"/>
<use data-text="x" xlink:href="#font_4_3" transform="matrix(9.963098,0,0,-9.963098,116.61986,280.80738)"/>
<use data-text=")" xlink:href="#font_7_2" transform="matrix(9.963098,0,0,-9.963098,122.31415,280.80738)"/>
<path transform="matrix(1.00005,0,0,-1.00005,128.67949,277.81825)" stroke-width=".99628" stroke-linecap="butt" stroke-dasharray="2.98883,1.99255,.3985,1.99255" stroke-miterlimit="10" stroke-linejoin="miter" fill="none" stroke="#984ea3" d="M0 0C0 0 6.14426 0 8.50412 0 10.86398 0 17.00826 0 17.00826 0"/>
<use data-text="T" xlink:href="#font_4_1" transform="matrix(9.963098,0,0,-9.963098,148.17946,280.80738)"/>
<use data-text="2" xlink:href="#font_6_3" transform="matrix(6.9741489,0,0,-6.9741489,154.00173,282.30146)"/>
<use data-text="(" xlink:href="#font_7_1" transform="matrix(9.963098,0,0,-9.963098,158.47097,280.80738)"/>
<use data-text="x" xlink:href="#font_4_3" transform="matrix(9.963098,0,0,-9.963098,162.34615,280.80738)"/>
<use data-text=")" xlink:href="#font_7_2" transform="matrix(9.963098,0,0,-9.963098,168.04042,280.80738)"/>
<path transform="matrix(1.00005,0,0,-1.00005,174.40474,277.81825)" stroke-width=".99628" stroke-linecap="butt" stroke-dasharray="2.98883,1.99255,.3985,1.99255,.3985,1.99255" stroke-miterlimit="10" stroke-linejoin="miter" fill="none" stroke="#ff7f00" d="M0 0C0 0 6.14426 0 8.50412 0 10.86398 0 17.00826 0 17.00826 0"/>
<use data-text="T" xlink:href="#font_4_1" transform="matrix(9.963098,0,0,-9.963098,193.90474,280.80738)"/>
<use data-text="3" xlink:href="#font_6_4" transform="matrix(6.9741489,0,0,-6.9741489,199.727,282.30146)"/>
<use data-text="(" xlink:href="#font_7_1" transform="matrix(9.963098,0,0,-9.963098,204.19725,280.80738)"/>
<use data-text="x" xlink:href="#font_4_3" transform="matrix(9.963098,0,0,-9.963098,208.07143,280.80738)"/>
<use data-text=")" xlink:href="#font_7_2" transform="matrix(9.963098,0,0,-9.963098,213.7657,280.80738)"/>
</svg>
