<svg xmlns="http://www.w3.org/2000/svg" xmlns:xlink="http://www.w3.org/1999/xlink" version="1.1" width="259" height="239" viewBox="0 0 259 239">
<defs>
<clipPath id="clip_1">
<path transform="matrix(1.00006,0,0,-1.00005,11.628494,227.90473)" d="M0 0H206.22151V206.22151H0Z"/>
</clipPath>
<path id="font_2_1" d="M.69898989 .22743225C.71499636 .22743225 .7369995 .22743225 .7369995 .25042726 .7369995 .2734375 .71499636 .2734375 .69898989 .2734375H.12599182C.10998535 .2734375 .08799744 .2734375 .08799744 .25042726 .08799744 .22743225 .10998535 .22743225 .12599182 .22743225H.69898989Z"/>
<path id="font_3_5" d="M.13999939 .5618439C.15299988 .55784609 .19299317 .54785159 .23498535 .54785159 .3600006 .54785159 .43598939 .6358948 .43598939 .6510315 .43598939 .6620331 .42900086 .66503909 .42399598 .66503909 .42199708 .66503909 .41999818 .66503909 .41099549 .6600342 .37199403 .6450348 .32598878 .632843 .27198792 .632843 .21299744 .632843 .1639862 .6480255 .1329956 .6600342 .12298584 .66503909 .12098694 .66503909 .11999512 .66503909 .10699463 .66503909 .10699463 .6540375 .10699463 .6358948V.34292604C.10699463 .32492066 .10699463 .312912 .12298584 .312912 .1309967 .312912 .13398743 .3169098 .13899231 .32492066 .15098572 .33992005 .18899536 .39093019 .27398683 .39093019 .32998658 .39093019 .35699464 .34492494 .3659973 .32591249 .3829956 .28990174 .3849945 .24389649 .3849945 .20487976 .3849945 .1678772 .38398744 .11387634 .35598756 .069732669 .33699037 .039611818 .29699708 .008514404 .24398804 .008514404 .1789856 .008514404 .114990238 .0496521 .09199524 .11488342 .09498596 .11387634 .100997928 .11387634 .101989749 .11387634 .12998963 .11387634 .1519928 .13188172 .1519928 .16288758 .1519928 .19989014 .12298584 .21289063 .102996829 .21289063 .084991458 .21289063 .052993776 .20288086 .052993776 .15988159 .052993776 .069732669 .1309967-.021484375 .24598694-.021484375 .37098695-.021484375 .47698976 .07574463 .47698976 .19989014 .47698976 .31591798 .3929901 .4189453 .2749939 .4189453 .22499085 .4189453 .17799378 .40293885 .13999939 .368927V.5618439Z"/>
<path id="font_3_4" d="M.3939972 .6468048C.3939972 .6667938 .3939972 .6748047 .37298585 .6748047 .3600006 .6748047 .35899354 .6737976 .34899903 .65979006L.02999878 .197052V.1640625H.31199647V.08100891C.31199647 .04399109 .30899049 .032989503 .23199463 .032989503H.20899964V0C.2939911 .0029907227 .29599 .0029907227 .35299684 .0029907227 .4099884 .0029907227 .4119873 .0029907227 .49699403 0V.032989503H.47399903C.39698792 .032989503 .3939972 .04399109 .3939972 .08100891V.1640625H.5V.197052H.3939972V.6468048M.31900025 .5658417V.197052H.06498718L.31900025 .5658417Z"/>
<path id="font_3_3" d="M.25299073 .33370973C.33198548 .33370973 .38198854 .27557374 .38198854 .17037964 .38198854 .045440675 .31098939 .008514404 .2579956 .008514404 .20298767 .008514404 .12799073 .0284729 .09298706 .08137512 .1289978 .08137512 .1539917 .10437012 .1539917 .13737488 .1539917 .16937256 .1309967 .19238281 .09899902 .19238281 .07199097 .19238281 .04399109 .17536927 .04399109 .13537598 .04399109 .04045105 .1459961-.021484375 .2599945-.021484375 .3929901-.021484375 .48599244 .070388797 .48599244 .17037964 .48599244 .25352479 .41999818 .32969667 .31799317 .3517456 .39698792 .37982179 .45599366 .4479828 .45599366 .52804568 .45599366 .6080475 .3659973 .66503909 .2619934 .66503909 .15499878 .66503909 .07398987 .6070404 .07398987 .53105166 .07398987 .49404908 .09899902 .4780426 .125 .4780426 .1559906 .4780426 .17599488 .5000458 .17599488 .52905276 .17599488 .56604006 .14399719 .5800476 .12199402 .5810547 .1639862 .6360321 .24099732 .6390381 .25898744 .6390381 .2849884 .6390381 .36099244 .6310272 .36099244 .52804568 .36099244 .45799256 .33198548 .41589356 .31799317 .39985658 .28799439 .36878968 .2649994 .36679078 .20399475 .3627777 .18499756 .36177064 .1769867 .36076356 .1769867 .3477478 .1769867 .33370973 .18598938 .33370973 .20298767 .33370973H.25299073Z"/>
<path id="font_3_2" d="M.28199769 .20405579C.2979889 .21907044 .33999635 .2520752 .35598756 .26608277 .41799928 .32312013 .47698976 .3781433 .47698976 .46917726 .47698976 .588089 .3769989 .66503909 .2519989 .66503909 .13198853 .66503909 .052993776 .57411196 .052993776 .48516847 .052993776 .4361725 .09199524 .4291687 .10598755 .4291687 .1269989 .4291687 .1579895 .4441681 .1579895 .48217774 .1579895 .5341797 .10798645 .5341797 .09599304 .5341797 .125 .6070709 .19198609 .6320343 .24099732 .6320343 .33399964 .6320343 .38198854 .55314639 .38198854 .46917726 .38198854 .36514283 .30899049 .28910829 .19099427 .16804505L.06498718 .037994386C.052993776 .026992798 .052993776 .024993897 .052993776 0H.44799806L.47698976 .17904663H.44599916C.44299317 .1590271 .43499757 .10900879 .4229889 .08999634 .4169922 .08198547 .34098817 .08198547 .32499696 .08198547H.14698792L.28199769 .20405579Z"/>
<path id="font_3_1" d="M.31399537 .63708499C.31399537 .664032 .31199647 .66503909 .2849884 .66503909 .24398804 .6251831 .19099427 .6013489 .09599304 .6013489V.5683594C.12298584 .5683594 .1769867 .5683594 .23498535 .5953522V.08203125C.23498535 .04499817 .23199463 .032989503 .13699341 .032989503H.101989749V0C.14299011 .0029907227 .22898865 .0029907227 .27398683 .0029907227 .31900025 .0029907227 .4059906 .0029907227 .44699098 0V.032989503H.4119873C.31698609 .032989503 .31399537 .04499817 .31399537 .08203125V.63708499Z"/>
<clipPath id="clip_4">
<path transform="matrix(1.00006,0,0,-1.00005,11.628494,227.90473)" d="M0 0H206.22151V206.22151H0Z"/>
</clipPath>
<path id="font_5_1" d="M.33399964 .30233766C.33999635 .32835389 .36299134 .42037965 .43299867 .42037965 .43798829 .42037965 .46199037 .42037965 .48298646 .40734864 .45498658 .402359 .43499757 .37734986 .43499757 .35334779 .43499757 .33735658 .44599916 .31835938 .47299195 .31835938 .49499513 .31835938 .5269928 .3363495 .5269928 .37635804 .5269928 .42837525 .46798707 .4423828 .43399049 .4423828 .37599183 .4423828 .34098817 .38935853 .32899476 .36634828 .3039856 .43237306 .25 .4423828 .22099304 .4423828 .116989139 .4423828 .05999756 .3133545 .05999756 .28834535 .05999756 .27833558 .069992069 .27833558 .07199097 .27833558 .07998657 .27833558 .08299255 .28033448 .084991458 .28933717 .11898804 .39535523 .18499756 .42037965 .21899414 .42037965 .23799134 .42037965 .272995 .4113617 .272995 .35334779 .272995 .32235719 .2559967 .25532533 .21899414 .11528015 .20298767 .053268434 .16799927 .011245728 .12399292 .011245728 .117996219 .011245728 .09498596 .011245728 .07398987 .024276734 .09899902 .029266358 .12098694 .05027771 .12098694 .07827759 .12098694 .105270389 .09899902 .11328125 .083999637 .11328125 .053985597 .11328125 .0289917 .08728027 .0289917 .055267335 .0289917 .009246826 .07899475-.0107421879 .12298584-.0107421879 .18899536-.0107421879 .22499085 .059280397 .22799683 .0652771 .23999024 .028274537 .27598573-.0107421879 .33599855-.0107421879 .43899537-.0107421879 .49598695 .118270877 .49598695 .14328003 .49598695 .1532898 .4869995 .1532898 .48399354 .1532898 .47499085 .1532898 .47299195 .14929199 .47099305 .14228821 .43798829 .03527832 .36999513 .011245728 .33799745 .011245728 .29899598 .011245728 .2829895 .043273927 .2829895 .07727051 .2829895 .09927368 .2889862 .121276859 .2999878 .16529846L.33399964 .30233766Z"/>
<path id="font_5_2" d="M.48599244 .38136292C.48999024 .39537049 .48999024 .39736939 .48999024 .40437318 .48999024 .42237855 .47599793 .43138124 .46099855 .43138124 .45098878 .43138124 .43499757 .42536927 .42599488 .41036988 .42399598 .405365 .41600038 .37435914 .4119873 .35635377 .40499879 .33035279 .397995 .30334474 .3919983 .27633668L.34700013 .09628296C.34298707 .08126831 .2999878 .011245728 .23399353 .011245728 .18299866 .011245728 .17199707 .055267335 .17199707 .0922699 .17199707 .1382904 .18899536 .20030213 .22299195 .28833009 .23899842 .3293457 .24299622 .3403473 .24299622 .36035157 .24299622 .405365 .21099854 .4423828 .16099549 .4423828 .06599426 .4423828 .0289917 .29733277 .0289917 .28833009 .0289917 .27833558 .038986207 .27833558 .040985109 .27833558 .050994874 .27833558 .051986696 .28033448 .056991579 .29634095 .083999637 .3903656 .12399292 .42037965 .1579895 .42037965 .1659851 .42037965 .18299866 .42037965 .18299866 .3883667 .18299866 .36335755 .17298889 .3373413 .1659851 .31834413 .12599182 .21231079 .10798645 .1552887 .10798645 .10827637 .10798645 .019256592 .17098999-.0107421879 .22999573-.0107421879 .2689972-.0107421879 .30299378 .0062561037 .33099366 .03425598 .31799317-.017745972 .30599977-.06674194 .2659912-.11973572 .23999024-.15385437 .20199585-.18309021 .1559906-.18309021 .14199829-.18309021 .09700012-.18005371 .07998657-.14074707 .09599304-.14074707 .10899353-.14074707 .12298584-.1287384 .1329956-.11973572 .14299011-.10673523 .14299011-.08773804 .14299011-.056747438 .115997318-.052734376 .10598755-.052734376 .08299255-.052734376 .049987794-.068740848 .049987794-.11773682 .049987794-.16796875 .09399414-.20507813 .1559906-.20507813 .25898744-.20507813 .3619995-.11373901 .3899994-.00074768069L.48599244 .38136292Z"/>
<path id="font_6_3" d="M.68699648 .32714845C.70199587 .32714845 .72099307 .32714845 .72099307 .34713746 .72099307 .36714173 .70199587 .36714173 .6879883 .36714173H.08898926C.07499695 .36714173 .055999757 .36714173 .055999757 .34713746 .055999757 .32714845 .07499695 .32714845 .08999634 .32714845H.68699648M.6879883 .13284302C.70199587 .13284302 .72099307 .13284302 .72099307 .15284729 .72099307 .17285156 .70199587 .17285156 .68699648 .17285156H.08999634C.07499695 .17285156 .055999757 .17285156 .055999757 .15284729 .055999757 .13284302 .07499695 .13284302 .08898926 .13284302H.6879883Z"/>
<path id="font_7_1" d="M.5049896 .18203736H.47099305C.46798707 .16001892 .45799256 .100997928 .44499208 .09098816 .43699647 .084991458 .3600006 .084991458 .34599305 .084991458H.1619873C.2669983 .17803955 .3019867 .20603943 .3619995 .25306703 .43598939 .312088 .5049896 .374115 .5049896 .46914674 .5049896 .5900879 .39898683 .6640625 .2709961 .6640625 .14698792 .6640625 .06298828 .57710269 .06298828 .4851532 .06298828 .43414308 .10598755 .42915345 .115997318 .42915345 .13999939 .42915345 .16899109 .44615174 .16899109 .48214723 .16899109 .5001526 .1619873 .53515627 .10998535 .53515627 .14099121 .6060791 .20899964 .62805178 .2559967 .62805178 .35598756 .62805178 .4079895 .5501404 .4079895 .46914674 .4079895 .38212586 .34599305 .3130951 .31399537 .27708436L.07299805 .038986207C.06298828 .02999878 .06298828 .027999878 .06298828 0H.47499085L.5049896 .18203736Z"/>
<path id="font_8_1" d="M.6589966 .23046875C.6759949 .23046875 .69400027 .23046875 .69400027 .25045777 .69400027 .27046205 .6759949 .27046205 .6589966 .27046205H.117996219C.100997928 .27046205 .08299255 .27046205 .08299255 .25045777 .08299255 .23046875 .100997928 .23046875 .117996219 .23046875H.6589966Z"/>
<path id="font_6_2" d="M.2939911 .16503906V.07800293C.2939911 .041992189 .2919922 .0309906 .21798706 .0309906H.19699097V0C.23799134 .0029907227 .2899933 .0029907227 .33198548 .0029907227 .37399293 .0029907227 .4269867 .0029907227 .46798707 0V.0309906H.44699098C.37298585 .0309906 .37098695 .041992189 .37098695 .07800293V.16503906H.47099305V.19602967H.37098695V.65075686C.37098695 .67074587 .37098695 .6767578 .35499574 .6767578 .34599305 .6767578 .34298707 .6767578 .33499146 .66474917L.027999878 .19602967V.16503906H.2939911M.2999878 .19602967H.055999757L.2999878 .5688019V.19602967Z"/>
<path id="font_6_1" d="M.1269989 .07699585 .23298645 .18003845C.3889923 .31811524 .44898988 .3721466 .44898988 .47216798 .44898988 .5860901 .35899354 .6660156 .23699951 .6660156 .12399292 .6660156 .049987794 .57411196 .049987794 .48516847 .049987794 .4291687 .099990848 .4291687 .102996829 .4291687 .11999512 .4291687 .15499878 .44117738 .15499878 .48217774 .15499878 .5081787 .13699341 .5341797 .101989749 .5341797 .09399414 .5341797 .09199524 .5341797 .08898926 .5331726 .11199951 .59806826 .1659851 .63500979 .22399903 .63500979 .31498719 .63500979 .35798646 .5541382 .35798646 .47216798 .35798646 .39215089 .30799867 .31311036 .25299073 .25108338L.06098938 .036987306C.049987794 .025985718 .049987794 .023986817 .049987794 0H.42099L.44898988 .17404175H.42399598C.4189911 .14402771 .4119873 .1000061 .4019928 .084991458 .394989 .07699585 .32899476 .07699585 .30699159 .07699585H.1269989Z"/>
</defs>
<path transform="matrix(1.00006,0,0,-1.00005,11.628494,227.90473)" stroke-width=".09962" stroke-linecap="butt" stroke-miterlimit="10" stroke-linejoin="miter" fill="none" stroke="#e0e0e0" d="M12.88884 0V206.22151M38.66653 0V206.22151M64.44421 0V206.22151M90.22191 0V206.22151M115.9996 0V206.22151M141.7773 0V206.22151M167.55498 0V206.22151M193.33267 0V206.22151"/>
<path transform="matrix(1.00006,0,0,-1.00005,11.628494,227.90473)" stroke-width=".19925" stroke-linecap="butt" stroke-miterlimit="10" stroke-linejoin="miter" fill="none" stroke="#c0c0c0" d="M0 0V206.22151M25.77768 0V206.22151M51.55537 0V206.22151M77.33307 0V206.22151M103.11075 0V206.22151M154.66614 0V206.22151M180.44384 0V206.22151M206.22151 0V206.22151"/>
<path transform="matrix(1.00006,0,0,-1.00005,11.628494,227.90473)" stroke-width=".09962" stroke-linecap="butt" stroke-miterlimit="10" stroke-linejoin="miter" fill="none" stroke="#e0e0e0" d="M0 12.88884H206.22151M0 38.66653H206.22151M0 64.44421H206.22151M0 90.22191H206.22151M0 115.9996H206.22151M0 141.7773H206.22151M0 167.55498H206.22151M0 193.33267H206.22151"/>
<path transform="matrix(1.00006,0,0,-1.00005,11.628494,227.90473)" stroke-width=".19925" stroke-linecap="butt" stroke-miterlimit="10" stroke-linejoin="miter" fill="none" stroke="#c0c0c0" d="M0 0H206.22151M0 25.77768H206.22151M0 51.55537H206.22151M0 103.11075H206.22151M0 128.88845H206.22151M0 154.66614H206.22151M0 180.44384H206.22151M0 206.22151H206.22151"/>
<path transform="matrix(1.00006,0,0,-1.00005,11.628494,227.90473)" stroke-width=".19925" stroke-linecap="butt" stroke-miterlimit="10" stroke-linejoin="miter" fill="none" stroke="#929292" d="M12.88884 75.91566V78.75049M38.66653 75.91566V78.75049M64.44421 75.91566V78.75049M90.22191 75.91566V78.75049M115.9996 75.91566V78.75049M141.7773 75.91566V78.75049M167.55498 75.91566V78.75049M193.33267 75.91566V78.75049"/>
<path transform="matrix(1.00006,0,0,-1.00005,11.628494,227.90473)" stroke-width=".19925" stroke-linecap="butt" stroke-miterlimit="10" stroke-linejoin="miter" fill="none" stroke="#929292" d="M0 75.20715V79.45895M25.77768 75.20715V79.45895M51.55537 75.20715V79.45895M77.33307 75.20715V79.45895M103.11075 75.20715V79.45895M154.66614 75.20715V79.45895M180.44384 75.20715V79.45895M206.22151 75.20715V79.45895"/>
<path transform="matrix(1.00006,0,0,-1.00005,11.628494,227.90473)" stroke-width=".19925" stroke-linecap="butt" stroke-miterlimit="10" stroke-linejoin="miter" fill="none" stroke="#929292" d="M127.47104 12.88884H130.30587M127.47104 38.66653H130.30587M127.47104 64.44421H130.30587M127.47104 90.22191H130.30587M127.47104 115.9996H130.30587M127.47104 141.7773H130.30587M127.47104 167.55498H130.30587M127.47104 193.33267H130.30587"/>
<path transform="matrix(1.00006,0,0,-1.00005,11.628494,227.90473)" stroke-width=".19925" stroke-linecap="butt" stroke-miterlimit="10" stroke-linejoin="miter" fill="none" stroke="#929292" d="M126.76254 0H131.01435M126.76254 25.77768H131.01435M126.76254 51.55537H131.01435M126.76254 103.11075H131.01435M126.76254 128.88845H131.01435M126.76254 154.66614H131.01435M126.76254 180.44384H131.01435M126.76254 206.22151H131.01435"/>
<path transform="matrix(1.00006,0,0,-1.00005,11.628494,227.90473)" stroke-width=".3985" stroke-linecap="butt" stroke-miterlimit="10" stroke-linejoin="miter" fill="none" stroke="#000000" d="M-6.37622 77.33307H212.59775"/>
<path transform="matrix(-1.00006,-0,0,1.00005,5.2518918,150.5678)" d="M3.58653 0C2.52383 .19925 .797 .797-.3985 1.49438V-1.49438C.797-.797 2.52383-.19925 3.58653 0"/>
<path transform="matrix(1.00006,0,0,-1.00005,224.23899,150.5678)" d="M3.58653 0C2.52383 .19925 .797 .797-.3985 1.49438V-1.49438C.797-.797 2.52383-.19925 3.58653 0"/>
<path transform="matrix(1.00006,0,0,-1.00005,11.628494,227.90473)" stroke-width=".3985" stroke-linecap="butt" stroke-miterlimit="10" stroke-linejoin="miter" fill="none" stroke="#000000" d="M128.88845-6.37622V212.59775"/>
<path transform="matrix(0,1.00005,1.00006,0,140.52466,234.28127)" d="M3.58653 0C2.52383 .19925 .797 .797-.3985 1.49438V-1.49438C.797-.797 2.52383-.19925 3.58653 0"/>
<path transform="matrix(0,-1.00005,-1.00006,-0,140.52466,15.296356)" d="M3.58653 0C2.52383 .19925 .797 .797-.3985 1.49438V-1.49438C.797-.797 2.52383-.19925 3.58653 0"/>
<g clip-path="url(#clip_1)">
<path transform="matrix(1.00006,0,0,-1.00005,11.628494,227.90473)" d="M128.85233 77.33417C116.95764 80.31612 99.842 85.09251 90.408 88.07153 80.96936 91.05197 67.82451 95.83159 60.86957 98.81204 53.91461 101.7925 44.7528 106.57213 40.28152 109.55258 35.81024 112.53304 30.63129 117.31268 28.64368 120.29314 26.65608 123.27359 25.46016 128.05323 25.95622 131.03366 26.45227 134.0141 29.23926 138.79372 32.219 141.77417 35.19872 144.75463 41.96869 149.53429 47.4321 152.51474 48.61385 153.15943 50.0431 153.88829 51.63794 154.66492L128.897 77.33418C134.85305 80.31612 142.4159 85.09251 145.89194 88.07153 149.36965 91.05197 152.95523 95.83159 153.94927 98.81204 154.94332 101.7925 154.54595 106.57213 153.05632 109.55258 151.5667 112.53304 147.18634 117.31268 143.21305 120.29314 139.23975 123.27359 130.87644 128.05323 124.41948 131.03366 117.96251 134.0141 105.61632 138.79372 96.67564 141.77417 87.73499 144.75463 71.4057 149.53429 59.98137 152.51474 57.5102 153.15943 54.62314 153.88829 51.475 154.66492Z" fill="#b3b3ff" fill-opacity=".5"/>
</g>
<use data-text="&#x2212;" xlink:href="#font_2_1" transform="matrix(7.9705779,0,0,-7.970498,6.21817,161.3504)"/>
<use data-text="5" xlink:href="#font_3_5" transform="matrix(7.9705779,0,0,-7.970498,12.804565,161.3504)"/>
<use data-text="&#x2212;" xlink:href="#font_2_1" transform="matrix(7.9705779,0,0,-7.970498,31.996716,161.3504)"/>
<use data-text="4" xlink:href="#font_3_4" transform="matrix(7.9705779,0,0,-7.970498,38.58311,161.3504)"/>
<use data-text="&#x2212;" xlink:href="#font_2_1" transform="matrix(7.9705779,0,0,-7.970498,57.77626,161.3504)"/>
<use data-text="3" xlink:href="#font_3_3" transform="matrix(7.9705779,0,0,-7.970498,64.362659,161.3504)"/>
<use data-text="&#x2212;" xlink:href="#font_2_1" transform="matrix(7.9705779,0,0,-7.970498,83.5558,161.3504)"/>
<use data-text="2" xlink:href="#font_3_2" transform="matrix(7.9705779,0,0,-7.970498,90.1422,161.3504)"/>
<use data-text="&#x2212;" xlink:href="#font_2_1" transform="matrix(7.9705779,0,0,-7.970498,109.33435,161.3504)"/>
<use data-text="1" xlink:href="#font_3_1" transform="matrix(7.9705779,0,0,-7.970498,115.920749,161.3504)"/>
<use data-text="1" xlink:href="#font_3_1" transform="matrix(7.9705779,0,0,-7.970498,164.18663,161.3504)"/>
<use data-text="2" xlink:href="#font_3_2" transform="matrix(7.9705779,0,0,-7.970498,189.96619,161.3504)"/>
<use data-text="3" xlink:href="#font_3_3" transform="matrix(7.9705779,0,0,-7.970498,215.74474,161.3504)"/>
<use data-text="&#x2212;" xlink:href="#font_2_1" transform="matrix(7.9705779,0,0,-7.970498,124.057239,230.05783)"/>
<use data-text="3" xlink:href="#font_3_3" transform="matrix(7.9705779,0,0,-7.970498,130.64363,230.05783)"/>
<use data-text="&#x2212;" xlink:href="#font_2_1" transform="matrix(7.9705779,0,0,-7.970498,124.057239,204.27855)"/>
<use data-text="2" xlink:href="#font_3_2" transform="matrix(7.9705779,0,0,-7.970498,130.64363,204.27855)"/>
<use data-text="&#x2212;" xlink:href="#font_2_1" transform="matrix(7.9705779,0,0,-7.970498,124.057239,178.50026)"/>
<use data-text="1" xlink:href="#font_3_1" transform="matrix(7.9705779,0,0,-7.970498,130.64363,178.50026)"/>
<use data-text="1" xlink:href="#font_3_1" transform="matrix(7.9705779,0,0,-7.970498,130.64363,127.356708)"/>
<use data-text="2" xlink:href="#font_3_2" transform="matrix(7.9705779,0,0,-7.970498,130.64363,101.578418)"/>
<use data-text="3" xlink:href="#font_3_3" transform="matrix(7.9705779,0,0,-7.970498,130.64363,75.79912)"/>
<use data-text="4" xlink:href="#font_3_4" transform="matrix(7.9705779,0,0,-7.970498,130.64363,50.019838)"/>
<use data-text="5" xlink:href="#font_3_5" transform="matrix(7.9705779,0,0,-7.970498,130.64363,24.241547)"/>
<g clip-path="url(#clip_4)">
<path transform="matrix(1.00006,0,0,-1.00005,11.628494,227.90473)" stroke-width=".79701" stroke-linecap="butt" stroke-miterlimit="10" stroke-linejoin="miter" fill="none" stroke="#0000ff" d="M1288.8845-51.55537C1288.8845-51.55537 1182.2351-43.7953 1142.9923-40.81483 1103.7496-37.83438 1042.8091-33.05473 1006.05-30.07428 969.2909-27.09383 912.3338-22.3142 878.0585-19.33376 843.78317-16.35332 790.80886-11.57368 759.01718-8.59325 727.22549-5.61281 678.2342-.83319 648.9262 2.14725 619.6181 5.1277 574.6095 9.90735 547.7851 12.8878 520.96078 15.86826 479.9354 20.64787 455.5947 23.62833 431.25404 26.60878 394.2116 31.3884 372.35459 34.36885 350.49757 37.3493 317.4378 42.12897 298.06449 45.10942 278.69117 48.08987 249.61463 52.86949 232.72498 55.84993 215.83535 58.83037 190.74167 63.61 176.3357 66.59045 161.92972 69.5709 140.819 74.35056 128.8967 77.33101 116.9744 80.31146 99.84663 85.0911 90.408 88.07153 80.96936 91.05197 67.82451 95.83159 60.86957 98.81204 53.91461 101.7925 44.7528 106.57213 40.28152 109.55258 35.81024 112.53304 30.63129 117.31268 28.64368 120.29314 26.65608 123.27359 25.46016 128.05323 25.95622 131.03366 26.45227 134.0141 29.23926 138.79372 32.219 141.77417 35.19872 144.75463 41.96869 149.53429 47.4321 152.51474 52.89551 155.4952 63.64842 160.27481 71.5955 163.25525 79.54259 166.23569 94.27841 171.01532 104.70918 173.99578 115.13995 176.97623 133.85889 181.75588 146.77333 184.73633 159.68778 187.71678 182.38945 192.49642 197.78755 195.47687 213.18566 198.45732 257.7521 206.21738 257.7521 206.21738"/>
<path transform="matrix(1.00006,0,0,-1.00005,11.628494,227.90473)" stroke-width=".79701" stroke-linecap="butt" stroke-miterlimit="10" stroke-linejoin="miter" fill="none" stroke="#ff0000" d="M-773.33078-51.55537C-773.33078-51.55537-682.2015-43.7953-648.9196-40.81483-615.6378-37.83438-564.25656-33.05473-533.4584-30.07428-502.6602-27.09383-455.2623-22.3142-426.94789-19.33376-398.63343-16.35332-355.21839-11.57368-329.3876-8.59325-303.55683-5.61281-264.12477-.83319-240.77765 2.14725-217.43053 5.1277-181.98117 9.90735-161.11772 12.8878-140.25428 15.86826-108.7881 20.64787-90.40836 23.62833-72.02863 26.60878-44.54538 31.3884-28.64928 34.36885-12.75317 37.3493 10.74722 42.12897 24.15965 45.10942 37.57207 48.08987 57.08942 52.86949 68.01814 55.84993 78.94687 58.83037 94.48132 63.61 102.92639 66.59045 111.37144 69.5709 122.92293 74.35056 128.88431 77.33101 134.84569 80.31146 142.41423 85.0911 145.89194 88.07153 149.36965 91.05197 152.95523 95.83159 153.94927 98.81204 154.94332 101.7925 154.54595 106.57213 153.05632 109.55258 151.5667 112.53304 147.18634 117.31268 143.21305 120.29314 139.23975 123.27359 130.87644 128.05323 124.41948 131.03366 117.96251 134.0141 105.61632 138.79372 96.67564 141.77417 87.73499 144.75463 71.4057 149.53429 59.98137 152.51474 48.55704 155.4952 28.24496 160.27481 14.33698 163.25525 .42899 166.23569-23.86603 171.01532-40.25774 173.99578-56.64943 176.97623-84.92763 181.75588-103.803 184.73633-122.67836 187.71678-154.93926 192.49642-176.29827 195.47687-197.65727 198.45732-257.74388 206.21738-257.74388 206.21738"/>
</g>
<use data-text="x" xlink:href="#font_5_1" transform="matrix(9.963197,0,0,-9.963098,231.51868,152.69898)"/>
<use data-text="y" xlink:href="#font_5_2" transform="matrix(9.963197,0,0,-9.963098,138.10408,6.20665)"/>
<path transform="matrix(1.00006,0,0,-1.00005,11.628494,227.90473)" d="M166.79299 116.19885H245.65006V147.36229H166.79299Z" fill="#ffffff"/>
<path transform="matrix(1.00006,0,0,-1.00005,11.628494,227.90473)" stroke-width=".3985" stroke-linecap="butt" stroke-miterlimit="10" stroke-linejoin="miter" fill="none" stroke="#000000" d="M166.79299 116.19885H245.65006V147.36229H166.79299Z"/>
<path transform="matrix(1.00006,0,0,-1.00005,181.8187,89.32281)" stroke-width=".79701" stroke-linecap="butt" stroke-miterlimit="10" stroke-linejoin="miter" fill="none" stroke="#0000ff" d="M0 0C0 0 6.14426 0 8.50412 0 10.86398 0 17.00826 0 17.00826 0"/>
<use data-text="x" xlink:href="#font_5_1" transform="matrix(9.963197,0,0,-9.963098,201.21887,92.630977)"/>
<use data-text="=" xlink:href="#font_6_3" transform="matrix(9.963197,0,0,-9.963098,209.68137,92.630977)"/>
<use data-text="y" xlink:href="#font_5_2" transform="matrix(9.963197,0,0,-9.963098,220.198,92.630977)"/>
<use data-text="2" xlink:href="#font_7_1" transform="matrix(6.9742186,0,0,-6.9741489,225.4403,89.015789)"/>
<use data-text="&#x2212;" xlink:href="#font_8_1" transform="matrix(9.963197,0,0,-9.963098,232.12372,92.630977)"/>
<use data-text="4" xlink:href="#font_6_2" transform="matrix(9.963197,0,0,-9.963098,242.08632,92.630977)"/>
<use data-text="y" xlink:href="#font_5_2" transform="matrix(9.963197,0,0,-9.963098,247.0686,92.630977)"/>
<path transform="matrix(1.00006,0,0,-1.00005,181.8187,102.91248)" stroke-width=".79701" stroke-linecap="butt" stroke-miterlimit="10" stroke-linejoin="miter" fill="none" stroke="#ff0000" d="M0 0C0 0 6.14426 0 8.50412 0 10.86398 0 17.00826 0 17.00826 0"/>
<use data-text="x" xlink:href="#font_5_1" transform="matrix(9.963197,0,0,-9.963098,201.21887,106.22065)"/>
<use data-text="=" xlink:href="#font_6_3" transform="matrix(9.963197,0,0,-9.963098,209.68137,106.22065)"/>
<use data-text="2" xlink:href="#font_6_1" transform="matrix(9.963197,0,0,-9.963098,220.18259,106.22065)"/>
<use data-text="y" xlink:href="#font_5_2" transform="matrix(9.963197,0,0,-9.963098,225.17929,106.22065)"/>
<use data-text="&#x2212;" xlink:href="#font_8_1" transform="matrix(9.963197,0,0,-9.963098,232.63574,106.22065)"/>
<use data-text="y" xlink:href="#font_5_2" transform="matrix(9.963197,0,0,-9.963098,242.59835,106.22065)"/>
<use data-text="2" xlink:href="#font_7_1" transform="matrix(6.9742186,0,0,-6.9741489,247.84066,102.60548)"/>
</svg>
